<svg xmlns="http://www.w3.org/2000/svg" xmlns:xlink="http://www.w3.org/1999/xlink" width="1920" height="1080" viewBox="0 0 1920 1080">
  <defs>
    <linearGradient id="summer-linear-gradient" x1="369.35" y1="845.61" x2="1747.34" y2="-361.83" gradientUnits="userSpaceOnUse">
      <stop offset="0" stop-color="#7ff2ff"/>
      <stop offset="1" stop-color="#0094ff"/>
    </linearGradient>
    <linearGradient id="summer-linear-gradient-2" x1="963.05" y1="386.4" x2="947.64" y2="1441.41" gradientUnits="userSpaceOnUse">
      <stop offset="0" stop-color="#39b54a"/>
      <stop offset="1" stop-color="#006837"/>
    </linearGradient>
    <linearGradient id="summer-linear-gradient-3" x1="1098.42" y1="650.51" x2="1258.67" y2="359.15" gradientUnits="userSpaceOnUse">
      <stop offset="0" stop-color="#92da59"/>
      <stop offset="1" stop-color="#5ce166"/>
    </linearGradient>
    <linearGradient id="summer-linear-gradient-4" x1="965.5" y1="296.79" x2="965.5" y2="1023.08" xlink:href="#summer-linear-gradient-2"/>
    <linearGradient id="summer-linear-gradient-5" x1="840.46" y1="868.03" x2="1059" y2="470.67" gradientUnits="userSpaceOnUse">
      <stop offset="0" stop-color="#80b659"/>
      <stop offset="1" stop-color="#39cc50"/>
    </linearGradient>
    <linearGradient id="summer-linear-gradient-6" x1="972.05" y1="-14.39" x2="961.36" y2="776.78" xlink:href="#summer-linear-gradient-2"/>
    <linearGradient id="summer-linear-gradient-7" x1="37.73" y1="787.16" x2="267.24" y2="586.05" gradientUnits="userSpaceOnUse">
      <stop offset="0" stop-color="#0b5500"/>
      <stop offset="1" stop-color="#0a4"/>
    </linearGradient>
    <linearGradient id="summer-linear-gradient-8" x1="1788.8" y1="261.29" x2="1687.9" y2="294.92" gradientUnits="userSpaceOnUse">
      <stop offset="0" stop-color="#754c24"/>
      <stop offset="1" stop-color="#42210b"/>
    </linearGradient>
    <linearGradient id="summer-linear-gradient-9" x1="188.68" y1="76.29" x2="187.92" y2="76.55" xlink:href="#summer-linear-gradient-8"/>
    <linearGradient id="summer-linear-gradient-10" x1="558.95" y1="263.6" x2="499.34" y2="283.47" gradientUnits="userSpaceOnUse">
      <stop offset="0" stop-color="#2e0f00"/>
      <stop offset="1" stop-color="#48210b"/>
    </linearGradient>
    <linearGradient id="summer-linear-gradient-11" x1="446.34" y1="238.7" x2="605.5" y2="238.7" gradientUnits="userSpaceOnUse">
      <stop offset="0" stop-color="#004d23"/>
      <stop offset="1" stop-color="#006437"/>
    </linearGradient>
    <linearGradient id="summer-linear-gradient-12" x1="139.76" y1="214.09" x2="57.11" y2="241.64" xlink:href="#summer-linear-gradient-10"/>
    <linearGradient id="summer-linear-gradient-13" x1="-0.5" y1="194.34" x2="217.5" y2="194.34" xlink:href="#summer-linear-gradient-11"/>
    <linearGradient id="summer-linear-gradient-14" x1="373.58" y1="266.58" x2="267.59" y2="301.91" xlink:href="#summer-linear-gradient-10"/>
    <linearGradient id="summer-linear-gradient-15" x1="146.34" y1="235.07" x2="481.5" y2="235.07" xlink:href="#summer-linear-gradient-11"/>
    <linearGradient id="summer-linear-gradient-16" x1="574.05" y1="418.95" x2="421.13" y2="469.92" xlink:href="#summer-linear-gradient-8"/>
    <linearGradient id="summer-linear-gradient-17" x1="321.82" y1="345.45" x2="74.24" y2="427.97" xlink:href="#summer-linear-gradient-8"/>
    <linearGradient id="summer-linear-gradient-18" x1="37.19" y1="810.89" x2="168.58" y2="695.76" xlink:href="#summer-linear-gradient-7"/>
    <linearGradient id="summer-linear-gradient-19" x1="400.11" y1="-10.25" x2="139.46" y2="76.63" gradientUnits="userSpaceOnUse">
      <stop offset="0" stop-color="#008c37"/>
      <stop offset="1" stop-color="#005120"/>
    </linearGradient>
    <linearGradient id="summer-linear-gradient-20" x1="617.73" y1="87.87" x2="419.85" y2="153.83" xlink:href="#summer-linear-gradient-19"/>
    <linearGradient id="summer-linear-gradient-21" x1="1861.48" y1="11.41" x2="1669.58" y2="75.38" xlink:href="#summer-linear-gradient-19"/>
    <linearGradient id="summer-linear-gradient-22" x1="508.83" y1="54.09" x2="370.76" y2="100.12" xlink:href="#summer-linear-gradient-19"/>
    <linearGradient id="summer-linear-gradient-23" x1="1784.03" y1="42.96" x2="1657.57" y2="85.11" xlink:href="#summer-linear-gradient-19"/>
    <linearGradient id="summer-linear-gradient-24" x1="1447.18" y1="221.83" x2="1358.89" y2="251.26" xlink:href="#summer-linear-gradient-10"/>
    <linearGradient id="summer-linear-gradient-25" x1="1257.48" y1="195.47" x2="1537.5" y2="195.47" xlink:href="#summer-linear-gradient-11"/>
    <linearGradient id="summer-linear-gradient-26" x1="1652.07" y1="444.41" x2="1714.72" y2="389.51" xlink:href="#summer-linear-gradient-7"/>
    <linearGradient id="summer-linear-gradient-27" x1="570.49" y1="10.58" x2="469.28" y2="44.32" xlink:href="#summer-linear-gradient-19"/>
    <linearGradient id="summer-linear-gradient-28" x1="1727.2" y1="303.65" x2="1549.03" y2="363.04" xlink:href="#summer-linear-gradient-8"/>
    <linearGradient id="summer-linear-gradient-29" x1="1802.44" y1="-23.05" x2="1512.87" y2="73.48" xlink:href="#summer-linear-gradient-19"/>
    <linearGradient id="summer-linear-gradient-30" x1="1843.03" y1="801.31" x2="1943.26" y2="713.49" xlink:href="#summer-linear-gradient-7"/>
    <linearGradient id="summer-linear-gradient-31" x1="1508.33" y1="657.55" x2="1682.86" y2="504.62" xlink:href="#summer-linear-gradient-7"/>
    <linearGradient id="summer-linear-gradient-32" x1="398.2" y1="666.24" x2="510.57" y2="567.77" xlink:href="#summer-linear-gradient-7"/>
    <linearGradient id="summer-linear-gradient-33" x1="1959.88" y1="380.05" x2="1814.88" y2="428.38" xlink:href="#summer-linear-gradient-10"/>
    <linearGradient id="summer-linear-gradient-34" x1="1679.48" y1="343.81" x2="1920.5" y2="343.81" xlink:href="#summer-linear-gradient-11"/>
    <linearGradient id="summer-linear-gradient-35" x1="1742.3" y1="867.8" x2="1874.95" y2="751.56" xlink:href="#summer-linear-gradient-7"/>
    <linearGradient id="summer-linear-gradient-36" x1="512.2" y1="687.24" x2="624.57" y2="588.77" xlink:href="#summer-linear-gradient-7"/>
    <linearGradient id="summer-linear-gradient-37" x1="13.66" y1="472" x2="76.09" y2="417.29" xlink:href="#summer-linear-gradient-7"/>
    <linearGradient id="summer-linear-gradient-38" x1="1416.7" y1="484.77" x2="1462.59" y2="444.57" xlink:href="#summer-linear-gradient-7"/>
    <linearGradient id="summer-linear-gradient-39" x1="1335" y1="506.92" x2="1400.04" y2="449.92" xlink:href="#summer-linear-gradient-7"/>
    <linearGradient id="summer-linear-gradient-40" x1="225.72" y1="794.8" x2="403.62" y2="638.92" xlink:href="#summer-linear-gradient-7"/>
    <linearGradient id="summer-linear-gradient-41" x1="1167.83" y1="1277.55" x2="1559" y2="566.33" gradientUnits="userSpaceOnUse">
      <stop offset="0" stop-color="#009245"/>
      <stop offset="1" stop-color="#39b54a"/>
    </linearGradient>
    <linearGradient id="summer-linear-gradient-42" x1="755.85" y1="148.8" x2="897.72" y2="148.8" gradientUnits="userSpaceOnUse">
      <stop offset="0" stop-color="#fcee21"/>
      <stop offset="1" stop-color="#ff0"/>
    </linearGradient>
    <linearGradient id="summer-linear-gradient-43" x1="702.85" y1="141.57" x2="751.94" y2="141.57" xlink:href="#summer-linear-gradient-42"/>
    <linearGradient id="summer-linear-gradient-44" x1="709.37" y1="176.41" x2="757.77" y2="176.41" xlink:href="#summer-linear-gradient-42"/>
    <linearGradient id="summer-linear-gradient-45" x1="717.79" y1="104.02" x2="765.36" y2="104.02" xlink:href="#summer-linear-gradient-42"/>
    <linearGradient id="summer-linear-gradient-46" x1="736.22" y1="213.33" x2="777.57" y2="213.33" xlink:href="#summer-linear-gradient-42"/>
    <linearGradient id="summer-linear-gradient-47" x1="751.6" y1="71.27" x2="789.27" y2="71.27" xlink:href="#summer-linear-gradient-42"/>
    <linearGradient id="summer-linear-gradient-48" x1="778.77" y1="238.96" x2="806.06" y2="238.96" xlink:href="#summer-linear-gradient-42"/>
    <linearGradient id="summer-linear-gradient-49" x1="798.44" y1="51.78" x2="819.49" y2="51.78" xlink:href="#summer-linear-gradient-42"/>
    <linearGradient id="summer-linear-gradient-50" x1="818.95" y1="248.55" x2="838.29" y2="248.55" xlink:href="#summer-linear-gradient-42"/>
    <linearGradient id="summer-linear-gradient-51" x1="831.14" y1="50.73" x2="850.86" y2="50.73" xlink:href="#summer-linear-gradient-42"/>
    <linearGradient id="summer-linear-gradient-52" x1="850.99" y1="236.9" x2="880.05" y2="236.9" xlink:href="#summer-linear-gradient-42"/>
    <linearGradient id="summer-linear-gradient-53" x1="861.63" y1="68.68" x2="897.96" y2="68.68" xlink:href="#summer-linear-gradient-42"/>
    <linearGradient id="summer-linear-gradient-54" x1="878.66" y1="209.84" x2="921.28" y2="209.84" xlink:href="#summer-linear-gradient-42"/>
    <linearGradient id="summer-linear-gradient-55" x1="886.25" y1="100.28" x2="933.44" y2="100.28" xlink:href="#summer-linear-gradient-42"/>
    <linearGradient id="summer-linear-gradient-56" x1="897.23" y1="172.14" x2="946.2" y2="172.14" xlink:href="#summer-linear-gradient-42"/>
    <linearGradient id="summer-linear-gradient-57" x1="900.84" y1="138.35" x2="950.5" y2="138.35" xlink:href="#summer-linear-gradient-42"/>
  </defs>
  <title>Summer</title>
  <g id="Layer_5" data-name="Layer 5">
    <g>
      <rect x="-0.5" y="-0.5" width="1920" height="658" fill="url(#summer-linear-gradient)"/>
      <path d="M1920,396l-.15,136.39-.11,102.5,0,29,0,35.59-.12,113,0,50H.5L.35,791.15l0-8.65L.22,734,.1,674.59l0-17.09L0,613.42H0L-.35,466.49l-.08-36.28L-.5,396C31,391.37,56,387.51,76.72,384.4c11.63-1.75,22-3.27,31.4-4.57l.16,0c15.65-2.14,28.89-3.68,41.68-4.65,1.58-.13,3.16-.24,4.73-.34,18.78-1.23,37.09-1.24,61.2-.16,14.88.67,32,1.75,52.74,3.22,7.68.54,15.86,1.14,24.62,1.79L331,382.48c29.06,2.18,63.38,4.73,104.58,7.63l11.77.83h0l29,2h0l3.78.25q16.69,1.14,34.71,2.34l12.26.81,2.36.15,5.78.38C901.44,421.31,838.56,458.19,1112,413.6c29.06-4.75,61.92-10.41,99.49-17.1q5.45-1,10.87-1.9,22-3.8,43.73-7,4.7-.7,9.38-1.37c35.11-5.07,69.47-9.06,102.88-12.13q17.75-1.65,35.12-2.94l2.3-.17c42.16-3.11,82.64-4.81,121-5.43q14.28-.23,28.16-.27c37.11-.11,72.08.75,104.52,2.25q9.87.47,19.42,1,17.67,1,34.22,2.19,21.81,1.57,41.56,3.43c38.23,3.58,70.4,7.72,95.36,11.43,12.67,1.89,23.48,3.66,32.29,5.19,15.63,2.72,25,4.67,27.14,5.14Z" fill="url(#summer-linear-gradient-2)"/>
      <path d="M1100.5,572.5c23.89-78.39,16.27-127.62,11.51-158.9,29.06-4.75,61.92-10.41,99.49-17.1q5.45-1,10.87-1.9c35.13,83.29,35.13,178.9,35.13,178.9Z" fill="url(#summer-linear-gradient-3)"/>
      <path d="M1920.5,634.84V922.5H10.5V570.35s4.43-.68,13-1.88c11.7-1.63,31.12-4.2,57.49-7.27s59.6-6.6,99-10.2c30.52-2.78,64.74-5.58,102.29-8.2l5.8-.4q23.14-1.59,47.93-3.06,43.05-2.55,90.74-4.6,52.8-2.24,110.83-3.56c98.94-2.19,208.58-2,326,2.35,61.74,2.27,125.64,5.68,191.28,10.47q26,1.88,52.27,4.08l2.32.19q78.15,6.54,147.54,10.6c73.06,4.33,139.06,6.79,198.51,7.83q37.76.66,72,.59c60.42-.08,112.91-1.71,158.2-4.24q4.18-.22,8.3-.48,9.87-.59,19.28-1.23c61.31-4.18,107.8-10,141.66-15.5,17.18-2.79,31.11-5.51,42.07-7.91,9.77-2.13,17.18-4,22.43-5.44l.35-.1-.11,102.5Z" fill="url(#summer-linear-gradient-4)"/>
      <path d="M1072.5,738.5l-244,15c22.51-106.13,32.35-192.64,35.13-220,61.74,2.27,125.64,5.68,191.28,10.47C1079.68,632.54,1072.5,738.5,1072.5,738.5Z" fill="url(#summer-linear-gradient-5)"/>
      <path d="M1920.5,634.84V1080.5H-.5V674.42l.6.17c1.31.38,4.8,1.36,10.4,2.82,8.28,2.16,21.18,5.35,38.54,9.18q13.76,3,31.19,6.54h0c21,4.18,46,8.73,74.79,13.31l11.64,1.82c41.07,6.3,89.38,12.54,144.53,17.81q6,.57,12,1.12c36.83,3.36,76.58,6.26,119.16,8.45,111.39,5.72,242.12,6.54,390.26-2.25q81.95-4.86,170.89-13.89,35.63-3.66,69.85-7.14,252.09-25.62,428.94-41.77l.23,0q79.68-7.38,144.13-13.07l33.44-2.94q112.13-9.81,171.88-14.45,31.21-2.49,48.19-3.77l19.29-1.43.24,0Z" fill="url(#summer-linear-gradient-6)"/>
      <path d="M313.5,705a97.78,97.78,0,0,1-2.29,21.07q-1,4.73-2.52,9.31a108,108,0,0,1-6.21,15.12,125.89,125.89,0,0,1-23.34,32H-.5V613.77l.47-.35H0c3.37-2.56,6.89-5,10.53-7.39,19.07-12.37,41.74-21.85,66.72-27.53a245.55,245.55,0,0,1,54.28-6c62.9,0,118.34,23.22,151,58.54q1.89,2,3.66,4.12a122.13,122.13,0,0,1,15.26,22.34q1.57,3,3,6v0a100.66,100.66,0,0,1,8.64,32.21v0Q313.5,700.35,313.5,705Z" fill="url(#summer-linear-gradient-7)"/>
      <path d="M1782.5,437s-25.86-44.37-25.86-174.93,21.71-129.92,21.71-129.92-51.39,12.45-95.12-9.25c0,0,49.47,134.38-13.73,313.78,0,0,31.14-35.05,57-17.17C1740.25,429,1758.88,405.7,1782.5,437Z" fill="url(#summer-linear-gradient-8)"/>
      <path d="M188.93,76.29l-1.48.34A4.43,4.43,0,0,1,188.93,76.29Z" fill="url(#summer-linear-gradient-9)"/>
      <g>
        <path d="M513.28,441.63s15.18,4.71,23.57,0L525,104Z" fill="url(#summer-linear-gradient-10)"/>
        <path d="M453.51,398.32a307.81,307.81,0,0,1,69.86-10.85c22.58-.72,47.1,1.6,67.76,10.85C646.24,423,525.06,77.81,525.06,77.81S418.15,395.37,453.51,398.32Z" fill="url(#summer-linear-gradient-11)"/>
      </g>
      <g>
        <path d="M110.9,454.47a28.19,28.19,0,0,1-11.68,3.12,54.77,54.77,0,0,1-8.6-.08,85.06,85.06,0,0,1-16.34-3l.91-26.08,1.53-44,.46-13.4,6.23-179.34L90.09-.5h4.84L96,29l5.76,164.27,6.21,177,.3,8.32,0,1.25Z" fill="url(#summer-linear-gradient-12)"/>
        <path d="M215.89,374.66c-2.79,12.6-9.32,17.66-20.7,12.56a182.56,182.56,0,0,0-40.5-12.4c-1.53-.29-3.06-.57-4.59-.83a280.86,280.86,0,0,0-41.16-3.72l-1,0c-6-.11-12-.05-18,.14q-6.48.21-12.79.62A491.19,491.19,0,0,0-.5,382.59V199.66c2.54-9.93,5.19-20,7.92-30.15C23.22,110.73,41.56,49.59,57.16-.5h72.23c17.54,54.33,38.34,121.68,55.32,185,.38,1.39.75,2.77,1.11,4.15C207.52,270.13,222.6,344.3,215.89,374.66Z" fill="url(#summer-linear-gradient-13)"/>
      </g>
      <g>
        <path d="M336.94,567.88c-17.68,10.9-49.65,0-49.65,0l.81-25.48,3.23-102.26,1.92-60.47,6.42-202.89,1-30.62.12-3.93,1.71-54.15,2.45-77.46L305.28-.5h13.51L320.11,41l2.9,90.85,1,31.84L326.4,238,331,382.48l2,63.4,3,93.46Z" fill="url(#summer-linear-gradient-14)"/>
        <path d="M451.25,467.72a138.77,138.77,0,0,0-17.11-7C402.09,450,365.52,449.21,333,445.88c-8.51-.88-16.74-1.93-24.54-3.38-5.78-1.08-11.51-1.85-17.17-2.36a192,192,0,0,0-19.32-.81c-61.81.37-110.57,28.39-110.57,28.39-16.19-1.48-18.22-37.34-11.48-92.56,0-.39.1-.78.14-1.17,6.16-49.86,19.37-115.27,35.72-185.33l1.11-4.73C201.13,123.41,217.59,59.61,233.82-.5H393.3c.5,1.77,1,3.55,1.49,5.33v0q4.35,15.66,8.7,31.61,5.4,19.84,10.73,39.94c9.24,34.84,18.18,69.95,26.37,104.08,4.85,20.21,9.43,40.08,13.66,59.35,3.32,15.13,6.41,29.89,9.23,44.16q2.61,13.23,4.92,25.86c5.6,30.84,9.68,58.78,11.69,82.4,0,.32.05.64.08.95C484.84,449.37,477.67,480.72,451.25,467.72Z" fill="url(#summer-linear-gradient-15)"/>
      </g>
      <path d="M580.5,649.52s-53.38-64-53.38-246.41,30.54-181.54,30.54-181.54S481.5,251.29,426.5,235.4c0,0,39,325.74-44,417.1,0,0,66.92-30.38,103.3-5.4C505.15,660.39,539.5,616.75,580.5,649.52Z" fill="url(#summer-linear-gradient-16)"/>
      <path d="M338.49,762.89c-10.32-13.66-20.25-22.4-29.8-27.51-44.88-24.07-81.39,31.75-111.42,30.77A22.33,22.33,0,0,1,185.05,762a121.73,121.73,0,0,0-19.22-10.88C98.32,720.68,24.5,762,24.5,762q10.83-30.75,20.1-60.84,2.26-7.32,4.44-14.6Q53.41,672,57.42,657.5q11.17-40.2,19.8-79,1.94-8.68,3.76-17.29c7.51-35.54,13.52-70.11,18.24-103.61q5.63-39.93,8.9-77.76c0-.42.08-.85.12-1.27.24-2.77.48-5.54.7-8.29a1452.18,1452.18,0,0,0,3.75-176.69A1328,1328,0,0,0,96,29Q93.38,13.44,90.66-.5H286.49c-7.33,35.15-13.73,85.07-17.17,156-1.7,35.07-2.67,75.27-2.67,121.37q0,54,2,101.05,1.32,32.3,3.38,61.45c2.68,38.36,6.23,72.76,10.29,103.47,4.66,35.31,10,65.75,15.5,91.76q2.56,12.11,5.15,22.94c.49,2,1,4,1.46,6v0c2.92,11.91,5.83,22.63,8.64,32.21v0c3.6,12.28,7.05,22.71,10.18,31.42C331.92,751.37,338.16,762.33,338.49,762.89Z" fill="url(#summer-linear-gradient-17)"/>
      <path d="M197.3,764.51c0,.54,0,1.1,0,1.64,0,.09,0,.17,0,.26a39.44,39.44,0,0,1-3.69,15.32c-.11.26-.24.52-.37.77a41.59,41.59,0,0,1-37.27,23H31.87A41.73,41.73,0,0,1,.35,791.15c-.29-.33-.58-.67-.85-1V735.07L.22,734A72.28,72.28,0,0,1,10.5,721.93c9-8.54,20.65-15.65,34.1-20.74a134.17,134.17,0,0,1,30.86-7.55q2.37-.3,4.77-.51h0c4.47-.42,9-.63,13.65-.63,22.87,0,44,5.17,61.14,13.94a104,104,0,0,1,10.28,6C185,725.55,197.3,744,197.3,764.51Z" fill="url(#summer-linear-gradient-18)"/>
      <path d="M487.57-.5C472.62,22,454.3,42.3,433.34,60.68Q424.1,68.8,414.22,76.4c-27.27,21-58.11,39.33-91.21,55.46q-11,5.34-22.25,10.37l-2.42,1.06-2.77,1.22q-12.94,5.67-26.25,11c-21.93,8.72-44.48,16.7-67.32,24q-7.56,2.43-15.07,4.43l-2.22.58a277.87,277.87,0,0,1-72,9.07q-5.52,0-11-.33-9.26-.47-18.32-1.59a246.14,246.14,0,0,1-76-22.15q-4-1.9-7.92-4V-.5Z" fill="url(#summer-linear-gradient-19)"/>
      <path d="M693.5,154.5c0,72.49-45,101.57-106.61,122.76-17.1,5.88-35.48,11.15-54.54,16.58l-.68.19-13.39,3.83h0q-11.25,3.21-22.69,6.64a139.71,139.71,0,0,1-27.18,5.35c-3.78.37-7.54.57-11.28.62a138.46,138.46,0,0,1-24.41-1.87C389.93,301.52,351.6,274.86,326.4,238a177.82,177.82,0,0,1-26.73-61.2,169.52,169.52,0,0,1-4.1-32.27c0-1.67-.07-3.34-.07-5v-.37a204.28,204.28,0,0,1,7-51A254,254,0,0,1,320.11,41,266.36,266.36,0,0,1,345.42-.5H628.26C667.73,43,693.5,99.35,693.5,154.5Z" fill="url(#summer-linear-gradient-20)"/>
      <path d="M1919.5-.5V80.36a155.7,155.7,0,0,1-35.92,35.32q-7.26,5.2-15.28,9.91c-25.76,15.09-57,25.86-91.4,30.7q-6,.84-12.11,1.44c-1.28.13-2.57.24-3.86.35q-12.37,1-25.19,1.06a295.28,295.28,0,0,1-43.71-3.22q-8-1.2-15.69-2.81-10.14-2.12-19.82-4.92c-25.47-7.37-48.33-18.19-67.33-31.6-24.77-17.5-43-39.41-52-63.86A100,100,0,0,1,1531,18.05,98.67,98.67,0,0,1,1532.74-.5Z" fill="url(#summer-linear-gradient-21)"/>
      <path d="M566.5,104.5c0,21.55-6,37.05-16.44,48.18a67.61,67.61,0,0,1-22.8,15.55c-1.47.65-3,1.26-4.54,1.83a143.19,143.19,0,0,1-29.26,7.19c-16.28,2.42-34.26,3.13-52.87,3.23-1.69,0-3.39,0-5.09,0-39.18,0-81.87-2.24-111.47-16.8-9.25-4.54-17.21-10.28-23.39-17.54-.81-.93-1.57-1.88-2.3-2.87-1-1.34-1.95-2.72-2.84-4.16-5.75-9.32-9-20.72-9-34.63,0-31.62,5.66-66,18.42-93.88q2.63-5.76,5.67-11.12H495.65c31.59,23.54,57.8,53.37,67.16,82.72A73.12,73.12,0,0,1,566.5,104.5Z" fill="url(#summer-linear-gradient-22)"/>
      <path d="M1820.87,51.32a125.17,125.17,0,0,1-55.45,103.88q-2.2,1.5-4.49,2.88a124.36,124.36,0,0,1-65.08,18.26h-.07a125.93,125.93,0,0,1-22-1.93,124.47,124.47,0,0,1-55.52-25,125.8,125.8,0,0,1-29.12-32.81A125.2,125.2,0,0,1,1582-.5h227.62a124.59,124.59,0,0,1,11.21,51.82Z" fill="url(#summer-linear-gradient-23)"/>
      <g>
        <path d="M1416.72,472.68a22.61,22.61,0,0,1-2.85,1.48,31.29,31.29,0,0,1-8.31,2.18c-14.14,1.85-30.32-3.66-30.32-3.66l.58-18.31,2.54-80.29.26-8.14,8-252.86L1390.21-.5h11.39l3.91,122.14,8,249.09,0,.41,2.34,73.4Z" fill="url(#summer-linear-gradient-24)"/>
        <path d="M1536.83,365.54c-2.18,21.29-9.75,30.77-24.61,23.46-29-14.3-64.88-14.93-96.44-18-.78-.07-1.55-.15-2.32-.24-7.11-.72-14-1.6-20.5-2.81-4.83-.9-9.61-1.55-14.34-2-47.49-4.34-88.8,13.23-103.14,20.27-3.49,1.7-5.38,2.79-5.38,2.79a8.35,8.35,0,0,1-4-1.42c-25.78-17.18,10.64-184.44,51.4-340.59,4.18-16,8.4-31.9,12.6-47.49h134.18c13.13,47.2,26.37,97.07,37.92,144.85C1524.91,238.34,1541,324.2,1536.83,365.54Z" fill="url(#summer-linear-gradient-25)"/>
      </g>
      <path d="M1722.79,423.75c0,.39,0,.79,0,1.19-.35,13.79-8.15,24.56-17.4,24.56h-52.21c-9.25,0-17.06-10.77-17.4-24.56,0-.4,0-.8,0-1.19,0-22.24,15.42-40.73,35.75-44.54a43.16,43.16,0,0,1,7.76-.71C1703.31,378.5,1722.79,398.76,1722.79,423.75Z" fill="url(#summer-linear-gradient-26)"/>
      <path d="M599.49-.5c-.32,37.24-9.63,70.27-36.68,82.72-7.39,3.41-16.1,5.28-26.31,5.28-2.6,0-5.33-.08-8.17-.24q-3-.17-6.26-.47c-27.21-2.48-62.26-11.47-88.73-26.11-12.39-6.87-22.91-15-29.85-24.22-5.69-7.56-9-15.9-9-25q0-3.39.29-6.65v0q.24-2.71.69-5.33Z" fill="url(#summer-linear-gradient-27)"/>
      <path d="M1715.49,624c-43.06-57-75.59,16.77-100.66-.56-35.89-24.81-78.19-11.84-96.33-4.24V596.79q7.1-21.94,13-43.32c80.59-291.4,3-502,3-502C1608.3,88,1694,71.33,1706.42,68.64c-7.27,2.7-38.06,26.57-38.06,236.49,0,105.75,9.3,180.47,19.65,230.87C1700.72,598,1715,623.18,1715.49,624Z" fill="url(#summer-linear-gradient-28)"/>
      <path d="M1903.51-.5c-3.84,22.53-11.26,41.84-21.78,58.36a137.78,137.78,0,0,1-11.79,15.93c-18.08,21.12-42.2,36.74-70.89,48.12q-7,2.78-14.31,5.2-13.86,4.63-28.9,8.14a498.71,498.71,0,0,1-66.09,10.5q-6.21.6-12.52,1.1-10.21.79-20.71,1.34-18.74,1-38.21,1.21c-5.23.07-10.51.1-15.81.1-15.34,0-30.41-.27-45.13-.89-19-.8-37.48-2.17-55.17-4.26-35.77-4.23-68.47-11.39-96.69-22.71q-9.83-3.93-18.89-8.56c-30.24-15.43-54-36.83-69.12-66.09A162,162,0,0,1,1302-.5Z" fill="url(#summer-linear-gradient-29)"/>
      <path d="M1920.5,699.51v113h-63.63c-22,0-40.52-17.14-41.33-39.09,0-.63,0-1.27,0-1.9a52,52,0,0,1,4.64-21.37c5.55-12.48,15.85-23.5,29.41-32,14-8.83,31.52-15,50.91-17.45l1.8-.21a148.85,148.85,0,0,1,16.64-.93h1.6Z" fill="url(#summer-linear-gradient-30)"/>
      <path d="M1725.5,599.54c0,.82,0,1.64,0,2.45-1.09,28.36-25.93,50.51-55.36,50.51H1503.91c-29.43,0-54.27-22.15-55.36-50.51,0-.81,0-1.63,0-2.45,0-45.73,53-123,113.81-91.57,7.17,3.71,16.26-1.47,24.69-1.47C1663.49,506.5,1725.5,548.15,1725.5,599.54Z" fill="url(#summer-linear-gradient-31)"/>
      <path d="M535.84,626.4c0,.53,0,1.06,0,1.58-.7,18.26-16.7,32.52-35.64,32.52h-107c-18.94,0-34.94-14.26-35.64-32.52,0-.52,0-1.05,0-1.58,0-29.44,31.61-53.92,73.27-58.95a133.29,133.29,0,0,1,15.9-1C495.92,566.5,535.84,593.32,535.84,626.4Z" fill="url(#summer-linear-gradient-32)"/>
      <g>
        <path d="M1905.66,807a31.61,31.61,0,0,1-4.61,2.33,47.13,47.13,0,0,1-14.33,3.2,78.11,78.11,0,0,1-11.75,0,125.36,125.36,0,0,1-28.23-5.53l1.61-50.89,1.2-38,1.92-60.59.07-2.12.48-15.27,3-94.27,5.07-160.28,8.23-260,1.64-51.8L1872.29-.5h7.58l1.86,58.36,1.85,57.82,8.78,275.07,4.71,147.18,3.14,98.41.68,21.16.15,4.69,1.22,38.24Z" fill="url(#summer-linear-gradient-33)"/>
        <path d="M1920.5,634.84V664l-.79-.06-.21,0c-6.25-.53-12.41-1.08-18.46-1.71-10.1-1-19.88-2.28-29.13-4-1.31-.24-2.62-.48-3.92-.69q-8.29-1.39-16.45-2.12a251.82,251.82,0,0,0-61,2.12c-54.31,8.33-93.09,30.62-93.09,30.62-9.54-.87-14.93-11.81-17-30.62-.1-1-.2-1.94-.29-2.94s-.15-1.91-.22-2.9c-.91-13.42-.39-30.18,1.34-49.64,1.06-12,2.58-25,4.5-39q1.48-10.71,3.28-22.11c.2-1.28.41-2.57.62-3.86,4.3-26.91,9.83-56.39,16.25-87.6q3.52-17.13,7.41-34.91,1.54-7.11,3.15-14.32,3.24-14.62,6.68-29.55c10.37-45.09,21.93-92,33.92-138.73h0c6.52-25.41,13.17-50.75,19.83-75.67q1.71-6.43,3.44-12.83,2.21-8.22,4.4-16.35c10.58-39.07,21-76.75,30.9-111.68q2.29-8.07,4.51-15.93h99.35V395.89l.5.11-.15,136.39-.11,102.5Z" fill="url(#summer-linear-gradient-34)"/>
      </g>
      <path d="M1902.3,821.51c0,.63,0,1.27,0,1.9-.81,22-19.36,39.09-41.33,39.09H1736.87c-22,0-40.52-17.14-41.33-39.09,0-.63,0-1.27,0-1.9,0-35.39,36.65-64.82,85-70.87,6-.75,19.75-1.14,26-1.14C1863.61,749.5,1902.3,781.74,1902.3,821.51Z" fill="url(#summer-linear-gradient-35)"/>
      <path d="M649.84,647.4c0,.53,0,1.06,0,1.58-.7,18.26-16.7,32.52-35.64,32.52h-107c-18.94,0-34.94-14.26-35.64-32.52,0-.52,0-1.05,0-1.58,0-29.44,31.61-53.92,73.27-58.95a133.29,133.29,0,0,1,15.9-1C609.92,587.5,649.84,614.32,649.84,647.4Z" fill="url(#summer-linear-gradient-36)"/>
      <path d="M92.5,450.45c0,.26,0,.53,0,.79a13.82,13.82,0,0,1-1.86,6.27c-3.37,5.92-10.94,10-19.52,10H6.9a26,26,0,0,1-7.25-1,.44.44,0,0,1-.15-.05V430.26l.07-.05c7.74-4.73,18.15-8.06,29.89-9.24q4.65-.47,9.54-.47c14,0,26.67,3,36.19,7.89C85.83,433.87,92.5,441.72,92.5,450.45Z" fill="url(#summer-linear-gradient-37)"/>
      <path d="M1468.5,469.64c0,.29,0,.58,0,.87-.25,10.1-6,18-12.74,18h-38.24c-6.78,0-12.49-7.89-12.74-18,0-.29,0-.58,0-.87,0-16.29,11.29-29.83,26.19-32.62a31.25,31.25,0,0,1,5.68-.52C1454.23,436.5,1468.5,451.34,1468.5,469.64Z" fill="url(#summer-linear-gradient-38)"/>
      <path d="M1416.5,483.45c0,.26,0,.53,0,.79-.42,9.13-10,16.26-21.38,16.26h-64.2c-11.36,0-21-7.13-21.38-16.26,0-.26,0-.53,0-.79,0-14.72,19-27,44-29.48q4.65-.47,9.54-.47C1392.55,453.5,1416.5,466.91,1416.5,483.45Z" fill="url(#summer-linear-gradient-39)"/>
      <path d="M442.5,732c0,.74,0,1.47,0,2.2-.95,29.86-26,53.3-55.9,53.3H218.44c-29.87,0-54.95-23.44-55.9-53.3,0-.73,0-1.46,0-2.2,0-47.92,49.63-87.76,115-96a201.78,201.78,0,0,1,25-1.54C379.82,634.5,442.5,678.15,442.5,732Z" fill="url(#summer-linear-gradient-40)"/>
      <path d="M1160.86,1080.5h406.6s-20.82-329.86-64.89-409.93L1194.1,700.23S1188.23,951.5,1160.86,1080.5Z" fill="url(#summer-linear-gradient-41)"/>
      <g class="sun">
        <circle cx="826.79" cy="148.8" r="70.94" fill="url(#summer-linear-gradient-42)"/>
        <path d="M750.05,148.79c0,.86,0,1.72,0,2.57l-47.24-13.78,49.09-5.8A76.85,76.85,0,0,0,750.05,148.79Z" fill="url(#summer-linear-gradient-43)"/>
        <path d="M757.77,182.38,709.37,189l42.16-25.07A76.52,76.52,0,0,0,757.77,182.38Z" fill="url(#summer-linear-gradient-44)"/>
        <path d="M765.36,102.78A76.87,76.87,0,0,0,755.61,120L717.79,88Z" fill="url(#summer-linear-gradient-45)"/>
        <path d="M777.57,207.66l-41.35,25.57,28.15-39.8A76.5,76.5,0,0,0,777.57,207.66Z" fill="url(#summer-linear-gradient-46)"/>
        <path d="M789.27,81.82a77,77,0,0,0-16,12l-21.69-45Z" fill="url(#summer-linear-gradient-47)"/>
        <path d="M806.06,222.7l-27.29,40.06,9.48-47.6A76.12,76.12,0,0,0,806.06,222.7Z" fill="url(#summer-linear-gradient-48)"/>
        <path d="M819.49,72.38A76.84,76.84,0,0,0,800,76.86l-1.52-50.17Z" fill="url(#summer-linear-gradient-49)"/>
        <path d="M838.29,224.68l-8.65,47.75L819,225.14a78.53,78.53,0,0,0,19.34-.46Z" fill="url(#summer-linear-gradient-50)"/>
        <path d="M850.86,75.89a76.17,76.17,0,0,0-19.72-3.73l19.07-46.59Z" fill="url(#summer-linear-gradient-51)"/>
        <path d="M880.05,260.57,851,221.64a76.05,76.05,0,0,0,17.49-8.41Z" fill="url(#summer-linear-gradient-52)"/>
        <path d="M898,45.61,878.13,91.74a76.47,76.47,0,0,0-16.5-11.36Z" fill="url(#summer-linear-gradient-53)"/>
        <path d="M921.28,229.24l-42.62-23.89a77.2,77.2,0,0,0,12.6-14.9Z" fill="url(#summer-linear-gradient-54)"/>
        <path d="M933.44,83.34l-36.67,33.88a76.32,76.32,0,0,0-10.52-17Z" fill="url(#summer-linear-gradient-55)"/>
        <path d="M946.2,183.84l-49-4.51a76,76,0,0,0,5.43-18.9Z" fill="url(#summer-linear-gradient-56)"/>
        <path d="M950.5,132.24l-47,15.92a76.61,76.61,0,0,0-2.7-19.63Z" fill="url(#summer-linear-gradient-57)"/>
      </g>
    </g>
  </g>
</svg>
