<svg xmlns="http://www.w3.org/2000/svg" xmlns:xlink="http://www.w3.org/1999/xlink" width="1920" height="1080" viewBox="0 0 1920 1080">
  <defs>
    <linearGradient id="winter-linear-gradient" x1="369.35" y1="845.61" x2="1747.34" y2="-361.83" gradientUnits="userSpaceOnUse">
      <stop offset="0" stop-color="#8e9eab"/>
      <stop offset="1" stop-color="#eef2f3"/>
    </linearGradient>
    <linearGradient id="winter-linear-gradient-2" x1="959.75" y1="1307.86" x2="959.75" y2="392.72" gradientUnits="userSpaceOnUse">
      <stop offset="0" stop-color="#e6e6e6"/>
      <stop offset="1" stop-color="#d2ffff"/>
    </linearGradient>
    <linearGradient id="winter-linear-gradient-3" x1="1268.97" y1="359.8" x2="1104.62" y2="620.82" gradientUnits="userSpaceOnUse">
      <stop offset="0" stop-color="#f5f5f5"/>
      <stop offset="1" stop-color="#d2ffff"/>
    </linearGradient>
    <linearGradient id="winter-linear-gradient-4" x1="965.5" y1="1104.41" x2="965.5" y2="203.83" gradientUnits="userSpaceOnUse">
      <stop offset="0" stop-color="#e6e6e6"/>
      <stop offset="1" stop-color="#d2ffff"/>
    </linearGradient>
    <linearGradient id="winter-linear-gradient-5" x1="1078.29" y1="497.35" x2="853.52" y2="780.12" gradientUnits="userSpaceOnUse">
      <stop offset="0" stop-color="#f0f0f0"/>
      <stop offset="1" stop-color="#d7fafa"/>
    </linearGradient>
    <linearGradient id="winter-linear-gradient-6" x1="960" y1="983.26" x2="960" y2="113.7" xlink:href="#winter-linear-gradient-2"/>
    <linearGradient id="winter-linear-gradient-7" x1="37.73" y1="787.16" x2="267.24" y2="586.05" gradientUnits="userSpaceOnUse">
      <stop offset="0" stop-color="#aff0ff"/>
      <stop offset="1" stop-color="#fff"/>
    </linearGradient>
    <linearGradient id="winter-linear-gradient-8" x1="1788.8" y1="261.29" x2="1687.9" y2="294.92" gradientUnits="userSpaceOnUse">
      <stop offset="0" stop-color="#754c24"/>
      <stop offset="1" stop-color="#42210b"/>
    </linearGradient>
    <linearGradient id="winter-linear-gradient-9" x1="188.68" y1="76.29" x2="187.92" y2="76.55" xlink:href="#winter-linear-gradient-8"/>
    <linearGradient id="winter-linear-gradient-10" x1="558.95" y1="263.6" x2="499.34" y2="283.47" gradientUnits="userSpaceOnUse">
      <stop offset="0" stop-color="#2e0f00"/>
      <stop offset="1" stop-color="#48210b"/>
    </linearGradient>
    <linearGradient id="winter-linear-gradient-11" x1="493.37" y1="319.89" x2="571.57" y2="319.89" gradientUnits="userSpaceOnUse">
      <stop offset="0" stop-color="#003623"/>
      <stop offset="1" stop-color="#006437"/>
    </linearGradient>
    <linearGradient id="winter-linear-gradient-12" x1="446.34" y1="238.7" x2="605.5" y2="238.7" gradientUnits="userSpaceOnUse">
      <stop offset="0" stop-color="#f5ffe4"/>
      <stop offset="1" stop-color="#c8ffff"/>
    </linearGradient>
    <linearGradient id="winter-linear-gradient-13" x1="139.76" y1="214.09" x2="57.11" y2="241.64" xlink:href="#winter-linear-gradient-10"/>
    <linearGradient id="winter-linear-gradient-14" x1="30.47" y1="255.21" x2="188.18" y2="255.21" gradientUnits="userSpaceOnUse">
      <stop offset="0" stop-color="#003824"/>
      <stop offset="1" stop-color="#006437"/>
    </linearGradient>
    <linearGradient id="winter-linear-gradient-15" x1="-0.5" y1="194.34" x2="217.5" y2="194.34" gradientUnits="userSpaceOnUse">
      <stop offset="0" stop-color="#c8ffff"/>
      <stop offset="1" stop-color="#fff"/>
    </linearGradient>
    <linearGradient id="winter-linear-gradient-16" x1="373.58" y1="266.58" x2="267.59" y2="301.91" xlink:href="#winter-linear-gradient-10"/>
    <linearGradient id="winter-linear-gradient-17" x1="224.74" y1="304.37" x2="408.58" y2="304.37" xlink:href="#winter-linear-gradient-11"/>
    <linearGradient id="winter-linear-gradient-18" x1="146.34" y1="235.07" x2="481.5" y2="235.07" gradientUnits="userSpaceOnUse">
      <stop offset="0" stop-color="#ffffdb"/>
      <stop offset="1" stop-color="#c8ffff"/>
    </linearGradient>
    <linearGradient id="winter-linear-gradient-19" x1="574.05" y1="418.95" x2="421.13" y2="469.92" xlink:href="#winter-linear-gradient-8"/>
    <linearGradient id="winter-linear-gradient-20" x1="321.82" y1="345.45" x2="74.24" y2="427.97" xlink:href="#winter-linear-gradient-8"/>
    <linearGradient id="winter-linear-gradient-21" x1="37.19" y1="810.89" x2="168.58" y2="695.76" xlink:href="#winter-linear-gradient-7"/>
    <linearGradient id="winter-linear-gradient-22" x1="400.11" y1="-10.25" x2="139.46" y2="76.63" gradientUnits="userSpaceOnUse">
      <stop offset="0" stop-color="#ffffdc"/>
      <stop offset="1" stop-color="#c9ffff"/>
    </linearGradient>
    <linearGradient id="winter-linear-gradient-23" x1="617.73" y1="87.87" x2="419.85" y2="153.83" xlink:href="#winter-linear-gradient-22"/>
    <linearGradient id="winter-linear-gradient-24" x1="1861.48" y1="11.41" x2="1669.58" y2="75.38" xlink:href="#winter-linear-gradient-22"/>
    <linearGradient id="winter-linear-gradient-25" x1="508.83" y1="54.09" x2="370.76" y2="100.12" gradientUnits="userSpaceOnUse">
      <stop offset="0" stop-color="#ffffdc"/>
      <stop offset="1" stop-color="#c9ffff"/>
    </linearGradient>
    <linearGradient id="winter-linear-gradient-26" x1="1784.03" y1="42.96" x2="1657.57" y2="85.11" xlink:href="#winter-linear-gradient-22"/>
    <linearGradient id="winter-linear-gradient-27" x1="1447.18" y1="221.83" x2="1358.89" y2="251.26" xlink:href="#winter-linear-gradient-10"/>
    <linearGradient id="winter-linear-gradient-28" x1="1313" y1="202.78" x2="1474.74" y2="202.78" xlink:href="#winter-linear-gradient-11"/>
    <linearGradient id="winter-linear-gradient-29" x1="1257.48" y1="195.47" x2="1537.5" y2="195.47" gradientUnits="userSpaceOnUse">
      <stop offset="0" stop-color="#d2fff8"/>
      <stop offset="1" stop-color="#f0ffe6"/>
    </linearGradient>
    <linearGradient id="winter-linear-gradient-30" x1="1652.07" y1="444.41" x2="1714.72" y2="389.51" xlink:href="#winter-linear-gradient-7"/>
    <linearGradient id="winter-linear-gradient-31" x1="570.49" y1="10.58" x2="469.28" y2="44.32" xlink:href="#winter-linear-gradient-22"/>
    <linearGradient id="winter-linear-gradient-32" x1="1727.2" y1="303.65" x2="1549.03" y2="363.04" xlink:href="#winter-linear-gradient-8"/>
    <linearGradient id="winter-linear-gradient-33" x1="1802.44" y1="-23.05" x2="1512.87" y2="73.48" xlink:href="#winter-linear-gradient-22"/>
    <linearGradient id="winter-linear-gradient-34" x1="1843.03" y1="801.31" x2="1943.26" y2="713.49" xlink:href="#winter-linear-gradient-7"/>
    <linearGradient id="winter-linear-gradient-35" x1="1508.33" y1="657.55" x2="1682.86" y2="504.62" xlink:href="#winter-linear-gradient-7"/>
    <linearGradient id="winter-linear-gradient-36" x1="398.2" y1="666.24" x2="510.57" y2="567.77" xlink:href="#winter-linear-gradient-7"/>
    <linearGradient id="winter-linear-gradient-37" x1="1959.88" y1="380.05" x2="1814.88" y2="428.38" xlink:href="#winter-linear-gradient-10"/>
    <linearGradient id="winter-linear-gradient-38" x1="1782.91" y1="392.84" x2="1920.5" y2="392.84" xlink:href="#winter-linear-gradient-11"/>
    <linearGradient id="winter-linear-gradient-39" x1="1679.48" y1="343.81" x2="1919.5" y2="343.81" gradientUnits="userSpaceOnUse">
      <stop offset="0" stop-color="#c8ffff"/>
      <stop offset="1" stop-color="#fbffde"/>
    </linearGradient>
    <linearGradient id="winter-linear-gradient-40" x1="1742.3" y1="867.8" x2="1874.95" y2="751.56" xlink:href="#winter-linear-gradient-7"/>
    <linearGradient id="winter-linear-gradient-41" x1="512.2" y1="687.24" x2="624.57" y2="588.77" xlink:href="#winter-linear-gradient-7"/>
    <linearGradient id="winter-linear-gradient-42" x1="13.66" y1="472" x2="76.09" y2="417.29" xlink:href="#winter-linear-gradient-7"/>
    <linearGradient id="winter-linear-gradient-43" x1="1416.7" y1="484.77" x2="1462.59" y2="444.57" xlink:href="#winter-linear-gradient-7"/>
    <linearGradient id="winter-linear-gradient-44" x1="1335" y1="506.92" x2="1400.04" y2="449.92" xlink:href="#winter-linear-gradient-7"/>
    <linearGradient id="winter-linear-gradient-45" x1="225.72" y1="794.8" x2="403.62" y2="638.92" xlink:href="#winter-linear-gradient-7"/>
    <linearGradient id="winter-linear-gradient-46" x1="1573.03" y1="636.95" x2="1094.48" y2="1267.76" gradientUnits="userSpaceOnUse">
      <stop offset="0" stop-color="#f0f0f0"/>
      <stop offset="1" stop-color="#dcf5f5"/>
    </linearGradient>
    <linearGradient id="winter-linear-gradient-47" x1="1336.05" y1="563.95" x2="1160.17" y2="585.83" gradientUnits="userSpaceOnUse">
      <stop offset="0" stop-color="#fff"/>
      <stop offset="1" stop-color="#c8ffff"/>
    </linearGradient>
    <linearGradient id="winter-linear-gradient-48" x1="1306.74" y1="430.61" x2="1190.99" y2="445.02" xlink:href="#winter-linear-gradient-47"/>
  </defs>
  <title>Winter</title>
  <g id="Layer_3" data-name="Layer 3">
    <g>
      <rect x="-0.5" y="-0.5" width="1920" height="658" fill="url(#winter-linear-gradient)"/>
      <path d="M1920,396l-.15,136.39-.11,102.5,0,29,0,35.59-.12,113,0,50H.5L.35,791.15l0-8.65L.22,734,.1,674.59l0-17.09L0,613.42H0L-.35,466.49l-.08-36.28L-.5,396C31,391.37,56,387.51,76.72,384.4c11.63-1.75,22-3.27,31.4-4.57l.16,0c15.65-2.14,28.89-3.68,41.68-4.65,1.58-.13,3.16-.24,4.73-.34,18.78-1.23,37.09-1.24,61.2-.16,14.88.67,32,1.75,52.74,3.22,7.68.54,15.86,1.14,24.62,1.79L331,382.48c29.06,2.18,63.38,4.73,104.58,7.63l11.77.83h0l29,2h0l3.78.25q16.69,1.14,34.71,2.34l12.26.81,2.36.15,5.78.38C901.44,421.31,838.56,458.19,1112,413.6c29.06-4.75,61.92-10.41,99.49-17.1q5.45-1,10.87-1.9,22-3.8,43.73-7,4.7-.7,9.38-1.37c35.11-5.07,69.47-9.06,102.88-12.13q17.75-1.65,35.12-2.94l2.3-.17c42.16-3.11,82.64-4.81,121-5.43q14.28-.23,28.16-.27c37.11-.11,72.08.75,104.52,2.25q9.87.47,19.42,1,17.67,1,34.22,2.19,21.81,1.57,41.56,3.43c38.23,3.58,70.4,7.72,95.36,11.43,12.67,1.89,23.48,3.66,32.29,5.19,15.63,2.72,25,4.67,27.14,5.14Z" fill="url(#winter-linear-gradient-2)"/>
      <path d="M1100.5,572.5c23.89-78.39,16.27-127.62,11.51-158.9,29.06-4.75,61.92-10.41,99.49-17.1q5.45-1,10.87-1.9c35.13,83.29,35.13,178.9,35.13,178.9Z" fill="url(#winter-linear-gradient-3)"/>
      <path d="M1920.5,634.84V922.5H10.5V570.35s4.43-.68,13-1.88c11.7-1.63,31.12-4.2,57.49-7.27s59.6-6.6,99-10.2c30.52-2.78,64.74-5.58,102.29-8.2l5.8-.4q23.14-1.59,47.93-3.06,43.05-2.55,90.74-4.6,52.8-2.24,110.83-3.56c98.94-2.19,208.58-2,326,2.35,61.74,2.27,125.64,5.68,191.28,10.47q26,1.88,52.27,4.08l2.32.19q78.15,6.54,147.54,10.6c73.06,4.33,139.06,6.79,198.51,7.83q37.76.66,72,.59c60.42-.08,112.91-1.71,158.2-4.24q4.18-.22,8.3-.48,9.87-.59,19.28-1.23c61.31-4.18,107.8-10,141.66-15.5,17.18-2.79,31.11-5.51,42.07-7.91,9.77-2.13,17.18-4,22.43-5.44l.35-.1-.11,102.5Z" fill="url(#winter-linear-gradient-4)"/>
      <path d="M1072.5,738.5l-244,15c22.51-106.13,32.35-192.64,35.13-220,61.74,2.27,125.64,5.68,191.28,10.47C1079.68,632.54,1072.5,738.5,1072.5,738.5Z" fill="url(#winter-linear-gradient-5)"/>
      <path d="M1920.5,634.84V1080.5H-.5V674.42l.6.17c1.31.38,4.8,1.36,10.4,2.82,8.28,2.16,21.18,5.35,38.54,9.18q13.76,3,31.19,6.54h0c21,4.18,46,8.73,74.79,13.31l11.64,1.82c41.07,6.3,89.38,12.54,144.53,17.81q6,.57,12,1.12c36.83,3.36,76.58,6.26,119.16,8.45,111.39,5.72,242.12,6.54,390.26-2.25q81.95-4.86,170.89-13.89,35.63-3.66,69.85-7.14,252.09-25.62,428.94-41.77l.23,0q79.68-7.38,144.13-13.07l33.44-2.94q112.13-9.81,171.88-14.45,31.21-2.49,48.19-3.77l19.29-1.43.24,0Z" fill="url(#winter-linear-gradient-6)"/>
      <path d="M313.5,705a97.78,97.78,0,0,1-2.29,21.07q-1,4.73-2.52,9.31a108,108,0,0,1-6.21,15.12,125.89,125.89,0,0,1-23.34,32H-.5V613.77l.47-.35H0c3.37-2.56,6.89-5,10.53-7.39,19.07-12.37,41.74-21.85,66.72-27.53a245.55,245.55,0,0,1,54.28-6c62.9,0,118.34,23.22,151,58.54q1.89,2,3.66,4.12a122.13,122.13,0,0,1,15.26,22.34q1.57,3,3,6v0a100.66,100.66,0,0,1,8.64,32.21v0Q313.5,700.35,313.5,705Z" fill="url(#winter-linear-gradient-7)"/>
      <path d="M1782.5,437s-25.86-44.37-25.86-174.93,21.71-129.92,21.71-129.92-51.39,12.45-95.12-9.25c0,0,49.47,134.38-13.73,313.78,0,0,31.14-35.05,57-17.17C1740.25,429,1758.88,405.7,1782.5,437Z" fill="url(#winter-linear-gradient-8)"/>
      <path d="M188.93,76.29l-1.48.34A4.43,4.43,0,0,1,188.93,76.29Z" fill="url(#winter-linear-gradient-9)"/>
      <path d="M513.28,441.63s15.18,4.71,23.57,0L525,104Z" fill="url(#winter-linear-gradient-10)"/>
      <path d="M562.5,328.5c-11-24-13-49-18-75-2-8-18-6-26-1-4,3-9,7-11,12-15.89,40.71-17,82.4-10.14,125.08,8.1-1,16.89-1.81,26-2.11,15.66-.5,32.26.47,47.85,4.19C572.1,369.79,572,347.57,562.5,328.5Z" fill="url(#winter-linear-gradient-11)"/>
      <path d="M525.06,77.81S418.15,395.37,453.51,398.32a302.23,302.23,0,0,1,43.85-8.74c-6.84-42.68-5.75-84.37,10.14-125.08,2-5,7-9,11-12,8-5,24-7,26,1,5,26,7,51,18,75,9.53,19.07,9.6,41.29,8.72,63.16a113.54,113.54,0,0,1,19.91,6.66C646.24,423,525.06,77.81,525.06,77.81Z" fill="url(#winter-linear-gradient-12)"/>
      <path d="M110.9,454.47a28.19,28.19,0,0,1-11.68,3.12,54.77,54.77,0,0,1-8.6-.08,85.06,85.06,0,0,1-16.34-3l.91-26.08,1.53-44,.46-13.4,6.23-179.34L90.09-.5h4.84L96,29l5.76,164.27,6.21,177,.3,8.32,0,1.25Z" fill="url(#winter-linear-gradient-13)"/>
      <path d="M153.5,290.5c-4-38-3-76-7-114-2-22-18-40-38-48-12-4-30-4-38,8-16,25-7,54-16,81-3,11-13,20-16,32-12.42,41.69-6.75,84.16-6.7,126.73,13.51-2.22,29-4.18,45.38-5.23q6.3-.4,12.79-.62c5.92-.19,11.92-.25,18-.14l1,0A280.86,280.86,0,0,1,150.1,374c1.53.26,3.06.54,4.59.83a189,189,0,0,1,33.49,9.49,68.12,68.12,0,0,0-5.68-15.81C169.5,342.5,155.5,318.5,153.5,290.5Z" fill="url(#winter-linear-gradient-14)"/>
      <path d="M185.82,188.66c-.36-1.38-.73-2.76-1.11-4.15-17-63.33-37.78-130.68-55.32-185H57.16c-15.6,50.09-33.94,111.23-49.74,170C4.69,179.65,2,189.73-.5,199.66V382.59c8.46-2,19.51-4.27,32.3-6.36-.05-42.57-5.72-85,6.7-126.73,3-12,13-21,16-32,9-27,0-56,16-81,8-12,26-12,38-8,20,8,36,26,38,48,4,38,3,76,7,114,2,28,16,52,29,78a68.12,68.12,0,0,1,5.68,15.81c2.36.92,4.71,1.88,7,2.91,11.38,5.1,17.91,0,20.7-12.56C222.6,344.3,207.52,270.13,185.82,188.66Z" fill="url(#winter-linear-gradient-15)"/>
      <path d="M336.94,567.88c-17.68,10.9-49.65,0-49.65,0l.81-25.48,3.23-102.26,1.92-60.47,6.42-202.89,1-30.62.12-3.93,1.71-54.15,2.45-77.46L305.28-.5h13.51L320.11,41l2.9,90.85,1,31.84L326.4,238,331,382.48l2,63.4,3,93.46Z" fill="url(#winter-linear-gradient-16)"/>
      <path d="M406.5,280.5c-6-26-13-50-27-72-10-18-25-34-45-41-17-6-35-10-53-6-20,6-21,30-25,48-12,51-4,100,1,150-27.45,19.5-36.63,53.09-31.32,84.94A227.45,227.45,0,0,1,272,439.33a192,192,0,0,1,19.32.81c5.66.51,11.39,1.28,17.17,2.36,7.8,1.45,16,2.5,24.54,3.38,10.92,1.12,22.3,1.95,33.81,3,3.4-44.83,10.5-88.72,35.65-130.35A49.82,49.82,0,0,0,406.5,280.5Z" fill="url(#winter-linear-gradient-17)"/>
      <path d="M480.17,393.2c0-.31-.05-.63-.08-.95-2-23.62-6.09-51.56-11.69-82.4q-2.29-12.62-4.92-25.86c-2.82-14.27-5.91-29-9.23-44.16-4.23-19.27-8.81-39.14-13.66-59.35-8.19-34.13-17.13-69.24-26.37-104.08q-5.31-20.06-10.73-39.94-4.33-15.93-8.7-31.61v0c-.5-1.78-1-3.56-1.49-5.33H233.82c-16.23,60.11-32.69,123.91-46.89,184.43l-1.11,4.73C169.47,258.72,156.26,324.13,150.1,374c0,.39-.09.78-.14,1.17-6.74,55.22-4.71,91.08,11.48,92.56,0,0,26.29-15.11,64.74-23.28-5.31-31.85,3.87-65.44,31.32-84.94-5-50-13-99-1-150,4-18,5-42,25-48,18-4,36,0,53,6,20,7,35,23,45,41,14,22,21,46,27,72a49.82,49.82,0,0,1-4,38c-25.15,41.63-32.25,85.52-35.65,130.35,22.75,2,46,4.76,67.29,11.89a138.77,138.77,0,0,1,17.11,7C477.67,480.72,484.84,449.37,480.17,393.2Z" fill="url(#winter-linear-gradient-18)"/>
      <path d="M580.5,649.52s-53.38-64-53.38-246.41,30.54-181.54,30.54-181.54S481.5,251.29,426.5,235.4c0,0,39,325.74-44,417.1,0,0,66.92-30.38,103.3-5.4C505.15,660.39,539.5,616.75,580.5,649.52Z" fill="url(#winter-linear-gradient-19)"/>
      <path d="M338.49,762.89c-10.32-13.66-20.25-22.4-29.8-27.51-44.88-24.07-81.39,31.75-111.42,30.77A22.33,22.33,0,0,1,185.05,762a121.73,121.73,0,0,0-19.22-10.88C98.32,720.68,24.5,762,24.5,762q10.83-30.75,20.1-60.84,2.26-7.32,4.44-14.6Q53.41,672,57.42,657.5q11.17-40.2,19.8-79,1.94-8.68,3.76-17.29c7.51-35.54,13.52-70.11,18.24-103.61q5.63-39.93,8.9-77.76c0-.42.08-.85.12-1.27.24-2.77.48-5.54.7-8.29a1452.18,1452.18,0,0,0,3.75-176.69A1328,1328,0,0,0,96,29Q93.38,13.44,90.66-.5H286.49c-7.33,35.15-13.73,85.07-17.17,156-1.7,35.07-2.67,75.27-2.67,121.37q0,54,2,101.05,1.32,32.3,3.38,61.45c2.68,38.36,6.23,72.76,10.29,103.47,4.66,35.31,10,65.75,15.5,91.76q2.56,12.11,5.15,22.94c.49,2,1,4,1.46,6v0c2.92,11.91,5.83,22.63,8.64,32.21v0c3.6,12.28,7.05,22.71,10.18,31.42C331.92,751.37,338.16,762.33,338.49,762.89Z" fill="url(#winter-linear-gradient-20)"/>
      <path d="M197.3,764.51c0,.54,0,1.1,0,1.64,0,.09,0,.17,0,.26a39.44,39.44,0,0,1-3.69,15.32c-.11.26-.24.52-.37.77a41.59,41.59,0,0,1-37.27,23H31.87A41.73,41.73,0,0,1,.35,791.15c-.29-.33-.58-.67-.85-1V735.07L.22,734A72.28,72.28,0,0,1,10.5,721.93c9-8.54,20.65-15.65,34.1-20.74a134.17,134.17,0,0,1,30.86-7.55q2.37-.3,4.77-.51h0c4.47-.42,9-.63,13.65-.63,22.87,0,44,5.17,61.14,13.94a104,104,0,0,1,10.28,6C185,725.55,197.3,744,197.3,764.51Z" fill="url(#winter-linear-gradient-21)"/>
      <path d="M487.57-.5C472.62,22,454.3,42.3,433.34,60.68Q424.1,68.8,414.22,76.4c-27.27,21-58.11,39.33-91.21,55.46q-11,5.34-22.25,10.37l-2.42,1.06-2.77,1.22q-12.94,5.67-26.25,11c-21.93,8.72-44.48,16.7-67.32,24q-7.56,2.43-15.07,4.43l-2.22.58a277.87,277.87,0,0,1-72,9.07q-5.52,0-11-.33-9.26-.47-18.32-1.59a246.14,246.14,0,0,1-76-22.15q-4-1.9-7.92-4V-.5Z" fill="url(#winter-linear-gradient-22)"/>
      <path d="M693.5,154.5c0,72.49-45,101.57-106.61,122.76-17.1,5.88-35.48,11.15-54.54,16.58l-.68.19-13.39,3.83h0q-11.25,3.21-22.69,6.64a139.71,139.71,0,0,1-27.18,5.35c-3.78.37-7.54.57-11.28.62a138.46,138.46,0,0,1-24.41-1.87C389.93,301.52,351.6,274.86,326.4,238a177.82,177.82,0,0,1-26.73-61.2,169.52,169.52,0,0,1-4.1-32.27c0-1.67-.07-3.34-.07-5v-.37a204.28,204.28,0,0,1,7-51A254,254,0,0,1,320.11,41,266.36,266.36,0,0,1,345.42-.5H628.26C667.73,43,693.5,99.35,693.5,154.5Z" fill="url(#winter-linear-gradient-23)"/>
      <path d="M1919.5-.5V80.36a155.7,155.7,0,0,1-35.92,35.32q-7.26,5.2-15.28,9.91c-25.76,15.09-57,25.86-91.4,30.7q-6,.84-12.11,1.44c-1.28.13-2.57.24-3.86.35q-12.37,1-25.19,1.06a295.28,295.28,0,0,1-43.71-3.22q-8-1.2-15.69-2.81-10.14-2.12-19.82-4.92c-25.47-7.37-48.33-18.19-67.33-31.6-24.77-17.5-43-39.41-52-63.86A100,100,0,0,1,1531,18.05,98.67,98.67,0,0,1,1532.74-.5Z" fill="url(#winter-linear-gradient-24)"/>
      <path d="M566.5,104.5c0,21.55-6,37.05-16.44,48.18a67.61,67.61,0,0,1-22.8,15.55c-1.47.65-3,1.26-4.54,1.83a143.19,143.19,0,0,1-29.26,7.19c-16.28,2.42-34.26,3.13-52.87,3.23-1.69,0-3.39,0-5.09,0-39.18,0-81.87-2.24-111.47-16.8-9.25-4.54-17.21-10.28-23.39-17.54-.81-.93-1.57-1.88-2.3-2.87-1-1.34-1.95-2.72-2.84-4.16-5.75-9.32-9-20.72-9-34.63,0-31.62,5.66-66,18.42-93.88q2.63-5.76,5.67-11.12H495.65c31.59,23.54,57.8,53.37,67.16,82.72A73.12,73.12,0,0,1,566.5,104.5Z" fill="url(#winter-linear-gradient-25)"/>
      <path d="M1820.87,51.32a125.17,125.17,0,0,1-55.45,103.88q-2.2,1.5-4.49,2.88a124.36,124.36,0,0,1-65.08,18.26h-.07a125.93,125.93,0,0,1-22-1.93,124.47,124.47,0,0,1-55.52-25,125.8,125.8,0,0,1-29.12-32.81A125.2,125.2,0,0,1,1582-.5h227.62a124.59,124.59,0,0,1,11.21,51.82Z" fill="url(#winter-linear-gradient-26)"/>
      <path d="M1416.72,472.68a22.61,22.61,0,0,1-2.85,1.48,31.29,31.29,0,0,1-8.31,2.18c-14.14,1.85-30.32-3.66-30.32-3.66l.58-18.31,2.54-80.29.26-8.14,8-252.86L1390.21-.5h11.39l3.91,122.14,8,249.09,0,.41,2.34,73.4Z" fill="url(#winter-linear-gradient-27)"/>
      <path d="M1473.5,309.5c-8-35-26-64-35-99-8-37,9-72,4-108-4-31-13-81-54-70-42,11-40,62-35,97,6,40-2,75-23,110-13,22-21,48-16,72,4.79,19.16,10.84,40.23,7,58.63a183.73,183.73,0,0,1,57.13-4.19c4.73.43,9.51,1.08,14.34,2,6.51,1.21,13.39,2.09,20.5,2.81.77.09,1.54.17,2.32.24,12.83,1.26,26.37,2.11,39.87,3.64C1466.73,353.86,1478.68,332.79,1473.5,309.5Z" fill="url(#winter-linear-gradient-28)"/>
      <path d="M1536.83,365.54c4.21-41.34-11.92-127.2-34.63-221.19C1490.65,96.57,1477.41,46.7,1464.28-.5H1330.1c-4.2,15.59-8.42,31.48-12.6,47.49-40.76,156.15-77.18,323.41-51.4,340.59a8.35,8.35,0,0,0,4,1.42s1.89-1.09,5.38-2.79a215.11,215.11,0,0,1,46-16.08c3.85-18.4-2.2-39.47-7-58.63-5-24,3-50,16-72,21-35,29-70,23-110-5-35-7-86,35-97,41-11,50,39,54,70,5,36-12,71-4,108,9,35,27,64,35,99,5.18,23.29-6.77,44.36-17.85,65.11,19.71,2.23,39.33,5.9,56.57,14.39C1527.08,396.31,1534.65,386.83,1536.83,365.54Z" fill="url(#winter-linear-gradient-29)"/>
      <path d="M1722.79,423.75c0,.39,0,.79,0,1.19-.35,13.79-8.15,24.56-17.4,24.56h-52.21c-9.25,0-17.06-10.77-17.4-24.56,0-.4,0-.8,0-1.19,0-22.24,15.42-40.73,35.75-44.54a43.16,43.16,0,0,1,7.76-.71C1703.31,378.5,1722.79,398.76,1722.79,423.75Z" fill="url(#winter-linear-gradient-30)"/>
      <path d="M599.49-.5c-.32,37.24-9.63,70.27-36.68,82.72-7.39,3.41-16.1,5.28-26.31,5.28-2.6,0-5.33-.08-8.17-.24q-3-.17-6.26-.47c-27.21-2.48-62.26-11.47-88.73-26.11-12.39-6.87-22.91-15-29.85-24.22-5.69-7.56-9-15.9-9-25q0-3.39.29-6.65v0q.24-2.71.69-5.33Z" fill="url(#winter-linear-gradient-31)"/>
      <path d="M1715.49,624c-43.06-57-75.59,16.77-100.66-.56-35.89-24.81-78.19-11.84-96.33-4.24V596.79q7.1-21.94,13-43.32c80.59-291.4,3-502,3-502C1608.3,88,1694,71.33,1706.42,68.64c-7.27,2.7-38.06,26.57-38.06,236.49,0,105.75,9.3,180.47,19.65,230.87C1700.72,598,1715,623.18,1715.49,624Z" fill="url(#winter-linear-gradient-32)"/>
      <path d="M1903.51-.5c-3.84,22.53-11.26,41.84-21.78,58.36a137.78,137.78,0,0,1-11.79,15.93c-18.08,21.12-42.2,36.74-70.89,48.12q-7,2.78-14.31,5.2-13.86,4.63-28.9,8.14a498.71,498.71,0,0,1-66.09,10.5q-6.21.6-12.52,1.1-10.21.79-20.71,1.34-18.74,1-38.21,1.21c-5.23.07-10.51.1-15.81.1-15.34,0-30.41-.27-45.13-.89-19-.8-37.48-2.17-55.17-4.26-35.77-4.23-68.47-11.39-96.69-22.71q-9.83-3.93-18.89-8.56c-30.24-15.43-54-36.83-69.12-66.09A162,162,0,0,1,1302-.5Z" fill="url(#winter-linear-gradient-33)"/>
      <path d="M1920.5,699.51v113h-63.63c-22,0-40.52-17.14-41.33-39.09,0-.63,0-1.27,0-1.9a52,52,0,0,1,4.64-21.37c5.55-12.48,15.85-23.5,29.41-32,14-8.83,31.52-15,50.91-17.45l1.8-.21a148.85,148.85,0,0,1,16.64-.93h1.6Z" fill="url(#winter-linear-gradient-34)"/>
      <path d="M1725.5,599.54c0,.82,0,1.64,0,2.45-1.09,28.36-25.93,50.51-55.36,50.51H1503.91c-29.43,0-54.27-22.15-55.36-50.51,0-.81,0-1.63,0-2.45,0-45.73,53-123,113.81-91.57,7.17,3.71,16.26-1.47,24.69-1.47C1663.49,506.5,1725.5,548.15,1725.5,599.54Z" fill="url(#winter-linear-gradient-35)"/>
      <path d="M535.84,626.4c0,.53,0,1.06,0,1.58-.7,18.26-16.7,32.52-35.64,32.52h-107c-18.94,0-34.94-14.26-35.64-32.52,0-.52,0-1.05,0-1.58,0-29.44,31.61-53.92,73.27-58.95a133.29,133.29,0,0,1,15.9-1C495.92,566.5,535.84,593.32,535.84,626.4Z" fill="url(#winter-linear-gradient-36)"/>
      <path d="M1905.66,807a31.61,31.61,0,0,1-4.61,2.33,47.13,47.13,0,0,1-14.33,3.2,78.11,78.11,0,0,1-11.75,0,125.36,125.36,0,0,1-28.23-5.53l1.61-50.89,1.2-38,1.92-60.59.07-2.12.48-15.27,3-94.27,5.07-160.28,8.23-260,1.64-51.8L1872.29-.5h7.58l1.86,58.36,1.85,57.82,8.78,275.07,4.71,147.18,3.14,98.41.68,21.16.15,4.69,1.22,38.24Z" fill="url(#winter-linear-gradient-37)"/>
      <path d="M1866.5,127.5c-37,22-43,70-26,104,33,66,12,137-35,188-20,21-20,50-13,78,2,9,9,16,9,25,2,34,16,69,1,103a166.67,166.67,0,0,1-19.59,33.27c2.49-.45,5-.88,7.58-1.27a251.82,251.82,0,0,1,61-2.12q8.14.74,16.45,2.12c1.3.21,2.61.45,3.92.69,9.25,1.72,19,3,29.13,4,6,.63,12.21,1.18,18.46,1.71l.21,0,.79.06V634.84l-.76,0,.11-102.5L1920,396l-.5-.11v-262C1904.75,121.66,1883.93,117,1866.5,127.5Z" fill="url(#winter-linear-gradient-38)"/>
      <path d="M1820.15-.5q-2.22,7.86-4.51,15.93c-9.86,34.93-20.32,72.61-30.9,111.68q-2.19,8.13-4.4,16.35-1.72,6.39-3.44,12.83c-6.66,24.92-13.31,50.26-19.83,75.67h0c-12,46.7-23.55,93.64-33.92,138.73q-3.44,14.93-6.68,29.55-1.6,7.2-3.15,14.32-3.87,17.76-7.41,34.91c-6.42,31.21-12,60.69-16.25,87.6-.21,1.29-.42,2.58-.62,3.86q-1.79,11.38-3.28,22.11c-1.92,13.92-3.44,27-4.5,39-1.73,19.46-2.25,36.22-1.34,49.64.07,1,.14,2,.22,2.9s.19,2,.29,2.94c2,18.81,7.43,29.75,17,30.62,0,0,35.21-20.24,85.51-29.35a166.67,166.67,0,0,0,19.59-33.27c15-34,1-69-1-103,0-9-7-16-9-25-7-28-7-57,13-78,47-51,68-122,35-188-17-34-11-82,26-104,17.43-10.46,38.25-5.84,53,6.38V-.5Z" fill="url(#winter-linear-gradient-39)"/>
      <path d="M1902.3,821.51c0,.63,0,1.27,0,1.9-.81,22-19.36,39.09-41.33,39.09H1736.87c-22,0-40.52-17.14-41.33-39.09,0-.63,0-1.27,0-1.9,0-35.39,36.65-64.82,85-70.87,6-.75,19.75-1.14,26-1.14C1863.61,749.5,1902.3,781.74,1902.3,821.51Z" fill="url(#winter-linear-gradient-40)"/>
      <path d="M649.84,647.4c0,.53,0,1.06,0,1.58-.7,18.26-16.7,32.52-35.64,32.52h-107c-18.94,0-34.94-14.26-35.64-32.52,0-.52,0-1.05,0-1.58,0-29.44,31.61-53.92,73.27-58.95a133.29,133.29,0,0,1,15.9-1C609.92,587.5,649.84,614.32,649.84,647.4Z" fill="url(#winter-linear-gradient-41)"/>
      <path d="M92.5,450.45c0,.26,0,.53,0,.79a13.82,13.82,0,0,1-1.86,6.27c-3.37,5.92-10.94,10-19.52,10H6.9a26,26,0,0,1-7.25-1,.44.44,0,0,1-.15-.05V430.26l.07-.05c7.74-4.73,18.15-8.06,29.89-9.24q4.65-.47,9.54-.47c14,0,26.67,3,36.19,7.89C85.83,433.87,92.5,441.72,92.5,450.45Z" fill="url(#winter-linear-gradient-42)"/>
      <path d="M1468.5,469.64c0,.29,0,.58,0,.87-.25,10.1-6,18-12.74,18h-38.24c-6.78,0-12.49-7.89-12.74-18,0-.29,0-.58,0-.87,0-16.29,11.29-29.83,26.19-32.62a31.25,31.25,0,0,1,5.68-.52C1454.23,436.5,1468.5,451.34,1468.5,469.64Z" fill="url(#winter-linear-gradient-43)"/>
      <path d="M1416.5,483.45c0,.26,0,.53,0,.79-.42,9.13-10,16.26-21.38,16.26h-64.2c-11.36,0-21-7.13-21.38-16.26,0-.26,0-.53,0-.79,0-14.72,19-27,44-29.48q4.65-.47,9.54-.47C1392.55,453.5,1416.5,466.91,1416.5,483.45Z" fill="url(#winter-linear-gradient-44)"/>
      <path d="M442.5,732c0,.74,0,1.47,0,2.2-.95,29.86-26,53.3-55.9,53.3H218.44c-29.87,0-54.95-23.44-55.9-53.3,0-.73,0-1.46,0-2.2,0-47.92,49.63-87.76,115-96a201.78,201.78,0,0,1,25-1.54C379.82,634.5,442.5,678.15,442.5,732Z" fill="url(#winter-linear-gradient-45)"/>
      <path d="M1160.86,1080.5h406.6s-20.82-329.86-64.89-409.93L1194.1,700.23S1188.23,951.5,1160.86,1080.5Z" fill="url(#winter-linear-gradient-46)"/>
      <g>
        <circle cx="1248.11" cy="574.89" r="88.61" fill="url(#winter-linear-gradient-47)"/>
        <circle cx="1248.87" cy="437.81" r="58.31" fill="url(#winter-linear-gradient-48)"/>
        <path d="M1223.73,411.44a7,7,0,0,0-8.25,6.08c-.39,3.76,3.09,6.85,6.64,7.05,3.71.21,6.45-3.07,6.61-6.58a6.33,6.33,0,0,0-1.79-4.75,7.11,7.11,0,0,0-9.61-.1,6.48,6.48,0,0,0-1.92,4.69,6.77,6.77,0,0,0,6.74,6.95,6.28,6.28,0,0,0,5.09-2.7,6,6,0,0,0,.4-5.67,5.28,5.28,0,0,0-9.1-.65,4.8,4.8,0,0,0,.67,5.79,4.35,4.35,0,0,0,5.5.3,3.87,3.87,0,0,0,.8-5.19c-.62-.94-1.87-1.9-3-1.46a3,3,0,0,0-1.8,2.26,3.21,3.21,0,0,0,.83,2.88,1.5,1.5,0,0,0,2.12-2.12c-.26-.26.18.25,0,0,.13.18,0,.16,0,0s0,.3,0,0,.09-.29,0,0c0,0,.11-.36,0-.14s.05-.08.07-.12c-.09.22-.08.09.06,0-.18.16-.09.08.07,0l-1.16.16c.26.07-.2-.14.12,0l.15.09s-.17-.18-.09-.06.23.32.1.08c.06.11.24.46.12.15a1.93,1.93,0,0,1,.11.34c0,.07,0,.15,0,.23s0-.24,0-.11,0,.44,0,.12c0,.11-.17.5,0,.19,0,.1-.11.2-.17.3.15-.24-.07,0-.13.11s0,0,.06-.05l-.2.12s-.21.1,0,0-.08,0-.11,0-.44.07-.14.05l-.43,0-.19,0c.05,0,.23.07.1,0s-.49-.16-.35-.1-.18-.12-.25-.16c.22.13,0,0-.09-.1s-.06-.07,0,0l-.11-.17a1,1,0,0,0-.1-.17c-.19-.34,0,.14,0-.07l-.12-.46c.07.25,0,0,0-.13v-.28s0-.24,0-.06,0-.05,0-.07,0-.22.09-.33a1.46,1.46,0,0,1,.07-.19s-.1.2,0,.05a3.73,3.73,0,0,1,.23-.37c-.17.23,0,0,.13-.1a1.42,1.42,0,0,1,.13-.12c-.09.08-.16.1,0,0l.36-.22.16-.07c-.27.13-.09,0,0,0l.35-.1.23-.05c.18,0,.09,0,0,0,.28,0,.56,0,.85,0-.27,0-.06,0,.08,0a3.5,3.5,0,0,1,.46.14c-.27-.08,0,0,.14.08s.34.21.2.11.17.16.22.21a1.85,1.85,0,0,0,.14.14c.11.12-.1-.17,0,.06l.21.33a2.56,2.56,0,0,1,.11.24s-.08-.22,0-.06.1.29.14.44.07.46.06.31,0,.26,0,.33,0,.31,0,.46a.7.7,0,1,0,0-.07,1.29,1.29,0,0,1,0,.19,2.73,2.73,0,0,1-.14.51l-.06.19c.09-.26,0-.05,0,0s-.13.24-.2.35l-.14.22s.14-.17,0-.05a4.68,4.68,0,0,1-.38.39l-.16.14c0-.05.21-.14,0,0l-.35.22-.24.12,0,0a3.27,3.27,0,0,1-.53.17c-.13,0-.26.06-.4.09s.23,0,0,0l-.2,0a5.22,5.22,0,0,1-1,0c.3,0-.14,0-.21-.05l-.47-.14c-.26-.07.09.07-.15-.06a4.77,4.77,0,0,1-.44-.24c-.06,0-.36-.26-.24-.16s-.17-.16-.21-.19l-.25-.26-.16-.18c.09.09.11.15,0,0s-.29-.44-.41-.67-.18-.41-.07-.13c-.06-.15-.12-.3-.17-.46s-.11-.51-.18-.76,0,.07,0,.1l0-.25c0-.16,0-.32,0-.48s0-.24,0-.36a1.94,1.94,0,0,0,0-.24s0,.27,0,.1a8,8,0,0,1,.2-.81c0-.13.18-.4,0-.14l.19-.38.19-.3.11-.15c-.19.26,0,0,0,0l.3-.3c.09-.08.28-.23.07-.08a6.21,6.21,0,0,1,.78-.47l.16-.07s-.23.07-.07,0,.26-.09.4-.13l.41-.11c.13,0,.46-.06.15,0a6.12,6.12,0,0,1,.86,0l.36,0c.29,0,0,0,0,0l.24,0c.28.06.55.15.82.23s-.16-.09.09,0l.43.23.36.23c.14.07,0,0-.06-.06l.14.12c.1.1.21.19.3.3s.33.42.16.16c.14.21.25.46.39.67s0-.07,0-.09a1.43,1.43,0,0,1,.08.22c0,.15.1.3.14.45s0,.23.07.35,0,.27,0,0a1.1,1.1,0,0,1,0,.18c0,.28,0,.55,0,.83s0-.14,0,.13,0,.28-.08.41-.06.23-.1.35-.16.48-.1.33-.09.18-.12.25l-.18.31-.22.35a1.71,1.71,0,0,1-.11.14c.2-.26,0,0,0,0s-.36.36-.55.53c.22-.19,0,0-.13.08a2.12,2.12,0,0,1-.36.21l-.21.11s.23-.07.07,0-.27.1-.41.13l-.36.08c-.28.06,0,0,0,0h-.67c-.09,0-.51-.06-.15,0a5.72,5.72,0,0,1-.84-.2c-.07,0-.45-.16-.29-.09s-.17-.08-.22-.11a6.59,6.59,0,0,1-.8-.49c.21.15,0,0-.08-.07l-.32-.3-.3-.32,0,0-.1-.14c-.15-.23-.26-.47-.39-.7s0,.05,0,.08-.06-.16-.08-.24a2.75,2.75,0,0,1-.11-.41c0-.05-.07-.31,0-.11s0,0,0-.05,0-.31,0-.46,0-.43,0-.26,0-.08,0-.13a2.27,2.27,0,0,1,.06-.25c0-.15.09-.3.13-.44s-.07.12.06-.13a6.07,6.07,0,0,1,.51-.84l0,0a1.63,1.63,0,0,1,.17-.2,3.83,3.83,0,0,1,.28-.29c.11-.11.23-.21.35-.31s0,0,0,0l.27-.19a6.17,6.17,0,0,1,.76-.42c-.25.12.1,0,.19-.06l.44-.13c.06,0,.48-.07.32-.06h.72c.29,0,0,0,0,0l.26.05a1.5,1.5,0,1,0,.8-2.89Z"/>
        <path d="M1260.18,411.44a7,7,0,0,0-8.25,6.08c-.39,3.76,3.08,6.85,6.63,7.05,3.72.21,6.46-3.07,6.61-6.58a6.37,6.37,0,0,0-1.78-4.75,7.12,7.12,0,0,0-9.62-.1,6.47,6.47,0,0,0-1.91,4.69,6.77,6.77,0,0,0,6.74,6.95,6.29,6.29,0,0,0,5.09-2.7,6,6,0,0,0,.4-5.67,5.29,5.29,0,0,0-9.11-.65,4.79,4.79,0,0,0,.68,5.79,4.33,4.33,0,0,0,5.49.3,3.86,3.86,0,0,0,.81-5.19c-.62-.94-1.87-1.9-3-1.46a3,3,0,0,0-1.81,2.26,3.21,3.21,0,0,0,.84,2.88,1.5,1.5,0,0,0,2.12-2.12c-.26-.26.18.25,0,0,.13.18,0,.16,0,0s0,.3,0,0,.09-.29,0,0c0,0,.1-.36,0-.14s.06-.08.08-.12c-.09.22-.08.09.05,0-.18.16-.08.08.08,0l-1.16.16c.26.07-.21-.14.12,0a1.1,1.1,0,0,1,.14.09s-.16-.18-.08-.06.23.32.1.08c.06.11.24.46.12.15a3.38,3.38,0,0,1,.11.34,1.57,1.57,0,0,1,0,.23c0-.06,0-.24,0-.11s0,.44,0,.12c0,.11-.17.5,0,.19-.05.1-.11.2-.17.3.15-.24-.07,0-.13.11s0,0,.06-.05a1.43,1.43,0,0,0-.21.12s-.21.1,0,0-.07,0-.1,0-.44.07-.15.05l-.43,0-.18,0s.23.07.09,0-.49-.16-.34-.1-.19-.12-.26-.16c.22.13,0,0-.08-.1s-.07-.07,0,0a1.63,1.63,0,0,1-.11-.17l-.1-.17c-.2-.34,0,.14,0-.07s-.08-.31-.12-.46c.06.25,0,0,0-.13v-.28s0-.24,0-.06,0-.05,0-.07.05-.22.09-.33l.06-.19s-.09.2,0,.05.15-.25.24-.37c-.17.23,0,0,.12-.1l.14-.12c-.09.08-.16.1,0,0l.36-.22.16-.07c-.27.13-.1,0,0,0l.34-.1.24-.05c.18,0,.08,0,0,0,.29,0,.57,0,.86,0-.27,0-.06,0,.08,0a4.75,4.75,0,0,1,.46.14c-.27-.08,0,0,.13.08s.34.21.21.11.17.16.22.21l.13.14c.12.12-.09-.17.05.06s.14.22.2.33l.12.24s-.09-.22,0-.06a3.19,3.19,0,0,1,.13.44c0,.08.08.46.07.31s0,.26,0,.33,0,.31,0,.46,0-.05,0-.07a1.29,1.29,0,0,0,0,.19,3.8,3.8,0,0,1-.14.51,1.07,1.07,0,0,1-.07.19c.1-.26,0-.05,0,0a3.9,3.9,0,0,1-.19.35c-.05.07-.09.15-.15.22s.15-.17,0-.05a3.5,3.5,0,0,1-.38.39l-.15.14c0-.05.21-.14,0,0l-.35.22-.24.12s.2-.08,0,0a3.16,3.16,0,0,1-.52.17c-.13,0-.27.06-.4.09s.23,0,0,0l-.21,0a5.14,5.14,0,0,1-1,0c.3,0-.14,0-.22-.05l-.46-.14c-.26-.07.09.07-.15-.06a3.75,3.75,0,0,1-.44-.24c-.07,0-.37-.26-.24-.16s-.18-.16-.21-.19l-.25-.26-.16-.18c.09.09.11.15,0,0a6.68,6.68,0,0,1-.41-.67c0-.1-.18-.41-.08-.13-.06-.15-.11-.3-.16-.46s-.11-.51-.19-.76,0,.07,0,.1a2,2,0,0,1,0-.25,3.85,3.85,0,0,1,0-.48c0-.12,0-.24,0-.36s0-.16,0-.24-.05.27,0,.1a7.91,7.91,0,0,1,.19-.81c0-.13.18-.4,0-.14l.19-.38c.06-.1.12-.2.19-.3l.1-.15c-.18.26,0,0,0,0s.19-.2.3-.3.28-.23.07-.08a6.1,6.1,0,0,1,.77-.47l.17-.07s-.24.07-.08,0,.27-.09.41-.13l.41-.11c.12,0,.45-.06.14,0a6.19,6.19,0,0,1,.86,0l.37,0c.28,0,0,0,0,0l.24,0c.28.06.55.15.82.23s-.16-.09.09,0l.43.23c.12.07.23.16.36.23s0,0-.07-.06l.14.12c.11.1.21.19.31.3s.33.42.15.16c.15.21.25.46.4.67s0-.07,0-.09.05.14.08.22a3.81,3.81,0,0,1,.13.45c0,.11.05.23.08.35s0,.27,0,0a1.1,1.1,0,0,0,0,.18,7.66,7.66,0,0,1,0,.83c0,.38,0-.14,0,.13s-.05.28-.08.41-.06.23-.1.35a3.26,3.26,0,0,0-.11.33c.07-.16-.08.18-.12.25a3.07,3.07,0,0,1-.17.31c-.07.12-.15.24-.23.35a.71.71,0,0,1-.1.14c.2-.26,0,0,0,0a5.53,5.53,0,0,1-.55.53c.23-.19,0,0-.12.08a3.35,3.35,0,0,1-.36.21l-.21.11s.23-.07.07,0-.28.1-.41.13l-.36.08c-.29.06,0,0,0,0h-.67c-.1,0-.51-.06-.16,0a6.39,6.39,0,0,1-.84-.2c-.06,0-.44-.16-.28-.09s-.17-.08-.22-.11a6.59,6.59,0,0,1-.8-.49c.21.15,0,0-.09-.07l-.32-.3c-.1-.1-.19-.21-.29-.32s-.15-.18,0,0-.1-.14-.1-.14c-.15-.23-.25-.47-.39-.7s0,.05,0,.08a2.25,2.25,0,0,1-.08-.24c0-.13-.08-.27-.12-.41s-.06-.31,0-.11,0,0,0-.05,0-.31,0-.46,0-.43,0-.26,0-.08,0-.13l.06-.25c0-.15.09-.3.14-.44s-.08.12,0-.13a8.94,8.94,0,0,1,.51-.84l0,0,.18-.2a3.83,3.83,0,0,1,.28-.29l.34-.31c.13-.11,0,0,0,0l.28-.19a6.86,6.86,0,0,1,.75-.42c-.25.12.11,0,.2-.06l.44-.13c.06,0,.48-.07.32-.06h.71c.29,0,.06,0,0,0l.26.05a1.5,1.5,0,1,0,.8-2.89Z"/>
        <path d="M1214.86,455.64c2.9,0,2.9-4.5,0-4.5s-2.9,4.5,0,4.5Z"/>
        <path d="M1217.88,459c2.9,0,2.9-4.5,0-4.5s-2.9,4.5,0,4.5Z"/>
        <path d="M1221.43,462c2.89,0,2.9-4.5,0-4.5s-2.9,4.5,0,4.5Z"/>
        <path d="M1225.5,464.58c2.9,0,2.9-4.5,0-4.5s-2.9,4.5,0,4.5Z"/>
        <path d="M1229.75,466.33c2.89,0,2.9-4.5,0-4.5s-2.9,4.5,0,4.5Z"/>
        <path d="M1233.55,468c2.9,0,2.9-4.5,0-4.5s-2.9,4.5,0,4.5Z"/>
        <path d="M1237.88,469.28c2.9,0,2.9-4.5,0-4.5s-2.9,4.5,0,4.5Z"/>
        <path d="M1242.92,469.34c2.89,0,2.9-4.5,0-4.5s-2.9,4.5,0,4.5Z"/>
        <path d="M1246.71,468.71c2.89,0,2.9-4.5,0-4.5s-2.9,4.5,0,4.5Z"/>
        <path d="M1250.67,467.18c2.9,0,2.9-4.5,0-4.5s-2.9,4.5,0,4.5Z"/>
        <path d="M1255.6,465.39c2.9,0,2.9-4.5,0-4.5s-2.9,4.5,0,4.5Z"/>
        <path d="M1259.38,462.46c2.9,0,2.9-4.5,0-4.5s-2.9,4.5,0,4.5Z"/>
        <path d="M1240.45,438l-37.6,5.38c-1.9.28-1.09,3.17.8,2.9l37.6-5.39c1.9-.27,1.09-3.16-.8-2.89Z" fill="#f7931e"/>
        <path d="M1202.64,445.85l36.29-10.38a1.5,1.5,0,0,0-.8-2.89L1201.84,443a1.5,1.5,0,0,0,.8,2.89Z" fill="#f7931e"/>
        <path d="M1237.91,434.23l1.19,4.69a1.5,1.5,0,0,0,1.84,1,1.53,1.53,0,0,0,1-1.84l-1.18-4.69a1.53,1.53,0,0,0-1.85-1.05,1.55,1.55,0,0,0-1,1.85Z" fill="#f7931e"/>
        <path d="M1238.09,435.15,1221.36,439c-1.88.44-1.09,3.33.79,2.89l16.73-3.86c1.88-.44,1.09-3.33-.79-2.89Z" fill="#f7931e"/>
        <path d="M1240.05,439.65a1.5,1.5,0,0,0,0-3,1.5,1.5,0,0,0,0,3Z" fill="#f7931e"/>
        <path d="M1216,443.6a48.26,48.26,0,0,1,10.48-2.32c1.74-.18,3.52-.06,5.25-.25a30.63,30.63,0,0,0,5.32-1.59l-1.15-2.74-.79.61a1.52,1.52,0,0,0-.31,2.35,3.23,3.23,0,0,0,4.27.18,3.17,3.17,0,0,0,.48-4.16c-1-1.52-3-1.5-4.57-1.07-2,.52-3.88,1.18-5.82,1.77s-1,3.46.8,2.89l5.06-1.54c.42-.13,1.61-.67,2-.36.16.11,0,.32-.14.17l-.3,2.36.79-.61c1.23-1,.62-3.3-1.16-2.74s-3.58,1.4-5.36,1.48-3.5.13-5.25.34a53.25,53.25,0,0,0-10.44,2.33c-1.82.61-1,3.51.8,2.9Z" fill="#f7931e"/>
        <path d="M1202.74,446.36a1.5,1.5,0,0,0,0-3,1.5,1.5,0,0,0,0,3Z" fill="#f7931e"/>
        <path d="M1219.56,416.14a4.28,4.28,0,0,0-.68,2.38,3.18,3.18,0,0,0,1,2.36,3.13,3.13,0,0,0,2.24.78,2.66,2.66,0,0,0,2.23-1.41,3.26,3.26,0,0,0-.19-3.06,6.72,6.72,0,0,0-1.54-1.74,3.94,3.94,0,0,0-2.58-1.07,3.24,3.24,0,0,0-2.32,1.1,4.24,4.24,0,0,0-1,2.74,8.27,8.27,0,0,0,.58,2.78,1.6,1.6,0,0,0,.69.9,1.5,1.5,0,0,0,2.21-1.69,9.63,9.63,0,0,1-.5-1.82l.06.4a4.48,4.48,0,0,1,0-1l0,.4a2.93,2.93,0,0,1,.18-.66l-.15.36a3.6,3.6,0,0,1,.31-.54l-.23.3a2,2,0,0,1,.38-.38l-.31.23a2,2,0,0,1,.4-.23l-.36.15a1.66,1.66,0,0,1,.38-.11l-.4.06a2.16,2.16,0,0,1,.44,0l-.4-.05a2.85,2.85,0,0,1,.5.14l-.36-.15a3.18,3.18,0,0,1,.66.41l-.3-.24a7.68,7.68,0,0,1,1.17,1.18l-.23-.3a3.42,3.42,0,0,1,.37.61l-.15-.36a2.33,2.33,0,0,1,.13.52l0-.4a2.41,2.41,0,0,1,0,.38l0-.4a2.11,2.11,0,0,1-.09.36l.15-.36a2,2,0,0,1-.14.25l.23-.31a1.21,1.21,0,0,1-.19.2l.3-.24a1.09,1.09,0,0,1-.23.14l.36-.15a1.92,1.92,0,0,1-.32.09l.4-.06a1.69,1.69,0,0,1-.45,0l.4.06a2.23,2.23,0,0,1-.44-.13l.36.15a1.45,1.45,0,0,1-.34-.2l.3.23a1.36,1.36,0,0,1-.24-.24l.23.3a1.51,1.51,0,0,1-.2-.35l.15.36a2.11,2.11,0,0,1-.14-.49l.06.4a2.43,2.43,0,0,1,0-.66l-.05.4a3,3,0,0,1,.21-.72l-.16.36a5,5,0,0,1,.25-.46,1.5,1.5,0,1,0-2.59-1.52Z"/>
        <path d="M1254.38,414.7a6,6,0,0,0-.64,3.13A5.19,5.19,0,0,0,1255,421a2.49,2.49,0,0,0,3.63.05,3.16,3.16,0,0,0,.8-1.89,5.36,5.36,0,0,0-.27-1.82,1.51,1.51,0,0,0-1.65-1.07,1.47,1.47,0,0,0-1.3,1.47,3.32,3.32,0,0,0,2.36,3,3.11,3.11,0,0,0,1.86,0,3.51,3.51,0,0,0,1.74-1.32,1.4,1.4,0,0,0,.08-1.33,1.55,1.55,0,0,0-1-.87l-1.13-.46a1.5,1.5,0,0,0-1.15.15,1.52,1.52,0,0,0-.69.9,1.49,1.49,0,0,0,.15,1.15,1.68,1.68,0,0,0,.9.69l1.12.46-.9-2.2s.24-.27.1-.13l-.11.1c-.15.15.13-.09.13-.1s-.13.08-.16.1-.22.1,0,0,.06,0,0,0a1.3,1.3,0,0,1-.33.07l.4-.05a2.14,2.14,0,0,1-.44,0l.39.06a2.27,2.27,0,0,1-.25-.06c-.3-.09.21.12.09,0s-.18-.08-.22-.14l.18.14-.1-.1-.08-.09c-.07-.08,0,0,.12.16a1,1,0,0,0-.12-.19c-.14-.23.1.33,0,.09s0-.19-.07-.29l0,.4c0-.05,0-.1,0-.15l-3,.4a6.87,6.87,0,0,1,.21.87l-.06-.39a2.32,2.32,0,0,1,0,.59l0-.4s-.08.29-.07.31.18-.33.06-.16-.16.24,0,0,0-.06,0,0,.26-.17.13-.1-.21.1,0,0,0,0,0,0l.4-.05h-.29l.4.05-.14,0c.25.11.3.13.16.06s-.08,0,.13.11l-.11-.11-.1-.11c.15.21.19.25.1.12s-.1-.15-.14-.23l0-.1c-.06-.15,0-.11,0,.12a1.31,1.31,0,0,0-.12-.33c-.06-.22-.11-.45-.15-.68l.06.4a4.79,4.79,0,0,1,0-1.31l-.06.4a4.75,4.75,0,0,1,.14-.63,2.47,2.47,0,0,1,.1-.29c0-.15,0-.11-.06.11l.08-.15a1.67,1.67,0,0,0,.15-1.16,1.56,1.56,0,0,0-.69-.9,1.53,1.53,0,0,0-2,.54Z"/>
        <path d="M1288.69,480.26l-.12,18.1,2.25-2.25a365,365,0,0,1-69.17-1.25q-9.64-1.1-19.21-2.73l1.57,2.77,4.16-14.81c.79-2.8-3.46-3.95-4.34-1.19l-6.14,19.38c-.88,2.76,3.47,4,4.34,1.19l6.14-19.38-4.34-1.19-4.16,14.8a2.27,2.27,0,0,0,1.57,2.77,369,369,0,0,0,69.85,5.13q9.87-.23,19.73-1a2.31,2.31,0,0,0,2.25-2.25l.12-18.1c0-2.9-4.48-2.9-4.5,0Z" fill="#c1272d"/>
        <path d="M1289.86,479.49a105.14,105.14,0,0,1-70.27-4.27c-3-1.28-6.27-2.6-9.63-2.23a9.43,9.43,0,0,0-7.39,4.37c-1.48,2.5,2.41,4.77,3.88,2.27,1.07-1.8,3.29-2.33,5.27-2.18,2.85.21,5.57,1.68,8.18,2.75a104.29,104.29,0,0,0,16.47,5.2,108.85,108.85,0,0,0,54.69-1.57c2.77-.81,1.59-5.16-1.2-4.34Z" fill="#c1272d"/>
        <path d="M1288.87,478.53a95,95,0,0,1-36.94,6.33c-2.9-.09-2.89,4.41,0,4.5a98.39,98.39,0,0,0,38.14-6.49,2.32,2.32,0,0,0,1.57-2.77,2.27,2.27,0,0,0-2.77-1.57Z" fill="#c1272d"/>
        <path d="M1201.73,478.25l-3.64,20c-.24,1.29.59,3,2.17,2.85,14.56-1.55,29.3-3.61,44-2a2.27,2.27,0,0,0,2.25-2.25,2.3,2.3,0,0,0-2.25-2.25c-14.65-1.63-29.39.43-44,2l2.17,2.85,3.64-20a2.33,2.33,0,0,0-1.58-2.77,2.26,2.26,0,0,0-2.76,1.57Z" fill="#c1272d"/>
        <path d="M1203.48,498.6a51.68,51.68,0,0,1,25.26-5.52l-.6-4.42-14.81,3.72c-2.41.61-2,4.61.6,4.42l11.78-.85-.6-4.41a24.59,24.59,0,0,1-14.31.6c-1.88-.51-3.72-1.15-4.63-3a5.15,5.15,0,0,1,0-4.59c2.21-4.37,7.33-3.46,11.21-2.47q8,2,15.94,4.06l17.86,4.55c2.81.72,4-3.62,1.2-4.34l-18.59-4.74-9.42-2.4c-3-.76-6-1.68-9-2.2a13.51,13.51,0,0,0-8.42.82,10.5,10.5,0,0,0-5,5.1,9.54,9.54,0,0,0,4.92,12.64c6,2.56,13.28,2.41,19.4.31,2.26-.77,2.08-4.61-.6-4.42l-11.78.85.6,4.42,14.81-3.72c2.52-.63,1.9-4.33-.6-4.42a56.49,56.49,0,0,0-27.54,6.13c-2.58,1.31-.3,5.2,2.28,3.89Z" fill="#c1272d"/>
        <path d="M1215.53,476.15a5.89,5.89,0,0,0-2.59-1.39,7.06,7.06,0,0,0-3,0,6.16,6.16,0,0,0-4.23,3.14,2.37,2.37,0,0,0-.22,1.73,2.25,2.25,0,0,0,4.11.54,3.77,3.77,0,0,1,.39-.64l-.35.45a4.24,4.24,0,0,1,.64-.63l-.46.35a4.82,4.82,0,0,1,1-.57l-.54.23a4.77,4.77,0,0,1,1.18-.31l-.6.08a5.34,5.34,0,0,1,1.13,0l-.59-.08a4,4,0,0,1,1,.28l-.54-.23a3.77,3.77,0,0,1,.78.45l-.46-.35.18.15a2.35,2.35,0,0,0,1.59.66,2.31,2.31,0,0,0,1.59-.66,2.27,2.27,0,0,0,0-3.18Z" fill="#c1272d"/>
        <path d="M1208.86,495.21a6,6,0,1,0-6-6,6.07,6.07,0,0,0,6,6Z" fill="#c1272d"/>
        <path d="M1208.29,490.17a168.6,168.6,0,0,0,60.88,7.05,179.29,179.29,0,0,0,18-2.21c3.1-.53,5.12-4.5,4.19-7.38-1.08-3.34-4.06-4.76-7.38-4.19l-3.69.6-1.62.23c-.88.13,1.09-.13.21,0l-1.16.14c-2.39.3-4.8.54-7.2.73-4.89.38-9.8.54-14.7.47s-9.81-.34-14.68-.84c-1.17-.12-2.33-.25-3.49-.4-.3,0-.62-.06-.92-.11,1.36.24.51.07.2,0l-2.08-.3c-2.38-.36-4.76-.78-7.13-1.24a163.15,163.15,0,0,1-16.29-4.12,6.06,6.06,0,0,0-7.38,4.19,6.12,6.12,0,0,0,4.19,7.38Z" fill="#c1272d"/>
        <path d="M1213.65,489.91l19.94,4.73c3,.72,6.64-.95,7.38-4.19.7-3.08-.93-6.61-4.19-7.38l-19.94-4.73c-3-.73-6.64,1-7.38,4.19-.7,3.08.93,6.6,4.19,7.38Z" fill="#c1272d"/>
        <path d="M1210.81,493.67a178,178,0,0,0,60.6,6.74c6-.37,12-1.08,17.93-2a6,6,0,0,0,3.59-2.76,6.16,6.16,0,0,0,.61-4.62c-1.1-3.38-4-4.72-7.39-4.19l-3.48.52c-.88.13,1.08-.14.2,0l-.93.11-1.87.23c-2.41.27-4.83.5-7.25.67-4.92.35-9.86.48-14.79.41s-9.7-.35-14.53-.83c-1.17-.11-2.34-.24-3.51-.38a10.52,10.52,0,0,1-1.86-.24l.43.06-1.16-.16c-2.4-.35-4.8-.75-7.18-1.2q-8.21-1.55-16.22-3.88a6,6,0,1,0-3.19,11.57Z" fill="#c1272d"/>
        <path d="M1286.05,493.51a6,6,0,1,0-6-6,6.07,6.07,0,0,0,6,6Z" fill="#c1272d"/>
        <path d="M1223.35,494.24a83.1,83.1,0,0,0-14.54,47.44l1.9-1.45a39.61,39.61,0,0,0-28,.65l1.84,1.84a85.32,85.32,0,0,1,25.07-44.94c1.41-1.32-.72-3.44-2.12-2.12a88.2,88.2,0,0,0-22.62,34.67,85.11,85.11,0,0,0-3.22,11.59c-.2,1,.7,2.32,1.84,1.85a37.1,37.1,0,0,1,26.39-.65,1.51,1.51,0,0,0,1.9-1.44,80.34,80.34,0,0,1,14.13-45.93c1.1-1.59-1.5-3.1-2.59-1.51Z" fill="#c1272d"/>
        <path d="M1182.09,543l-.71,9.59a1.51,1.51,0,0,0,2.79.76l9.45-18.23c.89-1.71-1.7-3.23-2.59-1.51l-9.45,18.22,2.8.76.71-9.59c.15-1.92-2.86-1.92-3,0Z" fill="#c1272d"/>
        <path d="M1188.54,541l-.32,5.74a1.51,1.51,0,0,0,2.8.75L1197,536a1.5,1.5,0,0,0-2.59-1.52l-5.93,11.42,2.79.76.32-5.74a1.5,1.5,0,0,0-3,0Z" fill="#c1272d"/>
        <path d="M1192.43,540.67l-.1,2.59a1.52,1.52,0,0,0,1.1,1.45,1.56,1.56,0,0,0,1.7-.69l7-10.11a1.5,1.5,0,0,0-2.59-1.51l-7,10.11,2.79.75.1-2.59a1.5,1.5,0,1,0-3,0Z" fill="#c1272d"/>
        <path d="M1196.41,540.1l-.31,4.92c-.09,1.44,2.18,2.12,2.79.76a77.59,77.59,0,0,1,9.59-15.89,1.56,1.56,0,0,0,0-2.12,1.52,1.52,0,0,0-2.13,0,81.72,81.72,0,0,0-10,16.49l2.8.76.31-4.92c.12-1.92-2.88-1.92-3,0Z" fill="#c1272d"/>
        <path d="M1199.54,541.24v4.52a1.52,1.52,0,0,0,2.8.76l4.92-7.88a1.51,1.51,0,0,0-.54-2,1.53,1.53,0,0,0-2,.53l-4.92,7.88,2.79.76v-4.52a1.5,1.5,0,0,0-3,0Z" fill="#c1272d"/>
        <path d="M1203.47,542.81l.42,1.57a1.52,1.52,0,0,0,1.45,1.1,1.55,1.55,0,0,0,1.44-1.1l2.53-7.48a1.51,1.51,0,0,0-1-1.84,1.53,1.53,0,0,0-1.84,1l-2.53,7.48h2.89l-.42-1.57a1.51,1.51,0,0,0-1.84-1,1.53,1.53,0,0,0-1,1.85Z" fill="#c1272d"/>
        <path d="M1206.65,542.1l-.17,3.87a1.5,1.5,0,0,0,1.3,1.47,1.52,1.52,0,0,0,1.65-1.07l2-5.93a1.5,1.5,0,0,0-1-1.84,1.54,1.54,0,0,0-1.85,1l-2,5.93,3,.4.17-3.87a1.5,1.5,0,1,0-3,0Z" fill="#c1272d"/>
        <path d="M1202.74,542.74a1.5,1.5,0,0,0,0-3,1.5,1.5,0,0,0,0,3Z" fill="#c1272d"/>
        <path d="M1186.14,547.59l.91-6.53a1.67,1.67,0,0,0-.15-1.16,1.54,1.54,0,0,0-.9-.68,1.5,1.5,0,0,0-1.84,1l-.91,6.54a1.65,1.65,0,0,0,.15,1.15,1.5,1.5,0,0,0,2.74-.36Z" fill="#c1272d"/>
        <path d="M1185.69,542.17a1.5,1.5,0,0,0,0-3,1.5,1.5,0,0,0,0,3Z" fill="#c1272d"/>
        <path d="M1186.25,543.6a1.5,1.5,0,0,0,0-3,1.5,1.5,0,0,0,0,3Z" fill="#c1272d"/>
        <path d="M1187.76,539.25a6.13,6.13,0,0,1,0-.74c0-.13,0-.26,0-.39a1.09,1.09,0,0,0,0-.18s0-.33,0-.06,0,0,0,0,0-.14,0-.21,0-.23.08-.35a7.24,7.24,0,0,1,.24-.75c.07-.19,0,.07,0,.12a1.11,1.11,0,0,1,.07-.16,3.78,3.78,0,0,1,.17-.35c.12-.22.25-.43.39-.64l.13-.18c.11-.15-.2.24-.07.1l.26-.3a7.27,7.27,0,0,1,.57-.54,1.51,1.51,0,0,0,0-2.12,1.54,1.54,0,0,0-2.12,0,7.89,7.89,0,0,0-2.69,6.77,1.61,1.61,0,0,0,.44,1.06,1.52,1.52,0,0,0,1.06.44c.73,0,1.6-.66,1.5-1.5Z" fill="#c1272d"/>
        <path d="M1186.59,538.69a9.37,9.37,0,0,1,0-1.06c0-.08,0-.15,0-.23s.06-.38,0-.15,0,0,0-.09a2.93,2.93,0,0,1,0-.29,7.21,7.21,0,0,1,.28-1c0-.17.12-.33.18-.5s-.11.23,0,0l.12-.27q.23-.45.48-.87l.3-.43s.23-.3.09-.13,0-.05.07-.08a7.46,7.46,0,0,1,.72-.77l.39-.34c.13-.11.07-.06,0,0a2.83,2.83,0,0,1,.28-.2,1.55,1.55,0,0,0,.54-2.06,1.51,1.51,0,0,0-2-.53,10.43,10.43,0,0,0-4.48,9,1.5,1.5,0,0,0,3,0Z" fill="#c1272d"/>
        <path d="M1210.61,538.65c.13-1.41.27-2.82.44-4.24l.12-.94c.19-1.5-.06.42.06-.44.1-.71.21-1.41.32-2.11.44-2.81,1-5.6,1.6-8.37a132.09,132.09,0,0,1,4.84-16.34l-8.84-1.2-.45,4.47c-.44,4.44,6.45,6.12,8.39,2.27l6.69-13.26c1.06-2.1.62-5-1.62-6.15-2-1.08-5-.63-6.15,1.61l-6.69,13.26,8.38,2.27.45-4.47c.22-2.22-1.88-4.15-3.9-4.42a4.56,4.56,0,0,0-4.94,3.22,136.06,136.06,0,0,0-7.7,34.84,4.51,4.51,0,0,0,4.5,4.5,4.61,4.61,0,0,0,4.5-4.5Z" fill="#c1272d"/>
        <path d="M1191.76,542.09a99,99,0,0,1,3.61-12c.39-1,.8-2.07,1.22-3.11.2-.48.21-.51,0-.08l.33-.77.51-1.14q1.33-3,2.85-5.81a98.8,98.8,0,0,1,6.58-10.66c.6-.85,1.22-1.69,1.85-2.53.32-.41.34-.44.06-.08l.51-.66.92-1.14c1.36-1.67,2.78-3.29,4.25-4.88a4.5,4.5,0,0,0-6.36-6.36,103.94,103.94,0,0,0-25,46.82,4.5,4.5,0,1,0,8.68,2.39Z" fill="#c1272d"/>
        <path d="M1196.9,539c0-.49,0-1,0-1.47,0-.2.16-1.66,0-.67a18.64,18.64,0,0,1,.49-2.45,27.17,27.17,0,0,1,.88-2.78c.06-.17.52-1.29.17-.48.17-.39.35-.78.53-1.16a69.3,69.3,0,0,1,5.75-9.53c4.84-7,9.73-14,14.59-21a4.52,4.52,0,0,0-1.62-6.16,4.61,4.61,0,0,0-6.15,1.62c-5,7.23-10.11,14.42-15.07,21.69-4.56,6.67-8.7,14.06-8.63,22.38a4.5,4.5,0,0,0,9,0Z" fill="#c1272d"/>
        <path d="M1196.77,543.73a13.78,13.78,0,0,0,10.3-4.75,14.21,14.21,0,0,0,3-11.72c-.47-2.89-4.34-4.07-6.61-2.69s-4.48,2.6-6.62,4c-.48.32-.2,0,.12,0-1.09,0,1.1.1,1.1.1l2.08,4-.18.48c-.36.74-.16.23.1,0l2.71-2.81L1213.6,519a4.56,4.56,0,0,0,0-6.37,4.61,4.61,0,0,0-6.36,0l-3.51,3.14c-.55.49-1.11,1-1.65,1.47-.35.33.36-.21.55-.26l3.63,1.57c.23,1.69.38,2.16.45,1.4l-.61,2.28-1.21,1.17a4.55,4.55,0,0,0,1.62-6.16,4.6,4.6,0,0,0-6.16-1.61,5.28,5.28,0,0,0-2.19,6.71,5.63,5.63,0,0,0,6.51,3.38c2-.46,3.43-1.81,4.92-3.14l4-3.58-6.36-6.37-7.17,7.46c-2.31,2.41-4.86,4.73-7,7.31-1.67,2-2.53,4.79-1.06,7.23a6.31,6.31,0,0,0,6.64,2.79,13.68,13.68,0,0,0,4.6-2.21l4.73-2.89-6.61-2.69c-.09-.6,0-.45,0,.07q0,.36,0,.72c0,.87.18.26,0,.07.06.07-.13.61-.16.71-.07.29-.18.57-.27.86-.17.57.49-.84-.06.09-.13.2-.25.41-.37.62-.4.71.3-.23-.06.11-.17.16-.32.35-.49.52s-.83.67-.06.12c-.45.32-.93.56-1.39.85s.65-.18.07,0c-.29.07-.57.19-.87.26-.13,0-.58.21-.71.15q.81-.09.3-.06a5,5,0,0,1-.55,0,4.5,4.5,0,0,0,0,9Z" fill="#c1272d"/>
        <path d="M1204.74,479.71c4.41-2.6,9.46-.58,13.65,1.43a71.88,71.88,0,0,0,13.09,5c9.31,2.44,19,3,28.61,2.75,5.87-.14,11.72-.56,17.58-1,.47,0,.48-.79,0-.75-10.47.74-21,1.49-31.46.64a83.76,83.76,0,0,1-14.76-2.45,85.31,85.31,0,0,1-13.94-5.44c-4.1-1.89-9-3.31-13.15-.84a.38.38,0,0,0,.38.65Z" fill="#a6132d"/>
        <path d="M1206.18,486.08c10.14-4.22,20.37,2.45,29.72,5.7a38.1,38.1,0,0,0,15.13,2.31c5.37-.35,10.6-1.72,15.86-2.77,6.09-1.23,12.42-2,18.51-.29a.38.38,0,0,0,.2-.73c-10.8-3-21.52,1.55-32.2,2.82a37.42,37.42,0,0,1-16.43-1.76c-5-1.67-9.77-4.1-14.81-5.74-5.22-1.7-11-2.43-16.18-.26-.43.18-.24.91.2.72Z" fill="#a6132d"/>
        <path d="M1203.94,492.15c10.57-4,21.57,1,31.88,3.42a122.76,122.76,0,0,0,31.5,3.25,124.19,124.19,0,0,0,18-1.8c.48-.08.28-.8-.19-.72a123.06,123.06,0,0,1-32.86,1.24,121.67,121.67,0,0,1-16.2-2.7c-5.25-1.24-10.36-3-15.65-4.08-5.51-1.11-11.29-1.36-16.63.67-.44.17-.25.89.2.72Z" fill="#a6132d"/>
        <path d="M1269.5,496.54c2.75-.76,5.49-1.53,8.24-2.28s5.61-1.42,8.47-.83c.47.09.67-.63.2-.73a18,18,0,0,0-8.26.68c-3,.78-5.9,1.62-8.84,2.44a.37.37,0,0,0,.19.72Z" fill="#a6132d"/>
        <path d="M1278.19,486a16.57,16.57,0,0,0,11.48-3.37c.38-.29,0-.94-.38-.64a16,16,0,0,1-11.1,3.26c-.48,0-.48.71,0,.75Z" fill="#a6132d"/>
        <path d="M1209.18,538.31a49,49,0,0,1,9.33-38.55c.3-.39-.36-.76-.65-.38a49.72,49.72,0,0,0-9.4,39.13c.09.48.81.28.72-.2Z" fill="#a6132d"/>
        <path d="M1206.42,509.71a83.57,83.57,0,0,0-3.59,27,.38.38,0,0,0,.75,0,82.65,82.65,0,0,1,3.57-26.79.38.38,0,0,0-.73-.2Z" fill="#a6132d"/>
        <path d="M1199.18,541c-.3-14.17-.28-30.85,11.53-40.85.37-.31-.16-.84-.53-.53-12,10.13-12,27-11.75,41.38a.38.38,0,0,0,.75,0Z" fill="#a6132d"/>
        <path d="M1190.88,537.08a51.29,51.29,0,0,1,7.5-25.47c.25-.41-.4-.79-.65-.38a52.24,52.24,0,0,0-7.6,25.85c0,.48.73.48.75,0Z" fill="#a6132d"/>
      </g>
    </g>
  </g>
</svg>
