<svg width="50" height="45" viewBox="0 0 50 45" fill="none" xmlns="http://www.w3.org/2000/svg">
<path d="M16.9698 25.3005L16.99 25.2586C17.6226 23.9521 18.4145 22.7289 19.3477 21.6169C21.9441 19.0825 25.0806 17.1687 28.5219 16.019L30.6429 15.3103L41.0338 13.3313C41.4899 13.2444 41.7039 13.8731 41.2895 14.0825L38.5439 15.5836C37.3145 16.2557 36.1512 17.0421 35.0694 17.9324L34.0823 18.7446C33.5203 19.2071 32.9109 19.6087 32.2642 19.9426L30.6429 20.8356L28.6973 22.0076L27.859 22.5713C26.8802 23.2295 26.0552 24.0916 25.4406 25.0984C25.0199 25.7874 24.7035 26.5349 24.5017 27.3166L24.1576 28.6491L23.6172 31.6629C23.1864 33.4425 22.9686 35.2671 22.9686 37.0981V37.3556V40.0903L23.1486 41.9482C23.2351 42.8416 22.7488 43.6924 21.9352 44.0713C21.1018 44.4595 20.1131 44.2653 19.4883 43.5908L19.3477 43.439L17.6183 41.2066L17.1718 40.5149C16.4656 39.4209 15.9462 38.2171 15.6349 36.9527C15.4088 36.0341 15.2944 35.0914 15.2944 34.1453V32.6117L15.5647 30.4351L16.1051 27.9236L16.9698 25.3005Z" fill="#FCE69F" stroke="black" stroke-width="0.1"/>
<path d="M37.8894 19.8L42.8361 17.0551C43.3892 16.7482 43.9138 16.3926 44.4037 15.9926L47.9039 13.1345C48.1641 12.922 48.3151 12.6038 48.3151 12.2678V12.248C48.3151 12.0605 48.3655 11.8764 48.461 11.7151C48.7202 11.277 48.6266 10.7158 48.2391 10.3857L46.7479 9.1152L45.4932 8.17289C45.1411 7.90846 44.7707 7.66944 44.3846 7.45765C43.622 7.03927 42.8043 6.73026 41.9556 6.53973L41.8416 6.51412C41.1154 6.3511 40.3735 6.26884 39.6292 6.26884H37.7766H35.1284L32.4803 6.5479L29.9943 6.82695L28.1028 7.10601L25.941 7.44087L23.7252 7.99898L22.1579 8.55709L20.3205 9.1152L18.537 9.78493L17.9998 9.91394C16.8128 10.199 15.5964 10.343 14.3756 10.343H13.3467C12.5591 10.343 11.7752 10.2357 11.0167 10.024L10.8871 9.9878C10.4038 9.85291 9.93555 9.66892 9.48971 9.43871C8.71783 9.04015 8.02266 8.50802 7.43639 7.86697L6.48525 6.82695L4.70181 4.76195L4.50827 4.5552C3.59403 3.5785 2.76245 2.52759 2.02209 1.4133L1.32448 0.349478C1.19043 0.145071 0.932766 0.0606487 0.703752 0.146104C0.362423 0.273468 0.252354 0.701885 0.490022 0.978004L0.8647 1.4133L2.81028 3.75736L4.3235 5.43168L6.10694 7.77574L6.66151 8.34843C7.40569 9.11695 8.24444 9.78788 9.15762 10.3451C9.82459 10.7521 10.5279 11.0964 11.2584 11.3736L11.4536 11.4476C12.3546 11.7894 13.2869 12.0422 14.2372 12.2025L14.7107 12.2823C15.207 12.366 15.7095 12.408 16.2129 12.408C17.1088 12.408 17.9997 12.2748 18.8565 12.0126L19.0234 11.9616L22.1579 10.957L25.1844 10.343L22.7524 11.236L19.726 12.8545L16.2131 14.9195L13.0786 17.0962L12.1778 17.7706C11.3389 18.3987 10.5589 19.1019 9.84759 19.8715C9.04929 20.7351 8.34135 21.6781 7.73482 22.6858L7.40399 23.2353L6.60529 24.7132C6.27371 25.3267 5.99726 25.9684 5.77918 26.6308L5.69616 26.8829C5.35967 27.9049 5.1882 28.9741 5.1882 30.0501C5.1882 30.5664 5.22768 31.0819 5.30628 31.5921L5.49283 32.8031C5.54163 33.1198 5.64125 33.4266 5.78786 33.7116L5.9131 33.9551C6.27235 34.6534 6.9455 35.1364 7.72211 35.253C8.75915 35.4088 9.77989 34.8852 10.2583 33.952L10.9168 32.6674C11.7441 30.9588 12.7116 29.3218 13.8095 27.7732L14.3756 26.9747L16.2131 24.7981L16.7271 24.1788C17.6772 23.0341 18.7767 22.0223 19.9962 21.1703L23.5631 19.0495L26.9138 17.3752L30.4266 16.1474L35.1284 14.9195L38.9115 14.1382L38.9652 14.1341C40.6061 14.0079 42.205 13.5538 43.6674 12.7987L38.9115 15.2544C37.2565 16.2204 35.6771 17.3103 34.1867 18.5148L33.9395 18.7147L32.5469 20.1862C31.9275 20.8407 31.3733 21.554 30.8921 22.316C30.2957 23.2603 29.8155 24.2731 29.4618 25.3325L29.2421 25.9904C29.0234 26.6454 28.8603 27.3177 28.7545 28.0001L28.7079 28.3014C28.5575 29.2722 28.5483 30.2596 28.6806 31.2331L28.7026 31.3954C28.8421 32.4221 29.1537 33.4179 29.6242 34.341C29.8704 34.8242 30.1588 35.2848 30.4861 35.7173L30.6474 35.9306C31.1117 36.5443 31.6328 37.1129 32.2037 37.6288L33.0748 38.4159C34.4408 39.4925 35.9064 40.4361 37.4518 41.2341L37.7225 41.3739L40.0038 42.5256C40.1039 42.5762 40.2099 42.6139 40.3194 42.6378L41.0618 42.8005C41.512 42.8991 41.938 42.5563 41.938 42.0955C41.938 41.8239 41.7856 41.5754 41.5436 41.4522L38.2089 39.7554L35.7229 38.4159L34.7334 37.7037C34.2054 37.3237 33.7157 36.8929 33.2714 36.4177L33.2524 36.3974C32.7037 35.8105 32.2295 35.1583 31.8406 34.4553L31.7877 34.3597C31.4936 33.8283 31.2558 33.2676 31.0782 32.6868C30.8254 31.8599 30.6969 31 30.6969 30.1353V30.0825C30.6969 28.9873 30.8976 27.9014 31.2892 26.8785C31.5062 26.3116 31.7803 25.7681 32.1073 25.2566L32.3516 24.8743C33.0463 23.7874 33.8941 22.8063 34.8689 21.9614L35.1604 21.7087C36.0015 20.9797 36.9161 20.34 37.8894 19.8Z" fill="#FBD64A"/>
<path d="M25.1844 10.343L22.7524 11.236L19.726 12.8545L16.2131 14.9195L13.0786 17.0962L12.1778 17.7706C11.3389 18.3987 10.5589 19.1019 9.84759 19.8715V19.8715C9.04929 20.7351 8.34135 21.6781 7.73482 22.6858L7.40399 23.2354L6.60529 24.7132C6.27371 25.3267 5.99726 25.9684 5.77918 26.6308L5.69616 26.8829C5.35967 27.9049 5.1882 28.9741 5.1882 30.0501V30.0501C5.1882 30.5664 5.22768 31.0819 5.30628 31.5921L5.49283 32.8031C5.54163 33.1198 5.64125 33.4266 5.78786 33.7116L5.9131 33.9551C6.27235 34.6534 6.9455 35.1364 7.72211 35.253V35.253C8.75915 35.4088 9.77989 34.8852 10.2583 33.952L10.9168 32.6674V32.6674C11.7441 30.9588 12.7116 29.3218 13.8095 27.7732L14.3756 26.9747L16.2131 24.7981L16.7272 24.1788C17.6772 23.0341 18.7767 22.0223 19.9962 21.1703V21.1703L23.5631 19.0495L26.9138 17.3752L30.4266 16.1474L35.1284 14.9195L38.9115 14.1382L38.9652 14.1341C40.6061 14.0079 42.205 13.5538 43.6674 12.7987V12.7987L38.9115 15.2544V15.2544C37.2565 16.2204 35.6771 17.3103 34.1867 18.5148L33.9395 18.7147L32.5469 20.1862C31.9275 20.8407 31.3733 21.554 30.8921 22.316V22.316C30.2957 23.2603 29.8155 24.2731 29.4618 25.3325L29.2421 25.9904C29.0234 26.6454 28.8603 27.3177 28.7545 28.0001L28.7079 28.3014C28.5575 29.2722 28.5483 30.2596 28.6806 31.2331L28.7026 31.3954C28.8422 32.4221 29.1537 33.4179 29.6242 34.341V34.341C29.8704 34.8242 30.1588 35.2848 30.4861 35.7173L30.6475 35.9306C31.1117 36.5443 31.6328 37.1129 32.2037 37.6288L33.0748 38.4159V38.4159C34.4408 39.4925 35.9064 40.4361 37.4518 41.2341L37.7225 41.3739L40.0038 42.5256C40.1039 42.5762 40.2099 42.6139 40.3194 42.6378L41.0618 42.8005C41.512 42.8991 41.938 42.5563 41.938 42.0955V42.0955C41.938 41.8239 41.7856 41.5754 41.5436 41.4522L38.2089 39.7554L35.7229 38.4159L34.7334 37.7037C34.2054 37.3237 33.7157 36.8929 33.2714 36.4177L33.2524 36.3973C32.7037 35.8105 32.2296 35.1583 31.8406 34.4553L31.7877 34.3597C31.4936 33.8283 31.2558 33.2676 31.0782 32.6868V32.6868C30.8254 31.8599 30.6969 31 30.6969 30.1353V30.0825C30.6969 28.9873 30.8976 27.9014 31.2892 26.8785V26.8785C31.5062 26.3116 31.7803 25.7681 32.1073 25.2566L32.3516 24.8743C33.0463 23.7874 33.8941 22.8063 34.8689 21.9614L35.1604 21.7087C36.0015 20.9797 36.9161 20.34 37.8894 19.8L42.8361 17.0551C43.3892 16.7482 43.9138 16.3926 44.4037 15.9926L47.9039 13.1345C48.1641 12.922 48.3151 12.6038 48.3151 12.2678V12.248C48.3151 12.0605 48.3655 11.8764 48.461 11.7151V11.7151C48.7202 11.277 48.6266 10.7158 48.2391 10.3857L46.7479 9.1152L45.4932 8.17289C45.1411 7.90846 44.7707 7.66944 44.3846 7.45765V7.45765C43.622 7.03927 42.8043 6.73026 41.9556 6.53973L41.8416 6.51412C41.1154 6.3511 40.3735 6.26884 39.6292 6.26884H37.7766H35.1284L32.4803 6.5479L29.9943 6.82695L28.1028 7.10601L25.941 7.44087L23.7252 7.99898L22.1579 8.55709L20.3205 9.1152L18.537 9.78493L17.9998 9.91394C16.8128 10.199 15.5964 10.343 14.3756 10.343V10.343H13.3467C12.5591 10.343 11.7752 10.2357 11.0167 10.024L10.8871 9.9878C10.4038 9.85291 9.93555 9.66892 9.48971 9.43871V9.43871C8.71783 9.04015 8.02266 8.50802 7.43639 7.86697L6.48525 6.82695L4.70181 4.76195L4.50827 4.5552C3.59403 3.5785 2.76245 2.52759 2.02209 1.4133V1.4133L1.32448 0.349478C1.19043 0.145071 0.932766 0.0606487 0.703752 0.146103V0.146103C0.362423 0.273468 0.252354 0.701885 0.490022 0.978004L0.8647 1.4133L2.81028 3.75736L4.3235 5.43168L6.10694 7.77574L6.66151 8.34843C7.40569 9.11695 8.24443 9.78788 9.15762 10.3451V10.3451C9.82459 10.7521 10.5279 11.0964 11.2584 11.3736L11.4536 11.4476C12.3546 11.7894 13.2869 12.0422 14.2372 12.2025L14.7107 12.2823C15.207 12.366 15.7095 12.408 16.2129 12.408V12.408C17.1088 12.408 17.9997 12.2748 18.8565 12.0126L19.0234 11.9616L22.1579 10.957L25.1844 10.343ZM25.1844 10.343L29.4538 9.50588L33.399 8.83614L36.4255 8.55709L38.9115 8.27804H41.4516" stroke="black" stroke-width="0.1"/>
<path d="M41.3686 8.35278L30.7526 10.528L27.0454 11.3111L18.4515 13.6603L22.8749 11.3111L24.7706 10.528L33.1117 9.00535L38.9252 8.35278H41.3686Z" fill="#F6BF2E"/>
<path d="M47.9641 10.8371L48.0755 10.6727C48.1744 10.5269 48.3783 10.4997 48.5118 10.6147C48.5596 10.6558 48.5929 10.7111 48.6069 10.7726L48.7098 11.2239C48.7701 11.4886 48.7661 11.7639 48.6983 12.0268L48.6054 12.3863C48.5922 12.4374 48.5679 12.485 48.5342 12.5256C48.3917 12.6972 48.1289 12.6986 47.9847 12.5284L47.9718 12.5131C47.9143 12.4453 47.8828 12.3593 47.8828 12.2705V11.6268V11.1019C47.8828 11.0075 47.9111 10.9153 47.9641 10.8371Z" fill="#817F4F" stroke="black" stroke-width="0.1"/>
<path d="M18.8307 22.9272L17.272 24.7979L17.9039 23.5798L19.3362 21.7961L20.2209 21.1435L22.917 19.5774L26.7927 17.5326L30.2049 16.3145L36.1448 14.7919L38.7988 14.2263L41.0316 14.0088L38.504 15.3574L37.6193 15.8795L29.6573 17.5326L21.4425 21.1435L18.8307 22.9272Z" fill="#F3D8A3"/>
<path d="M44.8746 10.2109C44.0259 9.45301 43.6072 9.34031 42.379 9.20773" stroke="black" stroke-width="0.1"/>
<path d="M44.4928 10.2844C43.3653 9.62659 42.318 9.30888 39.8979 9.03222" stroke="black" stroke-width="0.1"/>
<path d="M43.3896 10.2881C41.8835 9.60961 40.7871 9.38996 38.4507 9.24128" stroke="black" stroke-width="0.1"/>
<path d="M42.3777 10.4265C40.8179 9.86929 39.6545 9.74078 37.0008 9.88094" stroke="black" stroke-width="0.1"/>
<path d="M40.7819 10.3262C38.2301 10.2343 37.0312 10.2187 35.7238 10.3198" stroke="black" stroke-width="0.1"/>
<path d="M21.6174 43.2737C22.4453 42.489 22.5419 42.14 22.5885 41.1451" stroke="black" stroke-width="0.1"/>
<path d="M21.4951 42.9812C22.1782 41.9897 22.4624 41.1115 22.5728 39.1487" stroke="black" stroke-width="0.1"/>
<path d="M21.3906 42.1055C22.0639 40.8101 22.2266 39.9072 22.1917 38.0296" stroke="black" stroke-width="0.1"/>
<path d="M21.1331 41.3218C21.6567 40.0016 21.7044 39.0586 21.2958 36.9711" stroke="black" stroke-width="0.1"/>
<path d="M21.1348 21.5729C20.0345 21.6654 19.7512 21.8778 19.1169 22.6272" stroke="black" stroke-width="0.1"/>
<path d="M21.0515 21.8792C19.9366 22.2249 19.1924 22.7333 17.9272 24.2002" stroke="black" stroke-width="0.1"/>
<path d="M20.6035 22.6306C19.3131 23.2204 18.6463 23.8247 17.5424 25.3164" stroke="black" stroke-width="0.1"/>
<path d="M20.327 23.4062C19.1352 24.1098 18.5314 24.8178 17.5846 26.7095" stroke="black" stroke-width="0.1"/>
<path d="M19.5743 24.426C18.4388 26.1003 17.9326 26.9046 17.498 27.857" stroke="black" stroke-width="0.1"/>
<ellipse rx="0.10869" ry="0.641798" transform="matrix(0.9765 0.215519 -0.185823 0.982583 6.76153 27.1233)" fill="#907F49" fill-opacity="0.1"/>
<ellipse rx="0.271726" ry="0.175036" transform="matrix(0.9765 0.215519 -0.185823 0.982583 8.43289 26.1781)" fill="#907F49" fill-opacity="0.1"/>
<ellipse rx="0.271726" ry="0.525108" transform="matrix(0.9765 0.215519 -0.185823 0.982583 8.10771 27.8983)" fill="#907F49" fill-opacity="0.1"/>
<ellipse rx="0.380417" ry="0.233381" transform="matrix(0.9765 0.215519 -0.185823 0.982583 9.9492 26.9309)" fill="#907F49" fill-opacity="0.1"/>
<ellipse rx="0.284637" ry="0.167486" transform="matrix(0.581562 0.813502 -0.767858 0.64062 11.5668 28.5283)" fill="#907F49" fill-opacity="0.1"/>
<ellipse rx="0.284637" ry="0.502459" transform="matrix(0.581562 0.813502 -0.767858 0.64062 10.0732 28.3608)" fill="#907F49" fill-opacity="0.1"/>
<ellipse rx="0.398492" ry="0.223315" transform="matrix(0.581562 0.813502 -0.767858 0.64062 10.8586 29.9777)" fill="#907F49" fill-opacity="0.1"/>
<ellipse rx="0.103869" ry="0.586337" transform="matrix(-0.996728 0.0808224 -0.0693147 -0.997595 9.10497 30.2941)" fill="#907F49" fill-opacity="0.1"/>
<ellipse rx="0.259672" ry="0.15991" transform="matrix(-0.996728 0.0808224 -0.0693147 -0.997595 7.78869 31.5773)" fill="#907F49" fill-opacity="0.1"/>
<ellipse rx="0.259672" ry="0.479731" transform="matrix(-0.996728 0.0808224 -0.0693147 -0.997595 7.6779 29.9821)" fill="#907F49" fill-opacity="0.1"/>
<ellipse rx="0.363541" ry="0.213214" transform="matrix(-0.996728 0.0808224 -0.0693147 -0.997595 6.20991 31.3311)" fill="#907F49" fill-opacity="0.1"/>
<ellipse rx="0.111067" ry="0.628077" transform="matrix(0.3211 0.9531 -0.929718 0.353187 11.982 22.0269)" fill="#907F49" fill-opacity="0.1"/>
<ellipse rx="0.277667" ry="0.171294" transform="matrix(0.3211 0.9531 -0.929718 0.353187 13.6313 23.0126)" fill="#907F49" fill-opacity="0.1"/>
<ellipse rx="0.277667" ry="0.513881" transform="matrix(0.3211 0.9531 -0.929718 0.353187 12.0386 23.6175)" fill="#907F49" fill-opacity="0.1"/>
<ellipse rx="0.388734" ry="0.228392" transform="matrix(0.3211 0.9531 -0.929718 0.353187 13.7947 24.7417)" fill="#907F49" fill-opacity="0.1"/>
<ellipse rx="0.282678" ry="0.168317" transform="matrix(-0.374374 0.941927 -0.924076 -0.343918 13.3119 26.9984)" fill="#907F49" fill-opacity="0.1"/>
<ellipse rx="0.282678" ry="0.504952" transform="matrix(-0.374374 0.941927 -0.924076 -0.343918 12.6756 25.5926)" fill="#907F49" fill-opacity="0.1"/>
<ellipse rx="0.39575" ry="0.224423" transform="matrix(-0.374374 0.941927 -0.924076 -0.343918 11.7442 27.1249)" fill="#907F49" fill-opacity="0.1"/>
<ellipse rx="0.106331" ry="0.572963" transform="matrix(-0.570425 -0.818674 0.808359 -0.59219 10.5727 25.7409)" fill="#907F49" fill-opacity="0.1"/>
<ellipse rx="0.265827" ry="0.156263" transform="matrix(-0.570425 -0.818674 0.808359 -0.59219 8.82771 25.2443)" fill="#907F49" fill-opacity="0.1"/>
<ellipse rx="0.265827" ry="0.468788" transform="matrix(-0.570425 -0.818674 0.808359 -0.59219 10.0907 24.319)" fill="#907F49" fill-opacity="0.1"/>
<ellipse rx="0.372158" ry="0.20835" transform="matrix(-0.570425 -0.818674 0.808359 -0.59219 8.21248 23.7226)" fill="#907F49" fill-opacity="0.1"/>
<ellipse rx="0.0653183" ry="0.606749" transform="matrix(-0.11896 0.997646 -0.989906 0.129512 30.4329 9.96674)" fill="#907F49" fill-opacity="0.3"/>
<ellipse rx="0.163296" ry="0.165477" transform="matrix(-0.11896 0.997646 -0.989906 0.129512 31.529 10.6892)" fill="#907F49" fill-opacity="0.3"/>
<ellipse rx="0.163296" ry="0.496431" transform="matrix(-0.11896 0.997646 -0.989906 0.129512 29.891 10.9035)" fill="#907F49" fill-opacity="0.3"/>
<ellipse rx="0.228614" ry="0.220636" transform="matrix(-0.11896 0.997646 -0.989906 0.129512 31.0303 11.7169)" fill="#907F49" fill-opacity="0.3"/>
<ellipse rx="0.241147" ry="0.126679" transform="matrix(-0.800388 0.608332 -0.919141 -0.375815 29.7622 12.9963)" fill="#907F49" fill-opacity="0.3"/>
<ellipse rx="0.241147" ry="0.380037" transform="matrix(-0.800388 0.608332 -0.919141 -0.375815 29.7209 12.1169)" fill="#907F49" fill-opacity="0.3"/>
<ellipse rx="0.337606" ry="0.168905" transform="matrix(-0.800388 0.608332 -0.919141 -0.375815 28.3242 12.9327)" fill="#907F49" fill-opacity="0.3"/>
<ellipse rx="0.0603885" ry="0.559633" transform="matrix(-0.354401 -0.933025 0.959937 -0.282405 27.8 12.0185)" fill="#907F49" fill-opacity="0.3"/>
<ellipse rx="0.150971" ry="0.152627" transform="matrix(-0.354401 -0.933025 0.959937 -0.282405 26.4366 11.5738)" fill="#907F49" fill-opacity="0.3"/>
<ellipse rx="0.150971" ry="0.457882" transform="matrix(-0.354401 -0.933025 0.959937 -0.282405 27.9018 11.1429)" fill="#907F49" fill-opacity="0.3"/>
<ellipse rx="0.21136" ry="0.203503" transform="matrix(-0.354401 -0.933025 0.959937 -0.282405 26.4575 10.6281)" fill="#907F49" fill-opacity="0.3"/>
<ellipse rx="0.0645883" ry="0.615864" transform="matrix(0.428218 0.915315 -0.75276 0.652922 30.4356 26.0745)" fill="#907F49" fill-opacity="0.2"/>
<ellipse rx="0.161471" ry="0.167963" transform="matrix(0.428218 0.915315 -0.75276 0.652922 31.7362 26.0687)" fill="#907F49" fill-opacity="0.2"/>
<ellipse rx="0.161471" ry="0.503889" transform="matrix(0.428218 0.915315 -0.75276 0.652922 30.4717 27.165)" fill="#907F49" fill-opacity="0.2"/>
<ellipse rx="0.341223" ry="0.169769" transform="matrix(-0.349817 0.948973 -0.964779 0.197398 30.2193 29.7472)" fill="#907F49" fill-opacity="0.2"/>
<ellipse rx="0.0595292" ry="0.568226" transform="matrix(-0.798755 -0.594372 0.648704 -0.762757 29.2992 29.2722)" fill="#907F49" fill-opacity="0.2"/>
<ellipse rx="0.148823" ry="0.464912" transform="matrix(-0.798755 -0.594372 0.648704 -0.762757 28.9254 28.4793)" fill="#907F49" fill-opacity="0.2"/>
<ellipse rx="0.0935758" ry="0.611403" transform="matrix(-0.0113332 1.00334 -0.994703 0.0757372 46.667 9.46246)" fill="#907F49" fill-opacity="0.1"/>
<ellipse rx="0.233939" ry="0.166746" transform="matrix(-0.0113332 1.00334 -0.994703 0.0757372 47.8692 10.6375)" fill="#907F49" fill-opacity="0.1"/>
<ellipse rx="0.233939" ry="0.500238" transform="matrix(-0.0113332 1.00334 -0.994703 0.0757372 46.2106 10.7638)" fill="#907F49" fill-opacity="0.1"/>
<ellipse rx="0.327515" ry="0.222328" transform="matrix(-0.0113332 1.00334 -0.994703 0.0757372 47.4663 12.0754)" fill="#907F49" fill-opacity="0.1"/>
<ellipse rx="0.262818" ry="0.150465" transform="matrix(-0.694572 0.728624 -0.827872 -0.547717 46.3002 13.7932)" fill="#907F49" fill-opacity="0.1"/>
<ellipse rx="0.262818" ry="0.451396" transform="matrix(-0.694572 0.728624 -0.827872 -0.547717 46.1646 12.5092)" fill="#907F49" fill-opacity="0.1"/>
<ellipse rx="0.367946" ry="0.20062" transform="matrix(-0.694572 0.728624 -0.827872 -0.547717 44.8175 13.5376)" fill="#907F49" fill-opacity="0.1"/>
<ellipse rx="0.0889879" ry="0.560221" transform="matrix(-0.31405 -0.948018 0.954343 -0.301742 44.1826 12.1494)" fill="#907F49" fill-opacity="0.1"/>
<ellipse rx="0.22247" ry="0.152788" transform="matrix(-0.31405 -0.948018 0.954343 -0.301742 42.736 11.3487)" fill="#907F49" fill-opacity="0.1"/>
<ellipse rx="0.22247" ry="0.458363" transform="matrix(-0.31405 -0.948018 0.954343 -0.301742 44.1941 10.8876)" fill="#907F49" fill-opacity="0.1"/>
<ellipse rx="0.311458" ry="0.203717" transform="matrix(-0.31405 -0.948018 0.954343 -0.301742 42.6571 9.97554)" fill="#907F49" fill-opacity="0.1"/>
<ellipse rx="0.0927792" ry="0.618604" transform="matrix(0.209756 0.988568 -0.941478 0.301792 31.7054 35.3263)" fill="#907F49" fill-opacity="0.2"/>
<ellipse rx="0.231948" ry="0.16871" transform="matrix(0.209756 0.988568 -0.941478 0.301792 34.5834 38.3903)" fill="#907F49" fill-opacity="0.2"/>
<ellipse rx="0.231948" ry="0.506131" transform="matrix(0.209756 0.988568 -0.941478 0.301792 31.9658 36.6999)" fill="#907F49" fill-opacity="0.2"/>
<ellipse rx="0.324727" ry="0.224947" transform="matrix(0.209756 0.988568 -0.941478 0.301792 33.4756 37.6855)" fill="#907F49" fill-opacity="0.2"/>
<ellipse rx="0.263169" ry="0.150446" transform="matrix(-0.975778 0.164865 -0.35554 -0.946767 30.4884 35.1573)" fill="#907F49" fill-opacity="0.2"/>
<ellipse rx="0.263169" ry="0.451339" transform="matrix(-0.975778 0.164865 -0.35554 -0.946767 31.1124 34.0382)" fill="#907F49" fill-opacity="0.2"/>
<ellipse rx="0.368436" ry="0.200595" transform="matrix(-0.975778 0.164865 -0.35554 -0.946767 29.9427 34.0478)" fill="#907F49" fill-opacity="0.2"/>
<ellipse rx="0.0887341" ry="0.561924" transform="matrix(0.28889 -0.959514 0.94007 0.336833 29.7179 32.5389)" fill="#907F49" fill-opacity="0.2"/>
<ellipse rx="0.221835" ry="0.153252" transform="matrix(0.28889 -0.959514 0.94007 0.336833 29.0076 31.0109)" fill="#907F49" fill-opacity="0.2"/>
<ellipse rx="0.221835" ry="0.459756" transform="matrix(0.28889 -0.959514 0.94007 0.336833 30.4482 31.5275)" fill="#907F49" fill-opacity="0.2"/>
<ellipse rx="0.310569" ry="0.204336" transform="matrix(0.28889 -0.959514 0.94007 0.336833 29.7283 29.8543)" fill="#907F49" fill-opacity="0.2"/>
<ellipse rx="0.0669122" ry="0.28331" transform="matrix(-0.581403 0.808718 -0.729405 -0.693812 32.1996 23.9205)" fill="#907F49" fill-opacity="0.2"/>
<ellipse rx="0.16728" ry="0.0772665" transform="matrix(-0.581403 0.808718 -0.729405 -0.693812 32.0877 25.0438)" fill="#907F49" fill-opacity="0.2"/>
<ellipse rx="0.16728" ry="0.231799" transform="matrix(-0.581403 0.808718 -0.729405 -0.693812 31.5242 24.5077)" fill="#907F49" fill-opacity="0.2"/>
<ellipse rx="0.234193" ry="0.103022" transform="matrix(-0.581403 0.808718 -0.729405 -0.693812 31.3726 25.7305)" fill="#907F49" fill-opacity="0.2"/>
<ellipse rx="0.143933" ry="0.0926597" transform="matrix(-0.937909 0.306359 -0.0493057 -1.01023 30.3072 26.2994)" fill="#907F49" fill-opacity="0.2"/>
<ellipse rx="0.143933" ry="0.277979" transform="matrix(-0.937909 0.306359 -0.0493057 -1.01023 30.7929 25.5042)" fill="#907F49" fill-opacity="0.2"/>
<ellipse rx="0.201507" ry="0.123546" transform="matrix(-0.937909 0.306359 -0.0493057 -1.01023 29.9547 25.6061)" fill="#907F49" fill-opacity="0.2"/>
<ellipse rx="0.064615" ry="0.254842" transform="matrix(0.403003 -0.916824 0.919765 0.38574 30.3294 24.5667)" fill="#907F49" fill-opacity="0.2"/>
<ellipse rx="0.161538" ry="0.0695024" transform="matrix(0.403003 -0.916824 0.919765 0.38574 30.2123 23.5704)" fill="#907F49" fill-opacity="0.2"/>
<ellipse rx="0.161538" ry="0.208507" transform="matrix(0.403003 -0.916824 0.919765 0.38574 30.8515 23.8386)" fill="#907F49" fill-opacity="0.2"/>
<ellipse rx="0.226153" ry="0.0926699" transform="matrix(0.403003 -0.916824 0.919765 0.38574 30.7519 22.7444)" fill="#907F49" fill-opacity="0.2"/>
</svg>
