<svg width="24" height="24" viewBox="0 0 24 24" fill="none" xmlns="http://www.w3.org/2000/svg">
<path d="M23.4825 7.16741C23.3427 5.48996 20.2208 3.62613 18.6831 4.37165L9.41052 19.8415C9.22415 21.9849 13.045 23.5692 14.0235 22.7305L23.4825 7.16741Z" fill="#020202" stroke="black" stroke-width="0.1"/>
<path d="M21.9789 5.14549L21.9789 5.14555L21.9812 5.14707C22.943 5.78832 23.3966 6.52555 23.4487 7.17037C23.3805 7.25777 23.2371 7.31487 23.0262 7.33221C22.808 7.35015 22.5317 7.32427 22.2299 7.259C21.6262 7.12847 20.9314 6.84275 20.414 6.45182L20.4136 6.45151C19.8772 6.05507 19.4082 5.68958 19.0992 5.34028C18.7959 4.99754 18.6576 4.68291 18.7424 4.37739C19.0666 4.21911 19.587 4.19817 20.1718 4.32292C20.7658 4.44964 21.4172 4.7249 21.9789 5.14549Z" fill="#BD9265" stroke="black" stroke-width="0.1"/>
<path d="M22.2451 5.96999C22.4357 6.18554 22.516 6.36982 22.4912 6.512C22.4532 6.56522 22.3868 6.60181 22.2897 6.61734C22.188 6.63361 22.0579 6.62564 21.9073 6.59313C21.6064 6.52819 21.2343 6.36776 20.8654 6.12949C20.4948 5.89019 20.1855 5.63752 19.9929 5.41049C19.8965 5.29679 19.8317 5.19221 19.8017 5.10124C19.7736 5.01593 19.7771 4.94684 19.8088 4.89147C19.8536 4.86554 19.9242 4.84526 20.0192 4.83749C20.12 4.82925 20.2443 4.8354 20.3861 4.86077C20.6697 4.91149 21.0203 5.03848 21.3877 5.27576C21.7584 5.51515 22.0527 5.75256 22.2451 5.96999Z" fill="#C4BEBE" stroke="black" stroke-width="0.1"/>
<path d="M22.1233 6.35549C22.0985 6.39694 22.0518 6.42633 21.9776 6.43894C21.903 6.45161 21.806 6.44613 21.6915 6.42199C21.4628 6.3738 21.1764 6.25387 20.8862 6.08006C20.5958 5.90614 20.3505 5.71016 20.1957 5.53112C20.1181 5.44143 20.0654 5.3584 20.04 5.28661C20.0146 5.21517 20.0179 5.16059 20.0424 5.11966C20.0675 5.07763 20.1188 5.04367 20.2003 5.02461C20.2813 5.00568 20.3862 5.00307 20.5077 5.01864C20.7505 5.04973 21.0504 5.15211 21.3386 5.3247C21.627 5.49741 21.8568 5.70976 21.9967 5.90524C22.0668 6.0031 22.1129 6.0948 22.1337 6.17358C22.1546 6.25268 22.1486 6.31317 22.1233 6.35549Z" fill="#E5E5E3" stroke="black" stroke-width="0.1"/>
<path d="M7.45354 15.7189L1 2.99822C1.25628 1.46055 3.53948 0.621826 4.77427 1.11108L11.3443 13.7153C10.9948 14.8802 8.82812 16.0917 7.45354 15.7189Z" fill="#020202" stroke="black" stroke-width="0.1"/>
<path d="M11.2923 13.6954C11.2601 13.8819 11.1316 14.1443 10.8794 14.4309C10.6203 14.7251 10.2333 15.0418 9.69473 15.3237C8.64321 15.874 7.82849 15.7873 7.44387 15.7024C7.41729 15.6339 7.42541 15.5437 7.47606 15.4315C7.53154 15.3086 7.63462 15.1676 7.77968 15.0176C8.06941 14.718 8.51846 14.3905 9.05847 14.1079C9.59847 13.8253 10.1235 13.643 10.5348 13.5757C10.7408 13.542 10.9153 13.5377 11.0479 13.5621C11.1725 13.5851 11.2523 13.6318 11.2923 13.6954Z" stroke="black" stroke-width="0.1"/>
<path d="M10.7938 13.9381C10.8199 13.9876 10.8189 14.057 10.7794 14.1483C10.7402 14.2391 10.666 14.3439 10.5601 14.4558C10.3486 14.6794 10.0187 14.9235 9.62019 15.1333C9.22168 15.3432 8.83374 15.477 8.52974 15.5249C8.37748 15.5489 8.24912 15.5508 8.15208 15.5318C8.05448 15.5126 7.99669 15.4742 7.97058 15.4246C7.94448 15.375 7.94549 15.3056 7.98494 15.2143C8.02416 15.1236 8.09838 15.0188 8.2043 14.9068C8.41578 14.6833 8.74567 14.4392 9.14417 14.2293C9.54267 14.0195 9.93061 13.8856 10.2346 13.8378C10.3869 13.8138 10.5152 13.8119 10.6123 13.8309C10.7099 13.85 10.7677 13.8885 10.7938 13.9381Z" fill="#C4BEBE" stroke="black" stroke-width="0.1"/>
<path d="M15.7009 9.3343L18.6831 4.37183C18.4967 5.90949 22.8068 8.0762 23.4825 7.19088L20.3372 12.3397C18.0714 12.0757 16.9451 11.6399 15.7009 9.3343Z" fill="#BD9265" stroke="black" stroke-width="0.1"/>
<path d="M11.5773 21.3328L12.1597 21.6589" stroke="white" stroke-width="0.1"/>
<path d="M20.3838 7.26074L20.0576 7.88979" stroke="black" stroke-width="0.1"/>
<path d="M19.9413 7.40039L20.5004 7.74986" stroke="black" stroke-width="0.1"/>
<path d="M3.02692 6.95776L1 3.00292C1.27958 1.40702 3.6385 0.620725 4.76845 1.11581L6.8012 4.97743C5.06074 5.20979 4.19804 5.64189 3.02692 6.95776Z" fill="#BD9265" stroke="black" stroke-width="0.1"/>
<path d="M13.3321 18.4374C13.4098 18.4851 13.4738 18.5381 13.5243 18.5965C13.5742 18.6546 13.6125 18.7167 13.6392 18.7827C13.6657 18.8479 13.6813 18.9158 13.686 18.9867C13.6907 19.0575 13.6864 19.1293 13.673 19.2021C13.6592 19.2745 13.6373 19.3475 13.6076 19.4209C13.5776 19.4934 13.5412 19.5646 13.4983 19.6345C13.4823 19.6606 13.4661 19.6858 13.4497 19.7101C13.4327 19.7341 13.4149 19.7582 13.3961 19.7826L12.2932 19.0742C12.3112 19.0012 12.336 18.9302 12.3678 18.861C12.3993 18.791 12.4346 18.7241 12.4737 18.6602C12.5224 18.5809 12.5791 18.5152 12.6438 18.4632C12.7085 18.4113 12.7781 18.3749 12.8527 18.3542C12.9272 18.3335 13.0052 18.3297 13.0864 18.3429C13.168 18.3555 13.2499 18.387 13.3321 18.4374ZM13.176 18.8114C13.1464 18.7925 13.1155 18.7781 13.0833 18.7683C13.0515 18.7579 13.0201 18.7543 12.9891 18.7575C12.958 18.7598 12.9285 18.7692 12.9008 18.7858C12.8725 18.802 12.8474 18.8268 12.8255 18.8599L13.3212 19.2098C13.3367 19.1734 13.3444 19.1365 13.3444 19.0991C13.3439 19.0614 13.3374 19.0253 13.3249 18.9909C13.3121 18.9556 13.294 18.9235 13.2705 18.8946C13.2468 18.8647 13.2192 18.8394 13.1877 18.8186L13.176 18.8114ZM13.709 17.2286C13.7501 17.2538 13.7942 17.2835 13.8412 17.3177C13.8882 17.3518 13.9353 17.3895 13.9826 17.4307C14.0299 17.472 14.0763 17.5165 14.1218 17.5642C14.1672 17.6111 14.2083 17.6604 14.2453 17.7122C14.2824 17.7639 14.3141 17.8173 14.3406 17.8725C14.3669 17.9268 14.3852 17.9823 14.3954 18.039C14.4055 18.0948 14.4059 18.1508 14.3967 18.207C14.388 18.2636 14.3668 18.3193 14.3331 18.3742C14.2936 18.4386 14.2487 18.4882 14.1983 18.523C14.1488 18.5576 14.0963 18.5811 14.0405 18.5935C13.9842 18.6056 13.9262 18.6081 13.8663 18.6012C13.8058 18.5939 13.7458 18.5804 13.6861 18.5606C13.6259 18.5405 13.5671 18.5162 13.5096 18.4879C13.4519 18.4586 13.3979 18.4285 13.3474 18.3975C13.2697 18.3499 13.1946 18.2985 13.1222 18.2434C13.0493 18.188 12.9787 18.1294 12.9104 18.0677L13.1643 17.6873C13.2422 17.7557 13.3219 17.8225 13.4034 17.8877C13.4846 17.9521 13.5696 18.0114 13.6584 18.0659C13.6678 18.0717 13.6822 18.0801 13.7014 18.0911C13.7204 18.1012 13.7422 18.1123 13.7669 18.1244C13.791 18.1361 13.8164 18.1475 13.8432 18.1586C13.8698 18.1688 13.8953 18.1764 13.9197 18.1815C13.9441 18.1865 13.9658 18.188 13.9847 18.1858C14.0039 18.1831 14.0178 18.1748 14.0263 18.1609C14.0362 18.1448 14.0375 18.1258 14.0304 18.1038C14.0226 18.0815 14.0089 18.0578 13.9892 18.0328C13.9698 18.0071 13.9456 17.9805 13.9168 17.9528C13.8879 17.9252 13.8569 17.8978 13.8239 17.8707C13.7909 17.8436 13.7572 17.8176 13.7228 17.7927C13.6888 17.7672 13.6568 17.7441 13.6267 17.7234C13.597 17.7021 13.5704 17.6839 13.5468 17.6687C13.5233 17.6535 13.5057 17.6424 13.4941 17.6352C13.4508 17.6087 13.4073 17.5831 13.3635 17.5586C13.3195 17.5331 13.2753 17.5087 13.2309 17.4853L13.4698 17.0957C13.5505 17.136 13.6302 17.1803 13.709 17.2286ZM14.4714 16.2619C14.5147 16.2884 14.5517 16.3165 14.5825 16.346C14.613 16.3747 14.6381 16.4061 14.6576 16.4402C14.6772 16.4744 14.6916 16.5118 14.7009 16.5527C14.7102 16.5935 14.7152 16.639 14.7158 16.689L15.1903 16.7073L15.0338 17.1269L14.6006 17.0376L14.5406 17.1429L14.8777 17.3702L14.6582 17.7282C14.5334 17.6478 14.4089 17.5681 14.2849 17.4889C14.1611 17.4092 14.037 17.3289 13.9125 17.248C13.8494 17.2078 13.7868 17.1678 13.7248 17.1283C13.6627 17.0887 13.6008 17.0477 13.539 17.0052C13.5484 16.9575 13.56 16.9119 13.5737 16.8684C13.5874 16.8249 13.6033 16.7827 13.6215 16.7419C13.6394 16.7002 13.6594 16.6594 13.6816 16.6195C13.7036 16.5788 13.7271 16.5379 13.7523 16.4968C13.7911 16.4335 13.8374 16.3779 13.8913 16.33C13.9449 16.2811 14.0031 16.2447 14.066 16.2206C14.1289 16.1966 14.1947 16.1869 14.2636 16.1917C14.3328 16.196 14.402 16.2193 14.4714 16.2619ZM14.2693 16.6512C14.246 16.6369 14.2226 16.6271 14.1991 16.6219C14.176 16.6161 14.1535 16.6153 14.1318 16.6195C14.1099 16.6229 14.0893 16.6316 14.0699 16.6457C14.0504 16.6589 14.0329 16.678 14.0176 16.703C14.0108 16.7141 14.005 16.7254 14.0002 16.737C13.9948 16.7482 13.9905 16.7597 13.9871 16.7714L14.2887 16.9746L14.3009 16.9546C14.3155 16.9308 14.3273 16.9048 14.3362 16.8766C14.3454 16.8479 14.3496 16.8199 14.3487 16.7926C14.3482 16.7648 14.3417 16.7387 14.3292 16.7142C14.317 16.6892 14.2971 16.6682 14.2693 16.6512ZM15.8818 15.6021L15.6819 16.0477L15.4631 15.9822L15.3467 16.172L15.5094 16.329L15.2074 16.7281L14.3017 15.7168L14.5622 15.2396L15.8818 15.6021ZM15.19 15.856L14.8615 15.7416L15.1134 15.9809L15.19 15.856ZM15.2863 14.1074L15.609 14.3694C15.5947 14.3828 15.5818 14.397 15.5703 14.4121C15.5587 14.4272 15.548 14.4427 15.5382 14.4588C15.513 14.4999 15.4945 14.5424 15.4828 14.5864C15.4706 14.6301 15.4667 14.6731 15.4712 14.7156C15.476 14.7575 15.4898 14.7973 15.5126 14.8349C15.5357 14.872 15.5697 14.9043 15.6147 14.9319C15.6435 14.9496 15.6712 14.9605 15.6978 14.9645C15.7246 14.968 15.7501 14.9657 15.7742 14.9575C15.7983 14.9494 15.8206 14.936 15.8412 14.9173C15.8619 14.8987 15.8805 14.8757 15.8972 14.8485C15.9098 14.828 15.9207 14.8053 15.9298 14.7803C15.939 14.7554 15.9466 14.7299 15.9527 14.7039C15.9587 14.6778 15.9633 14.6516 15.9665 14.6253C15.9697 14.599 15.9715 14.5741 15.9721 14.5508L16.3429 14.824C16.3408 14.8525 16.3363 14.8822 16.3295 14.9132C16.3225 14.9433 16.3142 14.9737 16.3045 15.0044C16.2943 15.0348 16.2827 15.0643 16.2696 15.093C16.2566 15.1217 16.2427 15.1482 16.2277 15.1726C16.1845 15.2431 16.1311 15.3009 16.0676 15.3459C16.004 15.391 15.9357 15.422 15.8627 15.4391C15.7896 15.4561 15.7142 15.4588 15.6366 15.4471C15.5588 15.4345 15.4841 15.4063 15.4125 15.3624C15.3176 15.3042 15.2366 15.2358 15.1695 15.1572C15.1018 15.0783 15.0525 14.9931 15.0215 14.9015C14.9906 14.81 14.9806 14.7142 14.9917 14.614C15.003 14.5133 15.0398 14.4121 15.1021 14.3106C15.1256 14.2723 15.1527 14.235 15.1833 14.1988C15.2142 14.162 15.2486 14.1316 15.2863 14.1074ZM15.772 13.2482C15.8221 13.2835 15.8718 13.3182 15.9212 13.3523C15.9706 13.3864 16.02 13.4216 16.0694 13.458L15.8713 13.8223L15.9711 13.8949L16.1232 13.6468L16.37 13.8234L16.2252 14.0783L16.3416 14.1611L16.4682 13.9547L16.5581 13.8081C16.6171 13.8489 16.6757 13.8898 16.7338 13.9308C16.7917 13.9708 16.85 14.0108 16.9088 14.0507L16.4854 14.7785L15.3013 14.0157L15.772 13.2482ZM16.9645 12.9324L17.3127 13.1941L16.9378 13.9287C16.7461 13.8066 16.5558 13.6849 16.3667 13.5636C16.1779 13.4417 15.9886 13.3184 15.7986 13.1935L16.0641 12.7606C16.1778 12.8479 16.2919 12.9346 16.4063 13.0208C16.5201 13.1067 16.6371 13.1899 16.7573 13.2704C16.7744 13.245 16.7907 13.2195 16.8064 13.194C16.8221 13.1685 16.8379 13.1427 16.8539 13.1166C16.8729 13.0855 16.8914 13.0548 16.9092 13.0245C16.927 12.9942 16.9455 12.9635 16.9645 12.9324ZM17.4373 12.1615L17.7854 12.4232L17.4105 13.1578C17.2189 13.0357 17.0285 12.914 16.8394 12.7927C16.6507 12.6708 16.4613 12.5475 16.2714 12.4226L16.5368 11.9897C16.6506 12.077 16.7646 12.1637 16.879 12.2499C16.9928 12.3358 17.1098 12.419 17.23 12.4995C17.2471 12.4741 17.2635 12.4487 17.2791 12.4231C17.2948 12.3976 17.3106 12.3718 17.3266 12.3457C17.3457 12.3146 17.3641 12.2839 17.3819 12.2536C17.3998 12.2233 17.4182 12.1926 17.4373 12.1615Z" fill="white"/>
<path d="M5.41488 6.91472C5.33437 6.95745 5.25613 6.9857 5.18016 6.99948C5.10476 7.01296 5.03184 7.01444 4.9614 7.00391C4.89184 6.99366 4.82536 6.97255 4.76197 6.94059C4.69858 6.90864 4.63892 6.86844 4.58299 6.81999C4.52764 6.77124 4.4759 6.71541 4.42778 6.6525C4.38053 6.58987 4.33769 6.52232 4.29923 6.44986C4.28489 6.42283 4.27143 6.39607 4.25884 6.36958C4.24684 6.34279 4.2351 6.31511 4.22363 6.28656L5.39409 5.69638C5.44779 5.74896 5.49636 5.80647 5.53981 5.86891C5.58415 5.93161 5.62386 5.99604 5.65896 6.06217C5.7026 6.14441 5.73036 6.22659 5.74226 6.30872C5.75415 6.39086 5.75008 6.4693 5.73005 6.54405C5.71002 6.6188 5.67368 6.68783 5.62105 6.75114C5.56872 6.81503 5.5 6.86955 5.41488 6.91472ZM5.17199 6.59034C5.20335 6.57444 5.23142 6.55512 5.25621 6.53238C5.2813 6.51022 5.30035 6.48501 5.31335 6.45673C5.32724 6.42873 5.33408 6.39856 5.33388 6.36624C5.33425 6.33361 5.3257 6.29945 5.30824 6.26376L4.7551 6.51307C4.77859 6.54483 4.80643 6.57022 4.83864 6.58925C4.87142 6.60797 4.9058 6.62068 4.94179 6.62738C4.97865 6.63435 5.01551 6.63505 5.05237 6.6295C5.0901 6.62422 5.12595 6.6133 5.15991 6.59675L5.17199 6.59034ZM6.26461 7.85347C6.22206 7.87605 6.17412 7.89891 6.1208 7.92205C6.06748 7.94518 6.01107 7.96665 5.95155 7.98644C5.89203 8.00623 5.83013 8.0236 5.76584 8.03856C5.70242 8.05378 5.63904 8.0642 5.57569 8.06981C5.51233 8.07543 5.45016 8.07562 5.38916 8.0704C5.32905 8.06545 5.27195 8.053 5.21788 8.03305C5.16469 8.01337 5.11624 7.98528 5.07255 7.94877C5.02827 7.91256 4.99103 7.86599 4.96082 7.80906C4.92542 7.74235 4.90552 7.67847 4.90113 7.61741C4.89647 7.55724 4.90294 7.5 4.92056 7.44569C4.93875 7.39108 4.96605 7.33974 5.00245 7.29168C5.03943 7.24331 5.08159 7.19846 5.12894 7.15712C5.17686 7.11548 5.22762 7.07711 5.28123 7.04203C5.33572 7.00722 5.38914 6.97592 5.44147 6.94815C5.52198 6.90543 5.60434 6.86688 5.68855 6.83251C5.77333 6.79784 5.85966 6.76677 5.94753 6.7393L6.14624 7.15125C6.04771 7.18363 5.94968 7.21834 5.85214 7.25536C5.75548 7.29265 5.66114 7.33571 5.56912 7.38454C5.55935 7.38973 5.54484 7.3978 5.52559 7.40875C5.50722 7.41997 5.48657 7.43314 5.46364 7.44826C5.44128 7.46307 5.41852 7.4792 5.39535 7.49666C5.37306 7.51438 5.35355 7.53247 5.33682 7.55093C5.32008 7.5694 5.30785 7.58731 5.30011 7.60468C5.29268 7.62263 5.29278 7.63879 5.30041 7.65317C5.30926 7.66985 5.32496 7.68068 5.34751 7.68566C5.37063 7.69035 5.39801 7.69056 5.42965 7.6863C5.4616 7.68261 5.49681 7.67535 5.53528 7.66451C5.57375 7.65368 5.61305 7.64093 5.65318 7.62627C5.69331 7.61161 5.73283 7.5958 5.77173 7.57884C5.81094 7.56245 5.84711 7.54657 5.88023 7.53121C5.91365 7.51642 5.94288 7.50275 5.96792 7.4902C5.99295 7.47766 6.01151 7.46818 6.02358 7.46177C6.06844 7.43797 6.11255 7.41345 6.15592 7.38823C6.20016 7.36327 6.24366 7.33761 6.28642 7.31123L6.50066 7.71494C6.42496 7.76396 6.34628 7.81013 6.26461 7.85347ZM6.71007 9.00123C6.66521 9.02503 6.62225 9.04267 6.58117 9.05415C6.54097 9.0659 6.50121 9.07153 6.46188 9.07102C6.42255 9.07052 6.38293 9.06391 6.34301 9.05119C6.30309 9.03847 6.26143 9.01967 6.21801 8.99481L5.96121 9.3942L5.6793 9.04631L5.97628 8.71845L5.91607 8.61332L5.54898 8.78822L5.35214 8.41729C5.48478 8.35059 5.6167 8.2839 5.74789 8.21723C5.87938 8.15114 6.0116 8.08502 6.14455 8.01889C6.2113 7.98495 6.27747 7.95131 6.34306 7.91797C6.40866 7.88464 6.47544 7.85215 6.54341 7.8205C6.57972 7.85282 6.61314 7.88594 6.64367 7.91986C6.6742 7.95378 6.70243 7.98892 6.72835 8.02527C6.75516 8.0619 6.78011 8.09989 6.8032 8.13923C6.82717 8.17884 6.85044 8.21992 6.87303 8.26248C6.90782 8.32804 6.93218 8.39618 6.94613 8.4669C6.96096 8.5379 6.96277 8.60659 6.95156 8.67297C6.94036 8.73935 6.9152 8.80098 6.8761 8.85784C6.8373 8.91529 6.78196 8.96308 6.71007 9.00123ZM6.47739 8.62942C6.50154 8.6166 6.52185 8.6014 6.53832 8.58382C6.55509 8.56681 6.56715 8.54788 6.57451 8.52702C6.58275 8.50644 6.5857 8.48423 6.58338 8.46041C6.58193 8.43685 6.57435 8.41213 6.56061 8.38626C6.55451 8.37475 6.5477 8.364 6.54017 8.35399C6.53322 8.34367 6.52556 8.3341 6.5172 8.32527L6.18898 8.48176L6.19996 8.50246C6.21308 8.52719 6.22952 8.55053 6.24928 8.57248C6.26934 8.595 6.29132 8.61281 6.31523 8.62592C6.33944 8.63961 6.36526 8.64728 6.39267 8.64895C6.42039 8.65119 6.44863 8.64468 6.47739 8.62942ZM6.56198 10.5513L6.27972 10.1527L6.4472 9.99752L6.34283 9.80085L6.12499 9.86117L5.93466 9.39834L7.26587 9.13192L7.54454 9.59872L6.56198 10.5513ZM6.69469 9.82639L6.96009 9.60153L6.62602 9.697L6.69469 9.82639ZM8.152 10.7976L7.76234 10.9425C7.75809 10.9233 7.7524 10.905 7.74528 10.8874C7.73815 10.8698 7.73016 10.8527 7.72131 10.836C7.69873 10.7934 7.67147 10.7559 7.63952 10.7235C7.60814 10.6908 7.57302 10.6656 7.53415 10.6479C7.49558 10.6308 7.45431 10.6224 7.41035 10.6229C7.36669 10.624 7.32157 10.6369 7.27498 10.6616C7.24508 10.6775 7.22164 10.6958 7.20467 10.7166C7.18801 10.738 7.17706 10.7611 7.17184 10.786C7.16662 10.8108 7.16682 10.8369 7.17243 10.8642C7.17804 10.8914 7.18832 10.9191 7.20327 10.9473C7.21457 10.9686 7.22862 10.9895 7.24542 11.01C7.26223 11.0306 7.28032 11.0501 7.2997 11.0686C7.31908 11.087 7.3393 11.1043 7.36037 11.1204C7.38144 11.1365 7.40188 11.1507 7.42169 11.163L6.99795 11.3437C6.97454 11.3274 6.95122 11.3084 6.92798 11.2868C6.90562 11.2655 6.88367 11.2429 6.86212 11.219C6.84114 11.1947 6.82161 11.1697 6.80351 11.1439C6.78541 11.1182 6.76965 11.0926 6.75622 11.0673C6.71746 10.9943 6.69481 10.919 6.68827 10.8414C6.68173 10.7638 6.68968 10.6892 6.71212 10.6176C6.73455 10.546 6.77052 10.4797 6.82001 10.4188C6.87038 10.3582 6.93266 10.3082 7.00684 10.2688C7.10518 10.2166 7.20525 10.1816 7.30704 10.1637C7.40941 10.1455 7.50786 10.1463 7.60242 10.1661C7.69697 10.186 7.78458 10.2261 7.86526 10.2864C7.94625 10.3474 8.01467 10.4305 8.07051 10.5357C8.09157 10.5754 8.10992 10.6176 8.12557 10.6624C8.14152 10.7077 8.15033 10.7528 8.152 10.7976ZM8.6454 11.6524C8.58951 11.6776 8.53435 11.7028 8.47992 11.728C8.42549 11.7532 8.37002 11.7779 8.31352 11.802L8.10045 11.4463L7.98718 11.4953L8.12359 11.7524L7.84611 11.8753L7.70015 11.6211L7.56963 11.6793L7.68316 11.8932L7.76373 12.0451C7.69864 12.0752 7.63368 12.1049 7.56886 12.1341C7.50492 12.1636 7.44085 12.1936 7.37664 12.224L6.96479 11.4895L8.22334 10.857L8.6454 11.6524ZM8.31159 12.84L7.90936 13.007L7.46699 12.3109C7.66952 12.2078 7.87106 12.1057 8.0716 12.0044C8.27245 11.9037 8.4749 11.8033 8.67896 11.7031L8.917 12.1517C8.78404 12.2053 8.65138 12.2595 8.51903 12.3142C8.38725 12.3687 8.25616 12.4272 8.12574 12.4898C8.13893 12.5174 8.15255 12.5444 8.16659 12.5709C8.18063 12.5973 8.19482 12.6241 8.20916 12.6511C8.22625 12.6833 8.24332 12.7148 8.26038 12.7455C8.27743 12.7763 8.2945 12.8078 8.31159 12.84ZM8.73549 13.6388L8.33326 13.8058L7.89088 13.1097C8.09342 13.0066 8.29495 12.9045 8.49549 12.8032C8.69634 12.7025 8.89879 12.6021 9.10285 12.5019L9.34089 12.9505C9.20793 13.0041 9.07527 13.0582 8.94292 13.113C8.81115 13.1675 8.68005 13.226 8.54963 13.2885C8.56283 13.3162 8.57644 13.3432 8.59048 13.3697C8.60452 13.3961 8.61871 13.4229 8.63305 13.4499C8.65014 13.4821 8.66722 13.5136 8.68427 13.5443C8.70133 13.5751 8.7184 13.6066 8.73549 13.6388Z" fill="white"/>
</svg>
