<svg width="10" height="10" viewBox="0 0 10 10" fill="none" xmlns="http://www.w3.org/2000/svg">
<path d="M7.22656 0.306459V0.517804L7.58471 1.36319L8.24983 2.47275L9.01729 3.31814H9.73357L9.8359 3.05395L9.73357 2.89544L9.58008 2.6841L9.32427 2.47275L9.11961 2.1029L8.91496 1.99723V1.78588V1.57453L8.81263 1.68021L8.55681 1.57453L8.40332 1.5217L8.55681 1.41602L8.81263 1.36319V1.09901L8.65914 0.88766H8.35216L8.24983 0.676314L8.14751 0.412131L7.89169 0.147949H7.48238L7.22656 0.306459Z" fill="#2C100C" stroke="black" stroke-width="0.1"/>
<path d="M4.61709 4.00498L1.03564 7.17517C2.00693 7.81846 2.3924 8.33509 2.82637 9.49997L7.17527 5.74858L8.8125 4.00498C8.2533 3.10374 7.7344 2.59551 6.40781 1.68018L4.61709 4.00498Z" fill="#CA9257" stroke="black" stroke-width="0.1"/>
<path d="M7.22645 0.517986L6.40784 1.68039C7.67858 2.53256 8.19353 3.04368 8.81252 4.00519L9.73347 3.31832L9.63114 3.21265L9.42648 3.10697L9.27299 3.0013L9.01718 2.73712L8.76136 2.47293L8.81252 2.26159L8.76136 2.10308L8.40321 1.99741L8.24972 1.68039L8.1474 1.36337H8.30089L8.60787 1.2577L8.50554 1.09919L8.24972 0.940678L7.99391 0.570823L7.73809 0.306641L7.53343 0.412314L7.22645 0.517986Z" fill="white" stroke="black" stroke-width="0.1"/>
<path d="M4.82161 4.16358L4.5658 4.05791L4.9751 3.52954V3.95223L5.17976 4.05791L5.5379 4.4806L5.12859 4.32209L4.82161 4.16358Z" fill="#5D2300" stroke="black" stroke-width="0.1"/>
<path d="M5.74255 4.375C6.0651 4.75202 6.18741 4.84267 6.35652 4.90336" stroke="black" stroke-width="0.1"/>
<ellipse cx="6.61263" cy="2.63117" rx="0.255818" ry="0.158509" fill="#F5C26F"/>
<ellipse cx="5.48699" cy="3.5823" rx="0.153491" ry="0.264182" fill="#F5C26F"/>
<ellipse cx="6.25446" cy="3.68805" rx="0.204654" ry="0.158509" fill="#F5C26F"/>
<ellipse cx="6.61235" cy="3.15973" rx="0.153491" ry="0.158509" fill="#F5C26F"/>
<ellipse cx="6.8171" cy="4.8504" rx="0.255818" ry="0.158509" fill="#F5C26F"/>
<ellipse cx="8.04497" cy="4.21637" rx="0.153491" ry="0.158509" fill="#F5C26F"/>
<ellipse cx="2.82622" cy="6.48796" rx="0.153491" ry="0.211346" fill="#F5C26F"/>
<ellipse cx="3.59381" cy="5.96012" rx="0.204654" ry="0.211346" fill="#F5C26F"/>
<ellipse cx="4.10553" cy="5.16754" rx="0.204654" ry="0.158509" fill="#F5C26F"/>
<ellipse cx="1.70085" cy="6.96397" rx="0.153491" ry="0.0528364" fill="#F5C26F"/>
<ellipse cx="2.9798" cy="7.75655" rx="0.204654" ry="0.105673" fill="#F5C26F"/>
<ellipse cx="3.95195" cy="7.86226" rx="0.153491" ry="0.105673" fill="#F5C26F"/>
<ellipse cx="3.13332" cy="8.86603" rx="0.0511635" ry="0.158509" fill="#F5C26F"/>
<ellipse rx="0.102706" ry="0.315913" transform="matrix(0.939013 -0.343881 0.324776 0.945791 5.64033 6.27714)" fill="#F5C26F"/>
<path d="M2.11022 8.12625C1.609 7.55792 1.29162 7.28086 0.984631 7.22803C0.91598 7.61327 1.64977 8.54894 1.70094 8.60178C1.7521 8.65461 2.26374 9.34149 2.77537 9.49999C2.72421 9.13014 2.44788 8.61046 2.11022 8.12625Z" fill="#C2B895" stroke="black" stroke-width="0.1"/>
</svg>
