<svg width="45" height="42" viewBox="0 0 45 42" fill="none" xmlns="http://www.w3.org/2000/svg">
<path d="M10.6054 41.7134C7.31713 40.39 1.14161 33.4125 0.5 31.0466C3.71265 28.5103 5.17388 27.3987 5.6329 26.0741C5.28853 23.4542 5.63588 21.6126 8.52015 16.7707C13.0114 8.63027 11.3272 3.93848 15.7383 4.82067C19.3474 5.94352 16.5002 13.5627 13.653 17.1717C15.8424 15.7085 17.1582 14.4968 19.8286 10.916C24.1995 4.66032 25.0818 -1.39491 28.8913 0.730395C31.9317 2.40484 28.8087 6.73188 24.1594 13.8032C30.2949 8.18913 33.543 0.970999 36.5907 3.37704C39.0769 5.86329 36.1496 9.99367 28.1695 17.4925C35.7887 11.5977 39.1571 7.66782 41.884 9.95357C44.2873 13.2497 38.9264 16.6427 31.0568 22.3046C39.5687 19.2008 43.7024 17.9522 44.29 20.9412C44.6454 23.2087 40.5021 24.5229 32.1796 26.8761C30.7929 27.4927 29.2084 28.7134 26.1645 31.1268C21.7511 35.7612 19.4915 36.1189 15.5779 35.5378C14.6965 37.2373 13.3093 38.79 10.6054 41.7134Z" fill="#C5CB98" stroke="black" stroke-width="0.1"/>
<path d="M5.4325 36.0596C7.68906 34.7364 8.84685 33.7017 10.806 31.5684" stroke="black" stroke-width="0.1"/>
<path d="M9.12183 39.2672C11.0902 37.7014 11.6552 36.6593 14.0542 34.8962" stroke="black" stroke-width="0.1"/>
<path d="M4.75085 35.377C7.00742 34.0538 8.16521 33.0191 10.1244 30.8857" stroke="black" stroke-width="0.1"/>
<path d="M1.10144 31.2474C3.35801 29.9242 4.7163 29.1702 6.67544 27.0369" stroke="black" stroke-width="0.1"/>
<path d="M8.19946 38.7059C10.3536 37.0003 11.4575 35.7648 13.573 34.2146" stroke="black" stroke-width="0.1"/>
<path d="M7.51782 38.1846C9.36363 36.8316 9.78806 35.7439 12.8913 33.6934" stroke="black" stroke-width="0.1"/>
<path d="M6.71558 37.5433C8.98398 35.8153 10.1478 34.5743 12.0891 33.052" stroke="black" stroke-width="0.1"/>
<path d="M6.03418 36.7811C8.29075 35.4579 9.44854 34.4232 11.4077 32.2898" stroke="black" stroke-width="0.1"/>
<path d="M10.1559 40.6805C11.6524 38.4202 12.7942 37.3869 14.9849 35.6083" stroke="black" stroke-width="0.1"/>
<path d="M4.22925 34.7357C6.48581 33.4125 7.64361 32.3778 9.60275 30.2444" stroke="black" stroke-width="0.1"/>
<path d="M3.78845 33.9342C6.04502 32.6109 7.20281 31.5763 9.16195 29.4429" stroke="black" stroke-width="0.1"/>
<path d="M3.22693 33.493C5.48349 32.1698 6.64129 31.1351 8.60043 29.0017" stroke="black" stroke-width="0.1"/>
<path d="M2.54553 32.6507C4.8021 31.3275 5.95989 30.2928 7.91903 28.1594" stroke="black" stroke-width="0.1"/>
<path d="M1.90356 31.8487C4.16013 30.5255 5.31792 29.4908 7.27706 27.3574" stroke="black" stroke-width="0.1"/>
<path d="M5.56641 26.0596C10.3081 29.1774 12.7114 35.0233 15.5694 35.478" stroke="black" stroke-width="0.1"/>
</svg>
