<svg width="19" height="15" viewBox="0 0 19 15" fill="none" xmlns="http://www.w3.org/2000/svg">
<path d="M16.0066 1L15.405 1.20709L15.1877 1.37966L17.3936 7.48879L18.5299 6.93656L18.5801 6.38432L18.2626 6.14271L18.4464 5.72854L18.0453 5.48693L18.179 4.98647L17.7445 4.76212L17.9116 4.33068L17.4939 4.00279L17.6276 3.58861L17.2432 3.29524L17.3769 2.96735L16.9758 2.63946L17.0761 2.20802L16.7753 1.96642L16.8923 1.53498L16.6082 1.31063L16.675 1.20709L16.0066 1Z" fill="#7CA1FF" stroke="black" stroke-width="0.1"/>
<path d="M5.34501 13.8222L17.5441 7.40248L15.2045 1.37964L12.5642 2.38057L10.2915 4.26163L7.41717 4.93467L4.94394 6.12543L2.80493 7.60957L5.34501 13.8222Z" fill="#F2F3F8" stroke="black" stroke-width="0.1"/>
<path d="M1.88578 8.09292L2.8383 7.5752L5.4118 13.7879L4.69323 14.1848L3.95794 13.9777L4.10834 13.3392L3.57359 13.0285L3.67385 12.5453L3.18924 12.4418L3.42319 11.7688L2.92186 11.6307L3.05555 10.9577L2.50408 10.7851L2.6879 10.2328L2.35368 10.043V9.59432L2.05289 9.36997V8.78322L1.7688 8.6279L1.88578 8.09292Z" fill="#7CA1FF" stroke="black" stroke-width="0.1"/>
<path d="M13.951 2.01832L15.1876 1.41431L17.6776 7.36812L15.9062 8.78323L7.96848 13.0976L4.57614 14.2193L4.17508 14.3401L3.64033 14.2193L3.84086 13.7189L3.27268 13.5463L3.52335 13.0976L3.07215 13.0113L3.27268 12.7007L2.92175 12.4245L3.27268 12.0276L2.92175 11.8033L3.27268 11.4581L2.92175 11.1993L3.17242 10.8196L2.92175 10.5607L3.17242 10.1811L2.92175 9.92222L3.27268 9.78416L4.17508 10.2674L6.98253 9.78416L8.40297 8.78323L10.5921 5.41803L12.3133 3.34714L13.951 2.01832Z" fill="#2A4498" stroke="black" stroke-width="0.1"/>
<path d="M9.05481 7.76493L9.23863 7.47155L9.82352 8.7486C9.99063 9.05923 10.3185 9.08281 10.7092 8.90392C10.9933 8.7486 11.127 8.507 11.0267 8.21362L10.1076 6.17724L10.2914 5.90112L11.3108 8.11007C11.4445 8.45522 11.3108 8.9902 10.7593 9.19729C10.3081 9.40438 9.82352 9.35261 9.57285 8.88666L9.05481 7.76493Z" fill="#E11EAB" stroke="black" stroke-width="0.1"/>
<path d="M14.0848 3.6748L15.522 6.7984L15.2713 6.93646L14.3021 4.83105L14.536 7.29887L14.4023 7.35064L12.6811 5.59038L13.667 7.71304L13.3997 7.86836L11.9458 4.71025L12.0628 4.64122L14.2185 6.7984L13.9511 3.74383L14.0848 3.6748Z" fill="#E11EAB" stroke="black" stroke-width="0.1"/>
<path d="M3.27268 9.78394L4.17508 10.2671L4.86023 14.081L4.57614 14.2191L4.17508 14.3399L3.64033 14.2191L3.84086 13.7186L3.27268 13.5461L3.52335 13.0974L3.07215 13.0111L3.27268 12.7004L2.92175 12.4243L3.27268 12.0274L2.92175 11.8031L3.27268 11.4579L2.92175 11.199L3.17242 10.8194L2.92175 10.5605L3.17242 10.1809L2.92175 9.922L3.27268 9.78394Z" fill="#7CA1FF" stroke="black" stroke-width="0.1"/>
<path d="M7.25009 10.9058C6.84901 11.1474 6.33098 10.9748 6.13045 10.5952L5.84583 9.9739L6.14444 9.92213L6.33098 10.3363C6.53403 10.7575 6.79887 10.8195 7.18324 10.6297C7.55087 10.4481 7.68175 10.2133 7.51746 9.80131L7.37542 9.48205L7.62917 9.31812L8.13577 10.4226L8.05221 10.4571L7.78484 10.2845C7.69367 10.6398 7.58429 10.7332 7.25009 10.9058Z" fill="#E11EAB" stroke="black" stroke-width="0.1"/>
<path d="M3.90518 1.457L3.9052 1.45694L3.9028 1.45625C3.88085 1.44999 3.85815 1.44447 3.83669 1.44287C3.815 1.44125 3.79005 1.44326 3.76689 1.45658C3.71949 1.48383 3.70658 1.54119 3.70308 1.60186C3.70261 1.61003 3.69843 1.62166 3.68873 1.63419C3.67916 1.64654 3.66675 1.65641 3.6554 1.66182C3.62476 1.67641 3.60196 1.69966 3.59152 1.72957C3.5813 1.7589 3.58494 1.78894 3.59609 1.81414C3.61806 1.86376 3.67149 1.90151 3.73612 1.90231C4.08793 1.90665 4.28213 1.93546 4.50503 1.98553C4.53198 1.99158 4.5549 1.98304 4.5711 1.97269C4.5862 1.96303 4.59851 1.94993 4.60731 1.94C4.61218 1.9345 4.61582 1.93021 4.61907 1.92637C4.62325 1.92144 4.62679 1.91725 4.63151 1.91222C4.63492 1.90858 4.63767 1.90594 4.63994 1.90406L4.64251 1.9021C4.64288 1.90185 4.64313 1.9017 4.64327 1.90162C4.64336 1.90156 4.64341 1.90154 4.6434 1.90155C4.64977 1.89843 4.66084 1.89239 4.67022 1.88297C4.72199 1.831 4.75336 1.77425 4.73568 1.70751C4.72772 1.67744 4.71075 1.65006 4.68976 1.62446C4.66938 1.5996 4.64323 1.57405 4.61294 1.54706C4.61043 1.51625 4.59722 1.47727 4.57982 1.44608C4.57046 1.42932 4.5582 1.4117 4.54283 1.39787C4.52783 1.38438 4.50446 1.36984 4.47477 1.3718C4.38642 1.37764 4.30175 1.39108 4.19004 1.42815C4.11543 1.45291 4.08784 1.52735 4.08405 1.58503C4.08389 1.58752 4.08366 1.58988 4.08339 1.59212C4.08317 1.59204 4.08294 1.59195 4.08272 1.59187C4.06134 1.58364 4.03143 1.55961 4.01132 1.53131C3.98467 1.49381 3.94879 1.47182 3.90518 1.457Z" fill="#FFD5DB" stroke="black" stroke-width="0.1"/>
<path d="M4.34031 2.74527C4.33181 2.73069 4.32136 2.71646 4.30868 2.70182C4.28561 2.67519 4.25303 2.65614 4.21776 2.65232C4.18062 2.6483 4.14163 2.66179 4.11588 2.69764C4.10011 2.71959 4.0811 2.7385 4.06205 2.74977C4.04352 2.76072 4.02842 2.76267 4.01536 2.7587L3.94767 2.73814C3.89764 2.72295 3.83008 2.71984 3.77744 2.76223C3.7688 2.76918 3.76077 2.77666 3.75338 2.78481C3.70056 2.84302 3.71008 2.9148 3.74131 2.96763C3.77183 3.01924 3.82671 3.06194 3.88689 3.07915C4.00263 3.11226 4.08831 3.11095 4.159 3.07753C4.22724 3.04526 4.27294 2.98637 4.31566 2.9294C4.34791 2.8864 4.37964 2.81274 4.34031 2.74527Z" fill="#FFD5DB" stroke="black" stroke-width="0.1"/>
<path d="M1.58945 4.68862C1.06104 5.17273 0.995966 5.52867 1.00018 6.15801C1.12698 6.75639 1.3122 7.02337 1.81941 7.2712C2.69713 8.25247 3.32147 8.52241 4.6364 8.57733C4.69522 9.304 4.98523 9.43775 5.64247 9.52724C6.13619 9.74856 6.40282 9.63221 7.28811 8.94838C8.77654 9.30619 9.03712 8.66609 9.03436 7.15246C9.20502 6.94569 9.26431 6.82886 9.29307 6.61813C9.76322 6.44958 10.0277 6.41848 10.5003 6.46971C11.4076 6.62578 11.684 6.39103 11.7651 5.40106C11.9576 4.82556 11.9351 4.50572 11.3627 3.94651C11.1496 3.18666 10.7573 3.0245 9.69549 3.08565C9.69106 2.71073 9.52691 2.52084 8.89064 2.22479C8.24472 1.67227 7.88042 1.47854 7.22344 1.51236C6.35836 1.15713 5.89126 1.20749 5.11788 1.34909C4.10971 1.22252 3.64802 1.19565 3.17042 1.86857C2.42769 2.15461 2.1569 2.52497 1.93439 3.5606C1.65469 3.79454 1.59365 4.06216 1.58945 4.68862Z" fill="#FD9AAF" stroke="black" stroke-width="0.1"/>
<path d="M1.79065 5.04443C1.94698 5.45673 2.05907 5.67505 2.30806 6.03887" stroke="black" stroke-width="0.1"/>
<path d="M3.3429 4.9699C3.41031 4.43999 3.47834 4.16074 3.70221 3.72314" stroke="black" stroke-width="0.1"/>
<path d="M3.04111 4.49531C2.89738 4.51757 2.65306 4.10941 2.73929 3.99067C2.82552 3.87193 3.18483 3.90162 3.22795 3.99067C3.27108 4.07972 3.18484 4.47305 3.04111 4.49531Z" fill="#C44D63"/>
<path d="M1.93437 6.39513C1.93437 6.39513 1.7624 6.38829 1.73315 6.48418C1.75095 6.57241 1.79281 6.60296 1.93437 6.61776C1.9571 6.54197 2.00056 6.51808 2.09246 6.48418C2.0628 6.40269 1.93437 6.39513 1.93437 6.39513Z" fill="#C44D63"/>
<path d="M4.72266 2.90715C5.29037 2.72904 4.85919 2.3654 6.13115 2.09082" stroke="black" stroke-width="0.1"/>
<path d="M6.08805 4.52505C5.98745 4.48052 5.48261 3.75946 5.61376 3.81261C5.74492 3.86576 6.81431 4.397 6.7923 4.34694C6.98351 4.46129 7.32408 4.90353 7.1085 4.79221C6.89291 4.68089 6.18866 4.56957 6.08805 4.52505Z" fill="#C44D63"/>
<path d="M3.2135 5.53418C3.75835 6.69191 4.23148 6.94508 5.25438 6.97389" stroke="black" stroke-width="0.1"/>
<path d="M5.48438 6.85515C6.508 6.80482 6.90739 6.5243 7.28093 5.53418" stroke="black" stroke-width="0.1"/>
<path d="M7.13 7.39675C7.47554 7.19197 7.71997 7.15975 8.18638 7.15186" stroke="black" stroke-width="0.1"/>
<path d="M5.03881 8.66612C5.03881 8.66612 4.83759 8.26537 4.92383 8.13179C5.01006 7.99821 5.21128 8.05758 5.21128 8.05758C5.21128 8.05758 5.18253 8.13921 5.11067 8.26537C5.03881 8.39154 5.06687 8.50962 5.03881 8.66612Z" fill="#C44D63"/>
<path d="M4.96704 7.73096C5.05117 7.85335 5.15046 7.94304 5.72878 8.26528" stroke="black" stroke-width="0.1"/>
<path d="M6.73486 8.32454C7.05344 8.21953 7.21498 8.16085 7.39599 8.05737" stroke="black" stroke-width="0.1"/>
<path d="M7.97083 2.69946C8.35125 3.26652 8.57269 3.55093 9.00564 3.90169" stroke="black" stroke-width="0.1"/>
<path d="M7.1803 4.80688C7.36372 4.85553 7.46161 4.85728 7.62584 4.80688" stroke="black" stroke-width="0.1"/>
<path d="M7.61865 4.807C8.17274 4.45421 8.45095 4.56325 8.91217 5.08901" stroke="black" stroke-width="0.1"/>
<path d="M9.29296 5.97933C9.26303 5.77637 9.19703 5.60514 8.90491 5.09621C9.17147 5.08222 9.35445 5.1651 9.72413 5.43016C9.6403 5.83034 9.50803 5.86741 9.29296 5.97933Z" fill="#C44D63"/>
<path d="M10.1411 4.85132C10.4517 4.98609 10.6305 4.99407 10.9603 4.85132" stroke="black" stroke-width="0.1"/>
<path d="M9.32178 6.24667C10.0805 5.79361 10.291 5.69636 10.5291 5.62329" stroke="black" stroke-width="0.1"/>
<path d="M9.37939 6.4989C9.62925 6.46586 9.67165 6.25379 9.82494 6.18721C9.97823 6.12063 10.6413 6.17922 11.0322 6.18721" stroke="black" stroke-width="0.1"/>
<path d="M4.14531 2.37984C4.13905 2.37353 4.13284 2.36704 4.12665 2.36035C4.01022 2.2345 4.06462 2.01667 4.23263 1.98249C4.31047 1.96665 4.38244 1.97325 4.45723 2.00873C4.59765 2.07536 4.5906 2.2587 4.47277 2.36008C4.381 2.43903 4.23053 2.46583 4.14531 2.37984Z" fill="#FFD5DB"/>
<path d="M2.28657 3.3829C2.28657 3.44028 2.11067 3.55264 2.07098 3.55264C2.0313 3.55264 2.07098 3.44028 2.07098 3.3829C2.07099 3.27806 2.24688 3.22705 2.28657 3.22705C2.32626 3.22705 2.28657 3.32552 2.28657 3.3829Z" fill="#FFD5DB"/>
<ellipse rx="0.0655873" ry="0.139113" transform="matrix(0.746422 0.665473 -0.641385 0.767219 2.64747 2.55272)" fill="#FFD5DB"/>
<ellipse cx="3.45066" cy="2.3951" rx="0.0646759" ry="0.155845" fill="#FFD5DB"/>
<path d="M3.0771 4.69553C3.0771 4.92095 2.97898 5.23727 2.72498 5.23727C2.47097 5.23727 2.12134 4.88385 2.12134 4.65842C2.12134 4.433 2.34162 4.39868 2.59563 4.39868C2.84963 4.39868 3.0771 4.47011 3.0771 4.69553Z" fill="#FFD5DB"/>
<ellipse rx="0.359895" ry="0.0592787" transform="matrix(0.973596 0.228276 -0.214726 0.976674 3.33242 3.19547)" fill="#FFD5DB"/>
<ellipse rx="0.216528" ry="0.0517347" transform="matrix(0.927785 0.373115 -0.35284 0.935684 3.70583 3.49638)" fill="#FFD5DB"/>
<path d="M4.05432 4.03483C4.05432 4.24796 4.22369 4.36137 4.10462 4.36137C3.98556 4.36137 3.86029 4.32217 3.86029 4.10905C3.86029 3.89592 3.74123 3.72314 3.86029 3.72314C3.97936 3.72314 4.05432 3.82171 4.05432 4.03483Z" fill="#FFD5DB"/>
<path d="M4.28432 4.47297C4.28432 4.6656 4.46506 4.91082 4.37774 4.91082C4.29043 4.91082 4.18372 4.73982 4.18372 4.54718C4.18372 4.35455 4.19701 4.1687 4.28432 4.1687C4.37164 4.1687 4.28432 4.28034 4.28432 4.47297Z" fill="#FFD5DB"/>
<path d="M4.79453 4.91086C4.79453 5.04202 4.87391 5.14834 4.79453 5.14834C4.71515 5.14834 4.50708 5.04202 4.50708 4.91086C4.50708 4.77971 4.4277 4.65112 4.50708 4.65112C4.58646 4.65112 4.79453 4.77971 4.79453 4.91086Z" fill="#FFD5DB"/>
<path d="M2.02064 5.86073C2.02064 5.95499 2.06484 5.97946 1.97752 5.97946C1.89021 5.97946 1.63977 5.91789 1.63977 5.82362C1.63977 5.72935 1.77631 5.76425 1.97752 5.68262C2.06484 5.68262 2.02064 5.76646 2.02064 5.86073Z" fill="#FFD5DB"/>
<path d="M3.24223 5.6455C3.24223 5.70698 3.16179 5.75682 3.06257 5.75682C2.96335 5.75682 2.87573 5.78119 2.87573 5.71971C2.87573 5.65823 2.96335 5.59355 3.06257 5.59355C3.16179 5.59355 3.24223 5.58402 3.24223 5.6455Z" fill="#FFD5DB"/>
<path d="M8.02829 3.7755C8.02829 3.92305 7.84863 3.64934 7.59711 3.82745C7.42249 3.82745 7.35278 3.5891 7.35278 3.44155C7.35278 3.294 7.58777 3.40444 7.7624 3.40444C7.81989 3.61224 8.02829 3.62795 8.02829 3.7755Z" fill="#FFD5DB"/>
<path d="M7.21625 3.3448C7.21625 3.50465 6.9489 3.00343 6.43295 3.00343C5.91701 3.00343 5.93711 2.79564 5.64966 2.74369C5.64966 2.58384 6.43295 2.82533 6.96473 2.64722C7.28811 2.82532 7.21625 3.18496 7.21625 3.3448Z" fill="#FFD5DB"/>
<path d="M5.38377 3.94596C5.38377 4.1181 5.40415 4.13891 5.34065 4.13891C5.27715 4.13891 5.15381 4.1181 5.15381 3.94596C5.15381 3.77382 5.15498 3.59717 5.21848 3.59717C5.28199 3.59717 5.38377 3.77382 5.38377 3.94596Z" fill="#FFD5DB"/>
<path d="M7.13725 5.15579C7.2163 5.32647 7.19293 5.69011 7.02227 5.69011C6.85161 5.69011 6.60547 5.41388 6.60547 5.27453C6.60547 5.13517 6.74382 5.27453 6.91448 5.27453C7.08514 5.27453 7.13725 5.01644 7.13725 5.15579Z" fill="#FFD5DB"/>
<path d="M8.07855 3.12959C8.07855 3.19517 8.09454 3.27802 7.96357 3.27802C7.77673 3.17412 7.55396 3.2397 7.55396 3.17412C7.55396 3.10854 7.64576 3.07023 7.77673 3.07023C7.9077 3.07023 8.07855 3.06401 8.07855 3.12959Z" fill="#FFD5DB"/>
<path d="M7.31694 5.97933C7.41755 6.32071 7.06747 6.32071 7.00793 6.32071C7.00793 5.98675 7.12291 6.22423 7.1804 5.90512C7.1804 5.57723 7.39395 5.31885 7.45348 5.31885C7.51301 5.31885 7.31694 5.65144 7.31694 5.97933Z" fill="#FFD5DB"/>
<path d="M8.30143 5.27445C8.30143 5.37691 8.29779 5.43771 8.22239 5.43771C8.14698 5.43771 8.02836 5.37691 8.02836 5.27445C8.02836 5.17198 8.01763 5.10376 8.09303 5.10376C8.16844 5.10376 8.30143 5.17198 8.30143 5.27445Z" fill="#FFD5DB"/>
<path d="M7.94199 5.60838C7.94199 5.64937 7.89052 5.6826 7.82702 5.6826C7.76351 5.6826 7.71204 5.64937 7.71204 5.60838C7.71204 5.5674 7.79945 5.45996 7.86295 5.45996C7.92645 5.45996 7.94199 5.5674 7.94199 5.60838Z" fill="#FFD5DB"/>
<path d="M7.62591 5.77171C7.62591 5.85369 7.5474 5.93498 7.50374 5.93498C7.46009 5.93498 7.46781 5.85369 7.46781 5.77171C7.46781 5.68974 7.5032 5.62329 7.54686 5.62329C7.59052 5.62329 7.62591 5.68974 7.62591 5.77171Z" fill="#FFD5DB"/>
<path d="M8.61753 5.40047C8.61753 5.47424 8.63073 5.54889 8.56723 5.54889C8.50373 5.54889 8.38757 5.47424 8.38757 5.40047C8.38757 5.32669 8.46061 5.36336 8.52411 5.36336C8.58761 5.36336 8.61753 5.32669 8.61753 5.40047Z" fill="#FFD5DB"/>
<path d="M8.77565 5.73451C8.77565 5.80418 8.79603 5.86067 8.73253 5.86067C8.66903 5.86067 8.61755 5.80418 8.61755 5.73451C8.61755 5.66483 8.61873 5.59351 8.68223 5.59351C8.74573 5.59351 8.77565 5.66483 8.77565 5.73451Z" fill="#FFD5DB"/>
<path d="M8.61028 4.52478C8.61028 4.61085 8.44984 4.52478 8.32283 4.52478C8.19583 4.52478 8.0282 4.49954 8.0282 4.41347C8.0282 4.3274 8.19583 4.27246 8.32283 4.27246C8.44984 4.27246 8.61028 4.43871 8.61028 4.52478Z" fill="#FFD5DB"/>
<path d="M9.90389 4.16859C9.90389 4.29565 9.79793 4.33186 9.70268 4.33186C9.60743 4.33186 9.46553 4.34017 9.46553 4.21312C9.46553 4.08606 9.4134 4.02759 9.50865 4.02759C9.6039 4.02759 9.90389 4.04153 9.90389 4.16859Z" fill="#FFD5DB"/>
<path d="M9.42246 4.09469C9.42246 4.16847 9.32862 4.09469 9.25718 4.09469C9.18574 4.09469 9.02722 4.06457 9.02722 3.9908C9.02722 3.91702 9.09951 3.95369 9.17095 3.95369C9.24238 3.95369 9.42246 4.02092 9.42246 4.09469Z" fill="#FFD5DB"/>
</svg>
