<svg width="42" height="72" viewBox="0 0 42 72" fill="none" xmlns="http://www.w3.org/2000/svg">
<path d="M41.5147 8.67678C41.6935 12.2342 39.6418 17.8022 34.751 29.7796C34.8806 30.7799 34.8279 31.3789 34.6157 32.4851C36.296 38.2669 37.4138 44.5168 37.1859 46.7227C36.0649 48.7592 35.3092 49.9086 34.2099 51.9646C33.1691 55.4054 32.4777 57.0936 31.2339 60.081L29.7797 64.2407C26.3455 65.1605 24.9774 58.4239 27.0404 55.2112C27.7029 52.3243 29.6444 50.9162 30.4222 49.2591C29.5062 48.901 28.2571 49.0455 26.2963 49.5635C25.4521 52.6425 24.3482 55.7727 21.3927 60.081C18.9915 64.3084 18.2032 67.1276 15.7788 70.531C14.426 72.4248 12.0249 71.3426 12.2955 69.0092C13.0495 66.2565 13.6697 64.4945 15.6773 60.3516C16.9358 55.6419 17.7701 53.3156 19.465 51.2544C19.6275 50.0485 19.2751 50.4414 18.0446 51.322C16.439 56.7875 15.6477 57.6605 14.2022 59.2552L14.1893 59.2694C13.2294 61.4182 12.5851 62.641 10.6722 64.9509C8.40219 69.3746 7.65439 70.1259 6.61393 70.4972C5.09209 70.8692 3.8408 69.9561 3.90844 68.7386C3.93687 67.8862 4.28217 67.2581 5.12591 66.0331C5.19735 65.4782 5.30706 64.9314 5.46203 64.3699C5.26968 64.9278 5.07807 65.5262 4.88918 66.1684C4.21025 66.9337 3.98696 67.2293 3.6379 67.2168C2.45425 67.4535 0.864894 67.1585 1.06768 65.2215C1.84551 63.0233 1.84551 61.6367 2.5557 60.4869C1.88185 59.772 1.66897 59.3856 1.60878 58.7283C1.95835 57.9466 1.98737 57.4623 2.38661 56.3948C2.42912 54.9215 2.78585 54.1006 3.77317 52.641C4.64222 46.9033 6.07284 46.2492 8.91359 42.7659C10.267 39.6857 11.7414 37.7858 15.0009 34.2436L22.5763 26.2625C22.9562 25.206 23.2749 24.6134 23.929 23.557C24.0923 21.0395 24.5758 19.4049 27.0404 15.5758C26.8652 15.0937 26.911 14.8061 27.5815 14.223C26.9288 9.19855 27.48 8.50769 28.9342 5.29492L41.5147 8.67678Z" fill="#D0B0AB"/>
<path d="M9.45469 56.2934C6.65944 60.9604 5.46407 63.4066 5.12591 66.0331C4.28217 67.2581 3.93687 67.8862 3.90844 68.7386C3.8408 69.9561 5.09209 70.8692 6.61393 70.4972C7.65439 70.1259 8.40219 69.3746 10.6722 64.9509C12.5851 62.641 13.2294 61.4182 14.1893 59.2694C15.643 57.6656 16.4343 56.8037 18.0446 51.322C19.2751 50.4414 19.6275 50.0485 19.465 51.2544C17.7701 53.3156 16.9358 55.6419 15.6773 60.3516C13.6697 64.4945 13.0495 66.2566 12.2955 69.0092C12.0249 71.3426 14.426 72.4248 15.7788 70.531C18.2032 67.1276 18.9915 64.3084 21.3927 60.081C24.3482 55.7727 25.4521 52.6425 26.2963 49.5635C28.2571 49.0455 29.5062 48.901 30.4222 49.2591C29.6444 50.9162 27.7029 52.3243 27.0404 55.2112C24.9774 58.4239 26.3455 65.1605 29.7797 64.2407L31.2339 60.081C32.4777 57.0936 33.1691 55.4054 34.2099 51.9646C35.3092 49.9086 36.0649 48.7592 37.1859 46.7227C37.4138 44.5168 36.296 38.2669 34.6157 32.4851C34.8279 31.3789 34.8806 30.7799 34.751 29.7796C39.6418 17.8022 41.6935 12.2342 41.5147 8.67678L28.9342 5.29492C27.48 8.50769 26.9288 9.19855 27.5815 14.223C26.911 14.8061 26.8652 15.0937 27.0404 15.5758C24.5758 19.4049 24.0923 21.0395 23.929 23.557C23.2749 24.6134 22.9562 25.206 22.5763 26.2625L15.0009 34.2436C11.7414 37.7858 10.267 39.6857 8.91359 42.7659C6.07284 46.2492 4.64222 46.9033 3.77317 52.641C2.78585 54.1006 2.42912 54.9215 2.38661 56.3948C1.98737 57.4623 1.95835 57.9466 1.60878 58.7283C1.66897 59.3856 1.88185 59.772 2.5557 60.4869M9.45469 56.2934C11.5701 51.2602 13.6899 48.8021 13.8173 46.5874L13.6482 47.3991C13.9302 48.0152 9.64757 55.1502 9.45469 56.2934ZM9.45469 56.2934C9.2618 57.4366 6.9183 59.2694 4.88918 66.1684C4.21025 66.9337 3.98696 67.2293 3.6379 67.2168C2.45425 67.4535 0.864894 67.1585 1.06768 65.2215C1.84551 63.0233 1.84551 61.6367 2.5557 60.4869M2.5557 60.4869C3.47887 57.5713 4.01054 55.8878 4.99064 52.7762C5.50201 51.4063 5.92792 50.7071 6.88448 49.5296C8.59086 47.1458 9.55615 44.9641 10.7736 42.191" stroke="black" stroke-width="0.1"/>
<path d="M28.8326 4.55095V5.22732L29.2723 5.59933L30.9632 5.86988L31.741 6.51243L33.6011 6.54625L34.1422 7.29026L34.6494 7.25644L36.2051 7.22262L38.9782 8.13572L39.4855 8.50773L39.959 8.91355L40.5339 8.87973L41.4808 8.74446L41.819 8.40627L41.7513 7.93281L41.4808 7.32408L40.9059 7.12117L41.2779 6.71534L40.7368 6.44479L40.6353 5.86988L40.2633 4.61859L40.0942 5.19351L39.6884 5.09205L39.6208 4.2804L39.3502 4.34804L37.3549 3.09675L37.2197 2.65711L36.3742 2.31893L35.8669 2.55566L35.5964 2.4542L34.6494 2.79239L34.9538 2.18365L33.3982 1L32.5189 1.9131L32.485 1.50728H31.8425L30.6927 3.16439L30.3207 2.96148L30.1516 3.46876L29.5428 4.38186L29.3399 4.24659L29.137 4.65241L28.8326 4.55095Z" fill="#8C1527" stroke="black" stroke-width="0.1"/>
<path d="M34.3957 6.63033L34.3754 6.52892C34.3317 6.31034 34.0684 6.22025 33.8999 6.36624C33.8199 6.43562 33.7084 6.45596 33.609 6.41934L33.5307 6.39048C33.3077 6.30832 33.0602 6.42168 32.9768 6.64419L32.9419 6.7371C32.9305 6.76768 32.9218 6.79926 32.9162 6.83142L32.8788 7.043C32.8432 7.24479 32.8887 7.45249 33.0053 7.62097C33.0853 7.73658 33.1325 7.87172 33.1419 8.01201L33.1423 8.0187C33.1547 8.20377 33.1025 8.38739 32.9947 8.53832L32.6541 9.0151L32.2821 9.59001L31.9101 10.3678L31.834 10.501C31.7047 10.7274 31.5963 10.9651 31.5101 11.2112C31.4387 11.4152 31.3829 11.6244 31.343 11.8368L31.3014 12.0588C31.1894 12.3946 31.0225 12.7096 30.8075 12.9908L30.6927 13.141L30.5158 13.4358C30.4326 13.5743 30.3924 13.7343 30.4001 13.8957L30.4085 14.0735C30.417 14.2503 30.332 14.4185 30.1847 14.5167C30.0766 14.5888 30.0006 14.6998 29.9724 14.8266L29.881 15.2377L29.7829 15.518C29.6911 15.7804 29.5582 16.0266 29.3894 16.2475C29.2666 16.408 29.1628 16.5821 29.0799 16.7663L29.0493 16.8343C28.9503 17.0543 28.8272 17.2628 28.6824 17.4559L28.4945 17.7065C28.2737 17.9493 28.1276 18.2507 28.0736 18.5744L28.0548 18.6872L27.8857 19.2621L27.8499 19.4533C27.807 19.682 27.7006 19.8939 27.5428 20.0648C27.4343 20.1824 27.3495 20.3199 27.2934 20.4698L27.2372 20.6195C27.1962 20.7289 27.1645 20.8417 27.1427 20.9565L27.0902 21.2318C27.057 21.406 27.0023 21.5755 26.9273 21.7362C26.8452 21.9122 26.7394 22.0762 26.613 22.2237L26.3977 22.4749L26.2204 22.6385C26.047 22.7987 25.904 22.9889 25.7984 23.2001L25.713 23.3708C25.6961 23.4047 25.6835 23.4405 25.6756 23.4775L25.6492 23.6005C25.6138 23.7656 25.7142 23.9294 25.8773 23.973C26.0068 24.0075 26.1441 23.9568 26.22 23.8463L26.4294 23.5418C26.4533 23.507 26.4799 23.474 26.5088 23.4431L26.9726 22.9484L27.2497 22.7232C27.4232 22.5823 27.5605 22.4019 27.65 22.1971L27.6587 22.1773C27.7194 22.0386 27.755 21.8903 27.7639 21.7392C27.7772 21.5123 27.8507 21.293 27.9768 21.1039L28.0216 21.0367C28.0886 20.9362 28.1439 20.8283 28.1863 20.7152L28.4268 20.0738L28.7312 19.3974L29.0356 18.721L29.0824 18.5726C29.1862 18.2441 29.3236 17.9272 29.4925 17.6269L29.5428 17.5374L29.881 16.9625L30.0108 16.7956C30.2392 16.502 30.4339 16.1836 30.5912 15.8465C30.7928 15.5105 30.9389 15.1442 31.0239 14.7617L31.0309 14.7304C31.0754 14.2408 31.2299 13.7674 31.4829 13.3458L31.6058 13.141L31.72 12.9931C32.0254 12.5979 32.2699 12.1592 32.4452 11.6915L32.5865 11.3148L32.7918 10.8108C32.9025 10.539 33.0458 10.2817 33.2184 10.0444L33.3529 9.85932C33.4503 9.72545 33.5297 9.57941 33.5891 9.42491L33.63 9.31865C33.7642 8.96975 34.0175 8.67955 34.345 8.4994L34.4148 8.46101C34.4808 8.42472 34.5421 8.38054 34.5975 8.32945C34.8208 8.12333 34.9291 7.81904 34.888 7.51795C34.8648 7.34772 34.795 7.186 34.6867 7.05266L34.4674 6.78279C34.4315 6.73855 34.4069 6.68622 34.3957 6.63033Z" fill="#B43636" stroke="black" stroke-width="0.1"/>
<path d="M29.6782 54.0275C32.1921 53.958 33.2465 53.9203 33.5674 53.8584M29.8811 55.3802C31.2654 55.6937 32.1942 55.7789 33.0939 55.4141" stroke="black" stroke-width="0.1"/>
<path d="M14.8319 64.6467C15.5441 64.8459 15.9368 64.964 16.4552 65.3569" stroke="black" stroke-width="0.1"/>
<path d="M15.1023 63.9363C15.8918 64.1429 16.3195 64.3481 17.0638 64.8156" stroke="black" stroke-width="0.1"/>
<path d="M2.58948 55.0422C3.30169 55.2414 3.08563 55.1565 3.60404 55.5495" stroke="black" stroke-width="0.1"/>
<path d="M2.72461 54.2981C3.51414 54.5048 3.46831 54.5408 4.21263 55.0083" stroke="black" stroke-width="0.1"/>
<path d="M2.72461 60.4529C3.43682 60.652 3.82949 60.7701 4.3479 61.1631" stroke="black" stroke-width="0.1"/>
<path d="M2.99524 59.7429C3.78477 59.9496 4.2124 60.1547 4.95672 60.6222" stroke="black" stroke-width="0.1"/>
<path d="M6.2522 63.0066C6.93071 63.3007 7.30368 63.4711 7.76383 63.9309" stroke="black" stroke-width="0.1"/>
<path d="M6.6167 62.3401C7.37079 62.6522 7.76655 62.9136 8.44038 63.4779" stroke="black" stroke-width="0.1"/>
<path d="M18.0784 57.5449L20.4795 58.4242" stroke="black" stroke-width="0.1"/>
<path d="M18.1461 56.5976C19.3952 56.4839 20.0658 56.6196 21.1222 57.8151" stroke="black" stroke-width="0.1"/>
<path d="M17.402 58.2209C18.467 59.4728 19.1274 59.4694 20.3104 59.4046" stroke="black" stroke-width="0.1"/>
<path d="M5.29504 47.2637L6.64873 48.0326" stroke="black" stroke-width="0.1"/>
<path d="M5.70081 46.5874C6.411 46.858 6.63686 46.6773 7.20408 47.6985" stroke="black" stroke-width="0.1"/>
<path d="M4.99072 47.9741C5.46418 48.4476 5.51723 48.5677 6.37346 48.7076" stroke="black" stroke-width="0.1"/>
<path d="M6.25867 51.5793L8.36054 53.0356" stroke="black" stroke-width="0.1"/>
<path d="M6.56286 50.6798C7.80024 50.8847 8.41502 51.1851 9.13582 52.6083" stroke="black" stroke-width="0.1"/>
<path d="M5.43372 52.0635C6.14873 53.5434 6.78861 53.7066 7.94974 53.9422" stroke="black" stroke-width="0.1"/>
<path d="M10.7712 55.5073L13.0446 56.6779" stroke="black" stroke-width="0.1"/>
<path d="M10.9557 54.5761C12.2092 54.6184 12.8578 54.8362 13.7576 56.1536" stroke="black" stroke-width="0.1"/>
<path d="M10.016 56.0945C10.9174 57.4689 11.5731 57.5474 12.755 57.63" stroke="black" stroke-width="0.1"/>
<path d="M2.96139 56.8008L2.42029 56.395L1.60864 58.6947L1.94683 58.5594V58.83L2.18356 59.0329L2.35265 58.5594L2.55556 59.0329L2.96139 56.8008Z" fill="#966760" stroke="black" stroke-width="0.1"/>
<path d="M3.50258 63.6321C2.95373 62.9535 2.58389 62.7216 1.77783 62.6514C1.55139 63.598 1.38284 64.2092 1 65.4583L1.16909 65.8303L1.30437 66.3038L1.71019 65.2216L1.81165 66.1347L2.25129 66.0332V66.4729L2.86002 66.3038H3.33348C3.67022 65.5792 3.64272 64.9182 3.50258 63.6321Z" fill="#966760" stroke="black" stroke-width="0.1"/>
<path d="M6.54618 67.4537C6.19921 66.4958 5.91395 66.1121 5.19344 65.7966C4.27435 67.2065 3.89001 67.9421 3.87451 68.9756L4.34797 68.9079L4.24652 69.5505L4.82143 69.652L5.36253 70.1592L5.97126 69.3138L6.47854 69.7196C6.63893 69.0128 6.65511 68.5185 6.54618 67.4537Z" fill="#966760" stroke="black" stroke-width="0.1"/>
<path d="M15.373 68.2991C14.7946 67.4178 14.4338 67.1244 13.6482 67.386C13.3827 67.6612 13.1882 67.9636 12.7689 68.7387L13.2762 69.2122L13.7835 69.0431L14.2569 69.1107L14.5275 68.9078L15.373 70.0576L15.3739 70.0401C15.4118 69.3258 15.4334 68.9197 15.373 68.2991Z" fill="#966760" stroke="black" stroke-width="0.1"/>
<path d="M28.0211 62.0763C28.4226 60.8 28.7038 60.1144 29.34 58.965C30.706 58.9087 31.1733 59.0736 31.3692 59.7767C30.997 60.878 30.8681 61.409 30.7942 62.1778L30.4222 62.7527L29.7459 61.6705L29.4753 62.888L28.5284 62.144L28.0211 62.0763Z" fill="#966760" stroke="black" stroke-width="0.1"/>
<path d="M32.0436 47.569L29.7119 47.2299C29.0609 47.2171 28.9265 46.3038 29.5463 46.1041L31.9275 45.3368C32.1936 45.2511 32.4043 45.0459 32.497 44.7822L32.5867 44.5273C32.8685 43.7266 34.0306 43.8234 34.176 44.6597L34.3014 45.1612C34.3528 45.3668 34.4343 45.5637 34.5434 45.7454L34.8661 46.2832C35.0665 46.6172 35.0709 47.0334 34.8777 47.3716L34.7082 47.6681C34.5228 47.9926 34.6234 48.4074 34.9344 48.6147C35.0967 48.723 35.2079 48.8952 35.2383 49.0879C35.3138 49.5661 34.8918 49.9742 34.4165 49.8827L33.9574 49.7945C33.7755 49.7595 33.5972 49.8705 33.5485 50.0493C33.4888 50.2683 33.2413 50.3755 33.0407 50.2693L32.7976 50.1406C32.5142 49.9905 32.4084 49.6376 32.5626 49.3564L32.7574 49.0011C33.084 48.4055 32.7159 47.6668 32.0436 47.569Z" fill="#B43636" stroke="black" stroke-width="0.1"/>
<path d="M20.8235 28.1381L22.0369 26.864C22.3212 26.5655 22.8134 26.6283 23.0136 26.9887C23.1679 27.2663 23.509 27.3795 23.7986 27.2492L24.0722 27.1261C24.4158 26.9714 24.8186 27.0376 25.0948 27.294L25.4649 27.6377C25.5455 27.7125 25.6332 27.7794 25.7267 27.8373L26.8537 28.535C26.9553 28.5979 27.0624 28.6514 27.1737 28.695L27.6699 28.8891C28.198 29.0958 28.7991 28.9272 29.1427 28.4762L29.2434 28.344C29.4871 28.0242 29.8965 27.8784 30.2875 27.9722L30.4377 28.0083C30.9245 28.1251 31.2122 28.6278 31.0665 29.1067C30.9471 29.499 30.5698 29.7545 30.1612 29.7197L28.2807 29.5597C27.8868 29.5262 27.4903 29.5783 27.1184 29.7126L26.1341 30.0681C25.6056 30.2589 25.0144 30.0879 24.6694 29.6444C24.2122 29.0565 23.355 28.9734 22.7934 29.4626L22.4099 29.7966C22.0111 30.1439 21.4267 30.1741 20.9942 29.8698C20.4203 29.4659 20.3395 28.6463 20.8235 28.1381Z" fill="#B43636" stroke="black" stroke-width="0.1"/>
</svg>
