<svg width="22" height="18" viewBox="0 0 22 18" fill="none" xmlns="http://www.w3.org/2000/svg">
<path d="M1.92712 6.14163V5.96362L18.5704 12.4707V12.6092L1.92712 6.14163Z" fill="#D1A83E" stroke="black" stroke-width="0.1"/>
<path d="M1.92712 5.98351L2.23356 5.27148L18.9343 11.6402L18.5513 12.4709L1.92712 5.98351Z" fill="#F4E4A8" stroke="black" stroke-width="0.1"/>
<path d="M20.0283 12.5194C19.9815 12.6625 19.8559 12.78 19.6838 12.8431C19.5126 12.906 19.2991 12.9133 19.0847 12.8388C18.8944 12.7648 18.7686 12.7022 18.6879 12.6447C18.6076 12.5876 18.5771 12.5393 18.5676 12.4947C18.5576 12.4478 18.5681 12.394 18.5945 12.3193C18.6049 12.29 18.617 12.2591 18.6303 12.2252C18.6338 12.2164 18.6373 12.2075 18.6409 12.1983C18.6583 12.1539 18.6768 12.1053 18.6942 12.052C18.7023 12.0272 18.7098 12.0033 18.717 11.9802C18.7341 11.9256 18.7497 11.8757 18.7686 11.8298C18.7951 11.7657 18.8254 11.7172 18.8677 11.6844C18.95 11.6207 19.1014 11.6006 19.4347 11.7167C19.6512 11.7921 19.8248 11.9225 19.9312 12.0699C20.0376 12.2175 20.0745 12.378 20.0283 12.5194Z" fill="#6B220F" stroke="black" stroke-width="0.1"/>
<path d="M4.22583 2.32453L4.55142 1.90918L8.2478 4.14415L8.63085 4.46061L8.45848 5.0144L4.22583 2.32453Z" fill="#F4E4A8" stroke="black" stroke-width="0.1"/>
<path d="M8.03676 5.13285L4.24462 2.75944L4.22546 2.34409L4.24462 2.33667L8.03676 4.75706V5.13285Z" fill="#D1A83E" stroke="black" stroke-width="0.1"/>
<path d="M8.45823 4.51984L6.40894 4.12427L17.7854 11.3039L18.2067 10.7303L8.2284 4.12427L8.45823 4.51984Z" fill="#2A1E0E" stroke="black" stroke-width="0.1"/>
<path d="M19.075 12.2544L19.075 12.2544L19.0736 12.2556C18.9414 12.3733 18.8198 12.4208 18.7118 12.4285C18.6034 12.4363 18.5031 12.4043 18.4133 12.3533C18.2672 12.2703 18.1584 12.144 18.0927 12.0677C18.0776 12.0503 18.0648 12.0354 18.0544 12.0243C17.8298 11.6849 17.7947 11.4816 17.8179 11.3445C17.8296 11.2752 17.8568 11.2188 17.8883 11.1663C17.8999 11.147 17.9117 11.1289 17.9236 11.1105C17.9282 11.1033 17.9329 11.0962 17.9376 11.0888C17.9536 11.0638 17.9697 11.0377 17.9829 11.0106C18.0377 10.912 18.0939 10.8519 18.1512 10.8203C18.2072 10.7893 18.2693 10.7827 18.3429 10.8012C18.4181 10.82 18.5043 10.8649 18.6043 10.9364C18.7034 11.0074 18.8134 11.1026 18.9364 11.2198C19.0738 11.3814 19.1741 11.5897 19.2059 11.7843C19.2379 11.9804 19.1994 12.1516 19.075 12.2544Z" fill="#2A1E0E" stroke="black" stroke-width="0.1"/>
<path d="M0.58667 12.3921V11.8581L12.1163 10.8494L13.7443 10.8691L13.84 11.2054L0.58667 12.3921Z" fill="#F4E4A8" stroke="black" stroke-width="0.1"/>
<path d="M0.816497 12.8469L0.58667 12.392L13.2846 11.2646L13.3229 11.6998L12.1355 11.9371L0.816497 12.8469Z" fill="#D1A83E" stroke="black" stroke-width="0.1"/>
<path d="M18.2066 10.533L12.1162 10.8494L12.3652 11.1659L12.2503 11.4428L13.2462 11.5614L12.1162 11.9372L18.3024 11.1659L18.2066 10.533Z" fill="#2A1E0E" stroke="black" stroke-width="0.1"/>
<path d="M19.938 10.8097C19.938 10.9628 19.846 11.1073 19.6852 11.2158C19.5247 11.324 19.3001 11.3926 19.0495 11.3926C18.799 11.3926 18.5744 11.324 18.4139 11.2158C18.2531 11.1073 18.1611 10.9628 18.1611 10.8097C18.1611 10.6565 18.2531 10.512 18.4139 10.4036C18.5744 10.2953 18.799 10.2268 19.0495 10.2268C19.3001 10.2268 19.5247 10.2953 19.6852 10.4036C19.846 10.512 19.938 10.6565 19.938 10.8097Z" fill="#2A1E0E" stroke="black" stroke-width="0.1"/>
<path d="M19.8615 10.8881C19.7763 11.0288 19.5703 10.6984 19.375 10.5723C19.1798 10.4462 18.8493 10.5457 18.9345 10.405C19.0197 10.2643 19.4671 10.2789 19.6623 10.405C19.8576 10.5311 19.9467 10.7474 19.8615 10.8881Z" fill="#8F8E8E"/>
<path d="M19.0111 12.1746C18.9258 12.3152 18.7022 12.4291 18.507 12.303C18.3117 12.1769 18.7726 12.1768 18.8578 12.0361C18.943 11.8954 18.8158 11.5144 19.011 11.6405C19.2063 11.7666 19.0963 12.0339 19.0111 12.1746Z" fill="#8F8E8E"/>
<path d="M15.851 9.52412C15.6787 9.30655 15.3148 9.16811 15.219 8.93076C15.0238 8.80468 15.6595 9.12855 15.851 9.32633C16.1766 9.48456 16.7475 9.93205 16.9427 10.0581C17.1379 10.1842 16.3873 9.80102 15.851 9.52412Z" fill="#8F8E8E"/>
<path d="M18.3596 0.504673L17.7468 0.287109L8.70691 15.2001L9.28148 15.6352L18.3596 0.504673Z" fill="#F4E4A8" stroke="black" stroke-width="0.1"/>
<path d="M9.5306 15.8728L18.4364 0.920231L18.3789 0.504883H18.3598L9.28162 15.6354L9.5306 15.8728Z" fill="#D1A83E" stroke="black" stroke-width="0.1"/>
<path d="M8.00586 16.6991L7.99159 16.645C7.93424 16.4279 7.95976 16.1971 8.0632 15.9977L8.11901 15.8901C8.16598 15.7996 8.22415 15.7153 8.29213 15.6392L8.6355 15.2551C8.64473 15.2448 8.65533 15.2358 8.66701 15.2283L8.6935 15.2115C8.78228 15.1551 8.89838 15.2189 8.89838 15.3241C8.89838 15.3802 8.93351 15.4303 8.98625 15.4494L9.38357 15.5936C9.50449 15.6375 9.56308 15.7745 9.51126 15.8922L9.31198 16.4463C9.2791 16.5377 9.23053 16.6227 9.16848 16.6975L9.14994 16.7198C9.00272 16.8972 8.78416 16.9998 8.55364 16.9998H8.39632C8.24582 16.9998 8.10781 16.9161 8.03823 16.7827C8.02437 16.7561 8.01352 16.7281 8.00586 16.6991Z" fill="#2A1E0E" stroke="black" stroke-width="0.1"/>
<path d="M8.99419 14.7451L8.70691 15.2L9.5113 15.8725L9.76028 15.4769L9.5113 15.5758L9.54961 15.3385L9.30063 15.3978V15.2396L9.0325 15.2989L9.08995 15.0616L8.93674 15.2L8.99419 14.7451Z" fill="#2A1E0E" stroke="black" stroke-width="0.1"/>
<path d="M8.51534 15.8724C8.1409 16.1689 8.4312 16.3747 8.20299 16.4064C7.97478 16.4381 8.1154 16.3335 8.09399 16.169C8.07258 16.0046 8.42675 15.4887 8.65496 15.457C9.14737 15.3886 8.49393 15.7079 8.51534 15.8724Z" fill="#8F8E8E"/>
<path d="M2.15723 10.2159V9.50388L17.5939 4.99438L18.5324 5.46907L2.15723 10.2159Z" fill="#F4E4A8" stroke="black" stroke-width="0.1"/>
<path d="M2.50197 10.5323L2.15723 10.2158L17.977 5.6272L18.0728 5.94365L2.50197 10.5323Z" fill="#D1A83E" stroke="black" stroke-width="0.1"/>
<path d="M21.0377 4.83122L21.0604 4.77085C21.0978 4.67158 21.1044 4.56336 21.0795 4.46026C21.0548 4.35837 20.9934 4.26917 20.9071 4.20972L20.9006 4.20527C20.8794 4.19069 20.8571 4.17797 20.8337 4.16725L20.8115 4.15708C20.7354 4.12212 20.6537 4.10058 20.5703 4.09339L20.5476 4.09144C20.4937 4.08681 20.4395 4.08727 20.3857 4.09282L20.3598 4.09551C20.3034 4.10133 20.2475 4.11136 20.1927 4.12553L20.0453 4.16359L19.8537 4.2427L19.7333 4.29053C19.6478 4.3245 19.5657 4.36644 19.488 4.41579C19.4001 4.47165 19.3065 4.51799 19.2088 4.55403L19.2057 4.55519C19.1271 4.58415 19.0511 4.61965 18.9785 4.66131L18.8732 4.72177C18.7866 4.77145 18.695 4.81196 18.6 4.84262C18.4914 4.87767 18.3789 4.89963 18.2651 4.90803L17.9002 4.93495C17.8559 4.93495 17.8269 4.98127 17.8462 5.02114L18.0759 5.49562C18.1616 5.67258 18.3655 5.75824 18.5518 5.69558L19.0493 5.5283C19.2524 5.46278 19.4644 5.42941 19.6778 5.42941H19.758L20.1575 5.39884C20.2357 5.39287 20.3131 5.37915 20.3886 5.35789L20.4717 5.33446C20.6189 5.29302 20.7525 5.21332 20.8588 5.10349L20.8772 5.08449C20.9475 5.01194 21.0021 4.92574 21.0377 4.83122Z" fill="#2A1E0E" stroke="black" stroke-width="0.1"/>
<path d="M18.4365 5.72595L17.9003 4.93481L17.364 5.03371H17.7088L17.613 5.15238H17.9194L17.7854 5.27105L17.9194 5.33038L17.6704 5.42928L17.9577 5.52817L17.8045 5.70618L18.0343 5.60728L17.9577 5.78529L17.7854 5.92374L17.9577 6.00285L18.4365 5.72595Z" fill="#2A1E0E" stroke="black" stroke-width="0.1"/>
<path d="M17.6232 5.56041C17.4742 5.42736 17.4008 5.40758 17.1852 5.3843" stroke="#BC7101" stroke-width="0.1"/>
<path d="M17.5562 5.573C17.3582 5.45752 17.1744 5.40174 16.7495 5.35318" stroke="#BC7101" stroke-width="0.1"/>
<path d="M17.3625 5.57349C17.0981 5.45438 16.9057 5.41582 16.4955 5.38972" stroke="#BC7101" stroke-width="0.1"/>
<path d="M17.1849 5.59814C16.9111 5.50033 16.7069 5.47777 16.241 5.50237" stroke="#BC7101" stroke-width="0.1"/>
<path d="M16.9047 5.58057C16.4567 5.56444 16.2462 5.5617 16.0167 5.57946" stroke="#BC7101" stroke-width="0.1"/>
<path d="M11.4723 9.46899C11.4167 9.27385 11.3652 9.21615 11.1961 9.07611" stroke="#BC7101" stroke-width="0.1"/>
<path d="M11.4091 9.44238C11.3031 9.23467 11.1777 9.08504 10.8459 8.80682" stroke="#BC7101" stroke-width="0.1"/>
<path d="M11.246 9.33496C11.086 9.08706 10.9444 8.94709 10.6131 8.69597" stroke="#BC7101" stroke-width="0.1"/>
<path d="M11.0837 9.25562C10.9047 9.02036 10.7448 8.88727 10.3401 8.64767" stroke="#BC7101" stroke-width="0.1"/>
<path d="M10.8575 9.08447C10.4893 8.82062 10.3137 8.70072 10.1114 8.58741" stroke="#BC7101" stroke-width="0.1"/>
<path d="M20.9456 4.4893C20.9335 4.58681 20.9456 5.13273 20.7541 4.7965C20.7541 4.21806 20.1319 4.35853 20.144 4.26103C20.1562 4.16352 20.3405 4.10763 20.5557 4.13619C20.7709 4.16476 20.9577 4.39179 20.9456 4.4893Z" fill="#8F8E8E"/>
</svg>
