<svg width="99" height="78" viewBox="0 0 99 78" fill="none" xmlns="http://www.w3.org/2000/svg">
<path d="M4.10046 5.36809L93.3055 3.17225L94.7367 65.1807L5.53171 67.3766L4.10046 5.36809Z" fill="#ECE8E5" stroke="black" stroke-width="0.1"/>
<g filter="url(#filter0_d)">
<path d="M9.10327 0.925781L92.8226 8.38091L87.7193 69.4997L3.9999 62.0446L9.10327 0.925781Z" fill="#ECE8E5"/>
<path d="M9.14891 0.980043L92.7687 8.4263L87.6736 69.4455L4.05386 61.9992L9.14891 0.980043Z" stroke="black" stroke-width="0.1"/>
</g>
<g filter="url(#filter1_d)">
<path d="M7.38318 4.96436L91.2756 0.000144189L94.5546 59.096L10.6622 64.0602L7.38318 4.96436Z" fill="#ECE8E5"/>
<path d="M7.43586 5.01133L91.2285 0.0530211L94.5019 59.049L10.7093 64.0073L7.43586 5.01133Z" stroke="black" stroke-width="0.1"/>
</g>
<path d="M14.5671 18.0554C14.8462 18.0316 15.0425 17.9564 15.156 17.8298C15.2694 17.7032 15.3299 17.5596 15.3374 17.3989C15.3445 17.2302 15.3372 16.9422 15.3156 16.5347L15.0413 11.358C15.0235 11.0225 15.0203 10.7342 15.0315 10.4932L14.1715 10.5899L14.1435 10.0626L16.9704 9.89082C18.4716 9.79797 19.6803 10.0822 20.5966 10.7436C21.5128 11.4049 22.008 12.4346 22.0821 13.8327C22.1219 14.5836 21.983 15.2886 21.6654 15.9475C21.3479 16.6065 20.8558 17.1471 20.1892 17.5694C19.5222 17.9837 18.7055 18.2181 17.739 18.2728L14.588 18.4508L14.5671 18.0554ZM17.6789 17.8194C18.3499 17.7815 18.9362 17.5841 19.438 17.2272C19.9399 16.8704 20.3193 16.3962 20.5764 15.8047C20.8334 15.2133 20.9431 14.5621 20.9054 13.8511C20.8436 12.6847 20.4759 11.792 19.8022 11.1731C19.1281 10.5461 18.148 10.269 16.8621 10.3417C16.5825 10.3574 16.3858 10.4247 16.2719 10.5433C16.158 10.6619 16.0976 10.8055 16.0905 10.9742C16.083 11.1349 16.09 11.4189 16.1116 11.8264L16.3821 16.9312C16.4041 17.3466 16.4087 17.6588 16.3957 17.8679C16.6761 17.8681 17.1038 17.8519 17.6789 17.8194ZM22.5762 17.6028C22.7759 17.5915 22.9333 17.5385 23.0484 17.4439C23.1632 17.3412 23.2527 17.216 23.3169 17.0681C23.3888 16.9118 23.4688 16.6829 23.5569 16.3815L23.659 16.0392L25.7708 9.17714L26.0583 9.16089L29.0914 15.8283C29.1907 16.0391 29.279 16.2704 29.3565 16.5225C29.4335 16.7665 29.4723 16.9687 29.4727 17.1289L30.2849 17.0349L30.3128 17.5622L27.5692 17.7172L27.5483 17.3218C28.0191 17.2872 28.2445 17.0821 28.2247 16.7066C28.2166 16.5548 28.1667 16.3694 28.075 16.1502L27.596 15.0475L24.4848 15.2954C24.3823 15.6297 24.2652 16.065 24.1334 16.6013C24.0675 16.8695 23.9822 17.1507 23.8777 17.4451L24.8096 17.3443L24.8376 17.8716L22.5971 17.9982L22.5762 17.6028ZM27.4047 14.6136L26.4328 12.3729L25.8156 10.9294L25.7916 10.9307L25.3602 12.3133L24.8097 14.1713L24.6372 14.77L27.4047 14.6136ZM30.8068 17.1376C31.0859 17.1138 31.2822 17.0386 31.3957 16.912C31.5091 16.7854 31.5696 16.6418 31.5771 16.4811C31.5842 16.3124 31.5769 16.0244 31.5554 15.617L31.281 10.4402C31.2633 10.1047 31.26 9.81643 31.2713 9.57541L30.4112 9.6721L30.3832 9.14484L33.0789 8.99249L33.0999 9.38794C32.8208 9.41172 32.6245 9.48692 32.511 9.61352C32.3975 9.74013 32.3373 9.88776 32.3302 10.0564C32.3227 10.2171 32.3297 10.5012 32.3513 10.9086L32.6212 16.0014C32.6436 16.4248 32.6484 16.7411 32.6354 16.9501L33.4955 16.8535L33.5234 17.3807L30.8277 17.5331L30.8068 17.1376ZM34.8199 16.9108C35.099 16.887 35.2953 16.8118 35.4088 16.6852C35.5223 16.5586 35.5827 16.415 35.5902 16.2543C35.5973 16.0857 35.5901 15.7976 35.5685 15.3902L35.2942 10.2134C35.2764 9.87791 35.2731 9.58964 35.2844 9.34862L34.4243 9.4453L34.3964 8.91804L37.0921 8.7657L37.113 9.16114C36.8339 9.18493 36.6376 9.26012 36.5241 9.38673C36.4107 9.51333 36.3504 9.66096 36.3433 9.82963C36.3358 9.99031 36.3428 10.2744 36.3644 10.6818L36.6369 15.8226C36.6589 16.238 36.6634 16.5502 36.6504 16.7593L38.889 16.5967C39.3997 16.5599 39.7746 16.3784 40.0137 16.0524C40.2524 15.7184 40.3533 15.2039 40.3165 14.5089L40.7238 14.4859L40.7834 16.9704L34.8409 17.3063L34.8199 16.9108ZM42.7156 16.4646C43.0582 16.4292 43.2728 16.3209 43.3593 16.1398C43.4538 15.9582 43.4913 15.6836 43.4719 15.3161L43.4522 14.9446L43.3918 13.5779L41.1325 10.4003C40.735 9.85387 40.4954 9.41469 40.4138 9.08278L39.6722 9.14872L39.6443 8.62146L42.7353 8.44677L42.7563 8.84222C42.1333 8.87743 41.8311 9.07079 41.8497 9.42229C41.8607 9.63 41.9743 9.88399 42.1905 10.1843L42.593 10.7505C43.1483 11.5524 43.6273 12.2024 44.0302 12.7005L44.0542 12.6991C44.3045 12.1321 44.6887 11.2931 45.2066 10.1821L45.4334 9.70053C45.6418 9.24805 45.8174 8.93365 45.9603 8.7573L45.0157 8.84674L44.9877 8.31948L47.4318 8.18136L47.4528 8.5768C47.0787 8.62199 46.7699 8.76764 46.5266 9.01376C46.2913 9.25942 46.0403 9.66223 45.7735 10.2222L44.4151 13.1595C44.4278 13.5514 44.4418 13.9672 44.4571 14.4071C44.4804 14.8465 44.5007 15.1538 44.518 15.3291C44.5405 15.7525 44.5452 16.0688 44.5322 16.2778L45.5241 16.1737L45.5521 16.7009L42.7365 16.8601L42.7156 16.4646ZM52.5541 9.49042L52.5421 9.4911L52.8498 14.6179C52.8782 15.1531 52.8911 15.549 52.8887 15.8056L53.7488 15.7089L53.7767 16.2361L51.5842 16.36L51.5633 15.9646C51.8828 15.9465 52.0896 15.8427 52.1837 15.6531C52.2778 15.4635 52.3178 15.2369 52.3039 14.9732L51.9679 8.40578L51.1677 8.49907L51.1397 7.97181L52.5655 7.89124L58.0313 14.4332L58.0433 14.4325L57.7644 8.94357C57.7466 8.60804 57.7434 8.31976 57.7546 8.07875L56.8945 8.17543L56.8666 7.64817L59.0711 7.52358L59.092 7.91903C58.8528 7.94056 58.6757 7.99865 58.5605 8.0933C58.4529 8.1795 58.387 8.29541 58.3626 8.44101C58.3383 8.58662 58.3325 8.77925 58.3452 9.01891L58.3674 9.43833L58.6991 16.1503L58.124 16.1828L52.5541 9.49042ZM60.6654 15.4502C60.9445 15.4264 61.1408 15.3512 61.2543 15.2246C61.3677 15.098 61.4282 14.9544 61.4357 14.7937C61.4428 14.625 61.4356 14.337 61.414 13.9296L61.1396 8.75282C61.1219 8.41729 61.1186 8.12902 61.1299 7.888L60.2698 7.98468L60.2418 7.45742L66.0046 7.13174L66.1757 9.22542L65.7803 9.24776C65.7456 8.59268 65.5781 8.15343 65.2779 7.93002C64.9856 7.70615 64.5843 7.61665 64.074 7.66152L63.0449 7.74372C62.7578 7.76795 62.5531 7.83561 62.4308 7.94669C62.3081 8.04978 62.2356 8.19409 62.2134 8.37964C62.1908 8.5572 62.1896 8.83771 62.2099 9.22117L62.3115 11.1385L64.5646 11.0232L64.4261 9.99736L64.9532 9.96757L65.0866 12.484L64.6912 12.5064C64.6756 12.2108 64.6278 11.9891 64.5478 11.8414C64.4675 11.6857 64.3502 11.5882 64.1959 11.5488C64.0491 11.501 63.844 11.4846 63.5804 11.4995L63.2096 11.5324L62.3369 11.6178L62.4823 14.362C62.5043 14.7774 62.5089 15.0896 62.4959 15.2987L64.7824 15.1334C65.3411 15.0938 65.761 14.9299 66.0421 14.6415C66.3228 14.3452 66.4452 13.8576 66.4092 13.1785L66.8165 13.1555L66.8685 15.4963L60.6863 15.8457L60.6654 15.4502ZM68.4069 9.13538L68.2263 8.67684C68.0029 8.08851 67.8666 7.7076 67.8173 7.53411L67.1476 7.59599L67.1197 7.06873L70.0311 6.9042L70.052 7.29964C69.7254 7.33413 69.4967 7.40314 69.366 7.50668C69.2349 7.60223 69.1748 7.75386 69.1858 7.96157C69.196 8.1533 69.2482 8.38272 69.3425 8.64982C69.5146 9.17694 69.7381 9.76527 70.0128 10.4148C70.0591 10.5324 70.1146 10.6735 70.1794 10.8381C70.2438 10.9947 70.3177 11.1788 70.401 11.3904C70.4578 11.5555 70.5274 11.7359 70.6099 11.9315C70.6924 12.1272 70.7519 12.268 70.7885 12.3541C70.9711 12.7765 71.1091 13.1132 71.2026 13.3643L71.2265 13.363C71.3575 12.8107 71.4933 12.2742 71.6339 11.7535C71.8723 10.8105 72.136 9.81405 72.4248 8.76408C72.7271 7.66528 72.9072 6.98204 72.9651 6.71435L73.3485 6.69268C73.4617 7.0148 73.6527 7.52083 73.9216 8.21075C74.1901 8.89268 74.3845 9.3865 74.5048 9.69219C74.7809 10.3657 74.9704 10.8438 75.0735 11.1264C75.1489 11.3385 75.2698 11.6561 75.4365 12.0794C75.6208 12.5337 75.7695 12.922 75.8827 13.2441L75.9187 13.2421C76.0773 12.6081 76.2138 12.0836 76.328 11.6685C76.6739 10.4871 76.9525 9.46974 77.1636 8.61647C77.2358 8.31592 77.3026 8.06375 77.3639 7.85997C77.494 7.44396 77.6024 7.14538 77.6889 6.96421L76.7324 7.05432L76.7044 6.52706L79.1365 6.38961L79.1575 6.78506C78.8716 6.83327 78.6552 6.90559 78.5081 7.00205C78.369 7.09805 78.2456 7.26527 78.1381 7.50372C78.0381 7.73372 77.914 8.11333 77.7658 8.64253L77.2513 10.4985C76.7152 12.4759 76.2798 14.0109 75.9452 15.1035L75.5858 15.1238L73.0056 8.83943L71.2367 15.3696L70.8893 15.3892L68.4069 9.13538ZM82.8754 14.784C82.5 14.8052 82.1178 14.7747 81.7289 14.6925C81.348 14.6099 81.0085 14.4768 80.7104 14.2934L80.7976 14.8052L80.1746 14.8405L79.9674 12.2921L80.4347 12.2657C80.511 12.9505 80.7748 13.4684 81.226 13.8195C81.6768 14.1626 82.2337 14.3154 82.8966 14.278C83.3838 14.2504 83.7842 14.0956 84.0977 13.8135C84.4188 13.5229 84.567 13.1459 84.5425 12.6826C84.5243 12.3391 84.413 12.0529 84.2086 11.8241C84.0118 11.5868 83.7693 11.3962 83.4813 11.2522C83.2009 11.0998 82.8193 10.929 82.3366 10.74C81.7879 10.5146 81.3487 10.315 81.0191 10.1413C80.6974 9.96722 80.4165 9.7307 80.1764 9.43177C79.9358 9.12486 79.8032 8.73973 79.7787 8.27638C79.7617 7.95683 79.8167 7.63321 79.9435 7.30553C80.0784 6.97741 80.3196 6.69134 80.6671 6.44734C81.0227 6.20289 81.5 6.06374 82.099 6.02989C82.4585 6.00958 82.8204 6.0372 83.1849 6.11275C83.557 6.17986 83.9007 6.31669 84.2161 6.52322L84.1409 6.01065L84.7519 5.97612L84.8916 8.61242L84.4603 8.63679C84.3869 8.00794 84.1551 7.48819 83.7648 7.07756C83.3821 6.65849 82.8633 6.46746 82.2083 6.50448C81.7291 6.53156 81.3609 6.68858 81.1037 6.97555C80.8461 7.25453 80.7279 7.59374 80.749 7.99318C80.766 8.31273 80.8724 8.58315 81.0684 8.80444C81.2644 9.02574 81.4982 9.20483 81.7698 9.34172C82.0415 9.47861 82.4228 9.64536 82.9139 9.84196C83.4702 10.0589 83.9173 10.258 84.2554 10.4392C84.6014 10.62 84.8989 10.8676 85.1479 11.182C85.3965 11.4885 85.5333 11.8774 85.5582 12.3487C85.5819 12.7961 85.4911 13.1979 85.2856 13.554C85.0882 13.9097 84.7829 14.1954 84.3697 14.4111C83.9566 14.6267 83.4584 14.751 82.8754 14.784Z" fill="black"/>
<path d="M11.5551 21.2789L87.7924 16.314" stroke="black" stroke-width="0.1"/>
<path d="M14.2576 25.1524L14.2536 25.1527L14.3555 26.8616C14.3649 27.04 14.3692 27.172 14.3683 27.2575L14.655 27.2254L14.6643 27.4012L13.9334 27.4422L13.9265 27.3103C14.033 27.3044 14.1019 27.2698 14.1333 27.2066C14.1647 27.1434 14.1781 27.0679 14.1735 26.98L14.0624 24.7908L13.7956 24.8218L13.7864 24.646L14.2616 24.6194L16.0827 26.8008L16.0867 26.8006L15.9945 24.9709C15.9886 24.859 15.9876 24.763 15.9913 24.6826L15.7046 24.7147L15.6954 24.539L16.4302 24.4977L16.4372 24.6296C16.3574 24.6367 16.2984 24.656 16.26 24.6876C16.2241 24.7163 16.2021 24.7549 16.194 24.8035C16.1858 24.852 16.1839 24.9162 16.1881 24.9961L16.1954 25.1359L16.3051 27.3733L16.1134 27.384L14.2576 25.1524ZM16.9606 27.1402C17.0537 27.1323 17.1191 27.1073 17.1569 27.0651C17.1948 27.0229 17.215 26.975 17.2175 26.9215C17.2199 26.8652 17.2175 26.7692 17.2103 26.6334L17.1196 24.9078C17.1137 24.7959 17.1127 24.6999 17.1164 24.6195L16.8297 24.6516L16.8205 24.4759L18.7415 24.3681L18.7982 25.066L18.6664 25.0734C18.6549 24.8551 18.5992 24.7086 18.4991 24.6341C18.4017 24.5594 18.268 24.5296 18.0979 24.5444L17.7548 24.5717C17.6591 24.5797 17.5909 24.6023 17.5501 24.6393C17.5092 24.6736 17.485 24.7217 17.4776 24.7835C17.47 24.8427 17.4696 24.9362 17.4763 25.0641L17.5099 25.7032L18.2609 25.6651L18.2149 25.3231L18.3906 25.3132L18.4347 26.1521L18.303 26.1595C18.2978 26.061 18.2819 25.9871 18.2552 25.9378C18.2285 25.8859 18.1894 25.8534 18.138 25.8402C18.0891 25.8243 18.0207 25.8188 17.9328 25.8237L17.8092 25.8346L17.5183 25.863L17.5664 26.7777C17.5737 26.9162 17.5752 27.0202 17.5708 27.0899L18.333 27.0352C18.5192 27.0221 18.6592 26.9675 18.753 26.8714C18.8466 26.7727 18.8874 26.6101 18.8755 26.3838L19.0113 26.3762L19.0283 27.1564L16.9675 27.272L16.9606 27.1402ZM19.542 25.0363L19.4818 24.8835C19.4074 24.6873 19.362 24.5603 19.3456 24.5025L19.1224 24.523L19.1132 24.3473L20.0836 24.2929L20.0906 24.4247C19.9817 24.4361 19.9055 24.4591 19.8619 24.4936C19.8182 24.5254 19.7981 24.5759 19.8018 24.6452C19.8051 24.7091 19.8225 24.7856 19.8539 24.8746C19.9112 25.0504 19.9856 25.2465 20.0771 25.463C20.0925 25.5022 20.111 25.5493 20.1326 25.6042C20.154 25.6564 20.1786 25.7178 20.2064 25.7883C20.2253 25.8433 20.2485 25.9035 20.2759 25.9687C20.3034 26.0339 20.3232 26.0809 20.3354 26.1096C20.3962 26.2504 20.4422 26.3627 20.4733 26.4464L20.4813 26.446C20.525 26.2619 20.5703 26.0831 20.6173 25.9095C20.6969 25.5952 20.7849 25.2631 20.8813 24.9132C20.9822 24.5469 21.0424 24.3192 21.0617 24.23L21.1895 24.2228C21.2272 24.3302 21.2908 24.4989 21.3803 24.7289C21.4697 24.9563 21.5345 25.1209 21.5745 25.2228C21.6665 25.4474 21.7296 25.6067 21.7639 25.701C21.789 25.7717 21.8293 25.8776 21.8848 26.0187C21.9461 26.1702 21.9957 26.2996 22.0334 26.407L22.0453 26.4063C22.0983 26.195 22.1439 26.0202 22.182 25.8818C22.2975 25.4881 22.3904 25.149 22.4609 24.8646C22.485 24.7645 22.5073 24.6804 22.5278 24.6125C22.5712 24.4738 22.6074 24.3743 22.6363 24.3139L22.3174 24.3438L22.3082 24.1681L23.1189 24.1226L23.1258 24.2544C23.0305 24.2705 22.9584 24.2945 22.9093 24.3267C22.8629 24.3587 22.8218 24.4144 22.7859 24.4938C22.7526 24.5705 22.7112 24.697 22.6617 24.8734L22.4899 25.492C22.311 26.151 22.1656 26.6626 22.0539 27.0268L21.9341 27.0335L21.0749 24.9384L20.4844 27.1148L20.3686 27.1213L19.542 25.0363ZM24.364 26.9213C24.2389 26.9283 24.1115 26.9181 23.9819 26.8906C23.8549 26.863 23.7418 26.8186 23.6424 26.7574L23.6714 26.9281L23.4638 26.9397L23.3951 26.0902L23.5508 26.0815C23.5762 26.3098 23.664 26.4825 23.8144 26.5995C23.9646 26.714 24.1502 26.765 24.3712 26.7526C24.5336 26.7435 24.6671 26.6919 24.7716 26.5979C24.8787 26.5011 24.9281 26.3755 24.92 26.221C24.914 26.1065 24.8769 26.0111 24.8088 25.9348C24.7433 25.8557 24.6625 25.7921 24.5665 25.7441C24.473 25.6933 24.3459 25.6363 24.185 25.5732C24.0021 25.498 23.8558 25.4314 23.7459 25.3735C23.6387 25.3154 23.5451 25.2365 23.4651 25.1368C23.3849 25.0345 23.3408 24.9061 23.3327 24.7516C23.3271 24.6451 23.3454 24.5373 23.3878 24.428C23.4327 24.3187 23.5132 24.2234 23.6291 24.1421C23.7476 24.0607 23.9067 24.0143 24.1064 24.0031C24.2262 23.9964 24.3469 24.0057 24.4684 24.0309C24.5924 24.0533 24.707 24.099 24.8121 24.1679L24.787 23.997L24.9907 23.9856L25.0369 24.8644L24.8932 24.8724C24.8688 24.6628 24.7916 24.4895 24.6615 24.3526C24.534 24.2129 24.3611 24.1491 24.1428 24.1613C23.983 24.1703 23.8603 24.2226 23.7745 24.3182C23.6886 24.4112 23.6492 24.5242 23.6562 24.6574C23.6618 24.7639 23.6972 24.854 23.7625 24.9278C23.8278 25.0016 23.9057 25.0614 23.9963 25.107C24.0868 25.1527 24.2139 25.2083 24.3775 25.2739C24.5629 25.3463 24.712 25.4128 24.8246 25.4732C24.9399 25.5335 25.0391 25.6161 25.122 25.721C25.2049 25.8231 25.2504 25.9528 25.2587 26.1099C25.2665 26.259 25.2362 26.3929 25.1676 26.5116C25.1018 26.6302 25 26.7254 24.8622 26.7972C24.7245 26.869 24.5584 26.9104 24.364 26.9213Z" fill="black"/>
<path d="M34.8143 44.0221L34.8103 44.0223L34.9122 45.7312C34.9215 45.9097 34.9258 46.0416 34.925 46.1271L35.2117 46.095L35.2209 46.2708L34.4901 46.3118L34.4831 46.18C34.5896 46.174 34.6586 46.1394 34.69 46.0762C34.7214 46.013 34.7348 45.9375 34.7301 45.8496L34.619 43.6604L34.3523 43.6914L34.343 43.5157L34.8183 43.489L36.6393 45.6704L36.6433 45.6702L36.5511 43.8405C36.5452 43.7287 36.5442 43.6326 36.548 43.5522L36.2613 43.5843L36.252 43.4086L36.9869 43.3674L36.9938 43.4992C36.9141 43.5063 36.855 43.5257 36.8166 43.5572C36.7807 43.5859 36.7587 43.6246 36.7506 43.6731C36.7425 43.7216 36.7405 43.7858 36.7447 43.8657L36.7521 44.0055L36.8617 46.2429L36.67 46.2536L34.8143 44.0221ZM37.5172 46.0098C37.6103 46.0019 37.6757 45.9769 37.7136 45.9347C37.7514 45.8925 37.7716 45.8446 37.7741 45.7911C37.7765 45.7349 37.7741 45.6388 37.767 45.503L37.6762 43.7774C37.6703 43.6656 37.6693 43.5695 37.6731 43.4891L37.3864 43.5212L37.3771 43.3455L39.2981 43.2378L39.3548 43.9357L39.2231 43.9431C39.2116 43.7247 39.1558 43.5783 39.0558 43.5037C38.9584 43.4291 38.8246 43.3992 38.6545 43.4141L38.3115 43.4413C38.2157 43.4494 38.1475 43.4719 38.1067 43.5089C38.0658 43.5432 38.0416 43.5913 38.0342 43.6532C38.0266 43.7124 38.0262 43.8059 38.0329 43.9337L38.0665 44.5728L38.8176 44.5347L38.7715 44.1927L38.9473 44.1829L38.9914 45.0217L38.8596 45.0291C38.8544 44.9306 38.8385 44.8567 38.8119 44.8074C38.7851 44.7555 38.746 44.723 38.6946 44.7098C38.6457 44.6939 38.5773 44.6884 38.4894 44.6933L38.3659 44.7042L38.0749 44.7326L38.123 45.6473C38.1303 45.7858 38.1318 45.8899 38.1274 45.9596L38.8896 45.9048C39.0759 45.8917 39.2158 45.8371 39.3096 45.741C39.4032 45.6423 39.4441 45.4798 39.4322 45.2534L39.5679 45.2458L39.5849 46.0261L37.5242 46.1416L37.5172 46.0098ZM40.0986 43.906L40.0385 43.7531C39.9641 43.557 39.9187 43.43 39.9023 43.3721L39.6791 43.3927L39.6698 43.2169L40.6403 43.1625L40.6472 43.2943C40.5383 43.3057 40.4621 43.3287 40.4185 43.3632C40.3748 43.395 40.3548 43.4456 40.3584 43.5148C40.3618 43.5787 40.3791 43.6552 40.4105 43.7443C40.4678 43.92 40.5422 44.1161 40.6337 44.3327C40.6491 44.3719 40.6676 44.4189 40.6892 44.4738C40.7107 44.526 40.7353 44.5874 40.763 44.6579C40.7819 44.713 40.8051 44.7731 40.8326 44.8383C40.86 44.9036 40.8799 44.9505 40.892 44.9792C40.9529 45.12 40.9988 45.2323 41.0299 45.316L41.0379 45.3156C41.0816 45.1315 41.127 44.9527 41.1739 44.7791C41.2535 44.4648 41.3415 44.1327 41.438 43.7828C41.5389 43.4166 41.599 43.1888 41.6183 43.0996L41.7461 43.0924C41.7838 43.1998 41.8474 43.3685 41.937 43.5986C42.0264 43.8259 42.0911 43.9905 42.1312 44.0924C42.2231 44.317 42.2862 44.4764 42.3205 44.5706C42.3456 44.6413 42.3859 44.7472 42.4414 44.8883C42.5028 45.0398 42.5523 45.1692 42.59 45.2766L42.602 45.2759C42.655 45.0646 42.7005 44.8898 42.7386 44.7515C42.8541 44.3577 42.9471 44.0186 43.0176 43.7343C43.0417 43.6341 43.064 43.55 43.0844 43.4821C43.1279 43.3435 43.164 43.244 43.1929 43.1836L42.874 43.2135L42.8648 43.0377L43.6755 42.9923L43.6825 43.1241C43.5872 43.1401 43.515 43.1642 43.4659 43.1963C43.4196 43.2283 43.3784 43.284 43.3426 43.3635C43.3092 43.4401 43.2678 43.5666 43.2183 43.743L43.0466 44.3616C42.8676 45.0207 42.7223 45.5323 42.6106 45.8964L42.4908 45.9031L41.6316 43.808L41.041 45.9844L40.9252 45.9909L40.0986 43.906ZM44.9207 45.7909C44.7955 45.7979 44.6682 45.7877 44.5385 45.7603C44.4116 45.7327 44.2984 45.6883 44.1991 45.6271L44.2281 45.7977L44.0204 45.8093L43.9517 44.9599L44.1075 44.9511C44.1328 45.1794 44.2207 45.3521 44.371 45.4692C44.5212 45.5836 44.7068 45.6346 44.9278 45.6222C45.0902 45.6131 45.2237 45.5616 45.3283 45.4676C45.4353 45.3708 45.4848 45.2451 45.4767 45.0907C45.4706 44.9762 45.4336 44.8808 45.3655 44.8045C45.2999 44.7253 45.2191 44.6618 45.1231 44.6137C45.0297 44.5629 44.9025 44.5059 44.7416 44.4428C44.5588 44.3676 44.4124 44.301 44.3025 44.2431C44.1953 44.185 44.1017 44.1061 44.0217 44.0065C43.9416 43.9041 43.8974 43.7757 43.8893 43.6213C43.8837 43.5147 43.9021 43.4069 43.9444 43.2977C43.9894 43.1883 44.0698 43.093 44.1857 43.0117C44.3043 42.9303 44.4634 42.884 44.6631 42.8728C44.7829 42.866 44.9035 42.8753 45.025 42.9005C45.149 42.923 45.2636 42.9686 45.3687 43.0375L45.3437 42.8666L45.5474 42.8552L45.5936 43.734L45.4498 43.7421C45.4254 43.5324 45.3482 43.3592 45.2182 43.2222C45.0907 43.0825 44.9178 43.0187 44.6994 43.031C44.5397 43.0399 44.4169 43.0922 44.3312 43.1878C44.2453 43.2808 44.2058 43.3939 44.2128 43.527C44.2184 43.6335 44.2539 43.7237 44.3192 43.7975C44.3845 43.8713 44.4624 43.931 44.5529 43.9767C44.6434 44.0223 44.7705 44.078 44.9342 44.1436C45.1196 44.216 45.2686 44.2824 45.3813 44.3428C45.4966 44.4032 45.5957 44.4857 45.6787 44.5906C45.7615 44.6928 45.807 44.8224 45.8153 44.9795C45.8231 45.1287 45.7928 45.2626 45.7243 45.3813C45.6584 45.4998 45.5566 45.595 45.4188 45.6668C45.2811 45.7386 45.115 45.78 44.9207 45.7909Z" fill="black"/>
<path d="M75.9971 24.8863L75.9931 24.8865L76.095 26.5955C76.1044 26.7739 76.1087 26.9059 76.1078 26.9914L76.3945 26.9593L76.4038 27.1351L75.6729 27.176L75.666 27.0442C75.7725 27.0383 75.8414 27.0037 75.8728 26.9405C75.9042 26.8773 75.9176 26.8018 75.913 26.7139L75.8019 24.5247L75.5351 24.5557L75.5259 24.3799L76.0011 24.3533L77.8222 26.5347L77.8262 26.5345L77.734 24.7048C77.7281 24.5929 77.7271 24.4968 77.7308 24.4165L77.4441 24.4486L77.4349 24.2728L78.1697 24.2316L78.1767 24.3635C78.0969 24.3706 78.0379 24.3899 77.9995 24.4215C77.9636 24.4502 77.9416 24.4888 77.9335 24.5373C77.9253 24.5859 77.9234 24.6501 77.9276 24.73L77.9349 24.8698L78.0446 27.1071L77.8529 27.1179L75.9971 24.8863ZM78.7001 26.8741C78.7932 26.8662 78.8586 26.8411 78.8964 26.799C78.9343 26.7568 78.9545 26.7089 78.957 26.6553C78.9594 26.5991 78.957 26.5031 78.9498 26.3673L78.8591 24.6417C78.8532 24.5298 78.8522 24.4337 78.8559 24.3534L78.5692 24.3855L78.56 24.2097L80.481 24.102L80.5377 24.7999L80.4059 24.8073C80.3944 24.589 80.3387 24.4425 80.2386 24.368C80.1412 24.2933 80.0075 24.2634 79.8374 24.2783L79.4943 24.3056C79.3986 24.3136 79.3304 24.3361 79.2896 24.3731C79.2487 24.4075 79.2245 24.4556 79.2171 24.5174C79.2095 24.5766 79.2091 24.6701 79.2158 24.7979L79.2494 25.4371L80.0004 25.3989L79.9544 25.057L80.1301 25.0471L80.1742 25.886L80.0425 25.8934C80.0373 25.7948 80.0214 25.7209 79.9947 25.6717C79.968 25.6198 79.9289 25.5872 79.8775 25.5741C79.8286 25.5582 79.7602 25.5526 79.6723 25.5576L79.5487 25.5685L79.2578 25.5968L79.3059 26.5116C79.3132 26.6501 79.3147 26.7541 79.3103 26.8238L80.0725 26.7691C80.2587 26.7559 80.3987 26.7013 80.4925 26.6053C80.5861 26.5066 80.6269 26.344 80.615 26.1177L80.7508 26.11L80.7678 26.8903L78.707 27.0059L78.7001 26.8741ZM81.2815 24.7702L81.2213 24.6174C81.1469 24.4212 81.1015 24.2942 81.0851 24.2364L80.8619 24.2569L80.8527 24.0812L81.8232 24.0267L81.8301 24.1586C81.7212 24.17 81.645 24.193 81.6014 24.2275C81.5577 24.2593 81.5376 24.3098 81.5413 24.3791C81.5446 24.443 81.562 24.5195 81.5934 24.6085C81.6507 24.7842 81.7251 24.9804 81.8166 25.1969C81.832 25.2361 81.8505 25.2832 81.8721 25.338C81.8935 25.3903 81.9181 25.4516 81.9459 25.5222C81.9648 25.5772 81.988 25.6374 82.0154 25.7026C82.0429 25.7678 82.0627 25.8148 82.0749 25.8435C82.1357 25.9843 82.1817 26.0966 82.2128 26.1803L82.2208 26.1798C82.2645 25.9958 82.3098 25.8169 82.3568 25.6434C82.4364 25.3291 82.5244 24.997 82.6208 24.647C82.7217 24.2808 82.7819 24.0531 82.8012 23.9639L82.929 23.9567C82.9667 24.0641 83.0303 24.2328 83.1198 24.4628C83.2092 24.6902 83.274 24.8548 83.314 24.9567C83.406 25.1812 83.4691 25.3406 83.5034 25.4348C83.5285 25.5056 83.5688 25.6115 83.6243 25.7526C83.6856 25.904 83.7352 26.0335 83.7729 26.1409L83.7848 26.1402C83.8378 25.9289 83.8834 25.7541 83.9215 25.6157C84.037 25.222 84.1299 24.8829 84.2004 24.5985C84.2246 24.4983 84.2468 24.4143 84.2673 24.3464C84.3107 24.2077 84.3469 24.1082 84.3758 24.0478L84.0569 24.0777L84.0477 23.902L84.8584 23.8565L84.8653 23.9883C84.77 24.0044 84.6979 24.0284 84.6488 24.0606C84.6024 24.0925 84.5613 24.1483 84.5254 24.2277C84.4921 24.3044 84.4507 24.4309 84.4012 24.6073L84.2294 25.2259C84.0505 25.8849 83.9051 26.3965 83.7934 26.7607L83.6736 26.7674L82.8144 24.6722L82.2239 26.8487L82.1081 26.8552L81.2815 24.7702ZM86.1035 26.6552C85.9784 26.6622 85.851 26.652 85.7214 26.6245C85.5944 26.5969 85.4813 26.5525 85.3819 26.4913L85.4109 26.662L85.2033 26.6736L85.1346 25.8241L85.2903 25.8154C85.3157 26.0437 85.4035 26.2163 85.5539 26.3334C85.7041 26.4479 85.8897 26.4989 86.1107 26.4865C86.2731 26.4774 86.4066 26.4258 86.5111 26.3318C86.6182 26.235 86.6676 26.1094 86.6595 25.9549C86.6535 25.8404 86.6164 25.745 86.5483 25.6687C86.4828 25.5896 86.402 25.526 86.306 25.478C86.2125 25.4271 86.0854 25.3702 85.9245 25.3071C85.7416 25.2319 85.5953 25.1653 85.4854 25.1074C85.3782 25.0493 85.2846 24.9704 85.2046 24.8707C85.1244 24.7684 85.0803 24.64 85.0722 24.4855C85.0666 24.379 85.0849 24.2711 85.1273 24.1619C85.1722 24.0526 85.2527 23.9573 85.3686 23.876C85.4871 23.7945 85.6462 23.7482 85.8459 23.737C85.9657 23.7303 86.0864 23.7396 86.2079 23.7648C86.3319 23.7872 86.4465 23.8329 86.5516 23.9018L86.5265 23.7309L86.7302 23.7195L86.7764 24.5983L86.6327 24.6063C86.6083 24.3967 86.5311 24.2234 86.401 24.0865C86.2735 23.9467 86.1006 23.883 85.8823 23.8952C85.7225 23.9042 85.5998 23.9565 85.514 24.0521C85.4281 24.1451 85.3887 24.2581 85.3957 24.3913C85.4013 24.4978 85.4367 24.5879 85.502 24.6617C85.5673 24.7355 85.6452 24.7952 85.7358 24.8409C85.8263 24.8866 85.9534 24.9422 86.117 25.0078C86.3024 25.0802 86.4515 25.1467 86.5641 25.2071C86.6794 25.2674 86.7786 25.35 86.8615 25.4548C86.9444 25.557 86.9899 25.6867 86.9982 25.8438C87.006 25.9929 86.9757 26.1268 86.9071 26.2455C86.8413 26.3641 86.7395 26.4592 86.6017 26.5311C86.464 26.6029 86.2979 26.6443 86.1035 26.6552Z" fill="black"/>
<path d="M11.2115 29.7899L28.4028 28.6716" stroke="black" stroke-width="0.1"/>
<path d="M12.3635 50.2069L29.5548 49.0886" stroke="black" stroke-width="0.1"/>
<path d="M11.2973 31.2528L28.4887 30.1345" stroke="black" stroke-width="0.1"/>
<path d="M12.258 48.789L29.4494 47.6707" stroke="black" stroke-width="0.1"/>
<path d="M12.1953 47.371L29.3866 46.2527" stroke="black" stroke-width="0.1"/>
<path d="M12.1328 45.9081L29.3241 44.7898" stroke="black" stroke-width="0.1"/>
<path d="M12.0272 44.5341L29.2185 43.4158" stroke="black" stroke-width="0.1"/>
<path d="M11.8336 40.6332L29.0249 39.5149" stroke="black" stroke-width="0.1"/>
<path d="M11.7279 39.2152L28.9192 38.0969" stroke="black" stroke-width="0.1"/>
<path d="M11.5342 35.3588L28.7256 34.2405" stroke="black" stroke-width="0.1"/>
<path d="M11.4689 34.0453L28.6603 32.927" stroke="black" stroke-width="0.1"/>
<path d="M11.3831 32.6269L28.5745 31.5086" stroke="black" stroke-width="0.1"/>
<path d="M12.4995 53.4618L29.6908 52.3435" stroke="black" stroke-width="0.1"/>
<path d="M30.9935 28.3085L48.1848 27.1902" stroke="black" stroke-width="0.1"/>
<path d="M12.5853 54.9252L29.7766 53.8069" stroke="black" stroke-width="0.1"/>
<path d="M30.8879 26.89L48.0792 25.7717" stroke="black" stroke-width="0.1"/>
<path d="M30.8254 25.4716L48.0167 24.3533" stroke="black" stroke-width="0.1"/>
<path d="M30.7626 24.0092L47.954 22.8909" stroke="black" stroke-width="0.1"/>
<path d="M30.6572 22.6352L47.8485 21.5169" stroke="black" stroke-width="0.1"/>
<path d="M12.93 60.5819L30.1214 59.4636" stroke="black" stroke-width="0.1"/>
<path d="M12.8222 59.0307L30.0136 57.9124" stroke="black" stroke-width="0.1"/>
<path d="M12.7569 57.7177L29.9483 56.5994" stroke="black" stroke-width="0.1"/>
<path d="M12.6711 56.2992L29.8624 55.1809" stroke="black" stroke-width="0.1"/>
<path d="M31.0436 29.7011L48.235 28.5828" stroke="black" stroke-width="0.1"/>
<path d="M32.1954 50.1186L49.3867 49.0003" stroke="black" stroke-width="0.1"/>
<path d="M31.1295 31.164L48.3208 30.0457" stroke="black" stroke-width="0.1"/>
<path d="M32.0899 48.7006L49.2813 47.5823" stroke="black" stroke-width="0.1"/>
<path d="M31.6655 40.5453L48.8568 39.427" stroke="black" stroke-width="0.1"/>
<path d="M31.5598 39.1264L48.7511 38.0081" stroke="black" stroke-width="0.1"/>
<path d="M31.3663 35.2704L48.5576 34.1521" stroke="black" stroke-width="0.1"/>
<path d="M31.3011 33.9574L48.4924 32.8391" stroke="black" stroke-width="0.1"/>
<path d="M31.2153 32.538L48.4066 31.4197" stroke="black" stroke-width="0.1"/>
<path d="M52.0273 29.1063L69.2186 27.9881" stroke="black" stroke-width="0.1"/>
<path d="M51.7502 25.4716L68.9415 24.3533" stroke="black" stroke-width="0.1"/>
<path d="M51.6874 24.0531L68.8788 22.9348" stroke="black" stroke-width="0.1"/>
<path d="M51.6249 22.5902L68.8163 21.4719" stroke="black" stroke-width="0.1"/>
<path d="M51.5194 21.2167L68.7107 20.0984" stroke="black" stroke-width="0.1"/>
<path d="M52.0775 30.4994L69.2688 29.3811" stroke="black" stroke-width="0.1"/>
<path d="M52.1633 31.9618L69.3546 30.8435" stroke="black" stroke-width="0.1"/>
<path d="M52.6137 39.2152L69.8051 38.0969" stroke="black" stroke-width="0.1"/>
<path d="M52.508 37.7963L69.6994 36.678" stroke="black" stroke-width="0.1"/>
<path d="M52.4002 36.0683L69.5916 34.95" stroke="black" stroke-width="0.1"/>
<path d="M52.3349 34.7548L69.5263 33.6365" stroke="black" stroke-width="0.1"/>
<path d="M52.2493 33.3358L69.4407 32.2175" stroke="black" stroke-width="0.1"/>
<path d="M52.9719 45.5082L70.1632 44.3899" stroke="black" stroke-width="0.1"/>
<path d="M52.8663 44.0902L70.0576 42.9719" stroke="black" stroke-width="0.1"/>
<path d="M52.8035 42.6718L69.9949 41.5535" stroke="black" stroke-width="0.1"/>
<path d="M71.8863 21.2602L89.0777 20.1419" stroke="black" stroke-width="0.1"/>
<path d="M71.7806 19.8866L88.9719 18.7683" stroke="black" stroke-width="0.1"/>
<path d="M53.022 46.9013L70.2134 45.783" stroke="black" stroke-width="0.1"/>
<path d="M53.1076 48.3637L70.299 47.2454" stroke="black" stroke-width="0.1"/>
<path d="M53.6439 57.745L70.8352 56.6267" stroke="black" stroke-width="0.1"/>
<path d="M53.5382 56.3266L70.7295 55.2083" stroke="black" stroke-width="0.1"/>
<path d="M53.3447 52.4706L70.536 51.3523" stroke="black" stroke-width="0.1"/>
<path d="M53.2795 51.1571L70.4708 50.0388" stroke="black" stroke-width="0.1"/>
<path d="M53.1934 49.7382L70.3848 48.6199" stroke="black" stroke-width="0.1"/>
<path d="M72.718 32.2094L89.9093 31.0911" stroke="black" stroke-width="0.1"/>
<path d="M72.6124 30.7914L89.8037 29.6731" stroke="black" stroke-width="0.1"/>
<path d="M72.5496 29.3729L89.741 28.2547" stroke="black" stroke-width="0.1"/>
<path d="M72.7679 33.6024L89.9592 32.4841" stroke="black" stroke-width="0.1"/>
<path d="M72.854 35.0648L90.0453 33.9466" stroke="black" stroke-width="0.1"/>
<path d="M73.3902 44.4457L90.5816 43.3274" stroke="black" stroke-width="0.1"/>
<path d="M73.2842 43.0272L90.4756 41.909" stroke="black" stroke-width="0.1"/>
<path d="M73.0908 39.1713L90.2821 38.053" stroke="black" stroke-width="0.1"/>
<path d="M73.0256 37.8578L90.2169 36.7395" stroke="black" stroke-width="0.1"/>
<path d="M72.9395 36.4389L90.1309 35.3206" stroke="black" stroke-width="0.1"/>
<path d="M73.6622 48.7885L90.8535 47.6702" stroke="black" stroke-width="0.1"/>
<path d="M73.557 47.3705L90.7483 46.2522" stroke="black" stroke-width="0.1"/>
<path d="M73.4942 45.9525L90.6856 44.8342" stroke="black" stroke-width="0.1"/>
<path d="M73.7125 50.1815L90.9038 49.0632" stroke="black" stroke-width="0.1"/>
<path d="M73.7983 51.6444L90.9896 50.5261" stroke="black" stroke-width="0.1"/>
<path d="M74.0353 55.7504L91.2267 54.6321" stroke="black" stroke-width="0.1"/>
<path d="M73.97 54.4374L91.1614 53.3191" stroke="black" stroke-width="0.1"/>
<path d="M73.8842 53.0185L91.0756 51.9002" stroke="black" stroke-width="0.1"/>
<path d="M76.889 60.0231L86.1167 60.7925" stroke="black" stroke-width="0.1"/>
<path d="M68.8323 60.4763L85.9719 62.2505" stroke="black" stroke-width="0.1"/>
<path d="M68.4216 64.5681L85.5611 66.3423" stroke="black" stroke-width="0.1"/>
<path d="M68.5634 63.2609L85.7029 65.0351" stroke="black" stroke-width="0.1"/>
<path d="M68.7015 61.8464L85.841 63.6206" stroke="black" stroke-width="0.1"/>
<path d="M7.27537 54.7134L10.4388 55.1471" stroke="black" stroke-width="0.1"/>
<path d="M6.86483 58.8051L10.5247 59.3138" stroke="black" stroke-width="0.1"/>
<path d="M7.00735 57.4975L10.5248 57.9835" stroke="black" stroke-width="0.1"/>
<path d="M7.14482 56.0837L10.353 56.4766" stroke="black" stroke-width="0.1"/>
<path d="M8.21989 46.7337L9.83811 46.9013" stroke="black" stroke-width="0.1"/>
<path d="M7.80915 50.8255L10.0955 51.2456" stroke="black" stroke-width="0.1"/>
<path d="M7.95184 49.5183L10.0956 49.827" stroke="black" stroke-width="0.1"/>
<path d="M8.0893 48.104L9.92392 48.3196" stroke="black" stroke-width="0.1"/>
<path d="M8.53235 39.3325L9.31806 39.425" stroke="black" stroke-width="0.1"/>
<path d="M8.38437 43.5115L9.57145 43.6586" stroke="black" stroke-width="0.1"/>
<path d="M8.43166 42.1223L9.49212 42.3021" stroke="black" stroke-width="0.1"/>
<path d="M8.47918 40.7001L9.38136 40.8309" stroke="black" stroke-width="0.1"/>
<path d="M49.2763 62.6179L66.4158 64.3921" stroke="black" stroke-width="0.1"/>
<path d="M43.0628 61.9734L46.8412 62.3522" stroke="black" stroke-width="0.1"/>
<path d="M52.6785 61.5306L66.5576 63.0848" stroke="black" stroke-width="0.1"/>
<path d="M59.375 60.9981L66.6959 61.6701" stroke="black" stroke-width="0.1"/>
<path d="M32.3314 53.3739L49.5227 52.2556" stroke="black" stroke-width="0.1"/>
<path d="M32.4172 54.8363L49.6085 53.718" stroke="black" stroke-width="0.1"/>
<path d="M32.6541 58.9428L49.8455 57.8245" stroke="black" stroke-width="0.1"/>
<path d="M32.5888 57.6288L49.7802 56.5105" stroke="black" stroke-width="0.1"/>
<path d="M32.503 56.2103L49.6944 55.0921" stroke="black" stroke-width="0.1"/>
<defs>
<filter id="filter0_d" x="-0.00012207" y="0.925781" width="96.8227" height="76.5739" filterUnits="userSpaceOnUse" color-interpolation-filters="sRGB">
<feFlood flood-opacity="0" result="BackgroundImageFix"/>
<feColorMatrix in="SourceAlpha" type="matrix" values="0 0 0 0 0 0 0 0 0 0 0 0 0 0 0 0 0 0 127 0"/>
<feOffset dy="4"/>
<feGaussianBlur stdDeviation="2"/>
<feColorMatrix type="matrix" values="0 0 0 0 0 0 0 0 0 0 0 0 0 0 0 0 0 0 0.25 0"/>
<feBlend mode="normal" in2="BackgroundImageFix" result="effect1_dropShadow"/>
<feBlend mode="normal" in="SourceGraphic" in2="effect1_dropShadow" result="shape"/>
</filter>
<filter id="filter1_d" x="3.38318" y="0" width="95.1714" height="72.0601" filterUnits="userSpaceOnUse" color-interpolation-filters="sRGB">
<feFlood flood-opacity="0" result="BackgroundImageFix"/>
<feColorMatrix in="SourceAlpha" type="matrix" values="0 0 0 0 0 0 0 0 0 0 0 0 0 0 0 0 0 0 127 0"/>
<feOffset dy="4"/>
<feGaussianBlur stdDeviation="2"/>
<feColorMatrix type="matrix" values="0 0 0 0 0 0 0 0 0 0 0 0 0 0 0 0 0 0 0.25 0"/>
<feBlend mode="normal" in2="BackgroundImageFix" result="effect1_dropShadow"/>
<feBlend mode="normal" in="SourceGraphic" in2="effect1_dropShadow" result="shape"/>
</filter>
</defs>
</svg>
