<svg width="57" height="97" viewBox="0 0 57 97" fill="none" xmlns="http://www.w3.org/2000/svg">
<path d="M53.3278 1.90388C52.661 1.35521 52.2516 1.06563 49.0209 1.78525C46.7938 17.554 44.4268 23.1923 39.0124 29.8332C32.78 32.4609 28.5737 31.3386 20.7877 28.305C19.3891 26.9377 18.1191 17.1482 15.996 1.0808C14.3935 0.711468 13.4864 0.722396 11.8886 1.1729C10.2095 14.1947 8.59402 22.2056 4.7304 37.5091C0.894175 49.5397 0.641517 55.3159 1.92816 64.7294C0.0741839 70.3655 0.144263 76.1256 2.42427 91.4248C17.8613 97.2889 15.9214 96.9276 33.9683 93.7304C43.1767 95.3766 46.5614 95.3994 51.3839 94.8259C53.7589 86.2493 54.7151 80.6846 53.8325 65.5434C54.0367 39.8184 53.8725 26.0042 53.3278 1.90388Z" fill="#003278" fill-opacity="0.5" stroke="black" stroke-width="0.1"/>
<path d="M15.4989 7.9427C15.7941 5.11197 15.8907 3.62466 15.9958 1.08071C18.646 19.1678 19.7596 26.0279 20.5881 28.0942C30.9212 32.1748 34.2243 31.6977 39.0178 29.6281C45.2174 22.5732 47.0717 16.0329 48.9125 1.98743C48.0132 19.0639 47.1089 28.3967 41.8351 42.8413L42.5323 39.8844L40.5876 43.4226L44.0828 32.0253C33.2113 36.0856 26.866 35.9989 15.1456 31.9465C14.8242 29.9742 14.837 28.6947 15.0987 26.1984C16.3741 19.4508 17.1394 15.6849 15.4989 7.9427Z" fill="#3D3B3B" fill-opacity="0.5" stroke="black" stroke-width="0.1"/>
<path d="M50.6106 52.1143C51.6655 49.6912 52.3144 48.0282 53.9524 42.5598L54.0163 47.6927C53.2432 49.3468 52.3375 50.3363 50.6106 52.1143Z" fill="#3D3B3B" fill-opacity="0.5" stroke="black" stroke-width="0.1"/>
<path d="M49.9698 53.02C51.4498 54.5951 52.2866 55.7167 53.8682 60.5162L53.9499 68.7282C52.9387 63.8135 52.2243 61.3668 50.3385 58.2639C51.5354 58.9476 51.8993 59.3664 52.1335 60.1605C52.1411 57.6155 51.6462 56.0495 49.9698 53.02Z" fill="#3D3B3B" fill-opacity="0.5" stroke="black" stroke-width="0.1"/>
<path d="M11.0267 92.0723C7.68357 91.6921 5.80051 91.5467 2.42432 91.4248C11.992 94.7401 14.3385 99.2507 34.0737 93.6307C29.6926 92.4838 24.8739 96.0455 15.6647 95.0734C13.7677 94.2037 12.7542 93.5583 11.0267 92.0723Z" fill="#3D3B3B" fill-opacity="0.5" stroke="black" stroke-width="0.1"/>
<path d="M3.38579 49.0688C2.33673 50.6753 1.95658 53.4085 1.61686 61.1295C0.717584 53.2912 1.50821 47.0268 6.56321 30.5818C5.88081 34.1928 5.58662 35.7685 5.35698 37.1163L7.23103 36.1417C6.42935 36.8637 5.91762 37.4779 4.78212 39.3582L6.64204 38.8963C3.48605 41.9349 4.24254 47.4831 4.53526 55.7709L3.38579 49.0688Z" fill="#3D3B3B" fill-opacity="0.5" stroke="black" stroke-width="0.1"/>
<path d="M39.2259 29.5312C36.4926 31.0713 33.2637 31.9053 20.9081 31.387C27.3373 35.7084 31.7704 36.1908 41.7161 32.268C45.0906 26.2451 46.5439 21.146 48.0367 7.71021C46.3047 17.5883 44.6647 22.5947 39.2259 29.5312Z" fill="#D9D9D9" fill-opacity="0.5" stroke="black" stroke-width="0.1"/>
<path d="M13.2334 26.8652C12.798 34.5352 13.1933 38.3987 14.3769 44.9582" stroke="black" stroke-width="0.1"/>
<path d="M9.26628 18.1358C9.03085 27.5972 8.61235 31.9794 7.75585 39.4395" stroke="black" stroke-width="0.1"/>
<path d="M11.7861 1.1703C11.1197 15.6133 10.6251 23.4638 9.27342 36.5057" stroke="black" stroke-width="0.1"/>
<path d="M13.7459 0.813991C12.9473 10.3207 12.7915 14.773 12.64 22.3341" stroke="black" stroke-width="0.1"/>
<path d="M14.8737 0.84469L13.7169 24.2106" stroke="black" stroke-width="0.1"/>
<path d="M51.0774 1.63636C50.1175 13.7307 49.45 18.917 48.1322 26.595" stroke="black" stroke-width="0.1"/>
<path d="M52.8235 1.58247C51.0308 19.3219 50.0527 28.1006 48.482 36.2517" stroke="black" stroke-width="0.1"/>
<path d="M43.8804 43.1031C45.5082 39.8953 46.4544 37.6713 48.2985 31.7312" stroke="black" stroke-width="0.1"/>
<circle cx="27.8219" cy="65.8549" r="14.5168" fill="#B41E0A" stroke="black" stroke-width="0.1"/>
<circle cx="27.7965" cy="65.8298" r="13.5811" fill="#FFE300" stroke="black" stroke-width="0.1"/>
<path d="M27.3161 64.2301V63.2944L31.5901 63.3071C34.3656 63.541 34.3277 68.15 31.5901 68.3397H27.3098V67.4419H28.0369V64.2301H27.3161Z" fill="#003278" stroke="black" stroke-width="0.1"/>
<path d="M30.6101 66.7907V64.8687C31.2519 64.8733 31.4859 65.0212 31.4573 65.8549C31.4446 66.6384 31.2282 66.8027 30.6101 66.7907Z" fill="#FFE300" stroke="black" stroke-width="0.1"/>
<path d="M21.7651 67.524V66.582L24.5375 63.8159L26.9195 66.1979L28.0275 65.0899V66.0098L24.1424 69.8949L23.6998 69.4523L24.4111 68.7411L22.4796 66.8096L21.7651 67.524Z" fill="#B41E0A" stroke="black" stroke-width="0.1"/>
<path d="M15.7208 64.2112V63.3008H20.0201V64.2112H19.274V67.2207L21.765 65.8171V68.3587H15.7208V67.4483H16.4416V64.2112H15.7208Z" fill="#003278" stroke="black" stroke-width="0.1"/>
<path d="M33.803 64.2366V63.3262H38.1022V64.2366H37.3562V67.2461L39.8472 65.8425V68.3841H33.803V67.4737H34.5237V64.2366H33.803Z" fill="#003278" stroke="black" stroke-width="0.1"/>
<circle cx="24.1613" cy="61.9415" r="1.52428" fill="#B41E0A" stroke="black" stroke-width="0.1"/>
</svg>
