<svg width="35" height="24" viewBox="0 0 35 24" fill="none" xmlns="http://www.w3.org/2000/svg">
<path d="M31.592 5.68264C28.1551 1.39892 22.407 -0.742926 17.9034 2.86765L24.7181 2.62283L31.592 5.68264Z" fill="#CAC9DC" stroke="black" stroke-width="0.1"/>
<path d="M16.5998 5.13206L15.4738 4.70369L7.71106 23.0012H15.4738C18.0989 22.1457 23.733 20.5816 30.2291 18.7175L32.5401 17.616L33.9623 11.4352C34.2586 4.03053 22.407 -0.742717 17.9034 2.92902L16.5998 5.13206Z" fill="#DA002E" stroke="black" stroke-width="0.1"/>
<path d="M0.649653 12.7884L0.649785 12.7884L0.650036 12.7848C0.826853 10.1981 2.10909 7.74586 3.97611 5.88637C5.84266 4.02735 8.29044 2.76405 10.7946 2.55049C12.0238 2.55073 13.0263 2.7564 13.8295 3.16373C14.6326 3.57093 15.2393 4.18102 15.6752 4.99487C16.5486 6.6256 16.7369 9.07577 16.4315 12.3483C16.1954 14.8781 15.1178 17.5308 13.4869 19.5503C11.8569 21.5687 9.67911 22.9492 7.24169 22.951C2.06586 21.9764 0.0595572 16.9323 0.649653 12.7884Z" fill="#979DB1" stroke="black" stroke-width="0.1"/>
<path d="M15.6612 11.6744C15.4162 13.8429 14.7953 16.3286 13.6101 18.2707C12.4266 20.2099 10.6838 21.6027 8.19101 21.6049C5.77569 21.0257 4.26377 19.8848 3.35396 18.3764C2.44308 16.8663 2.13212 14.9819 2.13154 12.9097C3.31471 7.84844 7.19424 4.05121 12.2077 4.75322C13.0754 4.87471 13.7484 5.13998 14.2644 5.52405C14.7801 5.90794 15.1415 6.41252 15.383 7.01708C15.8669 8.22865 15.8685 9.83955 15.6612 11.6744Z" fill="#9495AC" stroke="black" stroke-width="0.1"/>
<path d="M12.479 17.2711L12.4788 17.2709L12.4749 17.2753C11.7993 18.0336 10.933 18.5791 10.098 18.8212C9.2637 19.063 8.46905 19.0002 7.92321 18.5578C7.42588 17.9576 7.24084 16.9359 7.37117 15.8902C7.50159 14.8438 7.94636 13.7874 8.69124 13.1255C9.44753 12.4534 10.1827 11.8773 10.9256 11.5822C11.6649 11.2886 12.4112 11.2733 13.1959 11.7227C13.5231 11.9588 13.7379 12.3362 13.8511 12.796C13.9646 13.2566 13.9752 13.7967 13.8964 14.3503C13.7387 15.4589 13.2242 16.6089 12.479 17.2711Z" fill="#212528" stroke="black" stroke-width="0.1"/>
<path d="M11.2073 11.2513C11.4387 12.971 11.2121 13.656 10.3184 14.4947C8.86917 15.5119 8.07365 15.6075 6.70371 14.4947L3.80007 10.6394C3.49347 9.81946 3.24133 8.98711 3.50378 8.68114C4.50996 7.50797 4.95577 6.89526 6.46666 6.17212C7.1864 6.2968 7.79437 6.58544 8.42219 7.15125L11.2073 11.2513Z" fill="#CAC9DC" stroke="black" stroke-width="0.1"/>
<path d="M6.51006 7.39475C6.81867 7.40133 7.14521 7.52896 7.4905 7.8529C7.77696 8.63497 7.65256 9.6968 6.79812 10.1674C6.35707 10.4103 5.982 10.5275 5.65526 10.5055C5.33362 10.4839 5.05105 10.3267 4.79259 10.0031C4.67523 9.66883 4.56345 9.28497 4.63445 8.88902C4.70543 8.49321 4.96117 8.07585 5.60387 7.68367C5.896 7.50541 6.19749 7.38809 6.51006 7.39475Z" fill="#9495AC" stroke="black" stroke-width="0.1"/>
<path d="M9.34132 13.2301L9.341 13.2297L9.3357 13.2348C8.89387 13.6606 8.53811 13.8798 8.24788 13.9598C7.96081 14.0389 7.7355 13.9826 7.54747 13.8496C7.35669 13.7146 7.20185 13.4987 7.06398 13.2548C6.97762 13.102 6.90024 12.9427 6.82497 12.7878C6.78123 12.6978 6.7382 12.6093 6.69454 12.5243C6.69539 12.1072 6.7404 11.6302 6.89847 11.2281C7.05754 10.8235 7.32895 10.499 7.78293 10.3818C8.25515 10.2599 8.62838 10.2173 8.96216 10.3273C9.29465 10.4369 9.59771 10.7013 9.92061 11.2167C9.95619 11.2735 9.99611 11.3302 10.0357 11.3864C10.0398 11.3922 10.0438 11.3979 10.0479 11.4037C10.0918 11.4661 10.135 11.5283 10.1736 11.5926C10.2507 11.721 10.3067 11.8537 10.3095 12.0019C10.3151 12.2964 10.1098 12.6807 9.34132 13.2301Z" fill="#9495AC" stroke="black" stroke-width="0.1"/>
<path d="M22.4663 3.47975C22.8784 2.92731 23.0455 2.53988 23.2367 1.70508C24.9364 1.96168 25.9342 2.23089 27.8588 3.11258C27.7621 3.7973 27.8507 4.98086 28.0958 7.57985C25.8446 4.49252 24.5993 3.23227 22.4663 3.47975Z" fill="#FFC7CA" stroke="black" stroke-width="0.1"/>
<path d="M22.9996 7.09014C23.7416 5.39756 24.1479 4.682 24.8366 4.27515C28.1143 7.82289 29.463 11.1483 31.8291 17.1874C29.5371 12.1421 28.2392 9.39902 25.4885 7.39612L23.4144 10.3335L22.9996 7.09014Z" fill="#990119" stroke="black" stroke-width="0.1"/>
<path d="M24.1256 3.84685C22.8908 3.55901 22.2385 3.6164 21.1627 4.15283C21.4498 5.04718 21.5863 5.54696 21.5183 6.41706C22.0321 7.34185 22.235 7.92222 22.4664 9.04847V6.96782C23.0181 5.68165 23.3451 4.97306 24.1256 3.84685Z" fill="#990119" stroke="black" stroke-width="0.1"/>
<path d="M16.5998 5.13184C19.7997 5.80499 23.4145 11.0678 30.7032 17.4321L24.6589 14.3112C22.0092 15.4298 20.703 16.432 18.3775 18.2277L15.7109 22.9397" stroke="black" stroke-width="0.1"/>
<path d="M21.1034 10.7004C22.0856 12.3198 22.8383 13.0821 24.3626 14.311C22.7743 14.5035 21.5074 14.5195 19.0293 14.4946L17.9034 15.5961C18.0189 13.8821 18.1436 12.9331 19.0293 11.3736L21.1034 10.7004Z" fill="#990119" stroke="black" stroke-width="0.1"/>
<path d="M18.7423 8.19152C18.7423 8.37956 18.7536 8.51626 18.7629 8.62056C18.7634 8.62616 18.7639 8.63165 18.7643 8.63703C18.773 8.73388 18.7786 8.79558 18.7723 8.84675C18.7663 8.896 18.7491 8.9357 18.7048 8.98586C18.6602 9.03637 18.5901 9.09533 18.4791 9.18167C17.9863 9.17143 17.4201 8.71511 17.4201 8.00793C17.4201 7.63437 17.4202 7.42455 17.4419 7.26939C17.4617 7.12714 17.4995 7.03145 17.5765 6.89585C17.8156 6.90634 18.101 7.04666 18.3313 7.27504C18.5699 7.51169 18.7423 7.83614 18.7423 8.19152Z" fill="#FFC7CA" stroke="black" stroke-width="0.1"/>
<path d="M20.2922 21.5972L15.6108 23.0047L18.3367 18.1091C21.0754 15.9615 22.278 15.3666 24.4995 14.3762L21.5366 18.5375L22.6033 20.8629L20.2922 21.5972Z" fill="#990119" stroke="black" stroke-width="0.1"/>
</svg>
