<svg width="97" height="23" viewBox="0 0 97 23" fill="none" xmlns="http://www.w3.org/2000/svg">
<path d="M95.3298 1.9279C97.0798 3.09999 96.8906 19.4604 95.8028 20.9744C94.9323 21.5904 94.475 21.7669 93.6744 22L45.3833 21.7558C42.0251 21.3651 40.1272 20.3785 36.9643 17.3116C31.9599 15.7305 27.3175 16.1439 17.383 16.0907L16.7208 16.4814L14.1667 16.2128V15.7C13.4648 16.1488 13.0713 16.0543 12.3694 15.7V8.17906C13.1512 8.1007 13.4021 7.82823 13.7883 7.88603H14.4505L16.6025 7.95929L17.383 7.88603C27.8442 7.32819 32.2034 6.82385 36.9643 5.54185C39.6441 2.70955 41.7413 1.58605 45.3833 1L92.8703 1.24418C93.9047 1.20867 94.4368 1.38416 95.3298 1.9279Z" fill="#332C00" stroke="black" stroke-width="0.1"/>
<path d="M29.2195 16.1555C29.5114 11.9813 29.4832 9.88293 28.7212 7.03857C24.116 7.43924 21.534 7.58882 16.9281 7.7493L16.5959 7.45521L14.2943 7.55324L13.7485 7.89635H13.8434L14.0095 8.11692V8.43552L13.9621 8.70511V8.9747L13.8434 9.48936L13.6773 9.73444V10.9843L13.3926 11.2784H13.0841V11.597L13.5587 11.9647L13.6773 11.7196L13.7485 11.9647L13.8434 12.8224L13.9621 14.0478L13.8434 13.9988L14.0095 14.44L13.8434 14.8566H14.0095L14.1993 15.2977L14.1282 15.7389V16.2781C14.579 16.5044 15.3997 16.4865 16.6908 16.4986L17.3552 16.1065L29.2195 16.1555Z" fill="#070405" stroke="black" stroke-width="0.1"/>
<path d="M12.3694 14.8366V9.04557C7.96588 8.94625 5.48579 8.97157 1.05126 9.09444C0.949138 11.6021 1.00117 12.9101 1.19333 15.1543C5.59726 15.3044 8.07768 15.4668 12.3694 14.8366Z" fill="#BB8E61" stroke="black" stroke-width="0.1"/>
<path d="M51.2521 15.8651C50.952 20.5487 50.6797 21.4543 50.1161 21.7866L76.4581 21.9335C76.9995 15.7497 76.9681 11.3176 76.1031 1.13477H64.8373C58.8683 5.19875 55.9927 8.41431 51.3941 15.2045L51.2521 15.8651Z" fill="#B49F7F" stroke="black" stroke-width="0.1"/>
<path d="M57.5225 11.7477L51.4155 15.1565L55.0275 11.6006L57.5225 11.7477Z" fill="#606060" stroke="black" stroke-width="0.1"/>
<path d="M55.0726 12.1619C53.9509 12.9984 53.0869 13.7429 51.4155 15.2234C55.6343 8.47328 58.7646 5.59334 64.864 1.06689C64.5459 6.44439 65.4331 10.4018 61.7732 12.8232C58.4754 12.1058 56.4276 11.5696 55.0726 12.1619Z" fill="#F8F8F8" stroke="black" stroke-width="0.1"/>
<ellipse cx="11.2649" cy="10.4265" rx="0.129936" ry="0.503194" fill="#713C12"/>
<ellipse cx="1.45477" cy="12.2381" rx="0.129936" ry="0.503194" fill="#713C12"/>
<ellipse cx="2.42937" cy="9.95681" rx="0.129936" ry="0.503194" fill="#713C12"/>
<ellipse cx="3.72881" cy="10.9636" rx="0.129936" ry="0.503194" fill="#713C12"/>
<ellipse cx="7.30193" cy="14.2508" rx="0.129936" ry="0.503194" fill="#713C12"/>
<ellipse cx="12.2396" cy="13.2444" rx="0.129936" ry="0.503194" fill="#713C12"/>
<ellipse cx="3.4688" cy="14.7874" rx="0.129936" ry="0.503194" fill="#713C12"/>
<ellipse cx="8.21148" cy="9.95681" rx="0.129936" ry="0.503194" fill="#713C12"/>
<ellipse cx="4.50823" cy="13.2444" rx="0.129936" ry="0.503194" fill="#713C12"/>
<ellipse cx="6.00262" cy="11.6341" rx="0.129936" ry="0.503194" fill="#713C12"/>
<ellipse cx="9.38079" cy="13.2444" rx="0.129936" ry="0.503194" fill="#713C12"/>
</svg>
