<svg width="1000" height="100" viewBox="0 0 1000 100" fill="none" xmlns="http://www.w3.org/2000/svg">
<rect width="1000" height="100" fill="none"/>
<path d="M948.085 52.4785C948.085 52.4785 947.398 52.4014 948.097 52.875L948.827 52.3799L948.221 52.1729L948.085 52.4785Z" fill="#382816" stroke="black" stroke-width="0.1"/>
<path d="M847.105 52.3799C847.105 52.3799 846.895 52.4014 847.594 52.875L848.324 52.3799L848.469 51.9375L847.718 52.1729L847.105 52.3799Z" fill="#382816" stroke="black" stroke-width="0.1"/>
<path d="M749.719 51L749.344 51.0625L748.438 51.5L747.957 51.9805L747.344 52.1875C747.344 52.1875 747.875 52.5625 747.843 53.1875L748.562 52.1875L749.719 51Z" fill="#382816" stroke="black" stroke-width="0.1"/>
<ellipse cx="747.988" cy="52.6672" rx="0.204654" ry="0.105673" fill="#5A4017"/>
<path d="M747.656 52.5625C747.155 51.9941 747.494 52.2091 747.187 52.1562C747.119 52.5415 747.241 52.7693 747.293 52.8222C747.344 52.875 747.499 53.5625 747.843 53.3125C747.812 52.7812 747.843 53.3125 747.656 52.5625Z" fill="#544F40" stroke="black" stroke-width="0.1"/>
<path d="M650.969 50.1875L650.281 49.875L649.926 49.2618L649.52 50.5118L647.957 51.9805L646.52 52.4337C647.491 53.0769 646.688 52.5625 647.844 53.1875L649.062 51.6562L650.77 50.5118L650.969 50.1875Z" fill="#382816" stroke="black" stroke-width="0.1"/>
<ellipse cx="647.988" cy="52.6672" rx="0.204654" ry="0.105673" fill="#5A4017"/>
<path d="M647.25 52.7797C646.749 52.2114 646.748 52.4865 646.441 52.4337C646.373 52.8189 646.77 53.3087 646.821 53.3615C646.872 53.4143 647.5 53.5625 647.844 53.3125C647.812 52.7812 647.875 53.0625 647.25 52.7797Z" fill="#544F40" stroke="black" stroke-width="0.1"/>
<path d="M551.984 49.3438C551.058 48.7053 551.891 48.9062 551.437 47.9531L549.969 49.2031L549.562 50.4531L548 51.9219L546.562 52.375C547.534 53.0183 547.3 52.6789 547.734 53.8438L549.766 51.9688L550.812 50.4531L552.781 49.6562L551.984 49.3438Z" fill="#382816" stroke="black" stroke-width="0.1"/>
<path d="M550.18 49.1741L550.059 49.1328L550.273 48.9531L550.589 49.3326L550.18 49.1741Z" fill="#2D1101" stroke="black" stroke-width="0.1"/>
<path d="M550.794 49.227C551.116 49.604 551.238 49.6947 551.408 49.7554" stroke="black" stroke-width="0.1"/>
<ellipse cx="551.306" cy="48.54" rx="0.204654" ry="0.158509" fill="#5A4017"/>
<ellipse cx="551.868" cy="49.7024" rx="0.255818" ry="0.158509" fill="#5A4017"/>
<ellipse cx="548.031" cy="52.6085" rx="0.204654" ry="0.105673" fill="#5A4017"/>
<path d="M547.406 53C546.905 52.4317 546.791 52.4278 546.484 52.375C546.416 52.7602 546.813 53.25 546.864 53.3028C546.915 53.3557 547.176 53.7165 547.687 53.875C547.636 53.5051 547.744 53.4842 547.406 53Z" fill="#544F40" stroke="black" stroke-width="0.1"/>
<path d="M453.187 48.5625C452.261 47.9241 452.344 46.625 451.428 46.5323L451.406 47.9531L449.637 48.8572L448.312 51.125L446.531 52.375C447.502 53.0183 447.412 53.1873 447.846 54.3521L450 52.0625L451.391 50.2656L452.75 49.6562L453.187 48.5625Z" fill="#382816" stroke="black" stroke-width="0.1"/>
<path d="M449.842 49.0156L449.688 48.8125L450.203 48.5781L449.995 48.8042L450.2 48.9099L450.558 49.3326L450.149 49.1741L449.842 49.0156Z" fill="#2D1101" stroke="black" stroke-width="0.1"/>
<path d="M450.763 49.227C451.085 49.604 451.207 49.6947 451.377 49.7554" stroke="black" stroke-width="0.1"/>
<path d="M451.888 47.4832C451.888 47.5707 451.774 47.6417 451.633 47.6417C451.491 47.6417 451.461 47.5719 451.461 47.4844C451.461 47.3968 451.491 47.3246 451.633 47.3246C451.774 47.3246 451.888 47.3956 451.888 47.4832Z" fill="#5A4017"/>
<ellipse cx="451.274" cy="48.54" rx="0.204654" ry="0.158509" fill="#5A4017"/>
<ellipse cx="451.632" cy="48.0118" rx="0.153491" ry="0.158509" fill="#5A4017"/>
<ellipse cx="451.837" cy="49.7024" rx="0.255818" ry="0.158509" fill="#5A4017"/>
<path d="M448.818 50.8121C448.818 50.9288 448.727 51.0235 448.614 51.0235C448.501 51.0235 448.52 50.9644 448.52 50.8477C448.52 50.8477 448.566 50.7578 448.664 50.6602C448.738 50.6219 448.818 50.6954 448.818 50.8121Z" fill="#5A4017"/>
<path d="M449.33 50.0195C449.33 50.1071 449.239 50.178 449.126 50.178C449.012 50.178 449 50.1149 449 50.0273C449.035 49.9414 449.055 49.9023 449.126 49.861C449.239 49.861 449.33 49.932 449.33 50.0195Z" fill="#5A4017"/>
<ellipse cx="448" cy="52.6085" rx="0.204654" ry="0.105673" fill="#5A4017"/>
<ellipse cx="448.972" cy="52.7143" rx="0.153491" ry="0.105673" fill="#5A4017"/>
<ellipse cx="448.153" cy="53.718" rx="0.0511635" ry="0.158509" fill="#5A4017"/>
<path d="M447.312 53.0625C446.811 52.4942 446.76 52.4278 446.453 52.375C446.384 52.7602 446.67 53.4009 446.721 53.4537C446.772 53.5065 447.284 54.1934 447.795 54.3519C447.744 53.9821 447.65 53.5467 447.312 53.0625Z" fill="#544F40" stroke="black" stroke-width="0.1"/>
<path d="M353.832 48.8572C352.906 48.2188 352.344 46.625 351.428 46.5323L351.125 47.75L349.637 48.8572L348 50.7812L346.056 52.0273C347.027 52.6706 347.412 53.1873 347.846 54.3521L350 52.0625L352.195 50.6008L352.75 49.6562L353.832 48.8572Z" fill="#4E371F" stroke="black" stroke-width="0.1"/>
<path d="M349.842 49.0156L349.586 48.9099L350.062 48.5312L349.995 48.8042L350.2 48.9099L350.558 49.3326L350.149 49.1741L349.842 49.0156Z" fill="#2D1101" stroke="black" stroke-width="0.1"/>
<path d="M350.763 49.227C351.085 49.604 351.207 49.6947 351.377 49.7554" stroke="black" stroke-width="0.1"/>
<ellipse cx="351.633" cy="47.4832" rx="0.255818" ry="0.158509" fill="#63491D"/>
<ellipse cx="350.507" cy="48.4343" rx="0.153491" ry="0.264182" fill="#63491D"/>
<ellipse cx="351.275" cy="48.54" rx="0.204654" ry="0.158509" fill="#63491D"/>
<ellipse cx="351.632" cy="48.0118" rx="0.153491" ry="0.158509" fill="#63491D"/>
<ellipse cx="351.837" cy="49.7024" rx="0.255818" ry="0.158509" fill="#63491D"/>
<ellipse cx="353.065" cy="49.0684" rx="0.153491" ry="0.158509" fill="#63491D"/>
<ellipse cx="347.846" cy="51.3401" rx="0.153491" ry="0.211346" fill="#63491D"/>
<ellipse cx="348.614" cy="50.8121" rx="0.204654" ry="0.211346" fill="#63491D"/>
<ellipse cx="349.126" cy="50.0195" rx="0.204654" ry="0.158509" fill="#63491D"/>
<ellipse cx="346.721" cy="51.816" rx="0.153491" ry="0.0528364" fill="#63491D"/>
<ellipse cx="348" cy="52.6085" rx="0.204654" ry="0.105673" fill="#63491D"/>
<ellipse cx="348.972" cy="52.7143" rx="0.153491" ry="0.105673" fill="#63491D"/>
<ellipse cx="348.153" cy="53.718" rx="0.0511635" ry="0.158509" fill="#63491D"/>
<ellipse rx="0.102706" ry="0.315913" transform="matrix(0.939013 -0.343881 0.324776 0.945791 350.66 51.1291)" fill="#63491D"/>
<path d="M347.13 52.9782C346.629 52.4098 346.312 52.1328 346.005 52.08C345.936 52.4652 346.67 53.4009 346.721 53.4537C346.772 53.5065 347.284 54.1934 347.795 54.3519C347.744 53.9821 347.468 53.4624 347.13 52.9782Z" fill="#544F40" stroke="black" stroke-width="0.1"/>
<path d="M249.637 48.8572L246.056 52.0273C247.027 52.6706 247.412 53.1873 247.846 54.3521L252.195 50.6008L253.832 48.8572C252.906 48.2188 252.344 46.625 251.428 46.5323L249.637 48.8572Z" fill="#775531" stroke="black" stroke-width="0.1"/>
<path d="M249.842 49.0156L249.586 48.9099L249.995 48.3815V48.8042L250.2 48.9099L250.558 49.3326L250.149 49.1741L249.842 49.0156Z" fill="#401901" stroke="black" stroke-width="0.1"/>
<path d="M250.763 49.227C251.085 49.604 251.207 49.6947 251.377 49.7554" stroke="black" stroke-width="0.1"/>
<ellipse cx="251.633" cy="47.4832" rx="0.255818" ry="0.158509" fill="#90713F"/>
<ellipse cx="250.507" cy="48.4343" rx="0.153491" ry="0.264182" fill="#90713F"/>
<ellipse cx="251.275" cy="48.54" rx="0.204654" ry="0.158509" fill="#90713F"/>
<ellipse cx="251.632" cy="48.0118" rx="0.153491" ry="0.158509" fill="#90713F"/>
<ellipse cx="251.837" cy="49.7024" rx="0.255818" ry="0.158509" fill="#90713F"/>
<ellipse cx="253.065" cy="49.0684" rx="0.153491" ry="0.158509" fill="#90713F"/>
<ellipse cx="247.846" cy="51.3401" rx="0.153491" ry="0.211346" fill="#90713F"/>
<ellipse cx="248.614" cy="50.8121" rx="0.204654" ry="0.211346" fill="#90713F"/>
<ellipse cx="249.126" cy="50.0195" rx="0.204654" ry="0.158509" fill="#90713F"/>
<ellipse cx="246.721" cy="51.816" rx="0.153491" ry="0.0528364" fill="#90713F"/>
<ellipse cx="248" cy="52.6085" rx="0.204654" ry="0.105673" fill="#90713F"/>
<ellipse cx="248.972" cy="52.7143" rx="0.153491" ry="0.105673" fill="#90713F"/>
<ellipse cx="248.153" cy="53.718" rx="0.0511635" ry="0.158509" fill="#90713F"/>
<ellipse rx="0.102706" ry="0.315913" transform="matrix(0.939013 -0.343881 0.324776 0.945791 250.66 51.1291)" fill="#90713F"/>
<path d="M247.13 52.9782C246.629 52.4098 246.312 52.1328 246.005 52.08C245.936 52.4652 246.67 53.4009 246.721 53.4537C246.772 53.5065 247.284 54.1934 247.795 54.3519C247.744 53.9821 247.468 53.4624 247.13 52.9782Z" fill="#706A55" stroke="black" stroke-width="0.1"/>
<path d="M151.46 46.0648V46.2761L151.991 46.6379L152.656 47.7475L153.423 48.5929H154.14L154.242 48.3287L154.14 48.1702L153.986 47.9588L153.73 47.7475L153.526 47.3776L153.321 47.2719V47.0606V46.8493L153.219 46.9549L152.963 46.8493L152.809 46.7964L152.963 46.6907L153.062 46.5312L152.909 46.3199H152.602L152.483 46.4346L152.381 46.1704L152.125 45.9062H151.716L151.46 46.0648Z" fill="#2C100C" stroke="black" stroke-width="0.1"/>
<path d="M149.637 48.8572L146.056 52.0273C147.027 52.6706 147.412 53.1873 147.846 54.3521L152.195 50.6008L153.832 48.8572C153.273 47.9559 152.754 47.4477 151.428 46.5323L149.637 48.8572Z" fill="#AF7E4B" stroke="black" stroke-width="0.1"/>
<path d="M151.467 46.2909L151.428 46.5323C152.699 47.3845 153.214 47.8956 153.833 48.8572L154.141 48.6094L154.038 48.5037L153.834 48.398L154.012 48.3045L153.756 48.0403L153.5 47.7761L153.551 47.5647L153.5 47.4062L153.142 47.3006L152.988 46.9835L152.607 46.8394H152.76L153.067 46.7338L152.965 46.5752L152.709 46.4167L152.234 46.3438L151.979 46.0796L151.774 46.1852L151.467 46.2909Z" fill="#D1D1D1" stroke="black" stroke-width="0.1"/>
<path d="M149.842 49.0156L149.586 48.9099L149.995 48.3815V48.8042L150.2 48.9099L150.558 49.3326L150.149 49.1741L149.842 49.0156Z" fill="#5D2300" stroke="black" stroke-width="0.1"/>
<path d="M150.763 49.227C151.085 49.604 151.207 49.6947 151.377 49.7554" stroke="black" stroke-width="0.1"/>
<ellipse cx="151.633" cy="47.4832" rx="0.255818" ry="0.158509" fill="#BD9554"/>
<ellipse cx="150.507" cy="48.4343" rx="0.153491" ry="0.264182" fill="#BD9554"/>
<ellipse cx="151.274" cy="48.54" rx="0.204654" ry="0.158509" fill="#BD9554"/>
<ellipse cx="151.632" cy="48.0118" rx="0.153491" ry="0.158509" fill="#BD9554"/>
<ellipse cx="151.837" cy="49.7024" rx="0.255818" ry="0.158509" fill="#BD9554"/>
<ellipse cx="153.065" cy="49.0684" rx="0.153491" ry="0.158509" fill="#BD9554"/>
<ellipse cx="147.846" cy="51.3401" rx="0.153491" ry="0.211346" fill="#BD9554"/>
<ellipse cx="148.614" cy="50.8121" rx="0.204654" ry="0.211346" fill="#BD9554"/>
<ellipse cx="149.126" cy="50.0195" rx="0.204654" ry="0.158509" fill="#BD9554"/>
<ellipse cx="146.721" cy="51.816" rx="0.153491" ry="0.0528364" fill="#BD9554"/>
<ellipse cx="148" cy="52.6085" rx="0.204654" ry="0.105673" fill="#BD9554"/>
<ellipse cx="148.972" cy="52.7143" rx="0.153491" ry="0.105673" fill="#BD9554"/>
<ellipse cx="148.153" cy="53.718" rx="0.0511635" ry="0.158509" fill="#BD9554"/>
<ellipse rx="0.102706" ry="0.315913" transform="matrix(0.939013 -0.343881 0.324776 0.945791 150.66 51.1291)" fill="#BD9554"/>
<path d="M147.13 52.9782C146.629 52.4098 146.312 52.1328 146.005 52.08C145.936 52.4652 146.67 53.4009 146.721 53.4537C146.772 53.5065 147.284 54.1934 147.795 54.3519C147.744 53.9821 147.468 53.4624 147.13 52.9782Z" fill="#C2B895" stroke="black" stroke-width="0.1"/>
<path d="M52.2466 45.1585V45.3699L52.6047 46.2152L53.2699 47.3248L54.0373 48.1702H54.7536L54.8559 47.906L54.7536 47.7475L54.6001 47.5361L54.3443 47.3248L54.1396 46.9549L53.935 46.8493V46.6379V46.4266L53.8327 46.5323L53.5768 46.4266L53.4233 46.3737L53.5768 46.2681L53.8327 46.2152V45.9511L53.6792 45.7397H53.3722L53.2699 45.5284L53.1675 45.2642L52.9117 45H52.5024L52.2466 45.1585Z" fill="#2C100C" stroke="black" stroke-width="0.1"/>
<path d="M49.6371 48.8572L46.0556 52.0273C47.0269 52.6706 47.4124 53.1873 47.8464 54.3521L52.1953 50.6008L53.8325 48.8572C53.2733 47.9559 52.7544 47.4477 51.4278 46.5323L49.6371 48.8572Z" fill="#CA9257" stroke="black" stroke-width="0.1"/>
<path d="M52.2465 45.3699L51.4279 46.5323C52.6986 47.3845 53.2135 47.8956 53.8325 48.8571L54.7535 48.1702L54.6512 48.0646L54.4465 47.9589L54.293 47.8532L54.0372 47.589L53.7814 47.3249L53.8325 47.1135L53.7814 46.955L53.4232 46.8493L53.2697 46.5323L53.1674 46.2153H53.3209L53.6279 46.1096L53.5256 45.9511L53.2697 45.7926L53.0139 45.4228L52.7581 45.1586L52.5535 45.2642L52.2465 45.3699Z" fill="white" stroke="black" stroke-width="0.1"/>
<path d="M49.8417 49.0156L49.5859 48.9099L49.9952 48.3815V48.8042L50.1998 48.9099L50.558 49.3326L50.1487 49.1741L49.8417 49.0156Z" fill="#5D2300" stroke="black" stroke-width="0.1"/>
<path d="M50.7626 49.227C51.0852 49.604 51.2075 49.6947 51.3766 49.7554" stroke="black" stroke-width="0.1"/>
<ellipse cx="51.6326" cy="47.4832" rx="0.255818" ry="0.158509" fill="#F5C26F"/>
<ellipse cx="50.507" cy="48.4343" rx="0.153491" ry="0.264182" fill="#F5C26F"/>
<ellipse cx="51.2745" cy="48.54" rx="0.204654" ry="0.158509" fill="#F5C26F"/>
<ellipse cx="51.6324" cy="48.0118" rx="0.153491" ry="0.158509" fill="#F5C26F"/>
<ellipse cx="51.8371" cy="49.7024" rx="0.255818" ry="0.158509" fill="#F5C26F"/>
<ellipse cx="53.0651" cy="49.0684" rx="0.153491" ry="0.158509" fill="#F5C26F"/>
<ellipse cx="47.8463" cy="51.3401" rx="0.153491" ry="0.211346" fill="#F5C26F"/>
<ellipse cx="48.6138" cy="50.8121" rx="0.204654" ry="0.211346" fill="#F5C26F"/>
<ellipse cx="49.1256" cy="50.0195" rx="0.204654" ry="0.158509" fill="#F5C26F"/>
<ellipse cx="46.7209" cy="51.816" rx="0.153491" ry="0.0528364" fill="#F5C26F"/>
<ellipse cx="47.9999" cy="52.6085" rx="0.204654" ry="0.105673" fill="#F5C26F"/>
<ellipse cx="48.972" cy="52.7143" rx="0.153491" ry="0.105673" fill="#F5C26F"/>
<ellipse cx="48.1533" cy="53.718" rx="0.0511635" ry="0.158509" fill="#F5C26F"/>
<ellipse rx="0.102706" ry="0.315913" transform="matrix(0.939013 -0.343881 0.324776 0.945791 50.6604 51.1291)" fill="#F5C26F"/>
<path d="M47.1302 52.9782C46.629 52.4098 46.3116 52.1328 46.0046 52.08C45.936 52.4652 46.6698 53.4009 46.7209 53.4537C46.7721 53.5065 47.2837 54.1934 47.7954 54.3519C47.7442 53.9821 47.4679 53.4624 47.1302 52.9782Z" fill="#C2B895" stroke="black" stroke-width="0.1"/>
</svg>
