<svg id="Layer_1" data-name="Layer 1" xmlns="http://www.w3.org/2000/svg" width="3701.97" height="1061.98" viewBox="0 0 3701.97 1061.98">
  <defs>
    <style>
      .tree-cls-1 {
        fill: #624836;
      }

      .tree-cls-2 {
        fill: #006837;
      }

      .tree-cls-3, .tree-cls-7 {
        font-size: 30px;
      }

      .tree-cls-3, .tree-cls-5, .tree-cls-9 {
        fill: #fff;
      }

      .tree-cls-3, .tree-cls-5 {
        font-family: BebasNeue-Regular, Bebas Neue;
      }

      .tree-cls-4 {
        letter-spacing: 0em;
      }

      .tree-cls-5 {
        font-size: 25px;
      }

      .tree-cls-6 {
        letter-spacing: -0.01em;
      }

      .tree-cls-8 {
        letter-spacing: 0.01em;
      }

      .tree-cls-10 {
        fill: #8c6239;
      }

      .tree-cls-11 {
        stroke: #8c6239;
        stroke-miterlimit: 10;
        stroke-width: 2px;
      }
    </style>
  </defs>
  <title>gren</title>
  <g id="branch">
    <path class="tree-cls-1" d="M437.13,250.13l39.48-21.63,209.53,46.38c80.18,14.91,155.6,21.2,222.23,11.59,62.84,18.45,121.66,29.32,171.44,23.19,63.09,14,124,24.18,165.09,0l234.93-11.59h171.43l120.64-17.4,146-11.59,209.53,5.8h330.17l95.25,17.39,152.38,5.8h215.88c29.2,30.91,73.71,37.66,120.64,40.58l146,34.78L3289.42,385h139.69c21.9-15.15,47.44-18.57,76.19-11.6L3625.94,385c12.21,8,10.43,20.1,0,34.78-35.07-22.52-89.94-26.33-146-29L3289.42,414l-82.54-11.59-285.73-69.57-361.92-11.59L2464,309.66l-311.12-5.8H1962.39l-76.2,17.4c-95.88-2.35-189.18,2.95-279.37,17.39H1340.14L1225.85,356l-177.79-11.59L876.63,321.26H756l-127-17.4-146-29-42.3-7C431.09,266.27,428.78,254.7,437.13,250.13Z" transform="translate(0 248.48)"/>
  </g>
  <g id="leaf2" data-name="2.leaf">
    <path class="tree-cls-2" d="M716.24,239.43c-2.42.38-1.6-4.54-2.84-2.45-.9,1.52,23.73-39.64,11-38.22-9.74,1.09-34.27-.44-33.26-7.73.13-1,3-2.22,2.82-4.7a5.28,5.28,0,0,0-1.76-3c-1.22-1.1-2-.9-3.09-1.68-1.63-1.21-1.28-2.8-2.12-4.78-1.79-4.26-7-5.65-6.58-6.4s4.07,1.36,6.85-.25c1.49-.87,1.34-2,2.63-2.65,2.43-1.22,5.1,2.84,7.5,2,1.53-.52,2.41-2.69,2.29-4.42-.21-2.92-3.23-3.87-7.47-7.9-4.51-4.31-7.19-9.06-6.44-9.74s4.55,3,6.66,1.8c1.48-.81,1.23-3.51,1.21-3.87-.46-4.72-5.72-5.76-6.2-10.51,0-.33-.28-3.06,1.22-3.9,1.77-1,4.28,1.75,5.54,1.08,2.77-1.48-4.34-17.44-3-18,1.07-.46,5.67,8.8,9.68,8.08,1.74-.33,1.85-2.24,3.46-2.42,3.81-.43,6.88,9.76,9.71,9.37,2.34-.34,2-7.52,3.79-7.8,3.44-.53,9.56,24.5,12.81,24.07s1.27-25.81,6-26.54c1.84-.29,2.76,3.46,5.63,3.64,6.44.39,12.36-17.75,14.37-17.13,1,.3-.41,4.58,1,5.33,3,1.5,13.23-13.8,16.5-12.36s-3.17,19.32.32,20.69c1.57.62,3.92-2.62,5.13-2,2.47,1.31-6.24,15.33-1.94,19.23,2.91,2.64,9.69-1.2,10.72.37,2.1,3.17-23.71,21.7-23.21,22.31s19.41-13.41,22.31-10.78c1.94,1.75-4.09,10.07-2.55,11.09s8.35-7.2,11.29-5.78c2.29,1.11-.71,6.72,2.33,9.88,4,4.11,14.11-.17,15.18,2,1.42,2.87-15.69,11.5-13.84,16.86.73,2.1,4,2.67,3.73,4-.45,2-8.51.66-10.26,4-1.16,2.21,1.78,4.09.8,6.1-2,4.06-15.55-.54-19,4.52-1.39,2-1.09,5.57.56,6.88,1.33,1,3.19.46,3.63,1.4s-1.73,2-2.3,4.42c-.7,3.1,2,5.91,2.18,6.06a12.36,12.36,0,0,0,4.21,2.4c-.13.38-16.22-6.74-22.56-1.48-1.78,1.48-1.21,2.63-2.88,3.42-4.5,2.14-11.77-4.79-21.72-14.28a11.45,11.45,0,0,1-3.85-6.51,9.51,9.51,0,0,1,.14-3.32S727.59,237.66,716.24,239.43Z" transform="translate(0 248.48)"/>
    <path d="M715.94,240.46a2.74,2.74,0,0,1-2.49-2.28l-.18.11L712,237.23l.43-.73a.75.75,0,0,1,.07-.12c5.75-9.6,17.09-31.7,14-36-.23-.31-.68-.72-1.94-.58-8.36.94-27.57,0-32.93-5a4.27,4.27,0,0,1-1.53-3.81,3.34,3.34,0,0,1,1.25-1.8c.78-.74,1.66-1.58,1.57-2.7a3.93,3.93,0,0,0-1.4-2.34,3.85,3.85,0,0,0-1.49-.87,5.64,5.64,0,0,1-1.54-.77,5.16,5.16,0,0,1-1.94-3.45,10.24,10.24,0,0,0-.53-1.76c-1-2.44-3.33-3.84-4.85-4.77-1.16-.71-2.25-1.37-1.7-2.43s1.65-.73,2.76-.51c1.31.27,3.11.64,4.49-.16a3,3,0,0,0,1.06-1.1,3.91,3.91,0,0,1,1.64-1.58c1.82-.92,3.58.14,5,1,1,.58,2,1.18,2.63,1,.92-.31,1.69-2,1.59-3.41s-1.08-2.26-3.26-4a45.48,45.48,0,0,1-3.9-3.3C689,155.62,683,148.67,685,146.8c.89-.81,2.05-.18,3.4.55,1,.56,2.75,1.49,3.47,1.1.4-.22.79-1.1.68-2.88-.19-2.06-1.41-3.28-2.81-4.69s-3.12-3.14-3.39-5.86c-.11-1.11-.15-3.8,1.74-4.85,1.48-.8,3.09,0,4.27.52a6,6,0,0,0,1.28.52c.69-1.18-1.21-7.41-2.14-10.44-1.6-5.23-2.14-7-.73-7.59,1.18-.51,2,.55,3.63,2.67s4.38,5.69,6.28,5.34c.45-.08.72-.38,1.14-.9a3.56,3.56,0,0,1,2.4-1.54c2.73-.3,4.7,2.73,6.6,5.66.81,1.24,2.46,3.79,3.08,3.72s1.09-2.65,1.28-3.5c.5-2.18.93-4.06,2.5-4.3,2.4-.37,4.12,3.46,7.77,12.94,1.53,4,3.79,9.82,5,11,.75-1.29,1.13-6.43,1.42-10.26.73-9.7,1.41-15.63,4.61-16.13,1.48-.23,2.44.86,3.28,1.82s1.54,1.75,2.6,1.81c3.29.17,7.28-7,9.64-11.38s3.37-6.2,5-5.7c1.21.37,1.15,1.71,1.1,3.12a5.64,5.64,0,0,0,.17,2.31h0c1,0,4.52-3.65,6.64-5.84,4.57-4.72,7.48-7.57,9.75-6.57s1.75,4.95.73,11.31c-.46,2.87-1.42,8.82-.45,9.36.3.07,1.27-.62,1.74-.95,1.08-.75,2.31-1.61,3.5-1,1.78.95.87,3.68-.51,7.82s-3.24,9.72-1.21,11.57c1.25,1.13,3.9.57,6,.12s4-.84,4.86.44c1.45,2.19-2.94,6.61-13.43,15.2,6.7-3.93,10.63-5.43,12.36-3.87,1.57,1.42.26,4.36-1.13,7.48a28.55,28.55,0,0,0-1.26,3.14,32.39,32.39,0,0,0,2.66-2c2.91-2.28,5.92-4.64,8.21-3.53,1.67.81,1.58,2.68,1.48,4.66s-.19,4.05,1.16,5.44c1.94,2,6,1.59,9.31,1.25,3-.31,5.27-.56,6,1,1,1.92-1.74,4.1-5.82,7.41-3.71,3-8.8,7.15-8,9.55.26.76,1.1,1.3,1.91,1.82s2.14,1.38,1.85,2.65c-.35,1.58-2.41,1.86-4.79,2.18-2.16.29-4.84.65-5.56,2-.36.69-.08,1.35.4,2.38a4.07,4.07,0,0,1,.42,3.69c-1.22,2.51-5.12,2.49-9.26,2.48-3.9,0-8.32,0-9.84,2.17-1.19,1.73-.8,4.66.36,5.58a3.33,3.33,0,0,0,1.6.51,2.68,2.68,0,0,1,2.31,1.25c.5,1.07-.22,1.93-.86,2.69a5.65,5.65,0,0,0-1.37,2.35c-.59,2.61,1.85,5.1,1.87,5.12a8.88,8.88,0,0,0,3.42,2c.35.12,1.41.49,1.07,1.44l-.14.4-.41.2c-.5.22-.76.14-2.51-.44-3.75-1.25-15.17-5-19.81-1.2a4.19,4.19,0,0,0-1.18,1.56,3.78,3.78,0,0,1-1.92,2c-5.2,2.46-12.27-4.27-23-14.47a15.31,15.31,0,0,1-3-3.71c-.72,3.82-1.76,8.69-3.14,13.53-3.64,12.69-8,19.52-13.07,20.31h0A4.23,4.23,0,0,1,715.94,240.46Zm-.88-4.24a4.48,4.48,0,0,1,.3.87c.27,1,.45,1.4.71,1.36,7.81-1.23,13.23-23.58,15.35-37.5a9.46,9.46,0,0,1,.21-1.4h0a1,1,0,0,1,.83-.78l1.6-.31-.32,1.46c0,.32-.11.73-.18,1.22a8.43,8.43,0,0,0,.05,1.81,10.47,10.47,0,0,0,3.54,5.93c9.33,8.89,16.67,15.89,20.48,14.09.54-.25.67-.51,1-1.07a6.21,6.21,0,0,1,1.69-2.21c4.18-3.45,11.85-2.13,17.33-.62a7.43,7.43,0,0,1-1.49-5.81,7.3,7.3,0,0,1,1.78-3.16c.17-.2.38-.46.5-.63l-.6-.11a5.25,5.25,0,0,1-2.65-1c-2.09-1.66-2.47-5.7-.78-8.18,2.15-3.13,7.2-3.11,11.66-3.09,3.26,0,6.65,0,7.29-1.3.27-.54,0-1.14-.42-2.06-.53-1.12-1.18-2.51-.37-4.07,1.23-2.31,4.53-2.75,7.18-3.11a12.71,12.71,0,0,0,2.91-.59,10.17,10.17,0,0,0-.88-.62,6.05,6.05,0,0,1-2.74-2.84c-1.26-3.67,4-7.92,8.61-11.68,2-1.66,5.12-4.15,5.26-5.05a14.32,14.32,0,0,0-3.83.12c-3.57.38-8.47.89-11.15-1.89-1.93-2-1.8-4.7-1.7-6.86.05-1.15.12-2.59-.33-2.8-1-.49-4.15,2-5.83,3.28-2.55,2-4.24,3.32-5.58,2.42s-.48-3,.8-5.9c.63-1.41,2.1-4.7,1.62-5.29-1.11-.73-6.67,2.07-16.54,8.33-4.74,3-5.13,3.25-5.87,2.34s-.66-1,5.77-6.2c4.68-3.76,16.93-13.6,17.33-16.1a14.08,14.08,0,0,0-2.51.38c-2.63.56-5.91,1.25-8-.64-3-2.7-1-8.49.66-13.59a24.53,24.53,0,0,0,1.42-5.35,12.16,12.16,0,0,0-1.07.69c-1.11.78-2.49,1.74-3.87,1.19-2.4-.94-1.88-5-.83-11.49.48-3,1.38-8.6.47-9.22-1.09-.25-5.08,3.89-7.24,6.11-4.53,4.69-7.2,7.29-9.31,6.23-1.39-.71-1.32-2.52-1.25-4.11v0c-.61,1-1.37,2.37-2,3.58-3.1,5.69-7,12.73-11.7,12.48a6.09,6.09,0,0,1-4.12-2.54c-.4-.46-1-1.16-1.26-1.12-1.77.28-2.48,9.75-2.83,14.3-.6,8.06-1,12-3.23,12.25S727,143.2,723.47,134c-1.62-4.22-4-10.48-5.37-11.54a13.27,13.27,0,0,0-.77,2.64c-.54,2.34-1.09,4.77-3.06,5.06s-3.52-2-5.24-4.66c-1.34-2-3.15-4.86-4.51-4.71-.32,0-.52.24-.95.77a4,4,0,0,1-2.43,1.64c-3.26.59-6.25-3.3-8.44-6.13l-.07-.09c.28,1,.65,2.22,1,3.3,2.18,7.15,3.34,11.57,1.14,12.74-1.08.58-2.27,0-3.33-.5-.82-.38-1.74-.83-2.2-.58s-.81,1.74-.69,3c.2,2,1.42,3.26,2.83,4.68s3.11,3.13,3.37,5.83v.11c.18,3-.84,4.22-1.74,4.71-1.79,1-4-.21-5.64-1.09l-.28-.15a28.69,28.69,0,0,0,5.92,7.62,48,48,0,0,0,3.75,3.16c2.23,1.75,3.85,3,4,5.37.15,2.12-.93,4.73-3,5.43-1.65.57-3.18-.35-4.53-1.16s-2.17-1.25-2.83-.92a2.07,2.07,0,0,0-.82.86,4.88,4.88,0,0,1-1.75,1.75,6.64,6.64,0,0,1-3.92.76,11.11,11.11,0,0,1,4.08,4.69,13.08,13.08,0,0,1,.63,2.07,3.31,3.31,0,0,0,1.16,2.29,4.2,4.2,0,0,0,1,.5,5.83,5.83,0,0,1,2.14,1.24l.08.08a5.73,5.73,0,0,1,2,3.58c.17,2-1.24,3.38-2.17,4.26a5.1,5.1,0,0,0-.68.72,2.47,2.47,0,0,0,.94,2.08c4.62,4.33,23.05,5.36,31.15,4.46,2.18-.25,3.76.57,4.45,2.3,1.34,3.38-.65,10.52-6.1,21.84C720.62,226.1,716.93,233.07,715.06,236.22Z" transform="translate(0 248.48)"/>
  </g>
  <path class="tree-cls-1" d="M675.31,273.66c10.7-12.26,22.85-26.18,37.79-43.28,5.93-18.13,11.18-34.17,14.17-43.28,7.51,16.38,12.42,31.6,9.45,43.28l-37.79,54.1Z" transform="translate(0 248.48)"/>
  <g id="leaf3" data-name="3.leaf">
    <path class="tree-cls-2" d="M796.71,381.56c-9.64-1.7-34.22-1.74-33.76,5.59.06,1,2.86,2.42,2.48,4.88a5.38,5.38,0,0,1-2,2.9c-1.3,1-2.07.77-3.2,1.47-1.71,1.11-1.48,2.72-2.47,4.64-2.1,4.13-7.37,5.19-7,6s4.16-1.09,6.81.7c1.43.95,1.2,2.08,2.44,2.81,2.33,1.36,5.29-2.52,7.63-1.55,1.48.62,2.21,2.84,2,4.56-.43,2.9-3.51,3.66-8,7.41-4.82,4-7.84,8.57-7.15,9.3s4.76-2.67,6.79-1.37c1.41.91,1,3.58.92,3.94-.81,4.68-6.14,5.38-7,10.09-.06.33-.5,3,.93,4,1.7,1.08,4.4-1.47,5.6-.72,2.66,1.64-5.61,17.12-4.28,17.78,1,.53,6.3-8.42,10.25-7.44,1.72.43,1.68,2.35,3.27,2.64,3.77.67,7.59-9.31,10.38-8.74,2.31.49,1.42,7.63,3.21,8,3.39.74,11.33-23.84,14.54-23.2s-.62,25.82,4.07,26.86c1.82.4,3-3.28,5.89-3.28,6.45,0,11,18.5,13.08,18,1-.24-.08-4.6,1.44-5.25,3.07-1.31,12.18,14.6,15.55,13.37s-1.74-19.47,1.84-20.62c1.61-.51,3.72,2.87,5,2.3,2.56-1.16-5.1-15.69-.52-19.31,3.09-2.45,9.58,1.81,10.72.31,2.32-3-22.07-23.15-21.52-23.73S853,438.48,856,436c2.06-1.62-3.35-10.3-1.74-11.22s7.81,7.71,10.84,6.48c2.37-1-.21-6.75,3.05-9.71,4.25-3.84,14.06,1.07,15.29-1,1.63-2.77-14.81-12.47-12.57-17.7.88-2.05,4.21-2.41,4-3.71-.3-2-8.44-1.19-9.95-4.59-1-2.29,2.08-4,1.26-6-1.67-4.17-15.56-.45-18.65-5.72-1.24-2.12-.68-5.62,1.07-6.83,1.4-1,3.21-.25,3.72-1.17s-1.58-2.1-2-4.56c-.47-3.13,2.42-5.76,2.62-5.9a12.65,12.65,0,0,1,4.38-2.13c-.11-.38-16.68,5.69-22.62.05-1.67-1.59-1-2.71-2.62-3.6-4.33-2.42-12.1,4-22.73,12.87a11.64,11.64,0,0,0-4.31,6.24,9.56,9.56,0,0,0-.1,3.33" transform="translate(0 248.48)"/>
    <path d="M838.67,486c-2.16,0-4.71-2.88-8.44-7.32-2-2.33-5.23-6.21-6.3-6.21h0a8.22,8.22,0,0,0-.24,2.25c0,1.41-.09,2.75-1.32,3-1.66.39-2.58-1.61-4.57-6s-5.45-12-8.79-12h0c-1.06,0-1.87.8-2.72,1.64s-1.95,1.93-3.4,1.61c-3.17-.7-3.41-6.66-3.42-16.39,0-3.83,0-9-.66-10.32-1.34,1.08-4,6.78-5.83,10.63-4.34,9.23-6.35,12.94-8.71,12.42-1.55-.34-1.84-2.25-2.17-4.45-.13-.86-.52-3.46-1-3.57s-2.44,2.33-3.33,3.51c-2.12,2.81-4.3,5.71-7,5.23a3.51,3.51,0,0,1-2.28-1.69c-.39-.54-.62-.85-1.08-1-1.85-.46-4.85,2.92-6.64,4.93s-2.68,3-3.83,2.43c-1.35-.68-.69-2.4,1.29-7.53,1.14-3,3.5-9,2.9-10.27a6.46,6.46,0,0,0-1.32.43c-1.21.49-2.87,1.15-4.28.26-1.82-1.18-1.58-3.86-1.39-5,.47-2.69,2.24-4.25,3.81-5.62s2.8-2.46,3.15-4.47c.24-1.81-.09-2.71-.48-3-.67-.44-2.46.39-3.53.88-1.4.65-2.61,1.2-3.44.34-1.77-1.85,3.84-7.89,7.23-10.71a49.22,49.22,0,0,1,4.14-3.05c2.3-1.57,3.33-2.32,3.55-3.76s-.45-3.13-1.34-3.51c-.63-.26-1.68.28-2.7.8-1.48.76-3.31,1.71-5.07.68a3.93,3.93,0,0,1-1.51-1.68,2.9,2.9,0,0,0-1-1.16c-1.31-.89-3.13-.64-4.47-.45-1.12.15-2.28.31-2.71-.68s.67-1.69,1.87-2.32c1.59-.83,4-2.09,5.19-4.45a9.82,9.82,0,0,0,.66-1.73,5.26,5.26,0,0,1,2.17-3.3,6.14,6.14,0,0,1,1.62-.69,3.76,3.76,0,0,0,1.5-.73,4,4,0,0,0,1.61-2.28c.18-1.12-.64-2-1.36-2.8a3.25,3.25,0,0,1-1.12-1.87,4.34,4.34,0,0,1,1.8-3.71c5.72-4.68,25-4.39,33.23-2.92l-.4,2c-8-1.41-26.49-1.56-31.41,2.47A2.45,2.45,0,0,0,764,387.1c0,.06.37.42.61.68.87,1,2.17,2.37,1.86,4.39a5.86,5.86,0,0,1-2.27,3.45l-.08.07a6.1,6.1,0,0,1-2.24,1.11,3.87,3.87,0,0,0-1.06.43c-.76.49-1,1.1-1.32,2.21a12.36,12.36,0,0,1-.78,2,11.3,11.3,0,0,1-4.41,4.41,6.62,6.62,0,0,1,3.85,1,4.71,4.71,0,0,1,1.62,1.86,2.08,2.08,0,0,0,.76.91c.63.37,1.51,0,2.88-.74s3-1.54,4.62-.87c2,.83,2.88,3.5,2.58,5.6-.34,2.34-2,3.5-4.41,5.11a46,46,0,0,0-4,2.92,29.43,29.43,0,0,0-6.47,7.22l.29-.13c1.69-.78,4-1.84,5.72-.73.85.55,1.79,1.83,1.38,4.81V433c-.46,2.67-2.23,4.23-3.8,5.6s-2.81,2.47-3.16,4.49c-.21,1.19-.1,2.61.48,3,.43.27,1.39-.11,2.23-.45,1.09-.43,2.32-.93,3.36-.28,2.11,1.31.62,5.65-2.08,12.64-.4,1.05-.86,2.22-1.21,3.23l.07-.08c2.39-2.69,5.66-6.38,8.86-5.59a3.91,3.91,0,0,1,2.31,1.8c.4.55.58.77.9.82,1.33.24,3.36-2.45,4.84-4.41,1.91-2.53,3.56-4.73,5.56-4.31s2.33,2.87,2.69,5.24a12.25,12.25,0,0,0,.58,2.67c1.4-1,4.27-7.06,6.2-11.16,4.24-9,6-12.37,8.28-11.93s2.31,4.34,2.32,12.42c0,4.57,0,14.06,1.77,14.45.24,0,.91-.6,1.35-1a6.1,6.1,0,0,1,4.28-2.27h0c4.76,0,8.08,7.32,10.75,13.2.57,1.25,1.23,2.69,1.77,3.7v0c.05-1.6.11-3.4,1.55-4,2.19-.93,4.65,1.84,8.84,6.8,2,2.36,5.69,6.72,6.77,6.55.95-.55.46-6.19.2-9.22-.57-6.56-.79-10.62,1.68-11.41,1.42-.46,2.72.59,3.77,1.43a12.12,12.12,0,0,0,1,.76c.12-.95-.53-3.51-1-5.42-1.32-5.21-2.82-11.1.34-13.6,2.22-1.76,5.44-.86,8-.14a12.66,12.66,0,0,0,2.52.54c0-2.28-11.71-13.07-16.15-17.17-6-5.56-6.15-5.66-5.31-6.55s1.18-.59,5.69,2.71c9.38,6.87,14.73,10,15.9,9.36.51-.55-.71-3.93-1.23-5.37-1.08-3-1.85-5.1-.38-5.94s3,.61,5.39,2.77c1.58,1.42,4.54,4.07,5.58,3.64.47-.19.5-1.62.53-2.77.06-2.16.13-4.86,2.2-6.74,2.89-2.6,7.73-1.78,11.27-1.18a13.81,13.81,0,0,0,3.81.36c-.07-.9-2.95-3.58-4.87-5.37-4.35-4-9.27-8.62-7.74-12.19a6.15,6.15,0,0,1,2.94-2.67,7.19,7.19,0,0,0,.95-.58,14.15,14.15,0,0,0-2.88-.75c-2.62-.52-5.89-1.18-6.94-3.55-.69-1.62.06-3,.66-4,.51-.9.8-1.48.58-2-.54-1.37-3.92-1.57-7.18-1.76-4.45-.27-9.49-.57-11.4-3.83-1.51-2.58-.84-6.59,1.37-8.11a5.31,5.31,0,0,1,2.72-.79c.18,0,.43,0,.6-.07-.1-.18-.3-.45-.45-.66a7.29,7.29,0,0,1-1.54-3.26,7.42,7.42,0,0,1,1.92-5.71c-5.59,1.16-13.34,2-17.25-1.72a6,6,0,0,1-1.53-2.32,1.83,1.83,0,0,0-.87-1.13c-3.66-2-11.51,4.49-21.44,12.75-1,.84-3.35,2.75-4,5.71a8.64,8.64,0,0,0-.1,3l-2.13.26a10.67,10.67,0,0,1,.12-3.65c.79-3.62,3.6-5.93,4.65-6.8,11.44-9.5,19-15.78,24-13a3.73,3.73,0,0,1,1.77,2.12,4.23,4.23,0,0,0,1.06,1.64c4.35,4.13,16,1.07,19.85.06,1.79-.47,2.06-.54,2.54-.28l.39.21.12.42c.26,1-.82,1.27-1.18,1.37a8.83,8.83,0,0,0-3.51,1.73c-.07.06-2.68,2.39-2.28,5a5.5,5.5,0,0,0,1.18,2.42c.59.79,1.25,1.7.67,2.74a2.75,2.75,0,0,1-2.4,1.1,3.32,3.32,0,0,0-1.64.41c-1.22.84-1.82,3.73-.76,5.54,1.35,2.29,5.76,2.56,9.66,2.79,4.12.25,8,.48,9.05,3.06a4.08,4.08,0,0,1-.68,3.65c-.56,1-.89,1.65-.58,2.36.62,1.4,3.27,1.93,5.4,2.35,2.35.48,4.38.88,4.62,2.49.2,1.28-1,2-2,2.52a4.39,4.39,0,0,0-2,1.69c-1,2.35,3.77,6.79,7.26,10,3.82,3.56,6.35,5.91,5.25,7.77-.88,1.51-3.18,1.11-6.1.62-3.25-.55-7.29-1.24-9.38.65-1.44,1.3-1.5,3.45-1.55,5.35s-.1,3.86-1.82,4.56c-2.37.95-5.2-1.59-7.93-4.05-.76-.68-1.81-1.62-2.51-2.11a26,26,0,0,0,1,3.21c1.16,3.2,2.25,6.22.58,7.54-1.84,1.45-5.65-.3-12.05-4.65,9.84,9.24,13.89,13.92,12.29,16-.93,1.22-2.76.71-4.88.12s-4.7-1.3-6-.25c-2.16,1.71-.7,7.43.36,11.61s1.79,7-.06,7.84c-1.24.56-2.4-.37-3.43-1.2-.44-.35-1.36-1.08-1.67-1.05-1,.48-.48,6.48-.23,9.36.56,6.42.78,10.39-1.56,11.24A2.22,2.22,0,0,1,838.67,486Z" transform="translate(0 248.48)"/>
  </g>
  <path class="tree-cls-1" d="M789.92,295.85c.59,15.8,1.26,33.72,2.08,55.75,8.33,17.29,15.69,32.59,19.88,41.29-17.22-7.75-31.67-16.21-37.68-26.83-3.44-22.67-6.63-43.63-9.72-63.9Z" transform="translate(0 248.48)"/>
  <g id="leaf4" data-name="4.leaf">
    <path class="tree-cls-2" d="M1007.05,229.83c-9.73,1.15-34.27-.23-33.32-7.52.13-1,3-2.24,2.79-4.72a5.3,5.3,0,0,0-1.79-3c-1.22-1.09-2-.89-3.09-1.65-1.64-1.21-1.31-2.8-2.16-4.77-1.82-4.25-7-5.61-6.63-6.36s4.09,1.33,6.85-.3c1.49-.88,1.33-2,2.62-2.67,2.41-1.23,5.11,2.82,7.51,2,1.52-.53,2.39-2.7,2.26-4.43-.24-2.92-3.26-3.85-7.53-7.86-4.54-4.28-7.25-9-6.51-9.69s4.57,2.94,6.68,1.75c1.47-.82,1.2-3.52,1.18-3.88-.5-4.72-5.77-5.72-6.28-10.47,0-.33-.3-3.06,1.19-3.9,1.77-1,4.29,1.72,5.54,1,2.76-1.49-4.46-17.41-3.09-18,1.07-.47,5.73,8.77,9.73,8,1.75-.34,1.84-2.25,3.45-2.45,3.8-.45,6.95,9.73,9.78,9.32,2.33-.36,1.92-7.54,3.73-7.83,3.44-.55,9.74,24.44,13,24s1.09-25.81,5.84-26.58c1.84-.29,2.79,3.45,5.66,3.61,6.44.35,12.23-17.83,14.25-17.22,1,.3-.39,4.59,1.09,5.32,3,1.49,13.12-13.87,16.4-12.46s-3,19.34.47,20.69c1.58.61,3.9-2.64,5.12-2,2.48,1.3-6.14,15.37-1.8,19.25,2.92,2.62,9.68-1.26,10.72.3,2.12,3.16-23.56,21.85-23,22.45s19.31-13.53,22.24-10.92c1.95,1.74-4,10.1-2.48,11.11s8.3-7.25,11.25-5.85c2.3,1.1-.66,6.73,2.4,9.87,4,4.08,14.11-.27,15.19,1.9,1.44,2.86-15.61,11.6-13.72,17,.75,2.1,4,2.65,3.76,3.93-.43,2-8.5.71-10.23,4-1.14,2.23,1.81,4.09.85,6.1-1.94,4.07-15.55-.44-19,4.64-1.38,2-1.05,5.57.61,6.88,1.34,1,3.19.43,3.64,1.38s-1.72,2-2.26,4.43c-.68,3.11,2,5.89,2.21,6.05a12.36,12.36,0,0,0,4.24,2.37c-.13.38-16.27-6.63-22.58-1.34-1.77,1.49-1.19,2.64-2.85,3.44-4.48,2.17-11.81-4.72-21.83-14.15a11.44,11.44,0,0,1-3.89-6.48,9.5,9.5,0,0,1,.11-3.32" transform="translate(0 248.48)"/>
    <path d="M1039.08,256.14c-4.95,0-11.5-6.16-20.74-14.85-1-.94-3.66-3.4-4.2-7.06a10.24,10.24,0,0,1,.12-3.66l2.11.39a8.41,8.41,0,0,0-.1,3c.44,3,2.64,5,3.58,5.91,9.39,8.83,16.79,15.79,20.58,14a1.81,1.81,0,0,0,.94-1.08,6.29,6.29,0,0,1,1.68-2.22c4.15-3.48,11.83-2.21,17.33-.73a6.49,6.49,0,0,1,.22-9,7.32,7.32,0,0,0,.49-.63,5.36,5.36,0,0,0-.6-.1,5.32,5.32,0,0,1-2.66-.95c-2.1-1.64-2.51-5.69-.83-8.17,2.13-3.15,7.18-3.16,11.64-3.17,3.26,0,6.64,0,7.28-1.34.26-.54,0-1.14-.44-2.06-.54-1.11-1.2-2.5-.4-4.06,1.21-2.32,4.51-2.79,7.16-3.16a12.47,12.47,0,0,0,2.9-.61,10.21,10.21,0,0,0-.88-.61,6,6,0,0,1-2.76-2.83c-1.29-3.65,3.93-7.94,8.53-11.73,2-1.67,5.09-4.18,5.22-5.08a14.16,14.16,0,0,0-3.83.15c-3.57.39-8.46.94-11.17-1.83-1.94-2-1.83-4.69-1.75-6.85,0-1.15.11-2.58-.34-2.8-1-.49-4.14,2-5.81,3.32-2.54,2-4.21,3.34-5.57,2.46s-.5-3,.77-5.91c.62-1.41,2.06-4.72,1.58-5.3-1.11-.72-6.66,2.12-16.48,8.44-4.72,3-5.11,3.28-5.86,2.38s-.66-1,5.73-6.24c4.65-3.79,16.83-13.71,17.22-16.22a14.07,14.07,0,0,0-2.51.41c-2.63.57-5.91,1.28-8-.6-3-2.68-1.11-8.48.55-13.59.62-1.89,1.44-4.4,1.38-5.36-.31.17-.76.49-1.06.7-1.1.78-2.47,1.75-3.86,1.22-2.41-.94-1.92-5-.92-11.49.46-3,1.32-8.61.41-9.22-1.08-.24-5.06,3.91-7.19,6.15-4.51,4.72-7.16,7.34-9.27,6.28-1.4-.69-1.34-2.5-1.28-4.1v0c-.61,1-1.36,2.37-2,3.59-3,5.71-6.86,12.83-11.6,12.55a6.05,6.05,0,0,1-4.14-2.51c-.41-.46-1-1.14-1.28-1.11-1.76.28-2.4,9.76-2.71,14.31-.55,8.07-.92,12-3.15,12.27s-3.83-3.15-7.47-12.38c-1.65-4.21-4.11-10.46-5.45-11.5a13,13,0,0,0-.76,2.63c-.51,2.35-1,4.78-3,5.08s-3.53-2-5.27-4.62c-1.35-2.05-3.2-4.85-4.54-4.69-.33,0-.52.25-1,.78a4,4,0,0,1-2.42,1.66c-3.25.6-6.27-3.26-8.48-6.08l-.07-.09c.29,1,.66,2.22,1,3.29,2.23,7.14,3.43,11.56,1.23,12.74-1.07.58-2.27,0-3.33-.48-.82-.38-1.74-.82-2.2-.56s-.8,1.74-.67,2.95c.22,2,1.44,3.25,2.86,4.66s3.13,3.11,3.42,5.81v.1c.21,3-.81,4.23-1.7,4.73-1.79,1-4-.19-5.65-1.06l-.28-.15a28.56,28.56,0,0,0,6,7.58,47.56,47.56,0,0,0,3.76,3.15c2.25,1.73,3.88,3,4.07,5.34.16,2.12-.9,4.73-2.95,5.45-1.66.58-3.19-.33-4.55-1.14s-2.17-1.23-2.83-.9a2,2,0,0,0-.81.87,5,5,0,0,1-1.74,1.76,6.71,6.71,0,0,1-3.91.79,11.08,11.08,0,0,1,4.11,4.66,12.14,12.14,0,0,1,.64,2.06,3.36,3.36,0,0,0,1.18,2.29,3.84,3.84,0,0,0,1,.49,6,6,0,0,1,2.16,1.23l.08.08a5.78,5.78,0,0,1,2,3.57c.18,2-1.22,3.38-2.14,4.27a4.85,4.85,0,0,0-.67.72,2.46,2.46,0,0,0,1,2.08c4.65,4.3,23.09,5.21,31.18,4.26l.28,2c-8.36,1-27.57.18-33-4.82a4.29,4.29,0,0,1-1.56-3.81,3.39,3.39,0,0,1,1.24-1.8c.78-.74,1.65-1.59,1.55-2.72a3.93,3.93,0,0,0-1.42-2.33,3.78,3.78,0,0,0-1.49-.85,6,6,0,0,1-1.55-.77,5.19,5.19,0,0,1-2-3.43,10,10,0,0,0-.53-1.76c-1-2.43-3.36-3.82-4.89-4.74-1.16-.7-2.26-1.36-1.72-2.42s1.64-.74,2.76-.52c1.31.26,3.12.61,4.49-.2a2.9,2.9,0,0,0,1-1.1A4,4,0,0,1,971.8,198c1.82-.93,3.59.12,5,1,1,.58,2,1.19,2.63,1,.92-.32,1.68-2,1.57-3.43s-1.1-2.25-3.3-3.95c-1.08-.84-2.44-1.89-3.92-3.28-3.2-3-8.4-9.36-6.51-11.1.89-.82,2.05-.2,3.41.53,1,.55,2.77,1.48,3.47,1.08.4-.23.79-1.11.67-2.89-.21-2.06-1.43-3.27-2.85-4.68s-3.14-3.12-3.43-5.83c-.12-1.11-.18-3.79,1.7-4.86,1.48-.82,3.1-.06,4.28.5a6.07,6.07,0,0,0,1.28.5c.68-1.18-1.27-7.4-2.21-10.42-1.64-5.22-2.19-7-.79-7.59,1.18-.51,2,.54,3.65,2.65s4.44,5.65,6.32,5.3c.45-.09.71-.38,1.13-.9a3.52,3.52,0,0,1,2.39-1.56c2.71-.33,4.72,2.7,6.65,5.62.81,1.23,2.47,3.79,3.1,3.7s1.07-2.66,1.26-3.51c.48-2.18.89-4.06,2.46-4.31,2.4-.38,4.15,3.43,7.87,12.89,1.55,3.95,3.85,9.79,5.11,10.94.73-1.29,1.08-6.44,1.34-10.26.66-9.71,1.3-15.65,4.5-16.16,1.47-.24,2.44.84,3.29,1.8s1.55,1.73,2.61,1.79c3.36.16,7.23-7.09,9.56-11.44s3.33-6.22,5-5.73c1.21.37,1.16,1.7,1.12,3.12a5.57,5.57,0,0,0,.18,2.3h0c1,0,4.49-3.68,6.59-5.88,4.54-4.75,7.43-7.61,9.7-6.63s1.8,4.94.82,11.31c-.44,2.86-1.36,8.82-.38,9.36.29,0,1.26-.63,1.73-1,1.07-.76,2.29-1.63,3.49-1,1.79.94.9,3.68-.45,7.83s-3.17,9.74-1.13,11.57c1.26,1.13,3.91.55,6,.09s4-.87,4.87.41c1.46,2.18-2.9,6.62-13.33,15.28,6.68-4,10.6-5.5,12.34-4,1.58,1.41.29,4.36-1.08,7.49a28.3,28.3,0,0,0-1.24,3.15,31.13,31.13,0,0,0,2.65-2c2.9-2.3,5.89-4.67,8.18-3.58,1.68.8,1.6,2.67,1.52,4.65s-.16,4,1.19,5.43c2,2,6,1.55,9.33,1.19,2.94-.33,5.26-.59,6,1,1,1.92-1.71,4.12-5.76,7.45-3.69,3-8.76,7.2-7.91,9.61a4.38,4.38,0,0,0,1.92,1.8c1,.61,2.16,1.36,1.88,2.64-.35,1.58-2.4,1.87-4.78,2.21-2.15.3-4.83.68-5.54,2-.36.69-.07,1.36.42,2.38s1.1,2.31.44,3.69c-1.2,2.51-5.1,2.52-9.24,2.53-3.9,0-8.32,0-9.82,2.24-1.18,1.74-.77,4.66.39,5.57a3.29,3.29,0,0,0,1.61.5,2.7,2.7,0,0,1,2.32,1.24c.51,1.07-.21,1.93-.84,2.7a5.42,5.42,0,0,0-1.35,2.35c-.57,2.61,1.88,5.09,1.9,5.11a8.73,8.73,0,0,0,3.43,2c.35.12,1.41.49,1.09,1.43l-.14.41-.41.2c-.49.23-.76.14-2.51-.43-3.76-1.22-15.2-4.95-19.82-1.07a4.15,4.15,0,0,0-1.17,1.56,3.71,3.71,0,0,1-1.9,2A5.27,5.27,0,0,1,1039.08,256.14Z" transform="translate(0 248.48)"/>
  </g>
  <path class="tree-cls-1" d="M958.3,302.24,996.09,259c5.93-18.12,11.18-34.16,14.17-43.28,7.51,16.39,12.42,31.61,9.45,43.28l-37.79,54.1Z" transform="translate(0 248.48)"/>
  <g id="leaf5" data-name="5.leaf">
    <path class="tree-cls-2" d="M1458.73,411.81c-9.64-1.71-34.22-1.74-33.75,5.59.06,1,2.85,2.41,2.47,4.87a5.34,5.34,0,0,1-2,2.9c-1.3,1-2.07.77-3.2,1.48-1.72,1.11-1.49,2.71-2.47,4.63-2.1,4.14-7.37,5.19-7,6s4.17-1.09,6.82.69c1.42,1,1.19,2.09,2.43,2.81,2.33,1.37,5.29-2.52,7.63-1.54,1.49.61,2.21,2.84,2,4.55-.43,2.9-3.51,3.66-8,7.42-4.82,4-7.84,8.57-7.14,9.3s4.76-2.68,6.78-1.38c1.41.91,1,3.59.92,3.95-.8,4.68-6.13,5.38-7,10.09-.05.32-.5,3,.93,4,1.7,1.08,4.4-1.47,5.61-.72,2.65,1.65-5.61,17.12-4.28,17.79,1,.53,6.29-8.42,10.24-7.45,1.72.44,1.68,2.35,3.28,2.64,3.77.67,7.58-9.31,10.38-8.73,2.3.49,1.42,7.63,3.21,8,3.39.75,11.33-23.83,14.54-23.2s-.62,25.83,4.07,26.86c1.82.4,3-3.28,5.88-3.27,6.46,0,11,18.49,13.09,18,1-.24-.08-4.6,1.43-5.25,3.08-1.31,12.18,14.61,15.56,13.38s-1.75-19.47,1.83-20.62c1.62-.52,3.72,2.86,5,2.3,2.57-1.16-5.1-15.7-.52-19.32,3.09-2.44,9.58,1.82,10.73.31,2.32-3-22.07-23.15-21.53-23.72s18.39,14.61,21.47,12.17c2.07-1.63-3.34-10.31-1.73-11.23s7.81,7.71,10.84,6.48c2.36-1-.22-6.75,3-9.7,4.25-3.85,14.06,1.07,15.29-1,1.63-2.77-14.81-12.47-12.57-17.7.88-2.05,4.21-2.41,4-3.7-.3-2-8.44-1.2-10-4.6-1-2.28,2.08-4,1.25-6-1.67-4.17-15.55-.45-18.64-5.72-1.25-2.11-.69-5.62,1.06-6.82,1.4-1,3.21-.26,3.72-1.17s-1.58-2.11-2-4.56c-.47-3.14,2.42-5.76,2.61-5.9a12.74,12.74,0,0,1,4.38-2.13c-.1-.39-16.67,5.69-22.62,0-1.67-1.59-1-2.7-2.61-3.6-4.34-2.42-12.1,4-22.73,12.87-1.2,1-3.62,3.07-4.31,6.25a9.55,9.55,0,0,0-.11,3.33" transform="translate(0 248.48)"/>
    <path d="M1500.69,516.24c-2.16,0-4.7-2.88-8.44-7.32-2-2.32-5.22-6.2-6.3-6.2h0a8.08,8.08,0,0,0-.25,2.24c0,1.42-.08,2.76-1.32,3.05-1.65.39-2.57-1.61-4.57-6s-5.44-12-8.78-12h0c-1.07,0-1.87.79-2.72,1.64s-2,1.93-3.41,1.61c-3.16-.7-3.4-6.66-3.42-16.39,0-3.83,0-9-.66-10.32-1.33,1.08-4,6.78-5.82,10.63-4.35,9.23-6.36,12.94-8.71,12.42-1.55-.35-1.84-2.25-2.17-4.45-.13-.86-.53-3.47-1-3.58s-2.45,2.34-3.34,3.52c-2.12,2.8-4.3,5.7-7,5.22a3.46,3.46,0,0,1-2.28-1.69c-.39-.54-.63-.85-1.08-1-1.86-.45-4.86,2.91-6.65,4.93s-2.67,3-3.83,2.43c-1.35-.68-.68-2.41,1.3-7.53,1.14-3,3.49-9.06,2.89-10.28a6.49,6.49,0,0,0-1.31.44c-1.22.48-2.88,1.14-4.29.25-1.81-1.17-1.58-3.85-1.39-4.95.47-2.69,2.25-4.25,3.81-5.63s2.81-2.46,3.15-4.46c.25-1.82-.08-2.71-.47-3-.68-.44-2.47.38-3.54.88-1.4.64-2.6,1.2-3.43.33-1.77-1.85,3.83-7.89,7.23-10.71,1.57-1.3,3-2.27,4.13-3.05,2.31-1.56,3.34-2.32,3.55-3.75s-.44-3.14-1.34-3.51c-.63-.26-1.68.28-2.69.8-1.48.76-3.32,1.71-5.07.68a4,4,0,0,1-1.51-1.68,2.92,2.92,0,0,0-1-1.17c-1.31-.88-3.14-.63-4.47-.45-1.13.16-2.29.31-2.71-.68s.66-1.69,1.87-2.32c1.59-.83,4-2.08,5.19-4.45a10.49,10.49,0,0,0,.65-1.72,5.25,5.25,0,0,1,2.17-3.3,6,6,0,0,1,1.62-.69,3.91,3.91,0,0,0,1.5-.73,4,4,0,0,0,1.62-2.28c.17-1.12-.65-2-1.37-2.81a3.34,3.34,0,0,1-1.12-1.86,4.32,4.32,0,0,1,1.81-3.71c5.72-4.68,25-4.39,33.22-2.93l-.4,2c-8-1.42-26.49-1.57-31.41,2.46a2.45,2.45,0,0,0-1.07,2.09c0,.07.37.43.6.69.87.94,2.18,2.37,1.86,4.38a5.75,5.75,0,0,1-2.27,3.45l-.08.07a5.91,5.91,0,0,1-2.23,1.11,4.1,4.1,0,0,0-1.07.44,3.36,3.36,0,0,0-1.31,2.2,12,12,0,0,1-.78,2,11.26,11.26,0,0,1-4.41,4.42,6.69,6.69,0,0,1,3.85,1,4.87,4.87,0,0,1,1.62,1.86,2,2,0,0,0,.75.91c.64.38,1.52,0,2.89-.73s3-1.55,4.61-.88c2,.84,2.89,3.51,2.59,5.6-.35,2.35-2.05,3.51-4.41,5.11a48.2,48.2,0,0,0-4,2.92,28.83,28.83,0,0,0-6.47,7.23l.29-.14c1.68-.77,4-1.83,5.71-.73.86.55,1.79,1.83,1.39,4.82l0,.1c-.46,2.68-2.23,4.23-3.79,5.61s-2.81,2.47-3.17,4.49c-.2,1.19-.1,2.6.49,3,.43.28,1.38-.11,2.22-.44,1.09-.44,2.33-.93,3.36-.29,2.12,1.31.63,5.65-2.07,12.65-.41,1-.86,2.22-1.22,3.22l.07-.08c2.4-2.69,5.67-6.37,8.87-5.59a4,4,0,0,1,2.31,1.8c.39.56.57.77.89.83,1.34.24,3.36-2.45,4.84-4.41,1.92-2.54,3.57-4.73,5.57-4.32s2.32,2.87,2.68,5.25a13.71,13.71,0,0,0,.58,2.67c1.41-1,4.28-7.06,6.21-11.16,4.24-9,6-12.38,8.27-11.93s2.31,4.34,2.33,12.42c0,4.56,0,14.06,1.77,14.44.24.05.9-.6,1.34-1A6.15,6.15,0,0,1,1471,488h0c4.76,0,8.09,7.32,10.76,13.19.57,1.25,1.23,2.7,1.77,3.7v0c0-1.59.1-3.4,1.55-4,2.18-.93,4.65,1.84,8.83,6.81,2,2.35,5.66,6.71,6.78,6.55,1-.55.46-6.19.2-9.22-.57-6.56-.79-10.63,1.67-11.42,1.42-.45,2.73.59,3.77,1.43a11.71,11.71,0,0,0,1,.76c.12-1-.53-3.5-1-5.42-1.33-5.2-2.83-11.1.34-13.6,2.22-1.75,5.44-.86,8-.14a13.17,13.17,0,0,0,2.51.55c0-2.28-11.71-13.07-16.15-17.17-6-5.56-6.15-5.67-5.3-6.56s1.18-.58,5.68,2.72c9.39,6.87,14.74,10,15.9,9.35.52-.54-.71-3.92-1.23-5.37-1.07-3-1.84-5.1-.37-5.94s3,.62,5.39,2.77c1.58,1.42,4.54,4.07,5.58,3.65.46-.19.5-1.62.53-2.77.06-2.17.12-4.86,2.2-6.74,2.88-2.61,7.73-1.78,11.26-1.18a14.28,14.28,0,0,0,3.82.36c-.08-.9-3-3.58-4.88-5.37-4.34-4-9.26-8.62-7.73-12.2a6.06,6.06,0,0,1,2.93-2.66,8.44,8.44,0,0,0,1-.58,13.87,13.87,0,0,0-2.88-.76c-2.62-.52-5.88-1.17-6.93-3.55-.7-1.61,0-3,.66-4,.5-.9.8-1.47.58-2-.55-1.36-3.92-1.56-7.18-1.76-4.45-.26-9.49-.57-11.41-3.83-1.51-2.57-.83-6.59,1.37-8.11a5.46,5.46,0,0,1,2.72-.79,5.54,5.54,0,0,0,.6-.06,6.5,6.5,0,0,0-.45-.66,6.49,6.49,0,0,1,.38-9c-5.58,1.16-13.34,2-17.24-1.72a6.15,6.15,0,0,1-1.54-2.31,1.71,1.71,0,0,0-.87-1.13c-3.65-2-11.5,4.48-21.44,12.75a10.68,10.68,0,0,0-4,5.71,8.34,8.34,0,0,0-.09,3l-2.13.27a10.18,10.18,0,0,1,.12-3.65c.78-3.63,3.59-5.94,4.65-6.81,11.43-9.5,19-15.77,24-13a3.74,3.74,0,0,1,1.77,2.13,4,4,0,0,0,1.06,1.63c4.35,4.13,16,1.07,19.85.06,1.78-.46,2.06-.53,2.53-.28l.4.22.11.42c.27,1-.82,1.26-1.18,1.36a8.86,8.86,0,0,0-3.5,1.74c-.08.06-2.69,2.38-2.29,5a5.56,5.56,0,0,0,1.19,2.42c.58.8,1.25,1.7.66,2.74a2.69,2.69,0,0,1-2.4,1.1,3.39,3.39,0,0,0-1.63.41c-1.22.84-1.82,3.74-.76,5.54,1.35,2.3,5.76,2.56,9.65,2.8,4.13.24,8,.48,9.06,3.06.57,1.41-.13,2.65-.69,3.65s-.88,1.64-.57,2.36c.61,1.39,3.26,1.92,5.39,2.35,2.36.47,4.39.88,4.62,2.48.2,1.29-1,2-2,2.53a4.35,4.35,0,0,0-2,1.68c-1,2.35,3.77,6.8,7.26,10,3.83,3.56,6.35,5.92,5.26,7.77-.88,1.51-3.19,1.12-6.1.62-3.25-.55-7.3-1.24-9.39.65-1.44,1.31-1.49,3.46-1.54,5.35s-.1,3.86-1.83,4.56c-2.36,1-5.19-1.58-7.93-4a31.28,31.28,0,0,0-2.51-2.11,27.89,27.89,0,0,0,1,3.2c1.15,3.21,2.25,6.23.58,7.54-1.84,1.45-5.65-.29-12-4.65,9.83,9.24,13.89,13.93,12.28,16-.93,1.23-2.76.72-4.88.13s-4.69-1.31-6-.26c-2.16,1.71-.71,7.44.36,11.62s1.78,7-.07,7.84c-1.24.56-2.4-.38-3.42-1.2-.45-.36-1.38-1.11-1.67-1.06-1,.48-.48,6.48-.23,9.37.55,6.41.77,10.39-1.56,11.24A2.27,2.27,0,0,1,1500.69,516.24Z" transform="translate(0 248.48)"/>
  </g>
  <path class="tree-cls-1" d="M1451,324.25c.59,15.8,1.25,33.72,2.08,55.75l19.88,41.29c-17.23-7.75-31.68-16.21-37.68-26.83-3.45-22.67-6.64-43.63-9.72-63.9Z" transform="translate(0 248.48)"/>
  <g id="leaf6" data-name="6.leaf">
    <path class="tree-cls-2" d="M1782,227.61c-9.73,1.15-34.27-.23-33.32-7.52.13-1,3-2.24,2.8-4.72a5.34,5.34,0,0,0-1.79-3c-1.23-1.09-2-.88-3.1-1.65-1.64-1.21-1.3-2.8-2.16-4.77-1.82-4.25-7-5.61-6.62-6.36s4.08,1.33,6.85-.3c1.48-.87,1.33-2,2.61-2.66,2.42-1.24,5.12,2.81,7.51,2,1.52-.53,2.39-2.7,2.26-4.43-.23-2.92-3.26-3.85-7.52-7.86-4.55-4.28-7.26-9-6.52-9.69s4.58,2.94,6.68,1.76c1.47-.83,1.2-3.53,1.18-3.88-.49-4.72-5.77-5.73-6.28-10.48,0-.33-.3-3.06,1.19-3.9,1.77-1,4.3,1.72,5.55,1,2.76-1.49-4.47-17.41-3.09-18,1.06-.47,5.72,8.77,9.73,8,1.74-.34,1.83-2.25,3.44-2.45,3.81-.45,7,9.73,9.78,9.32,2.33-.36,1.93-7.54,3.74-7.83,3.43-.55,9.73,24.44,13,24s1.09-25.81,5.83-26.58c1.85-.29,2.79,3.45,5.66,3.61,6.44.35,12.23-17.83,14.25-17.22,1,.3-.38,4.59,1.09,5.32,3,1.49,13.12-13.87,16.41-12.45s-3,19.33.47,20.68c1.57.61,3.9-2.64,5.11-2,2.48,1.31-6.13,15.37-1.8,19.25,2.93,2.62,9.69-1.26,10.73.31,2.11,3.15-23.57,21.84-23.06,22.44s19.32-13.52,22.24-10.91c2,1.74-4,10.09-2.48,11.1s8.31-7.25,11.25-5.85c2.3,1.1-.66,6.73,2.4,9.87,4,4.08,14.11-.26,15.19,1.91,1.45,2.85-15.6,11.59-13.71,16.94.74,2.1,4,2.65,3.76,3.93-.44,2-8.51.71-10.24,4-1.13,2.22,1.82,4.08.85,6.09-1.94,4.07-15.55-.43-19,4.64-1.38,2.05-1,5.58.61,6.88,1.34,1,3.19.44,3.64,1.38s-1.72,2-2.26,4.44c-.68,3.1,2,5.89,2.22,6a12.27,12.27,0,0,0,4.23,2.37c-.13.38-16.27-6.63-22.58-1.34-1.77,1.49-1.19,2.64-2.85,3.45-4.48,2.16-11.8-4.73-21.83-14.15-1.13-1.06-3.41-3.27-3.89-6.49a9.75,9.75,0,0,1,.12-3.32" transform="translate(0 248.48)"/>
    <path d="M1814,253.92c-5,0-11.5-6.16-20.74-14.85-1-.94-3.65-3.4-4.2-7.06a10.72,10.72,0,0,1,.12-3.66l2.11.39a8.64,8.64,0,0,0-.1,3c.44,3,2.64,5,3.58,5.91,9.39,8.83,16.79,15.79,20.58,14a1.78,1.78,0,0,0,.94-1.08,6.23,6.23,0,0,1,1.69-2.22c4.14-3.48,11.82-2.21,17.32-.73a7.35,7.35,0,0,1-1.53-5.8,7.49,7.49,0,0,1,1.75-3.18,7.32,7.32,0,0,0,.49-.63c-.16,0-.41-.07-.59-.1a5.29,5.29,0,0,1-2.66-.95c-2.1-1.64-2.51-5.68-.83-8.17,2.12-3.14,7.17-3.16,11.63-3.17,3.27,0,6.65,0,7.28-1.34.26-.54,0-1.14-.44-2.06-.53-1.11-1.2-2.5-.4-4.06,1.21-2.32,4.51-2.79,7.17-3.16a13,13,0,0,0,2.89-.6,7.44,7.44,0,0,0-.88-.62,6,6,0,0,1-2.75-2.82c-1.3-3.66,3.92-8,8.52-11.74,2-1.67,5.09-4.18,5.22-5.08a14.16,14.16,0,0,0-3.83.15c-3.57.39-8.46.94-11.16-1.83-2-2-1.84-4.68-1.75-6.85,0-1.15.1-2.58-.35-2.8-1-.48-4.14,2-5.81,3.32-2.53,2-4.21,3.35-5.56,2.46s-.5-3,.76-5.91c.62-1.41,2.06-4.71,1.58-5.29-1.12-.73-6.66,2.11-16.48,8.43-4.72,3-5.1,3.28-5.86,2.38s-.66-1,5.73-6.24c4.66-3.79,16.83-13.71,17.22-16.21a12.36,12.36,0,0,0-2.51.4c-2.63.57-5.9,1.28-8-.6-3-2.68-1.11-8.48.56-13.59a24.71,24.71,0,0,0,1.38-5.35,10.23,10.23,0,0,0-1.07.69c-1.1.78-2.47,1.75-3.86,1.22-2.41-.94-1.92-5-.92-11.49.47-3,1.33-8.61.41-9.22-1.07-.25-5.05,3.91-7.19,6.15-4.5,4.72-7.16,7.34-9.27,6.29-1.4-.7-1.33-2.51-1.28-4.11v0c-.6,1-1.35,2.37-2,3.59-3.05,5.71-6.86,12.83-11.6,12.55-2-.11-3.23-1.5-4.14-2.51-.41-.46-1-1.15-1.27-1.11-1.77.28-2.41,9.76-2.72,14.31-.55,8.07-.91,12-3.14,12.27s-3.84-3.15-7.48-12.38c-1.65-4.21-4.11-10.46-5.45-11.5a13,13,0,0,0-.75,2.63c-.52,2.35-1,4.78-3,5.08s-3.54-2-5.28-4.62c-1.35-2.05-3.2-4.85-4.54-4.68-.33,0-.52.24-1,.77a4,4,0,0,1-2.41,1.66c-3.26.61-6.28-3.26-8.49-6.08l-.07-.09c.29,1,.67,2.22,1,3.29,2.24,7.14,3.43,11.56,1.24,12.74-1.08.58-2.28,0-3.34-.48-.81-.38-1.74-.82-2.2-.56s-.79,1.74-.67,2.95c.22,2,1.44,3.25,2.86,4.66s3.14,3.11,3.42,5.81v.11c.2,3-.82,4.22-1.71,4.72-1.79,1-4-.19-5.65-1.06l-.28-.15a28.72,28.72,0,0,0,6,7.59,47.16,47.16,0,0,0,3.77,3.14c2.25,1.74,3.87,3,4.06,5.34.17,2.12-.9,4.73-3,5.45-1.65.58-3.19-.33-4.54-1.14s-2.18-1.23-2.83-.9a2,2,0,0,0-.82.87,4.94,4.94,0,0,1-1.74,1.77,6.76,6.76,0,0,1-3.91.78,10,10,0,0,1,4.75,6.73,3.3,3.3,0,0,0,1.19,2.28,3.7,3.7,0,0,0,1,.49,5.88,5.88,0,0,1,2.15,1.23l.08.08a5.79,5.79,0,0,1,2,3.57c.18,2-1.22,3.38-2.15,4.27a4.85,4.85,0,0,0-.67.72,2.46,2.46,0,0,0,1,2.08c4.65,4.3,23.09,5.22,31.19,4.26l.27,2c-8.36,1-27.57.18-33-4.82a4.29,4.29,0,0,1-1.55-3.81,3.34,3.34,0,0,1,1.24-1.8c.77-.74,1.65-1.59,1.54-2.71a3.93,3.93,0,0,0-1.42-2.34,3.78,3.78,0,0,0-1.49-.85,5.82,5.82,0,0,1-1.55-.77,5.13,5.13,0,0,1-2-3.43,11.3,11.3,0,0,0-.54-1.76c-1.05-2.43-3.36-3.82-4.89-4.74-1.16-.7-2.26-1.36-1.71-2.42s1.64-.74,2.75-.52c1.32.26,3.12.61,4.49-.19a3,3,0,0,0,1-1.11,4,4,0,0,1,1.63-1.59c1.81-.93,3.58.12,5,1,1,.58,2,1.18,2.64.95.91-.32,1.67-2,1.56-3.43s-1.09-2.25-3.29-3.95a49.86,49.86,0,0,1-3.93-3.28c-3.2-3-8.39-9.36-6.5-11.1.88-.82,2-.19,3.4.53,1,.55,2.77,1.48,3.47,1.08.41-.23.79-1.1.67-2.89-.21-2.06-1.43-3.27-2.84-4.67s-3.15-3.13-3.44-5.84c-.11-1.11-.17-3.79,1.71-4.86,1.47-.81,3.09-.06,4.27.5a6.78,6.78,0,0,0,1.28.51c.68-1.19-1.26-7.4-2.21-10.43-1.64-5.22-2.19-7-.78-7.59,1.17-.51,2,.54,3.65,2.65s4.43,5.65,6.32,5.3c.45-.09.71-.38,1.13-.9a3.56,3.56,0,0,1,2.38-1.56c2.73-.33,4.72,2.7,6.65,5.62.81,1.23,2.49,3.78,3.11,3.7s1.06-2.66,1.25-3.51c.48-2.18.89-4.06,2.46-4.31,2.4-.38,4.15,3.43,7.87,12.89,1.56,3.95,3.86,9.79,5.11,10.94.73-1.29,1.08-6.44,1.35-10.26.66-9.71,1.29-15.64,4.49-16.16,1.48-.24,2.44.85,3.29,1.8s1.55,1.73,2.62,1.79c3.37.19,7.22-7.09,9.55-11.44s3.33-6.22,5-5.73c1.21.37,1.17,1.7,1.12,3.12a5.93,5.93,0,0,0,.18,2.3c1,.05,4.5-3.67,6.61-5.88,4.54-4.75,7.43-7.62,9.71-6.63s1.79,4.94.81,11.31c-.44,2.86-1.35,8.82-.38,9.36.29.06,1.26-.63,1.73-1,1.08-.76,2.3-1.63,3.5-1,1.79.94.89,3.68-.46,7.83s-3.17,9.74-1.12,11.57c1.25,1.13,3.9.55,6,.09s4-.87,4.87.41c1.46,2.18-2.89,6.62-13.32,15.28,6.67-4,10.59-5.5,12.33-3.94,1.58,1.4.29,4.36-1.08,7.48a28.89,28.89,0,0,0-1.23,3.15c.73-.45,1.84-1.33,2.65-2,2.89-2.3,5.88-4.67,8.18-3.58,1.67.8,1.59,2.67,1.51,4.66s-.16,4,1.2,5.43c2,2,6,1.54,9.32,1.18,2.94-.33,5.27-.59,6.05,1,1,1.92-1.71,4.12-5.77,7.45-3.69,3-8.75,7.21-7.9,9.61.26.75,1.1,1.28,1.92,1.8s2.15,1.37,1.87,2.64c-.34,1.59-2.4,1.87-4.77,2.21-2.16.3-4.84.68-5.55,2-.35.69-.07,1.36.42,2.39a4.08,4.08,0,0,1,.44,3.68c-1.2,2.51-5.1,2.52-9.24,2.53-3.9,0-8.32,0-9.82,2.24-1.18,1.74-.77,4.66.4,5.57a3.15,3.15,0,0,0,1.6.5,2.7,2.7,0,0,1,2.32,1.24c.51,1.07-.21,1.94-.84,2.7a5.58,5.58,0,0,0-1.35,2.35c-.57,2.62,1.88,5.09,1.91,5.11a8.6,8.6,0,0,0,3.43,2c.35.12,1.41.49,1.08,1.44l-.14.4-.41.2c-.49.23-.76.14-2.51-.43-3.76-1.22-15.2-4.95-19.82-1.07a4.18,4.18,0,0,0-1.16,1.56,3.78,3.78,0,0,1-1.91,2A5.27,5.27,0,0,1,1814,253.92Z" transform="translate(0 248.48)"/>
  </g>
  <path class="tree-cls-1" d="M1733.21,300,1771,256.74c5.94-18.12,11.19-34.16,14.17-43.28,7.51,16.39,12.43,31.61,9.45,43.28l-37.79,54.11Z" transform="translate(0 248.48)"/>
  <g id="leaf7" data-name="7.leaf">
    <path class="tree-cls-2" d="M2095.42,380.36c-9.64-1.7-34.22-1.74-33.76,5.59.07,1,2.86,2.42,2.48,4.88a5.33,5.33,0,0,1-2,2.9c-1.29,1-2.06.77-3.2,1.47-1.71,1.11-1.48,2.72-2.46,4.64-2.1,4.13-7.37,5.19-7,6s4.17-1.1,6.82.69c1.42.95,1.19,2.08,2.43,2.81,2.33,1.37,5.29-2.52,7.63-1.55,1.48.62,2.21,2.84,2,4.56-.43,2.9-3.51,3.66-8,7.41-4.82,4-7.84,8.57-7.14,9.3s4.76-2.67,6.78-1.37c1.41.91,1,3.58.92,3.94-.81,4.68-6.14,5.38-7,10.09-.06.33-.5,3,.93,4,1.7,1.08,4.4-1.47,5.6-.72,2.66,1.64-5.6,17.12-4.27,17.78,1,.53,6.29-8.42,10.24-7.44,1.72.43,1.68,2.35,3.28,2.64,3.76.67,7.58-9.31,10.38-8.74,2.3.49,1.42,7.63,3.2,8,3.4.74,11.34-23.84,14.55-23.2s-.62,25.82,4.07,26.86c1.81.4,3-3.28,5.88-3.28,6.45,0,11,18.5,13.08,18,1-.24-.08-4.6,1.44-5.25,3.08-1.31,12.18,14.6,15.55,13.37s-1.74-19.47,1.84-20.62c1.61-.51,3.72,2.87,5,2.3,2.56-1.16-5.1-15.69-.52-19.31,3.09-2.45,9.58,1.81,10.72.31,2.32-3-22.07-23.15-21.52-23.73s18.38,14.61,21.47,12.17c2.07-1.62-3.34-10.3-1.73-11.22s7.8,7.71,10.83,6.48c2.37-1-.21-6.75,3.05-9.71,4.26-3.84,14.07,1.07,15.29-1,1.63-2.77-14.81-12.47-12.57-17.7.89-2.05,4.22-2.41,4-3.71-.31-2-8.45-1.19-9.95-4.59-1-2.29,2.08-4,1.25-6-1.67-4.17-15.55-.45-18.65-5.72-1.24-2.12-.68-5.62,1.07-6.83,1.4-1,3.21-.25,3.72-1.16s-1.58-2.11-2-4.56c-.47-3.14,2.43-5.77,2.62-5.91a12.65,12.65,0,0,1,4.38-2.13c-.1-.38-16.67,5.69-22.62.05-1.67-1.59-1-2.71-2.62-3.6-4.33-2.42-12.1,4-22.72,12.87a11.54,11.54,0,0,0-4.31,6.24,9.56,9.56,0,0,0-.11,3.33" transform="translate(0 248.48)"/>
    <path d="M2137.38,484.8c-2.16,0-4.7-2.88-8.44-7.32-2-2.32-5.22-6.21-6.3-6.21h0a8.22,8.22,0,0,0-.24,2.25c0,1.41-.09,2.75-1.32,3.05-1.66.39-2.57-1.61-4.57-6s-5.45-12-8.78-12h0c-1.06,0-1.86.8-2.72,1.64s-1.95,1.93-3.4,1.61c-3.16-.7-3.4-6.66-3.42-16.38,0-3.84,0-9-.66-10.33-1.33,1.08-4,6.78-5.83,10.63-4.34,9.23-6.35,12.94-8.7,12.42-1.55-.34-1.84-2.25-2.18-4.45-.13-.86-.52-3.46-1-3.57s-2.45,2.33-3.34,3.51c-2.12,2.81-4.3,5.71-7,5.23a3.51,3.51,0,0,1-2.29-1.69c-.38-.54-.62-.85-1.07-1-1.86-.45-4.86,2.92-6.65,4.93s-2.68,3-3.83,2.43c-1.35-.68-.68-2.4,1.29-7.53,1.15-3,3.5-9.06,2.9-10.27a6.4,6.4,0,0,0-1.31.43c-1.22.49-2.88,1.15-4.29.26-1.81-1.18-1.58-3.86-1.39-5,.47-2.69,2.24-4.25,3.81-5.62s2.8-2.46,3.15-4.47c.24-1.81-.09-2.71-.47-3-.68-.44-2.47.39-3.54.88-1.4.65-2.61,1.2-3.43.34-1.78-1.85,3.83-7.89,7.23-10.71a51,51,0,0,1,4.13-3.05c2.31-1.57,3.34-2.32,3.55-3.76s-.45-3.13-1.34-3.51c-.63-.26-1.68.28-2.69.8-1.48.76-3.32,1.71-5.07.68a4,4,0,0,1-1.52-1.68,2.87,2.87,0,0,0-1-1.16c-1.32-.89-3.14-.64-4.47-.45-1.13.15-2.29.31-2.72-.68s.67-1.69,1.87-2.32c1.59-.83,4-2.09,5.2-4.45a10.26,10.26,0,0,0,.65-1.73,5.26,5.26,0,0,1,2.17-3.3,6.28,6.28,0,0,1,1.62-.69,3.7,3.7,0,0,0,1.5-.73,4.1,4.1,0,0,0,1.62-2.28c.17-1.12-.65-2-1.37-2.8a3.3,3.3,0,0,1-1.12-1.87,4.34,4.34,0,0,1,1.8-3.71c5.73-4.68,25-4.39,33.23-2.92l-.4,2c-8-1.41-26.49-1.56-31.41,2.47a2.44,2.44,0,0,0-1.07,2.09c0,.06.36.42.6.68.87.95,2.18,2.37,1.86,4.39a5.86,5.86,0,0,1-2.27,3.45l-.08.07a6.07,6.07,0,0,1-2.23,1.11,4.14,4.14,0,0,0-1.07.43,3.44,3.44,0,0,0-1.32,2.21,12.24,12.24,0,0,1-.77,2,11.36,11.36,0,0,1-4.41,4.41,6.66,6.66,0,0,1,3.85,1,4.89,4.89,0,0,1,1.62,1.86,2,2,0,0,0,.75.91c.63.37,1.51,0,2.89-.74s3-1.54,4.61-.87c2,.83,2.89,3.5,2.59,5.6-.35,2.34-2.06,3.5-4.42,5.11a46,46,0,0,0-4,2.92,29.32,29.32,0,0,0-6.48,7.22l.3-.13c1.68-.78,4-1.84,5.71-.73.85.55,1.79,1.83,1.38,4.81v.11c-.46,2.67-2.23,4.23-3.8,5.6s-2.81,2.47-3.16,4.49c-.2,1.2-.1,2.61.49,3,.42.27,1.38-.11,2.22-.45,1.09-.43,2.33-.92,3.36-.28,2.11,1.31.63,5.65-2.08,12.64-.4,1.05-.85,2.22-1.21,3.23l.07-.08c2.39-2.69,5.67-6.38,8.87-5.59a3.89,3.89,0,0,1,2.3,1.8c.4.55.58.77.9.83,1.35.23,3.36-2.46,4.84-4.42,1.91-2.53,3.57-4.72,5.57-4.31s2.32,2.87,2.68,5.24a13.83,13.83,0,0,0,.58,2.68c1.41-1,4.28-7.07,6.21-11.17,4.23-9,6.05-12.37,8.27-11.93s2.31,4.34,2.33,12.42c0,4.57,0,14.06,1.76,14.45.25.05.91-.6,1.35-1a6.12,6.12,0,0,1,4.28-2.27h0c4.76,0,8.08,7.32,10.76,13.2.57,1.25,1.22,2.69,1.76,3.7v0c.05-1.6.11-3.4,1.55-4,2.18-.93,4.66,1.83,8.84,6.8,2,2.36,5.66,6.73,6.78,6.55.94-.55.46-6.19.19-9.22-.56-6.56-.79-10.62,1.68-11.41,1.42-.46,2.72.59,3.77,1.43a12.26,12.26,0,0,0,1,.76,24.77,24.77,0,0,0-1-5.42c-1.33-5.21-2.83-11.1.34-13.6,2.21-1.76,5.44-.86,8-.14a12.63,12.63,0,0,0,2.52.55c0-2.29-11.71-13.08-16.15-17.18-6-5.56-6.15-5.66-5.31-6.55s1.18-.59,5.69,2.71c9.39,6.87,14.73,10,15.9,9.36.51-.55-.71-3.93-1.23-5.37-1.07-3-1.85-5.1-.38-5.94s3,.61,5.39,2.77c1.59,1.42,4.53,4.07,5.58,3.64.47-.19.51-1.62.54-2.77.05-2.16.12-4.86,2.19-6.74,2.89-2.6,7.73-1.78,11.27-1.18a13.43,13.43,0,0,0,3.81.36c-.07-.9-2.95-3.58-4.87-5.37-4.34-4-9.26-8.62-7.73-12.19a6.13,6.13,0,0,1,2.93-2.67,7.19,7.19,0,0,0,1-.58,14,14,0,0,0-2.88-.75c-2.62-.52-5.88-1.18-6.94-3.55-.69-1.62.06-3,.67-4,.5-.9.8-1.48.57-2-.54-1.36-3.91-1.57-7.18-1.76-4.44-.27-9.48-.57-11.4-3.83-1.51-2.58-.83-6.59,1.37-8.11a5.36,5.36,0,0,1,2.72-.79c.18,0,.43,0,.6-.07a6.5,6.5,0,0,0-.45-.66,7.29,7.29,0,0,1-1.54-3.26,7.46,7.46,0,0,1,1.92-5.71c-5.58,1.16-13.34,2-17.25-1.72a6.12,6.12,0,0,1-1.53-2.32,1.83,1.83,0,0,0-.87-1.13c-3.66-2-11.5,4.49-21.44,12.75-1,.84-3.35,2.75-4,5.71a8.64,8.64,0,0,0-.1,3l-2.13.26a10.67,10.67,0,0,1,.12-3.65c.79-3.62,3.6-5.93,4.66-6.8,11.43-9.5,19-15.78,24-13a3.69,3.69,0,0,1,1.77,2.12,4.16,4.16,0,0,0,1.07,1.64c4.35,4.13,16,1.07,19.85.06,1.78-.47,2-.54,2.53-.28l.39.21.12.42c.27,1-.82,1.27-1.18,1.37a8.83,8.83,0,0,0-3.51,1.73c-.07.06-2.68,2.39-2.28,5a5.45,5.45,0,0,0,1.19,2.42c.58.79,1.24,1.7.66,2.74a2.75,2.75,0,0,1-2.4,1.1,3.28,3.28,0,0,0-1.63.41c-1.23.84-1.82,3.73-.76,5.54,1.34,2.29,5.76,2.56,9.65,2.79,4.13.25,8,.48,9.06,3.06a4.11,4.11,0,0,1-.69,3.65c-.56,1-.88,1.65-.58,2.37.62,1.39,3.27,1.92,5.4,2.35,2.35.47,4.38.87,4.62,2.48.2,1.28-1,2-2,2.52a4.37,4.37,0,0,0-2,1.69c-1,2.35,3.77,6.79,7.26,10,3.82,3.56,6.35,5.91,5.26,7.77-.88,1.51-3.19,1.12-6.1.62-3.25-.55-7.3-1.24-9.39.65-1.44,1.3-1.5,3.45-1.55,5.35s-.1,3.86-1.82,4.56c-2.36,1-5.19-1.59-7.93-4a31.51,31.51,0,0,0-2.51-2.12,27.85,27.85,0,0,0,1,3.21c1.16,3.2,2.26,6.22.58,7.54-1.83,1.45-5.65-.3-12.05-4.65,9.84,9.24,13.9,13.92,12.29,16-.93,1.23-2.76.72-4.88.13s-4.7-1.31-6-.26c-2.17,1.71-.71,7.43.36,11.61s1.78,7-.07,7.84c-1.24.56-2.4-.37-3.42-1.2-.45-.35-1.38-1.08-1.67-1.05-1,.48-.48,6.48-.24,9.36.56,6.42.78,10.39-1.56,11.25A2.45,2.45,0,0,1,2137.38,484.8Z" transform="translate(0 248.48)"/>
  </g>
  <path class="tree-cls-1" d="M2087.66,292.81c.59,15.79,1.26,33.71,2.09,55.75,8.32,17.29,15.69,32.58,19.88,41.28C2092.4,382.09,2078,373.63,2072,363c-3.45-22.67-6.64-43.63-9.72-63.9Z" transform="translate(0 248.48)"/>
  <g id="leaf8" data-name="8.leaf">
    <path class="tree-cls-2" d="M2414.77,207.85c-9.73,1.15-34.27-.23-33.32-7.52.13-1,3-2.24,2.8-4.72a5.3,5.3,0,0,0-1.79-3c-1.23-1.09-2-.89-3.1-1.65-1.64-1.21-1.3-2.8-2.15-4.77-1.83-4.25-7-5.61-6.63-6.36s4.08,1.33,6.85-.3c1.48-.88,1.33-2,2.61-2.67,2.42-1.23,5.12,2.82,7.51,2,1.53-.53,2.4-2.7,2.26-4.43-.23-2.92-3.26-3.86-7.52-7.86-4.55-4.28-7.26-9-6.52-9.7s4.58,2.95,6.68,1.76c1.47-.82,1.2-3.52,1.18-3.88-.49-4.72-5.77-5.72-6.28-10.47,0-.33-.29-3.06,1.2-3.9,1.76-1,4.29,1.71,5.54,1,2.76-1.49-4.46-17.41-3.09-18,1.06-.47,5.72,8.77,9.73,8,1.74-.34,1.83-2.25,3.44-2.45,3.81-.45,6.95,9.73,9.78,9.31,2.34-.35,1.93-7.53,3.74-7.82,3.43-.55,9.73,24.44,13,24s1.09-25.81,5.84-26.58c1.84-.29,2.78,3.45,5.65,3.61,6.44.35,12.24-17.83,14.25-17.22,1,.3-.38,4.59,1.09,5.32,3,1.49,13.12-13.87,16.41-12.46s-3,19.34.47,20.69c1.57.61,3.9-2.64,5.11-2,2.48,1.3-6.13,15.37-1.8,19.25,2.93,2.62,9.69-1.27,10.73.3,2.11,3.16-23.56,21.85-23.06,22.45s19.32-13.53,22.24-10.92c2,1.74-4,10.1-2.47,11.11s8.3-7.25,11.24-5.85c2.3,1.09-.66,6.73,2.4,9.87,4,4.08,14.11-.27,15.2,1.9,1.44,2.86-15.61,11.6-13.72,16.95.74,2.1,4,2.65,3.76,3.93-.44,2-8.51.71-10.24,4-1.13,2.23,1.82,4.09.86,6.1-2,4.07-15.56-.44-19,4.64-1.38,2-1.06,5.57.61,6.88,1.33,1,3.18.43,3.63,1.38s-1.71,2-2.26,4.43c-.68,3.11,2,5.89,2.22,6.05a12.37,12.37,0,0,0,4.23,2.37c-.13.38-16.27-6.63-22.57-1.34-1.78,1.49-1.19,2.64-2.85,3.44-4.49,2.17-11.81-4.72-21.83-14.15a11.39,11.39,0,0,1-3.89-6.48,9.5,9.5,0,0,1,.11-3.32" transform="translate(0 248.48)"/>
    <path d="M2446.8,234.16c-5,0-11.5-6.16-20.74-14.85-1-.94-3.65-3.4-4.2-7.06a10.48,10.48,0,0,1,.13-3.66l2.1.39a8.64,8.64,0,0,0-.1,3c.45,3,2.65,5,3.58,5.91,9.39,8.83,16.79,15.79,20.58,14a1.85,1.85,0,0,0,.95-1.08,6.05,6.05,0,0,1,1.68-2.22c4.14-3.48,11.82-2.21,17.32-.73a6.51,6.51,0,0,1,.22-9,7.32,7.32,0,0,0,.49-.63,5.18,5.18,0,0,0-.59-.1,5.29,5.29,0,0,1-2.66-1c-2.1-1.64-2.51-5.69-.83-8.17,2.12-3.15,7.17-3.16,11.63-3.17,3.27,0,6.65,0,7.28-1.34.26-.54,0-1.14-.44-2.06-.53-1.11-1.19-2.5-.4-4.07,1.21-2.31,4.52-2.78,7.17-3.15a12.59,12.59,0,0,0,2.9-.61,9.08,9.08,0,0,0-.89-.61,6,6,0,0,1-2.75-2.83c-1.29-3.65,3.92-7.94,8.52-11.73,2-1.67,5.09-4.18,5.22-5.08a14.42,14.42,0,0,0-3.82.14c-3.58.4-8.47.94-11.17-1.82-1.95-2-1.84-4.69-1.75-6.85.05-1.15.1-2.58-.35-2.8-1-.49-4.14,2-5.81,3.32-2.53,2-4.21,3.34-5.56,2.46s-.5-3,.77-5.91c.61-1.41,2-4.72,1.58-5.3-1.11-.71-6.67,2.12-16.49,8.44-4.72,3-5.1,3.28-5.86,2.37s-.65-1,5.73-6.23c4.66-3.8,16.83-13.71,17.22-16.22a14.51,14.51,0,0,0-2.51.41c-2.63.57-5.9,1.28-8-.6-3-2.68-1.11-8.48.56-13.59a24.63,24.63,0,0,0,1.38-5.36,12.28,12.28,0,0,0-1.07.7c-1.1.78-2.46,1.75-3.85,1.21-2.41-.93-1.92-5-.92-11.48.46-3,1.32-8.61.4-9.22-1.08-.24-5,3.91-7.19,6.15-4.5,4.72-7.15,7.34-9.27,6.28-1.4-.69-1.33-2.5-1.28-4.1v0c-.6,1-1.35,2.37-2,3.59-3.06,5.7-6.86,12.84-11.61,12.55-2-.11-3.23-1.5-4.14-2.51-.4-.46-1-1.14-1.27-1.11-1.76.28-2.41,9.76-2.72,14.31-.55,8.07-.91,12-3.14,12.27s-3.84-3.15-7.47-12.39c-1.66-4.2-4.12-10.45-5.46-11.49a13,13,0,0,0-.75,2.63c-.52,2.35-1.05,4.78-3,5.08s-3.54-2-5.28-4.62c-1.35-2-3.19-4.86-4.54-4.69-.32,0-.52.25-.95.78a4,4,0,0,1-2.41,1.66c-3.25.61-6.28-3.26-8.49-6.09l-.07-.08c.3,1,.67,2.22,1,3.29,2.23,7.14,3.43,11.55,1.23,12.74-1.08.58-2.28,0-3.34-.48-.81-.38-1.74-.82-2.2-.57s-.79,1.75-.67,3c.22,2,1.45,3.25,2.86,4.65s3.14,3.12,3.42,5.82v.1c.2,3-.81,4.23-1.7,4.73-1.79,1-4-.19-5.66-1.06l-.28-.15a28.72,28.72,0,0,0,6,7.58,47.51,47.51,0,0,0,3.77,3.15c2.25,1.73,3.87,3,4.07,5.34.16,2.12-.9,4.73-3,5.45-1.65.57-3.19-.34-4.54-1.14s-2.18-1.23-2.83-.9a2.11,2.11,0,0,0-.82.87,4.85,4.85,0,0,1-1.74,1.76,6.68,6.68,0,0,1-3.91.79,10.06,10.06,0,0,1,4.75,6.72c.28,1.13.45,1.75,1.19,2.29a3.7,3.7,0,0,0,1,.49,5.88,5.88,0,0,1,2.15,1.23l.08.07a5.82,5.82,0,0,1,2,3.58c.18,2-1.22,3.38-2.15,4.27a5.48,5.48,0,0,0-.67.72,2.47,2.47,0,0,0,1,2.08c4.64,4.3,23.08,5.21,31.18,4.26l.27,2c-8.36,1-27.57.18-33-4.82a4.31,4.31,0,0,1-1.55-3.81,3.34,3.34,0,0,1,1.24-1.8c.77-.74,1.65-1.59,1.55-2.72a4,4,0,0,0-1.43-2.33,3.81,3.81,0,0,0-1.48-.85,6,6,0,0,1-1.56-.77,5.2,5.2,0,0,1-2-3.43,11,11,0,0,0-.54-1.76c-1-2.43-3.36-3.82-4.89-4.74-1.16-.7-2.26-1.36-1.71-2.42s1.64-.74,2.75-.52c1.32.26,3.12.61,4.49-.2a2.82,2.82,0,0,0,1.05-1.1,4,4,0,0,1,1.63-1.59c1.81-.93,3.58.12,5,1,1,.58,2,1.19,2.64,1,.91-.32,1.67-2,1.56-3.43s-1.09-2.26-3.29-3.95a50.33,50.33,0,0,1-3.92-3.28c-3.21-3-8.4-9.36-6.51-11.11.88-.81,2.05-.19,3.4.54,1,.55,2.77,1.48,3.48,1.08.4-.23.79-1.11.66-2.89-.21-2.06-1.43-3.27-2.84-4.68s-3.14-3.12-3.44-5.83c-.11-1.11-.17-3.8,1.71-4.86,1.48-.82,3.09-.06,4.27.5a6.67,6.67,0,0,0,1.28.5c.69-1.18-1.26-7.4-2.21-10.42-1.63-5.23-2.18-7-.78-7.59,1.18-.52,2,.54,3.65,2.65s4.44,5.65,6.32,5.3c.45-.09.71-.39,1.13-.9A3.5,3.5,0,0,1,2394,128c2.73-.32,4.72,2.7,6.65,5.62.81,1.23,2.5,3.79,3.11,3.7s1.07-2.66,1.25-3.51c.48-2.18.89-4.06,2.46-4.32,2.41-.38,4.15,3.44,7.87,12.9,1.56,3.95,3.86,9.79,5.11,10.94.74-1.3,1.09-6.44,1.35-10.26.66-9.71,1.29-15.65,4.49-16.16,1.47-.24,2.44.84,3.3,1.8s1.54,1.73,2.61,1.79c3.36.17,7.22-7.1,9.55-11.44s3.34-6.22,5-5.73c1.22.36,1.17,1.7,1.12,3.12a5.72,5.72,0,0,0,.19,2.3h0c1,0,4.5-3.68,6.6-5.88,4.53-4.75,7.42-7.62,9.7-6.63s1.79,4.94.81,11.31c-.44,2.86-1.35,8.82-.38,9.36.29.06,1.27-.63,1.73-1,1.08-.76,2.3-1.63,3.5-1,1.79.94.9,3.68-.45,7.83s-3.18,9.74-1.13,11.57c1.25,1.12,3.9.55,6,.09s4-.87,4.86.41c1.47,2.18-2.89,6.62-13.32,15.28,6.67-4,10.6-5.5,12.33-3.95,1.58,1.41.29,4.36-1.08,7.49a28.79,28.79,0,0,0-1.23,3.14,32,32,0,0,0,2.65-2c2.89-2.3,5.88-4.67,8.18-3.58,1.67.8,1.6,2.67,1.52,4.65s-.17,4.05,1.19,5.43c2,2,6,1.55,9.32,1.19,2.94-.33,5.27-.59,6.05,1,1,1.92-1.71,4.12-5.76,7.45-3.7,3-8.76,7.2-7.91,9.61a4.38,4.38,0,0,0,1.92,1.8c1,.61,2.15,1.36,1.87,2.64-.34,1.58-2.39,1.87-4.77,2.21-2.16.3-4.84.68-5.55,2-.35.69-.07,1.36.42,2.38s1.11,2.31.45,3.69c-1.2,2.51-5.11,2.52-9.24,2.53-3.91,0-8.33,0-9.83,2.24-1.17,1.74-.77,4.66.4,5.57a3.39,3.39,0,0,0,1.6.5,2.67,2.67,0,0,1,2.32,1.24c.52,1.07-.2,1.93-.84,2.7a5.52,5.52,0,0,0-1.35,2.35c-.57,2.61,1.88,5.09,1.91,5.11a8.79,8.79,0,0,0,3.43,2c.35.12,1.41.49,1.08,1.44l-.13.4-.42.2c-.49.23-.76.14-2.51-.43-3.76-1.23-15.2-5-19.81-1.08a4.14,4.14,0,0,0-1.17,1.57,3.74,3.74,0,0,1-1.91,2A5.24,5.24,0,0,1,2446.8,234.16Z" transform="translate(0 248.48)"/>
  </g>
  <path class="tree-cls-1" d="M2366,280.26c10.71-12.26,22.86-26.17,37.79-43.28L2418,193.7c7.5,16.39,12.42,31.61,9.44,43.28-13.4,19.2-25.8,36.94-37.79,54.1Z" transform="translate(0 248.48)"/>
  <g id="leaf9" data-name="9.leaf">
    <path class="tree-cls-2" d="M2886.33,406.94c-9.63-1.71-34.22-1.74-33.75,5.59.06,1,2.86,2.41,2.47,4.87a5.34,5.34,0,0,1-2,2.9c-1.3,1-2.07.77-3.2,1.48-1.71,1.11-1.49,2.71-2.47,4.63-2.1,4.14-7.37,5.2-7,6s4.17-1.09,6.82.69c1.42,1,1.2,2.09,2.44,2.81,2.32,1.37,5.29-2.51,7.62-1.54,1.49.62,2.21,2.84,2,4.55-.43,2.91-3.51,3.66-8,7.42-4.83,4-7.84,8.57-7.15,9.3s4.76-2.67,6.78-1.37c1.41.9,1,3.58.92,3.94-.8,4.68-6.13,5.38-7,10.09-.05.33-.49,3,.94,4,1.7,1.07,4.39-1.47,5.6-.73,2.66,1.65-5.61,17.12-4.28,17.79,1,.53,6.3-8.42,10.25-7.45,1.71.44,1.68,2.35,3.27,2.64,3.77.67,7.58-9.3,10.38-8.73,2.3.49,1.42,7.63,3.21,8,3.39.75,11.33-23.83,14.54-23.19s-.62,25.82,4.07,26.86c1.82.4,3-3.29,5.89-3.28,6.45,0,11,18.5,13.08,18,1-.24-.08-4.6,1.44-5.24,3.07-1.32,12.18,14.6,15.55,13.37s-1.74-19.47,1.83-20.62c1.62-.52,3.72,2.86,5,2.3,2.56-1.16-5.11-15.69-.52-19.32,3.09-2.44,9.58,1.82,10.72.32,2.32-3-22.07-23.16-21.53-23.73s18.39,14.61,21.48,12.17c2.06-1.62-3.35-10.3-1.74-11.22s7.81,7.7,10.84,6.48c2.37-1-.22-6.76,3.05-9.71,4.25-3.85,14.06,1.07,15.29-1,1.63-2.76-14.81-12.47-12.57-17.7.88-2.05,4.21-2.41,4-3.7-.3-2-8.44-1.2-10-4.6-1-2.28,2.08-4,1.26-6-1.68-4.18-15.56-.46-18.65-5.72-1.24-2.12-.68-5.63,1.06-6.83,1.4-1,3.21-.25,3.72-1.17s-1.58-2.11-2-4.56c-.47-3.14,2.42-5.76,2.61-5.9a12.74,12.74,0,0,1,4.38-2.13c-.1-.39-16.67,5.69-22.62,0-1.67-1.59-1-2.7-2.61-3.6-4.34-2.41-12.1,4-22.73,12.87-1.2,1-3.62,3.07-4.31,6.25a9.56,9.56,0,0,0-.11,3.33" transform="translate(0 248.48)"/>
    <path d="M2928.29,511.37c-2.15,0-4.7-2.88-8.44-7.32-2-2.32-5.23-6.19-6.3-6.2a8.14,8.14,0,0,0-.24,2.24c0,1.42-.09,2.76-1.32,3.05-1.66.4-2.58-1.6-4.58-6s-5.44-12-8.78-12h0c-1.06,0-1.87.8-2.72,1.64s-1.95,1.93-3.41,1.61c-3.16-.7-3.4-6.66-3.42-16.39,0-3.83,0-9-.66-10.32-1.33,1.08-4,6.78-5.82,10.63-4.34,9.23-6.36,12.93-8.71,12.42-1.55-.35-1.84-2.25-2.17-4.45-.13-.86-.53-3.47-1-3.57s-2.45,2.33-3.34,3.51c-2.11,2.8-4.29,5.7-7,5.23a3.54,3.54,0,0,1-2.28-1.69c-.39-.55-.63-.86-1.08-1-1.85-.45-4.86,2.91-6.65,4.93s-2.68,3-3.82,2.43c-1.36-.68-.69-2.41,1.29-7.53,1.14-3,3.5-9.06,2.9-10.28a7.26,7.26,0,0,0-1.32.44c-1.21.48-2.87,1.15-4.29.25-1.81-1.17-1.57-3.85-1.39-4.95.47-2.69,2.25-4.25,3.82-5.63s2.8-2.46,3.14-4.46c.25-1.81-.08-2.71-.47-3-.68-.44-2.47.39-3.54.88-1.4.64-2.6,1.2-3.43.33-1.77-1.85,3.84-7.89,7.23-10.71a50.54,50.54,0,0,1,4.13-3c2.31-1.57,3.34-2.32,3.55-3.76s-.44-3.14-1.33-3.51c-.63-.26-1.68.28-2.7.8-1.48.76-3.32,1.71-5.07.68a4,4,0,0,1-1.51-1.68,2.92,2.92,0,0,0-1-1.17c-1.31-.88-3.14-.63-4.47-.45-1.12.16-2.29.32-2.71-.68s.66-1.68,1.87-2.31c1.59-.83,4-2.09,5.19-4.46a11.18,11.18,0,0,0,.66-1.72,5.19,5.19,0,0,1,2.16-3.3,6.43,6.43,0,0,1,1.62-.69,3.77,3.77,0,0,0,1.5-.73,4,4,0,0,0,1.62-2.28c.18-1.12-.64-2-1.37-2.8a3.28,3.28,0,0,1-1.11-1.87,4.31,4.31,0,0,1,1.8-3.71c5.72-4.68,25-4.39,33.22-2.92l-.4,2c-8-1.42-26.48-1.56-31.4,2.46a2.45,2.45,0,0,0-1.08,2.09c0,.07.37.43.61.69.86.94,2.17,2.37,1.86,4.39a5.88,5.88,0,0,1-2.28,3.45l-.08.07a5.86,5.86,0,0,1-2.23,1.1,4.1,4.1,0,0,0-1.07.44,3.36,3.36,0,0,0-1.31,2.2,12,12,0,0,1-.78,2,11.26,11.26,0,0,1-4.41,4.42,6.65,6.65,0,0,1,3.85,1,4.87,4.87,0,0,1,1.62,1.86,2,2,0,0,0,.76.91c.63.38,1.51,0,2.88-.73s3-1.54,4.61-.87c2,.83,2.89,3.5,2.59,5.6-.35,2.34-2.05,3.5-4.41,5.1-1.16.79-2.48,1.69-4,2.92a29.21,29.21,0,0,0-6.47,7.23l.29-.13c1.69-.78,4-1.84,5.71-.74.86.55,1.79,1.84,1.39,4.82l0,.11c-.46,2.67-2.23,4.23-3.79,5.6s-2.81,2.47-3.17,4.49c-.2,1.19-.1,2.6.49,3,.43.28,1.38-.1,2.22-.44,1.1-.44,2.33-.93,3.37-.29,2.11,1.31.62,5.65-2.08,12.65-.41,1.05-.86,2.22-1.22,3.23l.08-.09c2.39-2.69,5.66-6.37,8.86-5.58a3.94,3.94,0,0,1,2.31,1.79c.39.56.57.77.9.83,1.33.23,3.35-2.45,4.84-4.41,1.91-2.54,3.56-4.73,5.56-4.32s2.33,2.87,2.69,5.25a13.06,13.06,0,0,0,.57,2.67c1.41-1,4.28-7.06,6.21-11.16,4.24-9,6.06-12.37,8.28-11.93s2.31,4.34,2.32,12.42c0,4.56,0,14.06,1.77,14.44.24.06.91-.6,1.34-1a6.15,6.15,0,0,1,4.29-2.27h0c4.75,0,8.08,7.32,10.75,13.19.57,1.26,1.23,2.7,1.77,3.7v0c.05-1.6.11-3.41,1.55-4,2.18-.93,4.65,1.83,8.83,6.8,2,2.36,5.67,6.72,6.78,6.55.95-.55.46-6.19.2-9.22-.57-6.56-.79-10.62,1.68-11.42,1.42-.45,2.72.6,3.76,1.44a11.57,11.57,0,0,0,1,.75c.12-.95-.53-3.5-1-5.42-1.32-5.2-2.82-11.1.34-13.6,2.22-1.75,5.44-.85,8-.13a12.37,12.37,0,0,0,2.52.54c0-2.28-11.71-13.07-16.16-17.17-6-5.56-6.14-5.67-5.3-6.55s1.18-.59,5.69,2.71c9.38,6.87,14.73,10,15.9,9.35.51-.54-.71-3.92-1.24-5.37-1.07-3-1.84-5.1-.37-5.94s3,.62,5.39,2.77c1.58,1.43,4.53,4.08,5.58,3.65.46-.19.5-1.62.53-2.77.06-2.17.13-4.86,2.2-6.74,2.88-2.61,7.73-1.78,11.27-1.18a14.21,14.21,0,0,0,3.81.36c-.08-.9-3-3.58-4.88-5.37-4.34-4-9.26-8.62-7.73-12.2a6.15,6.15,0,0,1,2.93-2.66,8.44,8.44,0,0,0,1-.58,14,14,0,0,0-2.87-.75c-2.63-.53-5.89-1.18-6.94-3.55-.7-1.62.06-3,.66-4.05.5-.89.8-1.47.58-2-.55-1.37-3.92-1.57-7.18-1.77-4.45-.26-9.49-.56-11.4-3.83-1.52-2.57-.84-6.59,1.36-8.1a5.38,5.38,0,0,1,2.72-.8,5.73,5.73,0,0,0,.61-.06c-.1-.18-.3-.45-.45-.66a7.24,7.24,0,0,1-1.54-3.26,7.46,7.46,0,0,1,1.92-5.72c-5.59,1.16-13.34,2-17.25-1.72a6,6,0,0,1-1.53-2.31,1.8,1.8,0,0,0-.87-1.13c-3.66-2-11.51,4.49-21.45,12.75a10.68,10.68,0,0,0-4,5.71,8.58,8.58,0,0,0-.09,3l-2.13.27a10.18,10.18,0,0,1,.12-3.65,12.54,12.54,0,0,1,4.65-6.8c11.44-9.51,19-15.78,24-13a3.7,3.7,0,0,1,1.77,2.12,4,4,0,0,0,1.06,1.63c4.35,4.13,16,1.07,19.85.07,1.78-.47,2.06-.54,2.54-.28l.39.21.12.42c.26,1-.83,1.27-1.18,1.37a8.7,8.7,0,0,0-3.51,1.73c-.07.06-2.68,2.39-2.29,5a5.56,5.56,0,0,0,1.19,2.42c.59.8,1.25,1.71.67,2.74a2.73,2.73,0,0,1-2.4,1.11,3.32,3.32,0,0,0-1.64.41c-1.22.84-1.82,3.73-.76,5.54,1.35,2.29,5.76,2.56,9.66,2.79,4.12.25,8,.48,9.05,3.06.57,1.41-.13,2.65-.68,3.65s-.89,1.64-.58,2.36c.62,1.39,3.27,1.93,5.4,2.35,2.35.47,4.38.88,4.62,2.48.19,1.29-1,2-2,2.53a4.36,4.36,0,0,0-2,1.69c-1,2.34,3.78,6.79,7.26,10,3.83,3.56,6.35,5.91,5.26,7.77-.88,1.5-3.18,1.11-6.1.62-3.25-.56-7.3-1.24-9.38.65-1.45,1.3-1.5,3.45-1.55,5.35s-.1,3.86-1.82,4.55c-2.37,1-5.2-1.58-7.93-4a29.68,29.68,0,0,0-2.52-2.11,28.65,28.65,0,0,0,1,3.21c1.16,3.2,2.25,6.22.58,7.53-1.84,1.45-5.65-.29-12.05-4.65,9.84,9.25,13.89,13.93,12.28,16-.93,1.22-2.76.71-4.88.12s-4.69-1.3-6-.25c-2.16,1.71-.7,7.43.36,11.61s1.78,7-.06,7.84c-1.24.56-2.4-.38-3.43-1.2-.44-.36-1.38-1.11-1.67-1.05-1,.48-.48,6.47-.23,9.36.55,6.41.78,10.39-1.56,11.24A2.23,2.23,0,0,1,2928.29,511.37Z" transform="translate(0 248.48)"/>
  </g>
  <path class="tree-cls-1" d="M2878.58,319.39c.59,15.79,1.26,33.71,2.08,55.74,8.33,17.29,15.69,32.59,19.88,41.29-17.23-7.75-31.68-16.21-37.68-26.83-3.45-22.67-6.64-43.63-9.72-63.9Z" transform="translate(0 248.48)"/>
  <g id="leaf10" data-name="10.leaf">
    <path class="tree-cls-2" d="M3291.56,310c-9.74,1.15-34.27-.23-33.33-7.52.13-1,3-2.25,2.8-4.72a5.26,5.26,0,0,0-1.79-3c-1.23-1.1-2-.89-3.1-1.66-1.63-1.2-1.3-2.79-2.15-4.76-1.83-4.25-7-5.61-6.63-6.36s4.08,1.32,6.85-.3c1.48-.88,1.33-2,2.61-2.67,2.42-1.23,5.12,2.82,7.51,2,1.53-.53,2.4-2.71,2.27-4.43-.24-2.93-3.27-3.86-7.53-7.86-4.55-4.28-7.26-9-6.52-9.7s4.58,2.94,6.68,1.76c1.47-.82,1.2-3.52,1.18-3.88-.49-4.72-5.77-5.73-6.28-10.47,0-.33-.29-3.06,1.2-3.91,1.76-1,4.29,1.72,5.54,1,2.76-1.49-4.46-17.4-3.09-18,1.06-.47,5.72,8.76,9.73,8,1.74-.34,1.83-2.25,3.44-2.45,3.81-.45,7,9.73,9.79,9.31,2.33-.35,1.92-7.53,3.73-7.82,3.43-.55,9.73,24.44,13,24s1.09-25.81,5.84-26.58c1.84-.3,2.78,3.45,5.65,3.61,6.45.35,12.24-17.83,14.25-17.22,1,.3-.38,4.59,1.09,5.32,3,1.48,13.12-13.88,16.41-12.46s-3,19.34.47,20.69c1.57.61,3.9-2.65,5.11-2,2.48,1.3-6.13,15.37-1.8,19.25,2.93,2.61,9.69-1.27,10.73.3,2.11,3.15-23.56,21.84-23.06,22.45s19.32-13.53,22.24-10.92c1.95,1.74-4,10.1-2.47,11.11s8.3-7.25,11.24-5.85c2.3,1.09-.66,6.73,2.4,9.86,4,4.09,14.11-.26,15.2,1.91,1.44,2.86-15.61,11.6-13.72,17,.74,2.1,4,2.64,3.76,3.93-.44,2-8.51.71-10.23,4-1.14,2.23,1.81,4.08.85,6.1-1.95,4.07-15.56-.44-19,4.64-1.38,2-1.06,5.57.61,6.87,1.33,1,3.18.44,3.63,1.38s-1.71,2-2.26,4.44c-.68,3.11,2,5.89,2.22,6,1.87,1.84,4.28,2.23,4.23,2.38-.13.38-16.26-6.64-22.57-1.34-1.77,1.49-1.19,2.64-2.85,3.44-4.49,2.17-11.81-4.72-21.83-14.15a11.39,11.39,0,0,1-3.89-6.48,9.56,9.56,0,0,1,.11-3.33" transform="translate(0 248.48)"/>
    <path d="M3323.58,336.28c-4.95,0-11.5-6.16-20.74-14.85-1-.94-3.65-3.4-4.2-7.06a10.47,10.47,0,0,1,.13-3.66l2.1.39a8.64,8.64,0,0,0-.1,3,10.51,10.51,0,0,0,3.58,5.9c9.4,8.83,16.8,15.8,20.58,14,.55-.26.67-.51,1-1.07a6,6,0,0,1,1.68-2.22c4.14-3.48,11.82-2.21,17.32-.73a6.51,6.51,0,0,1,.22-9c.17-.2.38-.46.5-.63a5.77,5.77,0,0,0-.6-.1,5.29,5.29,0,0,1-2.66-.95c-2.1-1.64-2.51-5.69-.83-8.17,2.12-3.15,7.18-3.16,11.63-3.17,3.27,0,6.65,0,7.28-1.35.26-.54,0-1.13-.44-2.05-.53-1.12-1.19-2.5-.4-4.07,1.22-2.31,4.52-2.78,7.17-3.15a12.59,12.59,0,0,0,2.9-.61,7.62,7.62,0,0,0-.89-.61,6,6,0,0,1-2.75-2.83c-1.29-3.65,3.92-7.94,8.52-11.73,2-1.67,5.09-4.18,5.22-5.08a14,14,0,0,0-3.82.14c-3.58.4-8.47.94-11.17-1.82-2-2-1.84-4.69-1.75-6.85,0-1.15.1-2.59-.35-2.8-1-.49-4.13,2-5.81,3.32-2.53,2-4.2,3.34-5.56,2.45s-.5-3,.77-5.9c.61-1.42,2.06-4.72,1.58-5.3-1.12-.72-6.67,2.11-16.49,8.43-4.71,3-5.1,3.29-5.85,2.38s-.66-1,5.72-6.24c4.66-3.79,16.83-13.71,17.22-16.21a15.22,15.22,0,0,0-2.51.4c-2.63.58-5.9,1.29-8-.59-3-2.68-1.11-8.48.56-13.6a24.43,24.43,0,0,0,1.38-5.35,12.28,12.28,0,0,0-1.07.7c-1.1.78-2.47,1.75-3.85,1.21-2.41-.93-1.92-5-.92-11.49.46-3,1.32-8.61.4-9.21-1.09-.26-5.05,3.91-7.19,6.15-4.5,4.72-7.15,7.33-9.27,6.28-1.4-.7-1.33-2.5-1.28-4.1v0c-.6,1-1.35,2.38-2,3.6-3.06,5.7-6.85,12.84-11.61,12.55-2-.11-3.23-1.5-4.14-2.52-.4-.45-1-1.14-1.27-1.1-1.76.28-2.41,9.76-2.72,14.31-.55,8.07-.91,12-3.14,12.27s-3.84-3.15-7.47-12.39c-1.66-4.2-4.12-10.45-5.46-11.5a13.34,13.34,0,0,0-.75,2.64c-.52,2.35-1,4.78-3,5.08s-3.54-2-5.28-4.63c-1.35-2-3.18-4.84-4.54-4.68-.32,0-.52.25-1,.78a4,4,0,0,1-2.41,1.66c-3.25.61-6.28-3.26-8.49-6.09l-.06-.08c.29,1,.66,2.22,1,3.29,2.23,7.14,3.43,11.55,1.23,12.74-1.07.58-2.28,0-3.33-.48-.82-.38-1.75-.82-2.2-.57-.61.34-.8,1.75-.68,3,.22,2,1.45,3.24,2.86,4.65s3.14,3.12,3.42,5.81v.11c.2,3-.81,4.23-1.7,4.73-1.79,1-4-.19-5.66-1.06l-.28-.15a28.94,28.94,0,0,0,6,7.58,47.16,47.16,0,0,0,3.77,3.14c2.25,1.74,3.87,3,4.07,5.35.16,2.12-.9,4.73-3,5.45-1.65.57-3.18-.34-4.54-1.14s-2.18-1.23-2.83-.9a2,2,0,0,0-.82.87,4.85,4.85,0,0,1-1.74,1.76,6.61,6.61,0,0,1-3.91.78,11.18,11.18,0,0,1,4.11,4.67,11.06,11.06,0,0,1,.64,2.06c.28,1.13.45,1.75,1.19,2.29a4,4,0,0,0,1,.48A5.94,5.94,0,0,1,3260,294l.08.07a5.82,5.82,0,0,1,2,3.57c.18,2-1.22,3.39-2.15,4.28a5.55,5.55,0,0,0-.67.72,2.47,2.47,0,0,0,1,2.08c4.64,4.3,23.08,5.21,31.18,4.26l.27,2c-8.35,1-27.56.18-33-4.83a4.28,4.28,0,0,1-1.55-3.8,3.3,3.3,0,0,1,1.24-1.8c.77-.75,1.65-1.59,1.55-2.72a4,4,0,0,0-1.43-2.33,3.81,3.81,0,0,0-1.48-.85,6,6,0,0,1-1.56-.77,5.2,5.2,0,0,1-2-3.43,11,11,0,0,0-.54-1.76c-1-2.43-3.36-3.82-4.89-4.74-1.16-.7-2.26-1.36-1.71-2.42s1.64-.74,2.75-.52c1.32.25,3.12.61,4.49-.2a2.84,2.84,0,0,0,1-1.11,4.14,4.14,0,0,1,1.63-1.59c1.81-.92,3.58.13,5,1,1,.58,2,1.18,2.64.95.91-.32,1.67-2,1.56-3.42s-1.09-2.26-3.29-4a47.79,47.79,0,0,1-3.92-3.27c-3.21-3-8.4-9.36-6.51-11.11.88-.81,2-.19,3.4.53,1,.56,2.77,1.48,3.48,1.09.4-.23.79-1.11.66-2.89-.21-2.06-1.43-3.28-2.84-4.68s-3.14-3.12-3.44-5.83c-.11-1.11-.17-3.8,1.71-4.86,1.48-.82,3.09-.06,4.27.49a6.78,6.78,0,0,0,1.28.51c.69-1.18-1.26-7.4-2.21-10.42-1.63-5.23-2.18-7-.78-7.59,1.18-.52,2,.54,3.65,2.65s4.44,5.65,6.32,5.3c.45-.09.71-.39,1.13-.91a3.52,3.52,0,0,1,2.39-1.55c2.7-.32,4.71,2.69,6.64,5.62.81,1.23,2.5,3.79,3.11,3.69s1.07-2.65,1.25-3.5c.48-2.18.9-4.06,2.46-4.32,2.41-.37,4.15,3.44,7.87,12.89,1.56,3.95,3.86,9.8,5.12,10.95.73-1.3,1.08-6.44,1.34-10.27.66-9.71,1.29-15.64,4.49-16.16,1.47-.23,2.44.85,3.3,1.81s1.54,1.73,2.61,1.79c3.34.17,7.23-7.1,9.55-11.45s3.34-6.22,5-5.72c1.22.36,1.17,1.7,1.12,3.11a5.7,5.7,0,0,0,.19,2.3c1,0,4.5-3.66,6.61-5.87,4.53-4.75,7.42-7.62,9.7-6.64s1.79,4.94.81,11.32c-.44,2.86-1.35,8.82-.38,9.36.3.06,1.27-.63,1.73-1,1.08-.77,2.3-1.63,3.5-1,1.79.94.9,3.68-.45,7.82s-3.18,9.75-1.13,11.58c1.26,1.12,3.9.55,6,.09s4-.87,4.86.41c1.47,2.18-2.89,6.62-13.32,15.28,6.67-4,10.59-5.5,12.33-4,1.58,1.41.29,4.36-1.08,7.49a28.79,28.79,0,0,0-1.23,3.14,32,32,0,0,0,2.65-2c2.89-2.3,5.88-4.68,8.18-3.58,1.67.79,1.6,2.67,1.52,4.65s-.17,4,1.19,5.43c2,2,6,1.55,9.32,1.19,2.95-.33,5.27-.59,6,1,1,1.91-1.71,4.12-5.76,7.45-3.7,3-8.76,7.2-7.91,9.6a4.34,4.34,0,0,0,1.92,1.81c1,.6,2.15,1.36,1.87,2.64-.34,1.58-2.39,1.87-4.77,2.2-2.16.31-4.84.69-5.55,2.05-.35.69-.07,1.35.42,2.38a4.07,4.07,0,0,1,.45,3.69c-1.2,2.51-5.11,2.52-9.24,2.53-3.91,0-8.33,0-9.82,2.23-1.18,1.75-.78,4.67.39,5.58a3.39,3.39,0,0,0,1.6.5,2.7,2.7,0,0,1,2.33,1.24c.51,1.07-.21,1.93-.85,2.69a5.62,5.62,0,0,0-1.35,2.36c-.57,2.61,1.88,5.09,1.91,5.11a8.93,8.93,0,0,0,3.43,2c.35.12,1.41.48,1.09,1.43l-.14.4-.42.2c-.49.23-.76.15-2.51-.42-3.76-1.23-15.2-4.95-19.81-1.08a4.14,4.14,0,0,0-1.17,1.57,3.77,3.77,0,0,1-1.91,2A5.24,5.24,0,0,1,3323.58,336.28Z" transform="translate(0 248.48)"/>
  </g>
  <path class="tree-cls-1" d="M3242.8,382.38c10.71-12.26,22.86-26.17,37.79-43.28l14.18-43.28c7.5,16.38,12.42,31.6,9.44,43.28l-37.79,54.1Z" transform="translate(0 248.48)"/>
  <g id="leaf11" data-name="11.leaf">
    <path class="tree-cls-2" d="M3590,470.74c-12.3-2.18-43.69-2.22-43.09,7.14.08,1.27,3.65,3.08,3.16,6.22-.31,2-2.22,3.43-2.54,3.7-1.65,1.31-2.64,1-4.08,1.89-2.19,1.41-1.9,3.46-3.15,5.91-2.69,5.28-9.41,6.63-9,7.63s5.32-1.4,8.71.88c1.81,1.22,1.52,2.66,3.1,3.58,3,1.75,6.76-3.21,9.74-2,1.9.79,2.82,3.63,2.51,5.82-.55,3.7-4.48,4.67-10.25,9.47-6.16,5.11-10,10.94-9.13,11.87s6.08-3.41,8.66-1.75c1.8,1.16,1.23,4.58,1.18,5-1,6-7.84,6.88-8.89,12.88-.07.42-.63,3.89,1.19,5.07,2.17,1.37,5.62-1.88,7.15-.92,3.4,2.1-7.15,21.86-5.45,22.71,1.31.67,8-10.75,13.07-9.51,2.2.56,2.15,3,4.19,3.37,4.81.86,9.68-11.88,13.25-11.15,2.94.62,1.81,9.74,4.09,10.25,4.34.95,14.47-30.43,18.57-29.62s-.79,33,5.2,34.29c2.32.51,3.84-4.19,7.51-4.18,8.24,0,14.08,23.61,16.71,23,1.28-.3-.11-5.87,1.83-6.7,3.93-1.67,15.55,18.65,19.86,17.08s-2.23-24.86,2.34-26.33c2.07-.66,4.75,3.66,6.35,2.94,3.27-1.48-6.51-20-.66-24.66,3.94-3.12,12.23,2.32,13.69.4,3-3.87-28.18-29.57-27.48-30.3s23.47,18.65,27.41,15.54c2.64-2.07-4.27-13.16-2.21-14.33s10,9.84,13.83,8.27c3-1.22-.27-8.62,3.9-12.39,5.43-4.91,17.95,1.37,19.52-1.32,2.08-3.53-18.91-15.92-16.05-22.6,1.13-2.62,5.38-3.08,5.12-4.73-.38-2.61-10.78-1.53-12.7-5.87-1.26-2.92,2.66-5.07,1.6-7.71-2.13-5.33-19.86-.58-23.81-7.3-1.58-2.7-.87-7.18,1.36-8.72,1.79-1.22,4.1-.32,4.75-1.49s-2-2.69-2.51-5.82c-.6-4,3.1-7.36,3.34-7.54,2.54-2.21,5.65-2.53,5.6-2.71-.14-.5-21.29,7.26-28.89,0-2.13-2-1.29-3.45-3.34-4.6-5.53-3.08-15.45,5.16-29,16.44-1.54,1.26-4.62,3.91-5.51,8a12.14,12.14,0,0,0-.13,4.25" transform="translate(0 248.48)"/>
    <path d="M3643.52,603.81c-2.61,0-5.81-3.64-10.53-9.24-2.33-2.77-7.16-8.53-8.34-8-.46.2-.53,2.33-.55,3.13-.06,1.78-.11,3.31-1.47,3.63-1.87.46-3-2-5.49-7.5-2.79-6.15-7-15.44-11.48-15.45h0c-1.48,0-2.6,1.11-3.69,2.18s-2.38,2.34-4.06,2c-3.82-.85-4.11-8.37-4.14-20.66,0-5.27,0-12.43-1-13.59-1.63.74-5.33,8.62-7.81,13.87-5.35,11.39-8,16.31-10.77,15.7-1.79-.4-2.14-2.74-2.55-5.45-.24-1.61-.7-4.62-1.54-4.79s-3.13,2.68-4.57,4.59c-2.65,3.51-5.39,7.14-8.64,6.56a4.14,4.14,0,0,1-2.73-2c-.51-.73-.86-1.18-1.54-1.36-2.56-.63-6.46,3.76-8.8,6.39-2.17,2.45-3.26,3.67-4.51,3-1.44-.73-.77-2.67,1.79-9.28,1.32-3.43,4.84-12.55,3.59-13.48a5.71,5.71,0,0,0-2,.57c-1.57.62-3.52,1.4-5.19.35-2.24-1.45-1.83-5-1.65-6.05.59-3.35,2.72-5.22,4.78-7,1.88-1.65,3.65-3.21,4.11-5.86.28-2.09,0-3.58-.73-4-1-.65-3.21.36-4.82,1.1s-3.12,1.44-4,.5c-1.93-2,4.22-9.14,9.21-13.29a64.23,64.23,0,0,1,5.25-3.87c2.81-1.91,4.36-3,4.66-5s-.62-4.24-1.88-4.76c-1-.39-2.29.3-3.71,1-1.91,1-4.08,2.1-6.17.87a4.78,4.78,0,0,1-1.83-2,4,4,0,0,0-1.33-1.58c-1.78-1.2-4.18-.87-5.93-.63-1.38.19-2.69.37-3.14-.69s.77-1.84,2.25-2.62c2.07-1.08,5.18-2.71,6.76-5.8a14,14,0,0,0,.85-2.25,6.45,6.45,0,0,1,2.65-4.06,7.86,7.86,0,0,1,2-.85,5.11,5.11,0,0,0,2-1A5.41,5.41,0,0,0,3549,484c.25-1.55-.85-2.74-1.81-3.79a4.13,4.13,0,0,1-1.36-2.22,5.28,5.28,0,0,1,2.21-4.51c7.23-5.92,31.65-5.54,42.17-3.67l-.41,2c-10.56-1.87-33.9-2.07-40.35,3.21a3.37,3.37,0,0,0-1.47,2.89,6.26,6.26,0,0,0,.84,1c1.07,1.17,2.69,2.93,2.31,5.38a7.17,7.17,0,0,1-2.8,4.24l-.1.08a7.24,7.24,0,0,1-2.75,1.37,5.48,5.48,0,0,0-1.44.59c-1.1.71-1.39,1.66-1.8,3a14.71,14.71,0,0,1-1,2.54,15.1,15.1,0,0,1-6.51,6.09,9,9,0,0,1,5.89,1.18,6,6,0,0,1,2,2.28,2.84,2.84,0,0,0,1.07,1.27c.94.55,2.13,0,4-.93s3.7-1.91,5.62-1.11c2.43,1,3.5,4.28,3.14,6.86-.43,2.88-2.57,4.33-5.52,6.33-1.49,1-3.17,2.16-5.09,3.75-5,4.13-7.9,8.25-8.68,10,.36-.15.77-.34,1.12-.5,2.09-1,4.94-2.28,7-1,1,.66,2.14,2.21,1.65,5.88l0,.13c-.57,3.32-2.7,5.19-4.76,7-1.88,1.65-3.66,3.21-4.13,5.88-.26,1.56-.14,3.51.75,4.09.68.43,1.92-.06,3.12-.54,1.39-.56,2.83-1.13,4-.39,2.52,1.56.64,7-2.76,15.82-.71,1.84-1.53,4-2,5.46l1.06-1.17c3-3.38,7.1-8,11-7.05a4.67,4.67,0,0,1,2.77,2.18c.51.71.79,1.08,1.34,1.18,1.88.34,4.43-3,6.48-5.75,2.38-3.15,4.44-5.88,6.8-5.4s2.75,3.53,3.2,6.47c.19,1.25.5,3.3.92,3.76,1.72-.54,5.83-9.28,8.31-14.53,5.22-11.11,7.61-15.59,10.23-15.07s2.71,5.42,2.73,15.59c0,6.79,0,18.17,2.49,18.71.48.1,1.25-.66,2-1.4,1.26-1.25,2.84-2.81,5.25-2.81h0c5.88,0,10.08,9.25,13.46,16.67a59.66,59.66,0,0,0,2.78,5.64c0-.35,0-.73,0-1,.06-2,.13-4.17,1.8-4.88,2.58-1.1,5.83,2.55,10.93,8.6,2.64,3.14,7.56,9,9,8.45s.79-8,.44-12c-.71-8.25-1-13.35,1.94-14.29,1.66-.53,3.18.69,4.52,1.77a8.14,8.14,0,0,0,1.7,1.17c.45-.86-.55-4.78-1.22-7.4-1.67-6.56-3.56-14,.34-17.08,2.71-2.15,6.74-1,10-.12,1.26.34,3.15.87,3.59.66.91-2.43-14.79-16.9-20.7-22.35-7.51-6.92-7.65-7.05-6.76-8s1.19-.65,6.85,3.49c12.33,9,19.28,13,20.68,11.95.86-.68-.66-4.9-1.48-7.16-1.33-3.66-2.28-6.3-.61-7.26s3.56.84,6.52,3.5c2.37,2.12,5.93,5.33,7.45,4.71.77-.31.81-2,.86-3.79.07-2.71.16-6.09,2.72-8.41,3.57-3.23,9.42-2.23,14.12-1.43,1.6.27,4.93.83,5.21.35.51-.88-3.92-5-6.3-7.22-5.48-5.1-11.69-10.88-9.81-15.27.72-1.66,2.33-2.55,3.62-3.27a5.13,5.13,0,0,0,1.44-1c-.07-.45-2.72-1-4-1.24-3.28-.65-7.36-1.47-8.64-4.37-.84-1.94.09-3.6.83-4.92s1.08-2,.75-2.82c-.76-1.91-5.16-2.17-9.42-2.43-5.6-.33-11.95-.71-14.32-4.74-1.83-3.13-1-8.17,1.66-10a6.65,6.65,0,0,1,3.32-1,3.81,3.81,0,0,0,1.12-.18c0-.2-.42-.79-.7-1.18a9.11,9.11,0,0,1-1.92-4.05c-.5-3.33,1.62-6.3,2.92-7.69-7.11,1.55-17.49,2.88-22.57-1.95a7.34,7.34,0,0,1-1.89-2.86,2.57,2.57,0,0,0-1.24-1.58c-4.85-2.71-15,5.69-27.73,16.31-1.32,1.08-4.34,3.57-5.18,7.44a11,11,0,0,0-.13,3.92l-2.13.26a13,13,0,0,1,.15-4.57c1-4.54,4.52-7.44,5.85-8.53,14-11.62,24.07-20,30.28-16.54a4.47,4.47,0,0,1,2.13,2.57,5.48,5.48,0,0,0,1.42,2.18c5.68,5.39,20.18,1.59,25.64.15,2.22-.58,2.5-.65,3-.38l.4.21.12.42c.26,1-.8,1.27-1.31,1.42a11.5,11.5,0,0,0-4.59,2.27c-.09.07-3.55,3.12-3,6.67a7.26,7.26,0,0,0,1.56,3.21c.74,1,1.49,2,.84,3.21s-1.84,1.18-2.83,1.26a4.58,4.58,0,0,0-2.24.58c-1.8,1.24-2.36,5.2-1,7.43,1.79,3.06,7.52,3.41,12.56,3.71s10.06.6,11.31,3.72c.67,1.7-.14,3.15-.86,4.44s-1.22,2.17-.75,3.25c.85,1.91,4.17,2.58,7.1,3.17s5.39,1.08,5.67,2.93c.22,1.46-1.21,2.25-2.47,2.95a5.81,5.81,0,0,0-2.72,2.29c-1.36,3.17,4.57,8.69,9.33,13.12s7.95,7.4,6.66,9.59c-1,1.75-3.87,1.27-7.47.65-4.22-.71-9.47-1.6-12.25.91-1.92,1.74-2,4.55-2.06,7s-.12,4.75-2.15,5.57c-2.84,1.15-6.38-2-9.8-5.1a25.75,25.75,0,0,0-3.79-3.06,24,24,0,0,0,1.4,4.74c1.45,4,2.81,7.77.83,9.33-2.49,2-8.43-1.26-18.29-8.23,14.25,13.22,20.61,20.1,18.54,22.8-1.06,1.4-3.3.77-5.9.05s-6.15-1.71-8-.27c-2.9,2.29-1,9.7.36,15.1s2.23,8.73.08,9.7c-1.41.63-2.75-.45-4-1.49-.72-.58-1.93-1.55-2.42-1.4-1.51.49-.85,8.13-.5,12.24.7,8.06,1,13.06-1.8,14.07A2.69,2.69,0,0,1,3643.52,603.81Z" transform="translate(0 248.48)"/>
  </g>
  <path class="tree-cls-1" d="M3593.58,388.17c.59,15.8,1.26,33.72,2.08,55.75,8.33,17.29,15.7,32.59,19.88,41.29-17.22-7.76-31.67-16.22-37.68-26.83-3.44-22.67-6.63-43.63-9.72-63.9Z" transform="translate(0 248.48)"/>
  <g id="leaf1" data-name="1.leaf">
    <path class="tree-cls-2" d="M557,165.26c-12.31,2.18-43.69,2.22-43.1-7.14.08-1.27,3.65-3.08,3.16-6.22a6.79,6.79,0,0,0-2.53-3.7c-1.66-1.31-2.64-1-4.09-1.89-2.19-1.42-1.9-3.46-3.15-5.92-2.68-5.28-9.41-6.63-9-7.62s5.31,1.4,8.7-.88c1.82-1.22,1.52-2.66,3.11-3.59,3-1.75,6.75,3.22,9.74,2,1.89-.78,2.82-3.62,2.5-5.81-.55-3.71-4.48-4.67-10.25-9.47-6.16-5.12-10-10.95-9.12-11.87s6.07,3.41,8.66,1.75c1.8-1.16,1.23-4.58,1.17-5-1-6-7.83-6.88-8.88-12.89-.08-.42-.64-3.88,1.19-5.06,2.16-1.38,5.61,1.87,7.15.92,3.39-2.1-7.16-21.86-5.46-22.71,1.32-.67,8,10.75,13.08,9.51,2.19-.56,2.14-3,4.18-3.37,4.81-.86,9.68,11.88,13.25,11.15,2.94-.63,1.82-9.74,4.1-10.25,4.33-1,14.47,30.43,18.57,29.62s-.8-33,5.19-34.29c2.32-.52,3.84,4.19,7.51,4.18,8.24,0,14.09-23.62,16.71-23,1.28.31-.1,5.88,1.83,6.7,3.93,1.68,15.56-18.64,19.86-17.07s-2.22,24.86,2.35,26.32c2.06.66,4.75-3.65,6.35-2.93,3.27,1.48-6.52,20-.67,24.66,4,3.12,12.23-2.32,13.69-.4,3,3.86-28.18,29.56-27.48,30.3s23.47-18.66,27.41-15.54c2.64,2.07-4.27,13.15-2.21,14.33s10-9.85,13.84-8.28c3,1.23-.28,8.62,3.89,12.4,5.43,4.91,18-1.37,19.52,1.32,2.08,3.53-18.91,15.92-16.05,22.6,1.13,2.62,5.38,3.07,5.13,4.73-.39,2.61-10.78,1.53-12.71,5.87-1.25,2.92,2.66,5.07,1.6,7.7-2.13,5.33-19.86.58-23.8,7.31-1.59,2.7-.88,7.18,1.35,8.71,1.79,1.23,4.1.33,4.76,1.5s-2,2.69-2.51,5.82c-.6,4,3.09,7.35,3.34,7.54,2.53,2.2,5.64,2.52,5.59,2.71-.13.5-21.29-7.26-28.88-.05-2.13,2-1.3,3.45-3.34,4.59-5.54,3.09-15.45-5.15-29-16.43-1.54-1.26-4.62-3.91-5.5-8a12.08,12.08,0,0,1-.14-4.24" transform="translate(0 248.48)"/>
    <path d="M599.69,196.15c-6.26,0-15.29-7.51-27.1-17.32-1.34-1.1-4.87-4-5.86-8.54a13.05,13.05,0,0,1-.15-4.58l2.13.27a11.22,11.22,0,0,0,.13,3.92c.84,3.87,3.87,6.36,5.16,7.42,12.81,10.64,22.9,19,27.75,16.33a2.57,2.57,0,0,0,1.24-1.58,7.34,7.34,0,0,1,1.89-2.86c5.09-4.83,15.47-3.5,22.59-2-1.22-1.29-3.46-4.2-2.94-7.69a9.21,9.21,0,0,1,1.92-4.06,4.1,4.1,0,0,0,.71-1.16,3.56,3.56,0,0,0-1.12-.19,6.63,6.63,0,0,1-3.32-1c-2.66-1.83-3.5-6.88-1.67-10,2.37-4,8.72-4.41,14.32-4.75,4.26-.25,8.66-.52,9.43-2.43.32-.81-.08-1.6-.76-2.81s-1.67-3-.83-4.92c1.28-2.9,5.37-3.72,8.64-4.37,1.28-.26,3.92-.79,4-1.26a5.08,5.08,0,0,0-1.43-.95c-1.3-.72-2.91-1.61-3.62-3.27-1.89-4.4,4.32-10.18,9.8-15.28,2.38-2.21,6.82-6.34,6.3-7.21-.28-.49-3.61.08-5.2.35-4.71.8-10.56,1.79-14.13-1.43-2.56-2.32-2.65-5.7-2.72-8.41,0-1.79-.09-3.48-.85-3.79-1.52-.62-5.09,2.59-7.45,4.71-3,2.66-4.92,4.42-6.52,3.5s-.72-3.6.6-7.26c.82-2.27,2.34-6.48,1.48-7.16-1.39-1.1-8.35,2.92-20.67,11.94-5.67,4.15-6,4.4-6.86,3.5s-.74-1.07,6.76-8C617.24,98.46,632.94,84,632,81.5a13.14,13.14,0,0,0-3.53.72c-3.24.9-7.27,2-10-.12-3.91-3.08-2-10.52-.34-17.09.66-2.62,1.66-6.53,1.22-7.4a8.4,8.4,0,0,0-1.7,1.17c-1.35,1.08-2.87,2.31-4.52,1.78-2.94-.94-2.66-6.05-1.94-14.29.34-4,1-11.53-.45-12.05s-6.35,5.31-9,8.45c-5.09,6-8.34,9.7-10.92,8.6-1.68-.71-1.75-2.93-1.81-4.89,0-.31,0-.69,0-1A59.43,59.43,0,0,0,586.2,51c-3.37,7.42-7.58,16.65-13.45,16.67h0c-2.42,0-4-1.56-5.26-2.81-.75-.74-1.52-1.51-2-1.4C563,64,563,75.36,563,82.15c0,10.17-.14,15.08-2.73,15.59s-5-4-10.23-15.07c-2.47-5.25-6.58-14-8.3-14.53-.43.45-.74,2.51-.93,3.76-.44,2.94-.9,6-3.19,6.46s-4.42-2.24-6.81-5.4c-2-2.71-4.59-6.09-6.48-5.74-.54.1-.83.47-1.33,1.18a4.72,4.72,0,0,1-2.77,2.17c-3.91,1-8-3.66-11-7l-1.06-1.18c.48,1.51,1.3,3.63,2,5.47,3.4,8.8,5.28,14.26,2.76,15.82-1.18.73-2.62.16-4-.39-1.2-.48-2.45-1-3.14-.54-.88.57-1,2.52-.73,4.09.46,2.66,2.24,4.23,4.13,5.88,2.05,1.81,4.18,3.67,4.75,7l0,.13c.5,3.67-.62,5.22-1.64,5.88-2,1.32-4.91,0-7-1-.34-.16-.76-.36-1.12-.5.78,1.75,3.72,5.88,8.68,10A61.86,61.86,0,0,0,518,118c3,2,5.09,3.46,5.52,6.33.37,2.58-.7,5.86-3.13,6.87-1.92.79-3.89-.22-5.63-1.11s-3-1.48-4-.93a2.85,2.85,0,0,0-1.07,1.27,5.9,5.9,0,0,1-2,2.28,9,9,0,0,1-5.89,1.17,15.13,15.13,0,0,1,6.51,6.1,15.7,15.7,0,0,1,1,2.54,4.61,4.61,0,0,0,1.81,3,5.38,5.38,0,0,0,1.42.58,7.28,7.28,0,0,1,2.75,1.36l.1.09a7.18,7.18,0,0,1,2.8,4.23c.39,2.46-1.23,4.22-2.3,5.39a5,5,0,0,0-.85,1.06,3.38,3.38,0,0,0,1.48,2.87c2.82,2.31,9.44,3.82,18.64,4.26a109.27,109.27,0,0,0,21.71-1.05l.4,2c-10.52,1.86-34.93,2.25-42.17-3.67a5.25,5.25,0,0,1-2.2-4.51,4,4,0,0,1,1.35-2.22c1-1.05,2.06-2.24,1.82-3.8a5.37,5.37,0,0,0-2.11-3l-.09-.08a5.17,5.17,0,0,0-2-1,7.34,7.34,0,0,1-2-.83,6.47,6.47,0,0,1-2.67-4.07,12.81,12.81,0,0,0-.85-2.25c-1.57-3.1-4.69-4.73-6.75-5.81-1.55-.8-2.77-1.44-2.26-2.61s1.76-.88,3.14-.7c1.76.25,4.15.58,5.93-.62a3.87,3.87,0,0,0,1.33-1.59,4.78,4.78,0,0,1,1.84-2c2.08-1.23,4.25-.11,6.16.87,1.42.73,2.77,1.42,3.71,1,1.26-.53,2.16-2.8,1.88-4.77s-1.85-3.08-4.65-5c-1.46-1-3.26-2.22-5.26-3.87-5-4.15-11.14-11.27-9.2-13.29.9-.94,2.28-.31,4,.49s3.81,1.76,4.81,1.11c.74-.48,1-2,.74-4l0-.11c-.44-2.61-2.22-4.17-4.1-5.81-2.06-1.81-4.19-3.69-4.77-7-.18-1-.6-4.6,1.63-6,1.68-1.07,3.63-.29,5.2.34a5.71,5.71,0,0,0,2,.57c1.26-.93-2.26-10-3.59-13.48-2.55-6.62-3.23-8.56-1.78-9.28,1.25-.64,2.33.59,4.51,3,2.33,2.62,6.23,7,8.8,6.38.67-.17,1-.62,1.54-1.35a4.18,4.18,0,0,1,2.72-2c3.25-.57,6,3,8.64,6.56,1.44,1.91,3.62,4.79,4.58,4.6s1.29-3.18,1.53-4.79c.41-2.71.77-5.06,2.55-5.45,2.78-.61,5.42,4.31,10.78,15.69,2.47,5.26,6.18,13.14,7.8,13.88,1-1.17,1-8.33,1.05-13.59,0-12.29.31-19.81,4.13-20.66,1.69-.37,2.9.82,4.07,2s2.2,2.18,3.69,2.18h0c4.46,0,8.69-9.31,11.49-15.45,2.48-5.46,3.61-8,5.49-7.51,1.36.33,1.4,1.86,1.46,3.63,0,.81.09,2.94.55,3.13,1.17.51,6-5.25,8.34-8,5.29-6.29,8.67-10.09,11.46-9.08s2.5,6,1.81,14.08c-.36,4.11-1,11.75.5,12.24.48.16,1.69-.82,2.42-1.4,1.29-1.05,2.64-2.12,4-1.49,2.15,1,1.26,4.44-.07,9.69-1.38,5.41-3.26,12.82-.36,15.11,1.82,1.44,5.22.49,8-.27s4.84-1.35,5.91.06c2.07,2.69-4.3,9.56-18.55,22.79,9.86-7,15.81-10.19,18.3-8.23,2,1.56.61,5.33-.83,9.33a24,24,0,0,0-1.41,4.74,25.75,25.75,0,0,0,3.79-3.06c3.43-3.07,7-6.25,9.8-5.1,2,.82,2.09,3.12,2.15,5.57s.14,5.27,2.07,7c2.77,2.51,8,1.62,12.24.9,3.61-.61,6.45-1.09,7.48.66,1.28,2.19-2,5.29-6.67,9.59s-10.69,10-9.33,13.12A5.86,5.86,0,0,0,655.5,140c1.27.69,2.7,1.48,2.47,2.95-.27,1.85-2.77,2.35-5.66,2.93s-6.26,1.25-7.11,3.18c-.47,1.07.1,2.07.75,3.24s1.54,2.74.86,4.43c-1.25,3.13-6.13,3.42-11.3,3.73s-10.77.64-12.57,3.71c-1.31,2.23-.75,6.19,1,7.43a4.52,4.52,0,0,0,2.24.57c1,.09,2.23.19,2.83,1.26s-.1,2.22-.83,3.22a7.17,7.17,0,0,0-1.57,3.21c-.53,3.55,2.92,6.6,3,6.63a11.75,11.75,0,0,0,4.65,2.31c.51.14,1.56.44,1.3,1.42l-.11.4-.4.23c-.5.27-.79.2-3-.39-5.46-1.43-20-5.23-25.64.16a5.52,5.52,0,0,0-1.42,2.18,4.5,4.5,0,0,1-2.13,2.57A6.35,6.35,0,0,1,599.69,196.15Z" transform="translate(0 248.48)"/>
  </g>
  <path class="tree-cls-1" d="M560.66,247.83c.59-15.8,1.26-33.72,2.09-55.75l19.88-41.29C565.4,158.54,551,167,545,177.62c-3.45,22.67-6.64,43.63-9.72,63.9Z" transform="translate(0 248.48)"/>
  <text class="tree-cls-3" transform="translate(522.64 370.33) scale(1.07 1)">The tr<tspan class="tree-cls-4" x="62.22" y="0">a</tspan><tspan x="74.16" y="0">sh</tspan><tspan x="0" y="36">is thrown </tspan></text>
  <text class="tree-cls-5" transform="translate(702.29 422.95) scale(1.07 1)">2-5 wee<tspan class="tree-cls-6" x="62.82" y="0">k</tspan><tspan x="73" y="0">s</tspan><tspan class="tree-cls-7" x="82.3" y="0"> </tspan></text>
  <text class="tree-cls-5" transform="translate(778.57 672.59) scale(1.07 1)">6 wee<tspan class="tree-cls-6" x="46.07" y="0">k</tspan><tspan x="56.25" y="0">s</tspan><tspan class="tree-cls-7" x="65.55" y="0"> </tspan></text>
  <text class="tree-cls-5" transform="translate(989.09 454.39) scale(1.07 1)">6 months<tspan class="tree-cls-7" x="77.02" y="0"> </tspan></text>
  <text class="tree-cls-5" transform="translate(1432.12 694.74) scale(1.07 1)">1-6 years</text>
  <text class="tree-cls-5" transform="translate(1769.17 463.04) scale(1.07 1)">5 years<tspan class="tree-cls-7" x="62.32" y="0"> </tspan></text>
  <text class="tree-cls-5" transform="translate(2070.78 661.86) scale(1.07 1)">13 years<tspan class="tree-cls-7" x="72.32" y="0"> </tspan></text>
  <text class="tree-cls-5" transform="translate(2394.27 439.22) scale(1.07 1)">20 years<tspan class="tree-cls-7" x="72.32" y="0"> </tspan></text>
  <text class="tree-cls-5" transform="translate(2859.85 690.96) scale(1.07 1)">100 years<tspan class="tree-cls-7" x="82.32" y="0"> </tspan></text>
  <text class="tree-cls-5" transform="translate(3269.63 541.87) scale(1.07 1)">200 years<tspan class="tree-cls-7" x="82.32" y="0"> </tspan></text>
  <text class="tree-cls-3" transform="translate(3558.3 754.26) scale(1.07 1)">4000-1mi<tspan class="tree-cls-8" x="90" y="0">l</tspan><tspan x="100.62" y="0">.</tspan><tspan x="0" y="36">years </tspan></text>
  <path class="tree-cls-9" d="M298.26,641.4a72.9,72.9,0,0,1,.17-24.17,81.4,81.4,0,0,1,8-22.91c3.74-7.33,7.82-14.46,10.71-22.19a132.56,132.56,0,0,0,6.15-23.52c1.59-9.08,2.55-18.26,3.5-27.43.2-1.92-2.81-1.9-3,0-1.69,16.33-3.42,32.88-8.93,48.45-2.76,7.83-6.81,15-10.6,22.36a86.69,86.69,0,0,0-8.44,22.89,77.41,77.41,0,0,0-.47,27.32c.31,1.9,3.2,1.09,2.9-.8Z" transform="translate(0 248.48)"/>
  <path class="tree-cls-9" d="M320.85,514.94l-2.72,59.48L316.78,604c-.2,4.47.12,9.49-1.61,13.71-1.59,3.9-5.21,6.7-8.36,9.3A119.27,119.27,0,0,1,281.51,643c-1.75.82-.23,3.4,1.51,2.59a122.21,122.21,0,0,0,23.14-14.18c3.4-2.65,7-5.4,9.64-8.85,2.79-3.64,3.47-7.94,3.7-12.41,1.05-20.28,1.86-40.56,2.78-60.84l1.57-34.35c.09-1.93-2.91-1.93-3,0Z" transform="translate(0 248.48)"/>
  <path class="tree-cls-1" d="M375.74-246.06,0-247.73V812l385.36,1.5c-16.24-119,11.29-250.38,7.52-377.3-2.35-79.11-16.9-155.48-13-234.1,2.08-41.52,9.24-80.42,10.22-122.25.45-19.23-.42-38.49-1.3-57.6" transform="translate(0 248.48)"/>
  <path class="tree-cls-10" d="M267.84,812.4c17-66.43,33.53-133.79,34.81-202.71.64-34.5-4-68.24-9-102.27a653.34,653.34,0,0,1-7.1-106.69c1.17-70.63,10.86-140.94,9.17-211.64C294,119.83,276.81,52.55,270.3-16.2c-3.31-35-2.37-69.88-.89-104.92,1.45-34.2,3.08-68.61-.64-102.73q-1.29-11.84-3.51-23.55c-.36-1.89-3.25-1.09-2.89.8,12.88,68.1-.3,137.59,3.16,206.23,3.48,69,21.57,136.16,26.06,205,4.57,69.94-4.32,139.75-7.29,209.56-1.46,34.53-1.48,69.2,2.35,103.58s11,68.64,12.62,103.41c3.26,69.62-11.24,138.41-28,205.57q-3.11,12.43-6.29,24.83c-.48,1.87,2.42,2.67,2.89.8Z" transform="translate(0 248.48)"/>
  <path class="tree-cls-10" d="M126,810.4c13.87-66.65.16-135-13-200.52-7.07-35.2-13.51-70.44-16.06-106.3-2.59-36.56-2.22-73.26-1.5-109.89,1.45-74.17,4.11-148.32,6.85-222.45,1.27-34.25.73-69.88,10.1-103.14,4.43-15.72,12.07-30.27,14.6-46.55,2.38-15.31,1.68-30.95-.61-46.22-5-33.28-19.67-63.69-27.95-96.09-8.33-32.63-10.08-67.17-6.44-100.6q1.38-12.72,4-25.24c.38-1.89-2.51-2.69-2.9-.8a294.48,294.48,0,0,0-3.16,98.12c4.44,33.1,17.44,63.22,26.77,95,9.45,32.17,12.92,66.32,1.05,98.29C112,59.41,107,74.37,104.54,90.67c-2.49,16.5-3.44,33.2-4.14,49.86q-4.62,110.79-7.33,221.69c-.87,36.45-1.83,72.94-.75,109.4a701,701,0,0,0,11.27,105.8c12.5,68.25,30.69,136.75,23.43,206.74a253.76,253.76,0,0,1-4,25.44c-.39,1.89,2.5,2.69,2.89.8Z" transform="translate(0 248.48)"/>
  <ellipse class="tree-cls-11" cx="345.5" cy="745.98" rx="38.5" ry="124.5"/>
  <path class="tree-cls-1" d="M440.4,264.72a1.5,1.5,0,0,0,0-3,1.5,1.5,0,0,0,0,3Z" transform="translate(0 248.48)"/>
  <path class="tree-cls-1" d="M377.49,254.18l-6.16-51.13c-1.12-9.26,17.09,5.62,26.1,6.5,28.81,2.8,56.73,14.28,84.57,20.45l-41.79,33.67a62.5,62.5,0,0,1-38.42-4.42c-3-1.38-6-3-9.21-3.71-7.31-1.53-16.71,1.3-21.05-5" transform="translate(0 248.48)"/>
</svg>
