<svg width="1000" height="100" viewBox="0 0 1000 100" fill="none" xmlns="http://www.w3.org/2000/svg">
<rect width="1000" height="100" fill="none"/>
<path d="M948.094 49.7347V49.7022L951.741 50.8721L951.875 50.7567V50.7653L951.741 50.9063L948.094 49.7347Z" fill="#7E6525"/>
<path d="M951.741 50.8721L948.094 49.7022V49.7347L951.741 50.9063M951.741 50.8721L951.875 50.7567V50.7653L951.741 50.9063M951.741 50.8721V50.9063" stroke="black" stroke-width="0.1"/>
<path d="M948.094 49.7058L948.162 49.576L951.871 50.737L951.743 50.8735L948.094 49.7058Z" fill="#BA9F6C" stroke="black" stroke-width="0.1"/>
<path d="M946.282 45.0024L946.354 44.9375L947.181 45.2866L946.894 45.2748L946.282 45.0024Z" fill="#BA9F6C" stroke="black" stroke-width="0.1"/>
<path d="M946.281 45.0054L946.286 45.0043L946.892 45.2736L946.767 45.2846L946.286 45.0703L946.281 45.0054Z" fill="#7E6525" stroke="black" stroke-width="0.1"/>
<path d="M947.054 45.3004L946.767 45.287L946.886 45.2736L947.175 45.2846L947.054 45.3004Z" fill="#7E6525" stroke="black" stroke-width="0.1"/>
<path d="M946.767 53.2963V53.2045L951.064 53.0312L950.969 53.1199L946.767 53.2963Z" fill="#BA9F6C" stroke="black" stroke-width="0.1"/>
<path d="M946.853 53.375L946.767 53.2969L950.984 53.1148L951.085 53.0404L951.125 53.1176L951.019 53.2149L946.853 53.375Z" fill="#7E6525"/>
<path d="M950.984 53.1148L951.085 53.0404L951.125 53.1176L951.019 53.2149M950.984 53.1148L946.767 53.2969L946.853 53.375L951.019 53.2149M950.984 53.1148L951.019 53.2149" stroke="black" stroke-width="0.1"/>
<path d="M954.206 48.1047L954.103 48.0514L952.656 51.5584L952.748 51.6504L954.206 48.1047Z" fill="#BA9F6C" stroke="black" stroke-width="0.1"/>
<path d="M952.672 51.647L952.656 51.5626L952.748 51.6508L954.206 48.1052H954.209L954.219 48.2071L952.774 51.7504L952.672 51.647Z" fill="#7E6525"/>
<path d="M952.774 51.7504L954.219 48.2071L954.209 48.1052H954.206L952.748 51.6508M952.774 51.7504L952.672 51.647L952.656 51.5626L952.748 51.6508M952.774 51.7504L952.748 51.6508" stroke="black" stroke-width="0.1"/>
<path d="M950.969 48.8527V48.7322L953.512 47.9688L953.656 48.0342L950.969 48.8527Z" fill="#BA9F6C" stroke="black" stroke-width="0.1"/>
<path d="M951.026 48.9062L950.969 48.8527L953.654 48.0514L953.578 48.1347L951.026 48.9062Z" fill="#7E6525" stroke="black" stroke-width="0.1"/>
<path d="M846.286 49.6434V49.5885L851.979 51.5672L852.188 51.3721V51.3865L851.979 51.625L846.286 49.6434Z" fill="#7E6525"/>
<path d="M851.979 51.5672L846.286 49.5885V49.6434L851.979 51.625M851.979 51.5672L852.188 51.3721V51.3865L851.979 51.625M851.979 51.5672V51.625" stroke="black" stroke-width="0.1"/>
<path d="M846.286 49.5946L846.392 49.375L852.181 51.3388L851.982 51.5696L846.286 49.5946Z" fill="#BA9F6C" stroke="black" stroke-width="0.1"/>
<path d="M845 44.9287L845.105 44.8125L846.295 45.438L845.881 45.4168L845 44.9287Z" fill="#BA9F6C" stroke="black" stroke-width="0.1"/>
<path d="M845 44.9342L845.006 44.9321L845.878 45.4147L845.7 45.4344L845.006 45.0505L845 44.9342Z" fill="#7E6525" stroke="black" stroke-width="0.1"/>
<path d="M846.112 45.4627L845.7 45.4387L845.871 45.4146L846.286 45.4343L846.112 45.4627Z" fill="#7E6525" stroke="black" stroke-width="0.1"/>
<path d="M845 53.488V53.2974L850.321 52.9375L850.203 53.1216L845 53.488Z" fill="#BA9F6C" stroke="black" stroke-width="0.1"/>
<path d="M845.106 53.6503L845 53.488L850.222 53.1098L850.347 52.9553L850.397 53.1157L850.266 53.3176L845.106 53.6503Z" fill="#7E6525"/>
<path d="M850.222 53.1098L850.347 52.9553L850.397 53.1157L850.266 53.3176M850.222 53.1098L845 53.488L845.106 53.6503L850.266 53.3176M850.222 53.1098L850.266 53.3176" stroke="black" stroke-width="0.1"/>
<path d="M853.609 47.3483L853.465 47.2753L851.438 52.0755L851.566 52.2014L853.609 47.3483Z" fill="#BA9F6C" stroke="black" stroke-width="0.1"/>
<path d="M851.46 52.1961L851.438 52.0807L851.566 52.2014L853.609 47.3484H853.614L853.627 47.4878L851.603 52.3378L851.46 52.1961Z" fill="#7E6525"/>
<path d="M851.603 52.3378L853.627 47.4878L853.614 47.3484H853.609L851.566 52.2014M851.603 52.3378L851.46 52.1961L851.438 52.0807L851.566 52.2014M851.603 52.3378L851.566 52.2014" stroke="black" stroke-width="0.1"/>
<path d="M849.233 49.2822V49.0733L853.391 47.75L853.627 47.8634L849.233 49.2822Z" fill="#BA9F6C" stroke="black" stroke-width="0.1"/>
<path d="M849.326 49.375L849.233 49.2821L853.623 47.8932L853.499 48.0376L849.326 49.375Z" fill="#7E6525" stroke="black" stroke-width="0.1"/>
<path d="M746 49.5204V49.4413L753.767 52.2917L754.051 52.0106V52.0315L753.767 52.375L746 49.5204Z" fill="#7E6525"/>
<path d="M753.767 52.2917L746 49.4413V49.5204L753.767 52.375M753.767 52.2917L754.051 52.0106V52.0315L753.767 52.375M753.767 52.2917V52.375" stroke="black" stroke-width="0.1"/>
<path d="M746 49.4501L746.145 49.1339L754.042 51.9627L753.77 52.2952L746 49.4501Z" fill="#BA9F6C" stroke="black" stroke-width="0.1"/>
<path d="M744.625 44.5248L744.795 44.3125L746.719 45.4548L746.049 45.4161L744.625 44.5248Z" fill="#BA9F6C" stroke="black" stroke-width="0.1"/>
<path d="M744.625 44.5347L744.635 44.5309L746.045 45.4122L745.757 45.4481L744.635 44.747L744.625 44.5347Z" fill="#7E6525" stroke="black" stroke-width="0.1"/>
<path d="M746.423 45.5L745.757 45.4561L746.033 45.4121L746.704 45.4481L746.423 45.5Z" fill="#7E6525" stroke="black" stroke-width="0.1"/>
<path d="M744.062 53.474V53.2234L750.725 52.75L750.578 52.9922L744.062 53.474Z" fill="#BA9F6C" stroke="black" stroke-width="0.1"/>
<path d="M744.195 53.6875L744.062 53.474L750.602 52.9766L750.758 52.7734L750.82 52.9844L750.656 53.25L744.195 53.6875Z" fill="#7E6525"/>
<path d="M750.602 52.9766L750.758 52.7734L750.82 52.9844L750.656 53.25M750.602 52.9766L744.062 53.474L744.195 53.6875L750.656 53.25M750.602 52.9766L750.656 53.25" stroke="black" stroke-width="0.1"/>
<path d="M755.727 45.2839L755.442 45.1712L751.438 52.5789L751.692 52.7732L755.727 45.2839Z" fill="#BA9F6C" stroke="black" stroke-width="0.1"/>
<path d="M751.481 52.7651L751.438 52.587L751.692 52.7732L755.727 45.284H755.736L755.763 45.4992L751.764 52.9837L751.481 52.7651Z" fill="#7E6525"/>
<path d="M751.764 52.9837L755.763 45.4992L755.736 45.284H755.727L751.692 52.7732M751.764 52.9837L751.481 52.7651L751.438 52.587L751.692 52.7732M751.764 52.9837L751.692 52.7732" stroke="black" stroke-width="0.1"/>
<path d="M748.125 49.8465V49.501L754.394 47.3125L754.75 47.5L748.125 49.8465Z" fill="#BA9F6C" stroke="black" stroke-width="0.1"/>
<path d="M748.265 50L748.125 49.8464L754.744 47.5493L754.556 47.7882L748.265 50Z" fill="#7E6525" stroke="black" stroke-width="0.1"/>
<path d="M643.219 48.7187V48.5909L655.143 53.1991L655.58 52.7446V52.7783L655.143 53.3337L643.219 48.7187Z" fill="#7E6525"/>
<path d="M655.143 53.1991L643.219 48.5909V48.7187L655.143 53.3337M655.143 53.1991L655.58 52.7446V52.7783L655.143 53.3337M655.143 53.1991V53.3337" stroke="black" stroke-width="0.1"/>
<path d="M643.219 48.6051L643.441 48.0938L655.565 52.6671L655.148 53.2047L643.219 48.6051Z" fill="#BA9F6C" stroke="black" stroke-width="0.1"/>
<path d="M650.438 51.2001C650.407 51.0794 650.379 51.0437 650.287 50.9572" stroke="#BC7101" stroke-width="0.1"/>
<path d="M650.403 51.1837C650.345 51.0552 650.276 50.9626 650.095 50.7905" stroke="#BC7101" stroke-width="0.1"/>
<path d="M650.314 51.1173C650.227 50.9642 650.149 50.8778 649.968 50.7227" stroke="#BC7101" stroke-width="0.1"/>
<path d="M650.225 51.0683C650.127 50.9231 650.04 50.8409 649.819 50.693" stroke="#BC7101" stroke-width="0.1"/>
<path d="M650.102 50.9626C649.9 50.7997 649.804 50.7257 649.694 50.6557" stroke="#BC7101" stroke-width="0.1"/>
<path d="M643.639 43.9577L643.888 43.622L646.719 45.4286L645.734 45.3674L643.639 43.9577Z" fill="#BA9F6C" stroke="black" stroke-width="0.1"/>
<path d="M643.639 43.9734L643.653 43.9674L645.728 45.3611L645.303 45.4179L643.653 44.3092L643.639 43.9734Z" fill="#7E6525" stroke="black" stroke-width="0.1"/>
<path d="M646.284 45.5L645.303 45.4305L645.71 45.3611L646.697 45.4179L646.284 45.5Z" fill="#7E6525" stroke="black" stroke-width="0.1"/>
<path d="M642.031 53.9325V53.5232L650.68 52.75L650.529 53.1573L642.031 53.9325Z" fill="#BA9F6C" stroke="black" stroke-width="0.1"/>
<path d="M642.204 54.2812L642.031 53.9325L650.77 53.1214L650.875 52.9837L650.695 53.5838L642.204 54.2812Z" fill="#7E6525"/>
<path d="M650.77 53.1214L650.875 52.9837L650.695 53.5838M650.77 53.1214L642.031 53.9325L642.204 54.2812L650.695 53.5838M650.77 53.1214L650.695 53.5838" stroke="black" stroke-width="0.1"/>
<path d="M656.768 44.0346L656.309 43.875L649.854 54.3643L650.264 54.6395L656.768 44.0346Z" fill="#BA9F6C" stroke="black" stroke-width="0.1"/>
<path d="M649.924 54.628L649.854 54.3758L650.264 54.6395L656.768 44.0348H656.782L656.826 44.3395L650.381 54.9375L649.924 54.628Z" fill="#7E6525"/>
<path d="M650.381 54.9375L656.826 44.3395L656.782 44.0348H656.768L650.264 54.6395M650.381 54.9375L649.924 54.628L649.854 54.3758L650.264 54.6395M650.381 54.9375L650.264 54.6395" stroke="black" stroke-width="0.1"/>
<path d="M644.125 51.1969V50.5847L655.747 46.7073L656.406 47.0396L644.125 51.1969Z" fill="#BA9F6C" stroke="black" stroke-width="0.1"/>
<path d="M644.385 51.4687L644.125 51.1966L656.394 47.1269L656.047 47.5501L644.385 51.4687Z" fill="#7E6525" stroke="black" stroke-width="0.1"/>
<path d="M655.769 47.1941C655.657 47.0797 655.602 47.0627 655.439 47.0426" stroke="#BC7101" stroke-width="0.1"/>
<path d="M655.719 47.2049C655.57 47.1056 655.431 47.0576 655.111 47.0159" stroke="#BC7101" stroke-width="0.1"/>
<path d="M655.573 47.2053C655.374 47.1029 655.229 47.0697 654.92 47.0473" stroke="#BC7101" stroke-width="0.1"/>
<path d="M655.439 47.2265C655.233 47.1424 655.079 47.123 654.728 47.1441" stroke="#BC7101" stroke-width="0.1"/>
<path d="M655.228 47.2115C654.891 47.1976 654.732 47.1952 654.56 47.2105" stroke="#BC7101" stroke-width="0.1"/>
<path d="M541.341 47.8545V47.6765L557.766 54.0938L558.367 53.4609V53.5078L557.766 54.2812L541.341 47.8545Z" fill="#7E6525"/>
<path d="M557.766 54.0938L541.341 47.6765V47.8545L557.766 54.2812M557.766 54.0938L558.367 53.4609V53.5078L557.766 54.2812M557.766 54.0938V54.2812" stroke="black" stroke-width="0.1"/>
<path d="M541.341 47.6963L541.647 46.9843L558.348 53.3529L557.773 54.1016L541.341 47.6963Z" fill="#BA9F6C" stroke="black" stroke-width="0.1"/>
<path d="M543.639 44.0373L543.965 43.622L547.661 45.8569L546.375 45.7812L543.639 44.0373Z" fill="#BA9F6C" stroke="black" stroke-width="0.1"/>
<path d="M543.639 44.0568L543.658 44.0493L546.367 45.7734L545.812 45.8438L543.658 44.4721L543.639 44.0568Z" fill="#7E6525" stroke="black" stroke-width="0.1"/>
<path d="M547.094 45.9453L545.812 45.8594L546.344 45.7734L547.633 45.8438L547.094 45.9453Z" fill="#7E6525" stroke="black" stroke-width="0.1"/>
<path d="M540 54.1051V53.5711L551.53 52.5623L551.328 53.0938L540 54.1051Z" fill="#BA9F6C" stroke="black" stroke-width="0.1"/>
<path d="M540.23 54.56L540 54.1051L551.648 53.0469L551.789 52.8672L551.549 53.6502L540.23 54.56Z" fill="#7E6525"/>
<path d="M551.648 53.0469L551.789 52.8672L551.549 53.6502M551.648 53.0469L540 54.1051L540.23 54.56L551.549 53.6502M551.648 53.0469L551.549 53.6502" stroke="black" stroke-width="0.1"/>
<path d="M557.773 42.2176L557.16 42L548.547 56.2969L549.094 56.6719L557.773 42.2176Z" fill="#BA9F6C" stroke="black" stroke-width="0.1"/>
<path d="M548.641 56.6562L548.547 56.3125L549.094 56.6719L557.773 42.2178H557.792L557.85 42.6331L549.25 57.0781L548.641 56.6562Z" fill="#7E6525"/>
<path d="M549.25 57.0781L557.85 42.6331L557.792 42.2178H557.773L549.094 56.6719M549.25 57.0781L548.641 56.6562L548.547 56.3125L549.094 56.6719M549.25 57.0781L549.094 56.6719" stroke="black" stroke-width="0.1"/>
<path d="M541.571 51.9289V51.2168L557.007 46.7073L557.883 47.0938L541.571 51.9289Z" fill="#BA9F6C" stroke="black" stroke-width="0.1"/>
<path d="M541.915 52.2451L541.571 51.9286L557.867 47.1953L557.406 47.6875L541.915 52.2451Z" fill="#7E6525" stroke="black" stroke-width="0.1"/>
<path d="M557.037 47.2734C556.888 47.1404 556.814 47.1206 556.599 47.0973" stroke="#BC7101" stroke-width="0.1"/>
<path d="M556.969 47.286C556.772 47.1705 556.588 47.1148 556.163 47.0662" stroke="#BC7101" stroke-width="0.1"/>
<path d="M556.776 47.2865C556.511 47.1674 556.319 47.1288 555.909 47.1027" stroke="#BC7101" stroke-width="0.1"/>
<path d="M556.598 47.3111C556.324 47.2133 556.12 47.1907 555.654 47.2153" stroke="#BC7101" stroke-width="0.1"/>
<path d="M556.318 47.2936C555.87 47.2775 555.66 47.2748 555.43 47.2925" stroke="#BC7101" stroke-width="0.1"/>
<path d="M550.886 51.1818C550.83 50.9866 550.779 50.9289 550.609 50.7889" stroke="#BC7101" stroke-width="0.1"/>
<path d="M550.822 51.1552C550.716 50.9474 550.591 50.7978 550.259 50.5196" stroke="#BC7101" stroke-width="0.1"/>
<path d="M550.659 51.0476C550.499 50.7997 550.358 50.6597 550.026 50.4086" stroke="#BC7101" stroke-width="0.1"/>
<path d="M550.497 50.9683C550.318 50.733 550.158 50.5999 549.753 50.3603" stroke="#BC7101" stroke-width="0.1"/>
<path d="M550.271 50.7971C549.902 50.5333 549.727 50.4134 549.525 50.3001" stroke="#BC7101" stroke-width="0.1"/>
<path d="M441.341 47.8545V47.6765L457.984 54.1836V54.3221L441.341 47.8545Z" fill="#7E6525" stroke="black" stroke-width="0.1"/>
<path d="M441.341 47.6963L441.647 46.9843L458.348 53.3529L457.965 54.1836L441.341 47.6963Z" fill="#BA9F6C" stroke="black" stroke-width="0.1"/>
<path d="M458.436 53.4042C458.459 53.4343 458.48 53.4881 458.495 53.5701L458.11 54.3699C458.023 54.3639 457.975 54.3468 457.949 54.3268C457.926 54.3089 457.916 54.2833 457.921 54.236C457.927 54.186 457.95 54.1219 457.984 54.0412C458 54.0038 458.019 53.964 458.038 53.9214C458.039 53.9188 458.04 53.9161 458.042 53.9134C458.062 53.868 458.084 53.8197 458.106 53.7691C458.16 53.6426 458.213 53.5479 458.261 53.4827C458.31 53.4158 458.35 53.3862 458.377 53.3782C458.39 53.3746 458.399 53.3755 458.406 53.3785C458.414 53.3816 458.425 53.3888 458.436 53.4042Z" fill="#563E38" stroke="black" stroke-width="0.1"/>
<path d="M443.639 44.0373L443.965 43.622L447.661 45.8569L448.016 46.3125L447.872 46.7272L443.639 44.0373Z" fill="#BA9F6C" stroke="black" stroke-width="0.1"/>
<path d="M447.45 46.4697L447.609 46.6875L445.828 45.8438L443.658 44.4721L443.639 44.0568L443.658 44.0493L447.45 46.4697Z" fill="#7E6525" stroke="black" stroke-width="0.1"/>
<path d="M447.871 46.2327L445.822 45.8371L449.125 47.4062L448.5 46.7188L447.642 45.8371L447.871 46.2327Z" fill="#2A1E0E" stroke="black" stroke-width="0.1"/>
<path d="M440 54.1051V53.5711L451.53 52.5623L453.109 52.7656L453.253 52.9184L440 54.1051Z" fill="#BA9F6C" stroke="black" stroke-width="0.1"/>
<path d="M440.23 54.56L440 54.1051L452.698 52.9777L452.736 53.4128L451.549 53.6502L440.23 54.56Z" fill="#7E6525" stroke="black" stroke-width="0.1"/>
<path d="M452.66 53.2745L451.53 53.6503L452.75 53.4375L453.531 52.8906L453.094 52.75L451.53 52.5625L451.779 52.8789L451.664 53.1558L452.66 53.2745Z" fill="#2A1E0E" stroke="black" stroke-width="0.1"/>
<path d="M457.773 42.2176L457.16 42L448.12 56.913L448.695 57.3481L457.773 42.2176Z" fill="#BA9F6C" stroke="black" stroke-width="0.1"/>
<path d="M448.944 57.5857L457.85 42.6331L457.792 42.2178H457.773L448.695 57.3483L448.944 57.5857Z" fill="#7E6525" stroke="black" stroke-width="0.1"/>
<path d="M448.118 57.1426L448.09 57.049C448.073 56.995 448.103 56.9377 448.156 56.919C448.22 56.8965 448.288 56.9395 448.296 57.007L448.3 57.0459C448.306 57.0977 448.341 57.1416 448.39 57.1594L448.882 57.3379C448.957 57.3652 448.995 57.4488 448.967 57.5238C448.936 57.6087 448.834 57.6436 448.757 57.5963L448.208 57.2602C448.165 57.2335 448.132 57.1916 448.118 57.1426Z" fill="#2A1E0E" stroke="black" stroke-width="0.1"/>
<path d="M448.408 56.4581L448.12 56.913L448.925 57.5855L449.174 57.1899L448.925 57.2888L448.963 57.0515L448.714 57.1108V56.9526L448.446 57.0119L448.503 56.7746L448.35 56.913L448.408 56.4581Z" fill="#2A1E0E" stroke="black" stroke-width="0.1"/>
<path d="M441.571 51.9289V51.2168L457.007 46.7073L457.946 47.182L441.571 51.9289Z" fill="#BA9F6C" stroke="black" stroke-width="0.1"/>
<path d="M441.915 52.2451L441.571 51.9286L457.39 47.34L457.734 47.2188L457.406 47.6875L441.915 52.2451Z" fill="#7E6525" stroke="black" stroke-width="0.1"/>
<path d="M457.785 47.3077L457.788 47.3042C457.817 47.2612 457.868 47.238 457.92 47.2439C458.07 47.2607 458.14 47.0634 458.013 46.9825L457.856 46.8831C457.848 46.8777 457.839 46.873 457.83 46.8691L457.324 46.6521C457.317 46.6493 457.31 46.6478 457.303 46.6478C457.263 46.6478 457.238 46.6888 457.255 46.7242L457.528 47.2877C457.578 47.3906 457.72 47.4017 457.785 47.3077Z" fill="#2A1E0E" stroke="black" stroke-width="0.1"/>
<path d="M457.797 47.3125L457.314 46.6477L456.777 46.7466H457.122L457.026 46.8653H457.333L457.199 46.984L457.333 47.0433L457.084 47.1422L457.371 47.2411L457.218 47.4191L457.448 47.3202L457.371 47.4982L457.199 47.6367L457.371 47.7158L457.797 47.3125Z" fill="#2A1E0E" stroke="black" stroke-width="0.1"/>
<path d="M457.037 47.2734C456.888 47.1403 456.814 47.1206 456.599 47.0973" stroke="#BC7101" stroke-width="0.1"/>
<path d="M456.969 47.286C456.772 47.1705 456.588 47.1147 456.163 47.0662" stroke="#BC7101" stroke-width="0.1"/>
<path d="M456.776 47.2864C456.511 47.1673 456.319 47.1288 455.909 47.1027" stroke="#BC7101" stroke-width="0.1"/>
<path d="M456.598 47.3111C456.324 47.2132 456.12 47.1907 455.654 47.2153" stroke="#BC7101" stroke-width="0.1"/>
<path d="M456.318 47.2936C455.87 47.2775 455.66 47.2747 455.43 47.2925" stroke="#BC7101" stroke-width="0.1"/>
<path d="M450.886 51.1818C450.83 50.9866 450.779 50.9289 450.609 50.7889" stroke="#BC7101" stroke-width="0.1"/>
<path d="M450.822 51.1552C450.716 50.9474 450.591 50.7978 450.259 50.5196" stroke="#BC7101" stroke-width="0.1"/>
<path d="M450.659 51.0476C450.499 50.7997 450.358 50.6597 450.026 50.4086" stroke="#BC7101" stroke-width="0.1"/>
<path d="M450.497 50.9683C450.318 50.733 450.158 50.5999 449.753 50.3603" stroke="#BC7101" stroke-width="0.1"/>
<path d="M450.271 50.7971C449.902 50.5333 449.727 50.4134 449.525 50.3001" stroke="#BC7101" stroke-width="0.1"/>
<path d="M341.341 47.8545V47.6765L357.984 54.1836V54.3221L341.341 47.8545Z" fill="#7E6525" stroke="black" stroke-width="0.1"/>
<path d="M341.341 47.6963L341.647 46.9843L358.348 53.3529L357.965 54.1836L341.341 47.6963Z" fill="#BA9F6C" stroke="black" stroke-width="0.1"/>
<path d="M358.873 54.1582C358.909 54.1669 358.96 54.1818 359.031 54.2136C359.011 54.2664 358.989 54.3021 358.965 54.3269C358.936 54.3568 358.901 54.3741 358.853 54.3838C358.802 54.3938 358.74 54.3951 358.657 54.3934C358.632 54.3929 358.605 54.3921 358.576 54.3912C358.512 54.3893 358.44 54.3872 358.359 54.3872C358.185 54.3833 358.076 54.3634 358.012 54.3338C357.98 54.3194 357.961 54.3036 357.95 54.2884C357.939 54.2736 357.933 54.2563 357.931 54.2346C357.928 54.1879 357.946 54.1257 357.981 54.0435C357.998 54.0042 358.017 53.9624 358.039 53.9175L358.04 53.9145C358.061 53.8688 358.084 53.82 358.106 53.7691C358.161 53.6409 358.211 53.537 358.258 53.4634C358.281 53.4267 358.303 53.3993 358.323 53.3805C358.343 53.3617 358.359 53.3541 358.371 53.352C358.387 53.349 358.419 53.3552 358.467 53.4282C358.514 53.4991 358.566 53.6177 358.625 53.7963C358.641 53.8469 358.655 53.8898 358.666 53.9258C358.68 53.9694 358.69 54.003 358.699 54.0279C358.715 54.0724 358.732 54.1092 358.769 54.1298C358.786 54.1389 358.803 54.1432 358.818 54.1464C358.824 54.1477 358.83 54.1488 358.836 54.15C358.847 54.1523 358.858 54.1546 358.873 54.1582Z" fill="#563E38" stroke="black" stroke-width="0.1"/>
<path d="M343.639 44.0373L343.965 43.622L347.661 45.8569L348.016 46.3125L347.872 46.7272L343.639 44.0373Z" fill="#BA9F6C" stroke="black" stroke-width="0.1"/>
<path d="M347.45 46.4697L347.609 46.6875L345.828 45.8438L343.658 44.4721L343.639 44.0568L343.658 44.0493L347.45 46.4697Z" fill="#7E6525" stroke="black" stroke-width="0.1"/>
<path d="M347.871 46.2327L345.822 45.8371L352.344 49.4688L355.062 51.0938L355.906 51.625L348.5 46.7188L347.642 45.8371L347.871 46.2327Z" fill="#2A1E0E" stroke="black" stroke-width="0.1"/>
<path d="M340 54.1051V53.5711L351.53 52.5623L353.109 52.7656L353.253 52.9184L340 54.1051Z" fill="#BA9F6C" stroke="black" stroke-width="0.1"/>
<path d="M340.23 54.56L340 54.1051L352.698 52.9777L352.736 53.4128L351.549 53.6502L340.23 54.56Z" fill="#7E6525" stroke="black" stroke-width="0.1"/>
<path d="M356.906 52.8906L355.578 52.8125H354.219L351.53 52.5625L351.779 52.8789L351.664 53.1558L352.66 53.2745L351.53 53.6503L353.156 53.3438L356.906 52.8906Z" fill="#2A1E0E" stroke="black" stroke-width="0.1"/>
<path d="M357.773 42.2176L357.16 42L348.12 56.913L348.695 57.3481L357.773 42.2176Z" fill="#BA9F6C" stroke="black" stroke-width="0.1"/>
<path d="M348.944 57.5857L357.85 42.6331L357.792 42.2178H357.773L348.695 57.3483L348.944 57.5857Z" fill="#7E6525" stroke="black" stroke-width="0.1"/>
<path d="M348.019 57.4082L348.054 57.0312C348.058 56.9832 348.09 56.9422 348.135 56.9262C348.21 56.9 348.29 56.95 348.298 57.0286L348.3 57.0459C348.306 57.0977 348.341 57.1416 348.39 57.1594L348.834 57.3207C348.936 57.3575 348.988 57.47 348.95 57.571C348.923 57.642 348.858 57.6911 348.782 57.6966L348.335 57.7293C348.289 57.7326 348.244 57.7253 348.201 57.7079C348.081 57.6586 348.008 57.5371 348.019 57.4082Z" fill="#2A1E0E" stroke="black" stroke-width="0.1"/>
<path d="M348.408 56.4581L348.12 56.913L348.925 57.5855L349.174 57.1899L348.925 57.2888L348.963 57.0515L348.714 57.1108V56.9526L348.446 57.0119L348.503 56.7746L348.35 56.913L348.408 56.4581Z" fill="#2A1E0E" stroke="black" stroke-width="0.1"/>
<path d="M341.571 51.9289V51.2168L357.007 46.7073L357.946 47.182L341.571 51.9289Z" fill="#BA9F6C" stroke="black" stroke-width="0.1"/>
<path d="M341.915 52.2451L341.571 51.9286L357.39 47.34L357.734 47.2188L357.406 47.6875L341.915 52.2451Z" fill="#7E6525" stroke="black" stroke-width="0.1"/>
<path d="M358.745 47.1011L358.998 47.0091C359.069 46.9835 359.125 46.9286 359.152 46.8586C359.192 46.756 359.162 46.6384 359.079 46.5662C359.019 46.5148 358.94 46.4918 358.862 46.5045L358.657 46.5384C358.573 46.5521 358.493 46.5807 358.42 46.6227L358.248 46.7215C358.207 46.7451 358.163 46.7647 358.119 46.7802C357.942 46.8412 357.748 46.8342 357.576 46.7604L357.324 46.6521C357.317 46.6492 357.31 46.6478 357.303 46.6478C357.263 46.6478 357.238 46.6888 357.255 46.7241L357.476 47.1812C357.552 47.339 357.766 47.3651 357.879 47.2303C357.926 47.1737 357.996 47.1417 358.07 47.1435L358.433 47.1523C358.539 47.1549 358.645 47.1375 358.745 47.1011Z" fill="#2A1E0E" stroke="black" stroke-width="0.1"/>
<path d="M357.797 47.3125L357.314 46.6477L356.777 46.7466H357.122L357.026 46.8653H357.333L357.199 46.984L357.333 47.0433L357.084 47.1422L357.371 47.2411L357.218 47.4191L357.448 47.3202L357.371 47.4982L357.199 47.6367L357.371 47.7158L357.797 47.3125Z" fill="#2A1E0E" stroke="black" stroke-width="0.1"/>
<path d="M357.037 47.2734C356.888 47.1403 356.814 47.1206 356.599 47.0973" stroke="#BC7101" stroke-width="0.1"/>
<path d="M356.969 47.286C356.772 47.1705 356.588 47.1147 356.163 47.0662" stroke="#BC7101" stroke-width="0.1"/>
<path d="M356.776 47.2864C356.511 47.1673 356.319 47.1288 355.909 47.1027" stroke="#BC7101" stroke-width="0.1"/>
<path d="M356.598 47.3111C356.324 47.2132 356.12 47.1907 355.654 47.2153" stroke="#BC7101" stroke-width="0.1"/>
<path d="M356.318 47.2936C355.87 47.2775 355.66 47.2747 355.43 47.2925" stroke="#BC7101" stroke-width="0.1"/>
<path d="M350.886 51.1817C350.83 50.9866 350.779 50.9289 350.609 50.7888" stroke="#BC7101" stroke-width="0.1"/>
<path d="M350.822 51.1551C350.716 50.9474 350.591 50.7978 350.259 50.5196" stroke="#BC7101" stroke-width="0.1"/>
<path d="M350.659 51.0476C350.499 50.7997 350.358 50.6597 350.026 50.4086" stroke="#BC7101" stroke-width="0.1"/>
<path d="M350.497 50.9683C350.318 50.733 350.158 50.5999 349.753 50.3603" stroke="#BC7101" stroke-width="0.1"/>
<path d="M350.271 50.7971C349.902 50.5333 349.727 50.4134 349.525 50.3001" stroke="#BC7101" stroke-width="0.1"/>
<path d="M241.341 47.8545V47.6765L257.984 54.1836V54.3221L241.341 47.8545Z" fill="#7E6525" stroke="black" stroke-width="0.1"/>
<path d="M241.341 47.6963L241.647 46.9843L258.348 53.3529L257.965 54.1836L241.341 47.6963Z" fill="#BA9F6C" stroke="black" stroke-width="0.1"/>
<path d="M259.442 54.2323C259.395 54.3753 259.269 54.4928 259.097 54.556C258.926 54.6189 258.712 54.6261 258.498 54.5517C258.308 54.4776 258.182 54.415 258.101 54.3575C258.021 54.3004 257.991 54.2522 257.981 54.2076C257.971 54.1607 257.982 54.1068 258.008 54.0322C258.018 54.0028 258.03 53.972 258.044 53.9381C258.047 53.9293 258.051 53.9203 258.054 53.9111C258.072 53.8668 258.09 53.8182 258.108 53.7649C258.116 53.74 258.123 53.7161 258.13 53.693C258.147 53.6384 258.163 53.5886 258.182 53.5427C258.209 53.4786 258.239 53.43 258.281 53.3973C258.363 53.3335 258.515 53.3135 258.848 53.4296C259.065 53.505 259.238 53.6354 259.345 53.7828C259.451 53.9303 259.488 54.0909 259.442 54.2323Z" fill="#563E38" stroke="black" stroke-width="0.1"/>
<path d="M243.639 44.0373L243.965 43.622L247.661 45.8569L248.016 46.3125L247.872 46.7272L243.639 44.0373Z" fill="#BA9F6C" stroke="black" stroke-width="0.1"/>
<path d="M247.45 46.4697L247.609 46.6875L245.828 45.8438L243.658 44.4721L243.639 44.0568L243.658 44.0493L247.45 46.4697Z" fill="#7E6525" stroke="black" stroke-width="0.1"/>
<path d="M247.871 46.2327L245.822 45.8371L252.344 49.4688L257.375 52.7969L257.547 52.6094L248.5 46.7188L247.642 45.8371L247.871 46.2327Z" fill="#2A1E0E" stroke="black" stroke-width="0.1"/>
<path d="M258.484 53.5396L258.484 53.5396L258.482 53.5408C258.348 53.6604 258.24 53.7078 258.155 53.7167C258.072 53.7255 258.003 53.6978 257.944 53.6518C257.884 53.605 257.835 53.54 257.795 53.4775C257.781 53.4567 257.769 53.4372 257.758 53.4187C257.752 53.4091 257.746 53.3998 257.74 53.3908C257.726 53.368 257.711 53.3448 257.696 53.3283C257.581 53.1564 257.499 53.0414 257.442 52.9627C257.425 52.9405 257.411 52.9216 257.399 52.9053C257.367 52.8615 257.349 52.8367 257.339 52.8196C257.338 52.8181 257.338 52.8168 257.337 52.8157C257.338 52.8138 257.34 52.8115 257.342 52.809C257.354 52.7937 257.375 52.7663 257.396 52.7233C257.454 52.6191 257.494 52.5611 257.527 52.5339C257.542 52.5214 257.552 52.5181 257.56 52.5175C257.568 52.5169 257.58 52.5189 257.598 52.5289C257.638 52.5506 257.688 52.5981 257.764 52.6766C257.779 52.6919 257.795 52.7081 257.811 52.7253C257.877 52.7937 257.958 52.877 258.057 52.9719C258.132 53.0589 258.215 53.128 258.291 53.1859C258.323 53.2103 258.353 53.232 258.381 53.252C258.421 53.2814 258.457 53.3073 258.488 53.3332C258.541 53.3774 258.56 53.4068 258.561 53.4292C258.563 53.4483 258.553 53.4825 258.484 53.5396Z" fill="#2A1E0E" stroke="black" stroke-width="0.1"/>
<path d="M240 54.1051V53.5711L251.53 52.5623L253.109 52.7656L253.253 52.9184L240 54.1051Z" fill="#BA9F6C" stroke="black" stroke-width="0.1"/>
<path d="M240.23 54.56L240 54.1051L252.698 52.9777L252.736 53.4128L251.549 53.6502L240.23 54.56Z" fill="#7E6525" stroke="black" stroke-width="0.1"/>
<path d="M257.688 52.7031L257.578 52.4375L255.109 52.7031L251.53 52.5625L251.779 52.8789L251.664 53.1558L252.66 53.2745L251.53 53.6503L254.031 53.1406L257.688 52.7031Z" fill="#2A1E0E" stroke="black" stroke-width="0.1"/>
<path d="M258.858 52.5227C258.858 52.6111 258.856 52.6692 258.847 52.7092C258.839 52.746 258.826 52.7606 258.808 52.7702C258.785 52.7826 258.746 52.79 258.674 52.7928C258.626 52.7947 258.567 52.7944 258.494 52.7941C258.462 52.7939 258.428 52.7937 258.391 52.7937C258.355 52.7937 258.321 52.7939 258.287 52.794C258.085 52.7948 257.914 52.7955 257.787 52.7656C257.714 52.7485 257.662 52.7226 257.628 52.6863C257.595 52.6511 257.574 52.6005 257.574 52.5227C257.574 52.4351 257.587 52.4004 257.598 52.3868C257.605 52.3785 257.619 52.3703 257.669 52.3753C257.7 52.3785 257.735 52.3854 257.778 52.3939C257.805 52.3993 257.836 52.4053 257.87 52.4114C257.957 52.4266 258.062 52.4406 258.188 52.4406C258.313 52.4406 258.421 52.4266 258.513 52.4115C258.546 52.4061 258.575 52.4007 258.603 52.3958C258.654 52.3865 258.697 52.3788 258.734 52.3754C258.792 52.3702 258.817 52.3782 258.829 52.3905C258.843 52.404 258.858 52.4373 258.858 52.5227Z" fill="#2A1E0E" stroke="black" stroke-width="0.1"/>
<path d="M257.773 42.2176L257.16 42L248.12 56.913L248.695 57.3481L257.773 42.2176Z" fill="#BA9F6C" stroke="black" stroke-width="0.1"/>
<path d="M248.944 57.5857L257.85 42.6331L257.792 42.2178H257.773L248.695 57.3483L248.944 57.5857Z" fill="#7E6525" stroke="black" stroke-width="0.1"/>
<path d="M247.74 57.9885L247.86 57.8204C247.952 57.6924 248.007 57.5425 248.022 57.3859L248.055 57.0149C248.059 56.9755 248.08 56.9399 248.114 56.9187C248.199 56.8647 248.31 56.9258 248.31 57.0264V57.0369C248.31 57.093 248.345 57.1431 248.398 57.1623L248.783 57.3022C248.913 57.3492 248.979 57.4928 248.931 57.6218C248.915 57.6647 248.887 57.7024 248.851 57.7306L248.411 58.0724C248.367 58.1073 248.327 58.1486 248.295 58.1951L248.211 58.3148C248.157 58.3917 248.068 58.4375 247.974 58.4375C247.817 58.4375 247.688 58.3103 247.688 58.1535C247.688 58.0943 247.706 58.0366 247.74 57.9885Z" fill="#2A1E0E" stroke="black" stroke-width="0.1"/>
<path d="M248.408 56.4581L248.12 56.913L248.925 57.5855L249.174 57.1899L248.925 57.2888L248.963 57.0515L248.714 57.1108V56.9526L248.446 57.0119L248.503 56.7746L248.35 56.913L248.408 56.4581Z" fill="#2A1E0E" stroke="black" stroke-width="0.1"/>
<path d="M241.571 51.9289V51.2168L257.007 46.7073L257.946 47.182L241.571 51.9289Z" fill="#BA9F6C" stroke="black" stroke-width="0.1"/>
<path d="M241.915 52.2451L241.571 51.9286L257.39 47.34L257.734 47.2188L257.359 47.7344L241.915 52.2451Z" fill="#7E6525" stroke="black" stroke-width="0.1"/>
<path d="M260.325 46.7157L260.347 46.7008C260.406 46.6616 260.452 46.6057 260.479 46.5403L260.495 46.5023C260.513 46.4574 260.517 46.4077 260.506 46.3604C260.492 46.3054 260.459 46.2572 260.412 46.225L260.344 46.1782C260.323 46.1636 260.301 46.1509 260.277 46.1401L260.249 46.1269C260.177 46.0939 260.1 46.0716 260.022 46.0606L260.014 46.0595C259.945 46.0498 259.875 46.0486 259.805 46.0557L259.791 46.0572C259.743 46.0622 259.694 46.0708 259.647 46.0831L259.488 46.124L259.297 46.2031L259.176 46.251C259.091 46.2849 259.009 46.3269 258.931 46.3762C258.843 46.4321 258.75 46.4784 258.652 46.5145L258.584 46.5396C258.549 46.5526 258.514 46.5686 258.482 46.5873L258.399 46.6345C258.265 46.7115 258.102 46.72 257.961 46.6574C257.888 46.6251 257.808 46.6113 257.729 46.6172L257.314 46.6478C257.269 46.6478 257.24 46.6941 257.26 46.734L257.473 47.1753C257.564 47.3626 257.792 47.4373 257.976 47.34L258.146 47.2498C258.204 47.2189 258.268 47.1988 258.333 47.1902L258.401 47.1814C258.528 47.1648 258.65 47.1222 258.76 47.0563L258.804 47.0303C258.923 46.9586 259.055 46.9087 259.192 46.883L259.314 46.8601C259.427 46.8388 259.542 46.8281 259.658 46.8281H259.816C259.886 46.8281 259.957 46.8215 260.026 46.8083L260.162 46.7825C260.22 46.7714 260.275 46.7486 260.325 46.7157Z" fill="#2A1E0E" stroke="black" stroke-width="0.1"/>
<path d="M257.891 47.3594L257.314 46.6477L256.777 46.7466H257.122L257.026 46.8653H257.333L257.199 46.984L257.333 47.0433L257.084 47.1422L257.371 47.2411L257.218 47.4191L257.448 47.3202L257.371 47.4982L257.199 47.6367L257.371 47.7158L257.891 47.3594Z" fill="#2A1E0E" stroke="black" stroke-width="0.1"/>
<path d="M257.037 47.2734C256.888 47.1404 256.814 47.1206 256.599 47.0973" stroke="#BC7101" stroke-width="0.1"/>
<path d="M256.969 47.286C256.772 47.1705 256.588 47.1148 256.163 47.0662" stroke="#BC7101" stroke-width="0.1"/>
<path d="M256.776 47.2865C256.511 47.1674 256.319 47.1288 255.909 47.1027" stroke="#BC7101" stroke-width="0.1"/>
<path d="M256.598 47.3111C256.324 47.2133 256.12 47.1907 255.654 47.2153" stroke="#BC7101" stroke-width="0.1"/>
<path d="M256.318 47.2936C255.87 47.2775 255.66 47.2748 255.43 47.2925" stroke="#BC7101" stroke-width="0.1"/>
<path d="M250.886 51.1818C250.83 50.9866 250.779 50.9289 250.609 50.7889" stroke="#BC7101" stroke-width="0.1"/>
<path d="M250.822 51.1552C250.716 50.9474 250.591 50.7978 250.259 50.5196" stroke="#BC7101" stroke-width="0.1"/>
<path d="M250.659 51.0476C250.499 50.7997 250.358 50.6597 250.026 50.4086" stroke="#BC7101" stroke-width="0.1"/>
<path d="M250.497 50.9683C250.318 50.733 250.158 50.5999 249.753 50.3603" stroke="#BC7101" stroke-width="0.1"/>
<path d="M250.271 50.7971C249.902 50.5333 249.727 50.4134 249.525 50.3001" stroke="#BC7101" stroke-width="0.1"/>
<path d="M141.341 47.8545V47.6765L157.984 54.1836V54.3221L141.341 47.8545Z" fill="#7E6525" stroke="black" stroke-width="0.1"/>
<path d="M141.341 47.6963L141.647 46.9843L158.348 53.3529L157.965 54.1836L141.341 47.6963Z" fill="#BA9F6C" stroke="black" stroke-width="0.1"/>
<path d="M159.442 54.2323C159.395 54.3753 159.269 54.4928 159.097 54.556C158.926 54.6189 158.712 54.6261 158.498 54.5517C158.308 54.4776 158.182 54.415 158.101 54.3575C158.021 54.3004 157.991 54.2522 157.981 54.2076C157.971 54.1607 157.982 54.1068 158.008 54.0322C158.018 54.0028 158.03 53.972 158.044 53.9381C158.047 53.9293 158.051 53.9203 158.054 53.9111C158.072 53.8668 158.09 53.8182 158.108 53.7649C158.116 53.74 158.123 53.7161 158.13 53.693C158.147 53.6384 158.163 53.5886 158.182 53.5427C158.209 53.4786 158.239 53.43 158.281 53.3973C158.363 53.3335 158.515 53.3135 158.848 53.4296C159.065 53.505 159.238 53.6354 159.345 53.7828C159.451 53.9303 159.488 54.0909 159.442 54.2323Z" fill="#521C0E" stroke="black" stroke-width="0.1"/>
<path d="M143.639 44.0373L143.965 43.622L147.661 45.8569L148.044 46.1734L147.872 46.7272L143.639 44.0373Z" fill="#BA9F6C" stroke="black" stroke-width="0.1"/>
<path d="M147.45 46.8455L143.658 44.4721L143.639 44.0568L143.658 44.0493L147.45 46.4697V46.8455Z" fill="#7E6525" stroke="black" stroke-width="0.1"/>
<path d="M147.871 46.2327L145.822 45.8371L157.199 53.0167L157.62 52.4431L147.642 45.8371L147.871 46.2327Z" fill="#2A1E0E" stroke="black" stroke-width="0.1"/>
<path d="M158.488 53.9671L158.488 53.9671L158.487 53.9683C158.355 54.086 158.233 54.1335 158.125 54.1412C158.017 54.149 157.916 54.117 157.827 54.066C157.68 53.983 157.572 53.8567 157.506 53.7804C157.491 53.763 157.478 53.7481 157.468 53.737C157.243 53.3976 157.208 53.1943 157.231 53.0572C157.243 52.9879 157.27 52.9316 157.302 52.879C157.313 52.8597 157.325 52.8416 157.337 52.8232C157.341 52.816 157.346 52.8089 157.351 52.8015C157.367 52.7765 157.383 52.7504 157.396 52.7233C157.451 52.6247 157.507 52.5646 157.564 52.533C157.62 52.502 157.683 52.4954 157.756 52.5139C157.831 52.5327 157.918 52.5776 158.018 52.6492C158.117 52.7201 158.227 52.8153 158.35 52.9325C158.487 53.0941 158.587 53.3025 158.619 53.497C158.651 53.6931 158.613 53.8643 158.488 53.9671Z" fill="#2A1E0E" stroke="black" stroke-width="0.1"/>
<path d="M140 54.1051V53.5711L151.53 52.5623L153.158 52.5821L153.253 52.9184L140 54.1051Z" fill="#BA9F6C" stroke="black" stroke-width="0.1"/>
<path d="M140.23 54.56L140 54.1051L152.698 52.9777L152.736 53.4128L151.549 53.6502L140.23 54.56Z" fill="#7E6525" stroke="black" stroke-width="0.1"/>
<path d="M157.62 52.246L151.53 52.5625L151.779 52.8789L151.664 53.1558L152.66 53.2745L151.53 53.6503L157.716 52.8789L157.62 52.246Z" fill="#2A1E0E" stroke="black" stroke-width="0.1"/>
<path d="M159.351 52.5227C159.351 52.6758 159.259 52.8203 159.099 52.9288C158.938 53.037 158.713 53.1056 158.463 53.1056C158.212 53.1056 157.988 53.037 157.827 52.9288C157.666 52.8203 157.574 52.6758 157.574 52.5227C157.574 52.3696 157.666 52.2251 157.827 52.1166C157.988 52.0084 158.212 51.9398 158.463 51.9398C158.713 51.9398 158.938 52.0084 159.099 52.1166C159.259 52.2251 159.351 52.3696 159.351 52.5227Z" fill="#2A1E0E" stroke="black" stroke-width="0.1"/>
<path d="M159.275 52.6009C159.19 52.7416 158.984 52.4113 158.788 52.2852C158.593 52.1591 158.263 52.2586 158.348 52.1179C158.433 51.9772 158.88 51.9918 159.076 52.1179C159.271 52.244 159.36 52.4603 159.275 52.6009Z" fill="#8F8E8E"/>
<path d="M158.424 53.8874C158.339 54.028 158.116 54.1419 157.92 54.0158C157.725 53.8897 158.186 53.8896 158.271 53.7489C158.356 53.6082 158.229 53.2272 158.424 53.3533C158.62 53.4794 158.51 53.7467 158.424 53.8874Z" fill="#8F8E8E"/>
<path d="M155.264 51.237C155.092 51.0195 154.728 50.881 154.632 50.6437C154.437 50.5176 155.073 50.8415 155.264 51.0393C155.59 51.1975 156.161 51.645 156.356 51.7711C156.551 51.8971 155.801 51.5139 155.264 51.237Z" fill="#8F8E8E"/>
<path d="M157.773 42.2176L157.16 42L148.12 56.913L148.695 57.3481L157.773 42.2176Z" fill="#BA9F6C" stroke="black" stroke-width="0.1"/>
<path d="M148.944 57.5857L157.85 42.6331L157.792 42.2178H157.773L148.695 57.3483L148.944 57.5857Z" fill="#7E6525" stroke="black" stroke-width="0.1"/>
<path d="M147.419 58.4119L147.404 58.3579C147.347 58.1407 147.373 57.91 147.476 57.7106L147.532 57.603C147.579 57.5124 147.637 57.4281 147.705 57.3521L148.048 56.9679C148.058 56.9576 148.068 56.9486 148.08 56.9412L148.106 56.9244C148.195 56.8679 148.311 56.9317 148.311 57.0369C148.311 57.093 148.346 57.1431 148.399 57.1623L148.796 57.3064C148.917 57.3503 148.976 57.4873 148.924 57.6051L148.725 58.1591C148.692 58.2506 148.643 58.3356 148.581 58.4103L148.563 58.4327C148.416 58.61 148.197 58.7127 147.967 58.7127H147.809C147.659 58.7127 147.521 58.629 147.451 58.4955C147.437 58.469 147.426 58.4409 147.419 58.4119Z" fill="#2A1E0E" stroke="black" stroke-width="0.1"/>
<path d="M148.408 56.4581L148.12 56.913L148.925 57.5855L149.174 57.1899L148.925 57.2888L148.963 57.0515L148.714 57.1108V56.9526L148.446 57.0119L148.503 56.7746L148.35 56.913L148.408 56.4581Z" fill="#2A1E0E" stroke="black" stroke-width="0.1"/>
<path d="M147.928 57.5853C147.554 57.8819 147.844 58.0877 147.616 58.1194C147.388 58.151 147.528 58.0465 147.507 57.882C147.485 57.7175 147.84 57.2017 148.068 57.17C148.56 57.1016 147.907 57.4209 147.928 57.5853Z" fill="#8F8E8E"/>
<path d="M141.571 51.9288V51.2168L157.007 46.7073L157.946 47.182L141.571 51.9288Z" fill="#BA9F6C" stroke="black" stroke-width="0.1"/>
<path d="M141.915 52.2451L141.571 51.9286L157.39 47.34L157.486 47.6565L141.915 52.2451Z" fill="#7E6525" stroke="black" stroke-width="0.1"/>
<path d="M160.451 46.5441L160.474 46.4837C160.511 46.3844 160.518 46.2762 160.493 46.1731C160.468 46.0712 160.407 45.982 160.32 45.9225L160.314 45.9181C160.293 45.9035 160.27 45.8908 160.247 45.8801L160.225 45.8699C160.149 45.835 160.067 45.8134 159.984 45.8062L159.961 45.8043C159.907 45.7996 159.853 45.8001 159.799 45.8057L159.773 45.8083C159.717 45.8142 159.661 45.8242 159.606 45.8384L159.459 45.8764L159.267 45.9555L159.147 46.0034C159.061 46.0373 158.979 46.0793 158.901 46.1286C158.813 46.1845 158.72 46.2308 158.622 46.2669L158.619 46.268C158.541 46.297 158.465 46.3325 158.392 46.3741L158.287 46.4346C158.2 46.4843 158.108 46.5248 158.013 46.5554C157.905 46.5905 157.792 46.6125 157.678 46.6209L157.314 46.6478C157.269 46.6478 157.24 46.6941 157.26 46.734L157.489 47.2084C157.575 47.3854 157.779 47.4711 157.965 47.4084L158.463 47.2411C158.666 47.1756 158.878 47.1422 159.091 47.1422H159.171L159.571 47.1117C159.649 47.1057 159.726 47.092 159.802 47.0707L159.885 47.0473C160.032 47.0058 160.166 46.9262 160.272 46.8163L160.291 46.7973C160.361 46.7248 160.415 46.6386 160.451 46.5441Z" fill="#2A1E0E" stroke="black" stroke-width="0.1"/>
<path d="M157.85 47.4389L157.314 46.6477L156.777 46.7466H157.122L157.026 46.8653H157.333L157.199 46.984L157.333 47.0433L157.084 47.1422L157.371 47.2411L157.218 47.4191L157.448 47.3202L157.371 47.4982L157.199 47.6367L157.371 47.7158L157.85 47.4389Z" fill="#2A1E0E" stroke="black" stroke-width="0.1"/>
<path d="M157.037 47.2734C156.888 47.1403 156.814 47.1206 156.599 47.0973" stroke="#BC7101" stroke-width="0.1"/>
<path d="M156.969 47.286C156.772 47.1705 156.588 47.1147 156.163 47.0662" stroke="#BC7101" stroke-width="0.1"/>
<path d="M156.776 47.2864C156.511 47.1673 156.319 47.1288 155.909 47.1027" stroke="#BC7101" stroke-width="0.1"/>
<path d="M156.598 47.3111C156.324 47.2132 156.12 47.1907 155.654 47.2153" stroke="#BC7101" stroke-width="0.1"/>
<path d="M156.318 47.2936C155.87 47.2775 155.66 47.2747 155.43 47.2925" stroke="#BC7101" stroke-width="0.1"/>
<path d="M150.886 51.1817C150.83 50.9866 150.779 50.9289 150.609 50.7888" stroke="#BC7101" stroke-width="0.1"/>
<path d="M150.822 51.1551C150.716 50.9474 150.591 50.7978 150.259 50.5196" stroke="#BC7101" stroke-width="0.1"/>
<path d="M150.659 51.0476C150.499 50.7997 150.358 50.6597 150.026 50.4086" stroke="#BC7101" stroke-width="0.1"/>
<path d="M150.497 50.9683C150.318 50.733 150.158 50.5999 149.753 50.3603" stroke="#BC7101" stroke-width="0.1"/>
<path d="M150.271 50.7971C149.902 50.5333 149.727 50.4134 149.525 50.3001" stroke="#BC7101" stroke-width="0.1"/>
<path d="M160.359 46.2021C160.347 46.2996 160.359 46.8456 160.167 46.5093C160.167 45.9309 159.545 46.0714 159.557 45.9739C159.57 45.8763 159.754 45.8205 159.969 45.849C160.184 45.8776 160.371 46.1046 160.359 46.2021Z" fill="#8F8E8E"/>
<path d="M41.3405 47.8545V47.6765L57.9838 54.1836V54.3221L41.3405 47.8545Z" fill="#D1A83E" stroke="black" stroke-width="0.1"/>
<path d="M41.3405 47.6963L41.647 46.9843L58.3477 53.3529L57.9647 54.1836L41.3405 47.6963Z" fill="#F4E4A8" stroke="black" stroke-width="0.1"/>
<path d="M59.4417 54.2323C59.3949 54.3753 59.2693 54.4928 59.0972 54.556C58.9259 54.6189 58.7125 54.6261 58.4981 54.5517C58.3078 54.4776 58.182 54.415 58.1013 54.3575C58.021 54.3004 57.9905 54.2522 57.981 54.2076C57.971 54.1607 57.9815 54.1068 58.0079 54.0322C58.0183 54.0028 58.0304 53.972 58.0437 53.9381C58.0472 53.9293 58.0507 53.9203 58.0543 53.9111C58.0716 53.8668 58.0902 53.8182 58.1076 53.7649C58.1157 53.74 58.1232 53.7161 58.1304 53.693C58.1475 53.6384 58.163 53.5886 58.182 53.5427C58.2085 53.4786 58.2387 53.43 58.281 53.3973C58.3634 53.3335 58.5148 53.3135 58.8481 53.4296C59.0646 53.505 59.2382 53.6354 59.3446 53.7828C59.451 53.9303 59.4879 54.0909 59.4417 54.2323Z" fill="#6B220F" stroke="black" stroke-width="0.1"/>
<path d="M43.639 44.0373L43.9646 43.622L47.661 45.8569L48.0441 46.1734L47.8717 46.7272L43.639 44.0373Z" fill="#F4E4A8" stroke="black" stroke-width="0.1"/>
<path d="M47.45 46.8455L43.6579 44.4721L43.6387 44.0568L43.6579 44.0493L47.45 46.4697V46.8455Z" fill="#D1A83E" stroke="black" stroke-width="0.1"/>
<path d="M47.8714 46.2327L45.8221 45.8371L57.1986 53.0167L57.6199 52.4431L47.6416 45.8371L47.8714 46.2327Z" fill="#2A1E0E" stroke="black" stroke-width="0.1"/>
<path d="M58.4882 53.9671L58.4882 53.9671L58.4868 53.9683C58.3546 54.086 58.233 54.1335 58.125 54.1412C58.0166 54.149 57.9163 54.117 57.8265 54.066C57.6804 53.983 57.5716 53.8567 57.5059 53.7804C57.4908 53.763 57.4781 53.7481 57.4676 53.737C57.243 53.3976 57.2079 53.1943 57.2311 53.0572C57.2428 52.9879 57.27 52.9316 57.3015 52.879C57.3131 52.8597 57.3249 52.8416 57.3368 52.8232C57.3414 52.816 57.3461 52.8089 57.3508 52.8015C57.3668 52.7765 57.3829 52.7504 57.3961 52.7233C57.4509 52.6247 57.5071 52.5646 57.5644 52.533C57.6204 52.502 57.6825 52.4954 57.7561 52.5139C57.8313 52.5327 57.9175 52.5776 58.0175 52.6492C58.1166 52.7201 58.2266 52.8153 58.3496 52.9325C58.487 53.0941 58.5873 53.3025 58.6191 53.497C58.6511 53.6931 58.6126 53.8643 58.4882 53.9671Z" fill="#2A1E0E" stroke="black" stroke-width="0.1"/>
<path d="M40 54.1051V53.5711L51.5297 52.5623L53.1576 52.5821L53.2534 52.9184L40 54.1051Z" fill="#F4E4A8" stroke="black" stroke-width="0.1"/>
<path d="M40.2298 54.56L40 54.1051L52.6979 52.9777L52.7362 53.4128L51.5488 53.6502L40.2298 54.56Z" fill="#D1A83E" stroke="black" stroke-width="0.1"/>
<path d="M57.62 52.246L51.5295 52.5625L51.7785 52.8789L51.6636 53.1558L52.6595 53.2745L51.5295 53.6503L57.7157 52.8789L57.62 52.246Z" fill="#2A1E0E" stroke="black" stroke-width="0.1"/>
<path d="M59.3513 52.5227C59.3513 52.6758 59.2593 52.8203 59.0985 52.9288C58.938 53.037 58.7134 53.1056 58.4629 53.1056C58.2123 53.1056 57.9878 53.037 57.8272 52.9288C57.6664 52.8203 57.5744 52.6758 57.5744 52.5227C57.5744 52.3696 57.6664 52.2251 57.8272 52.1166C57.9878 52.0084 58.2123 51.9398 58.4629 51.9398C58.7134 51.9398 58.938 52.0084 59.0985 52.1166C59.2593 52.2251 59.3513 52.3696 59.3513 52.5227Z" fill="#2A1E0E" stroke="black" stroke-width="0.1"/>
<path d="M59.2749 52.6009C59.1897 52.7416 58.9836 52.4113 58.7884 52.2852C58.5931 52.1591 58.2627 52.2586 58.3479 52.1179C58.4331 51.9772 58.8804 51.9918 59.0757 52.1179C59.2709 52.244 59.3601 52.4603 59.2749 52.6009Z" fill="#8F8E8E"/>
<path d="M58.4244 53.8874C58.3392 54.028 58.1155 54.1419 57.9203 54.0158C57.7251 53.8897 58.186 53.8896 58.2712 53.7489C58.3564 53.6082 58.2292 53.2272 58.4244 53.3533C58.6196 53.4794 58.5096 53.7467 58.4244 53.8874Z" fill="#8F8E8E"/>
<path d="M55.2643 51.237C55.0919 51.0195 54.728 50.881 54.6323 50.6437C54.4371 50.5176 55.0728 50.8415 55.2643 51.0393C55.5899 51.1975 56.1608 51.645 56.356 51.7711C56.5512 51.8971 55.8006 51.5139 55.2643 51.237Z" fill="#8F8E8E"/>
<path d="M57.773 42.2176L57.1601 42L48.1202 56.913L48.6948 57.3481L57.773 42.2176Z" fill="#F4E4A8" stroke="black" stroke-width="0.1"/>
<path d="M48.9439 57.5857L57.8497 42.6331L57.7922 42.2178H57.7731L48.6949 57.3483L48.9439 57.5857Z" fill="#D1A83E" stroke="black" stroke-width="0.1"/>
<path d="M47.4189 58.4119L47.4047 58.3579C47.3473 58.1407 47.3728 57.91 47.4763 57.7106L47.5321 57.603C47.5791 57.5124 47.6372 57.4281 47.7052 57.3521L48.0486 56.9679C48.0578 56.9576 48.0684 56.9486 48.0801 56.9412L48.1066 56.9244C48.1954 56.8679 48.3115 56.9317 48.3115 57.0369C48.3115 57.093 48.3466 57.1431 48.3993 57.1623L48.7967 57.3064C48.9176 57.3503 48.9762 57.4873 48.9243 57.6051L48.7251 58.1591C48.6922 58.2506 48.6436 58.3356 48.5816 58.4103L48.563 58.4327C48.4158 58.61 48.1972 58.7127 47.9667 58.7127H47.8094C47.6589 58.7127 47.5209 58.629 47.4513 58.4955C47.4375 58.469 47.4266 58.4409 47.4189 58.4119Z" fill="#2A1E0E" stroke="black" stroke-width="0.1"/>
<path d="M48.4075 56.4581L48.1202 56.913L48.9246 57.5855L49.1736 57.1899L48.9246 57.2888L48.9629 57.0515L48.714 57.1108V56.9526L48.4458 57.0119L48.5033 56.7746L48.3501 56.913L48.4075 56.4581Z" fill="#2A1E0E" stroke="black" stroke-width="0.1"/>
<path d="M47.9284 57.5853C47.554 57.8819 47.8443 58.0877 47.6161 58.1194C47.3879 58.151 47.5285 58.0465 47.5071 57.882C47.4857 57.7175 47.8398 57.2017 48.068 57.17C48.5605 57.1016 47.907 57.4209 47.9284 57.5853Z" fill="#8F8E8E"/>
<path d="M41.5706 51.9289V51.2168L57.0073 46.7073L57.9457 47.182L41.5706 51.9289Z" fill="#F4E4A8" stroke="black" stroke-width="0.1"/>
<path d="M41.9153 52.2451L41.5706 51.9286L57.3903 47.34L57.4861 47.6565L41.9153 52.2451Z" fill="#D1A83E" stroke="black" stroke-width="0.1"/>
<path d="M60.4511 46.5441L60.4738 46.4837C60.5112 46.3844 60.5178 46.2762 60.4929 46.1731C60.4682 46.0712 60.4068 45.982 60.3205 45.9225L60.314 45.9181C60.2928 45.9035 60.2704 45.8908 60.2471 45.8801L60.2249 45.8699C60.1488 45.835 60.0671 45.8134 59.9836 45.8062L59.961 45.8043C59.9071 45.7996 59.8529 45.8001 59.7991 45.8057L59.7732 45.8083C59.7168 45.8142 59.6609 45.8242 59.6061 45.8384L59.4586 45.8764L59.2671 45.9555L59.1467 46.0034C59.0612 46.0373 58.9791 46.0793 58.9014 46.1286C58.8135 46.1845 58.7199 46.2308 58.6222 46.2669L58.6191 46.268C58.5405 46.297 58.4645 46.3325 58.3919 46.3741L58.2866 46.4346C58.2 46.4843 58.1084 46.5248 58.0134 46.5554C57.9048 46.5905 57.7923 46.6125 57.6785 46.6209L57.3136 46.6478C57.2693 46.6478 57.2403 46.6941 57.2596 46.734L57.4893 47.2084C57.575 47.3854 57.7789 47.4711 57.9652 47.4084L58.4627 47.2411C58.6658 47.1756 58.8778 47.1422 59.0912 47.1422H59.1714L59.5709 47.1117C59.6491 47.1057 59.7265 47.092 59.8019 47.0707L59.8851 47.0473C60.0323 47.0058 60.1659 46.9262 60.2722 46.8163L60.2906 46.7973C60.3609 46.7248 60.4155 46.6386 60.4511 46.5441Z" fill="#2A1E0E" stroke="black" stroke-width="0.1"/>
<path d="M57.8499 47.4389L57.3136 46.6477L56.7773 46.7466H57.1221L57.0263 46.8653H57.3328L57.1987 46.984L57.3328 47.0433L57.0838 47.1422L57.3711 47.2411L57.2178 47.4191L57.4477 47.3202L57.3711 47.4982L57.1987 47.6367L57.3711 47.7158L57.8499 47.4389Z" fill="#2A1E0E" stroke="black" stroke-width="0.1"/>
<path d="M57.0366 47.2734C56.8876 47.1403 56.8141 47.1206 56.5985 47.0973" stroke="#BC7101" stroke-width="0.1"/>
<path d="M56.9695 47.286C56.7716 47.1705 56.5877 47.1147 56.1629 47.0662" stroke="#BC7101" stroke-width="0.1"/>
<path d="M56.7759 47.2864C56.5115 47.1673 56.319 47.1288 55.9089 47.1027" stroke="#BC7101" stroke-width="0.1"/>
<path d="M56.5983 47.3111C56.3245 47.2132 56.1202 47.1907 55.6544 47.2153" stroke="#BC7101" stroke-width="0.1"/>
<path d="M56.318 47.2936C55.87 47.2775 55.6596 47.2747 55.4301 47.2925" stroke="#BC7101" stroke-width="0.1"/>
<path d="M50.8856 51.1817C50.83 50.9866 50.7785 50.9289 50.6094 50.7888" stroke="#BC7101" stroke-width="0.1"/>
<path d="M50.8223 51.1551C50.7164 50.9474 50.591 50.7978 50.2591 50.5196" stroke="#BC7101" stroke-width="0.1"/>
<path d="M50.6592 51.0476C50.4993 50.7997 50.3576 50.6597 50.0264 50.4086" stroke="#BC7101" stroke-width="0.1"/>
<path d="M50.497 50.9683C50.318 50.733 50.158 50.5999 49.7534 50.3603" stroke="#BC7101" stroke-width="0.1"/>
<path d="M50.2708 50.7971C49.9025 50.5333 49.7269 50.4134 49.5246 50.3001" stroke="#BC7101" stroke-width="0.1"/>
<path d="M60.3589 46.2021C60.3468 46.2996 60.3589 46.8456 60.1674 46.5093C60.1674 45.9309 59.5452 46.0714 59.5574 45.9739C59.5695 45.8763 59.7538 45.8205 59.969 45.849C60.1842 45.8776 60.3711 46.1046 60.3589 46.2021Z" fill="#8F8E8E"/>
</svg>
