<svg id="Layer_1" data-name="Layer 1" xmlns="http://www.w3.org/2000/svg" width="3660.56" height="201.13" viewBox="0 0 3660.56 201.13">
  <title>trashpile</title>
  <g>
    <g>
      <path d="M1604.8,76.89c-5,10.71,10.9,21.42,23.77,18.13,11.89-3.3,8.92-14,12.88-23.89a3.37,3.37,0,0,1,2-1c-1.59-4.2-1.8-9,0-14.6a20.16,20.16,0,0,1,5.76-9c-14.26.11-13.19,32.84-41.16,5.14a25.19,25.19,0,0,1,5.68,11.27C1614.7,69.48,1606.78,72.77,1604.8,76.89Z" fill="#0e2909"/>
      <path d="M1600.84,177.4c21.79-14,13.86-33.78,12.87-51.9,0-4.32,6.11-7.25,12.93-9.14-13.25-5-26.73-8.8-42-7.78,6.92,8.59,10.12,18.44,6.26,29.27-2.73,6.37-10,9-18,9.33,3,3.73,4.21,7.8,1.11,12.09-4.95,6.59-28.73-.82-23.78,7.42,5,9,18.4,13.93,21.36,23.59,9.1.3,18.52.65,28.08,1.18C1599.4,186,1598.26,179.54,1600.84,177.4Z" fill="#576239"/>
      <path d="M1758.34,90.07c3.19-1.32,7-1.46,11-1-6-26.95-30.31-11.7-76.75-39.56a27.16,27.16,0,0,0-2.57,5.19c-5,15.65,8.92,28,14.86,41.19a12.47,12.47,0,0,1-1,11.42C1724,109.54,1740.78,98.84,1758.34,90.07Z" fill="#596837"/>
      <path d="M1701.88,131.26c13.87,10.71,39.62,4.12,51.51-9.06,9.13-9.66,22.75-6.73,35.66-2.47-6.67-9.89-15-10.41-19.74-30.71-4-.41-7.78-.27-11,1-17.56,8.77-34.36,19.47-54.51,17.19-2.49,3.94-7.16,6.87-12.74,8.2C1693.54,121.68,1696.53,127.45,1701.88,131.26Z" fill="#373813"/>
      <path d="M1645.41,165c-3-1.65-4-9.06,0-10.71,5-.82,12.88,2.47,15.85,0,5-4.12-1-10.71-2-16.48,0-3.4,2.38-5.48,5.09-7.38l-.13,0c-13.16-3.77-25.29-9.44-37.6-14.08-6.82,1.89-12.93,4.82-12.93,9.14,1,18.12,8.92,37.89-12.87,51.9-2.58,2.14-1.44,8.61-1.09,14.06a487,487,0,0,1,50.78,5.1l1.54.24c.69-9.22,4.67-17.77,6.22-26.82C1659.28,164.22,1649.38,166.69,1645.41,165Z" fill="#373813"/>
      <path d="M1707.82,178.22c2-4.94,11.89-2.47,17.83-2.47,8.92,1.65,20.81,5.77,26.75,0,4.95-5.77-5-13.18-12.88-15.65-17.83-5.77-31.7,4.12-48.54,5.76,4.52-13.51,20.55-20.18,31.61-29.37-7.71.57-15.16-.94-20.71-5.23-5.35-3.81-8.34-9.58-10.79-15.8-.45.11-.9.21-1.36.29,1.27,10.16-10.93,18.18-25.36,14.72-2.71,1.9-5.09,4-5.09,7.38,1,5.77,6.94,12.36,2,16.48-3,2.47-10.89-.82-15.85,0-4,1.65-3,9.06,0,10.71,4,1.65,13.87-.82,12.88,4.94-1.55,9.05-5.53,17.6-6.22,26.82a392.76,392.76,0,0,0,61.45,4.33C1707.87,194.19,1704.83,186.52,1707.82,178.22Z" fill="#423d0b"/>
      <path d="M1789,140.32c-14.85,4.58,9.8-9.77,1.82-21.61-12.91-4.27-28.3-6.17-37.43,3.49-7.13,7.91-19.25,13.44-30.8,14.29-11.06,9.19-27.09,15.86-31.61,29.37,16.84-1.64,30.71-11.53,48.54-5.76a30.36,30.36,0,0,1,9.32,4.87c8.58-9.3,20-18.12,34.27-13.93,17.36,5.19,29.37,16.88,36.7,30.78C1832.29,173.71,1810.13,133.8,1789,140.32Z" fill="#394413"/>
      <path d="M1783.11,151c-14.27-4.19-25.69,4.63-34.27,13.93,4.13,3.23,6.55,7.3,3.56,10.78-5.94,5.77-17.83,1.65-26.75,0-5.94,0-15.85-2.47-17.83,2.47-3,8.3,0,16,5.7,22.91,44.6-.2,87.54-7.13,106.29-19.31C1812.48,167.92,1800.47,156.23,1783.11,151Z" fill="#0e3200"/>
      <path d="M1550.31,166.69c-5-8.24,18.83-.83,23.78-7.42,3.1-4.29,1.88-8.36-1.11-12.09a52.53,52.53,0,0,1-18.7-2.74c-11.89-4.11-29.72-17.29-38.64-9.06-5.94,4.12-10.89,12.36-20.8,9.89a29.73,29.73,0,0,1-7.44-2.81q-2.52,4.22-4.79,8.5c-19.9,37.55,27.37,37.3,89.06,39.32C1568.71,180.62,1555.31,175.69,1550.31,166.69Z" fill="#596837"/>
      <path d="M1704.85,95.84C1698.91,82.66,1685,70.3,1690,54.65a27.16,27.16,0,0,1,2.57-5.19c-31.56,10.86-26.08-3-42-3h-1.34a20.16,20.16,0,0,0-5.76,9c-8.91,28,31.7,34.59,44.58,55.19a13.67,13.67,0,0,1,1.72,5.08C1700.61,113.72,1708.56,105.71,1704.85,95.84Z" fill="#576239"/>
      <path d="M1515.64,135.38c8.92-8.23,26.75,5,38.64,9.06s31.7,4.95,36.65-6.59c7.92-22.24-13.87-40.36-36.65-51.89a15.19,15.19,0,0,1-7-7C1506,95.32,1473,141.32,1487.4,142.46a29.73,29.73,0,0,0,7.44,2.81C1504.75,147.74,1509.7,139.5,1515.64,135.38Z" fill="#423d0b"/>
      <path d="M1688,110.67c-10.29-16.45-38.26-24-44.57-40.59a3.37,3.37,0,0,0-2,1c-4,9.88-1,20.59-12.88,23.89-12.87,3.29-28.72-7.42-23.77-18.13,2-4.12,9.9-7.41,8.91-14A25.19,25.19,0,0,0,1608,51.62c-22.22,5.46-27,26.7-60.74,27.32a15.19,15.19,0,0,0,7,7c11.69,5.91,23.1,13.57,30.39,22.62,29.42-2,52.26,14,79.57,21.86C1681.08,134.56,1694.94,123,1688,110.67Z" fill="#394413"/>
    </g>
    <g>
      <path d="M1969.8,76.89c-5,10.71,10.9,21.42,23.77,18.13,11.89-3.3,8.92-14,12.88-23.89a3.37,3.37,0,0,1,2-1c-1.59-4.2-1.8-9,0-14.6a20.16,20.16,0,0,1,5.76-9c-14.26.11-13.19,32.84-41.16,5.14a25.19,25.19,0,0,1,5.68,11.27C1979.7,69.48,1971.78,72.77,1969.8,76.89Z" fill="#0e2909"/>
      <path d="M1965.84,177.4c21.79-14,13.86-33.78,12.87-51.9,0-4.32,6.11-7.25,12.93-9.14-13.25-5-26.73-8.8-42-7.78,6.92,8.59,10.12,18.44,6.26,29.27-2.73,6.37-10,9-18,9.33,3,3.73,4.21,7.8,1.11,12.09-4.95,6.59-28.73-.82-23.78,7.42,5,9,18.4,13.93,21.36,23.59,9.1.3,18.52.65,28.08,1.18C1964.4,186,1963.26,179.54,1965.84,177.4Z" fill="#576239"/>
      <path d="M2123.34,90.07c3.19-1.32,6.95-1.46,11-1-6-26.95-30.31-11.7-76.75-39.56a27.16,27.16,0,0,0-2.57,5.19c-4.95,15.65,8.92,28,14.86,41.19a12.47,12.47,0,0,1-1,11.42C2089,109.54,2105.78,98.84,2123.34,90.07Z" fill="#596837"/>
      <path d="M2066.88,131.26c13.87,10.71,39.62,4.12,51.51-9.06,9.13-9.66,22.75-6.73,35.66-2.47-6.67-9.89-15.05-10.41-19.74-30.71-4-.41-7.78-.27-11,1-17.56,8.77-34.36,19.47-54.51,17.19-2.49,3.94-7.16,6.87-12.74,8.2C2058.54,121.68,2061.53,127.45,2066.88,131.26Z" fill="#373813"/>
      <path d="M2010.41,165c-3-1.65-4-9.06,0-10.71,5-.82,12.88,2.47,15.85,0,5-4.12-1-10.71-2-16.48,0-3.4,2.38-5.48,5.09-7.38l-.13,0c-13.16-3.77-25.29-9.44-37.6-14.08-6.82,1.89-12.93,4.82-12.93,9.14,1,18.12,8.92,37.89-12.87,51.9-2.58,2.14-1.44,8.61-1.09,14.06a487,487,0,0,1,50.78,5.1l1.54.24c.69-9.22,4.67-17.77,6.22-26.82C2024.28,164.22,2014.38,166.69,2010.41,165Z" fill="#373813"/>
      <path d="M2072.82,178.22c2-4.94,11.89-2.47,17.83-2.47,8.92,1.65,20.81,5.77,26.75,0,4.95-5.77-5-13.18-12.88-15.65-17.83-5.77-31.7,4.12-48.54,5.76,4.52-13.51,20.55-20.18,31.61-29.37-7.71.57-15.16-.94-20.71-5.23-5.35-3.81-8.34-9.58-10.79-15.8-.45.11-.9.21-1.36.29,1.27,10.16-10.93,18.18-25.36,14.72-2.71,1.9-5.09,4-5.09,7.38,1,5.77,6.94,12.36,2,16.48-3,2.47-10.89-.82-15.85,0-4,1.65-3,9.06,0,10.71,4,1.65,13.87-.82,12.88,4.94-1.55,9.05-5.53,17.6-6.22,26.82a392.76,392.76,0,0,0,61.45,4.33C2072.87,194.19,2069.83,186.52,2072.82,178.22Z" fill="#423d0b"/>
      <path d="M2154,140.32c-14.85,4.58,9.8-9.77,1.82-21.61-12.91-4.27-28.3-6.17-37.43,3.49-7.13,7.91-19.25,13.44-30.8,14.29-11.06,9.19-27.09,15.86-31.61,29.37,16.84-1.64,30.71-11.53,48.54-5.76a30.36,30.36,0,0,1,9.32,4.87c8.58-9.3,20-18.12,34.27-13.93,17.36,5.19,29.37,16.88,36.7,30.78C2197.29,173.71,2175.13,133.8,2154,140.32Z" fill="#394413"/>
      <path d="M2148.11,151c-14.27-4.19-25.69,4.63-34.27,13.93,4.13,3.23,6.55,7.3,3.56,10.78-5.94,5.77-17.83,1.65-26.75,0-5.94,0-15.85-2.47-17.83,2.47-3,8.3,0,16,5.7,22.91,44.6-.2,87.54-7.13,106.29-19.31C2177.48,167.92,2165.47,156.23,2148.11,151Z" fill="#0e3200"/>
      <path d="M1915.31,166.69c-5-8.24,18.83-.83,23.78-7.42,3.1-4.29,1.88-8.36-1.11-12.09a52.53,52.53,0,0,1-18.7-2.74c-11.89-4.11-29.72-17.29-38.64-9.06-5.94,4.12-10.89,12.36-20.8,9.89a29.73,29.73,0,0,1-7.44-2.81q-2.52,4.22-4.79,8.5c-19.9,37.55,27.37,37.3,89.06,39.32C1933.71,180.62,1920.31,175.69,1915.31,166.69Z" fill="#596837"/>
      <path d="M2069.85,95.84C2063.91,82.66,2050,70.3,2055,54.65a27.16,27.16,0,0,1,2.57-5.19c-31.56,10.86-26.08-3-42-3h-1.34a20.16,20.16,0,0,0-5.76,9c-8.91,28,31.7,34.59,44.58,55.19a13.67,13.67,0,0,1,1.72,5.08C2065.61,113.72,2073.56,105.71,2069.85,95.84Z" fill="#576239"/>
      <path d="M1880.64,135.38c8.92-8.23,26.75,5,38.64,9.06s31.7,4.95,36.65-6.59c7.92-22.24-13.87-40.36-36.65-51.89a15.19,15.19,0,0,1-7-7C1871,95.32,1838,141.32,1852.4,142.46a29.73,29.73,0,0,0,7.44,2.81C1869.75,147.74,1874.7,139.5,1880.64,135.38Z" fill="#423d0b"/>
      <path d="M2053,110.67c-10.29-16.45-38.26-24-44.57-40.59a3.37,3.37,0,0,0-2,1c-4,9.88-1,20.59-12.88,23.89-12.87,3.29-28.72-7.42-23.77-18.13,2-4.12,9.9-7.41,8.91-14A25.19,25.19,0,0,0,1973,51.62c-22.22,5.46-27,26.7-60.74,27.32a15.19,15.19,0,0,0,7,7c11.69,5.91,23.1,13.57,30.39,22.62,29.42-2,52.26,14,79.57,21.86C2046.08,134.56,2059.94,123,2053,110.67Z" fill="#394413"/>
    </g>
    <g>
      <path d="M862.8,76.89C857.85,87.6,873.7,98.31,886.57,95c11.89-3.3,8.92-14,12.88-23.89a3.37,3.37,0,0,1,2-1c-1.59-4.2-1.8-9,0-14.6a20.16,20.16,0,0,1,5.76-9C892.93,46.59,892.52,25,866,51.62a25.19,25.19,0,0,1,5.68,11.27C872.7,69.48,864.78,72.77,862.8,76.89Z" fill="#666"/>
      <path d="M858.84,177.4c21.79-14,13.86-33.78,12.87-51.9,0-4.32,6.11-7.25,12.93-9.14-13.25-5-26.73-8.8-42-7.78,6.92,8.59,10.12,18.44,6.26,29.27-2.73,6.37-10,9-17.95,9.33,3,3.73,4.21,7.8,1.11,12.09-5,6.59-28.73-.82-23.78,7.42,5,9,18.4,13.93,21.36,23.59,9.1.3,18.52.65,28.08,1.18C857.4,186,856.26,179.54,858.84,177.4Z" fill="#736340"/>
      <path d="M1016.34,90.07c3.19-1.32,6.95-1.46,11-1-6-26.95-12.95-40.14-76.75-39.56A27.16,27.16,0,0,0,948,54.65c-5,15.65,8.92,28,14.86,41.19a12.47,12.47,0,0,1-1,11.42C982,109.54,998.78,98.84,1016.34,90.07Z" fill="#596837"/>
      <path d="M959.88,131.26c13.87,10.71,39.62,4.12,51.51-9.06,9.13-9.66,22.75-6.73,35.66-2.47-6.67-9.89,23.78-28.83-19.74-30.71-4-.41-7.78-.27-11,1-17.56,8.77-34.36,19.47-54.51,17.19-2.49,3.94-7.16,6.87-12.74,8.2C951.54,121.68,954.53,127.45,959.88,131.26Z" fill="#373813"/>
      <path d="M903.41,165c-3-1.65-4-9.06,0-10.71,5-.82,12.88,2.47,15.85,0,5-4.12-1-10.71-2-16.48,0-3.4,2.38-5.48,5.09-7.38l-.13,0c-13.16-3.77-25.29-9.44-37.6-14.08-6.82,1.89-12.93,4.82-12.93,9.14,1,18.12,8.92,37.89-12.87,51.9-2.58,2.14-1.44,8.61-1.09,14.06a487,487,0,0,1,50.78,5.1l1.54.24c.69-9.22,4.67-17.77,6.22-26.82C917.28,164.22,907.38,166.69,903.41,165Z" fill="#2e3b72"/>
      <path d="M965.82,178.22c2-4.94,11.89-2.47,17.83-2.47,8.92,1.65,20.81,5.77,26.75,0,5-5.77-4.95-13.18-12.88-15.65-17.83-5.77-31.7,4.12-48.54,5.76,4.52-13.51,20.55-20.18,31.61-29.37-7.71.57-15.16-.94-20.71-5.23-5.35-3.81-8.34-9.58-10.79-15.8-.45.11-.9.21-1.36.29,1.27,10.16-10.93,18.18-25.36,14.72-2.71,1.9-5.09,4-5.09,7.38,1,5.77,6.94,12.36,2,16.48-3,2.47-10.89-.82-15.85,0-4,1.65-3,9.06,0,10.71,4,1.65,13.87-.82,12.88,4.94-1.55,9.05-5.53,17.6-6.22,26.82a392.76,392.76,0,0,0,61.45,4.33C965.87,194.19,962.83,186.52,965.82,178.22Z" fill="#423d0b"/>
      <path d="M1070.83,139.5c-14.86,4.59-14-8.95-22-20.79-12.91-4.27-28.3-6.17-37.43,3.49-7.13,7.91-19.25,13.44-30.8,14.29-11.06,9.19-27.09,15.86-31.61,29.37,16.84-1.64,30.71-11.53,48.54-5.76a30.36,30.36,0,0,1,9.32,4.87c8.58-9.3,20-18.12,34.27-13.93,17.36,5.19,29.37,16.88,36.7,30.78C1090.29,173.71,1092,133,1070.83,139.5Z" fill="#394413"/>
      <path d="M1041.11,151c-14.27-4.19-25.69,4.63-34.27,13.93,4.13,3.23,6.55,7.3,3.56,10.78-5.94,5.77-17.83,1.65-26.75,0-5.94,0-15.85-2.47-17.83,2.47-3,8.3,0,16,5.7,22.91,44.6-.2,87.54-7.13,106.29-19.31C1070.48,167.92,1058.47,156.23,1041.11,151Z" fill="#0e3200"/>
      <path d="M808.31,166.69c-4.95-8.24,18.83-.83,23.78-7.42,3.1-4.29,1.88-8.36-1.11-12.09a52.53,52.53,0,0,1-18.7-2.74c-11.89-4.11-29.72-17.29-38.64-9.06-5.94,4.12-10.89,12.36-20.8,9.89a29.73,29.73,0,0,1-7.44-2.81q-2.52,4.22-4.79,8.5c-19.9,37.55,27.37,37.3,89.06,39.32C826.71,180.62,813.31,175.69,808.31,166.69Z" fill="#7fb253"/>
      <path d="M962.85,95.84C956.91,82.66,943,70.3,948,54.65a27.16,27.16,0,0,1,2.57-5.19c-1.58-15.4-26.08-3-42-3h-1.34a20.16,20.16,0,0,0-5.76,9c-8.91,28,31.7,34.59,44.58,55.19a13.67,13.67,0,0,1,1.72,5.08C958.61,113.72,966.56,105.71,962.85,95.84Z" fill="#576239"/>
      <g>
        <path d="M773.64,135.38c8.92-8.23,26.75,5,38.64,9.06s31.7,4.95,36.65-6.59c7.92-22.24-13.87-40.36-36.65-51.89a15.19,15.19,0,0,1-7-7c-35.61-3.69-45.45,39.34-59.89,63.52a29.73,29.73,0,0,0,7.44,2.81C762.75,147.74,767.7,139.5,773.64,135.38Z" fill="#534741"/>
        <path d="M798.17,74.27,765.26,74a6.12,6.12,0,0,0-6,6L756,133.12a6,6,0,0,0,6,6,6.14,6.14,0,0,0,6-6L771.26,80l-6,6,32.91.32a6,6,0,0,0,0-12Z" fill="#534741"/>
        <path d="M783.76,80.19c-5.4-3.24-12.63-.94-16,4.1a13.19,13.19,0,0,0-1.88,8.59c.3,2.78,1.15,5.42,1.53,8.17l-.21-1.59a11.9,11.9,0,0,1,0,2.6l.22-1.59c-.05.33-.11.64-.18,1-.7,3,.94,6.64,4.19,7.38,3.06.7,6.63-.92,7.38-4.19a18.51,18.51,0,0,0-.05-7.91c-.33-1.72-.84-3.4-1.1-5.14l.22,1.6a12,12,0,0,1-.06-2.93l-.21,1.59a7.93,7.93,0,0,1,.54-2l-.61,1.44a6.91,6.91,0,0,1,.67-1.15l-.94,1.21a7,7,0,0,1,.94-.94l-1.21.94a7.9,7.9,0,0,1,1.6-1l-1.43.61a7.65,7.65,0,0,1,1.83-.51l-1.6.22a5.86,5.86,0,0,1,1.62,0l-1.59-.22a5.89,5.89,0,0,1,1.09.31l-1.43-.6c.21.09.4.2.6.31a6,6,0,1,0,6-10.36Z" fill="#534741"/>
      </g>
      <path d="M946,110.67c-10.29-16.45-38.26-24-44.57-40.59a3.37,3.37,0,0,0-2,1c-4,9.88-1,20.59-12.88,23.89-12.87,3.29-28.72-7.42-23.77-18.13,2-4.12,9.9-7.41,8.91-14A25.19,25.19,0,0,0,866,51.62c-22.22,5.46-39.88-29.1-60.74,27.32a15.19,15.19,0,0,0,7,7c11.69,5.91,23.1,13.57,30.39,22.62,29.42-2,52.26,14,79.57,21.86C939.08,134.56,952.94,123,946,110.67Z" fill="#736335"/>
    </g>
    <g>
      <path d="M1231.8,76.89c-5,10.71,10.9,21.42,23.77,18.13,11.89-3.3,8.92-14,12.88-23.89a3.37,3.37,0,0,1,2-1c-1.59-4.2-1.8-9,0-14.6a20.16,20.16,0,0,1,5.76-9c-14.26.11-14.67-21.49-41.16,5.14a25.19,25.19,0,0,1,5.68,11.27C1241.7,69.48,1233.78,72.77,1231.8,76.89Z" fill="#666"/>
      <path d="M1227.84,177.4c21.79-14,13.86-33.78,12.87-51.9,0-4.32,6.11-7.25,12.93-9.14-13.25-5-26.73-8.8-42-7.78,6.92,8.59,10.12,18.44,6.26,29.27-2.73,6.37-10,9-18,9.33,3,3.73,4.21,7.8,1.11,12.09-4.95,6.59-28.73-.82-23.78,7.42,5,9,18.4,13.93,21.36,23.59,9.1.3,18.52.65,28.08,1.18C1226.4,186,1225.26,179.54,1227.84,177.4Z" fill="#736340"/>
      <path d="M1385.34,90.07c3.19-1.32,7-1.46,11-1-6-26.95-13-40.14-76.75-39.56a27.16,27.16,0,0,0-2.57,5.19c-5,15.65,8.92,28,14.86,41.19a12.47,12.47,0,0,1-1,11.42C1351,109.54,1367.78,98.84,1385.34,90.07Z" fill="#596837"/>
      <path d="M1328.88,131.26c13.87,10.71,39.62,4.12,51.51-9.06,9.13-9.66,22.75-6.73,35.66-2.47-6.67-9.89,23.78-28.83-19.74-30.71-4-.41-7.78-.27-11,1-17.56,8.77-34.36,19.47-54.51,17.19-2.49,3.94-7.16,6.87-12.74,8.2C1320.54,121.68,1323.53,127.45,1328.88,131.26Z" fill="#373813"/>
      <path d="M1272.41,165c-3-1.65-4-9.06,0-10.71,5-.82,12.88,2.47,15.85,0,5-4.12-1-10.71-2-16.48,0-3.4,2.38-5.48,5.09-7.38l-.13,0c-13.16-3.77-25.29-9.44-37.6-14.08-6.82,1.89-12.93,4.82-12.93,9.14,1,18.12,8.92,37.89-12.87,51.9-2.58,2.14-1.44,8.61-1.09,14.06a487,487,0,0,1,50.78,5.1l1.54.24c.69-9.22,4.67-17.77,6.22-26.82C1286.28,164.22,1276.38,166.69,1272.41,165Z" fill="#2e3b72"/>
      <path d="M1334.82,178.22c2-4.94,11.89-2.47,17.83-2.47,8.92,1.65,20.81,5.77,26.75,0,4.95-5.77-5-13.18-12.88-15.65-17.83-5.77-31.7,4.12-48.54,5.76,4.52-13.51,20.55-20.18,31.61-29.37-7.71.57-15.16-.94-20.71-5.23-5.35-3.81-8.34-9.58-10.79-15.8-.45.11-.9.21-1.36.29,1.27,10.16-10.93,18.18-25.36,14.72-2.71,1.9-5.09,4-5.09,7.38,1,5.77,6.94,12.36,2,16.48-3,2.47-10.89-.82-15.85,0-4,1.65-3,9.06,0,10.71,4,1.65,13.87-.82,12.88,4.94-1.55,9.05-5.53,17.6-6.22,26.82a392.76,392.76,0,0,0,61.45,4.33C1334.87,194.19,1331.83,186.52,1334.82,178.22Z" fill="#423d0b"/>
      <path d="M1439.83,139.5c-14.86,4.59-14-8.95-22-20.79-12.91-4.27-28.3-6.17-37.43,3.49-7.13,7.91-19.25,13.44-30.8,14.29-11.06,9.19-27.09,15.86-31.61,29.37,16.84-1.64,30.71-11.53,48.54-5.76a30.36,30.36,0,0,1,9.32,4.87c8.58-9.3,20-18.12,34.27-13.93,17.36,5.19,29.37,16.88,36.7,30.78C1459.29,173.71,1461,133,1439.83,139.5Z" fill="#394413"/>
      <path d="M1410.11,151c-14.27-4.19-25.69,4.63-34.27,13.93,4.13,3.23,6.55,7.3,3.56,10.78-5.94,5.77-17.83,1.65-26.75,0-5.94,0-15.85-2.47-17.83,2.47-3,8.3,0,16,5.7,22.91,44.6-.2,87.54-7.13,106.29-19.31C1439.48,167.92,1427.47,156.23,1410.11,151Z" fill="#0e3200"/>
      <path d="M1177.31,166.69c-5-8.24,18.83-.83,23.78-7.42,3.1-4.29,1.88-8.36-1.11-12.09a52.53,52.53,0,0,1-18.7-2.74c-11.89-4.11-29.72-17.29-38.64-9.06-5.94,4.12-10.89,12.36-20.8,9.89a29.73,29.73,0,0,1-7.44-2.81q-2.52,4.22-4.79,8.5c-19.9,37.55,27.37,37.3,89.06,39.32C1195.71,180.62,1182.31,175.69,1177.31,166.69Z" fill="#7fb253"/>
      <path d="M1331.85,95.84C1325.91,82.66,1312,70.3,1317,54.65a27.16,27.16,0,0,1,2.57-5.19c-1.58-15.4-26.08-3-42-3h-1.34a20.16,20.16,0,0,0-5.76,9c-8.91,28,31.7,34.59,44.58,55.19a13.67,13.67,0,0,1,1.72,5.08C1327.61,113.72,1335.56,105.71,1331.85,95.84Z" fill="#576239"/>
      <g>
        <path d="M1142.64,135.38c8.92-8.23,26.75,5,38.64,9.06s31.7,4.95,36.65-6.59c7.92-22.24-13.87-40.36-36.65-51.89a15.19,15.19,0,0,1-7-7c-35.61-3.69-45.45,39.34-59.89,63.52a29.73,29.73,0,0,0,7.44,2.81C1131.75,147.74,1136.7,139.5,1142.64,135.38Z" fill="#534741"/>
        <path d="M1167.17,74.27,1134.26,74a6.12,6.12,0,0,0-6,6L1125,133.12a6,6,0,0,0,6,6,6.14,6.14,0,0,0,6-6L1140.26,80l-6,6,32.91.32a6,6,0,0,0,0-12Z" fill="#534741"/>
        <path d="M1152.76,80.19c-5.4-3.24-12.63-.94-16,4.1a13.19,13.19,0,0,0-1.88,8.59c.3,2.78,1.15,5.42,1.53,8.17l-.21-1.59a11.9,11.9,0,0,1,0,2.6l.22-1.59c0,.33-.11.64-.18,1-.7,3,.94,6.64,4.19,7.38,3.06.7,6.63-.92,7.38-4.19a18.51,18.51,0,0,0,0-7.91c-.33-1.72-.84-3.4-1.1-5.14l.22,1.6a12,12,0,0,1-.06-2.93l-.21,1.59a7.93,7.93,0,0,1,.54-2l-.61,1.44a6.91,6.91,0,0,1,.67-1.15l-.94,1.21a7,7,0,0,1,.94-.94l-1.21.94a7.9,7.9,0,0,1,1.6-1l-1.43.61a7.65,7.65,0,0,1,1.83-.51l-1.6.22a5.86,5.86,0,0,1,1.62,0l-1.59-.22a5.89,5.89,0,0,1,1.09.31l-1.43-.6c.21.09.4.2.6.31a6,6,0,1,0,6-10.36Z" fill="#534741"/>
      </g>
      <path d="M1315,110.67c-10.29-16.45-38.26-24-44.57-40.59a3.37,3.37,0,0,0-2,1c-4,9.88-1,20.59-12.88,23.89-12.87,3.29-28.72-7.42-23.77-18.13,2-4.12,9.9-7.41,8.91-14A25.19,25.19,0,0,0,1235,51.62c-22.22,5.46-39.88-29.1-60.74,27.32a15.19,15.19,0,0,0,7,7c11.69,5.91,23.1,13.57,30.39,22.62,29.42-2,52.26,14,79.57,21.86C1308.08,134.56,1321.94,123,1315,110.67Z" fill="#736335"/>
    </g>
    <g>
      <path d="M128,50.32c-5,13,11,26,24,22,12-4,9-17,13-29A3.31,3.31,0,0,1,167,42c-1.61-5.09-1.82-10.88,0-17.72a25.19,25.19,0,0,1,5.82-10.91c-14.4.12-14.82-26.09-41.55,6.23A33.53,33.53,0,0,1,137,33.32C138,41.32,130,45.32,128,50.32Z" fill="#666"/>
      <path d="M212,91.32c-10.38-20-38.62-29.09-45-49.28a3.31,3.31,0,0,0-2,1.28c-4,12-1,25-13,29-13,4-29-9-24-22,2-5,10-9,9-17a33.53,33.53,0,0,0-5.73-13.68C108.83,26.27,91-15.68,70,52.81a17.23,17.23,0,0,0,7,8.51c11.8,7.18,23.32,16.47,30.68,27.46,29.7-2.39,52.75,17,80.32,26.54C205,120.32,219,106.32,212,91.32Z" fill="#736357"/>
      <path d="M124,172.32c22-17,14-41,13-63,0-5.24,6.17-8.8,13-11.1-13.37-6.06-27-10.68-42.36-9.44,7,10.43,10.22,22.39,6.32,35.54-2.76,7.73-10.09,10.88-18.12,11.32,3,4.52,4.25,9.47,1.12,14.68-5,8-29-1-24,9,5,10.93,18.56,16.91,21.56,28.64,9.19.36,18.7.79,28.35,1.43C122.55,182.78,121.4,174.92,124,172.32Z" fill="#736357"/>
      <path d="M283,66.32c3.22-1.61,7-1.77,11.07-1.28C288,32.32,281,16.32,216.59,17A36.54,36.54,0,0,0,214,23.32c-5,19,9,34,15,50a17.78,17.78,0,0,1-1,13.86C248.31,90,265.27,77,283,66.32Z" fill="#006837"/>
      <path d="M226,116.32c14,13,40,5,52-11,9.22-11.73,23-8.18,36-3-6.73-12,24-35-19.93-37.28-4.06-.49-7.85-.33-11.07,1.28C265.27,77,248.31,90,228,87.18a20.82,20.82,0,0,1-12.86,10C217.58,104.69,220.6,111.69,226,116.32Z" fill="#603813"/>
      <path d="M169,157.32c-3-2-4-11,0-13,5-1,13,3,16,0,5-5-1-13-2-20,0-4.13,2.4-6.66,5.13-9l-.13,0c-13.28-4.58-25.52-11.46-38-17.1-6.87,2.3-13,5.86-13,11.1,1,22,9,46-13,63-2.6,2.6-1.45,10.46-1.09,17.07a410.38,410.38,0,0,1,51.25,6.19l1.56.3c.69-11.2,4.71-21.58,6.28-32.56C183,156.32,173,159.32,169,157.32Z" fill="#2e3192"/>
      <path d="M232,173.32c2-6,12-3,18-3,9,2,21,7,27,0,5-7-5-16-13-19-18-7-32,5-49,7,4.56-16.41,20.74-24.51,31.9-35.66-7.78.69-15.3-1.14-20.9-6.34-5.4-4.63-8.42-11.63-10.89-19.18-.45.13-.91.25-1.37.35,1.28,12.33-11,22.07-25.61,17.87-2.73,2.3-5.13,4.83-5.13,9,1,7,7,15,2,20-3,3-11-1-16,0-4,2-3,11,0,13,4,2,14-1,13,6-1.57,11-5.59,21.36-6.28,32.56a332.52,332.52,0,0,0,62,5.25C232.05,192.7,229,183.39,232,173.32Z" fill="#42210b"/>
      <path d="M338,126.32c-15,5.56-14.16-10.87-22.22-25.24-13-5.18-28.56-7.49-37.78,4.24a45.57,45.57,0,0,1-31.1,17.34c-11.16,11.15-27.34,19.25-31.9,35.66,17-2,31-14,49-7a29.41,29.41,0,0,1,9.41,5.91c8.66-11.29,20.19-22,34.59-16.91,17.53,6.31,29.64,20.49,37.05,37.37C357.64,167.84,359.33,118.41,338,126.32Z" fill="#006837"/>
      <path d="M308,140.32c-14.4-5.08-25.93,5.62-34.59,16.91,4.16,3.93,6.6,8.87,3.59,13.09-6,7-18,2-27,0-6,0-16-3-18,3-3,10.07.05,19.38,5.75,27.81,45-.24,88.37-8.66,107.3-23.44C337.64,160.81,325.53,146.63,308,140.32Z" fill="#0e3200"/>
      <path d="M73,159.32c-5-10,19-1,24-9,3.13-5.21,1.9-10.16-1.12-14.68A45.06,45.06,0,0,1,77,132.32c-12-5-30-21-39-11-6,5-11,15-21,12a27.44,27.44,0,0,1-7.51-3.4Q7,135,4.65,140.23C-15.43,185.81,32.28,185.51,94.56,188,91.56,176.23,78,170.25,73,159.32Z" fill="#c7b299"/>
      <path d="M229,73.32c-6-16-20-31-15-50A36.54,36.54,0,0,1,216.59,17c-1.59-18.69-26.32-3.62-42.43-3.62l-1.34,0A25.19,25.19,0,0,0,167,24.32c-9,34,32,42,45,67a19.23,19.23,0,0,1,1.74,6.17C224.72,95,232.74,85.3,229,73.32Z" fill="#8c6239"/>
      <path d="M38,121.32c9-10,27,6,39,11s32,6,37-8c8-27-14-49-37-63a17.23,17.23,0,0,1-7-8.51C34,48.32,24.07,100.56,9.49,129.92a27.44,27.44,0,0,0,7.51,3.4C27,136.32,32,126.32,38,121.32Z" fill="#534741"/>
      <path d="M72,52.1a44.51,44.51,0,0,0-3.93-34.41c-.82-1.44-3.34-.48-2.74,1.16A23.48,23.48,0,0,0,80.71,33.31c1.91.56,2.52-2.17.8-2.89A18,18,0,0,1,70.9,16.27a1.49,1.49,0,0,0-1.45-1.1,2.77,2.77,0,0,0-2.82,2.88,1.51,1.51,0,0,0,1.9,1.44,15.77,15.77,0,0,1,17.73,7.14l2-2.05L70.9,12.48c-1-.71-2.16.27-2.25,1.29l-.31,3.17a1.51,1.51,0,0,0,1.5,1.5,71.46,71.46,0,0,1,16.74,1.89c2.65.63,5.21,1.66,7.85,2.28,2.18.5,4.68.16,5.89-1.95a3.48,3.48,0,0,0-1.53-4.87c-2-1-4.54-.63-6.7-.55l-8.43.34c-2.5.1-5.11.09-7.44,1.14A6.61,6.61,0,0,0,72.11,22a4.91,4.91,0,0,0,3.34,5c1.52.5,2.38-1.45,1.46-2.5l-5.55-6.35-1.82,2.35a23.13,23.13,0,0,0,21.69,2.37c1.17-.47,1.66-2.66,0-2.89l-16.4-2.29a1.52,1.52,0,0,0-1.7,2.2,9.3,9.3,0,0,0,8.33,4.66,1.51,1.51,0,0,0,.76-2.79,7.27,7.27,0,0,0-10.73,8.44,1.53,1.53,0,0,0,1.85,1.05,9.43,9.43,0,0,0,6.32-8.67,1.52,1.52,0,0,0-2.8-.76l-3.54,5.47a1.51,1.51,0,0,0,2.36,1.82l3.83-4.09L77,23.6l-1.37,5a1.51,1.51,0,0,0,2.51,1.46l5.24-4.86L81,23.43a48,48,0,0,0-8.27,17.08l3,.39-.46-9.66-1.5,1.5a1.24,1.24,0,0,1,1.56,1.08c.36,1.89,3.25,1.09,2.89-.8a4.13,4.13,0,0,0-4.45-3.28,1.54,1.54,0,0,0-1.5,1.5l.46,9.66a1.5,1.5,0,0,0,2.94.4,45.7,45.7,0,0,1,8-16.35c1.07-1.41-1.16-2.93-2.35-1.82L76,28l2.5,1.46,1.37-5.06a1.51,1.51,0,0,0-2.51-1.46L73.56,27l2.35,1.82,3.54-5.47-2.79-.76a6.32,6.32,0,0,1-4.12,5.77l1.84,1.05a4.32,4.32,0,0,1,6.33-5.05l.75-2.8a6.27,6.27,0,0,1-5.74-3.17L74,20.62l16.41,2.29V20A20.4,20.4,0,0,1,71.06,18c-1.48-1-2.88,1.14-1.82,2.36l5.54,6.35,1.46-2.51c-1.2-.39-1.36-2-.83-2.94.8-1.5,2.62-2.12,4.2-2.37a51.82,51.82,0,0,1,6-.34l6.27-.25c1.61-.06,3.5-.41,5.08,0,.4.12,1,.27.85.79-.18.81-1.55.82-2.11.74a50.91,50.91,0,0,1-5.77-1.72q-3-.82-6-1.39a75.34,75.34,0,0,0-14.06-1.26l1.5,1.5.31-3.17-2.26,1.3,17.4,12.1c1.28.89,2.77-.82,2.06-2.05A18.82,18.82,0,0,0,67.73,16.6l1.9,1.45-.18.12L68,17.06a20.91,20.91,0,0,0,12.7,16.25l.8-2.89A20.37,20.37,0,0,1,68.23,18.05L65.49,19.2a41.46,41.46,0,0,1,3.63,32.1c-.55,1.86,2.34,2.65,2.89.8Z" fill="#736357"/>
      <path d="M74.6,16.92h-.52a1.27,1.27,0,0,0-.58.13,1.34,1.34,0,0,0-.79.8,1,1,0,0,0-.13.57l0,.4a1.39,1.39,0,0,0,.39.66l.3.24a1.54,1.54,0,0,0,.76.2h.52a1.06,1.06,0,0,0,.58-.13,1.14,1.14,0,0,0,.48-.31A1,1,0,0,0,76,19a1.15,1.15,0,0,0,.13-.58l0-.4a1.59,1.59,0,0,0-.39-.66l-.3-.23a1.48,1.48,0,0,0-.76-.21Z" fill="#736357"/>
      <path d="M67.58,17.8,71,14.93a1.5,1.5,0,0,0,.44-1.06,1.57,1.57,0,0,0-.32-.91,1.51,1.51,0,0,0-1.94-.38A13.21,13.21,0,0,0,64.92,16a1.5,1.5,0,0,0,0,2.12l.69.78a1.46,1.46,0,0,0,1.06.44,1.5,1.5,0,0,0,.91-.32,1.44,1.44,0,0,0,.54-.78l0-.4A1.42,1.42,0,0,0,68,17.1l-.59-1.35-.53,2.06,3-2.09a1.59,1.59,0,0,0,.69-.9,1.53,1.53,0,0,0-.15-1.15,1.49,1.49,0,0,0-.9-.69,1.45,1.45,0,0,0-1.15.15l-3,2.09a1.57,1.57,0,0,0-.69.89l0,.4a1.57,1.57,0,0,0,.2.76l.59,1.34,2.36-1.82L67,16v2.12a12,12,0,0,1,2-2l-.3.23a11.37,11.37,0,0,1,1.91-1.2l-1.82-2.36-3.41,2.87A1.5,1.5,0,0,0,65,16.74a1.54,1.54,0,0,0,.44,1.06,1.52,1.52,0,0,0,1.06.44,1.66,1.66,0,0,0,1.06-.44Z" fill="#736357"/>
      <path d="M62.76,48.41,29.53,48a6.13,6.13,0,0,0-6,6l-2.59,50.15-.75,14.4a6,6,0,0,0,6,6,6.12,6.12,0,0,0,6-6l2.6-50.15L35.53,54l-6,6,33.23.39a6,6,0,1,0,0-12Z" fill="#534741"/>
      <path d="M48.19,55.43c-5.33-3.81-13.33-.68-16.22,4.73a16.78,16.78,0,0,0-1.8,9.21c.25,3.09,1,6.08,1.48,9.14l-.22-1.59a17.12,17.12,0,0,1,.1,4.35l.21-1.6c0,.26-.08.53-.13.79a6.46,6.46,0,0,0,.6,4.62,6.17,6.17,0,0,0,3.59,2.76c3,.67,6.75-.9,7.38-4.19a24.39,24.39,0,0,0,0-8.73c-.32-2-.82-4-1.09-6.07l.21,1.6a17.43,17.43,0,0,1-.05-4.27L42,67.77a10.62,10.62,0,0,1,.29-1.36l.1-.34c.21-.59.14-.44-.22.46.15-.23.3-.54.43-.79.48-.87-1.11,1.06-.15.25a2.76,2.76,0,0,1,.3-.29c.46-.39.27-.26-.56.41a5.16,5.16,0,0,0,.71-.43c.89-.56-1.37.42-.42.17a9.22,9.22,0,0,1,1-.24l-1.59.21a5.65,5.65,0,0,1,1.3,0l-1.59-.22c.29.05,1.34.43.28,0s0,0,.2.21a6,6,0,0,0,8.21-2.15c1.64-3.1.58-6.25-2.15-8.21Z" fill="#534741"/>
      <path d="M100.24,12.62l-29.58-.88a1.51,1.51,0,0,0-.75,2.8c3.77,2.2,8.12,2.69,12.4,3,5,.33,10,.63,15,.94,1.93.12,1.92-2.88,0-3l-14.18-.88C79.12,14.31,75,14,71.42,12l-.76,2.79,29.58.88c1.93.06,1.93-2.94,0-3Z" fill="#736357"/>
      <path d="M100.71,15.72a1.5,1.5,0,0,0,0-3,1.5,1.5,0,0,0,0,3Z" fill="#736357"/>
      <path d="M101.4,16a1.5,1.5,0,0,0,0-3,1.5,1.5,0,0,0,0,3Z" fill="#736357"/>
      <path d="M70.13,15.14a1.5,1.5,0,0,0,0-3,1.5,1.5,0,0,0,0,3Z" fill="#736357"/>
    </g>
    <g>
      <path d="M493,50.32c-5,13,11,26,24,22,12-4,9-17,13-29A3.31,3.31,0,0,1,532,42c-1.61-5.09-1.82-10.88,0-17.72a25.19,25.19,0,0,1,5.82-10.91c-14.4.12-14.82-26.09-41.55,6.23A33.53,33.53,0,0,1,502,33.32C503,41.32,495,45.32,493,50.32Z" fill="#666"/>
      <path d="M577,91.32c-10.38-20-38.62-29.09-45-49.28a3.31,3.31,0,0,0-2,1.28c-4,12-1,25-13,29-13,4-29-9-24-22,2-5,10-9,9-17a33.53,33.53,0,0,0-5.73-13.68C473.83,26.27,456-15.68,435,52.81A17.23,17.23,0,0,0,442,61.32c11.8,7.18,23.32,16.47,30.68,27.46,29.7-2.39,52.75,17,80.32,26.54C570,120.32,584,106.32,577,91.32Z" fill="#736357"/>
      <path d="M489,172.32c22-17,14-41,13-63,0-5.24,6.17-8.8,13-11.1-13.37-6.06-27-10.68-42.36-9.44,7,10.43,10.22,22.39,6.32,35.54-2.76,7.73-10.09,10.88-18.12,11.32,3,4.52,4.25,9.47,1.12,14.68-5,8-29-1-24,9,5,10.93,18.56,16.91,21.56,28.64,9.19.36,18.7.79,28.35,1.43C487.55,182.78,486.4,174.92,489,172.32Z" fill="#736357"/>
      <path d="M648,66.32c3.22-1.61,7-1.77,11.07-1.28C653,32.32,646,16.32,581.59,17A36.54,36.54,0,0,0,579,23.32c-5,19,9,34,15,50a17.78,17.78,0,0,1-1,13.86C613.31,90,630.27,77,648,66.32Z" fill="#006837"/>
      <path d="M591,116.32c14,13,40,5,52-11,9.22-11.73,23-8.18,36-3-6.73-12,24-35-19.93-37.28-4.06-.49-7.85-.33-11.07,1.28C630.27,77,613.31,90,593,87.18a20.82,20.82,0,0,1-12.86,10C582.58,104.69,585.6,111.69,591,116.32Z" fill="#603813"/>
      <path d="M534,157.32c-3-2-4-11,0-13,5-1,13,3,16,0,5-5-1-13-2-20,0-4.13,2.4-6.66,5.13-9l-.13,0c-13.28-4.58-25.52-11.46-38-17.1-6.87,2.3-13,5.86-13,11.1,1,22,9,46-13,63-2.6,2.6-1.45,10.46-1.09,17.07a410.38,410.38,0,0,1,51.25,6.19l1.56.3c.69-11.2,4.71-21.58,6.28-32.56C548,156.32,538,159.32,534,157.32Z" fill="#2e3192"/>
      <path d="M597,173.32c2-6,12-3,18-3,9,2,21,7,27,0,5-7-5-16-13-19-18-7-32,5-49,7,4.56-16.41,20.74-24.51,31.9-35.66-7.78.69-15.3-1.14-20.9-6.34-5.4-4.63-8.42-11.63-10.89-19.18-.45.13-.91.25-1.37.35,1.28,12.33-11,22.07-25.61,17.87-2.73,2.3-5.13,4.83-5.13,9,1,7,7,15,2,20-3,3-11-1-16,0-4,2-3,11,0,13,4,2,14-1,13,6-1.57,11-5.59,21.36-6.28,32.56a332.52,332.52,0,0,0,62,5.25C597.05,192.7,594,183.39,597,173.32Z" fill="#42210b"/>
      <path d="M703,126.32c-15,5.56-14.16-10.87-22.22-25.24-13-5.18-28.56-7.49-37.78,4.24a45.57,45.57,0,0,1-31.1,17.34c-11.16,11.15-27.34,19.25-31.9,35.66,17-2,31-14,49-7a29.41,29.41,0,0,1,9.41,5.91c8.66-11.29,20.19-22,34.59-16.91,17.53,6.31,29.64,20.49,37,37.37C722.64,167.84,724.33,118.41,703,126.32Z" fill="#006837"/>
      <path d="M673,140.32c-14.4-5.08-25.93,5.62-34.59,16.91,4.16,3.93,6.6,8.87,3.59,13.09-6,7-18,2-27,0-6,0-16-3-18,3-3,10.07,0,19.38,5.75,27.81,45-.24,88.37-8.66,107.3-23.44C702.64,160.81,690.53,146.63,673,140.32Z" fill="#0e3200"/>
      <path d="M438,159.32c-5-10,19-1,24-9,3.13-5.21,1.9-10.16-1.12-14.68A45.06,45.06,0,0,1,442,132.32c-12-5-30-21-39-11-6,5-11,15-21,12a27.44,27.44,0,0,1-7.51-3.4Q372,135,369.65,140.23c-20.08,45.58,27.63,45.28,89.91,47.73C456.56,176.23,443,170.25,438,159.32Z" fill="#c7b299"/>
      <path d="M594,73.32c-6-16-20-31-15-50A36.54,36.54,0,0,1,581.59,17c-1.59-18.69-26.32-3.62-42.43-3.62l-1.34,0A25.19,25.19,0,0,0,532,24.32c-9,34,32,42,45,67a19.23,19.23,0,0,1,1.74,6.17C589.72,95,597.74,85.3,594,73.32Z" fill="#8c6239"/>
      <path d="M403,121.32c9-10,27,6,39,11s32,6,37-8c8-27-14-49-37-63A17.23,17.23,0,0,1,435,52.81c-35.95-4.49-45.88,47.75-60.46,77.11a27.44,27.44,0,0,0,7.51,3.4C392,136.32,397,126.32,403,121.32Z" fill="#534741"/>
      <path d="M437,52.1a44.51,44.51,0,0,0-3.93-34.41c-.82-1.44-3.34-.48-2.74,1.16a23.48,23.48,0,0,0,15.37,14.46c1.91.56,2.52-2.17.8-2.89A18,18,0,0,1,435.9,16.27a1.49,1.49,0,0,0-1.45-1.1,2.77,2.77,0,0,0-2.82,2.88,1.51,1.51,0,0,0,1.9,1.44,15.77,15.77,0,0,1,17.73,7.14l2.05-2.05L435.9,12.48c-1-.71-2.16.27-2.25,1.29l-.31,3.17a1.51,1.51,0,0,0,1.5,1.5,71.46,71.46,0,0,1,16.74,1.89c2.65.63,5.21,1.66,7.85,2.28,2.18.5,4.68.16,5.89-1.95a3.48,3.48,0,0,0-1.53-4.87c-2-1-4.54-.63-6.7-.55l-8.43.34c-2.5.1-5.11.09-7.44,1.14a6.61,6.61,0,0,0-4.11,5.3,4.91,4.91,0,0,0,3.34,5c1.52.5,2.38-1.45,1.46-2.5l-5.55-6.35-1.82,2.35a23.13,23.13,0,0,0,21.69,2.37c1.17-.47,1.66-2.66,0-2.89l-16.4-2.29a1.52,1.52,0,0,0-1.7,2.2,9.3,9.3,0,0,0,8.33,4.66,1.51,1.51,0,0,0,.76-2.79,7.27,7.27,0,0,0-10.73,8.44,1.53,1.53,0,0,0,1.85,1.05,9.43,9.43,0,0,0,6.32-8.67,1.52,1.52,0,0,0-2.8-.76l-3.54,5.47a1.51,1.51,0,0,0,2.36,1.82l3.83-4.09L442,23.6l-1.37,5a1.51,1.51,0,0,0,2.51,1.46l5.24-4.86L446,23.43a48,48,0,0,0-8.27,17.08l2.95.39-.46-9.66-1.5,1.5a1.24,1.24,0,0,1,1.56,1.08c.36,1.89,3.25,1.09,2.89-.8a4.13,4.13,0,0,0-4.45-3.28,1.54,1.54,0,0,0-1.5,1.5l.46,9.66a1.5,1.5,0,0,0,2.94.4,45.7,45.7,0,0,1,8-16.35c1.07-1.41-1.16-2.93-2.35-1.82L441,28l2.5,1.46,1.37-5.06a1.51,1.51,0,0,0-2.51-1.46L438.56,27l2.35,1.82,3.54-5.47-2.79-.76a6.32,6.32,0,0,1-4.12,5.77l1.84,1.05a4.32,4.32,0,0,1,6.33-5.05l.75-2.8a6.27,6.27,0,0,1-5.74-3.17L439,20.62l16.41,2.29V20A20.4,20.4,0,0,1,436.06,18c-1.48-1-2.88,1.14-1.82,2.36l5.54,6.35,1.46-2.51c-1.2-.39-1.36-2-.83-2.94.8-1.5,2.62-2.12,4.2-2.37a51.82,51.82,0,0,1,6-.34l6.27-.25c1.61-.06,3.5-.41,5.08,0,.4.12,1,.27.85.79-.18.81-1.55.82-2.11.74a50.91,50.91,0,0,1-5.77-1.72q-3-.82-6-1.39a75.34,75.34,0,0,0-14.06-1.26l1.5,1.5.31-3.17-2.26,1.3,17.4,12.1c1.28.89,2.77-.82,2.06-2.05a18.82,18.82,0,0,0-21.12-8.52l1.9,1.45-.18.12L433,17.06a20.91,20.91,0,0,0,12.7,16.25l.8-2.89a20.37,20.37,0,0,1-13.28-12.37l-2.74,1.15a41.46,41.46,0,0,1,3.63,32.1c-.55,1.86,2.34,2.65,2.89.8Z" fill="#736357"/>
      <path d="M439.6,16.92h-.52a1.27,1.27,0,0,0-.58.13,1.34,1.34,0,0,0-.79.8,1,1,0,0,0-.13.57l.05.4a1.39,1.39,0,0,0,.39.66l.3.24a1.54,1.54,0,0,0,.76.2h.52a1.06,1.06,0,0,0,.58-.13,1.14,1.14,0,0,0,.48-.31A1,1,0,0,0,441,19a1.15,1.15,0,0,0,.13-.58l-.05-.4a1.59,1.59,0,0,0-.39-.66l-.3-.23a1.48,1.48,0,0,0-.76-.21Z" fill="#736357"/>
      <path d="M432.58,17.8,436,14.93a1.5,1.5,0,0,0,.44-1.06,1.57,1.57,0,0,0-.32-.91,1.51,1.51,0,0,0-1.94-.38A13.21,13.21,0,0,0,429.92,16a1.5,1.5,0,0,0,0,2.12l.69.78a1.46,1.46,0,0,0,1.06.44,1.5,1.5,0,0,0,.91-.32,1.44,1.44,0,0,0,.54-.78l.05-.4a1.42,1.42,0,0,0-.21-.75l-.59-1.35-.53,2.06,3-2.09a1.59,1.59,0,0,0,.69-.9,1.53,1.53,0,0,0-.15-1.15,1.49,1.49,0,0,0-.9-.69,1.45,1.45,0,0,0-1.15.15l-3,2.09a1.57,1.57,0,0,0-.69.89l-.05.4a1.57,1.57,0,0,0,.2.76l.59,1.34,2.36-1.82L432,16v2.12a12,12,0,0,1,2-2l-.3.23a11.37,11.37,0,0,1,1.91-1.2l-1.82-2.36-3.41,2.87a1.5,1.5,0,0,0-.44,1.06,1.54,1.54,0,0,0,.44,1.06,1.52,1.52,0,0,0,1.06.44,1.66,1.66,0,0,0,1.06-.44Z" fill="#736357"/>
      <path d="M427.76,48.41,394.53,48a6.13,6.13,0,0,0-6,6l-2.59,50.15-.75,14.4a6,6,0,0,0,6,6,6.12,6.12,0,0,0,6-6l2.6-50.15.74-14.4-6,6,33.23.39a6,6,0,0,0,0-12Z" fill="#534741"/>
      <path d="M413.19,55.43c-5.33-3.81-13.33-.68-16.22,4.73a16.78,16.78,0,0,0-1.8,9.21c.25,3.09,1,6.08,1.48,9.14l-.22-1.59a17.12,17.12,0,0,1,.1,4.35l.21-1.6c0,.26-.08.53-.13.79a6.46,6.46,0,0,0,.6,4.62,6.17,6.17,0,0,0,3.59,2.76c3,.67,6.75-.9,7.38-4.19a24.39,24.39,0,0,0,0-8.73c-.32-2-.82-4-1.09-6.07l.21,1.6a17.43,17.43,0,0,1,0-4.27L407,67.77a10.62,10.62,0,0,1,.29-1.36l.1-.34c.21-.59.14-.44-.22.46.15-.23.3-.54.43-.79.48-.87-1.11,1.06-.15.25a2.76,2.76,0,0,1,.3-.29c.46-.39.27-.26-.56.41a5.16,5.16,0,0,0,.71-.43c.89-.56-1.37.42-.42.17a9.22,9.22,0,0,1,1-.24l-1.59.21a5.65,5.65,0,0,1,1.3,0l-1.59-.22c.29.05,1.34.43.28,0s0,0,.2.21a6,6,0,0,0,8.21-2.15c1.64-3.1.58-6.25-2.15-8.21Z" fill="#534741"/>
      <path d="M465.24,12.62l-29.58-.88a1.51,1.51,0,0,0-.75,2.8c3.77,2.2,8.12,2.69,12.4,3,5,.33,10,.63,15,.94,1.93.12,1.92-2.88,0-3l-14.18-.88c-4-.26-8.16-.55-11.72-2.62l-.76,2.79,29.58.88c1.93.06,1.93-2.94,0-3Z" fill="#736357"/>
      <path d="M465.71,15.72a1.5,1.5,0,0,0,0-3,1.5,1.5,0,0,0,0,3Z" fill="#736357"/>
      <path d="M466.4,16a1.5,1.5,0,0,0,0-3,1.5,1.5,0,0,0,0,3Z" fill="#736357"/>
      <path d="M435.13,15.14a1.5,1.5,0,0,0,0-3,1.5,1.5,0,0,0,0,3Z" fill="#736357"/>
    </g>
    <g>
      <path d="M2334.8,112.92c-5,7.61,10.9,15.21,23.77,12.87,11.89-2.34,8.92-9.94,12.88-17a3.94,3.94,0,0,1,2-.75c-1.59-3-1.8-6.36,0-10.37,1-2.44,3.05-4.52,5.76-6.38-14.26.08-13.19,23.31-41.16,3.65a16.69,16.69,0,0,1,5.68,8C2344.7,107.66,2336.78,110,2334.8,112.92Z" fill="#0e2909"/>
      <path d="M2330.84,184.28c21.79-9.94,13.86-24,12.87-36.85,0-3.07,6.11-5.15,12.93-6.49-13.25-3.55-26.73-6.25-42-5.52,6.92,6.1,10.12,13.09,6.26,20.78-2.73,4.52-10,6.37-17.95,6.62,3,2.65,4.21,5.54,1.11,8.59-5,4.68-28.73-.58-23.78,5.27,5,6.39,18.4,9.89,21.36,16.75,9.1.21,18.52.46,28.08.83C2329.4,190.4,2328.26,185.8,2330.84,184.28Z" fill="#576239"/>
      <path d="M2488.34,122.28a31.55,31.55,0,0,1,11-.75c-6-19.14-30.31-8.31-76.75-28.09a17.92,17.92,0,0,0-2.57,3.69c-4.95,11.11,8.92,19.89,14.86,29.24a6.71,6.71,0,0,1-1,8.11C2454,136.1,2470.78,128.5,2488.34,122.28Z" fill="#596837"/>
      <path d="M2431.88,151.52c13.87,7.61,39.62,2.93,51.51-6.43,9.13-6.86,22.75-4.78,35.66-1.75-6.67-7-15.05-7.4-19.74-21.81a31.55,31.55,0,0,0-11,.75c-17.56,6.22-34.36,13.82-54.51,12.2-2.49,2.8-7.16,4.88-12.74,5.82C2423.54,144.72,2426.53,148.82,2431.88,151.52Z" fill="#373813"/>
      <path d="M2375.41,175.51c-3-1.17-4-6.44,0-7.61,5-.58,12.88,1.76,15.85,0,5-2.92-1-7.6-2-11.7,0-2.41,2.38-3.89,5.09-5.24l-.13,0c-13.16-2.68-25.29-6.7-37.6-10-6.82,1.34-12.93,3.42-12.93,6.49,1,12.87,8.92,26.91-12.87,36.85-2.58,1.52-1.44,6.12-1.09,10,16.79.66,34,1.7,50.78,3.63l1.54.17c.69-6.55,4.67-12.62,6.22-19C2389.28,174.92,2379.38,176.68,2375.41,175.51Z" fill="#373813"/>
      <path d="M2437.82,184.86c2-3.51,11.89-1.75,17.83-1.75,8.92,1.17,20.81,4.09,26.75,0,4.95-4.09-5-9.36-12.88-11.11-17.83-4.1-31.7,2.92-48.54,4.09,4.52-9.6,20.55-14.33,31.61-20.85-7.71.4-15.16-.67-20.71-3.72-5.35-2.7-8.34-6.8-10.79-11.22-.45.08-.9.15-1.36.21,1.27,7.21-10.93,12.91-25.36,10.45-2.71,1.35-5.09,2.83-5.09,5.24,1,4.1,6.94,8.78,2,11.7-3,1.76-10.89-.58-15.85,0-4,1.17-3,6.44,0,7.61,4,1.17,13.87-.59,12.88,3.51-1.55,6.42-5.53,12.49-6.22,19a554.39,554.39,0,0,0,61.45,3.07C2437.87,196.2,2434.83,190.76,2437.82,184.86Z" fill="#423d0b"/>
      <path d="M2519,158c-14.85,3.26,9.8-6.93,1.82-15.34-12.91-3-28.3-4.38-37.43,2.48-7.13,5.61-19.25,9.54-30.8,10.15-11.06,6.52-27.09,11.25-31.61,20.85,16.84-1.17,30.71-8.19,48.54-4.09a35.55,35.55,0,0,1,9.32,3.46c8.58-6.61,20-12.87,34.27-9.9,17.36,3.69,29.37,12,36.7,21.86C2562.29,181.66,2540.13,153.33,2519,158Z" fill="#394413"/>
      <path d="M2513.11,165.56c-14.27-3-25.69,3.29-34.27,9.9,4.13,2.29,6.55,5.18,3.56,7.65-5.94,4.09-17.83,1.17-26.75,0-5.94,0-15.85-1.76-17.83,1.75-3,5.9,0,11.34,5.7,16.27,44.6-.14,87.54-5.06,106.29-13.71C2542.48,177.55,2530.47,169.25,2513.11,165.56Z" fill="#0e3200"/>
      <path d="M2280.31,176.68c-4.95-5.85,18.83-.59,23.78-5.27,3.1-3,1.88-5.94-1.11-8.59a72.5,72.5,0,0,1-18.7-1.94c-11.89-2.92-29.72-12.28-38.64-6.43-5.94,2.92-10.89,8.77-20.8,7a38.4,38.4,0,0,1-7.44-2q-2.52,3-4.79,6c-19.9,26.66,27.37,26.48,89.06,27.92C2298.71,186.57,2285.31,183.07,2280.31,176.68Z" fill="#596837"/>
      <path d="M2434.85,126.37C2428.91,117,2415,108.24,2420,97.13a17.92,17.92,0,0,1,2.57-3.69c-31.56,7.71-26.08-2.12-42-2.12h-1.34c-2.71,1.86-4.8,3.94-5.76,6.38-8.91,19.89,31.7,24.57,44.58,39.19a8,8,0,0,1,1.72,3.61C2430.61,139.07,2438.56,133.38,2434.85,126.37Z" fill="#576239"/>
      <path d="M2245.64,154.45c8.92-5.85,26.75,3.51,38.64,6.43s31.7,3.51,36.65-4.68c7.92-15.79-13.87-28.66-36.65-36.84a13.92,13.92,0,0,1-7-5C2236,126,2203,158.66,2217.4,159.48a38.4,38.4,0,0,0,7.44,2C2234.75,163.22,2239.7,157.37,2245.64,154.45Z" fill="#423d0b"/>
      <path d="M2418,136.9c-10.29-11.68-38.26-17-44.57-28.82a3.94,3.94,0,0,0-2,.75c-4,7-1,14.62-12.88,17-12.87,2.34-28.72-5.26-23.77-12.87,2-2.92,9.9-5.26,8.91-9.94a16.69,16.69,0,0,0-5.68-8c-22.22,3.88-27,19-60.74,19.4a13.92,13.92,0,0,0,7,5c11.69,4.2,23.1,9.63,30.39,16.06,29.42-1.4,52.26,10,79.57,15.52C2411.08,153.86,2424.94,145.68,2418,136.9Z" fill="#394413"/>
      <path d="M2462.05,92.43a44,44,0,0,1-5.15-18.14,46.72,46.72,0,0,1,2.73-18.18c3.56-10.31,9.18-20.82,5.56-31.94-1.54-4.72-4.65-8.77-9.38-10.57-.9-.34-1.29,1.11-.4,1.45,9.61,3.66,10.63,16.16,8.4,24.71-1.53,5.9-4.17,11.43-6.06,17.22a46.84,46.84,0,0,0-2.35,17.31,45.8,45.8,0,0,0,5.36,18.89c.45.85,1.75.1,1.29-.75Z" fill="#0e2909"/>
      <path d="M2473.18,78.48c-5.93-22.71,15.09-43.39,8.08-66.13A23.77,23.77,0,0,0,2473,.15c-.78-.58-1.53.72-.76,1.29,7.68,5.77,9.75,16.22,8.74,25.28-1.31,11.57-6.8,22.11-9.17,33.42-1.29,6.19-1.67,12.58-.06,18.74a.75.75,0,0,0,1.45-.4Z" fill="#0e2909"/>
      <path d="M2441.53,57.67q2.07-6.29,4.12-12.56A82.15,82.15,0,0,0,2449,32.33c1.07-6.93.26-14.15-4.16-19.83a15.7,15.7,0,0,0-8.61-5.74c-.94-.23-1.34,1.22-.4,1.45,6.12,1.49,10.1,7.11,11.52,13,1.84,7.63-.61,15.6-3,22.83-1.44,4.42-2.9,8.83-4.35,13.24-.3.92,1.15,1.32,1.45.4Z" fill="#0e2909"/>
      <path d="M2306.27,96.16c5-3.18,7.43-8.67,8-14.39.69-6.62-1.15-12.91-3.74-18.94-3.06-7.13-7.06-14-8.58-21.68A41.24,41.24,0,0,1,2315.6,2.34c.73-.63-.33-1.68-1.06-1.06A42.82,42.82,0,0,0,2299.82,36c.42,7.27,3.1,13.89,6.16,20.41s6.4,13.1,6.89,20.37c.45,6.74-1.34,14.21-7.35,18.06-.82.52-.06,1.81.75,1.29Z" fill="#0e2909"/>
      <path d="M2325,84.35a54,54,0,0,0-1.09-30.41,66.08,66.08,0,0,0-7-14,18.31,18.31,0,0,1-3-7.58,13.44,13.44,0,0,1,1.27-7.25,13.19,13.19,0,0,1,14.39-7c.94.19,1.34-1.26.4-1.45a14.91,14.91,0,0,0-13.43,3.93,14.82,14.82,0,0,0-3.86,13.44,23.53,23.53,0,0,0,3.44,7.35,69.86,69.86,0,0,1,4.17,7.28A52.37,52.37,0,0,1,2323.56,84a.75.75,0,0,0,1.44.4Z" fill="#0e2909"/>
      <path d="M2295.39,79c4.12-7.1,3.72-15.71,1.64-23.39-2.33-8.66-6.63-16.69-8.36-25.52a29.47,29.47,0,0,1,.66-15.37c.31-.92-1.14-1.31-1.45-.4-6.05,17.52,8.28,33.23,9.15,50.31a24.38,24.38,0,0,1-2.94,13.61.75.75,0,0,0,1.3.76Z" fill="#0e2909"/>
    </g>
    <g>
      <path d="M2700.8,112.92c-5,7.61,10.9,15.21,23.77,12.87,11.89-2.34,8.92-9.94,12.88-17a3.94,3.94,0,0,1,2-.75c-1.59-3-1.8-6.36,0-10.37,1-2.44,3.05-4.52,5.76-6.38-14.26.08-13.19,23.31-41.16,3.65a16.69,16.69,0,0,1,5.68,8C2710.7,107.66,2702.78,110,2700.8,112.92Z" fill="#0e2909"/>
      <path d="M2696.84,184.28c21.79-9.94,13.86-24,12.87-36.85,0-3.07,6.11-5.15,12.93-6.49-13.25-3.55-26.73-6.25-42-5.52,6.92,6.1,10.12,13.09,6.26,20.78-2.73,4.52-10,6.37-17.95,6.62,3,2.65,4.21,5.54,1.11,8.59-5,4.68-28.73-.58-23.78,5.27,5,6.39,18.4,9.89,21.36,16.75,9.1.21,18.52.46,28.08.83C2695.4,190.4,2694.26,185.8,2696.84,184.28Z" fill="#576239"/>
      <path d="M2854.34,122.28a31.55,31.55,0,0,1,11-.75c-6-19.14-30.31-8.31-76.75-28.09a17.92,17.92,0,0,0-2.57,3.69c-4.95,11.11,8.92,19.89,14.86,29.24a6.71,6.71,0,0,1-1,8.11C2820,136.1,2836.78,128.5,2854.34,122.28Z" fill="#596837"/>
      <path d="M2797.88,151.52c13.87,7.61,39.62,2.93,51.51-6.43,9.13-6.86,22.75-4.78,35.66-1.75-6.67-7-15.05-7.4-19.74-21.81a31.55,31.55,0,0,0-11,.75c-17.56,6.22-34.36,13.82-54.51,12.2-2.49,2.8-7.16,4.88-12.74,5.82C2789.54,144.72,2792.53,148.82,2797.88,151.52Z" fill="#373813"/>
      <path d="M2741.41,175.51c-3-1.17-4-6.44,0-7.61,5-.58,12.88,1.76,15.85,0,5-2.92-1-7.6-2-11.7,0-2.41,2.38-3.89,5.09-5.24l-.13,0c-13.16-2.68-25.29-6.7-37.6-10-6.82,1.34-12.93,3.42-12.93,6.49,1,12.87,8.92,26.91-12.87,36.85-2.58,1.52-1.44,6.12-1.09,10,16.79.66,34,1.7,50.78,3.63l1.54.17c.69-6.55,4.67-12.62,6.22-19C2755.28,174.92,2745.38,176.68,2741.41,175.51Z" fill="#373813"/>
      <path d="M2803.82,184.86c2-3.51,11.89-1.75,17.83-1.75,8.92,1.17,20.81,4.09,26.75,0,4.95-4.09-5-9.36-12.88-11.11-17.83-4.1-31.7,2.92-48.54,4.09,4.52-9.6,20.55-14.33,31.61-20.85-7.71.4-15.16-.67-20.71-3.72-5.35-2.7-8.34-6.8-10.79-11.22-.45.08-.9.15-1.36.21,1.27,7.21-10.93,12.91-25.36,10.45-2.71,1.35-5.09,2.83-5.09,5.24,1,4.1,6.94,8.78,2,11.7-3,1.76-10.89-.58-15.85,0-4,1.17-3,6.44,0,7.61,4,1.17,13.87-.59,12.88,3.51-1.55,6.42-5.53,12.49-6.22,19a554.39,554.39,0,0,0,61.45,3.07C2803.87,196.2,2800.83,190.76,2803.82,184.86Z" fill="#423d0b"/>
      <path d="M2885,158c-14.85,3.26,9.8-6.93,1.82-15.34-12.91-3-28.3-4.38-37.43,2.48-7.13,5.61-19.25,9.54-30.8,10.15-11.06,6.52-27.09,11.25-31.61,20.85,16.84-1.17,30.71-8.19,48.54-4.09a35.55,35.55,0,0,1,9.32,3.46c8.58-6.61,20-12.87,34.27-9.9,17.36,3.69,29.37,12,36.7,21.86C2928.29,181.66,2906.13,153.33,2885,158Z" fill="#394413"/>
      <path d="M2879.11,165.56c-14.27-3-25.69,3.29-34.27,9.9,4.13,2.29,6.55,5.18,3.56,7.65-5.94,4.09-17.83,1.17-26.75,0-5.94,0-15.85-1.76-17.83,1.75-3,5.9,0,11.34,5.7,16.27,44.6-.14,87.54-5.06,106.29-13.71C2908.48,177.55,2896.47,169.25,2879.11,165.56Z" fill="#0e3200"/>
      <path d="M2646.31,176.68c-4.95-5.85,18.83-.59,23.78-5.27,3.1-3,1.88-5.94-1.11-8.59a72.5,72.5,0,0,1-18.7-1.94c-11.89-2.92-29.72-12.28-38.64-6.43-5.94,2.92-10.89,8.77-20.8,7a38.4,38.4,0,0,1-7.44-2q-2.52,3-4.79,6c-19.9,26.66,27.37,26.48,89.06,27.92C2664.71,186.57,2651.31,183.07,2646.31,176.68Z" fill="#596837"/>
      <path d="M2800.85,126.37C2794.91,117,2781,108.24,2786,97.13a17.92,17.92,0,0,1,2.57-3.69c-31.56,7.71-26.08-2.12-42-2.12h-1.34c-2.71,1.86-4.8,3.94-5.76,6.38-8.91,19.89,31.7,24.57,44.58,39.19a8,8,0,0,1,1.72,3.61C2796.61,139.07,2804.56,133.38,2800.85,126.37Z" fill="#576239"/>
      <path d="M2611.64,154.45c8.92-5.85,26.75,3.51,38.64,6.43s31.7,3.51,36.65-4.68c7.92-15.79-13.87-28.66-36.65-36.84a13.92,13.92,0,0,1-7-5C2602,126,2569,158.66,2583.4,159.48a38.4,38.4,0,0,0,7.44,2C2600.75,163.22,2605.7,157.37,2611.64,154.45Z" fill="#423d0b"/>
      <path d="M2784,136.9c-10.29-11.68-38.26-17-44.57-28.82a3.94,3.94,0,0,0-2,.75c-4,7-1,14.62-12.88,17-12.87,2.34-28.72-5.26-23.77-12.87,2-2.92,9.9-5.26,8.91-9.94a16.69,16.69,0,0,0-5.68-8c-22.22,3.88-27,19-60.74,19.4a13.92,13.92,0,0,0,7,5c11.69,4.2,23.1,9.63,30.39,16.06,29.42-1.4,52.26,10,79.57,15.52C2777.08,153.86,2790.94,145.68,2784,136.9Z" fill="#394413"/>
      <path d="M2828.05,92.43a44,44,0,0,1-5.15-18.14,46.72,46.72,0,0,1,2.73-18.18c3.56-10.31,9.18-20.82,5.56-31.94-1.54-4.72-4.65-8.77-9.38-10.57-.9-.34-1.29,1.11-.4,1.45,9.61,3.66,10.63,16.16,8.4,24.71-1.53,5.9-4.17,11.43-6.06,17.22a46.84,46.84,0,0,0-2.35,17.31,45.8,45.8,0,0,0,5.36,18.89c.45.85,1.75.1,1.29-.75Z" fill="#0e2909"/>
      <path d="M2839.18,78.48c-5.93-22.71,15.09-43.39,8.08-66.13A23.77,23.77,0,0,0,2839,.15c-.78-.58-1.53.72-.76,1.29,7.68,5.77,9.75,16.22,8.74,25.28-1.31,11.57-6.8,22.11-9.17,33.42-1.29,6.19-1.67,12.58-.06,18.74a.75.75,0,0,0,1.45-.4Z" fill="#0e2909"/>
      <path d="M2807.53,57.67q2.07-6.29,4.12-12.56A82.15,82.15,0,0,0,2815,32.33c1.07-6.93.26-14.15-4.16-19.83a15.7,15.7,0,0,0-8.61-5.74c-.94-.23-1.34,1.22-.4,1.45,6.12,1.49,10.1,7.11,11.52,13,1.84,7.63-.61,15.6-3,22.83-1.44,4.42-2.9,8.83-4.35,13.24-.3.92,1.15,1.32,1.45.4Z" fill="#0e2909"/>
      <path d="M2672.27,96.16c5-3.18,7.43-8.67,8-14.39.69-6.62-1.15-12.91-3.74-18.94-3.06-7.13-7.06-14-8.58-21.68A41.24,41.24,0,0,1,2681.6,2.34c.73-.63-.33-1.68-1.06-1.06A42.82,42.82,0,0,0,2665.82,36c.42,7.27,3.1,13.89,6.16,20.41s6.4,13.1,6.89,20.37c.45,6.74-1.34,14.21-7.35,18.06-.82.52-.06,1.81.75,1.29Z" fill="#0e2909"/>
      <path d="M2691,84.35a54,54,0,0,0-1.09-30.41,66.08,66.08,0,0,0-7-14,18.31,18.31,0,0,1-3-7.58,13.44,13.44,0,0,1,1.27-7.25,13.19,13.19,0,0,1,14.39-7c.94.19,1.34-1.26.4-1.45a14.91,14.91,0,0,0-13.43,3.93,14.82,14.82,0,0,0-3.86,13.44,23.53,23.53,0,0,0,3.44,7.35,69.86,69.86,0,0,1,4.17,7.28A52.37,52.37,0,0,1,2689.56,84a.75.75,0,0,0,1.44.4Z" fill="#0e2909"/>
      <path d="M2661.39,79c4.12-7.1,3.72-15.71,1.64-23.39-2.33-8.66-6.63-16.69-8.36-25.52a29.47,29.47,0,0,1,.66-15.37c.31-.92-1.14-1.31-1.45-.4-6.05,17.52,8.28,33.23,9.15,50.31a24.38,24.38,0,0,1-2.94,13.61.75.75,0,0,0,1.3.76Z" fill="#0e2909"/>
    </g>
    <g>
      <path d="M3431.8,142.64c-5,5,10.9,10.09,23.77,8.53,11.89-1.55,8.92-6.59,12.88-11.24a5.13,5.13,0,0,1,2-.5c-1.59-2-1.8-4.22,0-6.87,1-1.62,3.05-3,5.76-4.23-14.26,0-13.19,15.46-41.16,2.42,2.8,1.53,4.79,3.31,5.68,5.3C3441.7,139.15,3433.78,140.7,3431.8,142.64Z" fill="#0e2909"/>
      <path d="M3427.84,190c21.79-6.6,13.86-15.9,12.87-24.44,0-2,6.11-3.41,12.93-4.3-13.25-2.35-26.73-4.14-42-3.66,6.92,4,10.12,8.68,6.26,13.78-2.73,3-10,4.22-17.95,4.39,3,1.76,4.21,3.67,1.11,5.69-5,3.11-28.73-.38-23.78,3.5,5,4.23,18.4,6.55,21.36,11.1,9.1.14,18.52.31,28.08.56C3426.4,194,3425.26,191,3427.84,190Z" fill="#0e2909"/>
      <path d="M3585.34,148.85a46.93,46.93,0,0,1,11-.5c-6-12.69-30.31-5.51-76.75-18.62a12.94,12.94,0,0,0-2.57,2.44c-4.95,7.37,8.92,13.19,14.86,19.39,1.6,2,1,3.85-1,5.38C3551,158,3567.78,153,3585.34,148.85Z" fill="#0e2909"/>
      <path d="M3528.88,168.24c13.87,5,39.62,1.94,51.51-4.27,9.13-4.55,22.75-3.17,35.66-1.16-6.67-4.66-15.05-4.9-19.74-14.46a46.93,46.93,0,0,0-11,.5c-17.56,4.12-34.36,9.16-54.51,8.09-2.49,1.85-7.16,3.23-12.74,3.86A22.49,22.49,0,0,0,3528.88,168.24Z" fill="#201913"/>
      <path d="M3472.41,184.14c-3-.78-4-4.27,0-5,5-.39,12.88,1.16,15.85,0,5-1.94-1-5-2-7.76,0-1.6,2.38-2.58,5.09-3.48h-.13c-13.16-1.78-25.29-4.44-37.6-6.63-6.82.89-12.93,2.27-12.93,4.3,1,8.54,8.92,17.84-12.87,24.44-2.58,1-1.44,4-1.09,6.62,16.79.43,34,1.12,50.78,2.4l1.54.11c.69-4.34,4.67-8.36,6.22-12.62C3486.28,183.75,3476.38,184.92,3472.41,184.14Z" fill="#372a0b"/>
      <path d="M3534.82,190.34c2-2.32,11.89-1.16,17.83-1.16,8.92.78,20.81,2.72,26.75,0,4.95-2.71-5-6.2-12.88-7.37-17.83-2.71-31.7,1.94-48.54,2.72,4.52-6.37,20.55-9.51,31.61-13.83-7.71.27-15.16-.44-20.71-2.46a22.49,22.49,0,0,1-10.79-7.44l-1.36.14c1.27,4.78-10.93,8.56-25.36,6.92-2.71.9-5.09,1.88-5.09,3.48,1,2.72,6.94,5.82,2,7.76-3,1.16-10.89-.39-15.85,0-4,.77-3,4.26,0,5,4,.78,13.87-.39,12.88,2.33-1.55,4.26-5.53,8.28-6.22,12.62,19.3,1.43,40.55,2.08,61.45,2C3534.87,197.86,3531.83,194.25,3534.82,190.34Z" fill="#23200b"/>
      <path d="M3616,172.5c-14.85,2.16,9.8-4.6,1.82-10.17-12.91-2-28.3-2.91-37.43,1.64-7.13,3.73-19.25,6.33-30.8,6.73-11.06,4.32-27.09,7.46-31.61,13.83,16.84-.78,30.71-5.43,48.54-2.72a48.14,48.14,0,0,1,9.32,2.3c8.58-4.38,20-8.53,34.27-6.56,17.36,2.44,29.37,7.94,36.7,14.49C3659.29,188.22,3637.13,169.43,3616,172.5Z" fill="#1e2a0b"/>
      <path d="M3610.11,177.55c-14.27-2-25.69,2.18-34.27,6.56,4.13,1.52,6.55,3.43,3.56,5.07-5.94,2.72-17.83.78-26.75,0-5.94,0-15.85-1.16-17.83,1.16-3,3.91,0,7.52,5.7,10.79,44.6-.09,87.54-3.36,106.29-9.09C3639.48,185.49,3627.47,180,3610.11,177.55Z" fill="#0e3200"/>
      <path d="M3377.31,184.92c-4.95-3.88,18.83-.39,23.78-3.5,3.1-2,1.88-3.93-1.11-5.69a107.85,107.85,0,0,1-18.7-1.29c-11.89-1.93-29.72-8.14-38.64-4.26-5.94,1.94-10.89,5.82-20.8,4.65a53.86,53.86,0,0,1-7.44-1.32c-1.68,1.32-3.28,2.66-4.79,4-19.9,17.68,27.37,17.56,89.06,18.51C3395.71,191.47,3382.31,189.15,3377.31,184.92Z" fill="#0e2909"/>
      <path d="M3531.85,151.56c-5.94-6.2-19.81-12-14.86-19.39a12.94,12.94,0,0,1,2.57-2.44c-31.56,5.11-26.08-1.41-42-1.41h-1.34c-2.71,1.23-4.8,2.61-5.76,4.23-8.91,13.19,31.7,16.29,44.58,26a4.87,4.87,0,0,1,1.72,2.4C3527.61,160,3535.56,156.21,3531.85,151.56Z" fill="#576239"/>
      <path d="M3342.64,170.18c8.92-3.88,26.75,2.33,38.64,4.26s31.7,2.33,36.65-3.1c7.92-10.47-13.87-19-36.65-24.43a15,15,0,0,1-7-3.3C3333,151.32,3300,173,3314.4,173.51a53.86,53.86,0,0,0,7.44,1.32C3331.75,176,3336.7,172.12,3342.64,170.18Z" fill="#1e2a0b"/>
      <path d="M3515,158.54c-10.29-7.74-38.26-11.28-44.57-19.11a5.13,5.13,0,0,0-2,.5c-4,4.65-1,9.69-12.88,11.24-12.87,1.56-28.72-3.49-23.77-8.53,2-1.94,9.9-3.49,8.91-6.59-.89-2-2.88-3.77-5.68-5.3-22.22,2.57-27,12.56-60.74,12.86a15,15,0,0,0,7,3.3c11.69,2.78,23.1,6.39,30.39,10.65,29.42-.93,52.26,6.6,79.57,10.29C3508.08,169.79,3521.94,164.36,3515,158.54Z" fill="#0e3200"/>
      <path d="M3558.05,127.43a44,44,0,0,1-5.15-18.14,46.72,46.72,0,0,1,2.73-18.18c3.56-10.31,9.18-20.82,5.56-31.94-1.54-4.72-4.65-8.77-9.38-10.57-.9-.34-1.29,1.11-.4,1.45,9.61,3.66,10.63,16.16,8.4,24.71-1.53,5.9-4.17,11.43-6.06,17.22a46.84,46.84,0,0,0-2.35,17.31,45.8,45.8,0,0,0,5.36,18.89c.45.85,1.75.1,1.29-.75Z" fill="#0e2909"/>
      <path d="M3569.18,113.48c-5.93-22.71,15.09-43.39,8.08-66.13a23.77,23.77,0,0,0-8.28-12.2c-.78-.58-1.53.72-.76,1.29,7.68,5.77,9.75,16.22,8.74,25.28-1.31,11.57-6.8,22.11-9.17,33.42-1.29,6.19-1.67,12.58-.06,18.74a.75.75,0,0,0,1.45-.4Z" fill="#0e2909"/>
      <path d="M3537.53,92.67q2.07-6.28,4.12-12.56A82.15,82.15,0,0,0,3545,67.33c1.07-6.93.26-14.15-4.16-19.83a15.7,15.7,0,0,0-8.61-5.74c-.94-.23-1.34,1.22-.4,1.45,6.12,1.49,10.1,7.11,11.52,13,1.84,7.63-.61,15.6-3,22.83-1.44,4.42-2.9,8.83-4.35,13.24-.3.92,1.15,1.32,1.45.4Z" fill="#0e2909"/>
      <path d="M3402.27,131.16c5-3.18,7.43-8.67,8-14.39.69-6.62-1.15-12.91-3.74-18.94-3.06-7.13-7.06-14-8.58-21.68a41.24,41.24,0,0,1,13.63-38.81c.73-.63-.33-1.68-1.06-1.06A42.82,42.82,0,0,0,3395.82,71c.42,7.27,3.1,13.89,6.16,20.41s6.4,13.1,6.89,20.37c.45,6.74-1.34,14.21-7.35,18.06-.82.52-.06,1.81.75,1.29Z" fill="#0e2909"/>
      <path d="M3421,119.35a54,54,0,0,0-1.09-30.41,66.08,66.08,0,0,0-7-14,18.31,18.31,0,0,1-3-7.58,13.44,13.44,0,0,1,1.27-7.25,13.19,13.19,0,0,1,14.39-7c.94.19,1.34-1.26.4-1.45a14.5,14.5,0,0,0-17.29,17.37,23.53,23.53,0,0,0,3.44,7.35,69.86,69.86,0,0,1,4.17,7.28,52.37,52.37,0,0,1,3.34,35.23.75.75,0,0,0,1.44.4Z" fill="#0e2909"/>
      <path d="M3391.39,114c4.12-7.1,3.72-15.71,1.64-23.39-2.33-8.66-6.63-16.69-8.36-25.52a29.47,29.47,0,0,1,.66-15.37c.31-.92-1.14-1.31-1.45-.4-6.05,17.52,8.28,33.23,9.15,50.31a24.38,24.38,0,0,1-2.94,13.61.75.75,0,0,0,1.3.76Z" fill="#0e2909"/>
      <path d="M3482.55,104.87a60.11,60.11,0,0,1-3.91-34.58c2.1-11.26,8-21.93,7.13-33.64-.4-5.57-2.26-11-6.26-15a1.5,1.5,0,0,0-2.13,2.12c7.73,7.76,5.79,19.85,3,29.29-1.7,5.76-3.77,11.42-4.78,17.35a62.79,62.79,0,0,0-.58,17.26,64.38,64.38,0,0,0,4.95,18.77c.76,1.76,3.35.24,2.59-1.52Z" fill="#472909"/>
      <path d="M3464.56,102.83A45.94,45.94,0,0,1,3461.4,75c1.91-9.38,7.33-17.78,8-27.46a20.82,20.82,0,0,0-3.45-13.65c-1.13-1.55-3.73-.05-2.59,1.52,5.62,7.74,2.48,17.72-.6,25.79A80.57,80.57,0,0,0,3458.34,75a48.67,48.67,0,0,0-.54,14.1,49.69,49.69,0,0,0,4.17,15.22c.8,1.76,3.38.23,2.59-1.51Z" fill="#472909"/>
      <path d="M3499.22,105.11A58.6,58.6,0,0,1,3498,61.68c.66-1.82-2.23-2.6-2.89-.8a61.62,61.62,0,0,0,1.53,45.75c.78,1.76,3.36.23,2.59-1.52Z" fill="#472909"/>
      <path d="M3604.44,144a22,22,0,0,0,25.34-14.37,22.82,22.82,0,0,0,1.12-8.08c-.09-3.13-.6-6.25-.43-9.39A20.36,20.36,0,0,1,3636,99.71a20.8,20.8,0,0,1,14.08-6.81c1.92-.09,1.93-3.1,0-3-9.57.45-18.09,7.14-21.36,16.07a22.14,22.14,0,0,0-1.29,7.16c-.05,3.14.48,6.25.48,9.38a19.23,19.23,0,0,1-6,14,19,19,0,0,1-16.7,4.62c-1.89-.4-2.69,2.5-.8,2.89Z" fill="#472909"/>
      <path d="M3634.15,166.85c4.17.48,8-2.1,10.25-5.46,2.6-3.88,3-8.75,3.54-13.26,1.15-10.48,2-21,3.47-31.47.59-4.3,2.38-10.46,7.71-10.66,1.92-.07,1.93-3.07,0-3-4.17.16-7.46,3.17-9,6.87-1.91,4.43-2,9.58-2.5,14.3l-1.75,15.89c-.54,5-.72,10.15-2,15-1.15,4.5-4.43,9.41-9.7,8.8-1.92-.23-1.9,2.78,0,3Z" fill="#472909"/>
      <path d="M3611,120.1a41.18,41.18,0,0,1,17.66-54.66c1.71-.9.19-3.5-1.51-2.59A44.38,44.38,0,0,0,3604,106.56a45.07,45.07,0,0,0,4.41,15.06c.86,1.73,3.45.21,2.59-1.52Z" fill="#472909"/>
      <path d="M3326.05,147.91c5.85.38,10.76-4.58,11.88-10,1.42-7-1.8-13.56-5.08-19.47a65.26,65.26,0,0,1-4.44-9,41.36,41.36,0,0,1-2.09-8.28,43,43,0,0,1,1-16.93,40.82,40.82,0,0,1,9-16.88c1.29-1.43-.82-3.56-2.12-2.12A45.17,45.17,0,0,0,3322.93,96a43.65,43.65,0,0,0,3.42,16.33c2.66,6.23,7.08,11.74,8.53,18.47.71,3.34.58,7-1.29,9.94a8.4,8.4,0,0,1-7.54,4.21c-1.93-.13-1.92,2.87,0,3Z" fill="#472909"/>
      <path d="M3359.17,125.76a72.17,72.17,0,0,1-4.73-51.32,76.82,76.82,0,0,1,3-8.48,52.73,52.73,0,0,0,3-8.33c1.26-5.48.29-11.92-4.74-15.21-1.62-1.05-3.12,1.54-1.51,2.59,4.44,2.91,4.25,9,2.9,13.52-.86,2.84-2.12,5.53-3.22,8.28a71,71,0,0,0-2.65,8.06,75.8,75.8,0,0,0-.95,34,73.85,73.85,0,0,0,6.32,18.37c.86,1.73,3.45.21,2.59-1.51Z" fill="#472909"/>
      <path d="M3372.9,136.5a195.62,195.62,0,0,0,1.62-49.65q-.69-7.09-1.89-14.14c-.32-1.9-3.21-1.1-2.89.79a192,192,0,0,1,.27,62.2c-.3,1.89,2.59,2.7,2.89.8Z" fill="#472909"/>
    </g>
    <g>
      <path d="M3062.8,142.64c-5,5,10.9,10.09,23.77,8.53,11.89-1.55,8.92-6.59,12.88-11.24a5.13,5.13,0,0,1,2-.5c-1.59-2-1.8-4.22,0-6.87,1-1.62,3.05-3,5.76-4.23-14.26,0-13.19,15.46-41.16,2.42,2.8,1.53,4.79,3.31,5.68,5.3C3072.7,139.15,3064.78,140.7,3062.8,142.64Z" fill="#0e2909"/>
      <path d="M3058.84,190c21.79-6.6,13.86-15.9,12.87-24.44,0-2,6.11-3.41,12.93-4.3-13.25-2.35-26.73-4.14-42-3.66,6.92,4,10.12,8.68,6.26,13.78-2.73,3-10,4.22-17.95,4.39,3,1.76,4.21,3.67,1.11,5.69-5,3.11-28.73-.38-23.78,3.5,5,4.23,18.4,6.55,21.36,11.1,9.1.14,18.52.31,28.08.56C3057.4,194,3056.26,191,3058.84,190Z" fill="#0e2909"/>
      <path d="M3216.34,148.85a46.93,46.93,0,0,1,11-.5c-6-12.69-30.31-5.51-76.75-18.62a12.94,12.94,0,0,0-2.57,2.44c-4.95,7.37,8.92,13.19,14.86,19.39,1.6,2,1,3.85-1,5.38C3182,158,3198.78,153,3216.34,148.85Z" fill="#0e2909"/>
      <path d="M3159.88,168.24c13.87,5,39.62,1.94,51.51-4.27,9.13-4.55,22.75-3.17,35.66-1.16-6.67-4.66-15.05-4.9-19.74-14.46a46.93,46.93,0,0,0-11,.5c-17.56,4.12-34.36,9.16-54.51,8.09-2.49,1.85-7.16,3.23-12.74,3.86A22.49,22.49,0,0,0,3159.88,168.24Z" fill="#201913"/>
      <path d="M3103.41,184.14c-3-.78-4-4.27,0-5,5-.39,12.88,1.16,15.85,0,5-1.94-1-5-2-7.76,0-1.6,2.38-2.58,5.09-3.48h-.13c-13.16-1.78-25.29-4.44-37.6-6.63-6.82.89-12.93,2.27-12.93,4.3,1,8.54,8.92,17.84-12.87,24.44-2.58,1-1.44,4-1.09,6.62,16.79.43,34,1.12,50.78,2.4l1.54.11c.69-4.34,4.67-8.36,6.22-12.62C3117.28,183.75,3107.38,184.92,3103.41,184.14Z" fill="#372a0b"/>
      <path d="M3165.82,190.34c2-2.32,11.89-1.16,17.83-1.16,8.92.78,20.81,2.72,26.75,0,4.95-2.71-5-6.2-12.88-7.37-17.83-2.71-31.7,1.94-48.54,2.72,4.52-6.37,20.55-9.51,31.61-13.83-7.71.27-15.16-.44-20.71-2.46a22.49,22.49,0,0,1-10.79-7.44l-1.36.14c1.27,4.78-10.93,8.56-25.36,6.92-2.71.9-5.09,1.88-5.09,3.48,1,2.72,6.94,5.82,2,7.76-3,1.16-10.89-.39-15.85,0-4,.77-3,4.26,0,5,4,.78,13.87-.39,12.88,2.33-1.55,4.26-5.53,8.28-6.22,12.62,19.3,1.43,40.55,2.08,61.45,2C3165.87,197.86,3162.83,194.25,3165.82,190.34Z" fill="#23200b"/>
      <path d="M3247,172.5c-14.85,2.16,9.8-4.6,1.82-10.17-12.91-2-28.3-2.91-37.43,1.64-7.13,3.73-19.25,6.33-30.8,6.73-11.06,4.32-27.09,7.46-31.61,13.83,16.84-.78,30.71-5.43,48.54-2.72a48.14,48.14,0,0,1,9.32,2.3c8.58-4.38,20-8.53,34.27-6.56,17.36,2.44,29.37,7.94,36.7,14.49C3290.29,188.22,3268.13,169.43,3247,172.5Z" fill="#1e2a0b"/>
      <path d="M3241.11,177.55c-14.27-2-25.69,2.18-34.27,6.56,4.13,1.52,6.55,3.43,3.56,5.07-5.94,2.72-17.83.78-26.75,0-5.94,0-15.85-1.16-17.83,1.16-3,3.91,0,7.52,5.7,10.79,44.6-.09,87.54-3.36,106.29-9.09C3270.48,185.49,3258.47,180,3241.11,177.55Z" fill="#0e3200"/>
      <path d="M3008.31,184.92c-4.95-3.88,18.83-.39,23.78-3.5,3.1-2,1.88-3.93-1.11-5.69a107.85,107.85,0,0,1-18.7-1.29c-11.89-1.93-29.72-8.14-38.64-4.26-5.94,1.94-10.89,5.82-20.8,4.65a53.86,53.86,0,0,1-7.44-1.32c-1.68,1.32-3.28,2.66-4.79,4-19.9,17.68,27.37,17.56,89.06,18.51C3026.71,191.47,3013.31,189.15,3008.31,184.92Z" fill="#0e2909"/>
      <path d="M3162.85,151.56c-5.94-6.2-19.81-12-14.86-19.39a12.94,12.94,0,0,1,2.57-2.44c-31.56,5.11-26.08-1.41-42-1.41h-1.34c-2.71,1.23-4.8,2.61-5.76,4.23-8.91,13.19,31.7,16.29,44.58,26a4.87,4.87,0,0,1,1.72,2.4C3158.61,160,3166.56,156.21,3162.85,151.56Z" fill="#576239"/>
      <path d="M2973.64,170.18c8.92-3.88,26.75,2.33,38.64,4.26s31.7,2.33,36.65-3.1c7.92-10.47-13.87-19-36.65-24.43a15,15,0,0,1-7-3.3C2964,151.32,2931,173,2945.4,173.51a53.86,53.86,0,0,0,7.44,1.32C2962.75,176,2967.7,172.12,2973.64,170.18Z" fill="#1e2a0b"/>
      <path d="M3146,158.54c-10.29-7.74-38.26-11.28-44.57-19.11a5.13,5.13,0,0,0-2,.5c-4,4.65-1,9.69-12.88,11.24-12.87,1.56-28.72-3.49-23.77-8.53,2-1.94,9.9-3.49,8.91-6.59-.89-2-2.88-3.77-5.68-5.3-22.22,2.57-27,12.56-60.74,12.86a15,15,0,0,0,7,3.3c11.69,2.78,23.1,6.39,30.39,10.65,29.42-.93,52.26,6.6,79.57,10.29C3139.08,169.79,3152.94,164.36,3146,158.54Z" fill="#0e3200"/>
      <path d="M3189.05,127.43a44,44,0,0,1-5.15-18.14,46.72,46.72,0,0,1,2.73-18.18c3.56-10.31,9.18-20.82,5.56-31.94-1.54-4.72-4.65-8.77-9.38-10.57-.9-.34-1.29,1.11-.4,1.45,9.61,3.66,10.63,16.16,8.4,24.71-1.53,5.9-4.17,11.43-6.06,17.22a46.84,46.84,0,0,0-2.35,17.31,45.8,45.8,0,0,0,5.36,18.89c.45.85,1.75.1,1.29-.75Z" fill="#0e2909"/>
      <path d="M3200.18,113.48c-5.93-22.71,15.09-43.39,8.08-66.13a23.77,23.77,0,0,0-8.28-12.2c-.78-.58-1.53.72-.76,1.29,7.68,5.77,9.75,16.22,8.74,25.28-1.31,11.57-6.8,22.11-9.17,33.42-1.29,6.19-1.67,12.58-.06,18.74a.75.75,0,0,0,1.45-.4Z" fill="#0e2909"/>
      <path d="M3168.53,92.67q2.07-6.28,4.12-12.56A82.15,82.15,0,0,0,3176,67.33c1.07-6.93.26-14.15-4.16-19.83a15.7,15.7,0,0,0-8.61-5.74c-.94-.23-1.34,1.22-.4,1.45,6.12,1.49,10.1,7.11,11.52,13,1.84,7.63-.61,15.6-3,22.83-1.44,4.42-2.9,8.83-4.35,13.24-.3.92,1.15,1.32,1.45.4Z" fill="#0e2909"/>
      <path d="M3033.27,131.16c5-3.18,7.43-8.67,8-14.39.69-6.62-1.15-12.91-3.74-18.94-3.06-7.13-7.06-14-8.58-21.68a41.24,41.24,0,0,1,13.63-38.81c.73-.63-.33-1.68-1.06-1.06A42.82,42.82,0,0,0,3026.82,71c.42,7.27,3.1,13.89,6.16,20.41s6.4,13.1,6.89,20.37c.45,6.74-1.34,14.21-7.35,18.06-.82.52-.06,1.81.75,1.29Z" fill="#0e2909"/>
      <path d="M3052,119.35a54,54,0,0,0-1.09-30.41,66.08,66.08,0,0,0-7-14,18.31,18.31,0,0,1-3-7.58,13.44,13.44,0,0,1,1.27-7.25,13.19,13.19,0,0,1,14.39-7c.94.19,1.34-1.26.4-1.45a14.5,14.5,0,0,0-17.29,17.37,23.53,23.53,0,0,0,3.44,7.35,69.86,69.86,0,0,1,4.17,7.28,52.37,52.37,0,0,1,3.34,35.23.75.75,0,0,0,1.44.4Z" fill="#0e2909"/>
      <path d="M3022.39,114c4.12-7.1,3.72-15.71,1.64-23.39-2.33-8.66-6.63-16.69-8.36-25.52a29.47,29.47,0,0,1,.66-15.37c.31-.92-1.14-1.31-1.45-.4-6.05,17.52,8.28,33.23,9.15,50.31a24.38,24.38,0,0,1-2.94,13.61.75.75,0,0,0,1.3.76Z" fill="#0e2909"/>
      <path d="M3113.55,104.87a60.11,60.11,0,0,1-3.91-34.58c2.1-11.26,8-21.93,7.13-33.64-.4-5.57-2.26-11-6.26-15a1.5,1.5,0,0,0-2.13,2.12c7.73,7.76,5.79,19.85,3,29.29-1.7,5.76-3.77,11.42-4.78,17.35a62.79,62.79,0,0,0-.58,17.26,64.38,64.38,0,0,0,4.95,18.77c.76,1.76,3.35.24,2.59-1.52Z" fill="#472909"/>
      <path d="M3095.56,102.83A45.94,45.94,0,0,1,3092.4,75c1.91-9.38,7.33-17.78,8-27.46a20.82,20.82,0,0,0-3.45-13.65c-1.13-1.55-3.73-.05-2.59,1.52,5.62,7.74,2.48,17.72-.6,25.79A80.57,80.57,0,0,0,3089.34,75a48.67,48.67,0,0,0-.54,14.1,49.69,49.69,0,0,0,4.17,15.22c.8,1.76,3.38.23,2.59-1.51Z" fill="#472909"/>
      <path d="M3130.22,105.11A58.6,58.6,0,0,1,3129,61.68c.66-1.82-2.23-2.6-2.89-.8a61.62,61.62,0,0,0,1.53,45.75c.78,1.76,3.36.23,2.59-1.52Z" fill="#472909"/>
      <path d="M3235.44,144a22,22,0,0,0,25.34-14.37,22.82,22.82,0,0,0,1.12-8.08c-.09-3.13-.6-6.25-.43-9.39A20.36,20.36,0,0,1,3267,99.71a20.8,20.8,0,0,1,14.08-6.81c1.92-.09,1.93-3.1,0-3-9.57.45-18.09,7.14-21.36,16.07a22.14,22.14,0,0,0-1.29,7.16c-.05,3.14.48,6.25.48,9.38a19.23,19.23,0,0,1-6,14,19,19,0,0,1-16.7,4.62c-1.89-.4-2.69,2.5-.8,2.89Z" fill="#472909"/>
      <path d="M3265.15,166.85c4.17.48,8-2.1,10.25-5.46,2.6-3.88,3-8.75,3.54-13.26,1.15-10.48,2-21,3.47-31.47.59-4.3,2.38-10.46,7.71-10.66,1.92-.07,1.93-3.07,0-3-4.17.16-7.46,3.17-9,6.87-1.91,4.43-2,9.58-2.5,14.3l-1.75,15.89c-.54,5-.72,10.15-2,15-1.15,4.5-4.43,9.41-9.7,8.8-1.92-.23-1.9,2.78,0,3Z" fill="#472909"/>
      <path d="M3242,120.1a41.18,41.18,0,0,1,17.66-54.66c1.71-.9.19-3.5-1.51-2.59A44.38,44.38,0,0,0,3235,106.56a45.07,45.07,0,0,0,4.41,15.06c.86,1.73,3.45.21,2.59-1.52Z" fill="#472909"/>
      <path d="M2957.05,147.91c5.85.38,10.76-4.58,11.88-10,1.42-7-1.8-13.56-5.08-19.47a65.26,65.26,0,0,1-4.44-9,41.36,41.36,0,0,1-2.09-8.28,43,43,0,0,1,1-16.93,40.82,40.82,0,0,1,9-16.88c1.29-1.43-.82-3.56-2.12-2.12A45.17,45.17,0,0,0,2953.93,96a43.65,43.65,0,0,0,3.42,16.33c2.66,6.23,7.08,11.74,8.53,18.47.71,3.34.58,7-1.29,9.94a8.4,8.4,0,0,1-7.54,4.21c-1.93-.13-1.92,2.87,0,3Z" fill="#472909"/>
      <path d="M2990.17,125.76a72.17,72.17,0,0,1-4.73-51.32,76.82,76.82,0,0,1,3-8.48,52.73,52.73,0,0,0,3-8.33c1.26-5.48.29-11.92-4.74-15.21-1.62-1.05-3.12,1.54-1.51,2.59,4.44,2.91,4.25,9,2.9,13.52-.86,2.84-2.12,5.53-3.22,8.28a71,71,0,0,0-2.65,8.06,75.8,75.8,0,0,0-.95,34,73.85,73.85,0,0,0,6.32,18.37c.86,1.73,3.45.21,2.59-1.51Z" fill="#472909"/>
      <path d="M3003.9,136.5a195.62,195.62,0,0,0,1.62-49.65q-.69-7.09-1.89-14.14c-.32-1.9-3.21-1.1-2.89.79a192,192,0,0,1,.27,62.2c-.3,1.89,2.59,2.7,2.89.8Z" fill="#472909"/>
    </g>
  </g>
</svg>
