<svg xmlns="http://www.w3.org/2000/svg" xmlns:xlink="http://www.w3.org/1999/xlink" width="903" height="873" viewBox="0 0 903 873">
  <defs>
    <style>
      .wheel-cls-1 {
        fill: url(#linear-gradient);
      }

      .wheel-cls-2 {
        fill: url(#linear-gradient-2);
      }

      .wheel-cls-3 {
        fill: url(#linear-gradient-3);
      }

      .wheel-cls-4 {
        fill: url(#linear-gradient-4);
      }

      .wheel-cls-5 {
        fill: url(#linear-gradient-5);
      }

      .wheel-cls-6 {
        fill: url(#linear-gradient-6);
      }

      .wheel-cls-7 {
        fill: url(#linear-gradient-7);
      }

      .wheel-cls-8 {
        fill: url(#linear-gradient-8);
      }

      .wheel-cls-9 {
        fill: url(#linear-gradient-9);
      }

      .wheel-cls-10 {
        fill: url(#linear-gradient-10);
      }

      .wheel-cls-11 {
        fill: url(#linear-gradient-11);
      }

      .wheel-cls-12 {
        fill: url(#linear-gradient-12);
      }

      .wheel-cls-13 {
        fill: url(#linear-gradient-13);
      }

      .wheel-cls-14 {
        fill: url(#linear-gradient-14);
      }

      .wheel-cls-15 {
        fill: #0ac833;
      }

      .wheel-cls-16 {
        fill: #fbff0a;
      }

      .wheel-cls-17 {
        fill: #fff;
      }

      .wheel-cls-18 {
        fill: url(#linear-gradient-15);
      }

      .wheel-cls-19 {
        fill: url(#linear-gradient-16);
      }

      .wheel-cls-20 {
        fill: url(#linear-gradient-17);
      }

      .wheel-cls-21 {
        fill: url(#linear-gradient-18);
      }

      .wheel-cls-22 {
        fill: url(#linear-gradient-19);
      }

      .wheel-cls-23 {
        fill: url(#linear-gradient-20);
      }

      .wheel-cls-24 {
        fill: none;
      }

      .wheel-cls-25 {
        fill: url(#linear-gradient-21);
      }

      .wheel-cls-26 {
        fill: url(#linear-gradient-22);
      }

      .wheel-cls-27 {
        fill: url(#linear-gradient-23);
      }

      .wheel-cls-28 {
        fill: url(#linear-gradient-24);
      }

      .wheel-cls-29 {
        fill: url(#linear-gradient-25);
      }

      .wheel-cls-30 {
        fill: url(#linear-gradient-26);
      }

      .wheel-cls-31 {
        fill: url(#linear-gradient-27);
      }

      .wheel-cls-32 {
        fill: url(#linear-gradient-28);
      }

      .wheel-cls-33 {
        fill: url(#linear-gradient-29);
      }

      .wheel-cls-34 {
        fill: url(#linear-gradient-30);
      }

      .wheel-cls-35 {
        fill: url(#linear-gradient-31);
      }

      .wheel-cls-36 {
        fill: url(#linear-gradient-32);
      }

      .wheel-cls-37 {
        fill: url(#linear-gradient-33);
      }

      .wheel-cls-38 {
        fill: url(#linear-gradient-34);
      }

      .wheel-cls-39 {
        fill: url(#linear-gradient-35);
      }

      .wheel-cls-40 {
        fill: url(#linear-gradient-36);
      }

      .wheel-cls-41 {
        fill: url(#linear-gradient-37);
      }

      .wheel-cls-42 {
        fill: url(#linear-gradient-38);
      }

      .wheel-cls-43 {
        fill: url(#linear-gradient-39);
      }

      .wheel-cls-44 {
        fill: url(#linear-gradient-40);
      }

      .wheel-cls-45 {
        fill: url(#linear-gradient-41);
      }

      .wheel-cls-46 {
        fill: url(#linear-gradient-42);
      }

      .wheel-cls-47 {
        fill: url(#linear-gradient-43);
      }

      .wheel-cls-48 {
        fill: url(#linear-gradient-44);
      }

      .wheel-cls-49 {
        fill: url(#linear-gradient-45);
      }

      .wheel-cls-50 {
        fill: url(#linear-gradient-46);
      }

      .wheel-cls-51 {
        fill: url(#linear-gradient-47);
      }

      .wheel-cls-52 {
        fill: url(#linear-gradient-48);
      }

      .wheel-cls-53 {
        fill: url(#linear-gradient-49);
      }

      .wheel-cls-54 {
        fill: url(#linear-gradient-50);
      }

      .wheel-cls-55 {
        fill: url(#linear-gradient-51);
      }

      .wheel-cls-56 {
        fill: url(#linear-gradient-52);
      }

      .wheel-cls-57 {
        fill: url(#linear-gradient-53);
      }

      .wheel-cls-58 {
        fill: url(#linear-gradient-54);
      }

      .wheel-cls-59 {
        fill: url(#linear-gradient-55);
      }

      .wheel-cls-60 {
        fill: url(#linear-gradient-56);
      }

      .wheel-cls-61 {
        fill: url(#linear-gradient-57);
      }

      .wheel-cls-62 {
        fill: url(#linear-gradient-58);
      }

      .wheel-cls-63 {
        fill: url(#linear-gradient-59);
      }

      .wheel-cls-64 {
        fill: url(#linear-gradient-60);
      }

      .wheel-cls-65 {
        fill: url(#linear-gradient-61);
      }

      .wheel-cls-66 {
        fill: url(#linear-gradient-62);
      }

      .wheel-cls-67 {
        fill: url(#linear-gradient-63);
      }

      .wheel-cls-68 {
        fill: url(#linear-gradient-64);
      }

      .wheel-cls-69 {
        fill: url(#linear-gradient-65);
      }

      .wheel-cls-70 {
        fill: url(#linear-gradient-66);
      }

      .wheel-cls-71 {
        fill: url(#linear-gradient-67);
      }

      .wheel-cls-72 {
        fill: url(#linear-gradient-68);
      }

      .wheel-cls-73 {
        fill: url(#linear-gradient-69);
      }

      .wheel-cls-74 {
        fill: url(#linear-gradient-70);
      }

      .wheel-cls-75 {
        fill: url(#linear-gradient-71);
      }

      .wheel-cls-76 {
        fill: url(#linear-gradient-72);
      }

      .wheel-cls-77 {
        fill: url(#linear-gradient-73);
      }

      .wheel-cls-78 {
        fill: url(#linear-gradient-74);
      }

      .wheel-cls-79 {
        fill: url(#linear-gradient-75);
      }

      .wheel-cls-80 {
        fill: url(#linear-gradient-76);
      }

      .wheel-cls-81 {
        fill: url(#linear-gradient-77);
      }

      .wheel-cls-82 {
        fill: url(#linear-gradient-78);
      }

      .wheel-cls-83 {
        fill: url(#linear-gradient-79);
      }

      .wheel-cls-84 {
        fill: url(#linear-gradient-80);
      }

      .wheel-cls-85 {
        fill: url(#linear-gradient-81);
      }

      .wheel-cls-86 {
        fill: url(#linear-gradient-82);
      }

      .wheel-cls-87 {
        fill: url(#linear-gradient-83);
      }

      .wheel-cls-88 {
        fill: url(#linear-gradient-84);
      }

      .wheel-cls-89 {
        fill: url(#linear-gradient-85);
      }

      .wheel-cls-90 {
        fill: url(#linear-gradient-86);
      }

      .wheel-cls-91 {
        fill: url(#linear-gradient-87);
      }

      .wheel-cls-92 {
        fill: url(#linear-gradient-88);
      }

      .wheel-cls-93 {
        fill: url(#linear-gradient-89);
      }

      .wheel-cls-94 {
        fill: url(#linear-gradient-90);
      }

      .wheel-cls-95 {
        fill: url(#linear-gradient-91);
      }

      .wheel-cls-96 {
        fill: url(#linear-gradient-92);
      }

      .wheel-cls-97 {
        fill: url(#linear-gradient-93);
      }

      .wheel-cls-98 {
        fill: url(#linear-gradient-94);
      }

      .wheel-cls-99 {
        fill: url(#linear-gradient-95);
      }

      .wheel-cls-100 {
        fill: url(#linear-gradient-96);
      }

      .wheel-cls-101 {
        fill: url(#linear-gradient-97);
      }

      .wheel-cls-102 {
        fill: url(#linear-gradient-98);
      }

      .wheel-cls-103 {
        fill: url(#linear-gradient-99);
      }

      .wheel-cls-104 {
        fill: url(#linear-gradient-100);
      }

      .wheel-cls-105 {
        fill: url(#linear-gradient-101);
      }

      .wheel-cls-106 {
        fill: url(#linear-gradient-102);
      }

      .wheel-cls-107 {
        fill: url(#linear-gradient-103);
      }

      .wheel-cls-108 {
        fill: url(#linear-gradient-104);
      }

      .wheel-cls-109 {
        fill: url(#linear-gradient-105);
      }

      .wheel-cls-110 {
        fill: url(#linear-gradient-106);
      }

      .wheel-cls-111 {
        fill: url(#linear-gradient-107);
      }

      .wheel-cls-112 {
        fill: url(#linear-gradient-108);
      }

      .wheel-cls-113 {
        fill: #f7931e;
      }

      .wheel-cls-114 {
        fill: #c1272d;
      }

      .wheel-cls-115 {
        fill: #a6132d;
      }
    </style>
    <linearGradient id="linear-gradient" x1="116" y1="285.5" x2="439" y2="285.5" gradientUnits="userSpaceOnUse">
      <stop offset="0" stop-color="#7ff2ff"/>
      <stop offset="1" stop-color="#0094ff"/>
    </linearGradient>
    <linearGradient id="linear-gradient-2" x1="159.67" y1="264.59" x2="344.54" y2="264.59" gradientUnits="userSpaceOnUse">
      <stop offset="0" stop-color="#fcee21"/>
      <stop offset="1" stop-color="#ff0"/>
    </linearGradient>
    <linearGradient id="linear-gradient-3" x1="146.52" y1="302" x2="159.82" y2="302" xlink:href="#linear-gradient-2"/>
    <linearGradient id="linear-gradient-4" x1="131.38" y1="348.82" x2="185.95" y2="348.82" xlink:href="#linear-gradient-2"/>
    <linearGradient id="linear-gradient-5" x1="187.53" y1="382.65" x2="223.55" y2="382.65" xlink:href="#linear-gradient-2"/>
    <linearGradient id="linear-gradient-6" x1="240.57" y1="395.31" x2="266.1" y2="395.31" xlink:href="#linear-gradient-2"/>
    <linearGradient id="linear-gradient-7" x1="279.08" y1="165.85" x2="282.69" y2="165.85" xlink:href="#linear-gradient-2"/>
    <linearGradient id="linear-gradient-8" x1="282.86" y1="379.94" x2="321.22" y2="379.94" xlink:href="#linear-gradient-2"/>
    <linearGradient id="linear-gradient-9" x1="296.9" y1="163.95" x2="339.65" y2="163.95" xlink:href="#linear-gradient-2"/>
    <linearGradient id="linear-gradient-10" x1="319.38" y1="344.22" x2="375.64" y2="344.22" xlink:href="#linear-gradient-2"/>
    <linearGradient id="linear-gradient-11" x1="329.4" y1="199.61" x2="391.68" y2="199.61" xlink:href="#linear-gradient-2"/>
    <linearGradient id="linear-gradient-12" x1="343.89" y1="294.45" x2="408.53" y2="294.45" xlink:href="#linear-gradient-2"/>
    <linearGradient id="linear-gradient-13" x1="348.65" y1="249.85" x2="414.2" y2="249.85" xlink:href="#linear-gradient-2"/>
    <linearGradient id="linear-gradient-14" x1="116" y1="608.5" x2="439" y2="608.5" gradientUnits="userSpaceOnUse">
      <stop offset="0" stop-color="#39c94a"/>
      <stop offset="1" stop-color="#007c37"/>
    </linearGradient>
    <linearGradient id="linear-gradient-15" x1="439" y1="285.5" x2="762" y2="285.5" gradientUnits="userSpaceOnUse">
      <stop offset="0" stop-color="#9fd2e0"/>
      <stop offset="1" stop-color="#8bd4ef"/>
    </linearGradient>
    <linearGradient id="linear-gradient-16" x1="1450.4" y1="1097.57" x2="1542.74" y2="1097.57" gradientTransform="matrix(0.98, 0.56, -0.81, 1.4, 66.86, -2101.5)" gradientUnits="userSpaceOnUse">
      <stop offset="0" stop-color="#9f6814"/>
      <stop offset="1" stop-color="#db8b00"/>
    </linearGradient>
    <linearGradient id="linear-gradient-17" x1="1461.26" y1="1097.15" x2="1540.02" y2="1097.15" xlink:href="#linear-gradient-16"/>
    <linearGradient id="linear-gradient-18" x1="1524.93" y1="1100.64" x2="1532.36" y2="1100.64" xlink:href="#linear-gradient-16"/>
    <linearGradient id="linear-gradient-19" x1="1501.81" y1="1103.03" x2="1517.28" y2="1103.03" xlink:href="#linear-gradient-16"/>
    <linearGradient id="linear-gradient-20" x1="1491.27" y1="1103.22" x2="1500.81" y2="1103.22" xlink:href="#linear-gradient-16"/>
    <linearGradient id="linear-gradient-21" x1="1480.37" y1="1092.7" x2="1484.12" y2="1092.7" xlink:href="#linear-gradient-16"/>
    <linearGradient id="linear-gradient-22" x1="1504.5" y1="1082.33" x2="1513.58" y2="1082.33" xlink:href="#linear-gradient-16"/>
    <linearGradient id="linear-gradient-23" x1="1522.94" y1="1082.34" x2="1528.75" y2="1082.34" xlink:href="#linear-gradient-16"/>
    <linearGradient id="linear-gradient-24" x1="1453.02" y1="1092.44" x2="1545.36" y2="1092.44" gradientTransform="matrix(-0.62, 0.48, -0.57, -0.73, 2240.11, 416.53)" xlink:href="#linear-gradient-16"/>
    <linearGradient id="linear-gradient-25" x1="1463.88" y1="1092.02" x2="1542.64" y2="1092.02" gradientTransform="matrix(-0.62, 0.48, -0.57, -0.73, 2240.11, 416.53)" xlink:href="#linear-gradient-16"/>
    <linearGradient id="linear-gradient-26" x1="1527.55" y1="1095.52" x2="1534.98" y2="1095.52" gradientTransform="matrix(-0.62, 0.48, -0.57, -0.73, 2240.11, 416.53)" xlink:href="#linear-gradient-16"/>
    <linearGradient id="linear-gradient-27" x1="1504.43" y1="1097.91" x2="1519.9" y2="1097.91" gradientTransform="matrix(-0.62, 0.48, -0.57, -0.73, 2240.11, 416.53)" xlink:href="#linear-gradient-16"/>
    <linearGradient id="linear-gradient-28" x1="1493.89" y1="1098.09" x2="1503.43" y2="1098.09" gradientTransform="matrix(-0.62, 0.48, -0.57, -0.73, 2240.11, 416.53)" xlink:href="#linear-gradient-16"/>
    <linearGradient id="linear-gradient-29" x1="1482.99" y1="1087.57" x2="1486.74" y2="1087.57" gradientTransform="matrix(-0.62, 0.48, -0.57, -0.73, 2240.11, 416.53)" xlink:href="#linear-gradient-16"/>
    <linearGradient id="linear-gradient-30" x1="1507.12" y1="1077.21" x2="1516.2" y2="1077.21" gradientTransform="matrix(-0.62, 0.48, -0.57, -0.73, 2240.11, 416.53)" xlink:href="#linear-gradient-16"/>
    <linearGradient id="linear-gradient-31" x1="1525.56" y1="1077.21" x2="1531.37" y2="1077.21" gradientTransform="matrix(-0.62, 0.48, -0.57, -0.73, 2240.11, 416.53)" xlink:href="#linear-gradient-16"/>
    <linearGradient id="linear-gradient-32" x1="1438.65" y1="1179.94" x2="1530.99" y2="1179.94" gradientTransform="matrix(0.41, 0.67, -0.79, 0.49, 889.15, -1246.3)" xlink:href="#linear-gradient-16"/>
    <linearGradient id="linear-gradient-33" x1="1449.51" y1="1179.52" x2="1528.27" y2="1179.52" gradientTransform="matrix(0.41, 0.67, -0.79, 0.49, 889.15, -1246.3)" xlink:href="#linear-gradient-16"/>
    <linearGradient id="linear-gradient-34" x1="1513.18" y1="1183.02" x2="1520.61" y2="1183.02" gradientTransform="matrix(0.41, 0.67, -0.79, 0.49, 889.15, -1246.3)" xlink:href="#linear-gradient-16"/>
    <linearGradient id="linear-gradient-35" x1="1490.07" y1="1185.41" x2="1505.53" y2="1185.41" gradientTransform="matrix(0.41, 0.67, -0.79, 0.49, 889.15, -1246.3)" xlink:href="#linear-gradient-16"/>
    <linearGradient id="linear-gradient-36" x1="1479.52" y1="1185.59" x2="1489.06" y2="1185.59" gradientTransform="matrix(0.41, 0.67, -0.79, 0.49, 889.15, -1246.3)" xlink:href="#linear-gradient-16"/>
    <linearGradient id="linear-gradient-37" x1="1468.62" y1="1175.07" x2="1472.37" y2="1175.07" gradientTransform="matrix(0.41, 0.67, -0.79, 0.49, 889.15, -1246.3)" xlink:href="#linear-gradient-16"/>
    <linearGradient id="linear-gradient-38" x1="1492.75" y1="1164.71" x2="1501.84" y2="1164.71" gradientTransform="matrix(0.41, 0.67, -0.79, 0.49, 889.15, -1246.3)" xlink:href="#linear-gradient-16"/>
    <linearGradient id="linear-gradient-39" x1="1511.19" y1="1164.71" x2="1517" y2="1164.71" gradientTransform="matrix(0.41, 0.67, -0.79, 0.49, 889.15, -1246.3)" xlink:href="#linear-gradient-16"/>
    <linearGradient id="linear-gradient-40" x1="1342.76" y1="1070.27" x2="1435.11" y2="1070.27" gradientTransform="matrix(-0.52, 0.16, 0.1, 0.33, 1203.87, -333.56)" xlink:href="#linear-gradient-16"/>
    <linearGradient id="linear-gradient-41" x1="1353.63" y1="1069.85" x2="1432.39" y2="1069.85" gradientTransform="matrix(-0.52, 0.16, 0.1, 0.33, 1203.87, -333.56)" xlink:href="#linear-gradient-16"/>
    <linearGradient id="linear-gradient-42" x1="1417.29" y1="1073.35" x2="1424.73" y2="1073.35" gradientTransform="matrix(-0.52, 0.16, 0.1, 0.33, 1203.87, -333.56)" xlink:href="#linear-gradient-16"/>
    <linearGradient id="linear-gradient-43" x1="1394.18" y1="1075.74" x2="1409.65" y2="1075.74" gradientTransform="matrix(-0.52, 0.16, 0.1, 0.33, 1203.87, -333.56)" xlink:href="#linear-gradient-16"/>
    <linearGradient id="linear-gradient-44" x1="1383.64" y1="1075.92" x2="1393.18" y2="1075.92" gradientTransform="matrix(-0.52, 0.16, 0.1, 0.33, 1203.87, -333.56)" xlink:href="#linear-gradient-16"/>
    <linearGradient id="linear-gradient-45" x1="1372.74" y1="1065.4" x2="1376.49" y2="1065.4" gradientTransform="matrix(-0.52, 0.16, 0.1, 0.33, 1203.87, -333.56)" xlink:href="#linear-gradient-16"/>
    <linearGradient id="linear-gradient-46" x1="1396.87" y1="1055.04" x2="1405.95" y2="1055.04" gradientTransform="matrix(-0.52, 0.16, 0.1, 0.33, 1203.87, -333.56)" xlink:href="#linear-gradient-16"/>
    <linearGradient id="linear-gradient-47" x1="1415.31" y1="1055.04" x2="1421.12" y2="1055.04" gradientTransform="matrix(-0.52, 0.16, 0.1, 0.33, 1203.87, -333.56)" xlink:href="#linear-gradient-16"/>
    <linearGradient id="linear-gradient-48" x1="1282.49" y1="1062.87" x2="1374.83" y2="1062.87" gradientTransform="matrix(-0.46, 0.64, 0.61, 0.44, 464.16, -1099.26)" xlink:href="#linear-gradient-16"/>
    <linearGradient id="linear-gradient-49" x1="1293.36" y1="1062.45" x2="1372.12" y2="1062.45" gradientTransform="matrix(-0.46, 0.64, 0.61, 0.44, 464.16, -1099.26)" xlink:href="#linear-gradient-16"/>
    <linearGradient id="linear-gradient-50" x1="1357.02" y1="1065.94" x2="1364.46" y2="1065.94" gradientTransform="matrix(-0.46, 0.64, 0.61, 0.44, 464.16, -1099.26)" xlink:href="#linear-gradient-16"/>
    <linearGradient id="linear-gradient-51" x1="1333.91" y1="1068.33" x2="1349.37" y2="1068.33" gradientTransform="matrix(-0.46, 0.64, 0.61, 0.44, 464.16, -1099.26)" xlink:href="#linear-gradient-16"/>
    <linearGradient id="linear-gradient-52" x1="1323.36" y1="1068.52" x2="1332.9" y2="1068.52" gradientTransform="matrix(-0.46, 0.64, 0.61, 0.44, 464.16, -1099.26)" xlink:href="#linear-gradient-16"/>
    <linearGradient id="linear-gradient-53" x1="1312.47" y1="1058" x2="1316.22" y2="1058" gradientTransform="matrix(-0.46, 0.64, 0.61, 0.44, 464.16, -1099.26)" xlink:href="#linear-gradient-16"/>
    <linearGradient id="linear-gradient-54" x1="1336.59" y1="1047.64" x2="1345.68" y2="1047.64" gradientTransform="matrix(-0.46, 0.64, 0.61, 0.44, 464.16, -1099.26)" xlink:href="#linear-gradient-16"/>
    <linearGradient id="linear-gradient-55" x1="1355.04" y1="1047.64" x2="1360.84" y2="1047.64" gradientTransform="matrix(-0.46, 0.64, 0.61, 0.44, 464.16, -1099.26)" xlink:href="#linear-gradient-16"/>
    <linearGradient id="linear-gradient-56" x1="461" y1="128.25" x2="461.92" y2="128.25" gradientTransform="matrix(1, 0, 0, 1, 0, 0)" xlink:href="#linear-gradient-16"/>
    <linearGradient id="linear-gradient-57" x1="461.92" y1="126.59" x2="469.14" y2="126.59" gradientTransform="matrix(1, 0, 0, 1, 0, 0)" xlink:href="#linear-gradient-16"/>
    <linearGradient id="linear-gradient-58" x1="468.8" y1="125.51" x2="469.82" y2="125.51" gradientTransform="matrix(1, 0, 0, 1, 0, 0)" xlink:href="#linear-gradient-16"/>
    <linearGradient id="linear-gradient-59" x1="552.27" y1="153.18" x2="583.97" y2="153.18" gradientTransform="matrix(1, 0, 0, 1, 0, 0)" xlink:href="#linear-gradient-16"/>
    <linearGradient id="linear-gradient-60" x1="569.23" y1="156.5" x2="578.03" y2="156.5" gradientTransform="matrix(1, 0, 0, 1, 0, 0)" xlink:href="#linear-gradient-16"/>
    <linearGradient id="linear-gradient-61" x1="553.93" y1="147.07" x2="560.3" y2="147.07" gradientTransform="matrix(1, 0, 0, 1, 0, 0)" xlink:href="#linear-gradient-16"/>
    <linearGradient id="linear-gradient-62" x1="1466.52" y1="1094" x2="1558.86" y2="1094" gradientTransform="matrix(-0.3, -0.17, 0.48, -0.83, 495.76, 1376.22)" xlink:href="#linear-gradient-16"/>
    <linearGradient id="linear-gradient-63" x1="1477.39" y1="1093.57" x2="1556.15" y2="1093.57" gradientTransform="matrix(-0.3, -0.17, 0.48, -0.83, 495.76, 1376.22)" xlink:href="#linear-gradient-16"/>
    <linearGradient id="linear-gradient-64" x1="1541.05" y1="1097.07" x2="1548.49" y2="1097.07" gradientTransform="matrix(-0.3, -0.17, 0.48, -0.83, 495.76, 1376.22)" xlink:href="#linear-gradient-16"/>
    <linearGradient id="linear-gradient-65" x1="1517.94" y1="1099.46" x2="1533.41" y2="1099.46" gradientTransform="matrix(-0.3, -0.17, 0.48, -0.83, 495.76, 1376.22)" xlink:href="#linear-gradient-16"/>
    <linearGradient id="linear-gradient-66" x1="1507.39" y1="1099.65" x2="1516.94" y2="1099.65" gradientTransform="matrix(-0.3, -0.17, 0.48, -0.83, 495.76, 1376.22)" xlink:href="#linear-gradient-16"/>
    <linearGradient id="linear-gradient-67" x1="1496.5" y1="1089.12" x2="1500.25" y2="1089.12" gradientTransform="matrix(-0.3, -0.17, 0.48, -0.83, 495.76, 1376.22)" xlink:href="#linear-gradient-16"/>
    <linearGradient id="linear-gradient-68" x1="1520.62" y1="1078.76" x2="1529.71" y2="1078.76" gradientTransform="matrix(-0.3, -0.17, 0.48, -0.83, 495.76, 1376.22)" xlink:href="#linear-gradient-16"/>
    <linearGradient id="linear-gradient-69" x1="1539.07" y1="1078.76" x2="1544.87" y2="1078.76" gradientTransform="matrix(-0.3, -0.17, 0.48, -0.83, 495.76, 1376.22)" xlink:href="#linear-gradient-16"/>
    <linearGradient id="linear-gradient-70" x1="1416.58" y1="1134.06" x2="1508.92" y2="1134.06" gradientTransform="matrix(0.24, -0.75, 0.88, 0.28, -820.18, 1092.62)" xlink:href="#linear-gradient-16"/>
    <linearGradient id="linear-gradient-71" x1="1427.45" y1="1133.63" x2="1506.21" y2="1133.63" gradientTransform="matrix(0.24, -0.75, 0.88, 0.28, -820.18, 1092.62)" xlink:href="#linear-gradient-16"/>
    <linearGradient id="linear-gradient-72" x1="1491.11" y1="1137.13" x2="1498.55" y2="1137.13" gradientTransform="matrix(0.24, -0.75, 0.88, 0.28, -820.18, 1092.62)" xlink:href="#linear-gradient-16"/>
    <linearGradient id="linear-gradient-73" x1="1468" y1="1139.52" x2="1483.46" y2="1139.52" gradientTransform="matrix(0.24, -0.75, 0.88, 0.28, -820.18, 1092.62)" xlink:href="#linear-gradient-16"/>
    <linearGradient id="linear-gradient-74" x1="1457.45" y1="1139.7" x2="1466.99" y2="1139.7" gradientTransform="matrix(0.24, -0.75, 0.88, 0.28, -820.18, 1092.62)" xlink:href="#linear-gradient-16"/>
    <linearGradient id="linear-gradient-75" x1="1446.55" y1="1129.18" x2="1450.31" y2="1129.18" gradientTransform="matrix(0.24, -0.75, 0.88, 0.28, -820.18, 1092.62)" xlink:href="#linear-gradient-16"/>
    <linearGradient id="linear-gradient-76" x1="1470.68" y1="1118.82" x2="1479.77" y2="1118.82" gradientTransform="matrix(0.24, -0.75, 0.88, 0.28, -820.18, 1092.62)" xlink:href="#linear-gradient-16"/>
    <linearGradient id="linear-gradient-77" x1="1489.12" y1="1118.82" x2="1494.93" y2="1118.82" gradientTransform="matrix(0.24, -0.75, 0.88, 0.28, -820.18, 1092.62)" xlink:href="#linear-gradient-16"/>
    <linearGradient id="linear-gradient-78" x1="1354.09" y1="1271.21" x2="1446.44" y2="1271.21" gradientTransform="matrix(-0.61, 0.07, -0.09, -0.7, 1446.34, 1121.32)" xlink:href="#linear-gradient-16"/>
    <linearGradient id="linear-gradient-79" x1="1364.96" y1="1270.79" x2="1443.72" y2="1270.79" gradientTransform="matrix(-0.61, 0.07, -0.09, -0.7, 1446.34, 1121.32)" xlink:href="#linear-gradient-16"/>
    <linearGradient id="linear-gradient-80" x1="1428.62" y1="1274.28" x2="1436.06" y2="1274.28" gradientTransform="matrix(-0.61, 0.07, -0.09, -0.7, 1446.34, 1121.32)" xlink:href="#linear-gradient-16"/>
    <linearGradient id="linear-gradient-81" x1="1405.51" y1="1276.67" x2="1420.98" y2="1276.67" gradientTransform="matrix(-0.61, 0.07, -0.09, -0.7, 1446.34, 1121.32)" xlink:href="#linear-gradient-16"/>
    <linearGradient id="linear-gradient-82" x1="1394.96" y1="1276.86" x2="1404.51" y2="1276.86" gradientTransform="matrix(-0.61, 0.07, -0.09, -0.7, 1446.34, 1121.32)" xlink:href="#linear-gradient-16"/>
    <linearGradient id="linear-gradient-83" x1="1384.07" y1="1266.34" x2="1387.82" y2="1266.34" gradientTransform="matrix(-0.61, 0.07, -0.09, -0.7, 1446.34, 1121.32)" xlink:href="#linear-gradient-16"/>
    <linearGradient id="linear-gradient-84" x1="1408.19" y1="1255.97" x2="1417.28" y2="1255.97" gradientTransform="matrix(-0.61, 0.07, -0.09, -0.7, 1446.34, 1121.32)" xlink:href="#linear-gradient-16"/>
    <linearGradient id="linear-gradient-85" x1="1426.64" y1="1255.98" x2="1432.44" y2="1255.98" gradientTransform="matrix(-0.61, 0.07, -0.09, -0.7, 1446.34, 1121.32)" xlink:href="#linear-gradient-16"/>
    <linearGradient id="linear-gradient-86" x1="1382.13" y1="1207.48" x2="1474.47" y2="1207.48" gradientTransform="matrix(-0.68, -0.02, -0.02, 0.82, 1572.39, -579.28)" xlink:href="#linear-gradient-16"/>
    <linearGradient id="linear-gradient-87" x1="1392.99" y1="1207.06" x2="1471.75" y2="1207.06" gradientTransform="matrix(-0.68, -0.02, -0.02, 0.82, 1572.39, -579.28)" xlink:href="#linear-gradient-16"/>
    <linearGradient id="linear-gradient-88" x1="1456.66" y1="1210.55" x2="1464.09" y2="1210.55" gradientTransform="matrix(-0.68, -0.02, -0.02, 0.82, 1572.39, -579.28)" xlink:href="#linear-gradient-16"/>
    <linearGradient id="linear-gradient-89" x1="1433.54" y1="1212.94" x2="1449.01" y2="1212.94" gradientTransform="matrix(-0.68, -0.02, -0.02, 0.82, 1572.39, -579.28)" xlink:href="#linear-gradient-16"/>
    <linearGradient id="linear-gradient-90" x1="1423" y1="1213.13" x2="1432.54" y2="1213.13" gradientTransform="matrix(-0.68, -0.02, -0.02, 0.82, 1572.39, -579.28)" xlink:href="#linear-gradient-16"/>
    <linearGradient id="linear-gradient-91" x1="1412.1" y1="1202.61" x2="1415.85" y2="1202.61" gradientTransform="matrix(-0.68, -0.02, -0.02, 0.82, 1572.39, -579.28)" xlink:href="#linear-gradient-16"/>
    <linearGradient id="linear-gradient-92" x1="1436.23" y1="1192.25" x2="1445.31" y2="1192.25" gradientTransform="matrix(-0.68, -0.02, -0.02, 0.82, 1572.39, -579.28)" xlink:href="#linear-gradient-16"/>
    <linearGradient id="linear-gradient-93" x1="1454.67" y1="1192.25" x2="1460.48" y2="1192.25" gradientTransform="matrix(-0.68, -0.02, -0.02, 0.82, 1572.39, -579.28)" xlink:href="#linear-gradient-16"/>
    <linearGradient id="linear-gradient-94" x1="1468.06" y1="1193.28" x2="1560.41" y2="1193.28" gradientTransform="matrix(-0.53, -0.31, -0.46, 0.8, 2021.92, -73.62)" xlink:href="#linear-gradient-16"/>
    <linearGradient id="linear-gradient-95" x1="1478.93" y1="1192.86" x2="1557.69" y2="1192.86" gradientTransform="matrix(-0.53, -0.31, -0.46, 0.8, 2021.92, -73.62)" xlink:href="#linear-gradient-16"/>
    <linearGradient id="linear-gradient-96" x1="1542.59" y1="1196.35" x2="1550.03" y2="1196.35" gradientTransform="matrix(-0.53, -0.31, -0.46, 0.8, 2021.92, -73.62)" xlink:href="#linear-gradient-16"/>
    <linearGradient id="linear-gradient-97" x1="1519.48" y1="1198.74" x2="1534.95" y2="1198.74" gradientTransform="matrix(-0.53, -0.31, -0.46, 0.8, 2021.92, -73.62)" xlink:href="#linear-gradient-16"/>
    <linearGradient id="linear-gradient-98" x1="1508.93" y1="1198.93" x2="1518.48" y2="1198.93" gradientTransform="matrix(-0.53, -0.31, -0.46, 0.8, 2021.92, -73.62)" xlink:href="#linear-gradient-16"/>
    <linearGradient id="linear-gradient-99" x1="1498.04" y1="1188.41" x2="1501.79" y2="1188.41" gradientTransform="matrix(-0.53, -0.31, -0.46, 0.8, 2021.92, -73.62)" xlink:href="#linear-gradient-16"/>
    <linearGradient id="linear-gradient-100" x1="1522.17" y1="1178.05" x2="1531.25" y2="1178.05" gradientTransform="matrix(-0.53, -0.31, -0.46, 0.8, 2021.92, -73.62)" xlink:href="#linear-gradient-16"/>
    <linearGradient id="linear-gradient-101" x1="1540.61" y1="1178.05" x2="1546.41" y2="1178.05" gradientTransform="matrix(-0.53, -0.31, -0.46, 0.8, 2021.92, -73.62)" xlink:href="#linear-gradient-16"/>
    <linearGradient id="linear-gradient-102" x1="745" y1="393.75" x2="760.3" y2="393.75" gradientTransform="matrix(1, 0, 0, 1, 0, 0)" xlink:href="#linear-gradient-16"/>
    <linearGradient id="linear-gradient-103" x1="749.29" y1="404.01" x2="759.6" y2="404.01" gradientTransform="matrix(1, 0, 0, 1, 0, 0)" xlink:href="#linear-gradient-16"/>
    <linearGradient id="linear-gradient-104" x1="1585.18" y1="1165.62" x2="1592.62" y2="1165.62" gradientTransform="matrix(-0.59, 0.32, -0.5, -0.92, 2278.33, 961.53)" xlink:href="#linear-gradient-16"/>
    <linearGradient id="linear-gradient-105" x1="759.29" y1="411.27" x2="760.07" y2="411.27" gradientTransform="matrix(1, 0, 0, 1, 0, 0)" xlink:href="#linear-gradient-16"/>
    <linearGradient id="linear-gradient-106" x1="439" y1="608.5" x2="762" y2="608.5" gradientUnits="userSpaceOnUse">
      <stop offset="0" stop-color="#e6e6e6"/>
      <stop offset="1" stop-color="#d2ffff"/>
    </linearGradient>
    <linearGradient id="linear-gradient-107" x1="673.84" y1="684.06" x2="482.71" y2="707.85" gradientUnits="userSpaceOnUse">
      <stop offset="0" stop-color="#fff"/>
      <stop offset="1" stop-color="#c8ffff"/>
    </linearGradient>
    <linearGradient id="linear-gradient-108" x1="663.27" y1="570.19" x2="524.7" y2="587.44" xlink:href="#linear-gradient-107"/>
  </defs>
  <title>wheel</title>
  <g id="Layer_2" data-name="Layer 2">
    <g id="summer" class="buttons" data-season="summer">
      <path class="wheel-cls-1" d="M439,124V447H116a321.69,321.69,0,0,1,30.52-137.23q3.69-7.89,7.82-15.53,2.58-4.82,5.33-9.52a324.51,324.51,0,0,1,110-112.82q4.66-2.88,9.42-5.6c1.18-.68,2.37-1.34,3.57-2A319.51,319.51,0,0,1,328,143.58h0q5.78-2.12,11.64-4A322.7,322.7,0,0,1,439,124Z"/>
      <g>
        <path class="wheel-cls-2" d="M344.54,263.65a93.64,93.64,0,0,1-184.87,21.07,324.51,324.51,0,0,1,110-112.82A93.65,93.65,0,0,1,344.54,263.65Z"/>
        <path class="wheel-cls-3" d="M159.82,308l-13.3,1.8q3.69-7.89,7.82-15.53A100.47,100.47,0,0,0,159.82,308Z"/>
        <path class="wheel-cls-4" d="M186,341.34l-54.57,33.75,37.15-52.54A101.49,101.49,0,0,0,186,341.34Z"/>
        <path class="wheel-cls-5" d="M223.55,361.19l-36,52.87L200,351.24A100.29,100.29,0,0,0,223.55,361.19Z"/>
        <path class="wheel-cls-6" d="M266.1,363.8l-11.42,63-14.11-62.42c3.41.34,6.86.52,10.35.52A102.63,102.63,0,0,0,266.1,363.8Z"/>
        <path class="wheel-cls-7" d="M282.69,167.41c-1.19-.39-2.4-.76-3.61-1.11,1.18-.68,2.37-1.34,3.57-2Z"/>
        <path class="wheel-cls-8" d="M321.22,411.18l-38.36-51.39a100.66,100.66,0,0,0,23.08-11.09Z"/>
        <path class="wheel-cls-9" d="M339.65,139.57l-21,48.77a101.46,101.46,0,0,0-21.79-15L328,143.58h0Q333.79,141.46,339.65,139.57Z"/>
        <path class="wheel-cls-10" d="M375.64,369.82l-56.26-31.53A101.76,101.76,0,0,0,336,318.62Z"/>
        <path class="wheel-cls-11" d="M391.68,177.25,343.29,222a101.15,101.15,0,0,0-13.89-22.37Z"/>
        <path class="wheel-cls-12" d="M408.53,309.9l-64.64-6A101,101,0,0,0,351.06,279Z"/>
        <path class="wheel-cls-13" d="M414.2,241.78l-62,21a101.22,101.22,0,0,0-3.57-25.92Z"/>
      </g>
    </g>
    <g id="spring" class="buttons" data-season="spring">
      <path class="wheel-cls-14" d="M439,447V770a321.47,321.47,0,0,1-155.44-39.8q-6.07-3.33-12-6.91-12.93-7.85-25-16.85-4.26-3.15-8.39-6.45a324.6,324.6,0,0,1-61.3-64.23q-3.45-4.77-6.71-9.67a319.59,319.59,0,0,1-16.72-28q-1.84-3.47-3.59-7c-.63-1.25-1.25-2.5-1.85-3.76-.06-.12-.12-.23-.17-.35-.17-.35-.34-.69-.49-1-.39-.8-.77-1.61-1.15-2.42-.21-.44-.42-.89-.62-1.34a2.39,2.39,0,0,1-.13-.28h0c-1.18-2.53-2.31-5.07-3.41-7.64-.06-.14-.12-.27-.17-.41-.16-.36-.32-.73-.47-1.09v0q-2.07-4.87-4-9.82-.85-2.21-1.67-4.44a319.44,319.44,0,0,1-9.57-30.69A323.38,323.38,0,0,1,116,447Z"/>
      <g>
        <path class="wheel-cls-15" d="M343.39,557c0,1,0,1.94-.09,2.92q0,1.05-.12,2.1c0,.61-.09,1.22-.15,1.82,0,.25,0,.49-.08.73q-.34,3.45-1,6.87h0c-.22,1.23-.46,2.45-.73,3.67-.4,1.83-.86,3.64-1.36,5.45-8.23,29.57-26.57,55.16-41.05,81.84-11.11,20.46-22.3,44.85-15.28,67.82q-6.07-3.33-12-6.91a69.82,69.82,0,0,1,.9-22.88c2.56-12.86,7.59-25,13.64-36.77,4.73-9.19,10.07-18.13,15.34-27,2.49-4.19,5-8.35,7.35-12.51q1.21-2.11,2.4-4.23c.77-1.37,1.53-2.76,2.3-4.16,1.46-2.68,2.91-5.39,4.31-8.15,1.6-3.12,3.14-6.29,4.59-9.5,4.61-10.16,8.3-20.73,9.84-31.5a71.33,71.33,0,0,0,.73-13.38c0-.68-.06-1.37-.1-2.05a.76.76,0,0,1,0-.15c-.09-1.1-.19-2.19-.33-3.28-.06-.49-.12-1-.2-1.47-.11-.76-.24-1.52-.38-2.28l-.06-.33c0-.23-.09-.45-.14-.68q-.3-1.53-.69-3.06-.29-1.12-.63-2.25c-.05-.2-.11-.4-.17-.6-.13-.43-.27-.86-.41-1.29a5.37,5.37,0,0,1-.19-.74,4.33,4.33,0,0,1-.1-.93,4.21,4.21,0,0,1,.39-1.8,4.53,4.53,0,0,1,1.72-1.91h0l.11-.07a5.81,5.81,0,0,1,1.67-.68,6.15,6.15,0,0,1,1.35-.16,6,6,0,0,1,.73,0,5,5,0,0,1,4.24,3.52c.31,1,.6,1.89.87,2.85.07.22.13.45.19.68a.94.94,0,0,1,0,.16,70.6,70.6,0,0,1,2,10.2c0,.16,0,.32.05.48.12,1,.21,2,.28,3,.06.82.11,1.64.14,2.46a1.55,1.55,0,0,0,0,.22s0,0,0,0C343.39,554.41,343.41,555.69,343.39,557Z"/>
        <path class="wheel-cls-16" d="M326.49,538.34c-2.85,8.78-5.76,18.29-12.45,25-5.38,5.39-14,9.26-21.05,4.59-7.37-4.87-5.63-13.26,1.48-17.28,8.41-4.75,18.95-1,27.44,1.56l1.37-10.12c-12.55,1.13-26.64-.72-35.09-11.13-7.25-8.91-7.14-21.05,1.82-28.64,19.46-16.48,42.48,2.66,48.14,22.53,1.25,4.38,7,4.91,9.41,1.23,7-10.85,23.36-29.56,37.69-18,5.74,4.62,6.41,12.48.57,17.26-6.65,5.44-16.31,4.5-24.29,4-5-.29-7.18,7.39-2.6,9.6,10.68,5.17,13.3,19.78,2.79,26.74-10.28,6.8-23.22-1-23.47-12.95-.13-6.63-10.43-6.65-10.3,0,.4,19.55,21.91,32.78,39,21.84,16.71-10.71,15.12-35.86-2.79-44.52l-2.6,9.6c12,.7,25.35.47,33.84-9.34,6.95-8,6.17-19.44-.62-27.3-7.21-8.33-19.05-10.09-29.16-6.61-12.09,4.16-20.22,14.07-26.92,24.49l9.41,1.23C344.07,508,334.77,495,321,489a36.23,36.23,0,0,0-39.41,7c-10.94,10.55-11.69,26.87-3.09,39.15,10.1,14.42,28,18.72,44.74,17.21,5.63-.5,7.17-8.33,1.36-10.12-12.63-3.89-27.09-7.22-38.49,1.61-9.32,7.21-11.4,20.16-3.08,29.07s21.84,9.24,31.86,2.83c12.2-7.81,17.22-21.55,21.5-34.69,2.06-6.32-7.89-9-9.94-2.74Z"/>
        <path class="wheel-cls-16" d="M290.22,505.89l-5.12,7.74c-2.34,3.55,1.62,9.22,5.82,7.57l7.38-2.9L292,512l-6.15,21.12c-1.68,5.75,6.3,8.77,9.41,4l4.65-7.18-8.1,1,2.1,2.69,5-8.61a11,11,0,0,1-2-.47c.89.32-.73-.43-.93-.56.77.51-.46-.44-.63-.59s-.34-.35-.5-.54l-.09-.13a9.41,9.41,0,0,1-1.75-5.58c0-.2.16-2.14,0-1.19a12.38,12.38,0,0,1,.34-1.49,7.34,7.34,0,0,1,1.11-2.28,10.66,10.66,0,0,1,6-3.74c5.26-1.43,10.78-.05,15.4,3.44,5.34,4,8.83,10.07,11.62,16l8.09-6.25c-7.95-10.19-22.83-16.29-35-10.28-5.73,2.82-9.42,8.74-8.25,15.18,1.29,7.06,8.91,12.05,15.88,10.58,7.49-1.58,12.42-10.39,9.69-17.6-1.56-4.1-6.93-5.19-9.42-1.23-5.52,8.76,6.06,20.37,14.8,14.7h-5.2l14.23,10.38a5.17,5.17,0,0,0,6.25-.8c3.22-3.68,2.33-9.94-2.83-11.41-4.92-1.4-10.18,3.82-8.14,8.77,1.06,2.57,3.42,4.4,6.34,3.6,2.43-.67,4.66-3.75,3.59-6.34l-1.28,3.34-2.6.7-.43-.06-2.28-1.33a4.34,4.34,0,0,1-.69-2.63l1.33-2.27-.3.34,6.24-.81-14.23-10.37a5,5,0,0,0-5.2,0c-.85.55,0,0,.44.08-.51-.07-.47,0,0,.06-1-.12.38.34-.5-.2s.1.13-.29-.24c-.14-.13-.77-.95-.25-.27-.57-.75.16.15-.16-.27s.09.71,0-.2c0,.37-.52,1.35.06.43l-9.42-1.23a3.39,3.39,0,0,1-.4,3.75,2.22,2.22,0,0,1-3,.88,4.61,4.61,0,0,1-1.66-1.31,2.7,2.7,0,0,1-.53-1.83c0,.91.09-.42.16-.65.31-1.07-.24.32.29-.56s-.3.2.4-.53a9.61,9.61,0,0,1,.73-.7c-.3.21-.31.22,0,0a10.92,10.92,0,0,1,5.68-2.1c-.81.1.89,0,.89,0,.56,0,1.13,0,1.69,0a15.67,15.67,0,0,1,2.88.57,25.14,25.14,0,0,1,13.25,9.13c1.56,2,5,1.83,6.77.4a5.23,5.23,0,0,0,1.33-6.64c-5.91-12.58-16.07-24.5-30.95-25.08-6.46-.25-13.38,2-17.83,6.82a19,19,0,0,0-4.37,17.14c1.34,6.34,6.28,12.33,12.91,13.36,5.26.82,8.26-4.44,5-8.61l-2.1-2.69c-2.16-2.76-6.49-1.43-8.09,1l-4.65,7.18,9.42,4,6.15-21.12c1-3.49-2.6-7.81-6.33-6.34l-7.39,2.91,5.82,7.56,5.12-7.74c3.66-5.55-5.26-10.72-8.9-5.2Z"/>
        <path class="wheel-cls-16" d="M327,539,301.2,523.92c-3.06-1.78-8.26.42-7.76,4.45l.89,7.09c.31,2.55,2.11,5.44,5.15,5.15L337.73,537c3-.29,6.27-3.11,5-6.53-3.71-9.77-7.66-20-15.6-27.21-7.2-6.53-17.37-10.29-26.89-6.81-9.08,3.31-15.56,12.07-13.14,21.94,2.2,9,11.78,15.88,20.81,11.8,8.41-3.81,12.17-16.51,4.86-23.16-2.64-2.39-7.86-1.76-8.61,2.28-1.66,8.88,3.79,18.75,13.09,20.53,8.94,1.71,18.6-4.47,20.17-13.62.66-3.83-2.26-7.34-6.34-6.33L320,512.62l6.34,3.59c-.73-5.33-5.65-9.54-10.93-9.91-5.62-.39-10.24,3.38-12.15,8.42l9.41-1.23-5.51-7.87c-1.85-2.65-5.62-3.58-8.09-1l-4.19,4.31c-4.62,4.75,2.66,12.05,7.29,7.28l4.19-4.31-8.1-1,5.52,7.87a5.23,5.23,0,0,0,9.41-1.23,4.2,4.2,0,0,1,.7-.63c.42-.28.58-.34.76-.31,1.29.19,1.57,1.06,1.75,2.43.39,2.81,3.93,4.2,6.34,3.6l11.05-2.74-6.33-6.34a7,7,0,0,1-2.82,4.92A7.85,7.85,0,0,1,320,519.9a6.6,6.6,0,0,1-4.35-2.57,8,8,0,0,1-1.33-2.61,6.56,6.56,0,0,1-.22-2.68l-8.61,2.27a7.49,7.49,0,0,1,.7.68c0-.06-.46-.55-.11-.09.72.94,0-.08.28.68s.05.33,0,0c0,.31,0,.62,0,.94,0,.07-.09.84,0,.26s-.17.61-.2.74a9,9,0,0,1-.31.92c0-.1.28-.62,0-.1a11.62,11.62,0,0,1-.91,1.47c.49-.63-.5.44-.67.6-.61.55.57-.35-.11.08a7.87,7.87,0,0,1-1.05.6c1-.44-1.05.14-.4,0s-1.51-.13-.59,0a12.69,12.69,0,0,1-1.44-.41,4.86,4.86,0,0,1-1.07-.71,8.63,8.63,0,0,1-2.75-5c-.53-4.77,3.67-8.39,8.75-9.46a14.39,14.39,0,0,1,7.74.86,22.14,22.14,0,0,1,7.47,5c6,5.88,9,14,11.93,21.71l5-6.52-38.25,3.63,5.15,5.15-.88-7.09L296,532.81l25.84,15.07c5.74,3.34,10.93-5.56,5.2-8.9Z"/>
        <path class="wheel-cls-16" d="M347.31,524.31l16.15.85c5.28.28,6.77-7,2.6-9.6l-8.61-5.25-2.6,9.6,33.39-4.32c2.76-.36,5.15-2.11,5.15-5.15a5.23,5.23,0,0,0-5.15-5.15l-19.87-.89a5.15,5.15,0,1,0,0,10.3l9.28.48-5-6.52c-1.3,5.6.36,11.8,4.94,15.47v-7.28c-2.92,3.43-7.34,5.36-11.38,4.72v9.93l24.92-8.93-6.52-5a5.05,5.05,0,0,1-1.27,3.67,5.33,5.33,0,0,1-3.37,2,5.28,5.28,0,0,0-5.15,5.15c0,2.61,2.37,5.38,5.15,5.15,8.27-.68,15.07-7.45,14.94-15.94-.05-3.12-3.28-6.12-6.52-5l-24.92,8.93a5.32,5.32,0,0,0-3.78,5c0,2.08,1.58,4.61,3.78,5,7.92,1.27,16.1-1.14,21.41-7.37,1.65-1.93,2.3-5.43,0-7.28-2-1.57-2.76-3.43-2.3-5.45a5.22,5.22,0,0,0-5-6.52l-9.28-.48v10.3l19.87.89v-10.3l-33.39,4.32c-2.29.3-4.31,1.39-5,3.78a5.26,5.26,0,0,0,2.36,5.82l8.61,5.25,2.6-9.6L347.31,514a5.15,5.15,0,1,0,0,10.3Z"/>
        <path class="wheel-cls-16" d="M331.41,550c2.62,5.82,6.3,11.78,12.11,14.89s13.56,3.24,18.89-1.17S368.35,552.23,367,546s-5.86-11.72-6.65-18.14a6.36,6.36,0,0,1,.32-3.52c-.25.65.48-.77.68-1-.38.53.74-.74.92-.89a4.51,4.51,0,0,1,1.81-.92c.8-.19-.8,0,0,0,.13,0,1.05-.09.44,0s.2-.08.19.1c-.45-.2-.52-.21-.19,0s.27.16-.08-.08v-7.28c-4.31,3.37-8.69,6.68-12.93,10.16a42.52,42.52,0,0,0-9.88,10.8c-4.67,7.8-5,19.61,2.7,25.72,3.66,2.91,8.28,1,8.8-3.64q1.11-10,2.23-19.94c.31-2.77-2.59-5.15-5.15-5.15-3.05,0-4.85,2.37-5.16,5.15l-2.22,19.94,8.79-3.65a16.28,16.28,0,0,1-1.57-1.45c.08.1-.92-1.62-.71-1.13a8.42,8.42,0,0,1-.77-4.2,10.77,10.77,0,0,1,.86-4.33,20,20,0,0,1,2.57-4.32,49.79,49.79,0,0,1,8.11-7.58c3.85-3.06,7.75-6.07,11.62-9.1,2.09-1.63,1.91-5.62,0-7.28-5.07-4.41-11.7-3.46-16.56.77-5.28,4.6-6.06,11.65-4.18,18.09a73.94,73.94,0,0,0,4,9.74,27.48,27.48,0,0,1,2.23,7,15.16,15.16,0,0,1,.09,1.78,7.82,7.82,0,0,1-.05,1.21,8.77,8.77,0,0,1-.53,1.9c.28-.63-.75,1-.4.61-.13.15-1,.94-.69.71a5.83,5.83,0,0,1-.73.43c-.79.42.53-.15-.32.15-.33.11-1.32.34-1.27.33a14,14,0,0,1-1.92,0,10.89,10.89,0,0,1-3-1,12.81,12.81,0,0,1-3.15-2.6,31.23,31.23,0,0,1-5-8.45c-1.14-2.54-4.83-3.15-7.05-1.85-2.61,1.53-3,4.5-1.85,7.05Z"/>
        <path class="wheel-cls-16" d="M345.85,571.94c9.32-1.6,19.19-6.61,21-16.81,1.6-9-5.14-17.76-14.69-16.64-9.28,1.09-12.54,12-6.34,18.61a9.57,9.57,0,0,0,10.93,2.3c3.9-1.72,5.85-5.44,6.18-9.56.36-4.33-1.14-8.68-3-12.51-3-6.1-6.18-12.09-9.26-18.12-1.93-3.78-6.77-2.87-8.9,0a215.18,215.18,0,0,1-29.62,32.27c-1.75,1.55-10.25,10.29-13,7.14-1-1.19.07-3.59.86-4.59,1.93-2.42,5.28-3.74,8.05-4.89l-5.82-2.37c.9,1.92-.66,4.43-2.54,5l2.74,9.94,11.18-4.4-6.34-3.6c1.47,4.27-2.06,9.14-6.8,6.82l1,8.09,15.05-12.18c2.16-1.76,1.82-5.47,0-7.29-2.14-2.14-5.12-1.76-7.29,0l-15.05,12.18c-2.48,2-1.73,6.73,1.05,8.09,5.87,2.88,12.9,2.47,17.88-2.06A15.66,15.66,0,0,0,317.25,551c-.83-2.42-3.61-4.67-6.33-3.6l-11.18,4.4c-6,2.37-3.76,11.88,2.74,9.94a14.41,14.41,0,0,0,8.7-20.13c-.86-1.84-3.88-3.18-5.82-2.37-8.08,3.37-16.84,8.19-16.78,18.2a12.13,12.13,0,0,0,5.93,10.54c4.32,2.46,9.34,1.5,13.59-.56s7.84-5.51,11.34-8.62q5.7-5.07,11-10.53a232.81,232.81,0,0,0,20.2-23.82h-8.9l5.79,11.32c1.47,2.89,3.29,5.78,4.31,8.87.59,1.78.38,3.69.75,5.26,0,.17,1,.26.95.35,0,.67-.95-1.36-.73-1.1-.63-.75.55-.41-.22-.11a2.4,2.4,0,0,1,1.48-.29c1.95.27,2.85,1.85,2.77,3.7-.31,6.65-8.52,8.7-13.76,9.59-2.74.47-4.28,3.85-3.59,6.34.79,2.9,3.58,4.07,6.33,3.6Z"/>
        <path class="wheel-cls-16" d="M366.26,563.09c6.63,0,6.64-10.3,0-10.3s-6.64,10.3,0,10.3Z"/>
        <path class="wheel-cls-16" d="M366.26,557.93c6.63,0,6.64-10.3,0-10.3s-6.64,10.3,0,10.3Z"/>
        <path class="wheel-cls-16" d="M361.1,566.53c6.63,0,6.64-10.3,0-10.3s-6.64,10.3,0,10.3Z"/>
        <path class="wheel-cls-16" d="M295.78,573.41c6.63,0,6.64-10.31,0-10.31s-6.65,10.31,0,10.31Z"/>
        <path class="wheel-cls-16" d="M290.62,566.53c6.63,0,6.64-10.3,0-10.3s-6.64,10.3,0,10.3Z"/>
        <path class="wheel-cls-16" d="M290.62,564.81c6.63,0,6.64-10.3,0-10.3s-6.64,10.3,0,10.3Z"/>
        <path class="wheel-cls-17" d="M333.6,551.05c17.68,0,17.71-27.48,0-27.48s-17.71,27.48,0,27.48Z"/>
      </g>
      <g>
        <path class="wheel-cls-15" d="M196,574.86c0,1,0,1.95-.09,2.92,0,.7-.07,1.41-.12,2.11s-.09,1.2-.15,1.8c0,.24,0,.49-.07.74-.23,2.3-.56,4.6-1,6.89-.22,1.22-.46,2.44-.74,3.66-.39,1.83-.85,3.65-1.35,5.46-3.63,13.07-9.25,25.36-15.64,37.32q-3.45-4.77-6.71-9.67c6.77-13.17,12.66-27.21,14.72-41.59a71,71,0,0,0,.73-13.36c0-.68-.06-1.37-.1-2.06a.86.86,0,0,1,0-.16c-.09-1.09-.19-2.18-.33-3.27-.06-.5-.13-1-.2-1.48-.11-.76-.24-1.51-.38-2.27l-.06-.34c0-.22-.09-.45-.14-.67q-.3-1.53-.69-3.06c-.19-.76-.4-1.51-.63-2.26,0-.19-.11-.39-.17-.59-.13-.43-.27-.86-.41-1.29a4.13,4.13,0,0,1-.19-.75,4.33,4.33,0,0,1-.1-.93,4.16,4.16,0,0,1,.39-1.79,4.53,4.53,0,0,1,1.72-1.91h0a.37.37,0,0,1,.12-.07,5.69,5.69,0,0,1,1.65-.68,6.17,6.17,0,0,1,1.36-.16,4.47,4.47,0,0,1,.73,0,5,5,0,0,1,4.24,3.52c.31.94.6,1.89.87,2.84.07.23.13.45.18.67a1.09,1.09,0,0,1,.05.17,70.83,70.83,0,0,1,2,10.22l.06.47c.11,1,.2,2,.27,3,.06.83.11,1.66.14,2.49a1.34,1.34,0,0,0,0,.2C196,572.28,196,573.57,196,574.86Z"/>
        <path class="wheel-cls-16" d="M185.78,552.92l-1.81.24c-.36.6-.72,1.21-1.07,1.82.06.2.12.4.17.59l5.6-.53A5.11,5.11,0,0,0,185.78,552.92Zm0,0-1.81.24c-.36.6-.72,1.21-1.07,1.82.06.2.12.4.17.59l5.6-.53A5.11,5.11,0,0,0,185.78,552.92Zm0,0-1.81.24c-.36.6-.72,1.21-1.07,1.82.06.2.12.4.17.59l5.6-.53A5.11,5.11,0,0,0,185.78,552.92Zm0,0-1.81.24c-.36.6-.72,1.21-1.07,1.82.06.2.12.4.17.59l5.6-.53A5.11,5.11,0,0,0,185.78,552.92Zm61.59-32c-7.21-8.33-19.05-10.1-29.16-6.62-8.83,3-15.53,9.13-21.11,16.25-4.92-10.24-12.86-19-23.44-23.64a36.21,36.21,0,0,0-39.41,7,28.94,28.94,0,0,0-8.07,13.85,319.44,319.44,0,0,0,9.57,30.69,37.42,37.42,0,0,0,3.48,3,4.84,4.84,0,0,0-.46.33q-.71.54-1.35,1.14,1.89,5,4,9.82v0c.15.36.31.73.47,1.09a9.35,9.35,0,0,1,.84-1.41,13.37,13.37,0,0,1,4.39-3.89,16.34,16.34,0,0,1,2.88-1.28c1.33.49,2.68.92,4.06,1.3l.67.18q.74.19,1.5.36c.84.2,1.69.37,2.55.52,1.66.3,3.32.52,5,.68h0l.76.06q2.9.24,5.81.19h.37c1.06,0,2.13,0,3.19-.12a44.15,44.15,0,0,1-3.45,6.16,31.62,31.62,0,0,1-3.79,4.64c-.27.27-.53.52-.82.78h0c-3.48,3.2-8.09,5.7-12.73,5.87a12.25,12.25,0,0,1-5.27-.9c0,.12.11.23.17.35.6,1.26,1.22,2.51,1.85,3.76q1.74,3.51,3.59,7a27.68,27.68,0,0,0,14.11-4.41c6.34-4.06,10.75-9.72,14.11-16.07a25.84,25.84,0,0,0,3.22,6.91,26.56,26.56,0,0,0,9,8.48,23.58,23.58,0,0,0,3.51,1.69,24.21,24.21,0,0,0,10.16,1.7l.26,0a21.7,21.7,0,0,0,2.75-.33h0a8.71,8.71,0,0,0,.86-.17h0a24.74,24.74,0,0,0,8.12-3.4c.45-.29.9-.59,1.32-.91a24.78,24.78,0,0,0,6.49-6.94c.31-.5.6-1,.87-1.51.15-.28.29-.56.43-.85a25.67,25.67,0,0,0,2.46-9.2,26.14,26.14,0,0,0-3.72-15.53c7.77-.7,15.18-3.06,20.6-9.32C254.94,540.16,254.16,528.75,247.37,520.89Zm-104-1.3a27.34,27.34,0,0,1,5.93-3.64h0c12.5-5.55,25.47,1.28,33.79,12a45.26,45.26,0,0,1,5.81,9.76,41.22,41.22,0,0,1,1.64,4.41.08.08,0,0,0,0,0l.18.62a5,5,0,0,0,5.68,3.61h0l.17,0a5.26,5.26,0,0,0,3.55-2.36c.35-.54.71-1.09,1.1-1.66v0c.71-1,1.48-2.1,2.32-3.2q.19-.27.42-.54c.33-.43.68-.87,1-1.31,1.14-1.41,2.38-2.83,3.69-4.2h0c.2-.21.39-.41.6-.61.65-.67,1.31-1.31,2-1.94h0c.32-.29.64-.58,1-.86a42.05,42.05,0,0,1,3.54-2.79c.24-.16.46-.33.71-.48h0a27.91,27.91,0,0,1,4.37-2.39,18.84,18.84,0,0,1,4.58-1.39h0a.31.31,0,0,1,.13,0,14.47,14.47,0,0,1,6.1.27,14.94,14.94,0,0,1,3,1.18h0a17.55,17.55,0,0,1,3,2,13,13,0,0,1,3,3.38,10.65,10.65,0,0,1,.59,1.1,10.51,10.51,0,0,1,.89,2.73h0a10.07,10.07,0,0,1-.62,5.75,10.54,10.54,0,0,1-1.94,3h0a12.51,12.51,0,0,1-1.34,1.27,17.51,17.51,0,0,1-5.9,3.13s0,0,0,0a25.39,25.39,0,0,1-4.93,1q-1.8.21-3.63.24h0c-1.71,0-3.42,0-5.1-.09s-3.1-.16-4.57-.25h-.14a4.34,4.34,0,0,0-.89,0l-.06,0a4.72,4.72,0,0,0-3.39,2.48,5.55,5.55,0,0,0-.62,1.63,4.65,4.65,0,0,0,2.36,5.44,17,17,0,0,1,2.28,1.33,16.67,16.67,0,0,1,6,7.47c0,.14.11.27.15.41v0a15.52,15.52,0,0,1,1,5.05,14.22,14.22,0,0,1-.24,3,14.76,14.76,0,0,1-.35,1.46,13.84,13.84,0,0,1-1.72,3.63,12.56,12.56,0,0,1-1.2,1.57,15.74,15.74,0,0,1-3.16,2.74,15.3,15.3,0,0,1-1.39.82,14.39,14.39,0,0,1-10.52,1.21,15,15,0,0,1-4.27-1.89h0a16.5,16.5,0,0,1-2.51-2,14.8,14.8,0,0,1-1.19-1.31,15.9,15.9,0,0,1-3.58-9.78,5.27,5.27,0,0,0-.52-2.23,4.94,4.94,0,0,0-3.6-2.62c.46-1.27.9-2.55,1.33-3.83l.57-1.71h0v0s0,0,0,0h0c.13-.38.25-.77.38-1.15a5.22,5.22,0,0,0,.27-1.85,4.06,4.06,0,0,0-.65-2.09,5.11,5.11,0,0,0-2.89-2.12,5.82,5.82,0,0,0-3.48,0,4.74,4.74,0,0,0-2.52,1.91,5.08,5.08,0,0,0-.56,1.09c0,.1-.08.2-.11.3l-.09.27-.12.37c-.37,1.14-.74,2.3-1.13,3.46a3.82,3.82,0,0,0-.51-.18l-2.12-.64h0l-1.71-.5c-2.46-.69-5-1.33-7.5-1.82h0a52.66,52.66,0,0,0-7.84-1h0a34.06,34.06,0,0,0-7.22.37,29.07,29.07,0,0,1-3-1.62c-.21-.12-.41-.25-.62-.39a26.85,26.85,0,0,1-3.82-3,26.21,26.21,0,0,1-2.59-2.76c-.24-.29-.47-.59-.69-.89h0c-.15-.2-.29-.38-.43-.58l0-.06-.1-.15c-5.93-8.72-5.32-19.83,3.09-26.95.25-.21.5-.42.75-.61Zm42.39,33.33-1.81.24c-.36.6-.72,1.21-1.07,1.82.06.2.12.4.17.59l5.6-.53A5.11,5.11,0,0,0,185.78,552.92Zm0,0-1.81.24c-.36.6-.72,1.21-1.07,1.82.06.2.12.4.17.59l5.6-.53A5.11,5.11,0,0,0,185.78,552.92Zm0,0-1.81.24c-.36.6-.72,1.21-1.07,1.82.06.2.12.4.17.59l5.6-.53A5.11,5.11,0,0,0,185.78,552.92Z"/>
        <path class="wheel-cls-16" d="M142.84,523.78l-5.12,7.75c-2.34,3.55,1.62,9.22,5.82,7.57l7.38-2.91-6.33-6.33L138.43,551c-1.67,5.76,6.31,8.78,9.42,4l4.64-7.18-8.09,1,2.1,2.68,5-8.61a10.23,10.23,0,0,1-1.95-.46c.89.32-.73-.44-.93-.57.77.51-.46-.43-.63-.58s-.34-.35-.5-.54l-.09-.13a9.52,9.52,0,0,1-1.76-5.58c0-.2.17-2.15,0-1.19a13,13,0,0,1,.34-1.5,7.57,7.57,0,0,1,1.11-2.28,10.73,10.73,0,0,1,6-3.74c5.25-1.42,10.77,0,15.4,3.45,5.33,4,8.83,10.07,11.62,16l8.09-6.24c-8-10.19-22.83-16.29-35-10.29-5.73,2.83-9.42,8.74-8.25,15.19,1.28,7.06,8.91,12.05,15.87,10.58,7.5-1.58,12.43-10.4,9.7-17.61-1.56-4.1-6.93-5.18-9.42-1.23-5.52,8.76,6.06,20.37,14.8,14.71h-5.2l14.23,10.38a5.15,5.15,0,0,0,6.24-.81c3.23-3.67,2.33-9.94-2.82-11.4-4.92-1.4-10.18,3.82-8.14,8.77,1.06,2.57,3.42,4.39,6.33,3.59,2.44-.67,4.67-3.75,3.6-6.33l-1.29,3.34-2.6.7-.42-.06-2.28-1.33a4.36,4.36,0,0,1-.69-2.63l1.33-2.27-.3.34,6.24-.81L175.87,542a5,5,0,0,0-5.2,0c-.85.56,0,0,.44.09-.51-.08-.47,0,0,.06-1-.12.37.34-.5-.2s.1.13-.29-.24c-.14-.13-.77-1-.26-.27-.56-.75.17.15-.15-.27s.09.71,0-.2c0,.37-.53,1.35.06.42l-9.42-1.23a3.42,3.42,0,0,1-.4,3.76,2.22,2.22,0,0,1-3,.88,4.72,4.72,0,0,1-1.66-1.31,2.72,2.72,0,0,1-.53-1.84c0,.91.09-.41.16-.64.31-1.08-.24.31.29-.56s-.3.19.4-.53a9.61,9.61,0,0,1,.73-.7c-.3.21-.31.22,0,0a10.92,10.92,0,0,1,5.68-2.09c-.81.1.89,0,.89,0,.56,0,1.13,0,1.69,0a16.59,16.59,0,0,1,2.88.57,25.2,25.2,0,0,1,13.25,9.14c1.56,2,5,1.83,6.77.4a5.23,5.23,0,0,0,1.32-6.65C183.11,528,173,516.08,158.07,515.5c-6.46-.25-13.38,2-17.83,6.82a19,19,0,0,0-4.37,17.14c1.34,6.34,6.28,12.33,12.91,13.36,5.26.82,8.26-4.44,5-8.61l-2.1-2.69c-2.16-2.76-6.49-1.44-8.09,1L139,549.74l9.42,4,6.15-21.11c1-3.49-2.6-7.81-6.34-6.34l-7.38,2.9,5.82,7.57,5.11-7.75c3.67-5.54-5.25-10.71-8.89-5.2Z"/>
        <path class="wheel-cls-16" d="M179.66,556.88l-25.85-15.07c-3.05-1.78-8.25.43-7.75,4.45l.89,7.1c.31,2.55,2.11,5.44,5.15,5.15l38.25-3.63c3-.28,6.26-3.11,5-6.52-3.71-9.77-7.66-20-15.6-27.22-7.21-6.52-17.37-10.28-26.89-6.81-9.08,3.31-15.56,12.07-13.14,21.95,2.2,9,11.78,15.87,20.81,11.79,8.41-3.8,12.17-16.5,4.86-23.15-2.64-2.4-7.86-1.76-8.62,2.27-1.65,8.89,3.8,18.76,13.1,20.54,8.94,1.71,18.6-4.48,20.17-13.62.66-3.83-2.26-7.35-6.34-6.34l-11,2.74,6.34,3.6c-.73-5.34-5.65-9.54-10.93-9.91-5.62-.39-10.24,3.37-12.15,8.42l9.41-1.23-5.51-7.87c-1.86-2.65-5.62-3.59-8.09-1l-4.19,4.31c-4.62,4.76,2.66,12.05,7.29,7.29l4.18-4.31-8.09-1,5.52,7.87a5.23,5.23,0,0,0,9.41-1.23,5.23,5.23,0,0,1,.69-.64c.43-.27.59-.33.77-.3,1.29.19,1.57,1.06,1.75,2.43.39,2.81,3.93,4.2,6.34,3.6l11-2.74-6.34-6.34a7,7,0,0,1-2.81,4.92,7.76,7.76,0,0,1-4.68,1.5,6.6,6.6,0,0,1-4.35-2.57,7.69,7.69,0,0,1-1.33-2.61,6.54,6.54,0,0,1-.22-2.68l-8.61,2.28a7.49,7.49,0,0,1,.7.68c-.06-.06-.46-.55-.11-.09.72.93,0-.08.28.67s.05.33,0,0c0,.31,0,.62,0,.94,0,.07-.09.83,0,.26s-.17.61-.2.73a7.86,7.86,0,0,1-.32.93c0-.1.29-.62,0-.11a10.62,10.62,0,0,1-.9,1.48c.49-.63-.5.43-.67.6-.61.55.57-.36-.11.08a7.8,7.8,0,0,1-1,.59c1-.43-1.05.15-.4.06s-1.51-.13-.59,0a14.43,14.43,0,0,1-1.44-.41,5.24,5.24,0,0,1-1.07-.71,8.57,8.57,0,0,1-2.75-5c-.54-4.78,3.67-8.4,8.75-9.46a14.2,14.2,0,0,1,7.74.86,22,22,0,0,1,7.47,5c6,5.88,9,14,11.93,21.71l5-6.52L152.1,548.2l5.15,5.16-.88-7.1-7.76,4.45,25.85,15.06c5.74,3.35,10.93-5.55,5.2-8.89Z"/>
        <path class="wheel-cls-16" d="M199.93,542.21l16.15.85c5.28.28,6.77-7,2.6-9.6l-8.61-5.25-2.6,9.6,33.39-4.32c2.76-.36,5.15-2.12,5.15-5.16a5.24,5.24,0,0,0-5.15-5.15L221,522.3a5.15,5.15,0,1,0,0,10.3l9.27.48-5-6.52A15.37,15.37,0,0,0,230.24,542v-7.28c-2.92,3.42-7.34,5.36-11.38,4.72v9.93l24.92-8.93-6.52-5a5.07,5.07,0,0,1-1.27,3.67,5.26,5.26,0,0,1-3.37,2,5.29,5.29,0,0,0-5.15,5.16c0,2.61,2.36,5.38,5.15,5.15,8.27-.68,15.07-7.45,14.94-15.94-.05-3.13-3.29-6.13-6.52-5l-24.92,8.94a5.31,5.31,0,0,0-3.78,5c0,2.09,1.58,4.62,3.78,5,7.91,1.26,16.1-1.15,21.41-7.37,1.65-1.94,2.3-5.43,0-7.28-2-1.58-2.77-3.43-2.3-5.45a5.22,5.22,0,0,0-5-6.52L221,522.3v10.3l19.87.89V523.18l-33.39,4.33c-2.29.29-4.31,1.39-5,3.78a5.27,5.27,0,0,0,2.36,5.82l8.61,5.25,2.6-9.6-16.15-.85a5.15,5.15,0,1,0,0,10.3Z"/>
        <path class="wheel-cls-16" d="M184,567.88c2.62,5.82,6.3,11.78,12.11,14.88S209.7,586,215,581.59s5.94-11.46,4.62-17.72-5.86-11.72-6.65-18.14a6.27,6.27,0,0,1,.32-3.52c-.25.65.48-.77.68-1-.38.52.74-.74.91-.9a4.6,4.6,0,0,1,1.82-.91c.8-.2-.8,0,0,0,.13,0,1.05-.09.44,0s.2-.08.19.1c-.46-.21-.52-.22-.19,0s.27.16-.08-.08v-7.28c-4.31,3.37-8.69,6.68-12.93,10.15A42.78,42.78,0,0,0,194.27,553c-4.66,7.8-5,19.6,2.71,25.72,3.65,2.9,8.28,1,8.8-3.65q1.11-10,2.23-19.93c.31-2.77-2.59-5.15-5.16-5.15-3,0-4.84,2.37-5.15,5.15q-1.11,10-2.23,19.93l8.8-3.64A16.28,16.28,0,0,1,202.7,570c.07.1-.92-1.62-.71-1.13a8.44,8.44,0,0,1-.77-4.2,10.72,10.72,0,0,1,.85-4.33,20.33,20.33,0,0,1,2.58-4.33,49.33,49.33,0,0,1,8.11-7.57c3.85-3.06,7.74-6.07,11.62-9.1,2.09-1.64,1.91-5.62,0-7.28-5.07-4.41-11.7-3.46-16.56.77-5.28,4.6-6.06,11.65-4.18,18.09a75.08,75.08,0,0,0,4,9.74,28.3,28.3,0,0,1,2.23,7,15,15,0,0,1,.09,1.77,6.22,6.22,0,0,1-.06,1.22,8.28,8.28,0,0,1-.52,1.89c.28-.62-.76,1-.4.61-.13.16-1,1-.69.71a5.44,5.44,0,0,1-.73.44c-.79.42.52-.15-.33.14-.32.11-1.31.34-1.26.34a18.21,18.21,0,0,1-1.92,0,11.28,11.28,0,0,1-3-1,12.59,12.59,0,0,1-3.15-2.59,31.23,31.23,0,0,1-5-8.45c-1.14-2.54-4.83-3.15-7.05-1.85-2.61,1.53-3,4.5-1.85,7Z"/>
        <path class="wheel-cls-16" d="M218.91,565.53a14,14,0,0,0-4.83-6.73c-.08-.22-.16-.43-.25-.65-.39-1-.83-2-1.29-2.92q-1.15-2.37-2.34-4.72l-.39-.76c-1.23-2.41-2.47-4.81-3.72-7.22l-.69-1.33c-.46-.88-.92-1.77-1.37-2.66l-.12-.24h0c-.21-.4-.42-.79-.62-1.19-1.81-3.55-6.19-3-8.48-.5-.15.16-.29.33-.42.5-.76,1-1.53,2-2.32,3l-1.49,1.92,0,0c-.29.38-.6.76-.9,1.14l-1.24,1.52q-1.14,1.41-2.31,2.79h0l-.52.62-.47.54-.35.41-.09.1q-1.22,1.41-2.46,2.79c-.78.88-1.58,1.75-2.38,2.61L178.53,556l-.14.14a2.13,2.13,0,0,1-.21.22c-1,1.06-2,2.12-3,3.16h0c-.38.4-.78.8-1.18,1.19q-1.5,1.51-3,3c-.89.86-1.79,1.71-2.7,2.54a2.32,2.32,0,0,0-.41-.22,4.66,4.66,0,0,0-2.58-1,15.28,15.28,0,0,0-1.35-5.4h0l-.06-.13a4.45,4.45,0,0,0-1.91-1.88,5.49,5.49,0,0,0-2.72-.72,3.16,3.16,0,0,0-1.19.24c-.83.35-1.66.71-2.49,1.09-6.56,3-12.92,7.18-14.09,14.53a0,0,0,0,0,0,0c.15.36.31.73.47,1.09,0,.14.11.27.17.41,1.1,2.57,2.23,5.11,3.41,7.64h0a2.39,2.39,0,0,0,.13.28c.2.45.41.9.62,1.34.38.81.76,1.62,1.15,2.42.15.35.32.69.49,1,0,.12.11.23.17.35a18.14,18.14,0,0,0,4.69,1.53,15.28,15.28,0,0,0,13.13-3.62,14.87,14.87,0,0,0,4.19-6.76l2.05-1.83q4.68-4.15,9.1-8.59c.65-.64,1.29-1.3,1.93-2,.12-.13.25-.25.36-.38.51-.52,1-1,1.52-1.57h0c.7-.72,1.39-1.46,2.07-2.2l1.61-1.75h0l0,0c1.47-1.64,2.92-3.29,4.34-5a2.05,2.05,0,0,0,.2-.23l.3-.35q2.26-2.65,4.42-5.39c.35.7.71,1.4,1.07,2.1l.15.3,1,2c.58,1.14,1.21,2.28,1.83,3.43a10.47,10.47,0,0,0-2.93,1.7,10.27,10.27,0,0,0-2,2.28,11.08,11.08,0,0,0-1.56,3.81h0c0,.21-.08.42-.11.63a9.94,9.94,0,0,0-.1,1.89h0a10.8,10.8,0,0,0,.67,3.51v0a.14.14,0,0,0,0,.07,11.6,11.6,0,0,0,1.75,3.16c.22.29.46.57.72.85a9.72,9.72,0,0,0,4.79,2.84,26.56,26.56,0,0,1-5.15,1.6c-.8.18-1.57.33-2.28.45h-.06a3.6,3.6,0,0,0-1.28.48,4,4,0,0,0-.9.7,5.61,5.61,0,0,0-1.42,5.16,4.81,4.81,0,0,0,2.47,3.08,6.25,6.25,0,0,0,3.87.52l1.17-.22a33.17,33.17,0,0,0,11.2-4.33c.52-.33,1-.68,1.5-1a20.1,20.1,0,0,0,3.74-3.63l0,0a2.56,2.56,0,0,0,.2-.26,16.52,16.52,0,0,0,1.94-3.31,12.5,12.5,0,0,0,.48-1.2,12.19,12.19,0,0,0,.39-1.21q.21-.78.36-1.59a14.68,14.68,0,0,0,.23-2.27h0A14.84,14.84,0,0,0,218.91,565.53Zm-13,2.47c.16,0,.29.07.29.1C206.18,568.34,206,568.23,205.9,568Z"/>
        <path class="wheel-cls-16" d="M218.88,581c6.63,0,6.64-10.31,0-10.31s-6.64,10.31,0,10.31Z"/>
        <path class="wheel-cls-16" d="M218.88,575.83c6.63,0,6.64-10.3,0-10.3s-6.64,10.3,0,10.3Z"/>
        <path class="wheel-cls-16" d="M213.72,584.43c6.63,0,6.64-10.31,0-10.31s-6.64,10.31,0,10.31Z"/>
        <path class="wheel-cls-16" d="M153.25,587.28a3.2,3.2,0,0,1-.15.61,5,5,0,0,1-.41,1,4.47,4.47,0,0,1-2.84,2.23c-.63-1.25-1.25-2.5-1.85-3.76-.06-.12-.12-.23-.17-.35-.17-.35-.34-.69-.49-1-.39-.8-.77-1.61-1.15-2.42-.21-.44-.42-.89-.62-1.34a2.39,2.39,0,0,1-.13-.28h0A5.18,5.18,0,0,1,148,581l.44,0C152.21,581,153.83,584.4,153.25,587.28Z"/>
        <path class="wheel-cls-16" d="M148,581a4.72,4.72,0,0,1-1.76,2.51c-.21-.44-.42-.89-.62-1.34a2.39,2.39,0,0,1-.13-.28h0c-1.18-2.53-2.31-5.07-3.41-7.64a5.22,5.22,0,0,1,1.21-.13,4.75,4.75,0,0,1,4.88,4.1.63.63,0,0,1,0,.19A5.9,5.9,0,0,1,148,581Z"/>
        <path class="wheel-cls-16" d="M148.18,578.17a1,1,0,0,1,0,.24,5.14,5.14,0,0,1-1.29,2.81,4.47,4.47,0,0,1-1.29,1,2.39,2.39,0,0,1-.13-.28h0c-1.18-2.53-2.31-5.07-3.41-7.64-.06-.14-.12-.27-.17-.41-.16-.36-.32-.73-.47-1.09v0h0a4.42,4.42,0,0,1,1.3-.29,4.63,4.63,0,0,1,.54,0C146.83,572.4,148.47,575.41,148.18,578.17Z"/>
        <path class="wheel-cls-17" d="M186.22,568.94c17.68,0,17.7-27.47,0-27.47s-17.71,27.47,0,27.47Z"/>
      </g>
      <g>
        <path class="wheel-cls-15" d="M266.54,644c0,1,0,1.95-.09,2.93q0,1.05-.12,2.1t-.15,1.8c0,.25-.05.5-.07.75-.24,2.3-.56,4.59-1,6.87h0c-.22,1.23-.46,2.45-.73,3.67-.4,1.83-.86,3.64-1.36,5.45-3.8,13.64-9.75,26.44-16.48,38.89q-4.26-3.15-8.39-6.45c7.79-14.54,14.93-30.24,17.24-46.38a71,71,0,0,0,.73-13.36c0-.68-.06-1.37-.1-2.06a.76.76,0,0,1,0-.15c-.09-1.09-.19-2.19-.33-3.28-.06-.5-.13-1-.2-1.48-.11-.76-.24-1.51-.38-2.27l-.06-.34c0-.22-.09-.45-.14-.67q-.3-1.53-.69-3.06c-.19-.76-.4-1.51-.63-2.26,0-.19-.11-.39-.17-.59-.13-.43-.27-.86-.41-1.29a5.37,5.37,0,0,1-.19-.74,4.42,4.42,0,0,1-.1-.94,4.16,4.16,0,0,1,.39-1.79,4.53,4.53,0,0,1,1.72-1.91h0a.37.37,0,0,1,.12-.07,5.35,5.35,0,0,1,1.64-.67,5.78,5.78,0,0,1,1.37-.17,4.47,4.47,0,0,1,.73,0,5,5,0,0,1,4.24,3.52c.31.94.6,1.89.87,2.84.07.23.13.46.19.69a.83.83,0,0,1,0,.15A72.12,72.12,0,0,1,266,634c0,.16,0,.32.05.48.12,1,.21,2,.28,3,.06.82.11,1.64.14,2.46a1.93,1.93,0,0,0,0,.24C266.54,641.41,266.56,642.69,266.54,644Z"/>
        <path class="wheel-cls-16" d="M249.64,625.35c-2.85,8.78-5.76,18.28-12.45,25-5.38,5.39-14,9.26-21.05,4.59-7.37-4.88-5.63-13.26,1.48-17.28,8.41-4.75,18.95-1.06,27.44,1.56l1.37-10.12c-12.55,1.12-26.64-.73-35.09-11.13-7.25-8.91-7.14-21.05,1.82-28.64,19.46-16.48,42.48,2.66,48.14,22.52,1.25,4.39,7,4.92,9.41,1.24,7-10.85,23.36-29.56,37.69-18,5.74,4.61,6.41,12.48.57,17.25-6.65,5.45-16.31,4.51-24.29,4-5-.29-7.18,7.39-2.6,9.6,10.68,5.17,13.31,19.77,2.79,26.73-10.28,6.8-23.22-1-23.46-12.95-.14-6.62-10.44-6.64-10.31,0,.4,19.55,21.91,32.79,39,21.85,16.71-10.71,15.12-35.86-2.79-44.52l-2.6,9.6c11.95.7,25.35.47,33.84-9.34,7-8,6.18-19.44-.62-27.3-7.21-8.33-19-10.09-29.16-6.62-12.09,4.16-20.22,14.08-26.92,24.49l9.41,1.24c-4-14.11-13.31-27.15-27-33.12a36.21,36.21,0,0,0-39.41,7c-10.94,10.55-11.69,26.87-3.09,39.15,10.1,14.42,28,18.71,44.74,17.21,5.63-.5,7.17-8.33,1.37-10.12-12.64-3.89-27.1-7.22-38.5,1.6C200,638.09,197.9,651,206.22,660s21.84,9.24,31.86,2.83c12.2-7.81,17.22-21.55,21.5-34.69,2.06-6.32-7.89-9-9.94-2.74Z"/>
        <path class="wheel-cls-16" d="M213.37,592.89l-5.12,7.75c-2.34,3.55,1.62,9.22,5.82,7.57l7.39-2.9L215.12,599,209,620.09c-1.68,5.75,6.3,8.77,9.41,4l4.65-7.18-8.1,1,2.1,2.69,5-8.62a10.15,10.15,0,0,1-2-.46c.89.32-.73-.44-.93-.57.78.51-.46-.43-.63-.58s-.34-.35-.5-.54l-.09-.13a9.44,9.44,0,0,1-1.75-5.58c0-.2.16-2.14,0-1.19a13,13,0,0,1,.34-1.5,7.57,7.57,0,0,1,1.11-2.28,10.7,10.7,0,0,1,6-3.73c5.26-1.43,10.78,0,15.4,3.44,5.34,4,8.83,10.07,11.62,16l8.09-6.25c-7.94-10.19-22.83-16.29-35-10.28-5.73,2.82-9.42,8.74-8.25,15.18,1.29,7.06,8.91,12.05,15.88,10.58,7.49-1.58,12.42-10.39,9.69-17.61-1.55-4.1-6.92-5.18-9.42-1.23-5.52,8.77,6.06,20.38,14.81,14.71h-5.2l14.22,10.38a5.15,5.15,0,0,0,6.25-.81c3.22-3.67,2.33-9.94-2.83-11.4-4.92-1.4-10.18,3.82-8.14,8.77,1.06,2.57,3.42,4.4,6.34,3.59,2.43-.66,4.66-3.74,3.59-6.33l-1.28,3.34-2.6.7-.43-.06-2.28-1.33a4.36,4.36,0,0,1-.69-2.63l1.33-2.27-.3.34,6.24-.81-14.22-10.38a5,5,0,0,0-5.2,0c-.86.56,0,0,.43.09-.51-.08-.47,0,0,.06-1-.12.38.34-.5-.2s.1.13-.29-.24c-.14-.13-.77-.95-.25-.27-.57-.75.16.15-.16-.27s.09.71,0-.2c.05.37-.52,1.35.06.42l-9.42-1.23a3.41,3.41,0,0,1-.4,3.76,2.22,2.22,0,0,1-3,.88,4.72,4.72,0,0,1-1.66-1.31,2.72,2.72,0,0,1-.53-1.84c0,.91.09-.41.16-.64.31-1.08-.24.31.29-.56s-.3.2.4-.53a9.61,9.61,0,0,1,.73-.7c-.3.21-.3.22,0,0a11,11,0,0,1,5.68-2.09c-.8.1.89,0,.89,0,.56,0,1.13,0,1.69,0a16.34,16.34,0,0,1,2.88.56,25.28,25.28,0,0,1,13.26,9.14c1.55,2,5,1.83,6.76.4a5.23,5.23,0,0,0,1.33-6.64c-5.91-12.58-16.07-24.5-31-25.08-6.46-.25-13.38,2-17.83,6.82a19,19,0,0,0-4.37,17.14c1.34,6.34,6.28,12.33,12.91,13.36,5.26.82,8.26-4.44,5-8.61l-2.1-2.69c-2.16-2.76-6.49-1.44-8.09,1l-4.64,7.17,9.41,4,6.15-21.11c1-3.49-2.6-7.81-6.33-6.34l-7.39,2.9,5.82,7.57,5.12-7.74c3.66-5.55-5.26-10.72-8.9-5.21Z"/>
        <path class="wheel-cls-16" d="M250.19,626l-25.84-15.07c-3.06-1.77-8.26.43-7.76,4.45l.89,7.1c.32,2.55,2.11,5.44,5.15,5.15L260.88,624c3-.28,6.27-3.11,5-6.52-3.71-9.77-7.65-20-15.6-27.21-7.2-6.53-17.37-10.29-26.89-6.82-9.08,3.32-15.56,12.07-13.14,21.95,2.2,9,11.78,15.88,20.81,11.79,8.41-3.8,12.17-16.5,4.86-23.15-2.64-2.39-7.86-1.76-8.61,2.28-1.66,8.88,3.79,18.75,13.09,20.53,8.94,1.71,18.6-4.48,20.17-13.62.66-3.83-2.26-7.35-6.34-6.34l-11,2.74,6.34,3.6c-.73-5.34-5.65-9.54-10.93-9.91-5.62-.39-10.24,3.38-12.15,8.42l9.42-1.23-5.52-7.87c-1.85-2.65-5.62-3.59-8.09-1L218,595.89c-4.62,4.76,2.66,12.05,7.29,7.29l4.19-4.31-8.1-1,5.52,7.87a5.23,5.23,0,0,0,9.41-1.23,4.75,4.75,0,0,1,.7-.64c.42-.27.58-.33.76-.3,1.29.19,1.57,1.06,1.76,2.43.38,2.81,3.92,4.2,6.33,3.6l11.05-2.74-6.33-6.34a7.06,7.06,0,0,1-2.82,4.92,7.76,7.76,0,0,1-4.68,1.5,6.62,6.62,0,0,1-4.35-2.56,7.91,7.91,0,0,1-1.33-2.62,6.51,6.51,0,0,1-.22-2.67l-8.61,2.27a7.49,7.49,0,0,1,.7.68c-.05-.06-.46-.55-.11-.09.72.94,0-.08.28.68s.05.33,0,0c0,.31,0,.62,0,.94,0,.07-.09.83,0,.26s-.17.61-.2.73c-.09.31-.19.63-.31.93,0-.1.28-.62,0-.11a11.74,11.74,0,0,1-.91,1.48c.49-.63-.49.43-.67.6-.6.55.57-.36-.11.08a7.23,7.23,0,0,1-1,.59c1-.43-1.05.15-.4.06s-1.51-.13-.59,0c-.42-.07-1.46-.42-1.44-.41a5.24,5.24,0,0,1-1.07-.71,8.63,8.63,0,0,1-2.75-5c-.53-4.78,3.67-8.4,8.75-9.46a14.2,14.2,0,0,1,7.74.86,22,22,0,0,1,7.47,5c6,5.88,9,14,11.94,21.71l5-6.52-38.25,3.63,5.15,5.15-.88-7.1-7.75,4.45L245,634.88c5.74,3.35,10.94-5.55,5.2-8.89Z"/>
        <path class="wheel-cls-16" d="M270.46,611.32l16.15.85c5.28.28,6.77-7,2.6-9.6l-8.61-5.25-2.6,9.6,33.39-4.32c2.76-.36,5.15-2.12,5.15-5.15a5.24,5.24,0,0,0-5.15-5.16l-19.87-.88a5.15,5.15,0,1,0,0,10.3l9.28.48-5-6.52a15.37,15.37,0,0,0,4.94,15.47v-7.28c-2.92,3.42-7.34,5.36-11.38,4.72v9.93l24.92-8.93-6.52-5a5.07,5.07,0,0,1-1.27,3.67,5.33,5.33,0,0,1-3.36,2A5.28,5.28,0,0,0,298,615.4c0,2.61,2.37,5.38,5.16,5.15,8.26-.68,15.06-7.45,14.93-15.94,0-3.13-3.28-6.13-6.52-5l-24.92,8.94a5.32,5.32,0,0,0-3.78,5c0,2.08,1.58,4.61,3.78,5,7.92,1.27,16.1-1.15,21.41-7.37,1.65-1.94,2.3-5.43,0-7.28-2-1.57-2.76-3.43-2.3-5.45a5.22,5.22,0,0,0-5-6.52l-9.28-.48v10.3l19.87.89V592.29L278,596.62c-2.29.29-4.31,1.39-5,3.78a5.28,5.28,0,0,0,2.36,5.82l8.61,5.25,2.6-9.6L270.46,601a5.15,5.15,0,1,0,0,10.3Z"/>
        <path class="wheel-cls-16" d="M254.56,637c2.62,5.82,6.3,11.78,12.11,14.88s13.56,3.24,18.89-1.16,5.94-11.47,4.62-17.73-5.86-11.72-6.65-18.14a6.27,6.27,0,0,1,.33-3.52c-.26.65.47-.77.67-1-.38.52.74-.74.92-.9a4.62,4.62,0,0,1,1.81-.91c.8-.19-.8,0,0,0,.13,0,1.05-.09.44,0s.2-.08.19.1c-.45-.2-.52-.22-.19,0s.27.16-.08-.08v-7.28c-4.31,3.37-8.69,6.68-12.93,10.15a42.56,42.56,0,0,0-9.88,10.81c-4.67,7.8-5,19.6,2.7,25.72,3.66,2.9,8.28,1,8.8-3.65q1.11-10,2.23-19.93c.31-2.77-2.59-5.15-5.15-5.15-3.05,0-4.84,2.37-5.16,5.15L266,644.19l8.79-3.64a16.28,16.28,0,0,1-1.57-1.45c.08.1-.92-1.62-.71-1.13a8.32,8.32,0,0,1-.76-4.2,10.55,10.55,0,0,1,.85-4.33,20.24,20.24,0,0,1,2.57-4.33,49.73,49.73,0,0,1,8.11-7.57c3.85-3.06,7.75-6.07,11.62-9.1,2.09-1.64,1.91-5.62,0-7.28-5.07-4.41-11.7-3.46-16.55.77-5.29,4.6-6.07,11.65-4.19,18.09a75.08,75.08,0,0,0,4,9.74,27.48,27.48,0,0,1,2.23,7,15,15,0,0,1,.09,1.78,7.82,7.82,0,0,1,0,1.21,8.69,8.69,0,0,1-.53,1.89c.28-.62-.75,1-.4.62-.13.15-1,.94-.69.71a5.83,5.83,0,0,1-.73.43c-.79.42.53-.15-.32.14-.33.12-1.32.35-1.27.34a18.21,18.21,0,0,1-1.92,0,11.28,11.28,0,0,1-3-1,12.55,12.55,0,0,1-3.15-2.59,31.23,31.23,0,0,1-5-8.45c-1.14-2.54-4.83-3.15-7-1.85-2.61,1.53-3,4.5-1.85,7Z"/>
        <path class="wheel-cls-16" d="M269,659c9.32-1.6,19.19-6.61,21-16.82,1.6-9-5.14-17.75-14.69-16.63-9.28,1.09-12.54,12-6.34,18.61a9.57,9.57,0,0,0,10.93,2.3c3.9-1.72,5.85-5.44,6.19-9.56.35-4.33-1.15-8.68-3-12.51-3-6.1-6.18-12.09-9.26-18.13-1.93-3.78-6.77-2.86-8.9,0a214.7,214.7,0,0,1-29.62,32.27c-1.75,1.56-10.25,10.3-13,7.15-1-1.19.07-3.59.86-4.59,1.93-2.43,5.28-3.74,8.05-4.9l-5.82-2.36c.9,1.92-.66,4.43-2.54,5l2.74,9.93,11.18-4.4-6.34-3.59c1.47,4.27-2.06,9.14-6.8,6.81l1,8.1,15-12.19c2.17-1.75,1.82-5.46,0-7.28-2.14-2.14-5.12-1.76-7.28,0l-15.06,12.18c-2.48,2-1.73,6.73,1.05,8.09,5.87,2.87,12.9,2.47,17.88-2.06A15.66,15.66,0,0,0,240.4,638c-.82-2.42-3.61-4.67-6.33-3.6l-11.18,4.4c-6,2.37-3.76,11.88,2.74,9.93a14.4,14.4,0,0,0,8.7-20.12c-.86-1.84-3.88-3.18-5.82-2.37-8.07,3.37-16.84,8.19-16.78,18.2A12.13,12.13,0,0,0,217.66,655c4.32,2.46,9.34,1.5,13.59-.56s7.84-5.51,11.34-8.62q5.7-5.07,11-10.54a231.74,231.74,0,0,0,20.2-23.82h-8.9l5.79,11.33c1.47,2.89,3.29,5.77,4.31,8.86.59,1.79.38,3.7.75,5.27,0,.17,1,.26,1,.34,0,.68-1-1.35-.73-1.09-.63-.75.55-.42-.22-.11a2.34,2.34,0,0,1,1.48-.29c1.95.27,2.85,1.84,2.77,3.7-.31,6.65-8.52,8.69-13.76,9.59-2.74.47-4.28,3.85-3.59,6.34.79,2.9,3.58,4.07,6.33,3.6Z"/>
        <path class="wheel-cls-16" d="M289.41,650.1c6.63,0,6.64-10.3,0-10.3s-6.64,10.3,0,10.3Z"/>
        <path class="wheel-cls-16" d="M289.41,644.94c6.63,0,6.64-10.3,0-10.3s-6.64,10.3,0,10.3Z"/>
        <path class="wheel-cls-16" d="M284.25,653.54c6.63,0,6.65-10.31,0-10.31s-6.64,10.31,0,10.31Z"/>
        <path class="wheel-cls-16" d="M218.93,660.41c6.63,0,6.64-10.3,0-10.3s-6.64,10.3,0,10.3Z"/>
        <path class="wheel-cls-16" d="M213.77,653.54c6.63,0,6.64-10.31,0-10.31s-6.64,10.31,0,10.31Z"/>
        <path class="wheel-cls-16" d="M213.77,651.82c6.63,0,6.64-10.3,0-10.3s-6.64,10.3,0,10.3Z"/>
        <path class="wheel-cls-17" d="M256.75,638.06c17.68,0,17.71-27.48,0-27.48s-17.71,27.48,0,27.48Z"/>
      </g>
    </g>
    <g id="fall" class="buttons" data-season="fall">
      <path class="wheel-cls-18" d="M762,447H439V124q13.92,0,27.54,1.16l2.6.23h.08l.24,0a320.35,320.35,0,0,1,83,19.08q2.49.92,4.95,1.89l2.89,1.16q8.22,3.33,16.2,7.1c.51.23,1,.47,1.53.73q3,1.41,5.94,2.9A323.63,323.63,0,0,1,753.68,373.83q2.85,12.35,4.75,25c.44,2.86.83,5.75,1.17,8.64.16,1.23.3,2.46.43,3.7a2.58,2.58,0,0,1,0,.39c.09.69.16,1.39.23,2.08A327.79,327.79,0,0,1,762,447Z"/>
      <g>
        <path class="wheel-cls-19" d="M693.77,293.06s-.3-36.74-32.27-42.69-39.66,24.52-70.85,13.2c0,0,25,6.93,43.19,39.84S693.77,293.06,693.77,293.06Z"/>
        <path class="wheel-cls-20" d="M601.5,269.27c23.86-1.26,48-2.48,69.39,4,8.91,2.69,17.77,7.33,20.66,17.53Z"/>
        <path class="wheel-cls-21" d="M684.46,285.78C678.59,296.19,670,305,660.74,310.16Z"/>
        <path class="wheel-cls-22" d="M668.8,278.92c-8.52,12.94-21.67,22.07-33.54,23.3Z"/>
        <path class="wheel-cls-23" d="M648.17,277.55c-5.32,6.49-12.47,10.78-19,11.37Z"/>
        <path class="wheel-cls-24" d="M629.14,272.35l-10,5.37"/>
        <path class="wheel-cls-24" d="M647.29,263.79l-6.64-9.65"/>
        <path class="wheel-cls-25" d="M634.62,263.4c.5-2.34-.26-4.53-1.84-5.27Z"/>
        <path class="wheel-cls-26" d="M670.08,268.35c2.27-6,.54-12.39-3.78-14Z"/>
        <path class="wheel-cls-27" d="M685.85,275.21c.64-3.66-.31-7.08-2.46-8.84Z"/>
      </g>
      <g>
        <path class="wheel-cls-28" d="M664.77,369.89s21.4,6.35,34.44-11.67-2.32-28,13.61-44.65c0,0-11.53,13.7-36.06,18.7S664.77,369.89,664.77,369.89Z"/>
        <path class="wheel-cls-29" d="M706.26,319c-6.43,14.47-13,29.12-23.13,40.72-4.23,4.85-9.58,9.31-16.37,9.22Z"/>
        <path class="wheel-cls-30" d="M671.79,365.63a31.89,31.89,0,0,1-7-18.5Z"/>
        <path class="wheel-cls-31" d="M680.46,357.5c-4.94-7.39-6.29-16.87-3.44-24.18Z"/>
        <path class="wheel-cls-32" d="M687.45,345.42a16.59,16.59,0,0,1-.9-13.34Z"/>
        <path class="wheel-cls-24" d="M696.18,335l-.11-6.94"/>
        <path class="wheel-cls-24" d="M695.69,347.34l7.59-2.24"/>
        <path class="wheel-cls-33" d="M699.73,339.85a3.09,3.09,0,0,0,3.6-.16Z"/>
        <path class="wheel-cls-34" d="M686.21,360.14c2.81,2.43,7,2.53,9.22.22Z"/>
        <path class="wheel-cls-35" d="M677.5,368.33a6.08,6.08,0,0,0,5.86.11Z"/>
      </g>
      <g>
        <path class="wheel-cls-36" d="M598.36,347.9s8.62-20.59-7.9-35.5-28.12-.71-42.92-18.34c0,0,12.38,12.94,14.71,37.87S598.36,347.9,598.36,347.9Z"/>
        <path class="wheel-cls-37" d="M552.26,301.18c13.7,7.95,27.56,16,38,27.37,4.36,4.73,8.22,10.54,7.4,17.27Z"/>
        <path class="wheel-cls-38" d="M594.87,340.46a31.8,31.8,0,0,1-19.14,5Z"/>
        <path class="wheel-cls-39" d="M587.73,331c-7.88,4.12-17.44,4.44-24.4.82Z"/>
        <path class="wheel-cls-40" d="M576.48,322.71a16.57,16.57,0,0,1-13.37-.54Z"/>
        <path class="wheel-cls-24" d="M567,312.92l-6.91-.65"/>
        <path class="wheel-cls-24" d="M579.27,314.73l-1.41-7.79"/>
        <path class="wheel-cls-41" d="M572.26,309.91a3.1,3.1,0,0,0,.22-3.6Z"/>
        <path class="wheel-cls-42" d="M591,325.53c2.71-2.53,3.26-6.71,1.21-9.14Z"/>
        <path class="wheel-cls-43" d="M598.18,335.08a6.11,6.11,0,0,0,.74-5.82Z"/>
      </g>
      <g>
        <path class="wheel-cls-44" d="M572.15,253.48s6.5-9.23,21.27-11.37,12.8,5.35,28.18,1.88a80.33,80.33,0,0,0-25.48,10.87C582.6,263.49,572.15,253.48,572.15,253.48Z"/>
        <path class="wheel-cls-45" d="M615.94,245.64c-10,.17-20.22.35-30.52,2.4-4.3.86-8.91,2.2-11.92,4.82Z"/>
        <path class="wheel-cls-46" d="M577.41,251.46c.72,2.5,2.89,4.54,6,5.64Z"/>
        <path class="wheel-cls-47" d="M585.34,249.43c1.42,3.07,5.49,5.1,10.38,5.16Z"/>
        <path class="wheel-cls-48" d="M594.44,248.66c1.16,1.53,3.5,2.46,6.19,2.47Z"/>
        <path class="wheel-cls-24" d="M603.53,247l3.38,1.15"/>
        <path class="wheel-cls-24" d="M597.21,245.2l4.52-2.56"/>
        <path class="wheel-cls-49" d="M602.72,244.84a2.49,2.49,0,0,1,1.71-1.36Z"/>
        <path class="wheel-cls-50" d="M586.62,246.8c.07-1.47,1.91-3.1,4-3.58Z"/>
        <path class="wheel-cls-51" d="M578.65,248.84a4.58,4.58,0,0,1,2.59-2.27Z"/>
      </g>
      <g>
        <path class="wheel-cls-52" d="M484,240.43a36.08,36.08,0,0,1,12-33.6c16.49-14.5,24.49-1.48,39.89-18.48,0,0-12.62,12.52-18.26,36S484,240.43,484,240.43Z"/>
        <path class="wheel-cls-53" d="M530.8,195.18c-13,7.87-26.23,15.87-36.93,26.83-4.47,4.57-8.66,10.14-8.93,16.44Z"/>
        <path class="wheel-cls-54" d="M488.13,233.34A22.66,22.66,0,0,0,504,237.48Z"/>
        <path class="wheel-cls-55" d="M495.71,224.2a21.71,21.71,0,0,0,21,.07Z"/>
        <path class="wheel-cls-56" d="M506.67,216.12a13.81,13.81,0,0,0,11.67-.89Z"/>
        <path class="wheel-cls-24" d="M516.28,206.64l6.08-.81"/>
        <path class="wheel-cls-24" d="M505.41,208.69l2.36-7.36"/>
        <path class="wheel-cls-57" d="M512.19,204a3.14,3.14,0,0,1,.33-3.38Z"/>
        <path class="wheel-cls-58" d="M493.69,219.19a6.71,6.71,0,0,1,.27-8.56Z"/>
        <path class="wheel-cls-59" d="M486.05,228.37a6,6,0,0,1,.21-5.45Z"/>
      </g>
      <g>
        <path class="wheel-cls-60" d="M461,128.48c.2-.11.51-.26.92-.45C461.62,128.18,461.32,128.34,461,128.48Z"/>
        <path class="wheel-cls-61" d="M466.54,125.16l2.6.23a49.82,49.82,0,0,0-7.22,2.64A32.61,32.61,0,0,0,466.54,125.16Z"/>
        <path class="wheel-cls-62" d="M469.25,125.36l.57-.15-.36.21-.66.4.42-.42Z"/>
      </g>
      <g>
        <path class="wheel-cls-63" d="M584,158.28c-14.62,4.82-32.73,7.39-31.65-10,.08-1.29.13-2.53.14-3.74q2.49.92,4.95,1.89l2.89,1.16q8.22,3.33,16.2,7.1c.51.23,1,.47,1.53.73Q581,156.79,584,158.28Z"/>
        <path class="wheel-cls-64" d="M576.5,154.65c.51.23,1,.47,1.53.73a63.8,63.8,0,0,1-8.8,3Z"/>
        <path class="wheel-cls-65" d="M560.3,147.55a27.71,27.71,0,0,1-6.37,0l3.48-1.18Z"/>
      </g>
      <g>
        <path class="wheel-cls-66" d="M548.1,210.16s-4.42,19,6.89,18.19,18-17.61,28.3-15.57c0,0-8.57-.52-11.36-15.38S548.1,210.16,548.1,210.16Z"/>
        <path class="wheel-cls-67" d="M579.91,211.15c-9.14,3.59-18.4,7.2-25.64,6.48-3-.3-5.79-1.62-5.62-6.56Z"/>
        <path class="wheel-cls-68" d="M550.7,212.79a67.41,67.41,0,0,1,11.94-15.58Z"/>
        <path class="wheel-cls-69" d="M555.75,214.43c4.81-7.77,10.88-14.13,15.5-16.24Z"/>
        <path class="wheel-cls-70" d="M563.35,212.6c2.8-4,6-7.14,8.54-8.24Z"/>
        <path class="wheel-cls-24" d="M569.88,213l4.43-4"/>
        <path class="wheel-cls-24" d="M562,219.63l1.31,4.2"/>
        <path class="wheel-cls-71" d="M566.71,218.28c-.48,1.27-.46,2.31,0,2.51Z"/>
        <path class="wheel-cls-72" d="M554,220.07c-1.6,3.41-1.73,6.5-.29,6.78Z"/>
        <path class="wheel-cls-73" d="M548.88,218.45c-.69,2-.76,3.64-.17,4.29Z"/>
      </g>
      <g>
        <path class="wheel-cls-74" d="M532.62,277.69s-21.23,6.88-21.78,29.12,17.8,21.8,14.08,44.51c0,0,1.74-17.82,19.13-35.84S532.62,277.69,532.62,277.69Z"/>
        <path class="wheel-cls-75" d="M527.23,343.1c-2.89-15.57-5.8-31.35-4-46.66.75-6.39,2.64-13.1,8.28-16.87Z"/>
        <path class="wheel-cls-76" d="M529.25,285.18a31.87,31.87,0,0,1,16.26,11.26Z"/>
        <path class="wheel-cls-77" d="M526.7,296.79c8.26,3.29,14.74,10.33,16.53,18Z"/>
        <path class="wheel-cls-78" d="M527.78,310.7a16.59,16.59,0,0,1,8.3,10.49Z"/>
        <path class="wheel-cls-24" d="M526.5,324.24l4,5.66"/>
        <path class="wheel-cls-24" d="M519.9,313.78l-5,6.15"/>
        <path class="wheel-cls-79" d="M520.83,322.24a3.12,3.12,0,0,0-2.89,2.18Z"/>
        <path class="wheel-cls-80" d="M520.47,297.86c-3.69-.4-7.22,1.9-7.73,5Z"/>
        <path class="wheel-cls-81" d="M523,286.18a6.09,6.09,0,0,0-4.89,3.23Z"/>
      </g>
      <g>
        <path class="wheel-cls-82" d="M455,342.79s11.76,12.52,27.78,5.79,9.78-19.3,27.17-24c0,0-13.26,4.49-31.72-1.81S455,342.79,455,342.79Z"/>
        <path class="wheel-cls-83" d="M503.29,325.62c-10.15,7-20.46,14-32,17.69-4.79,1.52-10.18,2.36-14.69-.35Z"/>
        <path class="wheel-cls-84" d="M461.37,342.73a24,24,0,0,1,2.77-14.88Z"/>
        <path class="wheel-cls-85" d="M470.47,340.79c-.33-6.78,2.6-13.52,7.46-17.21Z"/>
        <path class="wheel-cls-86" d="M480,335.59a12.63,12.63,0,0,1,4.79-9.1Z"/>
        <path class="wheel-cls-24" d="M490.09,332.15l2.74-4.59"/>
        <path class="wheel-cls-24" d="M484.77,340.07l6,1.49"/>
        <path class="wheel-cls-87" d="M490.5,336.73A2.43,2.43,0,0,0,493,338Z"/>
        <path class="wheel-cls-88" d="M473.25,344.77c.9,2.68,3.68,4.4,6.08,3.74Z"/>
        <path class="wheel-cls-89" d="M464.1,346.74A4.78,4.78,0,0,0,468,349.1Z"/>
      </g>
      <g>
        <path class="wheel-cls-90" d="M541.23,377.74s11.68-15.78,30-9.77,12.77,21.24,32.42,24.72c0,0-15.08-3.72-34.79,5.61S541.23,377.74,541.23,377.74Z"/>
        <path class="wheel-cls-91" d="M596.3,392.25c-11.92-6.95-24-14-37-16.92-5.44-1.23-11.47-1.61-16.16,2Z"/>
        <path class="wheel-cls-92" d="M548.31,377.1A28.76,28.76,0,0,0,552.9,394Z"/>
        <path class="wheel-cls-93" d="M558.55,378.34c.33,7.88,4.25,15.35,10,19.07Z"/>
        <path class="wheel-cls-94" d="M569.62,383.29a14.75,14.75,0,0,0,6.22,10Z"/>
        <path class="wheel-cls-24" d="M581.07,386.15l3.49,5"/>
        <path class="wheel-cls-24" d="M574.39,377.59l6.46-2.39"/>
        <path class="wheel-cls-95" d="M581.06,380.82a2.67,2.67,0,0,1,2.6-1.78Z"/>
        <path class="wheel-cls-96" d="M561.2,373.43c.72-3.2,3.62-5.49,6.33-5Z"/>
        <path class="wheel-cls-97" d="M550.91,372.16a5.32,5.32,0,0,1,4-3.15Z"/>
      </g>
      <g>
        <path class="wheel-cls-98" d="M645.15,401.29s17.83-10.7,29.19,3-1.34,26.4,12.4,38.13c0,0-10-10-30.7-9.11S645.15,401.29,645.15,401.29Z"/>
        <path class="wheel-cls-99" d="M681.11,438.85c-5.72-11.9-11.54-23.94-20.31-32.36-3.67-3.51-8.26-6.42-14-4.8Z"/>
        <path class="wheel-cls-100" d="M651.14,403.64a38.31,38.31,0,0,0-5.49,18.65Z"/>
        <path class="wheel-cls-101" d="M658.6,409.18c-4,7.94-4.91,17-2.36,23.08Z"/>
        <path class="wheel-cls-102" d="M664.74,418.74c-1.73,4.49-1.9,9.21-.47,12.52Z"/>
        <path class="wheel-cls-24" d="M672.3,426.4l.06,6.43"/>
        <path class="wheel-cls-24" d="M671.62,415.11l6.42.36"/>
        <path class="wheel-cls-103" d="M675.17,421.12a2.53,2.53,0,0,1,3-.67Z"/>
        <path class="wheel-cls-104" d="M663.37,405.44c2.31-2.87,5.85-3.91,7.74-2.28Z"/>
        <path class="wheel-cls-105" d="M655.88,399.85c1.6-1.39,3.5-1.94,4.92-1.42Z"/>
      </g>
      <g>
        <path class="wheel-cls-106" d="M760.3,413.67a36.3,36.3,0,0,1-12.89-4.8s-8.43-30.11,6.27-35q2.85,12.35,4.75,25c.44,2.86.83,5.75,1.17,8.64.16,1.23.3,2.46.43,3.7a2.58,2.58,0,0,1,0,.39C760.16,412.28,760.23,413,760.3,413.67Z"/>
        <path class="wheel-cls-107" d="M758.43,398.86c.44,2.86.83,5.75,1.17,8.64a12.74,12.74,0,0,1-10.31,1l3.77-4,.37-.39Z"/>
        <path class="wheel-cls-108" d="M754.08,406.47a44.83,44.83,0,0,1-5.88-21.28Z"/>
        <path class="wheel-cls-109" d="M760.07,411.59a6.62,6.62,0,0,1-.78-.64l.74.25A2.58,2.58,0,0,1,760.07,411.59Z"/>
      </g>
    </g>
    <g id="winter" class="buttons" data-season="winter">
      <path class="wheel-cls-110" d="M762,447A323.13,323.13,0,0,1,490.72,765.88,325.31,325.31,0,0,1,439,770V447Z"/>
      <g>
        <path class="wheel-cls-111" d="M672.13,670.32A322.16,322.16,0,0,1,490.5,765.88a106.24,106.24,0,0,1,44.17-112l.06,0c.72-.5,1.45-1,2.19-1.44.49-.31,1-.62,1.48-.92.26-.17.53-.33.8-.49l.52-.31.37-.22c.6-.36,1.21-.71,1.82-1.05l.66-.37c.62-.34,1.24-.68,1.87-1l.42-.22c.9-.47,1.81-.93,2.72-1.37l.26-.13.18-.08q.29-.15.57-.27l1.07-.5c.93-.43,1.87-.85,2.82-1.25l.06,0c.21-.09.41-.18.61-.25.61-.26,1.22-.51,1.84-.75,0,0,0,0,0,0h0l.09,0a.68.68,0,0,1,.2-.07,6,6,0,0,1,.59-.23c.35-.14.7-.28,1-.4s.88-.33,1.32-.48a2.19,2.19,0,0,1,.33-.12c.72-.26,1.45-.51,2.19-.74l.05,0c.89-.3,1.79-.58,2.69-.84q3-.9,6-1.6l.32-.08,1.53-.34.44-.1c2.19-.46,4.4-.86,6.64-1.18l.41-.05c1.23-.18,2.48-.34,3.73-.46.38-.05.76-.09,1.15-.12,1-.1,2.06-.18,3.1-.24.62-.05,1.25-.09,1.88-.11,1.7-.09,3.41-.13,5.13-.13.47,0,.94,0,1.41,0,1.82,0,3.63.08,5.42.21,2.88.17,5.72.47,8.53.88,1.54.22,3.07.47,4.58.77,1.23.22,2.45.48,3.66.76l.63.15c.45.09.89.2,1.33.32,1.1.26,2.2.55,3.29.86l2.64.78.1,0c2.37.74,4.71,1.56,7,2.46.29.11.58.22.87.35.71.27,1.42.57,2.12.87q2.23.94,4.43,2l1.71.84,0,0c.31.15.63.31.94.48l1.09.58c1.2.63,2.39,1.29,3.56,2q.56.31,1.11.66A106.23,106.23,0,0,1,672.13,670.32Z"/>
        <circle class="wheel-cls-112" cx="593.99" cy="578.81" r="69.81"/>
        <path d="M564,546.79a8.86,8.86,0,0,0-10.46,7.73c-.49,4.76,3.92,8.64,8.4,8.9,4.71.27,8.18-3.9,8.38-8.34a8.06,8.06,0,0,0-2.28-6A9,9,0,0,0,555.9,549a8.19,8.19,0,0,0-2.42,5.94,9.37,9.37,0,0,0,2.3,6.12,8.2,8.2,0,0,0,12.72-.8A7.66,7.66,0,0,0,569,553c-2.06-4.63-9-5.09-11.7-.78a6.19,6.19,0,0,0,.88,7.48,5.64,5.64,0,0,0,7.19.4,5.11,5.11,0,0,0,1.08-6.81c-.86-1.29-2.62-2.61-4.23-1.93a4.11,4.11,0,0,0-2.43,3,4.3,4.3,0,0,0,1.12,3.9,2.26,2.26,0,0,0,3.19-3.19c-.31-.31.21.43,0,0,.09.19.09.44.06.11s0,.54,0,.14a1.41,1.41,0,0,1,0-.2c0-.18,0-.09,0,.27,0,0,.23-.5,0-.11s.08,0,.06-.09c-.21.26-.26.32-.15.2a1.85,1.85,0,0,1,.14-.14c0,.15-.45.28,0,.08l-1.74.22c.38.11-.46-.23,0,0,0,0,.16.11.18.11s-.33-.32-.2-.14a1.7,1.7,0,0,0,.19.19c.18.14-.15-.16-.14-.19l.11.18c.23.36,0,0,0-.11,0,.07.11.32.13.4a.86.86,0,0,0,0,.27s0-.44,0-.25a.74.74,0,0,0,0,.21c0,.37,0-.13,0-.19l0,.21a.93.93,0,0,1,0,.13c-.05.16,0,.09.11-.22,0,0-.19.38-.21.37s.4-.4.08-.12a.77.77,0,0,0-.16.15c-.14.2.14-.18.17-.13l-.25.15c-.16.1-.15,0,0,0s.18-.08.07,0l-.14.05a1.53,1.53,0,0,0-.29.07c-.22.09.22-.06.24,0a4.6,4.6,0,0,0-.52,0,1.8,1.8,0,0,0-.22,0s.46.12.24,0-.2,0-.29-.08l-.14,0,.07,0s.23.14,0,0l-.25-.15s.34.32.16.12l-.17-.17c-.32-.29.07,0,0,.09s-.12-.18-.13-.2L561,556c-.24-.42.07.29,0,0a3.67,3.67,0,0,0-.14-.55s0,.46,0,.2a1.94,1.94,0,0,1,0-.24c0-.11,0-.68,0-.34s0,0,0,0,.06-.26.1-.39.1-.19.09-.23-.2.36-.06.17a3.4,3.4,0,0,1,.28-.45s-.32.33-.12.18.13-.14.2-.21l.15-.14s-.42.28-.11.09l.43-.25c.43-.25-.32.07.05,0l.42-.12.29-.06c.35-.08-.15.06-.17,0s1,0,1,0-.46-.1-.24,0l.21,0,.56.18s-.42-.22-.21-.09l.26.13.18.11c.24.13,0,0,0,0s-.16-.17.06.05l.17.16c0,.05.1.12.16.17s-.23-.37,0,0c.08.14.17.26.24.4a1,1,0,0,1,.14.28s-.14-.44-.08-.18.11.35.16.53,0,.15,0,.23,0,.34,0,.08,0,0,0,.1a1.77,1.77,0,0,1,0,.23c0,.19,0,.37,0,.56s0-.2,0-.21a.85.85,0,0,0,0,.23,4.24,4.24,0,0,1-.17.61c-.16.49.15-.23,0,.12-.08.14-.15.28-.23.41s-.13.24-.18.26.3-.33.11-.14-.29.32-.46.46c0,0-.19.16-.18.16s.45-.3.06-.06a4.64,4.64,0,0,1-.42.25l-.29.15.16-.06-.62.2-.48.11c-.31.08.43,0,.11,0l-.25,0a7.56,7.56,0,0,0-1.16,0c.29-.07.36.06.11,0l-.24-.05c-.19,0-.37-.11-.55-.16-.41-.12.3.17-.07,0l-.53-.29-.24-.16c-.18-.12-.09,0,0,0s.16.14,0,0l-.21-.2-.3-.3-.18-.22s.29.42.09.12a6.59,6.59,0,0,1-.49-.8c-.05-.09-.08-.18-.13-.26s.1.19.08.21a3.61,3.61,0,0,0-.19-.55c-.1-.3-.14-.61-.22-.91s0,.22,0,.24a1,1,0,0,0,0-.29c0-.19,0-.39,0-.58s0-.29,0-.43,0-.27,0-.29-.09.48,0,.24.13-.65.24-1l.1-.27c.06-.23-.08.21-.09.21a3.77,3.77,0,0,0,.22-.45c.08-.12.16-.24.23-.36.27-.42-.25.24.1-.12.12-.12.23-.25.36-.36a1.14,1.14,0,0,0,.16-.15c.16-.19-.15.17-.17.13a5.31,5.31,0,0,1,.93-.56,1.65,1.65,0,0,0,.19-.1s-.43.16-.2.09.32-.11.48-.16a4.54,4.54,0,0,1,.5-.12l.22-.05c.34-.07-.12.06-.17,0a5.21,5.21,0,0,0,1,0l.44,0c.41,0-.14,0-.16,0s.24.05.28.05c.34.07.66.18,1,.28s-.37-.2,0,0c.17.09.34.17.51.27s.28.19.43.27-.19-.11-.17-.13l.17.14c.12.11.25.23.36.35l.15.16c.34.36,0,0,0-.06s.42.73.47.8-.09-.19-.09-.22a1.81,1.81,0,0,0,.1.27,5.52,5.52,0,0,1,.16.54c0,.14.06.28.09.41.08.4,0-.48,0,0,0,.33,0,.66,0,1,0,.57.08-.35,0,0,0,.17-.06.33-.1.49s-.07.28-.11.42l-.09.27c0,.15-.18.23,0,.06s.07-.14,0,0-.09.17-.13.25a6,6,0,0,1-.48.79c-.27.42.27-.26-.08.1a8.22,8.22,0,0,0-.66.64s.47-.32.12-.1l-.17.12-.43.25-.26.13s.44-.14.2-.09a4.83,4.83,0,0,0-.5.16c-.14,0-.28.06-.43.09-.42.09.15,0,.16,0a1.57,1.57,0,0,0-.29,0h-.73c-.33,0,.08-.1.16,0a4.69,4.69,0,0,0-1-.23c-.09,0-.63-.18-.29-.1s-.1-.05-.2-.1-1-.46-1-.59.35.31.16.13l-.17-.14c-.13-.12-.26-.23-.38-.36s-.23-.25-.35-.38-.23-.23,0,0,0-.08-.08-.13c-.18-.27-.31-.56-.47-.83s.11.19.09.2a2.43,2.43,0,0,1-.1-.28c-.05-.16-.09-.33-.13-.5-.15-.54,0,.34,0-.06a5.24,5.24,0,0,1,0-.56c0-.09,0-.59,0-.25s0,0,0-.09.05-.2.07-.3.11-.35.17-.53c.12-.4-.18.34,0,0a10.52,10.52,0,0,1,.62-1c.14-.21-.11.14-.11.14a1.25,1.25,0,0,1,.21-.24,3.51,3.51,0,0,1,.33-.34c.13-.13.28-.25.42-.38s-.15.11-.15.11a1.06,1.06,0,0,1,.33-.22l.41-.25c.09-.05.44-.16.5-.25l-.18.07.3-.1a4.61,4.61,0,0,1,.53-.15l.31-.07c.14,0,.23,0,0,0s-.11,0,0,0h.31c.16,0,.32,0,.47,0,.46,0-.13,0-.12,0a1.42,1.42,0,0,1,.31.06,2.26,2.26,0,1,0,1.2-4.35Z"/>
        <path d="M607.65,546.79a8.87,8.87,0,0,0-10.46,7.73c-.49,4.76,3.92,8.64,8.41,8.9,4.7.27,8.17-3.9,8.37-8.34a8.09,8.09,0,0,0-2.27-6,9,9,0,0,0-12.16-.11,8.2,8.2,0,0,0-2.43,5.94,9.37,9.37,0,0,0,2.3,6.12,8,8,0,0,0,6.23,2.65,8,8,0,0,0,6.49-3.45,7.6,7.6,0,0,0,.48-7.25c-2.06-4.63-9-5.09-11.7-.78a6.18,6.18,0,0,0,.89,7.48,5.62,5.62,0,0,0,7.18.4,5.1,5.1,0,0,0,1.08-6.81c-.85-1.29-2.62-2.61-4.23-1.93a4.07,4.07,0,0,0-2.42,3,4.27,4.27,0,0,0,1.12,3.9,2.26,2.26,0,0,0,3.19-3.19c-.31-.31.21.43,0,0,.09.19.1.44.06.11s0,.54,0,.14a.67.67,0,0,1,0-.2c0-.18,0-.09,0,.27,0,0,.23-.5,0-.11s.08,0,.07-.09c-.22.26-.27.32-.15.2a.93.93,0,0,1,.14-.14c0,.15-.46.28,0,.08l-1.74.22c.39.11-.45-.23,0,0a1.63,1.63,0,0,0,.17.11s-.32-.32-.19-.14a1.14,1.14,0,0,0,.19.19c.17.14-.16-.16-.15-.19l.12.18c.22.36-.06,0,0-.11,0,.07.11.32.13.4a2.56,2.56,0,0,0,.05.27s0-.44,0-.25a1.47,1.47,0,0,0,0,.21c0,.37,0-.13.05-.19a2.09,2.09,0,0,0-.05.21l0,.13c-.06.16,0,.09.1-.22,0,0-.19.38-.2.37s.4-.4.07-.12c0,0-.12.1-.16.15-.14.2.14-.18.17-.13l-.24.15c-.16.1-.16,0,0,0s.18-.08.07,0l-.14.05a1.28,1.28,0,0,0-.28.07c-.23.09.21-.06.23,0a4.38,4.38,0,0,0-.51,0,2,2,0,0,0-.23,0s.46.12.24,0a2.45,2.45,0,0,0-.29-.08l-.14,0,.07,0s.23.14,0,0l-.25-.15s.35.32.17.12a1.45,1.45,0,0,0-.18-.17c-.31-.29.07,0,0,.09s-.12-.18-.13-.2l-.12-.21c-.24-.42.07.29,0,0a2.21,2.21,0,0,0-.14-.55s0,.46,0,.2a1.94,1.94,0,0,0,0-.24c0-.11,0-.68,0-.34s0,0,0,0,.07-.26.11-.39.09-.19.08-.23-.2.36-.06.17a4.92,4.92,0,0,1,.28-.45s-.32.33-.12.18a2,2,0,0,0,.2-.21l.16-.14s-.43.28-.12.09l.43-.25c.44-.25-.31.07.06,0,.14,0,.27-.08.41-.12l.29-.06c.35-.08-.14.06-.17,0s1,0,1,0-.46-.1-.24,0l.22,0,.55.18s-.41-.22-.21-.09l.26.13a1.18,1.18,0,0,0,.19.11c.23.13,0,0,0,0s-.17-.17.05.05l.17.16c0,.05.1.12.16.17s-.23-.37,0,0c.08.14.17.26.24.4a1,1,0,0,1,.14.28s-.13-.44-.08-.18.12.35.16.53,0,.15,0,.23,0,.34,0,.08,0,0,0,.1v.23c0,.19,0,.37,0,.56s0-.2,0-.21a.86.86,0,0,0,0,.23,6.06,6.06,0,0,1-.16.61c-.17.49.14-.23-.05.12-.07.14-.15.28-.23.41a1.28,1.28,0,0,1-.17.26s.29-.33.1-.14-.29.32-.45.46l-.19.16s.45-.3.06-.06a3.58,3.58,0,0,1-.42.25l-.29.15.16-.06-.62.2-.48.11c-.31.08.43,0,.11,0l-.25,0a7.43,7.43,0,0,0-1.15,0c.28-.07.35.06.11,0l-.24-.05c-.19,0-.37-.11-.56-.16-.4-.12.31.17-.07,0l-.53-.29-.24-.16c-.18-.12-.09,0,0,0s.16.14,0,0-.15-.13-.21-.2a2.83,2.83,0,0,1-.3-.3l-.19-.22s.29.42.09.12-.34-.52-.49-.8a2.1,2.1,0,0,0-.13-.26c-.12-.21.1.19.09.21a3.71,3.71,0,0,0-.2-.55c-.09-.3-.14-.61-.22-.91s0,.22,0,.24,0-.22,0-.29a5.63,5.63,0,0,1,0-.58c0-.14,0-.29,0-.43a1.68,1.68,0,0,0,0-.29s-.09.48,0,.24.13-.65.23-1l.1-.27c.07-.23-.07.21-.09.21a3.77,3.77,0,0,0,.23-.45c.07-.12.15-.24.23-.36.26-.42-.26.24.09-.12l.36-.36c.05-.05.12-.09.17-.15s-.16.17-.18.13a5.31,5.31,0,0,1,.93-.56l.2-.1s-.44.16-.21.09.32-.11.49-.16a4.37,4.37,0,0,1,.49-.12l.22-.05c.34-.07-.11.06-.17,0a5.19,5.19,0,0,0,1,0l.44,0c.42,0-.14,0-.16,0s.24.05.29.05c.34.07.65.18,1,.28s-.37-.2,0,0c.17.09.35.17.52.27s.27.19.42.27-.19-.11-.17-.13.16.13.17.14l.37.35.14.16c.34.36,0,0,0-.06a7.74,7.74,0,0,1,.47.8c.12.19-.09-.19-.08-.22a1.12,1.12,0,0,0,.1.27c.06.18.11.36.16.54s0,.28.08.41c.09.4,0-.48,0,0q0,.5,0,1c0,.57.08-.35,0,0,0,.17-.06.33-.1.49l-.12.42-.09.27c0,.15-.18.23,0,.06s.06-.14,0,0-.08.17-.13.25-.13.25-.2.38l-.27.41c-.28.42.26-.26-.09.1a6.62,6.62,0,0,0-.65.64s.46-.32.12-.1l-.18.12-.43.25-.26.13s.45-.14.2-.09a4.66,4.66,0,0,0-.49.16l-.43.09c-.42.09.14,0,.16,0a1.46,1.46,0,0,0-.29,0h-.74c-.33,0,.09-.1.16,0a4.56,4.56,0,0,0-1-.23c-.09,0-.63-.18-.28-.1s-.11-.05-.21-.1-1-.46-1-.59.34.31.16.13l-.18-.14-.38-.36c-.12-.12-.23-.25-.35-.38s-.22-.23,0,0,0-.08-.08-.13c-.18-.27-.3-.56-.47-.83s.11.19.09.2a2.43,2.43,0,0,1-.1-.28c-.05-.16-.09-.33-.13-.5-.14-.54,0,.34,0-.06,0-.19,0-.37,0-.56s0-.59,0-.25,0,0,0-.09,0-.2.07-.3a5.34,5.34,0,0,1,.16-.53c.13-.4-.18.34,0,0a10.42,10.42,0,0,1,.61-1c.14-.21-.11.14-.11.14a1.25,1.25,0,0,1,.21-.24l.33-.34.42-.38c.19-.17-.14.11-.14.11a1,1,0,0,1,.32-.22l.41-.25c.09-.05.45-.16.5-.25l-.18.07.3-.1a5.26,5.26,0,0,1,.53-.15l.31-.07c.14,0,.23,0,0,0s-.11,0,0,0h.32c.15,0,.31,0,.47,0,.46,0-.13,0-.13,0a1.31,1.31,0,0,1,.31.06,2.26,2.26,0,1,0,1.2-4.35Z"/>
        <path d="M553.28,600.84c4.35,0,4.36-6.77,0-6.77s-4.37,6.77,0,6.77Z"/>
        <path d="M556.89,604.84c4.36,0,4.36-6.77,0-6.77s-4.36,6.77,0,6.77Z"/>
        <path d="M561.14,608.41c4.35,0,4.36-6.77,0-6.77s-4.37,6.77,0,6.77Z"/>
        <path d="M566,611.55c4.35,0,4.36-6.77,0-6.77s-4.37,6.77,0,6.77Z"/>
        <path d="M571.1,613.64c4.36,0,4.36-6.77,0-6.77s-4.36,6.77,0,6.77Z"/>
        <path d="M575.65,615.62c4.36,0,4.37-6.77,0-6.77s-4.36,6.77,0,6.77Z"/>
        <path d="M580.84,617.18c4.36,0,4.36-6.77,0-6.77s-4.36,6.77,0,6.77Z"/>
        <path d="M586.86,617.25c4.36,0,4.37-6.77,0-6.77s-4.36,6.77,0,6.77Z"/>
        <path d="M591.4,616.49c4.36,0,4.37-6.77,0-6.77s-4.36,6.77,0,6.77Z"/>
        <path d="M596.15,614.67c4.35,0,4.36-6.77,0-6.77s-4.36,6.77,0,6.77Z"/>
        <path d="M602.05,612.52c4.36,0,4.37-6.77,0-6.77s-4.36,6.77,0,6.77Z"/>
        <path d="M606.58,609c4.36,0,4.36-6.77,0-6.77s-4.36,6.77,0,6.77Z"/>
        <path class="wheel-cls-113" d="M583.79,578.59l-45,6.45c-2.87.41-1.65,4.76,1.2,4.35l45-6.45c2.86-.41,1.64-4.76-1.2-4.35Z"/>
        <path class="wheel-cls-113" d="M538.77,588.88l43.45-12.43c2.78-.8,1.6-5.16-1.2-4.35l-43.45,12.43c-2.79.8-1.6,5.15,1.2,4.35Z"/>
        <path class="wheel-cls-113" d="M580.43,574.64l1.42,5.61a2.27,2.27,0,0,0,2.77,1.58,2.3,2.3,0,0,0,1.58-2.78l-1.42-5.61a2.28,2.28,0,0,0-2.77-1.58,2.3,2.3,0,0,0-1.58,2.78Z"/>
        <path class="wheel-cls-113" d="M581,575.17l-20,4.63c-2.83.66-1.63,5,1.2,4.35l20-4.62c2.83-.66,1.63-5-1.2-4.36Z"/>
        <path class="wheel-cls-113" d="M583.43,581.47c2.91,0,2.91-4.51,0-4.51s-2.91,4.51,0,4.51Z"/>
        <path class="wheel-cls-113" d="M554.8,586.18a58.09,58.09,0,0,1,12.42-2.76c2.09-.21,4.2-.14,6.29-.3a14.26,14.26,0,0,0,3-.85L580,581.2l-1.74-4.12-.94.73c-1.05.81-1.68,2.49-.46,3.54a4.35,4.35,0,0,0,5.76.22,4.28,4.28,0,0,0,.65-5.55c-1.34-2-3.88-2-6-1.49-2.34.63-4.65,1.42-7,2.12-2.77.85-1.59,5.21,1.2,4.36l6.06-1.85a10.56,10.56,0,0,1,1.33-.38c.15,0,.79,0,.86-.06-.24.17-.36-1.12.29-.56l-.45,3.54.94-.73a2.29,2.29,0,0,0,.93-2.81,2.25,2.25,0,0,0-2.67-1.31c-2,.62-4.21,1.66-6.3,1.76s-4.19.16-6.28.41a62.74,62.74,0,0,0-12.62,2.81c-2.74.92-1.56,5.28,1.2,4.35Z"/>
        <path class="wheel-cls-113" d="M538.77,589.5c2.91,0,2.91-4.51,0-4.51s-2.91,4.51,0,4.51Z"/>
        <path d="M558.51,552.63a5.55,5.55,0,0,0-.88,3.09,4.29,4.29,0,0,0,1.37,3.15,4.49,4.49,0,0,0,1.64.91,3.53,3.53,0,0,0,1.37.15,3.84,3.84,0,0,0,1.78-.53,3.39,3.39,0,0,0,1.29-1.39,4.37,4.37,0,0,0-.22-4.12,8.64,8.64,0,0,0-1.92-2.17,5.19,5.19,0,0,0-3.41-1.42,4.28,4.28,0,0,0-3.11,1.45,5.66,5.66,0,0,0-1.36,3.6,10.53,10.53,0,0,0,.72,3.46,2.42,2.42,0,0,0,1,1.35,2.25,2.25,0,0,0,3.09-.81,2.26,2.26,0,0,0,.22-1.74,12.43,12.43,0,0,1-.59-2.17l.08.6a4.5,4.5,0,0,1,0-1.16l-.08.6a3.17,3.17,0,0,1,.22-.8l-.23.54a3.43,3.43,0,0,1,.37-.64l-.35.46a2.79,2.79,0,0,1,.45-.46l-.46.35a2.87,2.87,0,0,1,.48-.28l-.54.23a2.32,2.32,0,0,1,.45-.13l-.6.08a2.35,2.35,0,0,1,.53,0l-.6-.08a2.56,2.56,0,0,1,.6.17l-.54-.23a4.27,4.27,0,0,1,.79.48l-.46-.35a8.61,8.61,0,0,1,1.41,1.42l-.36-.46a3.22,3.22,0,0,1,.44.73l-.22-.54a2.57,2.57,0,0,1,.16.62L561,556a3.38,3.38,0,0,1,0,.45l.08-.6a2.36,2.36,0,0,1-.11.44l.22-.54a2.09,2.09,0,0,1-.16.29l.35-.46a1.67,1.67,0,0,1-.23.23l.45-.35a1.56,1.56,0,0,1-.28.16l.54-.22a1.56,1.56,0,0,1-.37.1l.6-.08a1.63,1.63,0,0,1-.54,0l.6.08a2.46,2.46,0,0,1-.53-.15l.54.23a2.75,2.75,0,0,1-.41-.24l.46.35a1.59,1.59,0,0,1-.29-.29l.35.46a2,2,0,0,1-.24-.43l.22.54a2.94,2.94,0,0,1-.16-.58l.08.6a3,3,0,0,1,0-.79l-.08.6a3.69,3.69,0,0,1,.25-.86l-.23.53a4.14,4.14,0,0,1,.29-.55,2.28,2.28,0,0,0-.81-3.09,2.3,2.3,0,0,0-3.08.81Z"/>
        <path d="M600.19,550.91a7.73,7.73,0,0,0-.83,4A6.76,6.76,0,0,0,601,559a3.42,3.42,0,0,0,5,0,4.14,4.14,0,0,0,1.09-2.58,6.68,6.68,0,0,0-.33-2.3,2.28,2.28,0,0,0-2.48-1.62,2.24,2.24,0,0,0-2,2.22,4.74,4.74,0,0,0,1.09,2.74,4.21,4.21,0,0,0,4.54,1.29,4.7,4.7,0,0,0,1.13-.54,5.12,5.12,0,0,0,1.24-1.26,2.09,2.09,0,0,0,.11-2,1.65,1.65,0,0,0-.46-.73,2.3,2.3,0,0,0-1-.58l-1.34-.55a2.27,2.27,0,0,0-2.78,1.58,2.31,2.31,0,0,0,.23,1.74l.35.45a2.3,2.3,0,0,0,1,.58l1.34.55-1.35-3.31,0,.07.35-.46a1.91,1.91,0,0,1-.38.37l.46-.35a3.07,3.07,0,0,1-.46.27l.54-.23a2.54,2.54,0,0,1-.6.16l.6-.08a3.11,3.11,0,0,1-.53,0l.6.08a2.38,2.38,0,0,1-.52-.15l.54.23a2.6,2.6,0,0,1-.45-.28l.46.36a2.72,2.72,0,0,1-.37-.39l.35.46a2.4,2.4,0,0,1-.27-.46l.23.54a2.46,2.46,0,0,1-.15-.51l.08.6a1.09,1.09,0,0,1,0-.18l-4.44.6a9.43,9.43,0,0,1,.25,1l-.08-.6a3.37,3.37,0,0,1,0,.71l.08-.6a2.46,2.46,0,0,1-.11.45l.22-.54a2.08,2.08,0,0,1-.22.38l.36-.46a2.83,2.83,0,0,1-.24.25l.45-.35a1.61,1.61,0,0,1-.28.17l.54-.22-.24.07.6-.08h-.35l.6.08-.24-.07.54.23a1.49,1.49,0,0,1-.3-.18l.45.36a2.72,2.72,0,0,1-.37-.39l.35.46a3.57,3.57,0,0,1-.41-.74l.22.54a5.32,5.32,0,0,1-.35-1.3l.08.6a5.82,5.82,0,0,1,0-1.56l-.08.6a5.4,5.4,0,0,1,.35-1.31l-.23.54c0-.09.09-.19.13-.28a2.4,2.4,0,0,0,.23-1.74,2.27,2.27,0,0,0-1-1.35,2.24,2.24,0,0,0-3.08.81Z"/>
        <path class="wheel-cls-114" d="M641,629.63l-.14,21.66,3.38-3.38a437.57,437.57,0,0,1-82.6-1.47q-11.55-1.32-23-3.27l2.36,4.17,5-17.73c1.18-4.21-5.22-5.94-6.53-1.8L532.06,651c-1.32,4.17,5.21,6,6.52,1.8l7.36-23.2-6.53-1.8-5,17.73c-.46,1.63.56,3.86,2.36,4.16a443.21,443.21,0,0,0,83.66,6.17q11.89-.27,23.76-1.19a3.46,3.46,0,0,0,3.39-3.39l.14-21.66c0-4.36-6.74-4.36-6.77,0Z"/>
        <path class="wheel-cls-114" d="M642.88,628a125.61,125.61,0,0,1-84-5.2c-3.63-1.54-7.5-3-11.52-2.61a12.11,12.11,0,0,0-9.42,5.58c-2.26,3.74,3.6,7.15,5.85,3.42,3.23-5.35,11.91-.39,15.87,1.21a124.07,124.07,0,0,0,20,6.2,131.28,131.28,0,0,0,65-2.07c4.18-1.22,2.4-7.76-1.8-6.53Z"/>
        <path class="wheel-cls-114" d="M641.69,626.89a113.2,113.2,0,0,1-44,7.55c-4.36-.12-4.36,6.65,0,6.77a118.34,118.34,0,0,0,45.83-7.79,3.48,3.48,0,0,0,2.37-4.16c-.45-1.63-2.45-3-4.17-2.37Z"/>
        <path class="wheel-cls-114" d="M536.89,627l-4.36,24c-.35,1.93.89,4.54,3.26,4.29,17.44-1.86,35.08-4.31,52.62-2.38,1.82.2,3.39-1.7,3.39-3.39a3.46,3.46,0,0,0-3.39-3.38c-17.54-1.93-35.18.52-52.62,2.38l3.27,4.28,4.35-24a3.47,3.47,0,0,0-2.36-4.16,3.41,3.41,0,0,0-4.16,2.36Z"/>
        <path class="wheel-cls-114" d="M540,652.18a61.34,61.34,0,0,1,29.9-6.51L569,639l-17.74,4.46c-3.62.91-3,6.92.9,6.64l14.11-1-.9-6.65a28.76,28.76,0,0,1-16.53.78c-2.19-.56-4.47-1.25-5.45-3.49a5.47,5.47,0,0,1,.3-5c2.75-4.66,8.49-3.28,12.8-2.18l18.78,4.79,21.32,5.43c4.22,1.08,6-5.45,1.8-6.53l-22.76-5.8-11.2-2.85a111.13,111.13,0,0,0-11.2-2.67c-6.68-1-13.56,1.52-16.22,8.15a12.08,12.08,0,0,0,6.48,15.5c7.36,3.13,16.19,3,23.68.42,3.41-1.16,3.12-6.94-.9-6.65l-14.11,1,.9,6.65,17.74-4.45c3.78-.95,2.85-6.52-.9-6.65a68.53,68.53,0,0,0-33.32,7.43c-3.89,2-.47,7.81,3.42,5.85Z"/>
        <path class="wheel-cls-114" d="M554.57,624.22a7.89,7.89,0,0,0-3.41-1.84,9.28,9.28,0,0,0-4,0,8,8,0,0,0-5.47,4.08,3.54,3.54,0,0,0-.34,2.61,3.38,3.38,0,0,0,4.16,2.36,3.34,3.34,0,0,0,2-1.56,4.63,4.63,0,0,1,.48-.76l-.53.68a5.46,5.46,0,0,1,.76-.76l-.68.53a5.26,5.26,0,0,1,1.17-.68l-.81.34a6.15,6.15,0,0,1,1.4-.37l-.9.12a5.62,5.62,0,0,1,1.36,0l-.9-.12a4.6,4.6,0,0,1,1.21.32l-.81-.34a4.63,4.63,0,0,1,.94.55l-.69-.53.21.17a3.55,3.55,0,0,0,2.39,1,3.38,3.38,0,0,0,3.39-3.38,3.37,3.37,0,0,0-1-2.39Z"/>
        <path class="wheel-cls-114" d="M546.09,649.37c4.72,0,9.24-4.15,9-9a9.19,9.19,0,0,0-9-9c-4.72,0-9.24,4.15-9,9a9.18,9.18,0,0,0,9,9Z"/>
        <path class="wheel-cls-114" d="M544.92,643.27a203.5,203.5,0,0,0,73.28,8.51,220.67,220.67,0,0,0,22.19-2.71c4.67-.8,7.71-6.78,6.31-11.1-1.63-5-6.11-7.17-11.11-6.31-1.38.24-2.76.47-4.14.67l-2.08.31c-.21,0-1.4.2-.19,0s-.3,0-.53.07q-4.35.53-8.71.87c-5.81.45-11.65.64-17.48.57s-11.9-.41-17.82-1c-1.39-.14-2.78-.3-4.17-.47a4,4,0,0,1-1-.14s1.73.25.66.09l-2.42-.35q-4.33-.66-8.62-1.52a192.53,192.53,0,0,1-19.33-4.89c-4.52-1.38-10,1.65-11.11,6.31a9.22,9.22,0,0,0,6.31,11.1Z"/>
        <path class="wheel-cls-114" d="M551.34,643l23.86,5.66a9.48,9.48,0,0,0,7-.91,9.19,9.19,0,0,0,4.15-5.39c1.05-4.63-1.39-9.94-6.31-11.11l-23.86-5.66a9.49,9.49,0,0,0-7,.91,9.2,9.2,0,0,0-4.14,5.39c-1.06,4.63,1.39,9.94,6.3,11.11Z"/>
        <path class="wheel-cls-114" d="M547.94,647.46a215.09,215.09,0,0,0,72.95,8.14c7.39-.46,14.74-1.34,22.05-2.5,2.09-.33,4.37-2.4,5.39-4.15a9.23,9.23,0,0,0,.91-7c-1.64-5.08-6.09-7.11-11.1-6.31l-2.79.43-1.4.2.3,0c-1.87.23-3.74.45-5.62.64q-5.61.57-11.27.82a208.68,208.68,0,0,1-22.23-.19c-3.65-.23-7.28-.56-10.91-1-.93-.1-1.88-.18-2.8-.34,2.49.44-.63-.09-1.1-.16q-2.79-.42-5.58-.9a207.56,207.56,0,0,1-22-5.12c-4.53-1.31-10,1.6-11.1,6.31a9.2,9.2,0,0,0,6.3,11.1Z"/>
        <path class="wheel-cls-114" d="M638.5,647.33c4.72,0,9.25-4.15,9-9a9.18,9.18,0,0,0-9-9c-4.72,0-9.24,4.15-9,9a9.18,9.18,0,0,0,9,9Z"/>
        <path class="wheel-cls-114" d="M563,646.13a100.08,100.08,0,0,0-17.47,57l2.86-2.18a48,48,0,0,0-33.75.77l2.78,2.78a101.85,101.85,0,0,1,29.89-53.6c2.12-2-1.08-5.18-3.19-3.19a105.94,105.94,0,0,0-31,55.59c-.31,1.49,1,3.47,2.77,2.77a44.16,44.16,0,0,1,31.35-.77,2.27,2.27,0,0,0,2.85-2.17,95.86,95.86,0,0,1,16.86-54.75c1.65-2.4-2.26-4.66-3.9-2.28Z"/>
        <path class="wheel-cls-114" d="M513.59,704.69l-.86,11.48c-.17,2.23,3.2,3.08,4.2,1.14l11.31-21.82c1.34-2.58-2.55-4.86-3.89-2.28L513,715l4.2,1.14.86-11.48a2.26,2.26,0,0,0-4.51,0Z"/>
        <path class="wheel-cls-114" d="M521.3,702.3l-.38,6.87c-.12,2.21,3.19,3.09,4.21,1.14l7.1-13.67a2.25,2.25,0,1,0-3.89-2.28L521.23,708l4.21,1.14.38-6.87a2.28,2.28,0,0,0-2.26-2.26,2.32,2.32,0,0,0-2.26,2.26Z"/>
        <path class="wheel-cls-114" d="M526,702l-.12,3.11a2.29,2.29,0,0,0,1.66,2.17,2.37,2.37,0,0,0,2.55-1l8.41-12.11a2.27,2.27,0,0,0-.81-3.09,2.33,2.33,0,0,0-3.09.81l-8.41,12.11,4.21,1.14.12-3.11a2.27,2.27,0,0,0-2.26-2.25A2.3,2.3,0,0,0,526,702Z"/>
        <path class="wheel-cls-114" d="M530.73,701.27l-.38,5.89c-.14,2.16,3.28,3.18,4.21,1.14A93.1,93.1,0,0,1,546,689.37a2.33,2.33,0,0,0,0-3.19,2.27,2.27,0,0,0-3.19,0A97.49,97.49,0,0,0,530.66,706l4.21,1.14.37-5.89a2.26,2.26,0,0,0-4.51,0Z"/>
        <path class="wheel-cls-114" d="M534.47,702.64v5.41a2.28,2.28,0,0,0,1.65,2.17,2.34,2.34,0,0,0,2.55-1l5.89-9.43a2.28,2.28,0,0,0-.81-3.09,2.3,2.3,0,0,0-3.08.81l-5.89,9.44,4.2,1.14v-5.41a2.26,2.26,0,1,0-4.52,0Z"/>
        <path class="wheel-cls-114" d="M539.2,704.63l.5,1.88a2.29,2.29,0,0,0,2.17,1.66,2.36,2.36,0,0,0,2.18-1.66l3-9a2.28,2.28,0,0,0-1.58-2.78,2.31,2.31,0,0,0-2.77,1.58l-3,8.95h4.35l-.5-1.88a2.26,2.26,0,1,0-4.35,1.2Z"/>
        <path class="wheel-cls-114" d="M543,703.66l-.2,4.63a2.26,2.26,0,0,0,4.44.6l2.35-7.09A2.28,2.28,0,0,0,548,699a2.32,2.32,0,0,0-2.78,1.58l-2.36,7.09,4.44.6.2-4.63a2.28,2.28,0,0,0-2.26-2.26,2.31,2.31,0,0,0-2.26,2.26Z"/>
        <path class="wheel-cls-114" d="M538.77,704.89c2.91,0,2.91-4.51,0-4.51s-2.91,4.51,0,4.51Z"/>
        <path class="wheel-cls-114" d="M519.34,710.36l1.08-7.82a2.5,2.5,0,0,0-.22-1.74,2.34,2.34,0,0,0-1.35-1,2.29,2.29,0,0,0-1.74.23,2.19,2.19,0,0,0-1,1.35L515,709.16a2.45,2.45,0,0,0,.23,1.74,2.31,2.31,0,0,0,1.35,1,2.28,2.28,0,0,0,1.73-.23,2.19,2.19,0,0,0,1-1.35Z"/>
        <path class="wheel-cls-114" d="M518.35,704.21c2.9,0,2.91-4.51,0-4.51s-2.91,4.51,0,4.51Z"/>
        <path class="wheel-cls-114" d="M519,705.91c2.9,0,2.91-4.51,0-4.51s-2.91,4.51,0,4.51Z"/>
        <path class="wheel-cls-114" d="M521.29,700.25a7.88,7.88,0,0,1,0-1.88l-.08.6a7.84,7.84,0,0,1,.54-2l-.23.54a8.42,8.42,0,0,1,1.06-1.81l-.36.46a8.32,8.32,0,0,1,1.09-1.13,2.23,2.23,0,0,0,0-3.19,2.22,2.22,0,0,0-1.59-.66,2.58,2.58,0,0,0-1.6.66,9.89,9.89,0,0,0-3.35,8.43,2.45,2.45,0,0,0,.66,1.6,2.26,2.26,0,0,0,3.19,0,2.17,2.17,0,0,0,.66-1.6Z"/>
        <path class="wheel-cls-114" d="M519.89,699.57a10.59,10.59,0,0,1,0-1.26c0-.09,0-.18,0-.28s.06-.52,0-.11,0,0,0,0,0-.23.07-.34a8.81,8.81,0,0,1,.33-1.22c.07-.2.14-.39.22-.59s-.2.41-.07.15a3.13,3.13,0,0,0,.15-.32c.18-.35.37-.7.58-1,.12-.18.23-.35.36-.52s.3-.41.07-.11,0,0,0,0a9.46,9.46,0,0,1,.87-.92l.47-.42a1.43,1.43,0,1,0-.13.09,4.15,4.15,0,0,0,.34-.24,2.3,2.3,0,0,0,.81-3.09,2.27,2.27,0,0,0-3.08-.81,13,13,0,0,0-5.6,11.12,2.26,2.26,0,0,0,4.52,0Z"/>
        <path class="wheel-cls-114" d="M549.57,699.54c.16-1.75.34-3.49.55-5.24,0-.34.09-.69.13-1-.09.64-.07.54,0-.29s.27-1.85.42-2.77c.52-3.24,1.15-6.45,1.87-9.65a157.86,157.86,0,0,1,5.78-19.49l-13.3-1.8-.54,5.35c-.67,6.69,9.69,9.21,12.62,3.41l8-15.86c1.59-3.16.94-7.49-2.43-9.27-3.08-1.62-7.56-.94-9.26,2.43l-8,15.87,12.61,3.42.54-5.35c.33-3.34-2.83-6.24-5.87-6.65-3.49-.47-6.25,1.64-7.43,4.85A164.86,164.86,0,0,0,536,699.54c-.31,3.53,3.34,6.92,6.77,6.77,3.94-.18,6.43-3,6.77-6.77Z"/>
        <path class="wheel-cls-114" d="M527,704a118.87,118.87,0,0,1,4.35-14.41c.43-1.18.9-2.34,1.37-3.51.77-1.91-.54,1.2.29-.69.25-.58.51-1.15.77-1.72,1-2.29,2.15-4.54,3.33-6.76a117.84,117.84,0,0,1,7.9-12.81c.73-1,1.47-2,2.23-3s-.18.2.28-.36.78-1,1.18-1.47q2.48-3,5.15-5.92c2.41-2.59,2.77-7,0-9.57-2.62-2.41-7-2.77-9.57,0a126,126,0,0,0-30.33,56.66c-.81,3.44,1.07,7.5,4.72,8.33,3.47.79,7.47-1,8.33-4.73Z"/>
        <path class="wheel-cls-114" d="M533.16,699.89a30.64,30.64,0,0,1,.15-3.18c-.15,1.46.13-.53.16-.68.08-.41.18-.82.28-1.23a32.76,32.76,0,0,1,1-3.32c.08-.21.63-1.53.15-.45.22-.49.44-1,.68-1.45a85.62,85.62,0,0,1,6.91-11.38q8.63-12.5,17.33-24.94c2-2.91.63-7.64-2.43-9.26a6.94,6.94,0,0,0-9.26,2.43c-6,8.66-12.11,17.28-18.06,26-5.6,8.2-10.56,17.26-10.5,27.46,0,3.54,3.1,6.93,6.77,6.77a6.89,6.89,0,0,0,6.77-6.77Z"/>
        <path class="wheel-cls-114" d="M531.62,707a17.88,17.88,0,0,0,13.31-6.1,18.52,18.52,0,0,0,4-15.37c-.71-4.35-6.53-6.13-10-4-2.63,1.6-5.37,3.1-7.92,4.82-.73.5.12,0,.47-.12-1.41.38,2,.12,2,.12l3.46,6.44-.36.91c-.78,1.34-.5.65-.09.22,1.07-1.13,2.16-2.25,3.24-3.37l13-13.49c2.46-2.56,2.73-7.07,0-9.58a6.93,6.93,0,0,0-9.57,0L539,671.19c-.65.58-1.33,1.15-2,1.75-.38.33-.22.21.46-.35l.81-.31,5.9,2.52q.55,4.1.73,2.37l-.92,3.42-1.94,1.9a6.83,6.83,0,0,0,2.43-9.26,6.91,6.91,0,0,0-9.26-2.43,7.72,7.72,0,0,0-3.2,9.77,8.14,8.14,0,0,0,9.44,4.84c2.64-.64,4.53-2.35,6.5-4.11l4.8-4.29-9.57-9.58-8.59,8.93c-2.77,2.88-5.81,5.66-8.36,8.75-2.39,2.89-3.6,6.86-1.48,10.33a9,9,0,0,0,9.51,4c2.14-.38,4-1.68,5.84-2.79l5.67-3.46-9.95-4c-.1-.63-.12-1.36-.08-.29q0,.43,0,.87c0,1.19-.18.14.08-.29a3.31,3.31,0,0,0-.19.84c-.09.36-.23.69-.33,1-.21.75.79-1.41.07-.23-.15.25-.3.5-.44.75-.59,1,.7-.71.15-.16-.21.21-.39.43-.6.64-.48.46-1,.46.21-.08a19,19,0,0,0-1.67,1c-.69.44,1.21-.37.42-.17-.35.09-.69.23-1,.32a5.15,5.15,0,0,0-.85.18c1-.12,1.26-.16.73-.12l-.66,0c-3.53.08-6.93,3.06-6.77,6.77s3,6.86,6.77,6.77Z"/>
        <path class="wheel-cls-115" d="M541.22,629.07c7-4.09,14.65,1.23,21.09,4a83.77,83.77,0,0,0,20.3,5.64c15.2,2.34,30.6,1.27,45.86.19.72-.06.72-1.18,0-1.13-12.58.89-25.23,1.8-37.83.76a100.67,100.67,0,0,1-17.83-3c-5.81-1.57-11.1-4-16.55-6.52-4.92-2.24-10.62-3.78-15.61-.89a.57.57,0,0,0,.57,1Z"/>
        <path class="wheel-cls-115" d="M542.92,636.71c12.25-5.05,24.52,3,35.83,6.93a45.3,45.3,0,0,0,18.09,2.64c6.34-.44,12.52-2.06,18.73-3.3,7.3-1.46,14.84-2.38,22.12-.35a.57.57,0,0,0,.3-1.09c-12.63-3.52-25.14,1.58-37.62,3.24A45,45,0,0,1,580,642.89c-6.2-2-12-5-18.24-7s-13-2.77-19.17-.23c-.66.27-.37,1.37.3,1.09Z"/>
        <path class="wheel-cls-115" d="M540.24,644c12.64-4.75,25.72,1.16,38,4.08A147.15,147.15,0,0,0,616.22,652a149.06,149.06,0,0,0,21.39-2.15c.71-.13.41-1.21-.3-1.09a147.26,147.26,0,0,1-39.22,1.49,145,145,0,0,1-19.85-3.33c-6.19-1.48-12.24-3.58-18.49-4.82-6.58-1.31-13.45-1.57-19.81.83-.68.25-.38,1.34.3,1.08Z"/>
        <path class="wheel-cls-115" d="M618.73,649.23c3.28-.91,6.56-1.83,9.85-2.73s6.69-1.69,10.08-1c.71.15,1-.94.3-1.09-3.35-.68-6.69,0-9.94.81-3.54.94-7.07,1.95-10.59,2.92a.57.57,0,0,0,.3,1.09Z"/>
        <path class="wheel-cls-115" d="M629.09,636.66a19.92,19.92,0,0,0,13.81-4c.56-.44,0-1.42-.57-1a18.94,18.94,0,0,1-13.24,3.89c-.72-.06-.72,1.07,0,1.13Z"/>
        <path class="wheel-cls-115" d="M546.59,699.1A58.59,58.59,0,0,1,557.75,653c.44-.58-.54-1.14-1-.57A59.72,59.72,0,0,0,545.5,699.4c.13.71,1.22.41,1.09-.3Z"/>
        <path class="wheel-cls-115" d="M543.06,664.85a100.62,100.62,0,0,0-4.31,32.34.57.57,0,0,0,1.13,0,99.59,99.59,0,0,1,4.27-32c.21-.7-.87-1-1.09-.3Z"/>
        <path class="wheel-cls-115" d="M534.61,702.37c-.35-17-.32-36.83,13.78-48.82.56-.47-.24-1.27-.79-.8-14.33,12.19-14.47,32.37-14.11,49.62a.56.56,0,0,0,1.12,0Z"/>
        <path class="wheel-cls-115" d="M524.68,697.65a61.42,61.42,0,0,1,9-30.43c.38-.62-.6-1.19-1-.57a62.65,62.65,0,0,0-9.12,31,.57.57,0,0,0,1.13,0Z"/>
      </g>
    </g>
  </g>
</svg>
