<svg width="1000" height="100" viewBox="0 0 1000 100" fill="none" xmlns="http://www.w3.org/2000/svg">
<rect width="1000" height="100" fill="none"/>
<path d="M945.5 56.6355C945.5 56.6355 943.142 58.3659 942.5 56C942.5 56 943.5 56.6355 942.5 53C944.689 51.5367 944 52 945 52.5L947 52L950 51C950 51 952.5 47.9077 952 50C953.5 51.5859 954 50 954 50C954 50 953.113 47.6593 956 51.5C956 51.5 956 52 954 52C954.355 54.2675 951.5 52.1432 951.5 52.1432C950.113 52.7599 950 53.7388 949.5 54C944.625 56.5461 945.5 56.6355 945.5 56.6355Z" fill="#251E0B" stroke="black" stroke-width="0.1"/>
<path d="M846.5 60C843.5 55.8329 841.142 60.8659 840.5 58.5C843.713 55.9638 842.541 55.3246 843 54C843 50.167 845.48 57.1295 844.5 50L846.5 48.5859C848.689 47.1227 846.83 52.1667 849.5 48.5859L851.5 48L853 46C853 46 856 45 855.5 47.0923C857 48.6782 858.67 47.0923 858.67 47.0923C861.557 48.0637 859.5 49.6081 864 48.5859C865 51 858.67 48.0637 861.557 51.9044H858C858.355 54.1718 856 53.5 856 53.5C854.613 54.1166 856.01 56.3966 852 56.3966C847.587 61.0311 846.5 60 846.5 60Z" fill="#251E0B" stroke="black" stroke-width="0.1"/>
<path d="M737.5 63C734.5 58.8329 733.642 62.8437 733 60.4778C736.213 57.9416 738.041 57.1353 738.5 55.8107C738.5 51.9778 741.98 55.1295 741 48L742.153 46.1856C744.342 44.7223 745.33 45.9949 748 42.4141L750 45L752.5 43.4778C752.5 43.4778 755 42.4141 758 42.4141C759.5 44 756.67 46.5064 756.67 46.5064C759.557 47.4778 759.5 46.0222 764 45C763.616 49.4467 756.67 47.4778 759.557 51.3185C759.557 51.3185 759.594 51.3557 762 52.5C762.355 54.7675 756.67 54.4778 756.67 54.4778C755.283 55.0944 754.01 55.8107 750 55.8107C745.587 60.4452 744.746 55.4778 742.153 60.4778C741.272 62.1772 739.5 60 737.5 63Z" fill="#251E0B" stroke="black" stroke-width="0.1"/>
<path d="M537 69.3966C536.5 64.5 529.642 63.2626 529 60.8966C532.213 58.3604 533.541 56.7212 534 55.3966C533.656 52.7768 537.98 53.2218 537 46.0923C542.133 38.6185 539 37 542.738 33.4204C546.347 34.5433 540.653 40.3966 540.653 45.7715C542.842 44.3082 543.83 45.5808 546.5 42C552.171 38.3809 552.082 27.2049 555.891 29.3302C555.891 33 554 33.4204 551.159 42.403C559.5 39 560.543 29.5708 563.591 31.9768C563 35 561.5 36.3966 555.17 46.0923C565 43 566.157 36.2676 568.884 38.5533C568.5 43 564 43.3966 558.057 50.9044C566 52 568.884 48.3966 571.29 49.5409C571.645 51.8084 567.323 52.3207 559 54.6738C557.613 55.2905 552.51 55.3966 548.5 55.3966C544.087 60.0311 545.332 57.8966 542.738 62.8966C541.857 64.5961 539 64.5 537 69.3966Z" fill="#251E0B" stroke="black" stroke-width="0.1"/>
<path d="M636 65C633 60.8329 631.142 62.3659 630.5 60C633.713 57.4638 634.541 56.6575 635 55.3329C635 51.5 638.98 54.1295 638 47C643.133 39.5262 637.762 40.5796 641.5 37C645.109 38.1228 640.653 40.3329 640.653 45.7078C642.842 44.2445 643.83 45.5171 646.5 41.9363C652.171 38.3172 650.19 32.8747 654 35C654 38.6698 653.841 34.0174 651 43C659.341 39.597 657.452 34.5939 660.5 37C659.909 40.0232 661.5 36.3329 655.17 46.0286C665 42.9363 662.773 40.7143 665.5 43C665.116 47.4467 664 43.3329 658.057 50.8407C666 51.9363 663.094 50.3557 665.5 51.5C665.855 53.7675 663.492 51.6469 655.17 54C653.783 54.6166 652.51 55.3329 648.5 55.3329C644.087 59.9674 643.246 55 640.653 60C639.772 61.6994 638 62 636 65Z" fill="#251E0B" stroke="black" stroke-width="0.1"/>
<path d="M537 69.3966C536.5 64.5 529.642 63.2626 529 60.8966C532.213 58.3604 533.541 56.7212 534 55.3966C533.656 52.7768 537.98 53.2218 537 46.0923C542.133 38.6185 539 37 542.738 33.4204C546.347 34.5433 540.653 40.3966 540.653 45.7715C542.842 44.3082 543.83 45.5808 546.5 42C552.171 38.3809 552.082 27.2049 555.891 29.3302C555.891 33 554 33.4204 551.159 42.403C559.5 39 560.543 29.5708 563.591 31.9768C563 35 561.5 36.3966 555.17 46.0923C565 43 566.157 36.2676 568.884 38.5533C568.5 43 564 43.3966 558.057 50.9044C566 52 568.884 48.3966 571.29 49.5409C571.645 51.8084 567.323 52.3207 559 54.6738C557.613 55.2905 552.51 55.3966 548.5 55.3966C544.087 60.0311 545.332 57.8966 542.738 62.8966C541.857 64.5961 539 64.5 537 69.3966Z" fill="#251E0B" stroke="black" stroke-width="0.1"/>
<path d="M437.5 69.5C434.212 68.1767 430.142 63.3659 429.5 61C432.713 58.4638 434.041 56.8246 434.5 55.5C434.156 52.8802 434.5 52 436.02 45.4738C441.153 38 438.827 32.6416 443.238 33.5238C446.847 34.6467 441.153 40.5 441.153 45.8748C443.342 44.4116 444.658 43.1999 447.329 39.6191C453 36 452.582 27.3082 456.391 29.4335C459.432 31.108 454.5 33.5238 451.659 42.5064C459.5 38.6567 461.043 29.6741 464.091 32.0802C466.577 34.5664 462 36.5 455.67 46.1956C465 42.5064 466.657 36.371 469.384 38.6567C471.787 41.9528 464.5 43.5 458.557 51.0077C466.5 49.6443 469.384 48.5 471.79 49.6443C472.145 51.9118 467.823 52.4241 459.5 54.7772C458.113 55.3938 454.044 55.5866 451 58C446.587 62.6345 447.152 63.581 443.238 63C442.357 64.6994 440.204 66.5766 437.5 69.5Z" fill="#251E0B" stroke="black" stroke-width="0.1"/>
<path d="M338.105 70.4165C334.817 69.0932 328.642 62.1156 328 59.7497C331.213 57.2135 332.674 56.1018 333.133 54.7772C332.789 52.1574 333.136 50.3158 336.02 45.4738C340.511 37.3334 338.827 32.6416 343.238 33.5238C346.847 34.6466 344 42.2658 341.153 45.8748C343.342 44.4116 344.658 43.1999 347.329 39.6191C351.7 33.3634 352.582 27.3082 356.391 29.4335C359.432 31.108 356.309 35.435 351.659 42.5064C357.795 36.8923 361.043 29.6741 364.091 32.0802C366.577 34.5664 363.65 38.6968 355.67 46.1956C363.289 40.3008 366.657 36.3709 369.384 38.6567C371.787 41.9528 366.426 45.3458 358.557 51.0077C367.069 47.9039 371.202 46.6553 371.79 49.6443C372.145 51.9118 368.002 53.2261 359.68 55.5792C358.293 56.1959 356.708 57.4165 353.664 59.8299C349.251 64.4643 346.991 64.822 343.078 64.241C342.196 65.9404 340.809 67.4931 338.105 70.4165Z" fill="#43381C" stroke="black" stroke-width="0.1"/>
<path d="M332.933 64.7627C335.189 63.4395 336.347 62.4048 338.306 60.2714" stroke="black" stroke-width="0.1"/>
<path d="M336.622 67.9703C338.59 66.4045 339.155 65.3624 341.554 63.5993" stroke="black" stroke-width="0.1"/>
<path d="M332.251 64.0801C334.507 62.7569 335.665 61.7222 337.624 59.5889" stroke="black" stroke-width="0.1"/>
<path d="M328.601 59.9505C330.858 58.6273 332.216 57.8733 334.175 55.7399" stroke="black" stroke-width="0.1"/>
<path d="M335.699 67.4089C337.854 65.7033 338.958 64.4678 341.073 62.9176" stroke="black" stroke-width="0.1"/>
<path d="M335.018 66.8878C336.864 65.5348 337.288 64.4471 340.391 62.3965" stroke="black" stroke-width="0.1"/>
<path d="M334.216 66.2464C336.484 64.5184 337.648 63.2774 339.589 61.7551" stroke="black" stroke-width="0.1"/>
<path d="M333.534 65.4842C335.791 64.161 336.948 63.1263 338.908 60.9929" stroke="black" stroke-width="0.1"/>
<path d="M337.656 69.3837C339.152 67.1234 340.294 66.0901 342.485 64.3115" stroke="black" stroke-width="0.1"/>
<path d="M331.729 63.4387C333.986 62.1155 335.144 61.0808 337.103 58.9474" stroke="black" stroke-width="0.1"/>
<path d="M331.289 62.6372C333.545 61.314 334.703 60.2793 336.662 58.1459" stroke="black" stroke-width="0.1"/>
<path d="M330.727 62.1961C332.983 60.8729 334.141 59.8382 336.1 57.7049" stroke="black" stroke-width="0.1"/>
<path d="M330.045 61.3539C332.302 60.0307 333.46 58.996 335.419 56.8626" stroke="black" stroke-width="0.1"/>
<path d="M329.404 60.5519C331.66 59.2287 332.818 58.194 334.777 56.0606" stroke="black" stroke-width="0.1"/>
<path d="M333.066 54.7627C337.808 57.8805 340.211 63.7264 343.069 64.1811" stroke="black" stroke-width="0.1"/>
<path d="M238.105 70.4165C234.817 69.0932 228.642 62.1156 228 59.7497C231.213 57.2135 232.674 56.1018 233.133 54.7772C232.789 52.1574 233.136 50.3158 236.02 45.4738C240.511 37.3334 238.827 32.6416 243.238 33.5238C246.847 34.6466 244 42.2658 241.153 45.8748C243.342 44.4116 244.658 43.1999 247.329 39.6191C251.7 33.3634 252.582 27.3082 256.391 29.4335C259.432 31.108 256.309 35.435 251.659 42.5064C257.795 36.8923 261.043 29.6741 264.091 32.0802C266.577 34.5664 263.65 38.6968 255.67 46.1956C263.289 40.3008 266.657 36.3709 269.384 38.6567C271.787 41.9528 266.426 45.3458 258.557 51.0077C267.069 47.9039 271.202 46.6553 271.79 49.6443C272.145 51.9118 268.002 53.2261 259.68 55.5792C258.293 56.1959 256.708 57.4165 253.664 59.8299C249.251 64.4643 246.991 64.822 243.078 64.241C242.196 65.9404 240.809 67.4931 238.105 70.4165Z" fill="#746247" stroke="black" stroke-width="0.1"/>
<path d="M232.933 64.7627C235.189 63.4395 236.347 62.4048 238.306 60.2714" stroke="black" stroke-width="0.1"/>
<path d="M236.622 67.9703C238.59 66.4045 239.155 65.3624 241.554 63.5993" stroke="black" stroke-width="0.1"/>
<path d="M232.251 64.0801C234.507 62.7569 235.665 61.7222 237.624 59.5889" stroke="black" stroke-width="0.1"/>
<path d="M228.601 59.9505C230.858 58.6273 232.216 57.8733 234.175 55.7399" stroke="black" stroke-width="0.1"/>
<path d="M235.699 67.4089C237.854 65.7033 238.958 64.4678 241.073 62.9176" stroke="black" stroke-width="0.1"/>
<path d="M235.018 66.8878C236.864 65.5348 237.288 64.4471 240.391 62.3965" stroke="black" stroke-width="0.1"/>
<path d="M234.216 66.2464C236.484 64.5184 237.648 63.2774 239.589 61.7551" stroke="black" stroke-width="0.1"/>
<path d="M233.534 65.4842C235.791 64.161 236.948 63.1263 238.908 60.9929" stroke="black" stroke-width="0.1"/>
<path d="M237.656 69.3837C239.152 67.1234 240.294 66.0901 242.485 64.3115" stroke="black" stroke-width="0.1"/>
<path d="M231.729 63.4387C233.986 62.1155 235.144 61.0808 237.103 58.9474" stroke="black" stroke-width="0.1"/>
<path d="M231.289 62.6372C233.545 61.314 234.703 60.2793 236.662 58.1459" stroke="black" stroke-width="0.1"/>
<path d="M230.727 62.1961C232.983 60.8729 234.141 59.8382 236.1 57.7049" stroke="black" stroke-width="0.1"/>
<path d="M230.045 61.3539C232.302 60.0307 233.46 58.996 235.419 56.8626" stroke="black" stroke-width="0.1"/>
<path d="M229.404 60.5519C231.66 59.2287 232.818 58.194 234.777 56.0606" stroke="black" stroke-width="0.1"/>
<path d="M233.066 54.7627C237.808 57.8805 240.211 63.7264 243.069 64.1811" stroke="black" stroke-width="0.1"/>
<path d="M138.105 70.4165C134.817 69.0932 128.642 62.1156 128 59.7497C131.213 57.2135 132.674 56.1018 133.133 54.7772C132.789 52.1574 133.136 50.3158 136.02 45.4738C140.511 37.3334 138.827 32.6416 143.238 33.5238C146.847 34.6466 144 42.2658 141.153 45.8748C143.342 44.4116 144.658 43.1999 147.329 39.6191C151.7 33.3634 152.582 27.3082 156.391 29.4335C159.432 31.108 156.309 35.435 151.659 42.5064C157.795 36.8923 161.043 29.6741 164.091 32.0802C166.577 34.5664 163.65 38.6968 155.67 46.1956C163.289 40.3008 166.657 36.3709 169.384 38.6567C171.787 41.9528 166.426 45.3458 158.557 51.0077C167.069 47.9039 171.202 46.6553 171.79 49.6443C172.145 51.9118 168.002 53.2261 159.68 55.5792C158.293 56.1959 156.708 57.4165 153.664 59.8299C149.251 64.4643 146.991 64.822 143.078 64.241C142.196 65.9404 140.809 67.4931 138.105 70.4165Z" fill="#828858" stroke="black" stroke-width="0.1"/>
<path d="M132.933 64.7627C135.189 63.4395 136.347 62.4048 138.306 60.2714" stroke="black" stroke-width="0.1"/>
<path d="M136.622 67.9703C138.59 66.4045 139.155 65.3624 141.554 63.5993" stroke="black" stroke-width="0.1"/>
<path d="M132.251 64.0801C134.507 62.7569 135.665 61.7222 137.624 59.5889" stroke="black" stroke-width="0.1"/>
<path d="M128.601 59.9505C130.858 58.6273 132.216 57.8733 134.175 55.7399" stroke="black" stroke-width="0.1"/>
<path d="M135.699 67.4089C137.854 65.7033 138.958 64.4678 141.073 62.9176" stroke="black" stroke-width="0.1"/>
<path d="M135.018 66.8878C136.864 65.5348 137.288 64.4471 140.391 62.3965" stroke="black" stroke-width="0.1"/>
<path d="M134.216 66.2464C136.484 64.5184 137.648 63.2774 139.589 61.7551" stroke="black" stroke-width="0.1"/>
<path d="M133.534 65.4842C135.791 64.161 136.948 63.1263 138.908 60.9929" stroke="black" stroke-width="0.1"/>
<path d="M137.656 69.3837C139.152 67.1234 140.294 66.0901 142.485 64.3115" stroke="black" stroke-width="0.1"/>
<path d="M131.729 63.4387C133.986 62.1155 135.144 61.0808 137.103 58.9474" stroke="black" stroke-width="0.1"/>
<path d="M131.289 62.6372C133.545 61.314 134.703 60.2793 136.662 58.1459" stroke="black" stroke-width="0.1"/>
<path d="M130.727 62.1961C132.983 60.8729 134.141 59.8382 136.1 57.7049" stroke="black" stroke-width="0.1"/>
<path d="M130.045 61.3539C132.302 60.0307 133.46 58.996 135.419 56.8626" stroke="black" stroke-width="0.1"/>
<path d="M129.404 60.5519C131.66 59.2287 132.818 58.194 134.777 56.0606" stroke="black" stroke-width="0.1"/>
<path d="M133.066 54.7627C137.808 57.8805 140.211 63.7264 143.069 64.1811" stroke="black" stroke-width="0.1"/>
<path d="M38.1054 70.4165C34.8171 69.0932 28.6416 62.1156 28 59.7497C31.2127 57.2135 32.6739 56.1018 33.1329 54.7772C32.7885 52.1574 33.1359 50.3158 36.0201 45.4738C40.5114 37.3334 38.8272 32.6416 43.2383 33.5238C46.8474 34.6466 44.0002 42.2658 41.153 45.8748C43.3424 44.4116 44.6582 43.1999 47.3286 39.6191C51.6995 33.3634 52.5818 27.3082 56.3913 29.4335C59.4317 31.108 56.3087 35.435 51.6594 42.5064C57.7949 36.8923 61.043 29.6741 64.0907 32.0802C66.5769 34.5664 63.6496 38.6968 55.6695 46.1956C63.2887 40.3008 66.6571 36.3709 69.384 38.6567C71.7873 41.9528 66.4264 45.3458 58.5568 51.0077C67.0687 47.9039 71.2024 46.6553 71.79 49.6443C72.1454 51.9118 68.0021 53.2261 59.6796 55.5792C58.2929 56.1959 56.7084 57.4165 53.6645 59.8299C49.2511 64.4643 46.9915 64.822 43.0779 64.241C42.1965 65.9404 40.8093 67.4931 38.1054 70.4165Z" fill="#C5CB98" stroke="black" stroke-width="0.1"/>
<path d="M32.9325 64.7627C35.1891 63.4395 36.3469 62.4048 38.306 60.2714" stroke="black" stroke-width="0.1"/>
<path d="M36.6218 67.9703C38.5902 66.4045 39.1552 65.3624 41.5542 63.5993" stroke="black" stroke-width="0.1"/>
<path d="M32.2509 64.0801C34.5074 62.7569 35.6652 61.7222 37.6244 59.5889" stroke="black" stroke-width="0.1"/>
<path d="M28.6014 59.9505C30.858 58.6273 32.2163 57.8733 34.1754 55.7399" stroke="black" stroke-width="0.1"/>
<path d="M35.6995 67.4089C37.8536 65.7033 38.9575 64.4678 41.073 62.9176" stroke="black" stroke-width="0.1"/>
<path d="M35.0178 66.8878C36.8636 65.5348 37.2881 64.4471 40.3913 62.3965" stroke="black" stroke-width="0.1"/>
<path d="M34.2156 66.2464C36.484 64.5184 37.6478 63.2774 39.5891 61.7551" stroke="black" stroke-width="0.1"/>
<path d="M33.5342 65.4842C35.7907 64.161 36.9485 63.1263 38.9077 60.9929" stroke="black" stroke-width="0.1"/>
<path d="M37.6559 69.3837C39.1524 67.1234 40.2942 66.0901 42.4849 64.3115" stroke="black" stroke-width="0.1"/>
<path d="M31.7292 63.4387C33.9858 62.1155 35.1436 61.0808 37.1027 58.9474" stroke="black" stroke-width="0.1"/>
<path d="M31.2885 62.6372C33.545 61.314 34.7028 60.2793 36.662 58.1459" stroke="black" stroke-width="0.1"/>
<path d="M30.7269 62.1961C32.9835 60.8729 34.1413 59.8382 36.1004 57.7049" stroke="black" stroke-width="0.1"/>
<path d="M30.0455 61.3539C32.3021 60.0307 33.4599 58.996 35.419 56.8626" stroke="black" stroke-width="0.1"/>
<path d="M29.4036 60.5519C31.6601 59.2287 32.8179 58.194 34.7771 56.0606" stroke="black" stroke-width="0.1"/>
<path d="M33.0664 54.7627C37.8081 57.8805 40.2114 63.7264 43.0694 64.1811" stroke="black" stroke-width="0.1"/>
</svg>
