<svg width="1000" height="100" viewBox="0 0 1000 100" fill="none" xmlns="http://www.w3.org/2000/svg">
<rect width="1000" height="100" fill="none"/>
<path d="M955.624 39L958.124 40.5L961.124 39L962.124 41H963.124L963.624 39.5L961.124 36.5L964.624 30L961.5 33.5H959L958.124 36.5H955.124L954.124 38L955.624 39Z" fill="#A7A39B" stroke="black" stroke-width="0.1"/>
<path d="M949.124 69.5L949.624 69L952.124 63L951.624 62L952.624 61L953.624 61.5L954.124 62.5L953.124 63L951.124 68.5V69.5V70.5H950.624H949.624L949.124 70V69.5Z" fill="#A7A39B" stroke="black" stroke-width="0.1"/>
<path d="M955.074 41.0207L955.074 41.95L954.624 41.95L954.599 41.95L954.584 41.9703L944.584 55.4702L944.584 55.4698L944.58 55.4776L944.087 56.4627L943.134 56.9392L942.674 56.4793L942.674 55.5309L943.647 55.0447L943.657 55.0394L943.665 55.0298L953.665 41.5298L953.665 41.5302L953.669 41.5224L954.155 40.55L954.604 40.55L955.074 41.0207Z" fill="#A7A39B" stroke="black" stroke-width="0.1"/>
<path d="M960.624 68.5L959.624 68V67.5H960.124L960.624 67L963.624 61L963.124 60.5L963.624 60H964.124L964.624 59.5L965.124 60L965.624 61L965.124 61.5H964.624L961.624 67L961.124 68V68.5V69H960.624V68.5Z" fill="#A7A39B" stroke="black" stroke-width="0.1"/>
<path d="M862.451 45.4879L862.449 45.498L862.451 45.5082L864.451 57.5082L864.452 57.5156L864.455 57.5224L864.944 58.5L864.459 59.4704L863.979 59.95L863.521 59.95L863.057 59.4865L863.547 58.0158L863.552 58.0034L863.549 57.9906L861.049 44.9906L861.051 44.9902L861.045 44.9776L860.55 43.9882L860.55 43.0309L862.471 42.0705L862.948 43.502L862.451 45.4879Z" fill="#A7A39B" stroke="black" stroke-width="0.1"/>
<path d="M855.5 39L858 40.5L861 39L862 41H863L863.5 39.5L861 36.5L864.5 30L865 25.5L862 26L861.5 22L858 36.5H855L854 38L855.5 39Z" fill="#A7A39B" stroke="black" stroke-width="0.1"/>
<path d="M849 69.5L849.5 69L852 63L851.5 62L852.5 61L853.5 61.5L854 62.5L853 63L851 68.5V69.5V70.5H850.5H849.5L849 70V69.5Z" fill="#A7A39B" stroke="black" stroke-width="0.1"/>
<path d="M835 82.5V82V81.5H835.5L837.5 77.5V76.5V76H838L838.5 76.5H839V77V77.5H838.5L836.5 81.5V82V82.5L836 83L835.5 82.5H835Z" fill="#A7A39B" stroke="black" stroke-width="0.1"/>
<path d="M854.95 41.0207L854.95 41.95L854.5 41.95L854.475 41.95L854.46 41.9703L844.46 55.4702L844.459 55.4698L844.455 55.4776L843.963 56.4627L843.01 56.9392L842.55 56.4793L842.55 55.5309L843.522 55.0447L843.533 55.0394L843.54 55.0298L853.54 41.5298L853.541 41.5302L853.545 41.5224L854.031 40.55L854.479 40.55L854.95 41.0207Z" fill="#A7A39B" stroke="black" stroke-width="0.1"/>
<path d="M860.5 68.5L859.5 68V67.5H860L860.5 67L863.5 61L863 60.5L863.5 60H864L864.5 59.5L865 60L865.5 61L865 61.5H864.5L861.5 67L861 68V68.5V69H860.5V68.5Z" fill="#A7A39B" stroke="black" stroke-width="0.1"/>
<path d="M837.157 59.5631L837.628 59.2352L840.377 55.5746L840.141 54.6899L841.084 54.0341L841.791 54.5909L842.026 55.4756L841.162 55.7272L838.5 59.5L838.728 59.8683L838.5 60.5L838 61L837.5 60.5L837 60.5L837.157 59.5631Z" fill="#A7A39B" stroke="black" stroke-width="0.1"/>
<path d="M834.5 67.5L834 66.5L833.5 67L833.5 67.5L834 68L832.859 71.6113L832.476 72.0417L832.52 72.4239L832.989 72.7578L833.371 72.3274L833.328 71.9452L834.5 68.5L835 68L835 67.5L834.5 67.5Z" fill="#A7A39B" stroke="black" stroke-width="0.1"/>
<path d="M762.451 45.9879L762.449 45.998L762.451 46.0082L764.451 58.0082L764.452 58.0156L764.455 58.0224L764.944 59L764.459 59.9704L763.979 60.45L763.521 60.45L763.057 59.9865L763.547 58.5158L763.552 58.5034L763.549 58.4906L761.049 45.4906L761.051 45.4902L761.045 45.4776L760.55 44.4882L760.55 43.5309L762.471 42.5705L762.948 44.002L762.451 45.9879Z" fill="#A7A39B" stroke="black" stroke-width="0.1"/>
<path d="M756 41.5L757 42L758.5 42.5L760 43H761H762L763 41.5L763.5 40L762.5 38L764.5 30.5L765 26L762 26.5L761.5 22.5L757 37H755L753 38.5L752.5 40.5L754 41L756 41.5Z" fill="#A7A39B" stroke="black" stroke-width="0.1"/>
<path d="M749 70L749.5 69.5L752 63.5L751.5 62.5L752.5 61.5L753.5 62L754 63L753 63.5L751 69V70V71H750.5H749.5L749 70.5V70Z" fill="#A7A39B" stroke="black" stroke-width="0.1"/>
<path d="M735 83V82.5V82H735.5L737.5 78V77V76.5H738L738.5 77H739V77.5V78H738.5L736.5 82V82.5V83L736 83.5L735.5 83H735Z" fill="#A7A39B" stroke="black" stroke-width="0.1"/>
<path d="M738 76.5L738.5 77H739L739.5 76.5V76V75.5L742 71.5L743 71V70L742 69.5L741.5 70V70.5L739 75L738.5 75.5H738V76.5Z" fill="#A7A39B" stroke="black" stroke-width="0.1"/>
<path d="M751.539 41.531L751.54 41.5317L751.545 41.5224L752.031 40.55L752.479 40.55L752.95 41.0207L752.95 41.4793L752.465 41.9647L752.465 41.9645L752.462 41.968L742.462 53.968L742.461 53.9671L742.455 53.9776L741.969 54.95L741.531 54.95L741.061 54.0099L741.521 53.55L742 53.55L742.024 53.55L742.039 53.531L751.539 41.531Z" fill="#A7A39B" stroke="black" stroke-width="0.1"/>
<path d="M754.95 41.5207L754.95 42.45L754.5 42.45L754.475 42.45L754.46 42.4703L744.46 55.9702L744.459 55.9698L744.455 55.9776L743.963 56.9627L743.01 57.4392L742.55 56.9793L742.55 56.0309L743.522 55.5447L743.533 55.5394L743.54 55.5298L753.54 42.0298L753.541 42.0302L753.545 42.0224L754.031 41.05L754.479 41.05L754.95 41.5207Z" fill="#A7A39B" stroke="black" stroke-width="0.1"/>
<path d="M758.027 42.4076L758.434 43.2432L758.029 43.4401L758.008 43.4503L758.002 43.4731L753.964 59.8701L753.962 59.8698L753.962 59.8815L753.95 60.9828L753.302 61.8281L752.687 61.6157L752.272 60.7628L752.934 59.9003L752.94 59.892L752.943 59.8818L756.982 43.4848L756.983 43.4852L756.983 43.4734L756.995 42.3863L757.398 42.1902L758.027 42.4076Z" fill="#A7A39B" stroke="black" stroke-width="0.1"/>
<path d="M743 70L742 69.5V69H742.5L743 68.5L745.5 61L745 60.5L745.5 59.5H746L746.5 60H747L747.5 61L747 61.5H746.5L744 68.5L743.5 69.5V70V70.5H743V70Z" fill="#A7A39B" stroke="black" stroke-width="0.1"/>
<path d="M731.918 79.9999L731.848 79.5049L731.777 79.0099L732.272 78.9393L733.687 74.6969L733.546 73.7069L733.475 73.2119L733.97 73.1413L734.536 73.5656L735.031 73.495L735.101 73.99L735.172 74.485L734.677 74.5556L733.262 78.798L733.333 79.293L733.403 79.788L732.979 80.3536L732.413 79.9293L731.918 79.9999Z" fill="#A7A39B" stroke="black" stroke-width="0.1"/>
<path d="M734 73L734.5 73.5L735 73.5L735.03 73.247L734.992 72.7484L734.954 72.2499L737.5 67.5L738 67L738 66L737 65.5L736.5 66L736.5 67L734.417 71.7896L734 72L734 72.5L734 73Z" fill="#A7A39B" stroke="black" stroke-width="0.1"/>
<path d="M760.5 69L759.5 68.5V68H760L760.5 67.5L763.5 61.5L763 61L763.5 60.5H764L764.5 60L765 60.5L765.5 61.5L765 62H764.5L761.5 67.5L761 68.5V69V69.5H760.5V69Z" fill="#A7A39B" stroke="black" stroke-width="0.1"/>
<path d="M746.5 78.5L745.5 77.5L745 78V78.5L745.5 79L744 82.5L743.5 83V83.5L744 84L744.5 83.5V83L746.5 79.5L747 79V78.5H746.5Z" fill="#A7A39B" stroke="black" stroke-width="0.1"/>
<path d="M737.157 60.0631L737.628 59.7352L740.377 56.0746L740.141 55.1899L741.084 54.5341L741.791 55.0909L742.026 55.9756L741.162 56.2272L738.5 60L738.728 60.3683L738.5 61L738 61.5L737.5 61L737 61L737.157 60.0631Z" fill="#A7A39B" stroke="black" stroke-width="0.1"/>
<path d="M734.5 68L734 67L733.5 67.5L733.5 68L734 68.5L732.859 72.1113L732.476 72.5417L732.52 72.9239L732.989 73.2578L733.371 72.8274L733.328 72.4452L734.5 69L735 68.5L735 68L734.5 68Z" fill="#A7A39B" stroke="black" stroke-width="0.1"/>
<path d="M661.451 45.9879L661.449 45.998L661.451 46.0082L663.451 58.0082L663.452 58.0156L663.455 58.0224L663.944 59L663.459 59.9704L662.979 60.45L662.521 60.45L662.057 59.9865L662.547 58.5158L662.552 58.5034L662.549 58.4906L660.049 45.4906L660.051 45.4902L660.045 45.4776L659.55 44.4882L659.55 43.5309L661.471 42.5705L661.948 44.002L661.451 45.9879Z" fill="#A7A39B" stroke="black" stroke-width="0.1"/>
<path d="M662.496 17L662 18.5L660.5 18V22.5L656 37H654L652 38.5L651.5 40.5L653 41L655 41.5L656 42L657.5 42.5L659 43H660H661L662 41.5L662.5 40L661.5 38L665.5 23L668 20.5L667 19.5L665 19L663.996 17.5L662.496 17Z" fill="#A7A39B" stroke="black" stroke-width="0.1"/>
<path d="M648 70L648.5 69.5L651 63.5L650.5 62.5L651.5 61.5L652.5 62L653 63L652 63.5L650 69V70V71H649.5H648.5L648 70.5V70Z" fill="#A7A39B" stroke="black" stroke-width="0.1"/>
<path d="M649 72L648.375 72.2762L646 77.5L646 78L645.5 78.5L645 78L644.5 77.5L645 77L647.5 72L647.5 71L648 70.5L648.5 71L649 71L649.5 71.5L649 72Z" fill="#A7A39B" stroke="black" stroke-width="0.1"/>
<path d="M634 83V82.5V82H634.5L636.5 78V77V76.5H637L637.5 77H638V77.5V78H637.5L635.5 82V82.5V83L635 83.5L634.5 83H634Z" fill="#A7A39B" stroke="black" stroke-width="0.1"/>
<path d="M637 76.5L637.5 77H638L638.5 76.5V76V75.5L641 71.5L642 71V70L641 69.5L640.5 70V70.5L638 75L637.5 75.5H637V76.5Z" fill="#A7A39B" stroke="black" stroke-width="0.1"/>
<path d="M650.539 41.531L650.54 41.5317L650.545 41.5224L651.031 40.55L651.479 40.55L651.95 41.0207L651.95 41.4793L651.465 41.9647L651.465 41.9645L651.462 41.968L641.462 53.968L641.461 53.9671L641.455 53.9776L640.969 54.95L640.531 54.95L640.061 54.0099L640.521 53.55L641 53.55L641.024 53.55L641.039 53.531L650.539 41.531Z" fill="#A7A39B" stroke="black" stroke-width="0.1"/>
<path d="M646.956 58.9771L646.95 58.9879L646.95 59L646.95 59.4793L646.479 59.95L645.521 59.95L645.05 59.4793L645.05 59.0309L646.022 58.5447L646.037 58.5374L646.044 58.5229L654.044 43.0229L654.05 43.0121L654.05 43L654.05 42.0207L654.51 41.5608L655.45 42.0309L655.45 42.9793L654.965 43.4646L654.959 43.4701L654.956 43.4771L646.956 58.9771Z" fill="#A7A39B" stroke="black" stroke-width="0.1"/>
<path d="M653.95 41.5207L653.95 42.45L653.5 42.45L653.475 42.45L653.46 42.4703L643.46 55.9702L643.459 55.9698L643.455 55.9776L642.963 56.9627L642.01 57.4392L641.55 56.9793L641.55 56.0309L642.522 55.5447L642.533 55.5394L642.54 55.5298L652.54 42.0298L652.541 42.0302L652.545 42.0224L653.031 41.05L653.479 41.05L653.95 41.5207Z" fill="#A7A39B" stroke="black" stroke-width="0.1"/>
<path d="M657.027 42.4076L657.434 43.2432L657.029 43.4401L657.008 43.4503L657.002 43.4731L652.964 59.8701L652.962 59.8698L652.962 59.8815L652.95 60.9828L652.302 61.8281L651.687 61.6157L651.272 60.7628L651.934 59.9003L651.94 59.892L651.943 59.8818L655.982 43.4848L655.983 43.4852L655.983 43.4734L655.995 42.3863L656.398 42.1902L657.027 42.4076Z" fill="#A7A39B" stroke="black" stroke-width="0.1"/>
<path d="M642 70L641 69.5V69H641.5L642 68.5L644.5 61L644 60.5L644.5 59.5H645L645.5 60H646L646.5 61L646 61.5H645.5L643 68.5L642.5 69.5V70V70.5H642V70Z" fill="#A7A39B" stroke="black" stroke-width="0.1"/>
<path d="M630.918 79.9999L630.848 79.5049L630.777 79.0099L631.272 78.9393L632.687 74.6969L632.546 73.7069L632.475 73.2119L632.97 73.1413L633.536 73.5656L634.031 73.495L634.101 73.99L634.172 74.485L633.677 74.5556L632.262 78.798L632.333 79.293L632.403 79.788L631.979 80.3536L631.413 79.9293L630.918 79.9999Z" fill="#A7A39B" stroke="black" stroke-width="0.1"/>
<path d="M633 73L633.5 73.5L634 73.5L634.03 73.247L633.992 72.7484L633.954 72.2499L636.5 67.5L637 67L637 66L636 65.5L635.5 66L635.5 67L633.417 71.7896L633 72L633 72.5L633 73Z" fill="#A7A39B" stroke="black" stroke-width="0.1"/>
<path d="M637 66L636 65.5V65H636.5L637 64.5L640.5 58.5L640 58L640.5 57.5H641L641.5 57L642 57.5L642.5 58.5L642 59H641.5L638 64.5L637.5 65.5V66V66.5H637V66Z" fill="#A7A39B" stroke="black" stroke-width="0.1"/>
<path d="M657.639 76.3981L658.263 76.7304L658.742 76.5845L658.697 76.3336L658.515 75.8679L658.333 75.4022L659.382 70.1161L659.714 69.492L659.422 68.5355L658.32 68.3491L657.987 68.9733L658.279 69.9297L657.685 75.1186L657.347 75.4417L657.493 75.9199L657.639 76.3981Z" fill="#A7A39B" stroke="black" stroke-width="0.1"/>
<path d="M659.5 69L658.5 68.5V68H659L659.5 67.5L662.5 61.5L662 61L662.5 60.5H663L663.5 60L664 60.5L664.5 61.5L664 62H663.5L660.5 67.5L660 68.5V69V69.5H659.5V69Z" fill="#A7A39B" stroke="black" stroke-width="0.1"/>
<path d="M645.5 78.5L644.5 77.5L644 78V78.5L644.5 79L643 82.5L642.5 83V83.5L643 84L643.5 83.5V83L645.5 79.5L646 79V78.5H645.5Z" fill="#A7A39B" stroke="black" stroke-width="0.1"/>
<path d="M636.157 60.0631L636.628 59.7352L639.377 56.0746L639.141 55.1899L640.084 54.5341L640.791 55.0909L641.026 55.9756L640.162 56.2272L637.5 60L637.728 60.3683L637.5 61L637 61.5L636.5 61L636 61L636.157 60.0631Z" fill="#A7A39B" stroke="black" stroke-width="0.1"/>
<path d="M636.721 62.2027L636.177 62.4807L634.404 67.0193L634.439 67.4364L634.024 67.8916L633.5 68L633.052 67.1334L633.467 66.6783L635.369 62.3168L635.299 61.4826L635.714 61.0274L636.2 61.4065L636.651 61.3685L637.137 61.7476L636.721 62.2027Z" fill="#A7A39B" stroke="black" stroke-width="0.1"/>
<path d="M633.5 68L633 67L632.5 67.5L632.5 68L633 68.5L631.859 72.1113L631.476 72.5417L631.52 72.9239L631.989 73.2578L632.371 72.8274L632.328 72.4452L633.5 69L634 68.5L634 68L633.5 68Z" fill="#A7A39B" stroke="black" stroke-width="0.1"/>
<rect x="559.066" y="41.4431" width="0.9" height="8.9" transform="rotate(-24.7474 559.066 41.4431)" fill="#C4C4C4" stroke="black" stroke-width="0.1"/>
<path d="M562.5 41L564.5 38.5L557 37.5L552.926 37.5571C552.271 38.6135 551.953 39.2061 551.573 40.2626L543.997 48.2437C539.996 53 538.583 56.734 536.996 58C534.156 61.4833 533.496 61.5 532.77 66.6411C531.782 68.1007 531.539 69.0266 531.496 70.5C531.097 71.5675 531.346 71.7183 530.996 72.5C531.057 73.1573 530.878 73.7721 531.552 74.487C530.842 75.6368 531.996 77.5 530.064 79.2216C529.861 81.1586 529.996 81 532.634 81.2169C532.983 81.2294 533.207 80.9338 533.886 80.1685L534.996 76L536.496 72.5L538.496 68L539.996 66L542.814 60.5875L541.996 64L538.996 69L543.186 73.2695L543.199 73.2553C544.644 71.6606 545.436 70.7876 547.041 65.3221C548.272 64.4415 548.624 64.0486 548.461 65.2545L549.5 65L550.5 64.5L551.5 65L552.5 64.5H554L555 64L555.293 63.5636C557.254 63.0456 558.503 62.9011 559.419 63.2592C558.641 64.9163 557.496 67.5 556.037 69.2113C556.496 72 555.342 79.1606 558.776 78.2408L560.23 74.0811C561.474 71.0937 562.166 69.4055 563.206 65.9647C564.306 63.9087 565.061 62.7593 566.182 60.7228C566.41 58.5169 564 54.5 563.5 48.5L561.5 45.5L561 43L562.5 41Z" fill="#645250"/>
<path d="M544.775 84.5311C543.423 86.4249 541.021 85.3427 541.292 83.0093L542.339 80.3297C542.866 78.7477 543.4 76.9797 544.674 74.3517L545 75.5L547 76L548 76.5H549L544.775 84.5311Z" fill="#645250"/>
<path d="M541.292 83.0093C541.021 85.3427 543.423 86.4249 544.775 84.5311L549 76.5H548L547 76L545 75.5L544.674 74.3517M541.292 83.0093C542.496 80.5 542.666 78.4946 544.674 74.3517M541.292 83.0093L544.674 74.3517M531.552 74.487C530.842 75.6368 531.996 77.5 530.064 79.2216C529.861 81.1586 529.996 81 532.634 81.2169C532.983 81.2294 533.207 80.9338 533.886 80.1685L534.996 76L536.496 72.5L538.496 68L539.996 66L542.814 60.5875L541.996 64L538.996 69L543.186 73.2695C544.64 71.6657 545.431 70.8038 547.041 65.3221C548.272 64.4415 548.624 64.0486 548.461 65.2545L549.5 65L550.5 64.5L551.5 65L552.5 64.5H554L555 64L555.293 63.5636C557.254 63.0456 558.503 62.9011 559.419 63.2592C558.641 64.9163 557.496 67.5 556.037 69.2113C556.496 72 555.342 79.1606 558.776 78.2408L560.23 74.0811C561.474 71.0937 562.166 69.4055 563.206 65.9647C564.306 63.9087 565.061 62.7593 566.182 60.7228C566.41 58.5169 564 54.5 563.5 48.5L561.5 45.5L561 43L562.5 41L564.5 38.5L557 37.5L552.926 37.5571C552.271 38.6135 551.953 39.2061 551.573 40.2626L543.997 48.2437C539.996 53 538.583 56.734 536.996 58C534.156 61.4833 533.496 61.5 532.77 66.6411C531.782 68.1007 531.539 69.0266 531.496 70.5C531.097 71.5675 531.346 71.7183 530.996 72.5C531.057 73.1573 530.878 73.7721 531.552 74.487ZM531.552 74.487C532.475 71.5714 533.996 71.5 533.987 66.7763C534.498 65.4064 534.924 64.7072 535.881 63.5297C539.496 61 538.553 58.9642 539.77 56.1911" stroke="black" stroke-width="0.1"/>
<path d="M545 74.5H544.5V75V76L545 76.5H545.5H546.5L547 77L547.5 77.5L548.5 77L549 76.5V76H548.5H548V75.5H547.5H547V74.5L546 75L545.5 75.5L545 74.5Z" fill="#290F0F" stroke="black" stroke-width="0.1"/>
<path d="M558.675 68.0276C561.189 67.958 562.243 67.9204 562.564 67.8585M558.878 69.3803C560.262 69.6938 561.191 69.779 562.09 69.4141" stroke="black" stroke-width="0.1"/>
<path d="M543.828 78.6467C544.541 78.8458 544.933 78.9639 545.452 79.3569" stroke="black" stroke-width="0.1"/>
<path d="M544.099 77.9363C544.888 78.143 545.316 78.3482 546.06 78.8156" stroke="black" stroke-width="0.1"/>
<path d="M531.586 69.0421C532.298 69.2413 532.082 69.1564 532.6 69.5494" stroke="black" stroke-width="0.1"/>
<path d="M531.721 68.298C532.511 68.5047 532.465 68.5408 533.209 69.0082" stroke="black" stroke-width="0.1"/>
<path d="M531.721 74.4529C532.433 74.652 532.826 74.7701 533.344 75.1631" stroke="black" stroke-width="0.1"/>
<path d="M531.992 73.743C532.781 73.9496 533.209 74.1548 533.953 74.6222" stroke="black" stroke-width="0.1"/>
<path d="M534.292 61.2637L535.645 62.0326" stroke="black" stroke-width="0.1"/>
<path d="M534.697 60.5875C535.407 60.858 535.633 60.6774 536.201 61.6986" stroke="black" stroke-width="0.1"/>
<path d="M533.987 61.974C534.461 62.4475 534.514 62.5676 535.37 62.7075" stroke="black" stroke-width="0.1"/>
<path d="M535.255 65.5794L537.357 67.0357" stroke="black" stroke-width="0.1"/>
<path d="M535.559 64.6799C536.797 64.8848 537.412 65.1852 538.132 66.6084" stroke="black" stroke-width="0.1"/>
<path d="M534.43 66.0635C535.145 67.5434 535.785 67.7066 536.946 67.9421" stroke="black" stroke-width="0.1"/>
<path d="M539.768 69.5074L542.041 70.6779" stroke="black" stroke-width="0.1"/>
<path d="M539.952 68.5761C541.206 68.6183 541.854 68.8362 542.754 70.1536" stroke="black" stroke-width="0.1"/>
<path d="M561.04 61.5691L558.708 61.2299C558.057 61.2171 557.923 60.3038 558.543 60.1041L560.924 59.3369C561.19 59.2511 561.401 59.046 561.494 58.7823L561.583 58.5274C561.865 57.7266 563.027 57.8234 563.173 58.6597L563.298 59.1612C563.349 59.3668 563.431 59.5637 563.54 59.7454L563.863 60.2833C564.063 60.6173 564.067 61.0335 563.874 61.3717L563.705 61.6681C563.519 61.9927 563.62 62.4074 563.931 62.6148C564.093 62.723 564.204 62.8952 564.235 63.088C564.31 63.5661 563.888 63.9742 563.413 63.8828L562.954 63.7945C562.772 63.7595 562.594 63.8706 562.545 64.0493C562.485 64.2684 562.238 64.3756 562.037 64.2693L561.794 64.1406C561.511 63.9906 561.405 63.6376 561.559 63.3564L561.754 63.0011C562.081 62.4055 561.712 61.6668 561.04 61.5691Z" fill="#360101" stroke="black" stroke-width="0.1"/>
<path d="M549.82 42.1381L551.033 40.8641C551.318 40.5656 551.81 40.6284 552.01 40.9888C552.164 41.2664 552.505 41.3796 552.795 41.2493L553.069 41.1262C553.412 40.9715 553.815 41.0377 554.091 41.2941L554.461 41.6378C554.542 41.7126 554.63 41.7795 554.723 41.8374L555.85 42.535C555.952 42.5979 556.059 42.6515 556.17 42.695L556.666 42.8892C557.194 43.0958 557.796 42.9273 558.139 42.4763L558.24 42.3441C558.484 42.0243 558.893 41.8785 559.284 41.9723L559.434 42.0084C559.921 42.1252 560.209 42.6279 560.063 43.1067C559.944 43.4991 559.566 43.7546 559.158 43.7198L557.277 43.5598C556.883 43.5262 556.487 43.5784 556.115 43.7127L555.131 44.0681C554.602 44.259 554.011 44.0879 553.666 43.6444C553.209 43.0566 552.351 42.9735 551.79 43.4626L551.406 43.7967C551.008 44.144 550.423 44.1742 549.991 43.8699C549.417 43.466 549.336 42.6464 549.82 42.1381Z" fill="#360101" stroke="black" stroke-width="0.1"/>
<path d="M556 53C551.496 58.5 544.5 54.5 545 59C543.895 59 538.504 55.5 540.5 53.5C540.5 52.1193 546.395 45 547.5 45C549.504 41.5 555 51 556 53Z" fill="#290F0F"/>
<path d="M561.5 45.5C567 51 559.105 51 558 51C558.5 48.5 554 45 558.5 43C556 39 558.504 38 562.5 40.5C563.605 40.5 561 41.5 561.5 45.5Z" fill="#290F0F"/>
<path d="M553 37V37.5L553.5 38.5L554 38H554.5L555 38.5C555.333 38.3333 555.5 38.4 555.5 38C555.5 37.6 556.667 37.3333 557 37.5L557.5 38L558.5 38.5L559 38H559.5H561L561.5 38.5L562.5 39L563.5 38.5H564.5L565 38V37.5L564 37L563 36.5V36L562.5 36.5H561C560.6 36.5 560.5 36.1667 560.5 36L559.5 36.5H558.5L558 36L557.5 36.5H556.5H556L555 36L554.5 36.5L554 37L553.5 36.5L553 37Z" fill="#290F0F" stroke="black" stroke-width="0.1"/>
<path d="M562.496 17.5L562 19L560.5 18.5V23L556 37L558.5 37.5L561.5 37L565.5 23.5L568 21L567 20L565 19.5L563.996 18L562.496 17.5Z" fill="#C4C4C4" stroke="black" stroke-width="0.1"/>
<path d="M550.933 49.1467C550.753 49.9555 550.389 50.5627 550.12 50.503C549.85 50.4432 550.265 49.8473 550.444 49.0385C550.624 48.2297 550.675 46.9788 550.944 47.0385C551.214 47.0983 551.112 48.3379 550.933 49.1467Z" fill="#F9F8E0"/>
<path d="M541.868 50.7625C542.564 51.2115 543.486 51.889 543.336 52.121C543.186 52.3531 542.293 51.6317 541.597 51.1826C540.901 50.7335 540.59 49.269 540.74 49.037C540.89 48.8049 541.172 50.3134 541.868 50.7625Z" fill="#F9F8E0"/>
<path d="M553.965 55.4191C554.549 56.0063 556.126 55.8463 555.93 56.0411C555.734 56.2359 553.769 56.097 553.184 55.5099C552.6 54.9227 552.285 54.2888 552.481 54.094C552.676 53.8992 553.38 54.832 553.965 55.4191Z" fill="#F9F8E0"/>
<path d="M559.874 50.5855C559.73 51.4014 559.392 52.0238 559.12 51.9758C559.257 51.1947 559.362 50.6184 559.505 49.8026C559.649 48.9867 559.37 48.9735 559.642 49.0215C559.914 49.0695 560.017 49.7697 559.874 50.5855Z" fill="#F9F8E0"/>
<path d="M562 40.5C562 41.3284 561.776 42 561.5 42C561.224 42 561.5 41.8284 561.5 41C561.5 40.1716 560.724 39.5 561 39.5C561.276 39.5 562 39.6716 562 40.5Z" fill="#F9F8E0"/>
<path d="M557.9 42.7364C558.131 43.5318 559.665 44.1592 559.4 44.2364C559.134 44.3136 557.651 43.6716 557.419 42.8762C557.188 42.0808 557.215 41.3734 557.48 41.2962C557.745 41.219 557.668 41.941 557.9 42.7364Z" fill="#F9F8E0"/>
<path d="M554.5 35.9431C554.617 36.7633 555.191 37.9447 554.918 37.9837C554.645 38.0226 554.328 37.3893 554.212 36.5692C554.095 35.749 554.222 35.0526 554.495 35.0137C554.768 34.9747 554.383 35.123 554.5 35.9431Z" fill="#F9F8E0"/>
<path d="M563.695 38.3942C564.039 39.1478 564.114 39.8517 563.863 39.9664C563.612 40.081 563.484 38.9203 563.14 38.1667C562.796 37.413 562.367 37.3518 562.618 37.2371C562.869 37.1225 563.351 37.6405 563.695 38.3942Z" fill="#F9F8E0"/>
<path d="M549.5 64.5H548.5V65.5H549H550L550.5 65L551.5 65.5H552.5V65H553H554L555 64.5L555.5 63.5L553.5 64L553 63L552.5 64L551.5 64.5L551 64L549.5 64.5Z" fill="#290F0F" stroke="black" stroke-width="0.1"/>
<path d="M548.5 70L550 65L551.5 64.5L552.5 65L550 69.5V70.5V71.5H549.5H548.5L548 71V70.5L548.5 70Z" fill="#C4C4C4" stroke="black" stroke-width="0.1"/>
<path d="M548.375 72.7762L547 76.5L546 76L545 76L547.5 72.5L547.5 71.5L548 71L548.5 71.5L549 71.5L549.5 72L549 72.5L548.375 72.7762Z" fill="#C4C4C4" stroke="black" stroke-width="0.1"/>
<path d="M552.948 63.1391C553.183 63.9334 553.51 64.6533 553.245 64.7317C552.98 64.8101 552.575 64.2297 552.34 63.4354C552.104 62.641 552.635 62.1005 552.9 62.0221C553.165 61.9437 552.712 62.3448 552.948 63.1391Z" fill="#F9F8E0"/>
<path d="M534 83.5V83V82.5H534.5L536.5 78.5V77.5V77H537L537.5 77.5H538V78V78.5H537.5L535.5 82.5V83V83.5L535 84L534.5 83.5H534Z" fill="#C4C4C4" stroke="black" stroke-width="0.1"/>
<path d="M539.5 69H539V69.5L539.5 70V70.5L540 71H540.5L541 71.5L540.5 72.5H541.5L542 73L543 73.5L543.5 73L543 72.5V72L542.5 71.5H542L541.5 71V70.5L540.5 70H540L539.5 69.5V69Z" fill="#290F0F" stroke="black" stroke-width="0.1"/>
<path d="M537 77L537.5 77.5H538L538.5 77V76.5V76L541 72H542L541 71H540.5L538 75.5L537.5 76H537V77Z" fill="#C4C4C4" stroke="black" stroke-width="0.1"/>
<path d="M542.031 72.0156C542.624 72.0073 543.14 72.0029 543.202 72.191C543.264 72.3791 542.795 72.477 542.202 72.4854C541.609 72.4937 541.324 73.0161 541.262 72.828C541.201 72.6399 541.437 72.024 542.031 72.0156Z" fill="#F9F8E0"/>
<path d="M539.852 69.1919C540.309 68.8783 540.81 68.7329 540.972 68.8674C541.133 69.0018 540.566 69.1731 540.11 69.4868C539.653 69.8005 539.48 70.1378 539.318 70.0034C539.157 69.8689 539.396 69.5056 539.852 69.1919Z" fill="#F9F8E0"/>
<path d="M548.465 45.4646L548.464 45.4645L548.461 45.4682L541.461 53.9682L541.46 53.9674L541.455 53.9776L540.969 54.95L540.531 54.95L540.061 54.0099L540.521 53.55L541 53.55L541.025 53.55L541.04 53.5304L547.538 45.033L548.021 44.55L548.5 44.55L548.95 44.55L548.95 44.9793L548.465 45.4646Z" fill="#C4C4C4" stroke="black" stroke-width="0.1"/>
<path d="M547.521 56.45L547.071 56L547.535 55.5354L547.536 55.5359L547.541 55.5285L552.041 49.0285L552.05 49.0156L552.05 49L552.05 48.0207L552.492 47.5785L553.436 48.9936L552.965 49.4646L552.964 49.4639L552.958 49.4723L548.958 55.4723L548.95 55.4849L548.95 55.5L548.95 55.9793L548.479 56.45L547.521 56.45Z" fill="#C4C4C4" stroke="black" stroke-width="0.1"/>
<path d="M550.95 45.5207L550.95 46.45L550.5 46.45L550.475 46.45L550.46 46.4703L543.46 55.9703L543.459 55.9699L543.455 55.9776L542.963 56.9627L542.01 57.4392L541.55 56.9793L541.55 56.0309L542.522 55.5447L542.533 55.5393L542.54 55.5297L549.538 46.0327L550.5 45.0707L550.95 45.5207Z" fill="#C4C4C4" stroke="black" stroke-width="0.1"/>
<path d="M539.817 55.6973C539.061 56.0352 538.561 56.5613 538.448 56.3092C538.335 56.0571 538.857 55.5787 539.614 55.2408C540.37 54.9028 541.074 54.8332 541.187 55.0853C541.3 55.3374 540.574 55.3593 539.817 55.6973Z" fill="#F9F8E0"/>
<path d="M548.931 58.581C548.68 59.3705 548.74 60.0942 548.477 60.0106C548.213 59.927 548.203 59.2192 548.454 58.4296C548.705 57.6401 549.122 57.0678 549.385 57.1514C549.648 57.235 549.181 57.7914 548.931 58.581Z" fill="#F9F8E0"/>
<path d="M534 66.5V67.5H535V68H536L537 67.5V69.5L538.5 67.5L539.5 66.5L540.5 65L541 63.5L542 61.5H541.5L541 61L539.5 62H538L536 63.5V64.5L535 65L534 66.5Z" fill="#290F0F" stroke="black" stroke-width="0.1"/>
<path d="M537.826 63.5644C538.281 63.2527 538.777 63.1848 538.933 63.4128C539.089 63.6407 538.456 63.6883 538 64C537.544 64.3117 537.438 64.7694 537.282 64.5415C537.126 64.3135 537.37 63.876 537.826 63.5644Z" fill="#F9F8E0"/>
<path d="M559.5 64L558.5 65L559 66.5L558 67.5V68.5C558 68.8333 557.9 69.6 557.5 70L556.5 71L556 72.5L556.5 74.5V76H557.5L558.5 76.5L559.5 75L559 73L559.5 71.5H561L561.5 69.5L562.5 68L563.5 65.5L563 64.5V63.5L560.5 64.5L559.5 64Z" fill="#290F0F" stroke="black" stroke-width="0.1"/>
<path d="M557.948 74.1391C558.183 74.9334 558.51 75.6533 558.245 75.7317C557.98 75.8101 557.575 75.2297 557.34 74.4354C557.104 73.641 557.635 73.1005 557.9 73.0221C558.165 72.9437 557.712 73.3448 557.948 74.1391Z" fill="#F9F8E0"/>
<path d="M560.849 67.685C560.141 68.1156 559.711 68.7006 559.567 68.4646C559.424 68.2287 559.881 67.6884 560.589 67.2579C561.297 66.8273 561.987 66.6695 562.13 66.9054C562.274 67.1413 561.557 67.2545 560.849 67.685Z" fill="#F9F8E0"/>
<path d="M463.747 43.7797C465.496 32 470.69 26.2343 470.511 22.6769L461.5 25L457.931 19.295C457.996 25 456.496 25 456.578 28.2231C455.907 28.8062 455.862 29.0938 456.037 29.5759C453.572 33.405 455.996 37.5 452.926 37.5571C452.271 38.6135 451.953 39.2061 451.573 40.2625L443.997 48.2437C439.996 53 438.583 56.734 436.996 58C434.156 61.4833 433.496 61.5 432.77 66.641C431.782 68.1007 431.539 69.0266 431.496 70.5C431.097 71.5675 431.346 71.7183 430.996 72.5C431.057 73.1573 430.878 73.7721 431.552 74.487C430.842 75.6368 431.996 77.5 430.064 79.2216C429.861 81.1586 429.996 81 432.634 81.2169C432.983 81.2294 433.207 80.9338 433.886 80.1685L434.996 76L436.496 72.5L438.496 68L439.996 66L442.814 60.5875L441.996 64L438.996 69L437.996 72.5L435.496 76.5L434.122 80.0332C433.279 81.2582 432.933 81.8863 432.905 82.7387C432.837 83.9562 434.089 84.8693 435.61 84.4973C436.651 84.126 436.726 83.4237 438.996 79C440.909 76.69 442.226 75.4183 443.186 73.2695L443.199 73.2553C444.644 71.6606 445.436 70.7876 447.041 65.3221C448.272 64.4415 448.624 64.0486 448.461 65.2545C448.996 67.5 446.996 70 444.674 74.3517C442.666 78.4946 442.496 80.5 441.292 83.0092C441.021 85.3427 443.423 86.4249 444.775 84.5311C446.496 81 447.988 78.3085 450.389 74.0811C450.996 70.5 454.496 68.5 455.293 63.5636C457.254 63.0456 458.503 62.9011 459.419 63.2592C458.641 64.9163 457.496 67.5 456.037 69.2113C456.496 72 455.342 79.1606 458.776 78.2408L460.23 74.0811C461.474 71.0937 462.166 69.4055 463.206 65.9647C464.306 63.9087 465.061 62.7593 466.182 60.7228C466.41 58.5169 461.996 52 463.612 46.4852C463.824 45.379 463.877 44.78 463.747 43.7797Z" fill="#645250"/>
<path d="M431.552 74.487C430.842 75.6368 431.996 77.5 430.064 79.2216C429.861 81.1586 429.996 81 432.634 81.2169C432.983 81.2294 433.207 80.9338 433.886 80.1685L434.996 76L436.496 72.5L438.496 68L439.996 66L442.814 60.5875L441.996 64L438.996 69L437.996 72.5L435.496 76.5L434.122 80.0332C433.279 81.2582 432.933 81.8863 432.905 82.7387C432.837 83.9562 434.089 84.8693 435.61 84.4973C436.651 84.126 436.726 83.4237 438.996 79C440.909 76.69 442.226 75.4183 443.186 73.2695C444.64 71.6657 445.431 70.8038 447.041 65.3221C448.272 64.4415 448.624 64.0486 448.461 65.2545C448.996 67.5 446.996 70 444.674 74.3517C442.666 78.4946 442.496 80.5 441.292 83.0092C441.021 85.3427 443.423 86.4249 444.775 84.5311C446.496 81 447.988 78.3085 450.389 74.0811C450.996 70.5 454.496 68.5 455.293 63.5636C457.254 63.0456 458.503 62.9011 459.419 63.2592C458.641 64.9163 457.496 67.5 456.037 69.2113C456.496 72 455.342 79.1606 458.776 78.2408L460.23 74.0811C461.474 71.0937 462.166 69.4055 463.206 65.9647C464.306 63.9087 465.061 62.7593 466.182 60.7228C466.41 58.5169 461.996 52 463.612 46.4852C463.824 45.379 463.877 44.78 463.747 43.7797C465.496 32 470.69 26.2343 470.511 22.6769L461.5 25L457.931 19.295C457.996 25 456.496 25 456.578 28.2231C455.907 28.8062 455.862 29.0938 456.037 29.5759C453.572 33.405 455.996 37.5 452.926 37.5571C452.271 38.6135 451.953 39.2061 451.573 40.2625L443.997 48.2437C439.996 53 438.583 56.734 436.996 58C434.156 61.4833 433.496 61.5 432.77 66.641C431.782 68.1007 431.539 69.0266 431.496 70.5C431.097 71.5675 431.346 71.7183 430.996 72.5C431.057 73.1573 430.878 73.7721 431.552 74.487ZM431.552 74.487C432.475 71.5714 433.996 71.5 433.987 66.7763C434.498 65.4064 434.924 64.7072 435.881 63.5297C439.496 61 438.553 58.9642 439.77 56.1911" stroke="black" stroke-width="0.1"/>
<path d="M457.829 18.551V19.2273L458.269 19.5993L458 21L459.5 23L461 26L464.5 25L467.5 24H469.5L470.477 22.7445L470.815 22.4063L470.748 21.9328L470.477 21.3241L469.902 21.1212L470.274 20.7153L469.733 20.4448L469.632 19.8699L469.26 18.6186L469.091 19.1935L468.685 19.0921L468.617 18.2804L468.347 18.348L466.351 17.0968L466.216 16.6571L465.371 16.3189L464.863 16.5557L464.593 16.4542L463.646 16.7924L463.95 16.1837L462.395 15L461.515 15.9131L461.482 15.5073H460.839L459.689 17.1644L459.317 16.9615L459.148 17.4688L458.539 18.3819L458.336 18.2466L458.133 18.6524L457.829 18.551Z" fill="#360101" stroke="black" stroke-width="0.1"/>
<path d="M463.392 20.6304L463.372 20.529C463.328 20.3104 463.065 20.2203 462.896 20.3663C462.816 20.4357 462.705 20.456 462.606 20.4194L462.527 20.3905C462.304 20.3084 462.057 20.4217 461.973 20.6442L461.938 20.7371C461.927 20.7677 461.918 20.7993 461.913 20.8315L461.875 21.043C461.84 21.2448 461.885 21.4525 462.002 21.621C462.082 21.7366 462.129 21.8718 462.138 22.0121L462.139 22.0188C462.151 22.2038 462.099 22.3874 461.991 22.5384L461.651 23.0151L461.279 23.5901L460.907 24.3679L460.831 24.5011C460.701 24.7275 460.593 24.9652 460.507 25.2112C460.435 25.4153 460.379 25.6244 460.34 25.8369L460.298 26.0588C460.186 26.3947 460.019 26.7096 459.804 26.9909L459.689 27.141L459.512 27.4359C459.429 27.5744 459.389 27.7344 459.397 27.8957L459.405 28.0735C459.413 28.2503 459.329 28.4186 459.181 28.5167C459.073 28.5888 458.997 28.6998 458.969 28.8267L458.878 29.2378L458.779 29.518C458.688 29.7804 458.555 30.0267 458.386 30.2475C458.263 30.408 458.159 30.5821 458.076 30.7663L458.046 30.8343C457.947 31.0544 457.824 31.2628 457.679 31.4559L457.491 31.7065C457.27 31.9494 457.124 32.2507 457.07 32.5744L457.051 32.6873L456.882 33.2622L456.846 33.4534C456.803 33.682 456.697 33.8939 456.539 34.0649C456.431 34.1824 456.346 34.32 456.29 34.4698L456.234 34.6196C456.193 34.729 456.161 34.8417 456.139 34.9566L456.087 35.2319C456.054 35.4061 455.999 35.5755 455.924 35.7362C455.842 35.9122 455.736 36.0763 455.61 36.2237L455.394 36.4749L455.217 36.6386C455.043 36.7987 454.9 36.989 454.795 37.2001L454.709 37.3709C454.693 37.4047 454.68 37.4406 454.672 37.4776L454.646 37.6006C454.61 37.7657 454.711 37.9295 454.874 37.973C455.003 38.0075 455.141 37.9568 455.216 37.8464L455.426 37.5418C455.45 37.507 455.476 37.474 455.505 37.4432L455.969 36.9484L456.246 36.7232C456.42 36.5823 456.557 36.4019 456.647 36.1972L456.655 36.1773C456.716 36.0387 456.751 35.8903 456.76 35.7392C456.774 35.5123 456.847 35.2931 456.973 35.104L457.018 35.0367C457.085 34.9362 457.14 34.8284 457.183 34.7153L457.423 34.0738L457.728 33.3975L458.032 32.7211L458.079 32.5726C458.183 32.2441 458.32 31.9272 458.489 31.6269L458.539 31.5374L458.878 30.9625L459.007 30.7957C459.236 30.502 459.43 30.1836 459.588 29.8465C459.789 29.5105 459.935 29.1442 460.02 28.7617L460.027 28.7305C460.072 28.2408 460.226 27.7675 460.479 27.3459L460.602 27.141L460.716 26.9932C461.022 26.598 461.266 26.1592 461.442 25.6916L461.583 25.3148L461.788 24.8108C461.899 24.5391 462.042 24.2817 462.215 24.0444L462.349 23.8594C462.447 23.7255 462.526 23.5795 462.586 23.425L462.626 23.3187C462.761 22.9698 463.014 22.6796 463.341 22.4994L463.411 22.4611C463.477 22.4248 463.539 22.3806 463.594 22.3295C463.817 22.1234 463.926 21.8191 463.884 21.518C463.861 21.3478 463.792 21.186 463.683 21.0527L463.464 20.7828C463.428 20.7386 463.403 20.6863 463.392 20.6304Z" fill="#360101" stroke="black" stroke-width="0.1"/>
<path d="M458.675 68.0276C461.189 67.958 462.243 67.9204 462.564 67.8585M458.878 69.3803C460.262 69.6938 461.191 69.779 462.09 69.4141" stroke="black" stroke-width="0.1"/>
<path d="M443.828 78.6467C444.541 78.8458 444.933 78.9639 445.452 79.3569" stroke="black" stroke-width="0.1"/>
<path d="M444.099 77.9363C444.888 78.143 445.316 78.3482 446.06 78.8156" stroke="black" stroke-width="0.1"/>
<path d="M431.586 69.0421C432.298 69.2413 432.082 69.1564 432.6 69.5494" stroke="black" stroke-width="0.1"/>
<path d="M431.721 68.298C432.511 68.5047 432.465 68.5408 433.209 69.0082" stroke="black" stroke-width="0.1"/>
<path d="M431.721 74.4529C432.433 74.652 432.826 74.7701 433.344 75.1631" stroke="black" stroke-width="0.1"/>
<path d="M431.992 73.743C432.781 73.9496 433.209 74.1548 433.953 74.6222" stroke="black" stroke-width="0.1"/>
<path d="M435.249 77.0066C435.927 77.3007 436.3 77.4711 436.76 77.9309" stroke="black" stroke-width="0.1"/>
<path d="M435.613 76.34C436.367 76.6521 436.763 76.9135 437.437 77.4778" stroke="black" stroke-width="0.1"/>
<path d="M447.075 71.5448L449.476 72.4241" stroke="black" stroke-width="0.1"/>
<path d="M447.143 70.5977C448.392 70.484 449.062 70.6196 450.119 71.8151" stroke="black" stroke-width="0.1"/>
<path d="M446.398 72.221C447.464 73.4729 448.124 73.4695 449.307 73.4047" stroke="black" stroke-width="0.1"/>
<path d="M434.292 61.2637L435.645 62.0326" stroke="black" stroke-width="0.1"/>
<path d="M434.697 60.5875C435.407 60.858 435.633 60.6774 436.201 61.6986" stroke="black" stroke-width="0.1"/>
<path d="M433.987 61.974C434.461 62.4475 434.514 62.5676 435.37 62.7075" stroke="black" stroke-width="0.1"/>
<path d="M435.255 65.5794L437.357 67.0357" stroke="black" stroke-width="0.1"/>
<path d="M435.559 64.6799C436.797 64.8848 437.412 65.1852 438.132 66.6084" stroke="black" stroke-width="0.1"/>
<path d="M434.43 66.0635C435.145 67.5434 435.785 67.7066 436.946 67.9421" stroke="black" stroke-width="0.1"/>
<path d="M439.768 69.5074L442.041 70.6779" stroke="black" stroke-width="0.1"/>
<path d="M439.952 68.5761C441.206 68.6183 441.854 68.8362 442.754 70.1536" stroke="black" stroke-width="0.1"/>
<path d="M439.012 70.0946C439.914 71.469 440.57 71.5476 441.751 71.6301" stroke="black" stroke-width="0.1"/>
<path d="M461.04 61.5691L458.708 61.2299C458.057 61.2171 457.923 60.3038 458.543 60.1041L460.924 59.3369C461.19 59.2511 461.401 59.046 461.494 58.7823L461.583 58.5274C461.865 57.7266 463.027 57.8234 463.172 58.6597L463.298 59.1612C463.349 59.3668 463.431 59.5637 463.54 59.7454L463.863 60.2833C464.063 60.6173 464.067 61.0335 463.874 61.3717L463.705 61.6681C463.519 61.9927 463.62 62.4074 463.931 62.6148C464.093 62.723 464.204 62.8952 464.235 63.088C464.31 63.5661 463.888 63.9742 463.413 63.8828L462.954 63.7945C462.772 63.7595 462.594 63.8706 462.545 64.0493C462.485 64.2684 462.238 64.3756 462.037 64.2693L461.794 64.1406C461.511 63.9906 461.405 63.6376 461.559 63.3564L461.754 63.0011C462.081 62.4055 461.712 61.6668 461.04 61.5691Z" fill="#360101" stroke="black" stroke-width="0.1"/>
<path d="M449.82 42.1381L451.033 40.8641C451.318 40.5656 451.81 40.6284 452.01 40.9888C452.164 41.2664 452.505 41.3796 452.795 41.2493L453.069 41.1262C453.412 40.9715 453.815 41.0377 454.091 41.2941L454.461 41.6378C454.542 41.7126 454.63 41.7795 454.723 41.8374L455.85 42.535C455.952 42.5979 456.059 42.6515 456.17 42.695L456.666 42.8892C457.194 43.0958 457.796 42.9273 458.139 42.4763L458.24 42.3441C458.484 42.0243 458.893 41.8785 459.284 41.9723L459.434 42.0084C459.921 42.1252 460.209 42.6279 460.063 43.1067C459.944 43.4991 459.566 43.7546 459.158 43.7198L457.277 43.5598C456.883 43.5262 456.487 43.5784 456.115 43.7127L455.131 44.0681C454.602 44.259 454.011 44.0879 453.666 43.6444C453.209 43.0566 452.351 42.9735 451.79 43.4626L451.406 43.7967C451.008 44.144 450.423 44.1742 449.991 43.8699C449.417 43.466 449.336 42.6464 449.82 42.1381Z" fill="#360101" stroke="black" stroke-width="0.1"/>
<path d="M451.504 50C447 55.5 444.5 51.5 445 56C443.895 56 440.5 53.5 442.496 51.5C442.496 50.1193 444.895 47 446 47C448.004 43.5 450.504 48 451.504 50Z" fill="#290F0F"/>
<path d="M463.996 45C463.996 47.5 461.105 50 460 50C458.895 50 462 45.5 459 43C452.5 42 459.5 38.5 463.496 41C464.601 41 463.996 43.6193 463.996 45Z" fill="#290F0F"/>
<path d="M454.996 64.5C454.996 65.8807 453.105 69.5 452 69.5C445.504 75.5 449.5 66.3807 449.5 65C449.5 63.6193 452.392 64 453.496 64C454.601 64 454.996 63.1193 454.996 64.5Z" fill="#290F0F"/>
<path d="M439.5 77.5C438.683 76.8371 437.642 74.119 438.228 73.3978C438.122 66.2756 441.397 73.2632 442.214 73.9261C443.031 74.589 441.273 76.2943 440.688 77.0155C440.102 77.7367 440.317 78.1629 439.5 77.5Z" fill="#290F0F"/>
<path d="M470 23.5C470 26 465.5 27 465 31C463.895 31 463.5 29.5 462.5 28C462.5 26.6193 463.895 24.5 465 24.5C466.105 24.5 468.5 24 470 23.5Z" fill="#290F0F"/>
<path d="M463.996 18L463.312 17.772C462.798 17.6004 462.232 17.6761 461.781 17.9771C461.291 18.3037 460.997 18.8539 460.998 19.4427L461 21V22.4886C461 23.7392 462.605 24.2535 463.332 23.2358C463.442 23.0806 463.587 22.9519 463.753 22.8593L465.952 21.6377C466.978 21.0678 467.173 19.674 466.342 18.8449C466.116 18.6192 465.833 18.4591 465.523 18.3816L463.996 18Z" fill="#C4C4C4" stroke="black" stroke-width="0.1"/>
<path d="M442.5 54.5C442.255 55.2915 442.321 56.0146 442.057 55.9331C441.793 55.8515 441.778 55.1438 442.022 54.3523C442.267 53.5608 442.679 52.9854 442.943 53.0669C443.207 53.1485 442.745 53.7085 442.5 54.5Z" fill="#F9F8E0"/>
<path d="M445.933 49.1467C445.753 49.9555 445.389 50.5627 445.12 50.503C444.85 50.4432 445.265 49.8473 445.444 49.0385C445.624 48.2297 445.675 46.9788 445.944 47.0385C446.214 47.0983 446.112 48.3379 445.933 49.1467Z" fill="#F9F8E0"/>
<path d="M442.918 51.4791C443.615 51.9281 444.536 52.6056 444.386 52.8376C444.236 53.0697 443.343 52.3483 442.647 51.8992C441.951 51.4502 441.641 49.9856 441.79 49.7536C441.94 49.5215 442.222 51.03 442.918 51.4791Z" fill="#F9F8E0"/>
<path d="M453 64.5C452.755 65.2915 452.742 66.0954 452.478 66.0138C452.214 65.9323 452.198 65.2245 452.443 64.4331C452.688 63.6416 453.1 63.0661 453.364 63.1477C453.628 63.2293 453.245 63.7085 453 64.5Z" fill="#F9F8E0"/>
<path d="M449.865 65.4252C450.101 66.2195 450.428 66.9393 450.163 67.0177C449.898 67.0961 449.493 66.5158 449.257 65.7214C449.022 64.9271 449.553 64.3865 449.818 64.3081C450.083 64.2297 449.63 64.6308 449.865 65.4252Z" fill="#F9F8E0"/>
<path d="M449.856 69.8786C449.257 70.4512 448.617 70.7537 448.426 70.5541C448.235 70.3546 448.825 69.845 449.423 69.2723C450.022 68.6997 450.479 68.2391 450.67 68.4387C450.861 68.6382 450.454 69.306 449.856 69.8786Z" fill="#F9F8E0"/>
<path d="M449.075 50.4318C449.881 50.6257 451.14 49.6633 451.075 49.9318C451.011 50.2003 449.264 51.1118 448.458 50.9179C447.653 50.724 447.052 50.3492 447.117 50.0807C447.182 49.8123 448.27 50.2379 449.075 50.4318Z" fill="#F9F8E0"/>
<path d="M449.5 47.5C449.249 48.2896 449.309 49.0132 449.046 48.9296C448.783 48.846 448.773 48.1382 449.023 47.3486C449.274 46.5591 449.691 45.9868 449.954 46.0704C450.217 46.154 449.751 46.7104 449.5 47.5Z" fill="#F9F8E0"/>
<path d="M463.923 43.7662C463.482 44.4675 462.935 44.9168 462.701 44.7697C462.468 44.6227 462.559 44.7013 463 44C463.441 43.2987 462.766 41.853 463 42C463.234 42.147 464.364 43.065 463.923 43.7662Z" fill="#F9F8E0"/>
<path d="M461.874 48.5855C461.73 49.4014 461.392 50.0238 461.12 49.9758C461.257 49.1947 461.362 48.6184 461.505 47.8026C461.649 46.9867 461.37 46.9735 461.642 47.0215C461.914 47.0695 462.017 47.7697 461.874 48.5855Z" fill="#F9F8E0"/>
<path d="M462 40.5C462 41.3284 461.776 42 461.5 42C461.224 42 461.5 41.8284 461.5 41C461.5 40.1716 460.724 39.5 461 39.5C461.276 39.5 462 39.6716 462 40.5Z" fill="#F9F8E0"/>
<path d="M459.5 41.5C459.732 42.2954 461.265 42.9228 461 43C460.735 43.0772 459.252 42.4352 459.02 41.6398C458.788 40.8444 458.815 40.1371 459.081 40.0598C459.346 39.9826 459.268 40.7046 459.5 41.5Z" fill="#F9F8E0"/>
<path d="M468.5 23C468.617 23.8201 469.191 25.0016 468.918 25.0405C468.645 25.0795 468.328 24.4462 468.212 23.626C468.095 22.8059 468.222 22.1095 468.495 22.0705C468.768 22.0316 468.383 22.1799 468.5 23Z" fill="#F9F8E0"/>
<path d="M465.5 29C466.036 29.632 466.532 30.4335 466.321 30.612C466.11 30.7906 466.036 30.632 465.5 30C464.964 29.368 464.171 28.5017 464.381 28.3232C464.592 28.1447 464.964 28.368 465.5 29Z" fill="#F9F8E0"/>
<path d="M466.374 25.9689C466.308 26.7947 466.031 27.4461 465.755 27.424C465.48 27.4018 465.933 26.3258 466 25.5C466.067 24.6742 465.721 24.4115 465.996 24.4337C466.271 24.4558 466.441 25.1432 466.374 25.9689Z" fill="#F9F8E0"/>
<path d="M459.733 18.1444C460.268 18.7765 460.211 19.8215 460 20C459.789 20.1785 460.036 19.132 459.5 18.5C458.964 17.868 457.289 17.6785 457.5 17.5C457.711 17.3215 459.197 17.5124 459.733 18.1444Z" fill="#F9F8E0"/>
<path d="M466.5 17.5C466.691 18.3062 467.141 18.6409 466.872 18.7044C466.603 18.7679 466.231 18.1658 466.04 17.3596C465.85 16.5534 465.913 15.8483 466.182 15.7848C466.451 15.7213 466.309 16.6938 466.5 17.5Z" fill="#F9F8E0"/>
<path d="M440.997 74.1086C441.548 74.1685 442.022 74.3853 442.057 74.5927C442.092 74.8001 441.551 74.56 441 74.5C440.449 74.44 440.098 74.5829 440.063 74.3755C440.028 74.1681 440.446 74.0486 440.997 74.1086Z" fill="#F9F8E0"/>
<path d="M439.826 71.5643C440.281 71.2527 440.777 71.1848 440.933 71.4128C441.089 71.6407 440.456 71.6883 440 72C439.544 72.3117 439.438 72.7694 439.282 72.5415C439.126 72.3135 439.37 71.876 439.826 71.5643Z" fill="#F9F8E0"/>
<path d="M438.846 75.5352C439.439 75.5269 439.955 75.5225 440.017 75.7106C440.079 75.8987 439.61 75.9966 439.017 76.005C438.424 76.0133 438.139 76.5357 438.078 76.3476C438.016 76.1595 438.252 75.5436 438.846 75.5352Z" fill="#F9F8E0"/>
<path d="M363.751 43.7797C365.5 32 370.694 26.2343 370.515 22.6769L357.934 19.295C358 25 356.5 25 356.581 28.2231C355.911 28.8062 355.865 29.0938 356.04 29.5759C353.576 33.405 356 37.5 352.929 37.5571C352.275 38.6135 351.956 39.2061 351.576 40.2625L344.001 48.2437C340 53 338.586 56.734 337 58C334.159 61.4833 333.5 61.5 332.773 66.641C331.786 68.1007 331.543 69.0266 331.5 70.5C331.101 71.5675 331.35 71.7183 331 72.5C331.06 73.1573 330.882 73.7721 331.556 74.487C330.846 75.6368 332 77.5 330.068 79.2216C329.865 81.1586 330 81 332.638 81.2169C332.987 81.2294 333.21 80.9338 333.889 80.1685L335 76L336.5 72.5L338.5 68L340 66L342.817 60.5875L342 64L339 69L338 72.5L335.5 76.5L334.126 80.0332C333.282 81.2582 332.937 81.8863 332.908 82.7387C332.841 83.9562 334.092 84.8693 335.614 84.4973C336.654 84.126 336.73 83.4237 339 79C340.913 76.69 342.229 75.4183 343.189 73.2695L343.202 73.2553C344.648 71.6606 345.439 70.7876 347.045 65.3221C348.275 64.4415 348.628 64.0486 348.465 65.2545C349 67.5 347 70 344.677 74.3517C342.67 78.4946 342.5 80.5 341.295 83.0092C341.025 85.3427 343.426 86.4249 344.779 84.5311C346.5 81 347.992 78.3085 350.393 74.0811C351 70.5 354.5 68.5 355.296 63.5636C357.257 63.0456 358.506 62.9011 359.422 63.2592C358.644 64.9163 357.5 67.5 356.04 69.2113C356.5 72 355.346 79.1606 358.78 78.2408L360.234 74.0811C361.478 71.0937 362.169 69.4055 363.21 65.9647C364.309 63.9087 365.065 62.7593 366.186 60.7228C366.414 58.5169 362 52 363.616 46.4852C363.828 45.379 363.881 44.78 363.751 43.7797Z" fill="#645250"/>
<path d="M331.556 74.487C330.846 75.6368 332 77.5 330.068 79.2216C329.865 81.1586 330 81 332.638 81.2169C332.987 81.2294 333.21 80.9338 333.889 80.1685L335 76L336.5 72.5L338.5 68L340 66L342.817 60.5875L342 64L339 69L338 72.5L335.5 76.5L334.126 80.0332C333.282 81.2582 332.937 81.8863 332.908 82.7387C332.841 83.9562 334.092 84.8693 335.614 84.4973C336.654 84.126 336.73 83.4237 339 79C340.913 76.69 342.229 75.4183 343.189 73.2695C344.643 71.6657 345.434 70.8038 347.045 65.3221C348.275 64.4415 348.628 64.0486 348.465 65.2545C349 67.5 347 70 344.677 74.3517C342.67 78.4946 342.5 80.5 341.295 83.0092C341.025 85.3427 343.426 86.4249 344.779 84.5311C346.5 81 347.992 78.3085 350.393 74.0811C351 70.5 354.5 68.5 355.296 63.5636C357.257 63.0456 358.506 62.9011 359.422 63.2592C358.644 64.9163 357.5 67.5 356.04 69.2113C356.5 72 355.346 79.1606 358.78 78.2408L360.234 74.0811C361.478 71.0937 362.169 69.4055 363.21 65.9647C364.309 63.9087 365.065 62.7593 366.186 60.7228C366.414 58.5169 362 52 363.616 46.4852C363.828 45.379 363.881 44.78 363.751 43.7797C365.5 32 370.694 26.2343 370.515 22.6769L357.934 19.295C358 25 356.5 25 356.581 28.2231C355.911 28.8062 355.865 29.0938 356.04 29.5759C353.576 33.405 356 37.5 352.929 37.5571C352.275 38.6135 351.956 39.2061 351.576 40.2625L344.001 48.2437C340 53 338.586 56.734 337 58C334.159 61.4833 333.5 61.5 332.773 66.641C331.786 68.1007 331.543 69.0266 331.5 70.5C331.101 71.5675 331.35 71.7183 331 72.5C331.06 73.1573 330.882 73.7721 331.556 74.487ZM331.556 74.487C332.479 71.5714 334 71.5 333.991 66.7763C334.502 65.4064 334.928 64.7072 335.884 63.5297C339.5 61 338.556 58.9642 339.774 56.1911" stroke="black" stroke-width="0.1"/>
<path d="M357.833 18.551V19.2273L358.272 19.5993L359.963 19.8699L360.741 20.5124L362.601 20.5462L363.142 21.2903L363.649 21.2564L365.205 21.2226L367.978 22.1357L368.486 22.5077L368.959 22.9136L369.534 22.8797L370.481 22.7445L370.819 22.4063L370.751 21.9328L370.481 21.3241L369.906 21.1212L370.278 20.7153L369.737 20.4448L369.635 19.8699L369.263 18.6186L369.094 19.1935L368.688 19.0921L368.621 18.2804L368.35 18.348L366.355 17.0968L366.22 16.6571L365.374 16.3189L364.867 16.5557L364.596 16.4542L363.649 16.7924L363.954 16.1837L362.398 15L361.519 15.9131L361.485 15.5073H360.843L359.693 17.1644L359.321 16.9615L359.152 17.4688L358.543 18.3819L358.34 18.2466L358.137 18.6524L357.833 18.551Z" fill="#360101" stroke="black" stroke-width="0.1"/>
<path d="M363.396 20.6304L363.375 20.529C363.332 20.3104 363.068 20.2203 362.9 20.3663C362.82 20.4357 362.708 20.456 362.609 20.4194L362.531 20.3905C362.308 20.3084 362.06 20.4217 361.977 20.6442L361.942 20.7371C361.93 20.7677 361.922 20.7993 361.916 20.8315L361.879 21.043C361.843 21.2448 361.889 21.4525 362.005 21.621C362.085 21.7366 362.133 21.8718 362.142 22.0121L362.142 22.0188C362.155 22.2038 362.103 22.3874 361.995 22.5384L361.654 23.0151L361.282 23.5901L360.91 24.3679L360.834 24.5011C360.705 24.7275 360.596 24.9652 360.51 25.2112C360.439 25.4153 360.383 25.6244 360.343 25.8369L360.301 26.0588C360.189 26.3947 360.023 26.7096 359.808 26.9909L359.693 27.141L359.516 27.4359C359.433 27.5744 359.392 27.7344 359.4 27.8957L359.409 28.0735C359.417 28.2503 359.332 28.4186 359.185 28.5167C359.077 28.5888 359.001 28.6998 358.972 28.8267L358.881 29.2378L358.783 29.518C358.691 29.7804 358.558 30.0267 358.389 30.2475C358.267 30.408 358.163 30.5821 358.08 30.7663L358.049 30.8343C357.95 31.0544 357.827 31.2628 357.682 31.4559L357.494 31.7065C357.274 31.9494 357.128 32.2507 357.074 32.5744L357.055 32.6873L356.886 33.2622L356.85 33.4534C356.807 33.682 356.701 33.8939 356.543 34.0649C356.434 34.1824 356.35 34.32 356.293 34.4698L356.237 34.6196C356.196 34.729 356.165 34.8417 356.143 34.9566L356.09 35.2319C356.057 35.4061 356.002 35.5755 355.927 35.7362C355.845 35.9122 355.739 36.0763 355.613 36.2237L355.398 36.4749L355.22 36.6386C355.047 36.7987 354.904 36.989 354.798 37.2001L354.713 37.3709C354.696 37.4047 354.684 37.4406 354.676 37.4776L354.649 37.6006C354.614 37.7657 354.714 37.9295 354.877 37.973C355.007 38.0075 355.144 37.9568 355.22 37.8464L355.429 37.5418C355.453 37.507 355.48 37.474 355.509 37.4432L355.973 36.9484L356.25 36.7232C356.423 36.5823 356.56 36.4019 356.65 36.1972L356.659 36.1773C356.719 36.0387 356.755 35.8903 356.764 35.7392C356.777 35.5123 356.851 35.2931 356.977 35.104L357.022 35.0367C357.089 34.9362 357.144 34.8284 357.186 34.7153L357.427 34.0738L357.731 33.3975L358.036 32.7211L358.082 32.5726C358.186 32.2441 358.324 31.9272 358.493 31.6269L358.543 31.5374L358.881 30.9625L359.011 30.7957C359.239 30.502 359.434 30.1836 359.591 29.8465C359.793 29.5105 359.939 29.1442 360.024 28.7617L360.031 28.7305C360.075 28.2408 360.23 27.7675 360.483 27.3459L360.606 27.141L360.72 26.9932C361.025 26.598 361.27 26.1592 361.445 25.6916L361.587 25.3148L361.792 24.8108C361.903 24.5391 362.046 24.2817 362.218 24.0444L362.353 23.8594C362.45 23.7255 362.53 23.5795 362.589 23.425L362.63 23.3187C362.764 22.9698 363.017 22.6796 363.345 22.4994L363.415 22.4611C363.481 22.4248 363.542 22.3806 363.598 22.3295C363.821 22.1234 363.929 21.8191 363.888 21.518C363.865 21.3478 363.795 21.186 363.687 21.0527L363.467 20.7828C363.432 20.7386 363.407 20.6863 363.396 20.6304Z" fill="#360101" stroke="black" stroke-width="0.1"/>
<path d="M358.678 68.0276C361.192 67.958 362.247 67.9204 362.567 67.8585M358.881 69.3803C360.265 69.6938 361.194 69.779 362.094 69.4141" stroke="black" stroke-width="0.1"/>
<path d="M343.832 78.6467C344.544 78.8458 344.937 78.9639 345.455 79.3569" stroke="black" stroke-width="0.1"/>
<path d="M344.102 77.9363C344.892 78.143 345.319 78.3482 346.064 78.8156" stroke="black" stroke-width="0.1"/>
<path d="M331.589 69.0421C332.302 69.2413 332.086 69.1564 332.604 69.5494" stroke="black" stroke-width="0.1"/>
<path d="M331.725 68.298C332.514 68.5047 332.468 68.5408 333.213 69.0082" stroke="black" stroke-width="0.1"/>
<path d="M331.725 74.4529C332.437 74.652 332.83 74.7701 333.348 75.1631" stroke="black" stroke-width="0.1"/>
<path d="M331.995 73.743C332.785 73.9496 333.212 74.1548 333.957 74.6222" stroke="black" stroke-width="0.1"/>
<path d="M335.252 77.0066C335.931 77.3007 336.304 77.4711 336.764 77.9309" stroke="black" stroke-width="0.1"/>
<path d="M335.617 76.34C336.371 76.6521 336.767 76.9135 337.44 77.4778" stroke="black" stroke-width="0.1"/>
<path d="M347.078 71.5448L349.48 72.4241" stroke="black" stroke-width="0.1"/>
<path d="M347.146 70.5977C348.395 70.484 349.066 70.6196 350.122 71.8151" stroke="black" stroke-width="0.1"/>
<path d="M346.402 72.221C347.467 73.4729 348.127 73.4695 349.31 73.4047" stroke="black" stroke-width="0.1"/>
<path d="M334.295 61.2637L335.649 62.0326" stroke="black" stroke-width="0.1"/>
<path d="M334.701 60.5875C335.411 60.858 335.637 60.6774 336.204 61.6986" stroke="black" stroke-width="0.1"/>
<path d="M333.991 61.974C334.464 62.4475 334.517 62.5676 335.373 62.7075" stroke="black" stroke-width="0.1"/>
<path d="M335.259 65.5794L337.361 67.0357" stroke="black" stroke-width="0.1"/>
<path d="M335.563 64.6799C336.8 64.8848 337.415 65.1852 338.136 66.6084" stroke="black" stroke-width="0.1"/>
<path d="M334.434 66.0635C335.149 67.5434 335.789 67.7066 336.95 67.9421" stroke="black" stroke-width="0.1"/>
<path d="M339.771 69.5074L342.045 70.6779" stroke="black" stroke-width="0.1"/>
<path d="M339.956 68.5761C341.209 68.6183 341.858 68.8362 342.758 70.1536" stroke="black" stroke-width="0.1"/>
<path d="M339.016 70.0946C339.917 71.469 340.573 71.5476 341.755 71.6301" stroke="black" stroke-width="0.1"/>
<path d="M361.044 61.5691L358.712 61.2299C358.061 61.2171 357.927 60.3038 358.546 60.1041L360.928 59.3369C361.194 59.2511 361.404 59.046 361.497 58.7823L361.587 58.5274C361.869 57.7266 363.031 57.8234 363.176 58.6597L363.301 59.1612C363.353 59.3668 363.434 59.5637 363.543 59.7454L363.866 60.2833C364.067 60.6173 364.071 61.0335 363.878 61.3717L363.708 61.6681C363.523 61.9927 363.623 62.4074 363.934 62.6148C364.097 62.723 364.208 62.8952 364.238 63.088C364.314 63.5661 363.892 63.9742 363.417 63.8828L362.957 63.7945C362.775 63.7595 362.597 63.8706 362.549 64.0493C362.489 64.2684 362.241 64.3756 362.041 64.2693L361.798 64.1406C361.514 63.9906 361.408 63.6376 361.563 63.3564L361.757 63.0011C362.084 62.4055 361.716 61.6668 361.044 61.5691Z" fill="#360101" stroke="black" stroke-width="0.1"/>
<path d="M349.823 42.1381L351.037 40.8641C351.321 40.5656 351.813 40.6284 352.014 40.9888C352.168 41.2664 352.509 41.3796 352.799 41.2493L353.072 41.1262C353.416 40.9715 353.819 41.0377 354.095 41.2941L354.465 41.6378C354.545 41.7126 354.633 41.7795 354.727 41.8374L355.854 42.535C355.955 42.5979 356.062 42.6515 356.174 42.695L356.67 42.8892C357.198 43.0958 357.799 42.9273 358.143 42.4763L358.243 42.3441C358.487 42.0243 358.897 41.8785 359.287 41.9723L359.438 42.0084C359.924 42.1252 360.212 42.6279 360.066 43.1067C359.947 43.4991 359.57 43.7546 359.161 43.7198L357.281 43.5598C356.887 43.5262 356.49 43.5784 356.118 43.7127L355.134 44.0681C354.606 44.259 354.014 44.0879 353.669 43.6444C353.212 43.0566 352.355 42.9735 351.793 43.4626L351.41 43.7967C351.011 44.144 350.427 44.1742 349.994 43.8699C349.42 43.466 349.339 42.6464 349.823 42.1381Z" fill="#360101" stroke="black" stroke-width="0.1"/>
<path d="M347.5 50C347.5 51.3807 344 51.5 343 55.5C341.895 55.5 342.5 52.8807 342.5 51.5C342.5 50.1193 342.895 49 344 49C345.105 49 347.5 48.6193 347.5 50Z" fill="#4F2222"/>
<path d="M364 45C364 47.5 362.105 47.5 361 47.5C359.895 47.5 361 45.8807 361 44.5C361 43.1193 362.395 41 363.5 41C364.605 41 364 43.6193 364 45Z" fill="#4F2222"/>
<path d="M355 64.5C355 65.8807 354.105 67.5 353 67.5C351.895 67.5 352 65.3807 352 64C352 62.6193 352.395 64 353.5 64C354.605 64 355 63.1193 355 64.5Z" fill="#4F2222"/>
<path d="M367.5 25C367.5 27.5 366.105 28.5 365 28.5C363.895 28.5 364.5 27.3807 364.5 26C364.5 24.6193 363.395 22.5 364.5 22.5C365.605 22.5 366 24.5 367.5 25Z" fill="#4F2222"/>
<path d="M362.21 17.693L362.179 17.7137C361.699 18.0337 361.797 18.7658 362.345 18.9482C362.447 18.9823 362.54 19.0396 362.616 19.1157L362.863 19.363C363.271 19.7709 363.824 20 364.401 20H365.5C366.138 20 366.526 19.2884 366.171 18.7572C366.061 18.5917 365.893 18.4733 365.7 18.425L364 18L362.83 17.61C362.622 17.5406 362.393 17.5712 362.21 17.693Z" fill="#C4C4C4" stroke="black" stroke-width="0.1"/>
<path d="M270.515 22.6769C270.694 26.2343 268.642 31.8023 263.751 43.7797C263.881 44.78 263.828 45.379 263.616 46.4852C265.296 52.267 266.414 58.5169 266.186 60.7228C265.065 62.7593 264.309 63.9087 263.21 65.9647C262.169 69.4055 261.478 71.0937 260.234 74.0811L258.78 78.2408C255.346 79.1606 253.977 72.424 256.04 69.2113C256.703 66.3244 258.644 64.9163 259.422 63.2592C258.506 62.9011 257.257 63.0456 255.296 63.5636C254.452 66.6425 253.348 69.7728 250.393 74.0811C247.992 78.3085 247.203 81.1276 244.779 84.5311C243.426 86.4249 241.025 85.3427 241.295 83.0092C242.05 80.2566 242.67 78.4946 244.677 74.3517C245.936 69.642 246.77 67.3157 248.465 65.2545C248.627 64.0486 248.275 64.4415 247.045 65.3221C245.439 70.7876 244.648 71.6606 243.202 73.2553L243.189 73.2695C242.229 75.4183 241.585 76.641 239.672 78.951C237.402 83.3747 236.654 84.126 235.614 84.4973C234.092 84.8693 232.841 83.9562 232.908 82.7387C232.937 81.8863 233.282 81.2582 234.126 80.0332C234.197 79.4783 234.307 78.9314 234.462 78.37C234.27 78.9279 234.078 79.5263 233.889 80.1685C233.21 80.9338 232.987 81.2294 232.638 81.2169C231.454 81.4536 229.865 81.1586 230.068 79.2216C230.846 77.0234 230.846 75.6368 231.556 74.487C230.882 73.7721 230.669 73.3857 230.609 72.7284C230.958 71.9467 230.987 71.4624 231.387 70.3949C231.429 68.9216 231.786 68.1007 232.773 66.641C233.642 60.9034 235.073 60.2493 237.914 56.766C239.267 53.6858 240.741 51.7859 244.001 48.2437L251.576 40.2625C251.956 39.2061 252.275 38.6135 252.929 37.5571C253.092 35.0396 253.576 33.405 256.04 29.5759C255.865 29.0938 255.911 28.8062 256.581 28.2231C255.929 23.1986 256.48 22.5078 257.934 19.295L270.515 22.6769Z" fill="#7E6C6A"/>
<path d="M238.455 70.2935C235.659 74.9605 234.464 77.4067 234.126 80.0332C233.282 81.2582 232.937 81.8863 232.908 82.7387C232.841 83.9562 234.092 84.8693 235.614 84.4973C236.654 84.126 237.402 83.3747 239.672 78.951C241.585 76.641 242.229 75.4183 243.189 73.2695C244.643 71.6657 245.434 70.8038 247.045 65.3221C248.275 64.4415 248.627 64.0486 248.465 65.2545C246.77 67.3157 245.936 69.642 244.677 74.3517C242.67 78.4946 242.05 80.2566 241.295 83.0092C241.025 85.3427 243.426 86.4249 244.779 84.5311C247.203 81.1276 247.992 78.3085 250.393 74.0811C253.348 69.7728 254.452 66.6425 255.296 63.5636C257.257 63.0456 258.506 62.9011 259.422 63.2592C258.644 64.9163 256.703 66.3244 256.04 69.2113C253.977 72.424 255.346 79.1606 258.78 78.2408L260.234 74.0811C261.478 71.0937 262.169 69.4055 263.21 65.9647C264.309 63.9087 265.065 62.7593 266.186 60.7228C266.414 58.5169 265.296 52.267 263.616 46.4852C263.828 45.379 263.881 44.78 263.751 43.7797C268.642 31.8023 270.694 26.2343 270.515 22.6769L257.934 19.295C256.48 22.5078 255.929 23.1986 256.581 28.2231C255.911 28.8062 255.865 29.0938 256.04 29.5759C253.576 33.405 253.092 35.0396 252.929 37.5571C252.275 38.6135 251.956 39.2061 251.576 40.2625L244.001 48.2437C240.741 51.7859 239.267 53.6858 237.914 56.766C235.073 60.2493 233.642 60.9034 232.773 66.641C231.786 68.1007 231.429 68.9215 231.387 70.3949C230.987 71.4624 230.958 71.9467 230.609 72.7284C230.669 73.3856 230.882 73.7721 231.556 74.487M238.455 70.2935C240.57 65.2603 242.69 62.8022 242.817 60.5875L242.648 61.3992C242.93 62.0153 238.648 69.1503 238.455 70.2935ZM238.455 70.2935C238.262 71.4366 235.918 73.2695 233.889 80.1685C233.21 80.9338 232.987 81.2294 232.638 81.2169C231.454 81.4536 229.865 81.1586 230.068 79.2216C230.846 77.0234 230.846 75.6368 231.556 74.487M231.556 74.487C232.479 71.5714 233.011 69.8879 233.991 66.7763C234.502 65.4064 234.928 64.7072 235.884 63.5297C237.591 61.1459 238.556 58.9642 239.774 56.1911" stroke="black" stroke-width="0.1"/>
<path d="M257.833 18.551V19.2273L258.272 19.5993L259.963 19.8699L260.741 20.5124L262.601 20.5462L263.142 21.2903L263.649 21.2564L265.205 21.2226L267.978 22.1357L268.485 22.5077L268.959 22.9136L269.534 22.8797L270.481 22.7445L270.819 22.4063L270.751 21.9328L270.481 21.3241L269.906 21.1212L270.278 20.7153L269.737 20.4448L269.635 19.8699L269.263 18.6186L269.094 19.1935L268.688 19.0921L268.621 18.2804L268.35 18.348L266.355 17.0968L266.22 16.6571L265.374 16.3189L264.867 16.5557L264.596 16.4542L263.649 16.7924L263.954 16.1837L262.398 15L261.519 15.9131L261.485 15.5073H260.842L259.693 17.1644L259.321 16.9615L259.152 17.4688L258.543 18.3819L258.34 18.2466L258.137 18.6524L257.833 18.551Z" fill="#401701" stroke="black" stroke-width="0.1"/>
<path d="M263.396 20.6304L263.375 20.529C263.332 20.3104 263.068 20.2203 262.9 20.3663C262.82 20.4357 262.708 20.456 262.609 20.4194L262.531 20.3905C262.308 20.3084 262.06 20.4217 261.977 20.6442L261.942 20.7371C261.93 20.7677 261.922 20.7993 261.916 20.8315L261.879 21.043C261.843 21.2448 261.889 21.4525 262.005 21.621C262.085 21.7366 262.133 21.8718 262.142 22.0121L262.142 22.0188C262.155 22.2038 262.103 22.3874 261.995 22.5384L261.654 23.0151L261.282 23.5901L260.91 24.3679L260.834 24.5011C260.705 24.7275 260.596 24.9652 260.51 25.2112C260.439 25.4153 260.383 25.6244 260.343 25.8369L260.301 26.0588C260.189 26.3947 260.023 26.7096 259.807 26.9909L259.693 27.141L259.516 27.4359C259.433 27.5744 259.392 27.7344 259.4 27.8957L259.409 28.0735C259.417 28.2503 259.332 28.4186 259.185 28.5167C259.077 28.5888 259.001 28.6998 258.972 28.8267L258.881 29.2378L258.783 29.518C258.691 29.7804 258.558 30.0267 258.389 30.2475C258.267 30.408 258.163 30.5821 258.08 30.7663L258.049 30.8343C257.95 31.0544 257.827 31.2628 257.682 31.4559L257.494 31.7065C257.274 31.9494 257.128 32.2507 257.074 32.5744L257.055 32.6873L256.886 33.2622L256.85 33.4534C256.807 33.682 256.701 33.8939 256.543 34.0649C256.434 34.1824 256.35 34.32 256.293 34.4698L256.237 34.6196C256.196 34.729 256.165 34.8417 256.143 34.9566L256.09 35.2319C256.057 35.4061 256.002 35.5755 255.927 35.7362C255.845 35.9122 255.739 36.0763 255.613 36.2237L255.398 36.4749L255.22 36.6386C255.047 36.7987 254.904 36.989 254.798 37.2001L254.713 37.3709C254.696 37.4047 254.684 37.4406 254.676 37.4776L254.649 37.6006C254.614 37.7657 254.714 37.9295 254.877 37.973C255.007 38.0075 255.144 37.9568 255.22 37.8464L255.429 37.5418C255.453 37.507 255.48 37.474 255.509 37.4432L255.973 36.9484L256.25 36.7232C256.423 36.5823 256.56 36.4019 256.65 36.1972L256.659 36.1773C256.719 36.0387 256.755 35.8903 256.764 35.7392C256.777 35.5123 256.851 35.2931 256.977 35.104L257.022 35.0367C257.089 34.9362 257.144 34.8284 257.186 34.7153L257.427 34.0738L257.731 33.3975L258.036 32.7211L258.082 32.5726C258.186 32.2441 258.324 31.9272 258.492 31.6269L258.543 31.5374L258.881 30.9625L259.011 30.7957C259.239 30.502 259.434 30.1836 259.591 29.8465C259.793 29.5105 259.939 29.1442 260.024 28.7617L260.031 28.7305C260.075 28.2408 260.23 27.7675 260.483 27.3459L260.606 27.141L260.72 26.9932C261.025 26.598 261.27 26.1592 261.445 25.6916L261.587 25.3148L261.792 24.8108C261.903 24.5391 262.046 24.2817 262.218 24.0444L262.353 23.8594C262.45 23.7255 262.53 23.5795 262.589 23.425L262.63 23.3187C262.764 22.9698 263.017 22.6796 263.345 22.4994L263.415 22.4611C263.481 22.4248 263.542 22.3806 263.597 22.3295C263.821 22.1234 263.929 21.8191 263.888 21.518C263.865 21.3478 263.795 21.186 263.687 21.0527L263.467 20.7828C263.431 20.7386 263.407 20.6863 263.396 20.6304Z" fill="#401701" stroke="black" stroke-width="0.1"/>
<path d="M258.678 68.0276C261.192 67.958 262.247 67.9204 262.567 67.8585M258.881 69.3803C260.265 69.6938 261.194 69.779 262.094 69.4141" stroke="black" stroke-width="0.1"/>
<path d="M243.832 78.6467C244.544 78.8458 244.937 78.9639 245.455 79.3569" stroke="black" stroke-width="0.1"/>
<path d="M244.102 77.9363C244.892 78.143 245.319 78.3482 246.064 78.8156" stroke="black" stroke-width="0.1"/>
<path d="M231.589 69.0421C232.302 69.2413 232.086 69.1564 232.604 69.5494" stroke="black" stroke-width="0.1"/>
<path d="M231.725 68.298C232.514 68.5047 232.468 68.5408 233.213 69.0082" stroke="black" stroke-width="0.1"/>
<path d="M231.725 74.4529C232.437 74.652 232.829 74.7701 233.348 75.1631" stroke="black" stroke-width="0.1"/>
<path d="M231.995 73.743C232.785 73.9496 233.212 74.1548 233.957 74.6222" stroke="black" stroke-width="0.1"/>
<path d="M235.252 77.0066C235.931 77.3007 236.304 77.4711 236.764 77.9309" stroke="black" stroke-width="0.1"/>
<path d="M235.617 76.34C236.371 76.6521 236.767 76.9135 237.44 77.4778" stroke="black" stroke-width="0.1"/>
<path d="M247.078 71.5448L249.48 72.4241" stroke="black" stroke-width="0.1"/>
<path d="M247.146 70.5977C248.395 70.484 249.066 70.6196 250.122 71.8151" stroke="black" stroke-width="0.1"/>
<path d="M246.402 72.221C247.467 73.4729 248.127 73.4695 249.31 73.4047" stroke="black" stroke-width="0.1"/>
<path d="M234.295 61.2637L235.649 62.0326" stroke="black" stroke-width="0.1"/>
<path d="M234.701 60.5875C235.411 60.858 235.637 60.6774 236.204 61.6986" stroke="black" stroke-width="0.1"/>
<path d="M233.991 61.974C234.464 62.4475 234.517 62.5676 235.373 62.7075" stroke="black" stroke-width="0.1"/>
<path d="M235.259 65.5794L237.361 67.0357" stroke="black" stroke-width="0.1"/>
<path d="M235.563 64.6799C236.8 64.8848 237.415 65.1852 238.136 66.6084" stroke="black" stroke-width="0.1"/>
<path d="M234.434 66.0635C235.149 67.5434 235.789 67.7066 236.95 67.9421" stroke="black" stroke-width="0.1"/>
<path d="M239.771 69.5074L242.045 70.6779" stroke="black" stroke-width="0.1"/>
<path d="M239.956 68.5761C241.209 68.6183 241.858 68.8362 242.758 70.1536" stroke="black" stroke-width="0.1"/>
<path d="M239.016 70.0946C239.917 71.469 240.573 71.5476 241.755 71.6301" stroke="black" stroke-width="0.1"/>
<path d="M232 71.1538L231.6 71L231 71.8718L231.25 71.8205V71.9231L231.425 72L231.55 71.8205L231.7 72L232 71.1538Z" fill="#130C0B" stroke="black" stroke-width="0.1"/>
<path d="M231.924 77.5133C231.502 77.1581 231.218 77.0368 230.598 77C230.424 77.4954 230.294 77.8153 230 78.469L230.13 78.6637L230.234 78.9115L230.546 78.3451L230.624 78.823L230.962 78.7699V79L231.43 78.9115H231.794C232.053 78.5323 232.032 78.1864 231.924 77.5133Z" fill="#130C0B" stroke="black" stroke-width="0.1"/>
<path d="M235.924 80.7597C235.544 80.3205 235.232 80.1446 234.443 80C233.438 80.6463 233.017 80.9836 233 81.4574L233.518 81.4264L233.407 81.7209L234.036 81.7674L234.628 82L235.295 81.6124L235.85 81.7984C236.025 81.4744 236.043 81.2478 235.924 80.7597Z" fill="#130C0B" stroke="black" stroke-width="0.1"/>
<path d="M243.971 82.7274C243.534 82.0896 243.26 81.8773 242.666 82.0666C242.465 82.2658 242.317 82.4846 242 83.0455L242.384 83.3882L242.768 83.2658L243.127 83.3147L243.331 83.1679L243.971 84L243.972 83.9873C244.001 83.4704 244.017 83.1765 243.971 82.7274Z" fill="#130C0B" stroke="black" stroke-width="0.1"/>
<path d="M257 75.5873C257.36 74.9383 257.612 74.5896 258.182 74.0052C259.406 73.9765 259.824 74.0604 260 74.4179C259.667 74.9779 259.551 75.2479 259.485 75.6389L259.152 75.9312L258.545 75.3809L258.303 76L257.455 75.6217L257 75.5873Z" fill="#130C0B" stroke="black" stroke-width="0.1"/>
<path d="M261.044 61.5691L258.712 61.2299C258.061 61.2171 257.927 60.3038 258.546 60.1041L260.928 59.3369C261.194 59.2511 261.404 59.046 261.497 58.7823L261.587 58.5274C261.868 57.7266 263.031 57.8234 263.176 58.6597L263.301 59.1612C263.353 59.3668 263.434 59.5637 263.543 59.7454L263.866 60.2833C264.066 60.6173 264.071 61.0335 263.878 61.3717L263.708 61.6681C263.523 61.9927 263.623 62.4074 263.934 62.6148C264.097 62.723 264.208 62.8952 264.238 63.088C264.314 63.5661 263.892 63.9742 263.416 63.8828L262.957 63.7945C262.775 63.7595 262.597 63.8706 262.548 64.0493C262.489 64.2684 262.241 64.3756 262.041 64.2693L261.798 64.1406C261.514 63.9906 261.408 63.6376 261.563 63.3564L261.757 63.0011C262.084 62.4055 261.716 61.6668 261.044 61.5691Z" fill="#401701" stroke="black" stroke-width="0.1"/>
<path d="M249.823 42.1381L251.037 40.8641C251.321 40.5656 251.813 40.6284 252.014 40.9888C252.168 41.2664 252.509 41.3796 252.799 41.2493L253.072 41.1262C253.416 40.9715 253.819 41.0377 254.095 41.2941L254.465 41.6378C254.545 41.7126 254.633 41.7795 254.727 41.8374L255.854 42.535C255.955 42.5979 256.062 42.6515 256.174 42.695L256.67 42.8892C257.198 43.0958 257.799 42.9273 258.143 42.4763L258.243 42.3441C258.487 42.0243 258.897 41.8785 259.287 41.9723L259.438 42.0084C259.924 42.1252 260.212 42.6279 260.066 43.1067C259.947 43.4991 259.57 43.7546 259.161 43.7198L257.281 43.5598C256.887 43.5262 256.49 43.5784 256.118 43.7127L255.134 44.0681C254.606 44.259 254.014 44.0879 253.669 43.6444C253.212 43.0566 252.355 42.9735 251.793 43.4626L251.41 43.7967C251.011 44.144 250.427 44.1742 249.994 43.8699C249.42 43.466 249.339 42.6464 249.823 42.1381Z" fill="#401701" stroke="black" stroke-width="0.1"/>
<path d="M170.515 22.6769C170.694 26.2343 168.642 31.8023 163.751 43.7797C163.881 44.78 163.828 45.379 163.616 46.4852C165.296 52.267 166.414 58.5169 166.186 60.7228C165.065 62.7593 164.309 63.9087 163.21 65.9647C162.169 69.4055 161.478 71.0937 160.234 74.0811L158.78 78.2408C155.346 79.1606 153.977 72.424 156.04 69.2113C156.703 66.3244 158.644 64.9163 159.422 63.2592C158.506 62.9011 157.257 63.0456 155.296 63.5636C154.452 66.6425 153.348 69.7728 150.393 74.0811C147.992 78.3085 147.203 81.1276 144.779 84.5311C143.426 86.4249 141.025 85.3427 141.295 83.0092C142.05 80.2566 142.67 78.4946 144.677 74.3517C145.936 69.642 146.77 67.3157 148.465 65.2545C148.627 64.0486 148.275 64.4415 147.045 65.3221C145.439 70.7876 144.648 71.6606 143.202 73.2553L143.189 73.2695C142.229 75.4183 141.585 76.641 139.672 78.951C137.402 83.3747 136.654 84.126 135.614 84.4973C134.092 84.8693 132.841 83.9562 132.908 82.7387C132.937 81.8863 133.282 81.2582 134.126 80.0332C134.197 79.4783 134.307 78.9314 134.462 78.37C134.27 78.9279 134.078 79.5263 133.889 80.1685C133.21 80.9338 132.987 81.2294 132.638 81.2169C131.454 81.4536 129.865 81.1586 130.068 79.2216C130.846 77.0234 130.846 75.6368 131.556 74.487C130.882 73.7721 130.669 73.3857 130.609 72.7284C130.958 71.9467 130.987 71.4624 131.387 70.3949C131.429 68.9216 131.786 68.1007 132.773 66.641C133.642 60.9034 135.073 60.2493 137.914 56.766C139.267 53.6858 140.741 51.7859 144.001 48.2437L151.576 40.2625C151.956 39.2061 152.275 38.6135 152.929 37.5571C153.092 35.0396 153.576 33.405 156.04 29.5759C155.865 29.0938 155.911 28.8062 156.581 28.2231C155.929 23.1986 156.48 22.5078 157.934 19.295L170.515 22.6769Z" fill="#B49E9B"/>
<path d="M138.455 70.2935C135.659 74.9605 134.464 77.4067 134.126 80.0332C133.282 81.2582 132.937 81.8863 132.908 82.7387C132.841 83.9562 134.092 84.8693 135.614 84.4973C136.654 84.126 137.402 83.3747 139.672 78.951C141.585 76.641 142.229 75.4183 143.189 73.2695C144.643 71.6657 145.434 70.8038 147.045 65.3221C148.275 64.4415 148.627 64.0486 148.465 65.2545C146.77 67.3157 145.936 69.642 144.677 74.3517C142.67 78.4946 142.05 80.2566 141.295 83.0092C141.025 85.3427 143.426 86.4249 144.779 84.5311C147.203 81.1276 147.992 78.3085 150.393 74.0811C153.348 69.7728 154.452 66.6425 155.296 63.5636C157.257 63.0456 158.506 62.9011 159.422 63.2592C158.644 64.9163 156.703 66.3244 156.04 69.2113C153.977 72.424 155.346 79.1606 158.78 78.2408L160.234 74.0811C161.478 71.0937 162.169 69.4055 163.21 65.9647C164.309 63.9087 165.065 62.7593 166.186 60.7228C166.414 58.5169 165.296 52.267 163.616 46.4852C163.828 45.379 163.881 44.78 163.751 43.7797C168.642 31.8023 170.694 26.2343 170.515 22.6769L157.934 19.295C156.48 22.5078 155.929 23.1986 156.581 28.2231C155.911 28.8062 155.865 29.0938 156.04 29.5759C153.576 33.405 153.092 35.0396 152.929 37.5571C152.275 38.6135 151.956 39.2061 151.576 40.2625L144.001 48.2437C140.741 51.7859 139.267 53.6858 137.914 56.766C135.073 60.2493 133.642 60.9034 132.773 66.641C131.786 68.1007 131.429 68.9215 131.387 70.3949C130.987 71.4624 130.958 71.9467 130.609 72.7284C130.669 73.3856 130.882 73.7721 131.556 74.487M138.455 70.2935C140.57 65.2603 142.69 62.8022 142.817 60.5875L142.648 61.3992C142.93 62.0153 138.648 69.1503 138.455 70.2935ZM138.455 70.2935C138.262 71.4366 135.918 73.2695 133.889 80.1685C133.21 80.9338 132.987 81.2294 132.638 81.2169C131.454 81.4536 129.865 81.1586 130.068 79.2216C130.846 77.0234 130.846 75.6368 131.556 74.487M131.556 74.487C132.479 71.5714 133.011 69.8879 133.991 66.7763C134.502 65.4064 134.928 64.7072 135.884 63.5297C137.591 61.1459 138.556 58.9642 139.774 56.1911" stroke="black" stroke-width="0.1"/>
<path d="M157.833 18.551V19.2273L158.272 19.5993L159.963 19.8699L160.741 20.5124L162.601 20.5462L163.142 21.2903L163.649 21.2564L165.205 21.2226L167.978 22.1357L168.485 22.5077L168.959 22.9136L169.534 22.8797L170.481 22.7445L170.819 22.4063L170.751 21.9328L170.481 21.3241L169.906 21.1212L170.278 20.7153L169.737 20.4448L169.635 19.8699L169.263 18.6186L169.094 19.1935L168.688 19.0921L168.621 18.2804L168.35 18.348L166.355 17.0968L166.22 16.6571L165.374 16.3189L164.867 16.5557L164.596 16.4542L163.649 16.7924L163.954 16.1837L162.398 15L161.519 15.9131L161.485 15.5073H160.842L159.693 17.1644L159.321 16.9615L159.152 17.4688L158.543 18.3819L158.34 18.2466L158.137 18.6524L157.833 18.551Z" fill="#6A2E0C" stroke="black" stroke-width="0.1"/>
<path d="M163.396 20.6304L163.375 20.529C163.332 20.3104 163.068 20.2203 162.9 20.3663C162.82 20.4357 162.708 20.456 162.609 20.4194L162.531 20.3905C162.308 20.3084 162.06 20.4217 161.977 20.6442L161.942 20.7371C161.93 20.7677 161.922 20.7993 161.916 20.8315L161.879 21.043C161.843 21.2448 161.889 21.4525 162.005 21.621C162.085 21.7366 162.133 21.8718 162.142 22.0121L162.142 22.0188C162.155 22.2038 162.103 22.3874 161.995 22.5384L161.654 23.0151L161.282 23.5901L160.91 24.3679L160.834 24.5011C160.705 24.7275 160.596 24.9652 160.51 25.2112C160.439 25.4153 160.383 25.6244 160.343 25.8369L160.301 26.0588C160.189 26.3947 160.023 26.7096 159.807 26.9909L159.693 27.141L159.516 27.4359C159.433 27.5744 159.392 27.7344 159.4 27.8957L159.409 28.0735C159.417 28.2503 159.332 28.4186 159.185 28.5167C159.077 28.5888 159.001 28.6998 158.972 28.8267L158.881 29.2378L158.783 29.518C158.691 29.7804 158.558 30.0267 158.389 30.2475C158.267 30.408 158.163 30.5821 158.08 30.7663L158.049 30.8343C157.95 31.0544 157.827 31.2628 157.682 31.4559L157.494 31.7065C157.274 31.9494 157.128 32.2507 157.074 32.5744L157.055 32.6873L156.886 33.2622L156.85 33.4534C156.807 33.682 156.701 33.8939 156.543 34.0649C156.434 34.1824 156.35 34.32 156.293 34.4698L156.237 34.6196C156.196 34.729 156.165 34.8417 156.143 34.9566L156.09 35.2319C156.057 35.4061 156.002 35.5755 155.927 35.7362C155.845 35.9122 155.739 36.0763 155.613 36.2237L155.398 36.4749L155.22 36.6386C155.047 36.7987 154.904 36.989 154.798 37.2001L154.713 37.3709C154.696 37.4047 154.684 37.4406 154.676 37.4776L154.649 37.6006C154.614 37.7657 154.714 37.9295 154.877 37.973C155.007 38.0075 155.144 37.9568 155.22 37.8464L155.429 37.5418C155.453 37.507 155.48 37.474 155.509 37.4432L155.973 36.9484L156.25 36.7232C156.423 36.5823 156.56 36.4019 156.65 36.1972L156.659 36.1773C156.719 36.0387 156.755 35.8903 156.764 35.7392C156.777 35.5123 156.851 35.2931 156.977 35.104L157.022 35.0367C157.089 34.9362 157.144 34.8284 157.186 34.7153L157.427 34.0738L157.731 33.3975L158.036 32.7211L158.082 32.5726C158.186 32.2441 158.324 31.9272 158.492 31.6269L158.543 31.5374L158.881 30.9625L159.011 30.7957C159.239 30.502 159.434 30.1836 159.591 29.8465C159.793 29.5105 159.939 29.1442 160.024 28.7617L160.031 28.7305C160.075 28.2408 160.23 27.7675 160.483 27.3459L160.606 27.141L160.72 26.9932C161.025 26.598 161.27 26.1592 161.445 25.6916L161.587 25.3148L161.792 24.8108C161.903 24.5391 162.046 24.2817 162.218 24.0444L162.353 23.8594C162.45 23.7255 162.53 23.5795 162.589 23.425L162.63 23.3187C162.764 22.9698 163.017 22.6796 163.345 22.4994L163.415 22.4611C163.481 22.4248 163.542 22.3806 163.597 22.3295C163.821 22.1234 163.929 21.8191 163.888 21.518C163.865 21.3478 163.795 21.186 163.687 21.0527L163.467 20.7828C163.431 20.7386 163.407 20.6863 163.396 20.6304Z" fill="#6A2E0C" stroke="black" stroke-width="0.1"/>
<path d="M158.678 68.0276C161.192 67.958 162.247 67.9204 162.567 67.8585M158.881 69.3803C160.265 69.6938 161.194 69.779 162.094 69.4141" stroke="black" stroke-width="0.1"/>
<path d="M143.832 78.6467C144.544 78.8458 144.937 78.9639 145.455 79.3569" stroke="black" stroke-width="0.1"/>
<path d="M144.102 77.9363C144.892 78.143 145.319 78.3482 146.064 78.8156" stroke="black" stroke-width="0.1"/>
<path d="M131.589 69.0421C132.302 69.2413 132.086 69.1564 132.604 69.5494" stroke="black" stroke-width="0.1"/>
<path d="M131.725 68.298C132.514 68.5047 132.468 68.5408 133.213 69.0082" stroke="black" stroke-width="0.1"/>
<path d="M131.725 74.4529C132.437 74.652 132.83 74.7701 133.348 75.1631" stroke="black" stroke-width="0.1"/>
<path d="M131.995 73.743C132.785 73.9496 133.212 74.1548 133.957 74.6222" stroke="black" stroke-width="0.1"/>
<path d="M135.252 77.0066C135.931 77.3007 136.304 77.4711 136.764 77.9309" stroke="black" stroke-width="0.1"/>
<path d="M135.617 76.34C136.371 76.6521 136.767 76.9135 137.44 77.4778" stroke="black" stroke-width="0.1"/>
<path d="M147.078 71.5448L149.48 72.4241" stroke="black" stroke-width="0.1"/>
<path d="M147.146 70.5977C148.395 70.484 149.066 70.6196 150.122 71.8151" stroke="black" stroke-width="0.1"/>
<path d="M146.402 72.221C147.467 73.4729 148.127 73.4695 149.31 73.4047" stroke="black" stroke-width="0.1"/>
<path d="M134.295 61.2637L135.649 62.0326" stroke="black" stroke-width="0.1"/>
<path d="M134.701 60.5875C135.411 60.858 135.637 60.6774 136.204 61.6986" stroke="black" stroke-width="0.1"/>
<path d="M133.991 61.974C134.464 62.4475 134.517 62.5676 135.373 62.7075" stroke="black" stroke-width="0.1"/>
<path d="M135.259 65.5794L137.361 67.0357" stroke="black" stroke-width="0.1"/>
<path d="M135.563 64.6799C136.8 64.8848 137.415 65.1852 138.136 66.6084" stroke="black" stroke-width="0.1"/>
<path d="M134.434 66.0635C135.149 67.5434 135.789 67.7066 136.95 67.9421" stroke="black" stroke-width="0.1"/>
<path d="M139.771 69.5074L142.045 70.6779" stroke="black" stroke-width="0.1"/>
<path d="M139.956 68.5761C141.209 68.6183 141.858 68.8362 142.758 70.1536" stroke="black" stroke-width="0.1"/>
<path d="M139.016 70.0946C139.917 71.469 140.573 71.5476 141.755 71.6301" stroke="black" stroke-width="0.1"/>
<path d="M131.961 70.8007L131.42 70.3949L130.609 72.6946L130.947 72.5593V72.8299L131.184 73.0328L131.353 72.5593L131.556 73.0328L131.961 70.8007Z" fill="#543934" stroke="black" stroke-width="0.1"/>
<path d="M132.503 77.6322C131.954 76.9535 131.584 76.7217 130.778 76.6514C130.551 77.5981 130.383 78.2093 130 79.4584L130.169 79.8304L130.304 80.3038L130.71 79.2216L130.812 80.1347L131.251 80.0333V80.4729L131.86 80.3038H132.333C132.67 79.5792 132.643 78.9183 132.503 77.6322Z" fill="#543934" stroke="black" stroke-width="0.1"/>
<path d="M135.546 81.4537C135.199 80.4957 134.914 80.112 134.193 79.7965C133.274 81.2064 132.89 81.942 132.875 82.9755L133.348 82.9079L133.247 83.5504L133.821 83.6519L134.363 84.1591L134.971 83.3137L135.479 83.7195C135.639 83.0127 135.655 82.5185 135.546 81.4537Z" fill="#543934" stroke="black" stroke-width="0.1"/>
<path d="M144.373 82.2991C143.795 81.4178 143.434 81.1244 142.648 81.386C142.383 81.6612 142.188 81.9636 141.769 82.7387L142.276 83.2122L142.783 83.0431L143.257 83.1107L143.527 82.9078L144.373 84.0576L144.374 84.0401C144.412 83.3258 144.433 82.9197 144.373 82.2991Z" fill="#543934" stroke="black" stroke-width="0.1"/>
<path d="M157.021 76.0762C157.423 74.7999 157.704 74.1143 158.34 72.9649C159.706 72.9086 160.173 73.0735 160.369 73.7766C159.997 74.8779 159.868 75.4089 159.794 76.1777L159.422 76.7526L158.746 75.6704L158.475 76.8879L157.528 76.1439L157.021 76.0762Z" fill="#543934" stroke="black" stroke-width="0.1"/>
<path d="M161.044 61.5691L158.712 61.2299C158.061 61.2171 157.927 60.3038 158.546 60.1041L160.928 59.3369C161.194 59.2511 161.404 59.046 161.497 58.7823L161.587 58.5274C161.868 57.7266 163.031 57.8234 163.176 58.6597L163.301 59.1612C163.353 59.3668 163.434 59.5637 163.543 59.7454L163.866 60.2833C164.066 60.6173 164.071 61.0335 163.878 61.3717L163.708 61.6681C163.523 61.9927 163.623 62.4074 163.934 62.6148C164.097 62.723 164.208 62.8952 164.238 63.088C164.314 63.5661 163.892 63.9742 163.416 63.8828L162.957 63.7945C162.775 63.7595 162.597 63.8706 162.548 64.0493C162.489 64.2684 162.241 64.3756 162.041 64.2693L161.798 64.1406C161.514 63.9906 161.408 63.6376 161.563 63.3564L161.757 63.0011C162.084 62.4055 161.716 61.6668 161.044 61.5691Z" fill="#6A2E0C" stroke="black" stroke-width="0.1"/>
<path d="M149.823 42.1381L151.037 40.8641C151.321 40.5656 151.813 40.6284 152.014 40.9888C152.168 41.2664 152.509 41.3796 152.799 41.2493L153.072 41.1262C153.416 40.9715 153.819 41.0377 154.095 41.2941L154.465 41.6378C154.545 41.7126 154.633 41.7795 154.727 41.8374L155.854 42.535C155.955 42.5979 156.062 42.6515 156.174 42.695L156.67 42.8892C157.198 43.0958 157.799 42.9273 158.143 42.4763L158.243 42.3441C158.487 42.0243 158.897 41.8785 159.287 41.9723L159.438 42.0084C159.924 42.1252 160.212 42.6279 160.066 43.1067C159.947 43.4991 159.57 43.7546 159.161 43.7198L157.281 43.5598C156.887 43.5262 156.49 43.5784 156.118 43.7127L155.134 44.0681C154.606 44.259 154.014 44.0879 153.669 43.6444C153.212 43.0566 152.355 42.9735 151.793 43.4626L151.41 43.7967C151.011 44.144 150.427 44.1742 149.994 43.8699C149.42 43.466 149.339 42.6464 149.823 42.1381Z" fill="#6A2E0C" stroke="black" stroke-width="0.1"/>
<path d="M70.5147 22.6769C70.6935 26.2343 68.6418 31.8023 63.751 43.7797C63.8806 44.78 63.8279 45.379 63.6157 46.4852C65.296 52.267 66.4138 58.5169 66.1859 60.7228C65.0649 62.7593 64.3092 63.9087 63.2099 65.9647C62.1691 69.4055 61.4777 71.0937 60.2339 74.0811L58.7797 78.2408C55.3455 79.1606 53.9774 72.424 56.0404 69.2113C56.7029 66.3244 58.6444 64.9163 59.4222 63.2592C58.5062 62.9011 57.2571 63.0456 55.2963 63.5636C54.4521 66.6425 53.3482 69.7728 50.3927 74.0811C47.9915 78.3085 47.2032 81.1276 44.7788 84.5311C43.426 86.4249 41.0249 85.3427 41.2955 83.0092C42.0495 80.2566 42.6697 78.4946 44.6773 74.3517C45.9358 69.642 46.7701 67.3157 48.465 65.2545C48.6275 64.0486 48.2751 64.4415 47.0446 65.3221C45.439 70.7876 44.6477 71.6606 43.2022 73.2553L43.1893 73.2695C42.2294 75.4183 41.5851 76.641 39.6722 78.951C37.4022 83.3747 36.6544 84.126 35.6139 84.4973C34.0921 84.8693 32.8408 83.9562 32.9084 82.7387C32.9369 81.8863 33.2822 81.2582 34.1259 80.0332C34.1974 79.4783 34.3071 78.9314 34.462 78.37C34.2697 78.9279 34.0781 79.5263 33.8892 80.1685C33.2103 80.9338 32.987 81.2294 32.6379 81.2169C31.4542 81.4536 29.8649 81.1586 30.0677 79.2216C30.8455 77.0234 30.8455 75.6368 31.5557 74.487C30.8819 73.7721 30.669 73.3857 30.6088 72.7284C30.9583 71.9467 30.9874 71.4624 31.3866 70.3949C31.4291 68.9216 31.7858 68.1007 32.7732 66.641C33.6422 60.9034 35.0728 60.2493 37.9136 56.766C39.267 53.6858 40.7414 51.7859 44.0009 48.2437L51.5763 40.2625C51.9562 39.2061 52.2749 38.6135 52.929 37.5571C53.0923 35.0396 53.5758 33.405 56.0404 29.5759C55.8652 29.0938 55.911 28.8062 56.5815 28.2231C55.9288 23.1986 56.48 22.5078 57.9342 19.295L70.5147 22.6769Z" fill="#D0B0AB"/>
<path d="M38.4547 70.2935C35.6594 74.9605 34.4641 77.4067 34.1259 80.0332C33.2822 81.2582 32.9369 81.8863 32.9084 82.7387C32.8408 83.9562 34.0921 84.8693 35.6139 84.4973C36.6544 84.126 37.4022 83.3747 39.6722 78.951C41.5851 76.641 42.2294 75.4183 43.1893 73.2695C44.643 71.6657 45.4343 70.8038 47.0446 65.3221C48.2751 64.4415 48.6275 64.0486 48.465 65.2545C46.7701 67.3157 45.9358 69.642 44.6773 74.3517C42.6697 78.4946 42.0495 80.2566 41.2955 83.0092C41.0249 85.3427 43.426 86.4249 44.7788 84.5311C47.2032 81.1276 47.9915 78.3085 50.3927 74.0811C53.3482 69.7728 54.4521 66.6425 55.2963 63.5636C57.2571 63.0456 58.5062 62.9011 59.4222 63.2592C58.6444 64.9163 56.7029 66.3244 56.0404 69.2113C53.9774 72.424 55.3455 79.1606 58.7797 78.2408L60.2339 74.0811C61.4777 71.0937 62.1691 69.4055 63.2099 65.9647C64.3092 63.9087 65.0649 62.7593 66.1859 60.7228C66.4138 58.5169 65.296 52.267 63.6157 46.4852C63.8279 45.379 63.8806 44.78 63.751 43.7797C68.6418 31.8023 70.6935 26.2343 70.5147 22.6769L57.9342 19.295C56.48 22.5078 55.9288 23.1986 56.5815 28.2231C55.911 28.8062 55.8652 29.0938 56.0404 29.5759C53.5758 33.405 53.0923 35.0396 52.929 37.5571C52.2749 38.6135 51.9562 39.2061 51.5763 40.2625L44.0009 48.2437C40.7414 51.7859 39.267 53.6858 37.9136 56.766C35.0728 60.2493 33.6422 60.9034 32.7732 66.641C31.7858 68.1007 31.4291 68.9215 31.3866 70.3949C30.9874 71.4624 30.9583 71.9467 30.6088 72.7284C30.669 73.3856 30.8819 73.7721 31.5557 74.487M38.4547 70.2935C40.5701 65.2603 42.6899 62.8022 42.8173 60.5875L42.6482 61.3992C42.9302 62.0153 38.6476 69.1503 38.4547 70.2935ZM38.4547 70.2935C38.2618 71.4366 35.9183 73.2695 33.8892 80.1685C33.2103 80.9338 32.987 81.2294 32.6379 81.2169C31.4542 81.4536 29.8649 81.1586 30.0677 79.2216C30.8455 77.0234 30.8455 75.6368 31.5557 74.487M31.5557 74.487C32.4789 71.5714 33.0105 69.8879 33.9906 66.7763C34.502 65.4064 34.9279 64.7072 35.8845 63.5297C37.5909 61.1459 38.5562 58.9642 39.7736 56.1911" stroke="black" stroke-width="0.1"/>
<path d="M57.8326 18.551V19.2273L58.2723 19.5993L59.9632 19.8699L60.741 20.5124L62.6011 20.5462L63.1422 21.2903L63.6494 21.2564L65.2051 21.2226L67.9782 22.1357L68.4855 22.5077L68.959 22.9136L69.5339 22.8797L70.4808 22.7445L70.819 22.4063L70.7513 21.9328L70.4808 21.3241L69.9059 21.1212L70.2779 20.7153L69.7368 20.4448L69.6353 19.8699L69.2633 18.6186L69.0942 19.1935L68.6884 19.0921L68.6208 18.2804L68.3502 18.348L66.3549 17.0968L66.2197 16.6571L65.3742 16.3189L64.8669 16.5557L64.5964 16.4542L63.6494 16.7924L63.9538 16.1837L62.3982 15L61.5189 15.9131L61.485 15.5073H60.8425L59.6927 17.1644L59.3207 16.9615L59.1516 17.4688L58.5428 18.3819L58.3399 18.2466L58.137 18.6524L57.8326 18.551Z" fill="#8C1527" stroke="black" stroke-width="0.1"/>
<path d="M63.3957 20.6304L63.3754 20.529C63.3317 20.3104 63.0684 20.2203 62.8999 20.3663C62.8199 20.4357 62.7084 20.456 62.609 20.4194L62.5307 20.3905C62.3077 20.3084 62.0602 20.4217 61.9768 20.6442L61.9419 20.7371C61.9305 20.7677 61.9218 20.7993 61.9162 20.8315L61.8788 21.043C61.8432 21.2448 61.8887 21.4525 62.0053 21.621C62.0853 21.7366 62.1325 21.8718 62.1419 22.0121L62.1423 22.0188C62.1547 22.2038 62.1025 22.3874 61.9947 22.5384L61.6541 23.0151L61.2821 23.5901L60.9101 24.3679L60.834 24.5011C60.7047 24.7275 60.5963 24.9652 60.5101 25.2112C60.4387 25.4153 60.3829 25.6244 60.343 25.8369L60.3014 26.0588C60.1894 26.3947 60.0225 26.7096 59.8075 26.9909L59.6927 27.141L59.5158 27.4359C59.4326 27.5744 59.3924 27.7344 59.4001 27.8957L59.4085 28.0735C59.417 28.2503 59.332 28.4186 59.1847 28.5167C59.0766 28.5888 59.0006 28.6998 58.9724 28.8267L58.881 29.2378L58.7829 29.518C58.6911 29.7804 58.5582 30.0267 58.3894 30.2475C58.2666 30.408 58.1628 30.5821 58.0799 30.7663L58.0493 30.8343C57.9503 31.0544 57.8272 31.2628 57.6824 31.4559L57.4945 31.7065C57.2737 31.9494 57.1276 32.2507 57.0736 32.5744L57.0548 32.6873L56.8857 33.2622L56.8499 33.4534C56.807 33.682 56.7006 33.8939 56.5428 34.0649C56.4343 34.1824 56.3495 34.32 56.2934 34.4698L56.2372 34.6196C56.1962 34.729 56.1645 34.8417 56.1427 34.9566L56.0902 35.2319C56.057 35.4061 56.0023 35.5755 55.9273 35.7362C55.8452 35.9122 55.7394 36.0763 55.613 36.2237L55.3977 36.4749L55.2204 36.6386C55.047 36.7987 54.904 36.989 54.7984 37.2001L54.713 37.3709C54.6961 37.4047 54.6835 37.4406 54.6756 37.4776L54.6492 37.6006C54.6138 37.7657 54.7142 37.9295 54.8773 37.973C55.0068 38.0075 55.1441 37.9568 55.22 37.8464L55.4294 37.5418C55.4533 37.507 55.4799 37.474 55.5088 37.4432L55.9726 36.9484L56.2497 36.7232C56.4232 36.5823 56.5605 36.4019 56.65 36.1972L56.6587 36.1773C56.7194 36.0387 56.755 35.8903 56.7639 35.7392C56.7772 35.5123 56.8507 35.2931 56.9768 35.104L57.0216 35.0367C57.0886 34.9362 57.1439 34.8284 57.1863 34.7153L57.4268 34.0738L57.7312 33.3975L58.0356 32.7211L58.0824 32.5726C58.1862 32.2441 58.3236 31.9272 58.4925 31.6269L58.5428 31.5374L58.881 30.9625L59.0108 30.7957C59.2392 30.502 59.4339 30.1836 59.5912 29.8465C59.7928 29.5105 59.9389 29.1442 60.0239 28.7617L60.0309 28.7305C60.0754 28.2408 60.2299 27.7675 60.4829 27.3459L60.6058 27.141L60.72 26.9932C61.0254 26.598 61.2699 26.1592 61.4452 25.6916L61.5865 25.3148L61.7918 24.8108C61.9025 24.5391 62.0458 24.2817 62.2184 24.0444L62.3529 23.8594C62.4503 23.7255 62.5297 23.5795 62.5891 23.425L62.63 23.3187C62.7642 22.9698 63.0175 22.6796 63.345 22.4994L63.4148 22.4611C63.4808 22.4248 63.5421 22.3806 63.5975 22.3295C63.8208 22.1234 63.9291 21.8191 63.888 21.518C63.8648 21.3478 63.795 21.186 63.6867 21.0527L63.4674 20.7828C63.4315 20.7386 63.4069 20.6863 63.3957 20.6304Z" fill="#B43636" stroke="black" stroke-width="0.1"/>
<path d="M58.6782 68.0276C61.1921 67.958 62.2465 67.9204 62.5674 67.8585M58.8811 69.3803C60.2654 69.6938 61.1942 69.779 62.0939 69.4141" stroke="black" stroke-width="0.1"/>
<path d="M43.8318 78.6467C44.5441 78.8458 44.9367 78.9639 45.4551 79.3569" stroke="black" stroke-width="0.1"/>
<path d="M44.1022 77.9363C44.8918 78.143 45.3194 78.3482 46.0637 78.8156" stroke="black" stroke-width="0.1"/>
<path d="M31.5894 69.0421C32.3016 69.2413 32.0856 69.1564 32.604 69.5494" stroke="black" stroke-width="0.1"/>
<path d="M31.7247 68.298C32.5142 68.5047 32.4684 68.5408 33.2127 69.0082" stroke="black" stroke-width="0.1"/>
<path d="M31.7247 74.4529C32.4369 74.652 32.8296 74.7701 33.348 75.1631" stroke="black" stroke-width="0.1"/>
<path d="M31.9952 73.743C32.7848 73.9496 33.2124 74.1548 33.9567 74.6222" stroke="black" stroke-width="0.1"/>
<path d="M35.2522 77.0066C35.9307 77.3007 36.3037 77.4711 36.7638 77.9309" stroke="black" stroke-width="0.1"/>
<path d="M35.6168 76.34C36.3709 76.6521 36.7666 76.9135 37.4404 77.4778" stroke="black" stroke-width="0.1"/>
<path d="M47.0784 71.5448L49.4796 72.4241" stroke="black" stroke-width="0.1"/>
<path d="M47.1461 70.5977C48.3952 70.484 49.0658 70.6196 50.1222 71.8151" stroke="black" stroke-width="0.1"/>
<path d="M46.402 72.221C47.4671 73.4729 48.1274 73.4695 49.3104 73.4047" stroke="black" stroke-width="0.1"/>
<path d="M34.295 61.2637L35.6487 62.0326" stroke="black" stroke-width="0.1"/>
<path d="M34.7008 60.5875C35.411 60.858 35.6369 60.6774 36.2041 61.6986" stroke="black" stroke-width="0.1"/>
<path d="M33.9907 61.974C34.4641 62.4475 34.5172 62.5676 35.3734 62.7075" stroke="black" stroke-width="0.1"/>
<path d="M35.2587 65.5794L37.3605 67.0357" stroke="black" stroke-width="0.1"/>
<path d="M35.5629 64.6799C36.8003 64.8848 37.4151 65.1852 38.1359 66.6084" stroke="black" stroke-width="0.1"/>
<path d="M34.4337 66.0635C35.1487 67.5434 35.7886 67.7066 36.9497 67.9421" stroke="black" stroke-width="0.1"/>
<path d="M39.7712 69.5074L42.0446 70.6779" stroke="black" stroke-width="0.1"/>
<path d="M39.9557 68.5761C41.2092 68.6183 41.8578 68.8362 42.7576 70.1536" stroke="black" stroke-width="0.1"/>
<path d="M39.016 70.0946C39.9174 71.469 40.5731 71.5476 41.755 71.6301" stroke="black" stroke-width="0.1"/>
<path d="M31.9614 70.8007L31.4203 70.3949L30.6087 72.6946L30.9469 72.5593V72.8299L31.1836 73.0328L31.3527 72.5593L31.5556 73.0328L31.9614 70.8007Z" fill="#966760" stroke="black" stroke-width="0.1"/>
<path d="M32.5026 77.6322C31.9537 76.9535 31.5839 76.7217 30.7778 76.6514C30.5514 77.5981 30.3828 78.2093 30 79.4584L30.1691 79.8304L30.3044 80.3038L30.7102 79.2216L30.8116 80.1347L31.2513 80.0333V80.4729L31.86 80.3038H32.3335C32.6702 79.5792 32.6427 78.9183 32.5026 77.6322Z" fill="#966760" stroke="black" stroke-width="0.1"/>
<path d="M35.5462 81.4537C35.1992 80.4957 34.914 80.112 34.1934 79.7965C33.2743 81.2064 32.89 81.942 32.8745 82.9755L33.348 82.9079L33.2465 83.5504L33.8214 83.6519L34.3625 84.1591L34.9713 83.3137L35.4785 83.7195C35.6389 83.0127 35.6551 82.5185 35.5462 81.4537Z" fill="#966760" stroke="black" stroke-width="0.1"/>
<path d="M44.373 82.2991C43.7946 81.4178 43.4338 81.1244 42.6482 81.386C42.3827 81.6612 42.1882 81.9636 41.7689 82.7387L42.2762 83.2122L42.7835 83.0431L43.2569 83.1107L43.5275 82.9078L44.373 84.0576L44.3739 84.0401C44.4118 83.3258 44.4334 82.9197 44.373 82.2991Z" fill="#966760" stroke="black" stroke-width="0.1"/>
<path d="M57.0211 76.0762C57.4225 74.7999 57.7037 74.1143 58.34 72.9649C59.7059 72.9086 60.1732 73.0735 60.3691 73.7766C59.997 74.8779 59.8681 75.4089 59.7942 76.1777L59.4222 76.7526L58.7458 75.6704L58.4753 76.8879L57.5283 76.1439L57.0211 76.0762Z" fill="#966760" stroke="black" stroke-width="0.1"/>
<path d="M61.0436 61.5691L58.7119 61.2299C58.0609 61.2171 57.9265 60.3038 58.5463 60.1041L60.9275 59.3369C61.1936 59.2511 61.4043 59.046 61.497 58.7823L61.5867 58.5274C61.8685 57.7266 63.0306 57.8234 63.176 58.6597L63.3014 59.1612C63.3528 59.3668 63.4343 59.5637 63.5434 59.7454L63.8661 60.2833C64.0665 60.6173 64.0709 61.0335 63.8777 61.3717L63.7082 61.6681C63.5228 61.9927 63.6234 62.4074 63.9344 62.6148C64.0967 62.723 64.2079 62.8952 64.2383 63.088C64.3138 63.5661 63.8918 63.9742 63.4165 63.8828L62.9574 63.7945C62.7755 63.7595 62.5972 63.8706 62.5485 64.0493C62.4888 64.2684 62.2413 64.3756 62.0407 64.2693L61.7976 64.1406C61.5142 63.9906 61.4084 63.6376 61.5626 63.3564L61.7574 63.0011C62.084 62.4055 61.7159 61.6668 61.0436 61.5691Z" fill="#B43636" stroke="black" stroke-width="0.1"/>
<path d="M49.8235 42.1381L51.0369 40.8641C51.3212 40.5656 51.8134 40.6284 52.0136 40.9888C52.1679 41.2664 52.509 41.3796 52.7986 41.2493L53.0722 41.1262C53.4158 40.9715 53.8186 41.0377 54.0948 41.2941L54.4649 41.6378C54.5455 41.7126 54.6332 41.7795 54.7267 41.8374L55.8537 42.535C55.9553 42.5979 56.0624 42.6515 56.1737 42.695L56.6699 42.8892C57.198 43.0958 57.7991 42.9273 58.1427 42.4763L58.2434 42.3441C58.4871 42.0243 58.8965 41.8785 59.2875 41.9723L59.4377 42.0084C59.9245 42.1252 60.2122 42.6279 60.0665 43.1067C59.9471 43.4991 59.5698 43.7546 59.1612 43.7198L57.2807 43.5598C56.8868 43.5262 56.4903 43.5784 56.1184 43.7127L55.1341 44.0681C54.6056 44.259 54.0144 44.0879 53.6694 43.6444C53.2122 43.0566 52.355 42.9735 51.7934 43.4626L51.4099 43.7967C51.0111 44.144 50.4267 44.1742 49.9942 43.8699C49.4203 43.466 49.3395 42.6464 49.8235 42.1381Z" fill="#B43636" stroke="black" stroke-width="0.1"/>
</svg>
