<svg width="1000" height="100" viewBox="0 0 1000 100" fill="none" xmlns="http://www.w3.org/2000/svg">
<rect width="1000" height="100" fill="none"/>
<path d="M957.164 95.2172L956.467 95.2172L955.491 95.1036C955.286 95.1097 952.719 95.0219 950.767 95.0028C950.195 94.9932 949.078 95.1036 949.078 95.1036L948.521 95.1036L948.66 95.2172L948.102 95.4445L948.66 95.5582C952.964 95.6174 949.918 95.5504 954.949 95.5181C957.517 95.5347 957.582 95.5582 957.582 95.5582L957.164 95.3309L957.164 95.2172Z" fill="#311D00" fill-opacity="0.65" stroke="black" stroke-width="0.1"/>
<path d="M949.47 95.3039C949.503 95.2989 949.541 95.294 949.585 95.2891C949.763 95.2695 950.021 95.2517 950.342 95.2367C950.982 95.2068 951.867 95.1883 952.845 95.1883C953.823 95.1883 954.708 95.2068 955.348 95.2367C955.668 95.2517 955.927 95.2695 956.104 95.2891C956.148 95.294 956.187 95.2989 956.22 95.3039C956.187 95.3088 956.148 95.3138 956.104 95.3186C955.927 95.3383 955.668 95.3561 955.348 95.371C954.708 95.4009 953.823 95.4195 952.845 95.4195C951.867 95.4195 950.982 95.4009 950.342 95.371C950.021 95.3561 949.763 95.3383 949.585 95.3186C949.541 95.3138 949.503 95.3088 949.47 95.3039Z" fill="#3F2102" fill-opacity="0.13" stroke="black" stroke-width="0.1"/>
<path d="M952.722 95.2854V95.2748L953.761 95.2749C954.437 95.2776 954.427 95.33 953.761 95.3321H952.72V95.3219H952.897V95.2854H952.722Z" fill="#383733" fill-opacity="0.07" stroke="black" stroke-width="0.1"/>
<path d="M953.523 95.3145V95.2927C953.679 95.2927 953.736 95.2944 953.729 95.3039C953.726 95.3128 953.673 95.3146 953.523 95.3145Z" stroke="black" stroke-width="0.1"/>
<path d="M951.372 95.3228V95.3121L952.046 95.2807L952.625 95.3078L952.895 95.2952V95.3056L951.95 95.3498L951.842 95.3448L952.015 95.3367L951.545 95.3147L951.372 95.3228Z" fill="#3F2102" fill-opacity="0.13" stroke="black" stroke-width="0.1"/>
<path d="M949.901 95.2852V95.2748H950.947V95.2852H950.766V95.3194L951.372 95.3034V95.3323H949.901V95.322H950.077V95.2852H949.901Z" fill="#383733" fill-opacity="0.07" stroke="black" stroke-width="0.1"/>
<path d="M954.3 95.2855V95.2751H955.346V95.2855H955.164V95.3197L955.77 95.3037V95.3326H954.3V95.3223H954.475V95.2855H954.3Z" fill="#383733" fill-opacity="0.07" stroke="black" stroke-width="0.1"/>
<mask id="path-8-inside-1" fill="white">
<ellipse cx="951.954" cy="95.2594" rx="0.382941" ry="0.0178982"/>
</mask>
<ellipse cx="951.954" cy="95.2594" rx="0.382941" ry="0.0178982" fill="#3F2102" fill-opacity="0.13"/>
<path d="M952.237 95.2594C952.237 95.2207 952.259 95.1964 952.269 95.1868C952.28 95.177 952.29 95.1721 952.294 95.1704C952.298 95.1682 952.302 95.167 952.304 95.1665C952.306 95.1659 952.307 95.1656 952.307 95.1655C952.308 95.1654 952.305 95.166 952.296 95.1669C952.28 95.1687 952.255 95.1706 952.221 95.1721C952.153 95.1753 952.059 95.1773 951.954 95.1773V95.3773C952.061 95.3773 952.159 95.3753 952.23 95.3719C952.265 95.3703 952.296 95.3682 952.318 95.3657C952.329 95.3646 952.341 95.3629 952.352 95.3605C952.356 95.3594 952.366 95.357 952.377 95.352C952.382 95.3497 952.393 95.3442 952.405 95.3338C952.416 95.3236 952.437 95.2986 952.437 95.2594H952.237ZM951.954 95.1773C951.85 95.1773 951.756 95.1753 951.688 95.1721C951.654 95.1706 951.629 95.1687 951.613 95.1669C951.604 95.166 951.601 95.1654 951.602 95.1655C951.602 95.1656 951.603 95.1659 951.605 95.1665C951.607 95.167 951.611 95.1682 951.615 95.1704C951.619 95.1721 951.629 95.177 951.64 95.1868C951.65 95.1964 951.672 95.2207 951.672 95.2594H951.472C951.472 95.2986 951.493 95.3236 951.504 95.3338C951.516 95.3442 951.527 95.3497 951.532 95.352C951.542 95.357 951.552 95.3594 951.557 95.3605C951.568 95.3629 951.58 95.3646 951.591 95.3657C951.613 95.3682 951.644 95.3703 951.679 95.3719C951.75 95.3753 951.848 95.3773 951.954 95.3773V95.1773ZM951.672 95.2594C951.672 95.298 951.65 95.3224 951.64 95.332C951.629 95.3418 951.619 95.3467 951.615 95.3484C951.611 95.3506 951.607 95.3518 951.605 95.3523C951.603 95.3529 951.602 95.3532 951.602 95.3533C951.601 95.3534 951.604 95.3528 951.613 95.3518C951.629 95.35 951.654 95.3482 951.688 95.3466C951.756 95.3435 951.85 95.3415 951.954 95.3415V95.1415C951.848 95.1415 951.75 95.1435 951.679 95.1468C951.644 95.1485 951.613 95.1505 951.591 95.153C951.58 95.1542 951.568 95.1558 951.557 95.1583C951.552 95.1593 951.542 95.1617 951.532 95.1667C951.527 95.169 951.516 95.1745 951.504 95.1849C951.493 95.1951 951.472 95.2201 951.472 95.2594H951.672ZM951.954 95.3415C952.059 95.3415 952.153 95.3435 952.221 95.3466C952.255 95.3482 952.28 95.35 952.296 95.3518C952.305 95.3528 952.308 95.3534 952.307 95.3533C952.307 95.3532 952.306 95.3529 952.304 95.3523C952.302 95.3518 952.298 95.3506 952.294 95.3484C952.29 95.3467 952.28 95.3418 952.269 95.332C952.259 95.3224 952.237 95.298 952.237 95.2594H952.437C952.437 95.2201 952.416 95.1951 952.405 95.1849C952.393 95.1745 952.382 95.169 952.377 95.1667C952.366 95.1617 952.356 95.1593 952.352 95.1583C952.341 95.1558 952.329 95.1542 952.318 95.153C952.296 95.1505 952.265 95.1485 952.23 95.1468C952.159 95.1435 952.061 95.1415 951.954 95.1415V95.3415Z" fill="black" mask="url(#path-8-inside-1)"/>
<path d="M863.994 94.5864L862.321 94.5864L859.979 94.2795C859.486 94.2962 853.325 94.0592 848.641 94.0077C847.267 93.9816 844.588 94.2795 844.588 94.2795L843.249 94.2795L843.584 94.5864L842.245 95.2L843.584 95.5069C853.914 95.6666 846.602 95.4857 858.679 95.3987C864.841 95.4435 864.997 95.5069 864.997 95.5069L863.994 94.8932L863.994 94.5864Z" fill="#311D00" fill-opacity="0.65" stroke="black" stroke-width="0.1"/>
<path d="M862.065 94.819C862.066 94.8194 862.067 94.8199 862.067 94.8203C862.067 94.8207 862.066 94.8212 862.065 94.8216C862.041 94.834 862.002 94.8477 861.947 94.862C861.836 94.8903 861.672 94.918 861.457 94.9447C861.029 94.998 860.407 95.0461 859.638 95.0865C858.101 95.1673 855.975 95.2174 853.628 95.2174C851.28 95.2174 849.155 95.1673 847.617 95.0865C846.848 95.0461 846.227 94.998 845.798 94.9447C845.584 94.918 845.419 94.8903 845.309 94.862C845.253 94.8477 845.215 94.834 845.191 94.8216C845.19 94.8212 845.189 94.8207 845.188 94.8203C845.189 94.8199 845.19 94.8194 845.191 94.819C845.215 94.8066 845.253 94.7929 845.309 94.7786C845.419 94.7503 845.584 94.7226 845.798 94.6959C846.227 94.6426 846.848 94.5945 847.617 94.5541C849.155 94.4733 851.28 94.4232 853.628 94.4232C855.975 94.4232 858.101 94.4733 859.638 94.5541C860.407 94.5945 861.029 94.6426 861.457 94.6959C861.672 94.7226 861.836 94.7503 861.947 94.7786C862.002 94.7929 862.041 94.8066 862.065 94.819Z" fill="#3F2102" fill-opacity="0.13" stroke="black" stroke-width="0.1"/>
<path d="M853.332 94.7704V94.7417L855.828 94.7421C857.448 94.7493 857.426 94.8907 855.828 94.8966H853.329V94.869H853.753V94.7704H853.332Z" fill="#383733" fill-opacity="0.07" stroke="black" stroke-width="0.1"/>
<path d="M855.255 94.849V94.79C855.63 94.7902 855.767 94.7947 855.75 94.8203C855.743 94.8443 855.616 94.8494 855.255 94.849Z" stroke="black" stroke-width="0.1"/>
<path d="M850.092 94.8715V94.8426L851.71 94.7577L853.101 94.8308L853.748 94.7968V94.8251L851.48 94.9443L851.221 94.9307L851.636 94.9089L850.509 94.8496L850.092 94.8715Z" fill="#3F2102" fill-opacity="0.13" stroke="black" stroke-width="0.1"/>
<path d="M846.563 94.7698V94.7419H849.073V94.7698H848.637V94.8622L850.092 94.8191V94.8971H846.563V94.8692H846.984V94.7698H846.563Z" fill="#383733" fill-opacity="0.07" stroke="black" stroke-width="0.1"/>
<path d="M857.119 94.7706V94.7427H859.629V94.7706H859.194V94.863L860.648 94.8199V94.8979H857.119V94.87H857.54V94.7706H857.119Z" fill="#383733" fill-opacity="0.07" stroke="black" stroke-width="0.1"/>
<mask id="path-17-inside-2" fill="white">
<ellipse cx="851.491" cy="94.7002" rx="0.919058" ry="0.0483165"/>
</mask>
<ellipse cx="851.491" cy="94.7002" rx="0.919058" ry="0.0483165" fill="#3F2102" fill-opacity="0.13"/>
<path d="M852.31 94.7002C852.31 94.6665 852.326 94.6438 852.337 94.6333C852.346 94.6231 852.356 94.618 852.359 94.6163C852.366 94.6127 852.37 94.6121 852.366 94.6131C852.36 94.6146 852.347 94.617 852.325 94.6198C852.282 94.6251 852.218 94.6302 852.135 94.6345C851.971 94.6431 851.743 94.6485 851.491 94.6485V94.8485C851.746 94.8485 851.977 94.8431 852.146 94.8342C852.23 94.8298 852.3 94.8245 852.35 94.8182C852.374 94.8152 852.397 94.8115 852.416 94.8068C852.424 94.8046 852.438 94.8008 852.451 94.7939C852.457 94.7906 852.469 94.7839 852.481 94.7721C852.492 94.7599 852.51 94.7356 852.51 94.7002H852.31ZM851.491 94.6485C851.238 94.6485 851.01 94.6431 850.846 94.6345C850.764 94.6302 850.699 94.6251 850.656 94.6198C850.634 94.617 850.621 94.6146 850.615 94.6131C850.611 94.6121 850.615 94.6127 850.622 94.6163C850.626 94.618 850.635 94.6231 850.645 94.6333C850.655 94.6438 850.672 94.6665 850.672 94.7002H850.472C850.472 94.7356 850.489 94.7599 850.501 94.7721C850.512 94.7839 850.524 94.7906 850.53 94.7939C850.544 94.8008 850.557 94.8046 850.565 94.8068C850.584 94.8115 850.607 94.8152 850.632 94.8182C850.682 94.8245 850.752 94.8298 850.836 94.8342C851.004 94.8431 851.236 94.8485 851.491 94.8485V94.6485ZM850.672 94.7002C850.672 94.7339 850.655 94.7566 850.645 94.7671C850.635 94.7772 850.626 94.7823 850.622 94.7841C850.615 94.7876 850.611 94.7883 850.615 94.7873C850.621 94.7858 850.634 94.7834 850.656 94.7806C850.699 94.7753 850.764 94.7702 850.846 94.7659C851.01 94.7573 851.238 94.7519 851.491 94.7519V94.5519C851.236 94.5519 851.004 94.5573 850.836 94.5662C850.752 94.5706 850.682 94.5759 850.632 94.5821C850.607 94.5852 850.584 94.5888 850.565 94.5936C850.557 94.5958 850.544 94.5996 850.53 94.6064C850.524 94.6098 850.512 94.6165 850.501 94.6283C850.489 94.6404 850.472 94.6648 850.472 94.7002H850.672ZM851.491 94.7519C851.743 94.7519 851.971 94.7573 852.135 94.7659C852.218 94.7702 852.282 94.7753 852.325 94.7806C852.347 94.7834 852.36 94.7858 852.366 94.7873C852.37 94.7883 852.366 94.7876 852.359 94.7841C852.356 94.7823 852.346 94.7772 852.337 94.7671C852.326 94.7566 852.31 94.7339 852.31 94.7002H852.51C852.51 94.6648 852.492 94.6404 852.481 94.6283C852.469 94.6165 852.457 94.6098 852.451 94.6064C852.438 94.5996 852.424 94.5958 852.416 94.5936C852.397 94.5888 852.374 94.5852 852.35 94.5821C852.3 94.5759 852.23 94.5706 852.146 94.5662C851.977 94.5573 851.746 94.5519 851.491 94.5519V94.7519Z" fill="black" mask="url(#path-17-inside-2)"/>
<path d="M767 94.5L764.5 94.5L761 94C760.265 94.0272 751.057 93.6409 744.057 93.557C742.004 93.5144 738 94 738 94L736 94L736.5 94.5L734.5 95.5L736.5 96C751.937 96.2602 741.011 95.9655 759.057 95.8237C768.266 95.8967 768.5 96 768.5 96L767 95L767 94.5Z" fill="#311D00" fill-opacity="0.65" stroke="black" stroke-width="0.1"/>
<path d="M764.164 94.8768C764.165 94.8787 764.166 94.8802 764.167 94.8812C764.166 94.8822 764.165 94.8836 764.164 94.8856C764.158 94.8922 764.147 94.9014 764.127 94.9121C764.089 94.9337 764.029 94.9565 763.946 94.9799C763.78 95.0263 763.533 95.0717 763.212 95.1152C762.571 95.2021 761.642 95.2805 760.493 95.3464C758.194 95.4782 755.018 95.5597 751.509 95.5597C748.001 95.5597 744.825 95.4782 742.526 95.3464C741.377 95.2805 740.448 95.2021 739.807 95.1152C739.486 95.0717 739.239 95.0263 739.073 94.9799C738.989 94.9565 738.929 94.9337 738.891 94.9121C738.872 94.9014 738.861 94.8922 738.855 94.8856C738.853 94.8836 738.852 94.8822 738.852 94.8812C738.852 94.8802 738.853 94.8787 738.855 94.8768C738.861 94.8701 738.872 94.861 738.891 94.8502C738.929 94.8287 738.989 94.8059 739.073 94.7825C739.239 94.736 739.486 94.6907 739.807 94.6472C740.448 94.5603 741.377 94.4819 742.526 94.416C744.825 94.2842 748.001 94.2027 751.509 94.2027C755.018 94.2027 758.194 94.2842 760.493 94.416C761.642 94.4819 762.571 94.5603 763.212 94.6472C763.533 94.6907 763.78 94.736 763.946 94.7825C764.029 94.8059 764.089 94.8287 764.127 94.8502C764.147 94.861 764.158 94.8701 764.164 94.8768Z" fill="#3F2102" fill-opacity="0.13" stroke="black" stroke-width="0.1"/>
<path d="M751.068 94.7999V94.7531L754.797 94.7538C757.218 94.7655 757.185 94.996 754.797 95.0055H751.063V94.9606H751.697V94.7999H751.068Z" fill="#383733" fill-opacity="0.07" stroke="black" stroke-width="0.1"/>
<path d="M753.942 94.928V94.8319C754.502 94.8321 754.706 94.8395 754.681 94.8812C754.67 94.9204 754.481 94.9286 753.942 94.928Z" stroke="black" stroke-width="0.1"/>
<path d="M746.225 94.9647V94.9176L748.644 94.7792L750.722 94.8984L751.689 94.8429V94.8889L748.299 95.0833L747.913 95.0611L748.534 95.0255L746.849 94.9289L746.225 94.9647Z" fill="#3F2102" fill-opacity="0.13" stroke="black" stroke-width="0.1"/>
<path d="M740.952 94.799V94.7534H744.703V94.799H744.052V94.9495L746.225 94.8793V95.0064H740.952V94.9609H741.581V94.799H740.952Z" fill="#383733" fill-opacity="0.07" stroke="black" stroke-width="0.1"/>
<path d="M756.727 94.8002V94.7547H760.478V94.8002H759.827V94.9508L762 94.8806V95.0077H756.727V94.9621H757.356V94.8002H756.727Z" fill="#383733" fill-opacity="0.07" stroke="black" stroke-width="0.1"/>
<mask id="path-26-inside-3" fill="white">
<ellipse cx="748.316" cy="94.6855" rx="1.37342" ry="0.0787349"/>
</mask>
<ellipse cx="748.316" cy="94.6855" rx="1.37342" ry="0.0787349" fill="#3F2102" fill-opacity="0.13"/>
<path d="M749.589 94.6855C749.589 94.6553 749.603 94.634 749.613 94.6233C749.622 94.6131 749.63 94.608 749.633 94.6064C749.639 94.6032 749.641 94.6032 749.634 94.605C749.623 94.6083 749.601 94.6125 749.568 94.617C749.502 94.6259 749.405 94.6342 749.281 94.6413C749.035 94.6554 748.694 94.6642 748.316 94.6642V94.8642C748.696 94.8642 749.042 94.8554 749.293 94.841C749.418 94.8338 749.521 94.8251 749.595 94.8152C749.631 94.8103 749.663 94.8047 749.688 94.7976C749.7 94.7943 749.716 94.7891 749.731 94.7806C749.739 94.7763 749.751 94.7686 749.762 94.7558C749.774 94.7423 749.789 94.7184 749.789 94.6855H749.589ZM748.316 94.6642C747.938 94.6642 747.597 94.6554 747.35 94.6413C747.227 94.6342 747.129 94.6259 747.064 94.617C747.03 94.6125 747.009 94.6083 746.997 94.605C746.991 94.6032 746.993 94.6032 746.999 94.6064C747.002 94.608 747.01 94.6131 747.019 94.6233C747.029 94.634 747.042 94.6553 747.042 94.6855H746.842C746.842 94.7184 746.857 94.7423 746.869 94.7558C746.881 94.7686 746.893 94.7763 746.9 94.7806C746.916 94.7891 746.932 94.7943 746.943 94.7976C746.968 94.8047 747.001 94.8103 747.037 94.8152C747.11 94.8251 747.214 94.8338 747.339 94.841C747.59 94.8554 747.935 94.8642 748.316 94.8642V94.6642ZM747.042 94.6855C747.042 94.7157 747.029 94.7369 747.019 94.7477C747.01 94.7578 747.002 94.7629 746.999 94.7645C746.993 94.7678 746.991 94.7677 746.997 94.7659C747.009 94.7627 747.03 94.7584 747.064 94.7539C747.129 94.745 747.227 94.7367 747.35 94.7296C747.597 94.7155 747.938 94.7067 748.316 94.7067V94.5067C747.935 94.5067 747.59 94.5156 747.339 94.53C747.214 94.5371 747.11 94.5458 747.037 94.5557C747.001 94.5606 746.968 94.5663 746.943 94.5733C746.932 94.5766 746.916 94.5818 746.9 94.5903C746.893 94.5946 746.881 94.6024 746.869 94.6152C746.857 94.6286 746.842 94.6525 746.842 94.6855H747.042ZM748.316 94.7067C748.694 94.7067 749.035 94.7155 749.281 94.7296C749.405 94.7367 749.502 94.745 749.568 94.7539C749.601 94.7584 749.623 94.7627 749.634 94.7659C749.641 94.7677 749.639 94.7678 749.633 94.7645C749.63 94.7629 749.622 94.7578 749.613 94.7477C749.603 94.7369 749.589 94.7157 749.589 94.6855H749.789C749.789 94.6525 749.774 94.6286 749.762 94.6152C749.751 94.6024 749.739 94.5946 749.731 94.5903C749.716 94.5818 749.7 94.5766 749.688 94.5733C749.663 94.5663 749.631 94.5606 749.595 94.5557C749.521 94.5458 749.418 94.5371 749.293 94.53C749.042 94.5156 748.696 94.5067 748.316 94.5067V94.7067Z" fill="black" mask="url(#path-26-inside-3)"/>
<path d="M675.557 93.6409C674.863 93.5671 676.288 93.0214 673.058 93.0533C671.325 93.5092 666.245 93.534 661.802 93.5558L661.557 93.557C660.822 93.5842 651.057 93.6409 644.057 93.557C642.004 93.5144 635.578 93.6917 634.058 93.3051C632.455 93.2887 632.558 93.3414 631.058 93.473C629.378 94.0509 631.057 93.8088 632.301 93.9373C628.465 94.4711 630.515 94.4529 631.801 94.8706C632.557 95.4879 630.057 95.4039 630.301 95.8398C645.738 96.1 641.011 95.9655 659.057 95.8237C668.266 95.8967 665.979 95.9011 670.801 95.8757C673.057 95.8237 670.557 95.152 673.057 95.0681C672.557 94.2286 671.557 93.8928 675.557 93.6409Z" fill="#311D00" fill-opacity="0.65" stroke="black" stroke-width="0.1"/>
<path d="M658.301 94.3321C659.781 94.402 670.976 94.3514 672.557 94.5644L673.057 94.9841C672.046 94.7661 665.801 94.7165 660.801 94.5834C661.998 94.6137 668.975 94.6055 669.977 94.6244C669.475 94.5001 659.978 94.4666 658.301 94.3321Z" fill="#3D3B3B" fill-opacity="0.5" stroke="black" stroke-width="0.1"/>
<path d="M641.801 95.768C638.458 95.7511 632.392 95.8041 630.301 95.8398C645.301 96.091 637.557 95.9672 657.557 95.8237C653.176 95.7728 654.801 95.8565 650.301 95.8039C647.301 95.7512 643.529 95.8339 641.801 95.768Z" fill="#3D3B3B" fill-opacity="0.5" stroke="black" stroke-width="0.1"/>
<path d="M631.174 94.3565C630.125 94.4278 632.486 94.5751 632.146 94.9177C628.325 94.1931 630.77 94.3304 633.593 93.6664C633.61 93.6624 633.628 93.6582 633.646 93.6539C633.629 93.6581 633.611 93.6622 633.593 93.6664C632.986 93.8116 633.369 93.768 633.146 93.8262L638.591 93.5875C638.676 93.5836 638.747 93.5805 638.801 93.5783L638.591 93.5875C637.431 93.6412 633.629 93.8479 632.571 93.9256L639.801 93.9014C630.301 94.0091 633.301 94.3321 637.801 94.6193L631.174 94.3565Z" fill="#3D3B3B" fill-opacity="0.5"/>
<path d="M632.146 94.9177C632.486 94.5751 630.125 94.4278 631.174 94.3565L637.801 94.6193C633.301 94.3321 630.301 94.0091 639.801 93.9014L632.571 93.9256C633.706 93.8422 638 93.6104 638.801 93.5783L633.146 93.8262C633.375 93.7663 632.964 93.8141 633.646 93.6539C630.801 94.3321 628.301 94.1886 632.146 94.9177Z" stroke="black" stroke-width="0.1"/>
<path d="M664.164 94.8768C664.165 94.8787 664.166 94.8802 664.167 94.8812C664.166 94.8822 664.165 94.8836 664.164 94.8856C664.158 94.8922 664.147 94.9014 664.128 94.9121C664.089 94.9337 664.029 94.9565 663.946 94.9799C663.78 95.0263 663.533 95.0717 663.212 95.1152C662.571 95.2021 661.642 95.2805 660.493 95.3464C658.194 95.4782 655.018 95.5597 651.509 95.5597C648.001 95.5597 644.825 95.4782 642.526 95.3464C641.377 95.2805 640.448 95.2021 639.807 95.1152C639.486 95.0717 639.239 95.0263 639.073 94.9799C638.99 94.9565 638.93 94.9337 638.891 94.9121C638.872 94.9014 638.861 94.8922 638.855 94.8856C638.853 94.8836 638.852 94.8822 638.852 94.8812C638.852 94.8802 638.853 94.8787 638.855 94.8768C638.861 94.8701 638.872 94.861 638.891 94.8502C638.93 94.8287 638.99 94.8059 639.073 94.7825C639.239 94.736 639.486 94.6907 639.807 94.6472C640.448 94.5603 641.377 94.4819 642.526 94.416C644.825 94.2842 648.001 94.2027 651.509 94.2027C655.018 94.2027 658.194 94.2842 660.493 94.416C661.642 94.4819 662.571 94.5603 663.212 94.6472C663.533 94.6907 663.78 94.736 663.946 94.7825C664.029 94.8059 664.089 94.8287 664.128 94.8502C664.147 94.861 664.158 94.8701 664.164 94.8768Z" fill="#3F2102" fill-opacity="0.13" stroke="black" stroke-width="0.1"/>
<path d="M651.068 94.7999V94.7531L654.797 94.7538C657.218 94.7655 657.185 94.996 654.797 95.0055H651.063V94.9606H651.697V94.7999H651.068Z" fill="#383733" fill-opacity="0.07" stroke="black" stroke-width="0.1"/>
<path d="M653.942 94.928V94.8319C654.502 94.8321 654.706 94.8395 654.681 94.8812C654.67 94.9204 654.481 94.9286 653.942 94.928Z" stroke="black" stroke-width="0.1"/>
<path d="M646.225 94.9647V94.9176L648.644 94.7792L650.722 94.8984L651.689 94.8429V94.8889L648.299 95.0833L647.913 95.0611L648.534 95.0255L646.849 94.9289L646.225 94.9647Z" fill="#3F2102" fill-opacity="0.13" stroke="black" stroke-width="0.1"/>
<path d="M640.952 94.799V94.7534H644.703V94.799H644.052V94.9495L646.225 94.8793V95.0064H640.952V94.9609H641.581V94.799H640.952Z" fill="#383733" fill-opacity="0.07" stroke="black" stroke-width="0.1"/>
<path d="M656.727 94.8002V94.7547H660.478V94.8002H659.827V94.9508L662 94.8806V95.0077H656.727V94.9621H657.356V94.8002H656.727Z" fill="#383733" fill-opacity="0.07" stroke="black" stroke-width="0.1"/>
<mask id="path-39-inside-4" fill="white">
<ellipse cx="648.316" cy="94.6855" rx="1.37342" ry="0.0787349"/>
</mask>
<ellipse cx="648.316" cy="94.6855" rx="1.37342" ry="0.0787349" fill="#3F2102" fill-opacity="0.13"/>
<path d="M649.589 94.6855C649.589 94.6553 649.603 94.634 649.613 94.6233C649.622 94.6131 649.63 94.608 649.633 94.6064C649.639 94.6032 649.641 94.6032 649.634 94.605C649.623 94.6083 649.601 94.6125 649.568 94.617C649.502 94.6259 649.405 94.6342 649.281 94.6413C649.035 94.6554 648.694 94.6642 648.316 94.6642V94.8642C648.696 94.8642 649.042 94.8554 649.293 94.841C649.418 94.8338 649.522 94.8251 649.595 94.8152C649.631 94.8103 649.663 94.8047 649.688 94.7976C649.7 94.7943 649.716 94.7891 649.731 94.7806C649.739 94.7763 649.751 94.7686 649.762 94.7558C649.774 94.7423 649.789 94.7184 649.789 94.6855H649.589ZM648.316 94.6642C647.938 94.6642 647.597 94.6554 647.35 94.6413C647.227 94.6342 647.13 94.6259 647.064 94.617C647.03 94.6125 647.009 94.6083 646.997 94.605C646.991 94.6032 646.993 94.6032 646.999 94.6064C647.002 94.608 647.01 94.6131 647.019 94.6233C647.029 94.634 647.043 94.6553 647.043 94.6855H646.843C646.843 94.7184 646.858 94.7423 646.869 94.7558C646.881 94.7686 646.893 94.7763 646.9 94.7806C646.916 94.7891 646.932 94.7943 646.943 94.7976C646.969 94.8047 647.001 94.8103 647.037 94.8152C647.11 94.8251 647.214 94.8338 647.339 94.841C647.59 94.8554 647.935 94.8642 648.316 94.8642V94.6642ZM647.043 94.6855C647.043 94.7157 647.029 94.7369 647.019 94.7477C647.01 94.7578 647.002 94.7629 646.999 94.7645C646.993 94.7678 646.991 94.7677 646.997 94.7659C647.009 94.7627 647.03 94.7584 647.064 94.7539C647.13 94.745 647.227 94.7367 647.35 94.7296C647.597 94.7155 647.938 94.7067 648.316 94.7067V94.5067C647.935 94.5067 647.59 94.5156 647.339 94.53C647.214 94.5371 647.11 94.5458 647.037 94.5557C647.001 94.5606 646.969 94.5663 646.943 94.5733C646.932 94.5766 646.916 94.5818 646.9 94.5903C646.893 94.5946 646.881 94.6024 646.869 94.6152C646.858 94.6286 646.843 94.6525 646.843 94.6855H647.043ZM648.316 94.7067C648.694 94.7067 649.035 94.7155 649.281 94.7296C649.405 94.7367 649.502 94.745 649.568 94.7539C649.601 94.7584 649.623 94.7627 649.634 94.7659C649.641 94.7677 649.639 94.7678 649.633 94.7645C649.63 94.7629 649.622 94.7578 649.613 94.7477C649.603 94.7369 649.589 94.7157 649.589 94.6855H649.789C649.789 94.6525 649.774 94.6286 649.762 94.6152C649.751 94.6024 649.739 94.5946 649.731 94.5903C649.716 94.5818 649.7 94.5766 649.688 94.5733C649.663 94.5663 649.631 94.5606 649.595 94.5557C649.522 94.5458 649.418 94.5371 649.293 94.53C649.042 94.5156 648.696 94.5067 648.316 94.5067V94.7067Z" fill="black" mask="url(#path-39-inside-4)"/>
<path d="M575.5 81.5C574.805 81.06 576.231 77.8098 573 78C571.236 80.765 566 80.8679 561.5 81C560.765 81.1619 551 81.5 544 81C541.947 80.7464 535.52 81.8026 534 79.5C532.398 79.4024 532.5 79.7159 531 80.5C529.321 83.9415 531 82.5 532.244 83.265C528.407 86.4445 530.457 86.3357 531.744 88.8236C532.5 92.5 530 92 530.244 94.5959C545.681 96.1457 540.953 95.345 559 94.5C568.208 94.9351 565.921 94.9613 570.744 94.8097C573 94.5 570.5 90.5 573 90C572.5 85 571.5 83 575.5 81.5Z" fill="#311D00" fill-opacity="0.65" stroke="black" stroke-width="0.1"/>
<path d="M537 81C537 81 534.5 80.5 534 79.5C534.5 80.2912 539.5 80.5 543 80.5C550.5 81 560.5 80.6319 561.5 80.5C567.247 80.7307 571.762 79.8734 572.917 78.1377C572.944 78.0925 572.972 78.0466 573 78C572.974 78.0465 572.947 78.0924 572.917 78.1377C569.974 82.9401 568.571 79.7897 563.348 83.5637L564.347 82.5088L560.848 83.8274L567.5 80.5C556.629 81.5707 549 81.5 537 81Z" fill="#3D3B3B" fill-opacity="0.5"/>
<path d="M534 79.5C534.5 80.5 537 81 537 81C549 81.5 556.629 81.5707 567.5 80.5L560.848 83.8274L564.347 82.5088L563.348 83.5637C568.62 79.7542 570 83 573 78C571.997 79.828 567.397 80.7367 561.5 80.5C560.5 80.6319 550.5 81 543 80.5C539.5 80.5 534.5 80.2912 534 79.5Z" stroke="black" stroke-width="0.1"/>
<path d="M561.5 84.7985C562.555 84.1581 571 84 573 83L572.5 84.5C571.727 84.9372 563.227 84.3286 561.5 84.7985Z" fill="#3D3B3B" fill-opacity="0.5" stroke="black" stroke-width="0.1"/>
<path d="M558.244 85.6167C559.724 86.033 570.918 85.7315 572.5 87L573 89.5C571.989 88.2011 565.744 87.9061 560.744 87.1132C561.941 87.2939 568.918 87.2445 569.92 87.3571C569.418 86.6173 559.92 86.4173 558.244 85.6167Z" fill="#3D3B3B" fill-opacity="0.5" stroke="black" stroke-width="0.1"/>
<path d="M541.744 94.1684C538.401 94.0679 532.335 94.3833 530.244 94.5959C545.244 96.0925 537.5 95.3552 557.5 94.5C553.119 94.1969 554.744 94.6958 550.244 94.3822C547.244 94.0685 543.471 94.5611 541.744 94.1684Z" fill="#3D3B3B" fill-opacity="0.5" stroke="black" stroke-width="0.1"/>
<path d="M531.117 85.7621C530.068 86.1866 532.428 87.0635 532.089 89.1041C528.268 84.7885 530.713 85.6063 533.536 81.6515C533.553 81.6276 533.57 81.6027 533.589 81.5769C533.571 81.602 533.554 81.6269 533.536 81.6515C532.928 82.5164 533.312 82.2565 533.088 82.6031L538.534 81.1818C538.619 81.1585 538.689 81.14 538.744 81.1271L538.534 81.1818C537.373 81.5015 533.572 82.7325 532.513 83.1956L539.744 83.0512C530.244 83.6926 533.244 85.6167 537.744 87.327L531.117 85.7621Z" fill="#3D3B3B" fill-opacity="0.5"/>
<path d="M532.089 89.1041C532.428 87.0635 530.068 86.1866 531.117 85.7621L537.744 87.327C533.244 85.6167 530.244 83.6926 539.744 83.0512L532.513 83.1956C533.649 82.6987 537.942 81.3179 538.744 81.1271L533.088 82.6031C533.318 82.2469 532.906 82.5313 533.589 81.5769C530.744 85.6167 528.244 84.7615 532.089 89.1041Z" stroke="black" stroke-width="0.1"/>
<path d="M532.698 80.3168C531.897 81.8642 536.698 81.8168 537 84" stroke="black" stroke-width="0.1"/>
<path d="M566.952 83.1939C568.58 82.3461 569.526 81.7584 571.371 80.1884" stroke="black" stroke-width="0.1"/>
<path d="M564.11 88.8868C564.11 89.4645 563.767 90.0224 563.13 90.5369C562.493 91.0509 561.569 91.5161 560.422 91.9077C558.129 92.6907 554.957 93.1759 551.452 93.1759C547.947 93.1759 544.775 92.6907 542.482 91.9077C541.335 91.5161 540.411 91.0509 539.774 90.5369C539.137 90.0224 538.794 89.4645 538.794 88.8868C538.794 88.3091 539.137 87.7512 539.774 87.2367C540.411 86.7227 541.335 86.2575 542.482 85.8659C544.775 85.0829 547.947 84.5977 551.452 84.5977C554.957 84.5977 558.129 85.0829 560.422 85.8659C561.569 86.2575 562.493 86.7227 563.13 87.2367C563.767 87.7512 564.11 88.3091 564.11 88.8868Z" fill="#3F2102" fill-opacity="0.13" stroke="black" stroke-width="0.1"/>
<path d="M551.011 88.4029V88.1241L554.739 88.1279C557.161 88.1976 557.128 89.5705 554.739 89.627H551.005V89.3596H551.639V88.4029H551.011Z" fill="#383733" fill-opacity="0.07" stroke="black" stroke-width="0.1"/>
<path d="M553.884 89.1655V88.593C554.444 88.5944 554.648 88.6384 554.624 88.8868C554.612 89.1201 554.424 89.1691 553.884 89.1655Z" stroke="black" stroke-width="0.1"/>
<path d="M546.168 89.384V89.1034L548.587 88.2795L550.665 88.989L551.631 88.6589V88.933L548.242 90.0902L547.856 89.9584L548.476 89.7465L546.791 89.1712L546.168 89.384Z" fill="#3F2102" fill-opacity="0.13" stroke="black" stroke-width="0.1"/>
<path d="M540.895 88.3971V88.126H544.646V88.3971H543.995V89.2936L546.168 88.8755V89.6326H540.895V89.3614H541.524V88.3971H540.895Z" fill="#383733" fill-opacity="0.07" stroke="black" stroke-width="0.1"/>
<path d="M556.67 88.4047V88.1335H560.421V88.4047H559.77V89.3011L561.943 88.8831V89.6401H556.67V89.3689H557.299V88.4047H556.67Z" fill="#383733" fill-opacity="0.07" stroke="black" stroke-width="0.1"/>
<path d="M549.582 87.721C549.582 87.7644 549.556 87.8133 549.493 87.8647C549.429 87.9157 549.335 87.9639 549.213 88.0053C548.971 88.088 548.634 88.14 548.258 88.14C547.883 88.14 547.546 88.088 547.303 88.0053C547.182 87.9639 547.088 87.9157 547.024 87.8647C546.961 87.8133 546.935 87.7644 546.935 87.721C546.935 87.6777 546.961 87.6288 547.024 87.5774C547.088 87.5264 547.182 87.4782 547.303 87.4368C547.546 87.3541 547.883 87.3021 548.258 87.3021C548.634 87.3021 548.971 87.3541 549.213 87.4368C549.335 87.4782 549.429 87.5264 549.493 87.5774C549.556 87.6288 549.582 87.6777 549.582 87.721Z" fill="#3F2102" fill-opacity="0.13" stroke="black" stroke-width="0.1"/>
<path d="M472 61.5357C471.305 60.6595 471.731 59.0281 468.5 59.4068C466.736 64.9135 465.604 62.9124 461.104 63.1756C460.368 63.498 449.876 64.5929 443.116 62.5466C441.063 62.0416 440.52 64.4183 439 59.8326C437.397 59.6382 435 56.9937 433.5 58.5553C431.821 65.4093 435.364 62.4221 431.5 70.4771C427.664 76.8094 429.713 76.5926 431 81.5474C429.146 84.514 431.591 84.4999 429.5 93.0435C444.937 96.13 437.953 96.4294 456 94.7466C465.208 95.6131 465.177 93.7711 470 93.4693C472.375 88.955 468.591 88.9711 471.5 81.9732C471.091 70.8571 467.091 73.8281 472 61.5357Z" fill="#311D00" fill-opacity="0.59" stroke="black" stroke-width="0.1"/>
<path d="M438 62.3873C438 62.3873 438.5 61.9336 439 59.8326C439.5 61.4084 439.5 63.6647 442.603 62.4048C450.103 64.7686 460.103 63.4558 461.103 63.1932C467 63.6647 467.497 63.0474 468.5 59.4069C467.602 68.3763 467.877 63.4852 462.604 71.072L463.604 68.9711L460.104 71.5972L466.41 64.5198C455.539 66.6522 449.194 66.6064 437.473 64.4775C437.152 63.4416 437.738 63.6985 438 62.3873Z" fill="#3D3B3B" fill-opacity="0.5" stroke="black" stroke-width="0.1"/>
<path d="M459.5 74.3092C460.555 73.0338 467.862 72.6099 469.5 69.7316L469.5 72.1803C468.727 73.0509 461.227 73.3733 459.5 74.3092Z" fill="#3D3B3B" fill-opacity="0.5" stroke="black" stroke-width="0.1"/>
<path d="M457.5 75.1607C458.98 75.9898 469.592 75.8764 471.174 78.4027L471.5 80.6959C470.489 78.109 465 79.7203 460 78.1412C461.197 78.5011 468.174 78.4027 469.176 78.6269C468.674 77.1534 459.176 76.7553 457.5 75.1607Z" fill="#3D3B3B" fill-opacity="0.5" stroke="black" stroke-width="0.1"/>
<path d="M441 92.192C437.657 91.9919 431.591 92.62 429.5 93.0435C444.5 96.024 437 96.4498 457 94.7466C452.619 94.143 454 93.2424 449.5 92.6177C446.5 91.9931 442.727 92.9741 441 92.192Z" fill="#3D3B3B" fill-opacity="0.5" stroke="black" stroke-width="0.1"/>
<path d="M430.373 75.4502C429.324 76.2958 431.685 78.0422 431.345 82.1062C427.524 73.5113 429.969 75.14 432.792 67.2639C432.809 67.2161 432.827 67.1666 432.845 67.1153C432.827 67.1652 432.81 67.2147 432.792 67.2639C432.184 68.9863 432.568 68.4687 432.344 69.159L437.79 66.3284C437.875 66.2819 437.946 66.2452 438 66.2193L437.79 66.3284C436.629 66.965 432.828 69.4166 431.77 70.339L439 70.0514C429.5 71.3287 432.5 75.1607 437 78.567L430.373 75.4502Z" fill="#3D3B3B" fill-opacity="0.5"/>
<path d="M431.345 82.1062C431.685 78.0422 429.324 76.2958 430.373 75.4502L437 78.567C432.5 75.1607 429.5 71.3287 439 70.0514L431.77 70.339C432.905 69.3493 437.198 66.5994 438 66.2193L432.344 69.159C432.574 68.4495 432.163 69.016 432.845 67.1153C430 75.1607 427.5 73.4576 431.345 82.1062Z" stroke="black" stroke-width="0.1"/>
<path d="M443.207 64.7395C454.899 64.9718 457.947 64.6906 460.521 64.1583C463.387 63.9277 465.758 63.7851 467.168 62.4023C467.648 61.7643 468.066 60.8189 468.502 59.2436C468.335 60.7147 467.871 61.7127 467.168 62.4023C466.206 63.6811 464.997 63.7253 462.897 65.1336C453.519 66.4773 449.321 66.2894 443.207 64.7395Z" fill="#D9D9D9" fill-opacity="0.5"/>
<path d="M443.207 64.7395C454.899 64.9718 457.947 64.6906 460.521 64.1583C464.817 63.8128 468 63.6647 468.502 59.2436C467.192 63.9765 466.044 63.0228 462.897 65.1336C453.519 66.4773 449.321 66.2894 443.207 64.7395Z" stroke="black" stroke-width="0.1"/>
<path d="M435.497 63.0169C435.089 66.5317 435.498 68.3033 436.705 71.3121" stroke="black" stroke-width="0.1"/>
<path d="M435.562 58.1854L434.968 59.4037" stroke="black" stroke-width="0.1"/>
<path d="M436.534 58.7236L436.045 60.3915" stroke="black" stroke-width="0.1"/>
<path d="M471.303 60.0427C471.303 60.0427 470.976 60.5843 470.461 61.6466" stroke="black" stroke-width="0.1"/>
<path d="M466.209 70.3356C467.836 68.6472 468.783 67.4766 470.627 64.35" stroke="black" stroke-width="0.1"/>
<path d="M463.367 81.6734C463.367 84.0382 461.957 86.1849 459.666 87.7425C457.376 89.3 454.209 90.2649 450.708 90.2649C447.208 90.2649 444.041 89.3 441.75 87.7425C439.46 86.1849 438.05 84.0382 438.05 81.6734C438.05 79.3085 439.46 77.1619 441.75 75.6042C444.041 74.0467 447.208 73.0818 450.708 73.0818C454.209 73.0818 457.376 74.0467 459.666 75.6042C461.957 77.1619 463.367 79.3085 463.367 81.6734Z" fill="#3F2102" fill-opacity="0.13" stroke="black" stroke-width="0.1"/>
<path d="M450.267 80.7096V80.1545L453.996 80.162C456.417 80.3007 456.384 83.035 453.996 83.1475H450.261V82.6149H450.896V80.7096H450.267Z" fill="#383733" fill-opacity="0.07" stroke="black" stroke-width="0.1"/>
<path d="M453.141 82.2284V81.0882C453.701 81.091 453.905 81.1787 453.88 81.6733C453.869 82.1381 453.68 82.2356 453.141 82.2284Z" stroke="black" stroke-width="0.1"/>
<path d="M445.424 82.6636V82.1047L447.843 80.4638L449.921 81.8768L450.888 81.2195V81.7653L447.498 84.0701L447.112 83.8075L447.733 83.3856L446.048 82.2397L445.424 82.6636Z" fill="#3F2102" fill-opacity="0.13" stroke="black" stroke-width="0.1"/>
<path d="M440.151 80.6982V80.1581H443.902V80.6982H443.251V82.4835L445.424 81.6508V83.1586H440.151V82.6185H440.78V80.6982H440.151Z" fill="#383733" fill-opacity="0.07" stroke="black" stroke-width="0.1"/>
<path d="M455.926 80.7132V80.1731H459.677V80.7132H459.026V82.4985L461.199 81.6659V83.1737H455.926V82.6336H456.555V80.7132H455.926Z" fill="#383733" fill-opacity="0.07" stroke="black" stroke-width="0.1"/>
<path d="M448.838 79.3517C448.838 79.5881 448.697 79.8079 448.458 79.9707C448.219 80.1334 447.885 80.2356 447.515 80.2356C447.144 80.2356 446.811 80.1334 446.572 79.9707C446.332 79.8079 446.191 79.5881 446.191 79.3517C446.191 79.1152 446.332 78.8955 446.572 78.7326C446.811 78.57 447.144 78.4678 447.515 78.4678C447.885 78.4678 448.219 78.57 448.458 78.7326C448.697 78.8955 448.838 79.1152 448.838 79.3517Z" fill="#3F2102" fill-opacity="0.13" stroke="black" stroke-width="0.1"/>
<path d="M373.695 50.529C373.028 50.1899 373.335 47.3275 370.104 47.7723C368.339 54.2388 365.604 56.1166 361.104 56.4257C360.368 56.8044 349.876 58.0901 343.116 55.687C341.063 55.094 340.124 52.8482 338.604 47.4632C337.001 47.2349 334.695 47.595 333.195 49.4288C331.516 57.4776 333.058 53.9062 329.195 63.3653C325.358 70.8014 327.908 71.4833 329.195 77.3018C327.341 80.7855 329.195 83.1698 327.104 93.2027C342.541 96.8273 337.148 96.5152 355.195 94.5391C364.403 95.5566 365.372 94.1601 370.195 93.8056C372.57 88.5043 371.195 87.204 374.104 78.9864C373.695 65.9325 368.786 64.9641 373.695 50.529Z" fill="#402600" fill-opacity="0.5" stroke="black" stroke-width="0.1"/>
<path d="M337.427 54.3849C338.702 50.2142 338.104 49.9356 338.604 47.4632C339.104 49.3175 340.104 54.5714 342.604 55.4985C350.104 58.28 360.104 56.7347 361.104 56.4257C367.104 56.1166 369.1 52.0563 370.104 47.7723C369.205 58.3272 367.878 56.769 362.604 65.6972L363.604 63.2248L360.104 66.3153L366.411 57.9865C355.54 60.4963 349.194 60.4427 337.474 57.9379C337.153 56.7188 337.165 55.9279 337.427 54.3849Z" fill="#3D3B3B" fill-opacity="0.5" stroke="black" stroke-width="0.1"/>
<path d="M364.195 68.4998C365.25 67.0021 370.057 67.8455 371.695 64.4655L372.195 67.0328C371.422 68.0552 365.922 67.4008 364.195 68.4998Z" fill="#3D3B3B" fill-opacity="0.5" stroke="black" stroke-width="0.1"/>
<path d="M367.195 71.8005C368.675 72.7741 372.113 72.1347 373.695 75.1013L374.195 78.7688C373.183 75.731 371.695 76.5888 366.695 74.7345C367.892 75.1571 370.695 75.1013 371.697 75.3646C371.195 73.6343 368.871 73.673 367.195 71.8005Z" fill="#3D3B3B" fill-opacity="0.5" stroke="black" stroke-width="0.1"/>
<path d="M338.104 93.5117C334.761 93.2768 329.195 92.7053 327.104 93.2027C342.604 96.2932 335.195 97.0115 355.195 94.5391C350.814 93.8302 348.195 94.9058 343.695 94.1723C340.695 93.4388 339.831 94.4302 338.104 93.5117Z" fill="#3D3B3B" fill-opacity="0.5" stroke="black" stroke-width="0.1"/>
<path d="M328.223 69.4856C327.174 70.4785 329.534 72.5294 329.195 77.3018C325.695 67.3995 327.195 68.8665 330.695 59.6978C330.012 61.9298 330.424 61.2646 330.194 62.0978L332.068 61.4954C331.266 61.9416 330.755 62.3213 329.619 63.4834L331.479 63.198C328.323 65.0761 329.974 68.1794 331.474 73.1242L328.223 69.4856Z" fill="#3D3B3B" fill-opacity="0.5" stroke="black" stroke-width="0.1"/>
<path d="M361.554 56.4451C358.821 57.397 355.592 57.9125 343.236 57.5921C349.666 60.2632 354.099 60.5613 364.044 58.1367C367.419 54.4139 368.611 56.0769 370.104 47.7723C368.372 53.8779 366.104 55.8076 361.554 56.4451Z" fill="#D9D9D9" fill-opacity="0.5" stroke="black" stroke-width="0.1"/>
<path d="M335.562 54.7972C335.126 59.5381 335.522 61.9261 336.705 65.9805" stroke="black" stroke-width="0.1"/>
<path d="M333.499 49.2069C332.9 56.6202 332.892 54.0637 331.602 60.7558" stroke="black" stroke-width="0.1"/>
<path d="M335.685 47.823L334.968 51.9963" stroke="black" stroke-width="0.1"/>
<path d="M336.695 47.595L336.045 53.1563" stroke="black" stroke-width="0.1"/>
<path d="M372.559 48.4786C372.559 48.4786 371.748 50.5565 370.461 54.6301" stroke="black" stroke-width="0.1"/>
<path d="M371.773 57.9037L370.81 60.5988" stroke="black" stroke-width="0.1"/>
<path d="M366.209 64.8338C367.836 62.8511 368.783 61.4764 370.627 57.8048" stroke="black" stroke-width="0.1"/>
<path d="M363.367 78.1479C363.367 83.7149 357.71 88.2458 350.708 88.2458C343.706 88.2458 338.05 83.7149 338.05 78.1479C338.05 72.5809 343.706 68.05 350.708 68.05C357.71 68.05 363.367 72.5809 363.367 78.1479Z" fill="#3F2102" fill-opacity="0.32" stroke="black" stroke-width="0.1"/>
<path d="M362.528 78.1303C362.528 83.3373 357.237 87.5763 350.686 87.5763C344.135 87.5763 338.844 83.3373 338.844 78.1303C338.844 72.9233 344.135 68.6843 350.686 68.6843C357.237 68.6843 362.528 72.9233 362.528 78.1303Z" fill="#F5E76D" fill-opacity="0.16" stroke="black" stroke-width="0.1"/>
<path d="M350.267 77.0161V76.3642L353.996 76.373C356.417 76.536 356.384 79.7469 353.996 79.879H350.261V79.2536H350.896V77.0161H350.267Z" fill="#383733" fill-opacity="0.33" stroke="black" stroke-width="0.1"/>
<path d="M353.141 78.7997V77.4607C353.701 77.464 353.905 77.567 353.88 78.1478C353.869 78.6936 353.68 78.8081 353.141 78.7997Z" fill="#F5E76D" fill-opacity="0.16" stroke="black" stroke-width="0.1"/>
<path d="M345.424 79.3107V78.6544L347.843 76.7275L349.921 78.3868L350.888 77.615V78.2558L347.498 80.9623L347.112 80.654L347.733 80.1585L346.048 78.813L345.424 79.3107Z" fill="#3F2102" fill-opacity="0.32" stroke="black" stroke-width="0.1"/>
<path d="M340.151 77.0027V76.3684H343.902V77.0027H343.251V79.0992L345.424 78.1214V79.892H340.151V79.2578H340.78V77.0027H340.151Z" fill="#383733" fill-opacity="0.33" stroke="black" stroke-width="0.1"/>
<path d="M355.926 77.0204V76.3861H359.677V77.0204H359.026V79.1169L361.199 78.1391V79.9097H355.926V79.2755H356.555V77.0204H355.926Z" fill="#383733" fill-opacity="0.33" stroke="black" stroke-width="0.1"/>
<path d="M348.838 75.4215C348.838 75.9897 348.257 76.4682 347.515 76.4682C346.773 76.4682 346.191 75.9897 346.191 75.4215C346.191 74.8533 346.773 74.3748 347.515 74.3748C348.257 74.3748 348.838 74.8533 348.838 75.4215Z" fill="#3F2102" fill-opacity="0.32" stroke="black" stroke-width="0.1"/>
<path d="M274 33.5C273.333 33.0376 273.64 29.1352 270.409 29.7416C268.645 38.5576 265.909 41.1177 261.409 41.5391C260.674 42.0553 250.181 43.8082 243.421 40.5321C241.368 39.7236 240.429 36.6619 238.909 29.3203C237.307 29.0091 235 29.5 233.5 32C231.821 42.9731 233.364 38.1041 229.5 51C225.664 61.1378 228.213 62.0675 229.5 70C227.646 74.7494 229.5 78 227.409 91.6781C242.846 96.6196 237.453 96.1942 255.5 93.5C264.708 94.8872 265.678 92.9833 270.5 92.5C272.875 85.2727 271.5 83.5 274.409 72.2966C274 54.5 269.091 53.1797 274 33.5Z" fill="#2D271E" fill-opacity="0.4" stroke="black" stroke-width="0.1"/>
<path d="M237.732 38.7569C239.008 33.0709 238.409 32.691 238.909 29.3203C239.409 31.8483 240.409 39.011 242.909 40.275C250.409 44.0671 260.409 41.9604 261.409 41.539C267.409 41.1177 269.406 35.5822 270.409 29.7416C269.51 44.1315 268.183 42.0071 262.909 54.1791L263.909 50.8085L260.409 55.0218L266.717 43.667C255.845 47.0886 249.5 47.0155 237.779 43.6007C237.458 41.9387 237.471 40.8604 237.732 38.7569Z" fill="#3D3B3B" fill-opacity="0.5" stroke="black" stroke-width="0.1"/>
<path d="M264.5 58C265.555 55.9582 270.362 57.1081 272 52.5L272.5 56C271.727 57.3939 266.227 56.5018 264.5 58Z" fill="#3D3B3B" fill-opacity="0.5" stroke="black" stroke-width="0.1"/>
<path d="M267.5 62.5C268.98 63.8273 272.418 62.9556 274 67L274.5 72C273.489 67.8585 272 69.028 267 66.5C268.197 67.0762 271 67 272.002 67.359C271.5 65 269.176 65.0528 267.5 62.5Z" fill="#3D3B3B" fill-opacity="0.5" stroke="black" stroke-width="0.1"/>
<path d="M238.409 92.0994C235.066 91.7791 229.5 91 227.409 91.6781C242.909 95.8914 235.5 96.8707 255.5 93.5C251.119 92.5335 248.5 94 244 93C241 92 240.137 93.3516 238.409 92.0994Z" fill="#3D3B3B" fill-opacity="0.5" stroke="black" stroke-width="0.1"/>
<path d="M228.528 59.344C227.479 60.6977 229.84 63.4938 229.5 70C226 56.5 227.5 58.5 231 46C230.318 49.043 230.729 48.1361 230.499 49.272L232.373 48.4507C231.572 49.0591 231.06 49.5767 229.924 51.1611L231.784 50.7719C228.628 53.3324 230.279 57.5632 231.779 64.3046L228.528 59.344Z" fill="#3D3B3B" fill-opacity="0.5" stroke="black" stroke-width="0.1"/>
<path d="M261.86 41.5655C259.126 42.8633 255.897 43.5661 243.542 43.1293C249.971 46.7708 254.404 47.1773 264.35 43.8717C267.724 38.7964 268.916 41.0636 270.409 29.7416C268.677 38.0656 266.409 40.6964 261.86 41.5655Z" fill="#D9D9D9" fill-opacity="0.5" stroke="black" stroke-width="0.1"/>
<path d="M235.867 39.3189C235.432 45.7823 235.827 49.0379 237.011 54.5654" stroke="black" stroke-width="0.1"/>
<path d="M233.804 31.6975C233.205 41.8043 233.198 38.319 231.907 47.4424" stroke="black" stroke-width="0.1"/>
<path d="M235.99 29.8108L235.274 35.5004" stroke="black" stroke-width="0.1"/>
<path d="M237 29.5L236.35 37.0818" stroke="black" stroke-width="0.1"/>
<path d="M272.864 30.7047C272.864 30.7047 272.054 33.5374 270.766 39.0912" stroke="black" stroke-width="0.1"/>
<path d="M272.078 43.5542L271.116 47.2284" stroke="black" stroke-width="0.1"/>
<path d="M266.514 53.0021C268.142 50.2989 269.088 48.4249 270.932 43.4193" stroke="black" stroke-width="0.1"/>
<circle cx="250.456" cy="70.4216" r="14.5168" fill="#653A0C" fill-opacity="0.71" stroke="black" stroke-width="0.1"/>
<circle cx="250.43" cy="70.3963" r="13.5811" fill="#F5E76D" fill-opacity="0.53" stroke="black" stroke-width="0.1"/>
<path d="M249.95 68.7969V67.8612L254.224 67.8739C256.999 68.1078 256.961 72.7168 254.224 72.9065H249.943V72.0087H250.67V68.7969H249.95Z" fill="#383733" fill-opacity="0.62" stroke="black" stroke-width="0.1"/>
<path d="M253.244 71.3572V69.4352C253.886 69.4398 254.119 69.5878 254.091 70.4215C254.078 71.2049 253.862 71.3692 253.244 71.3572Z" fill="#F5E76D" fill-opacity="0.53" stroke="black" stroke-width="0.1"/>
<path d="M244.399 72.0907V71.1487L247.171 68.3826L249.553 70.7646L250.661 69.6566V70.5765L246.776 74.4616L246.333 74.019L247.045 73.3078L245.113 71.3763L244.399 72.0907Z" fill="#653A0C" fill-opacity="0.71" stroke="black" stroke-width="0.1"/>
<path d="M238.354 68.7777V67.8673H242.654V68.7777H241.908V71.7872L244.399 70.3836V72.9252H238.354V72.0148H239.075V68.7777H238.354Z" fill="#383733" fill-opacity="0.62" stroke="black" stroke-width="0.1"/>
<path d="M256.437 68.8031V67.8927H260.736V68.8031H259.99V71.8126L262.481 70.409V72.9506H256.437V72.0402H257.157V68.8031H256.437Z" fill="#383733" fill-opacity="0.62" stroke="black" stroke-width="0.1"/>
<circle cx="246.795" cy="66.508" r="1.52428" fill="#653A0C" fill-opacity="0.71" stroke="black" stroke-width="0.1"/>
<path d="M174.5 16C173.833 15.4513 173.231 15.7804 170 16.5C168.236 26.9619 165.5 30 161 30.5C160.265 31.1127 149.772 33.1928 143.012 29.305C140.959 28.3456 140.02 24.7122 138.5 16C136.897 15.6307 133.598 14.5495 132 15C130.321 28.0218 131.864 25.6965 128 41C124.164 53.0306 126.213 55.5865 127.5 65C125.646 70.6361 124.72 74.7008 127 90C142.437 95.8641 138.146 97.9276 156.193 94.7304C165.401 96.3766 168.177 94.5735 173 94C175.375 85.4234 174.883 82.1412 174 67C172.5 41.5 175.045 40.1003 174.5 16Z" fill="#001738" fill-opacity="0.4" stroke="black" stroke-width="0.1"/>
<path d="M137.323 27.1984C138.599 20.4508 138 20 138.5 16C139 19 140 27.5 142.5 29C150 33.5 160 31 161 30.5C167 30 168.997 23.431 170 16.5C169.101 33.5765 167.774 31.0554 162.5 45.5L163.5 41.5L160 46.5L166.307 33.0253C155.436 37.0856 149.09 36.9989 137.37 32.9465C137.049 30.9743 137.062 29.6947 137.323 27.1984Z" fill="#3D3B3B" fill-opacity="0.5" stroke="black" stroke-width="0.1"/>
<path d="M168.5 53.5C169.555 51.077 171.862 50.9684 173.5 45.5L173.406 50.2176C172.633 51.8717 170.227 51.7221 168.5 53.5Z" fill="#3D3B3B" fill-opacity="0.5" stroke="black" stroke-width="0.1"/>
<path d="M167.5 54.5C168.98 56.0751 171.918 57.7005 173.5 62.5L174 70C172.989 65.0853 173 62.5 168 59.5C169.197 60.1837 171.359 60.3464 171.593 61.1405C171.601 58.5955 169.176 57.5294 167.5 54.5Z" fill="#3D3B3B" fill-opacity="0.5" stroke="black" stroke-width="0.1"/>
<path d="M138 90.5C134.657 90.1199 130.376 90.1219 127 90C142.5 95 136.5 98.5 156.5 94.5C152.119 93.3531 152.209 93.972 143 93C141.103 92.1303 139.727 91.986 138 90.5Z" fill="#3D3B3B" fill-opacity="0.5" stroke="black" stroke-width="0.1"/>
<path d="M127.249 50.6133C126.199 52.2197 127.34 54.279 127 62C125 49.5 126 48 130 32.5C129.318 36.1111 129.449 37.3129 129.22 38.6608L131.094 37.6862C130.292 38.4082 129.78 39.0224 128.645 40.9026L130.505 40.4408C127.349 43.4793 129 48.5 130.5 56.5L127.249 50.6133Z" fill="#3D3B3B" fill-opacity="0.5" stroke="black" stroke-width="0.1"/>
<path d="M161.45 30.5314C158.717 32.0715 155.488 32.9055 143.132 32.3871C149.562 36.7085 153.995 37.1909 163.94 33.2682C167.315 27.2453 168.507 29.9358 170 16.5C168.268 26.3781 166 29.5 161.45 30.5314Z" fill="#D9D9D9" fill-opacity="0.5" stroke="black" stroke-width="0.1"/>
<path d="M135.458 27.8654C135.022 35.5354 135.418 39.3989 136.601 45.9584" stroke="black" stroke-width="0.1"/>
<path d="M131.491 19.1358C131.255 28.5972 131.856 29.5398 131 37" stroke="black" stroke-width="0.1"/>
<path d="M133.5 15C132.834 29.443 132.85 24.4636 131.498 37.5055" stroke="black" stroke-width="0.1"/>
<path d="M135.5 15.5C135.5 15.5 135.016 15.7727 134.864 23.3339" stroke="black" stroke-width="0.1"/>
<path d="M136.5 15.5L135.941 25.2106" stroke="black" stroke-width="0.1"/>
<path d="M172.5 16C172.5 16 171.675 19.917 170.357 27.5951" stroke="black" stroke-width="0.1"/>
<path d="M174 16C172.207 33.7394 172.277 29.1004 170.707 37.2515" stroke="black" stroke-width="0.1"/>
<path d="M166.105 44.1032C167.733 40.8954 168.679 38.6714 170.523 32.7312" stroke="black" stroke-width="0.1"/>
<circle cx="150.046" cy="66.8548" r="14.5168" fill="#864603" stroke="black" stroke-width="0.1"/>
<circle cx="150.021" cy="66.8295" r="13.5811" fill="#F0DC3B" fill-opacity="0.75" stroke="black" stroke-width="0.1"/>
<path d="M149.541 65.2301V64.2944L153.815 64.3071C156.59 64.541 156.552 69.15 153.815 69.3397H149.534V68.4419H150.261V65.2301H149.541Z" fill="#03285A" fill-opacity="0.85" stroke="black" stroke-width="0.1"/>
<path d="M152.835 67.7904V65.8684C153.476 65.873 153.71 66.021 153.682 66.8547C153.669 67.6381 153.453 67.8024 152.835 67.7904Z" fill="#F0DC3B" fill-opacity="0.75" stroke="black" stroke-width="0.1"/>
<path d="M143.99 68.5239V67.5818L146.762 64.8158L149.144 67.1978L150.252 66.0898V67.0097L146.367 70.8948L145.924 70.4522L146.636 69.7409L144.704 67.8094L143.99 68.5239Z" fill="#864603" stroke="black" stroke-width="0.1"/>
<path d="M137.945 65.2109V64.3005H142.245V65.2109H141.498V68.2203L143.99 66.8168V69.3584H137.945V68.448H138.666V65.2109H137.945Z" fill="#03285A" fill-opacity="0.85" stroke="black" stroke-width="0.1"/>
<path d="M156.027 65.2363V64.3259H160.327V65.2363H159.581V68.2458L162.072 66.8422V69.3838H156.027V68.4734H156.748V65.2363H156.027Z" fill="#03285A" fill-opacity="0.85" stroke="black" stroke-width="0.1"/>
<circle cx="146.386" cy="62.9412" r="1.52428" fill="#5C0F04" fill-opacity="0.74" stroke="black" stroke-width="0.1"/>
<path d="M75.3278 2.90388C74.661 2.35521 74.2516 2.06563 71.0209 2.78525C68.7938 18.554 66.4268 24.1923 61.0124 30.8332C54.78 33.4609 50.5737 32.3386 42.7877 29.305C41.3891 27.9377 40.1191 18.1482 37.996 2.0808C36.3935 1.71147 35.4864 1.7224 33.8886 2.1729C32.2095 15.1947 30.594 23.2056 26.7304 38.5091C22.8942 50.5397 22.6415 56.3159 23.9282 65.7294C22.0742 71.3655 22.1443 77.1256 24.4243 92.4248C39.8613 98.2889 37.9214 97.9276 55.9683 94.7304C65.1767 96.3766 68.5614 96.3994 73.3839 95.8259C75.7589 87.2493 76.7151 81.6846 75.8325 66.5434C76.0367 40.8184 75.8725 27.0042 75.3278 2.90388Z" fill="#003278" fill-opacity="0.5" stroke="black" stroke-width="0.1"/>
<path d="M37.499 8.94271C37.7941 6.11199 37.8907 4.62468 37.9959 2.08073C40.6461 20.1678 41.7596 27.0279 42.5881 29.0942C52.9213 33.1748 56.2244 32.6977 61.0178 30.6281C67.2175 23.5732 69.0717 17.0329 70.9126 2.98744C70.0133 20.0639 69.109 29.3967 63.8351 43.8413L64.5323 40.8845L62.5877 44.4227L66.0829 33.0253C55.2113 37.0856 48.866 36.9989 37.1457 32.9465C36.8242 30.9743 36.8371 29.6947 37.0988 27.1984C38.3741 20.4508 39.1395 16.6849 37.499 8.94271Z" fill="#3D3B3B" fill-opacity="0.5" stroke="black" stroke-width="0.1"/>
<path d="M72.6106 53.1141C73.6656 50.6911 74.3145 49.028 75.9525 43.5597L76.0163 48.6925C75.2432 50.3466 74.3375 51.3361 72.6106 53.1141Z" fill="#3D3B3B" fill-opacity="0.5" stroke="black" stroke-width="0.1"/>
<path d="M71.9699 54.0199C73.4498 55.5949 74.2866 56.7165 75.8683 61.516L75.95 69.728C74.9387 64.8133 74.2244 62.3667 72.3386 59.2637C73.5355 59.9475 73.8993 60.3663 74.1335 61.1604C74.1412 58.6154 73.6463 57.0493 71.9699 54.0199Z" fill="#3D3B3B" fill-opacity="0.5" stroke="black" stroke-width="0.1"/>
<path d="M33.0267 93.0723C29.6836 92.6922 27.8005 92.5468 24.4243 92.4249C33.992 95.7401 36.3385 100.251 56.0737 94.6308C51.6926 93.4839 46.8739 97.0455 37.6647 96.0735C35.7677 95.2038 34.7542 94.5583 33.0267 93.0723Z" fill="#3D3B3B" fill-opacity="0.5" stroke="black" stroke-width="0.1"/>
<path d="M25.3858 50.0687C24.3367 51.6752 23.9566 54.4084 23.6169 62.1294C22.7176 54.2911 23.5082 48.0267 28.5632 31.5817C27.8808 35.1927 27.5866 36.7684 27.357 38.1162L29.231 37.1416C28.4294 37.8636 27.9176 38.4778 26.7821 40.3581L28.642 39.8962C25.486 42.9348 26.2425 48.483 26.5353 56.7708L25.3858 50.0687Z" fill="#3D3B3B" fill-opacity="0.5" stroke="black" stroke-width="0.1"/>
<path d="M61.2259 30.5314C58.4926 32.0715 55.2637 32.9055 42.9081 32.3871C49.3373 36.7085 53.7704 37.1909 63.7161 33.2682C67.0906 27.2453 68.5439 22.1461 70.0367 8.71036C68.3047 18.5884 66.6647 23.5949 61.2259 30.5314Z" fill="#D9D9D9" fill-opacity="0.5" stroke="black" stroke-width="0.1"/>
<path d="M35.2333 27.8654C34.798 35.5354 35.1933 39.3989 36.3769 45.9584" stroke="black" stroke-width="0.1"/>
<path d="M31.2662 19.1358C31.0308 28.5972 30.6123 32.9794 29.7558 40.4396" stroke="black" stroke-width="0.1"/>
<path d="M33.7861 2.17009C33.1197 16.6131 32.6251 24.4636 31.2734 37.5055" stroke="black" stroke-width="0.1"/>
<path d="M35.7458 1.81376C34.9472 11.3205 34.7914 15.7727 34.6399 23.3339" stroke="black" stroke-width="0.1"/>
<path d="M36.8736 1.84464L35.7169 25.2106" stroke="black" stroke-width="0.1"/>
<path d="M73.0774 2.63642C72.1175 14.7308 71.4501 19.917 70.1323 27.5951" stroke="black" stroke-width="0.1"/>
<path d="M74.8235 2.58223C73.0308 20.3217 72.0527 29.1004 70.482 37.2515" stroke="black" stroke-width="0.1"/>
<path d="M65.8804 44.1032C67.5081 40.8953 68.4544 38.6714 70.2985 32.7312" stroke="black" stroke-width="0.1"/>
<circle cx="49.8219" cy="66.8547" r="14.5168" fill="#B41E0A" stroke="black" stroke-width="0.1"/>
<circle cx="49.7966" cy="66.8295" r="13.5811" fill="#FFE300" stroke="black" stroke-width="0.1"/>
<path d="M49.3161 65.2301V64.2944L53.59 64.307C56.3655 64.541 56.3276 69.15 53.59 69.3397H49.3098V68.4419H50.0368V65.2301H49.3161Z" fill="#003278" stroke="black" stroke-width="0.1"/>
<path d="M52.6101 67.7904V65.8684C53.2519 65.873 53.4859 66.0209 53.4573 66.8547C53.4446 67.6381 53.2282 67.8024 52.6101 67.7904Z" fill="#FFE300" stroke="black" stroke-width="0.1"/>
<path d="M43.7652 68.5238V67.5818L46.5376 64.8158L48.9195 67.1977L50.0275 66.0897V67.0096L46.1424 70.8947L45.6999 70.4522L46.4111 69.7409L44.4796 67.8094L43.7652 68.5238Z" fill="#B41E0A" stroke="black" stroke-width="0.1"/>
<path d="M37.7208 65.2109V64.3004H42.0201V65.2109H41.274V68.2203L43.765 66.8167V69.3583H37.7208V68.4479H38.4416V65.2109H37.7208Z" fill="#003278" stroke="black" stroke-width="0.1"/>
<path d="M55.8029 65.2363V64.3258H60.1021V65.2363H59.3561V68.2457L61.8471 66.8421V69.3838H55.8029V68.4733H56.5237V65.2363H55.8029Z" fill="#003278" stroke="black" stroke-width="0.1"/>
<circle cx="46.1614" cy="62.9411" r="1.52428" fill="#B41E0A" stroke="black" stroke-width="0.1"/>
</svg>
