<svg width="1000" height="100" viewBox="0 0 1000 100" fill="none" xmlns="http://www.w3.org/2000/svg">
<rect width="1000" height="100" fill="none"/>
<path d="M954.361 60.2045C953.437 60.016 951.891 59.9217 950.68 60.0806L952.513 60.0698L954.361 60.2045Z" fill="#515560" stroke="black" stroke-width="0.1"/>
<path d="M950.329 60.1802L950.027 60.1614L947.939 60.9664H950.027C950.733 60.9288 952.248 60.86 953.995 60.778L954.616 60.7295L954.999 60.4576C955.078 60.1318 951.891 59.9218 950.68 60.0833L950.329 60.1802Z" fill="#3A000C" stroke="black" stroke-width="0.1"/>
<path d="M946.065 60.5496L946.07 60.5435L946.073 60.5361C946.079 60.523 946.097 60.5017 946.142 60.4756C946.185 60.4505 946.245 60.4249 946.321 60.3997C946.473 60.3492 946.683 60.3021 946.933 60.2612C947.434 60.1796 948.093 60.1239 948.768 60.1145C949.433 60.1145 949.849 60.1511 950.078 60.221C950.194 60.2563 950.25 60.2968 950.272 60.334C950.291 60.3663 950.291 60.409 950.254 60.4732C950.244 60.4911 950.221 60.5141 950.181 60.5403C950.142 60.5661 950.089 60.5926 950.023 60.619C949.891 60.6719 949.711 60.7227 949.493 60.767C949.057 60.8554 948.471 60.9164 947.812 60.9164C947.113 60.8949 946.632 60.8285 946.348 60.7461C946.204 60.7044 946.117 60.6606 946.076 60.6218C946.056 60.603 946.051 60.5896 946.05 60.5821C946.049 60.5756 946.051 60.5652 946.065 60.5496Z" fill="#515560" stroke="black" stroke-width="0.1"/>
<path d="M950.049 60.4399C949.994 60.5204 949.841 60.6262 949.524 60.7112C949.21 60.7954 948.742 60.8572 948.068 60.8572C947.415 60.8316 947.01 60.7813 946.769 60.7159C946.648 60.6831 946.573 60.6476 946.529 60.613C946.499 60.5895 946.485 60.5675 946.479 60.5469C946.553 60.5014 946.663 60.4566 946.808 60.4153C946.97 60.3693 947.171 60.3287 947.405 60.2958C947.873 60.2301 948.472 60.1959 949.149 60.2114C949.62 60.2222 949.874 60.2588 949.996 60.3086C950.057 60.3336 950.071 60.3565 950.075 60.3684C950.078 60.381 950.075 60.4029 950.049 60.4399Z" fill="#515560" stroke="black" stroke-width="0.1"/>
<path d="M949.181 60.7064L949.181 60.7063L949.176 60.7072C948.999 60.7396 948.773 60.7628 948.558 60.773C948.342 60.7833 948.154 60.7799 948.031 60.7643C947.92 60.7414 947.87 60.7008 947.904 60.6565C947.938 60.612 948.053 60.5675 948.243 60.5399C948.446 60.5103 948.639 60.4857 948.831 60.4733C949.019 60.4611 949.201 60.4607 949.391 60.4783C949.459 60.4866 949.508 60.5001 949.536 60.5183C949.564 60.5369 949.567 60.5592 949.547 60.5828C949.506 60.63 949.371 60.6787 949.181 60.7064Z" fill="#212528" stroke="black" stroke-width="0.1"/>
<path d="M948.879 60.4495C948.942 60.5251 948.881 60.5553 948.64 60.5922C948.251 60.6369 948.037 60.6411 947.668 60.5922L946.887 60.4225C946.805 60.3865 946.737 60.3498 946.808 60.3364C947.078 60.2848 947.198 60.2578 947.605 60.226C947.798 60.2315 947.962 60.2442 948.13 60.2691L948.879 60.4495Z" fill="#6E6D7F" stroke="black" stroke-width="0.1"/>
<path d="M947.37 60.3404C947.507 60.3268 947.654 60.321 947.811 60.3385C947.781 60.3443 947.743 60.3496 947.696 60.3539C947.499 60.3717 947.349 60.3743 947.226 60.3587C947.262 60.3526 947.31 60.3465 947.37 60.3404Z" fill="#515560" stroke="black" stroke-width="0.1"/>
<path d="M948.38 60.4886L948.38 60.4886L948.378 60.4889C948.141 60.5262 947.995 60.5277 947.893 60.5159C947.834 60.5091 947.79 60.4979 947.751 60.4856C947.79 60.4739 947.855 60.4634 947.957 60.459C948.175 60.4498 948.318 60.4508 948.46 60.4786C948.436 60.4818 948.409 60.4851 948.38 60.4886Z" fill="#515560" stroke="black" stroke-width="0.1"/>
<path d="M950.329 60.1802C951.19 60.2098 952.162 60.4414 954.122 60.7214L952.497 60.5841C951.784 60.6333 951.433 60.6774 950.808 60.7564L950.09 60.9637" stroke="black" stroke-width="0.1"/>
<path d="M856.864 59.416C855.221 59.0325 852.473 58.8408 850.32 59.164L853.578 59.1421L856.864 59.416Z" fill="#515560" stroke="black" stroke-width="0.1"/>
<path d="M849.697 59.3667L849.159 59.3284L845.447 60.9665H849.159C850.414 60.8899 853.107 60.7498 856.213 60.583L857.317 60.4844L857.997 59.931C858.139 59.2681 852.473 58.8408 850.32 59.1695L849.697 59.3667Z" fill="#3A000C" stroke="black" stroke-width="0.1"/>
<path d="M842.088 60.0818L842.092 60.0758L842.095 60.0687C842.111 60.0253 842.155 59.9753 842.235 59.9214C842.314 59.8683 842.424 59.8152 842.56 59.7634C842.833 59.6598 843.208 59.5635 843.654 59.4802C844.547 59.3138 845.719 59.2003 846.921 59.1811C848.102 59.1812 848.847 59.2554 849.259 59.3995C849.466 59.4717 849.578 59.5578 849.626 59.6509C849.673 59.7413 849.665 59.8518 849.595 59.9909C849.572 60.0379 849.525 60.0898 849.452 60.1446C849.379 60.199 849.282 60.2541 849.164 60.3085C848.927 60.4173 848.605 60.5213 848.216 60.6116C847.438 60.7921 846.394 60.9164 845.222 60.9164C843.977 60.8726 843.119 60.7373 842.609 60.5683C842.353 60.4834 842.191 60.3921 842.11 60.3053C842.071 60.2626 842.053 60.224 842.05 60.19C842.048 60.1566 842.058 60.1207 842.088 60.0818Z" fill="#515560" stroke="black" stroke-width="0.1"/>
<path d="M849.229 59.9271C849.121 60.1059 848.838 60.3242 848.273 60.4975C847.711 60.6701 846.875 60.7958 845.675 60.7959C844.515 60.7439 843.791 60.6413 843.359 60.507C843.142 60.4398 843.003 60.366 842.919 60.2901C842.845 60.2234 842.813 60.1554 842.807 60.0862C842.943 59.9835 843.152 59.8845 843.428 59.7946C843.717 59.7005 844.076 59.6176 844.493 59.5505C845.328 59.4165 846.395 59.3468 847.599 59.3784C848.016 59.3893 848.34 59.4132 848.588 59.4478C848.836 59.4824 849.006 59.5274 849.116 59.5791C849.226 59.6308 849.269 59.685 849.281 59.7344C849.293 59.7857 849.276 59.8487 849.229 59.9271Z" fill="#515560" stroke="black" stroke-width="0.1"/>
<path d="M847.693 60.446L847.693 60.4459L847.689 60.4468C847.369 60.5139 846.961 60.5621 846.568 60.5834C846.176 60.6047 845.817 60.5984 845.576 60.5625C845.358 60.5123 845.269 60.425 845.33 60.3329C845.392 60.2407 845.601 60.1479 845.949 60.0899C846.311 60.0297 846.659 59.9788 847.008 59.9529C847.353 59.9272 847.694 59.9262 848.052 59.9643C848.191 59.9834 848.287 60.0141 848.339 60.0534C848.391 60.093 848.396 60.14 848.359 60.1888C848.285 60.2866 848.042 60.3879 847.693 60.446Z" fill="#212528" stroke="black" stroke-width="0.1"/>
<path d="M847.119 59.9146C847.23 60.0685 847.121 60.1298 846.694 60.2049C846.001 60.296 845.621 60.3045 844.966 60.2049L843.578 59.8598C843.431 59.7864 843.311 59.7118 843.436 59.6845C843.917 59.5794 844.13 59.5246 844.853 59.4598C845.197 59.471 845.487 59.4968 845.787 59.5475L847.119 59.9146Z" fill="#6E6D7F" stroke="black" stroke-width="0.1"/>
<path d="M844.433 59.641C844.712 59.6092 845.016 59.598 845.346 59.6557C845.358 59.6622 845.367 59.6682 845.373 59.6735C845.376 59.6762 845.379 59.6784 845.38 59.6802C845.379 59.6816 845.377 59.6834 845.374 59.6856C845.357 59.6987 845.323 59.7152 845.262 59.7312C845.203 59.7469 845.122 59.7609 845.017 59.7717C844.598 59.815 844.294 59.8146 844.049 59.7578C844.028 59.7468 844.012 59.737 844.001 59.7284C844.005 59.726 844.011 59.7233 844.018 59.7203C844.036 59.7124 844.063 59.7038 844.099 59.6948C844.171 59.6769 844.278 59.6587 844.433 59.641Z" fill="#515560" stroke="black" stroke-width="0.1"/>
<path d="M846.234 60.0458L846.234 60.0457L846.232 60.0461C845.81 60.1223 845.546 60.1257 845.362 60.1012C845.213 60.0815 845.115 60.0438 845.021 60.0076C845.013 60.0048 845.006 60.0019 844.999 59.999C845.008 59.9872 845.025 59.9718 845.058 59.956C845.127 59.9232 845.254 59.8932 845.478 59.8823C845.931 59.8604 846.207 59.8664 846.51 59.957C846.527 59.9622 846.547 59.9673 846.565 59.9724C846.567 59.9729 846.569 59.9734 846.571 59.9739C846.582 59.9768 846.593 59.9797 846.603 59.9825C846.533 60.0004 846.417 60.0212 846.234 60.0458Z" fill="#515560" stroke="black" stroke-width="0.1"/>
<path d="M849.697 59.3667C851.227 59.427 852.955 59.8981 856.439 60.4679L853.55 60.1885C852.283 60.2886 851.658 60.3783 850.547 60.5391L849.272 60.9609" stroke="black" stroke-width="0.1"/>
<path d="M759.438 58.6276C757.179 58.0491 753.401 57.7598 750.44 58.2474L754.92 58.2143L759.438 58.6276Z" fill="#515560" stroke="black" stroke-width="0.1"/>
<path d="M749.583 58.5532L748.843 58.4954L743.74 60.9664H748.843C750.569 60.8509 754.272 60.6397 758.542 60.3879L760.062 60.2392L760.996 59.4045C761.191 58.4045 753.401 57.7598 750.44 58.2557L749.583 58.5532Z" fill="#3A000C" stroke="black" stroke-width="0.1"/>
<path d="M739.107 59.6147L739.111 59.6088L739.113 59.602C739.138 59.5285 739.203 59.4495 739.315 59.3676C739.425 59.2863 739.577 59.2057 739.765 59.1272C740.141 58.9704 740.657 58.825 741.272 58.6993C742.5 58.448 744.113 58.2767 745.766 58.2478C747.391 58.2478 748.417 58.3598 748.986 58.5782C749.271 58.6872 749.432 58.8195 749.502 58.9687C749.571 59.1165 749.557 59.2937 749.46 59.5077C749.389 59.6624 749.187 59.8315 748.857 59.9978C748.529 60.1626 748.086 60.3198 747.55 60.4562C746.479 60.7287 745.042 60.9163 743.43 60.9164C741.718 60.8503 740.536 60.6461 739.833 60.3905C739.48 60.2623 739.254 60.1234 739.139 59.9881C739.083 59.9212 739.055 59.8574 739.051 59.7976C739.046 59.7383 739.064 59.6773 739.107 59.6147Z" fill="#515560" stroke="black" stroke-width="0.1"/>
<path d="M748.955 59.4134C748.802 59.691 748.407 60.0221 747.63 60.2837C746.854 60.5448 745.704 60.7345 744.053 60.7346C742.458 60.6561 741.461 60.5013 740.864 60.298C740.566 60.1964 740.372 60.084 740.252 59.9666C740.142 59.8576 740.095 59.7436 740.09 59.6253C740.279 59.4653 740.572 59.3122 740.959 59.174C741.357 59.0318 741.852 58.9065 742.426 58.8053C743.575 58.6029 745.042 58.4977 746.699 58.5453C747.273 58.5618 747.718 58.5979 748.06 58.6502C748.402 58.7025 748.637 58.7707 748.791 58.8497C748.944 58.9285 749.01 59.0145 749.029 59.101C749.048 59.1899 749.021 59.2934 748.955 59.4134Z" fill="#515560" stroke="black" stroke-width="0.1"/>
<path d="M746.847 60.1858L746.847 60.1858L746.842 60.1868C746.401 60.2886 745.835 60.3617 745.291 60.3941C744.748 60.4264 744.243 60.4173 743.901 60.361C743.59 60.2833 743.468 60.1491 743.553 60.0092C743.638 59.8692 743.928 59.7279 744.412 59.6395C744.909 59.5488 745.39 59.4715 745.873 59.432C746.353 59.3929 746.832 59.3912 747.333 59.45C747.533 59.4799 747.669 59.528 747.741 59.5884C747.814 59.6491 747.821 59.7209 747.77 59.795C747.667 59.9434 747.331 60.0974 746.847 60.1858Z" fill="#212528" stroke="black" stroke-width="0.1"/>
<path d="M746.038 59.3796C746.191 59.6119 746.042 59.7044 745.454 59.8177C744.501 59.955 743.979 59.9679 743.078 59.8177L741.169 59.297C740.968 59.1863 740.802 59.0739 740.975 59.0325C741.636 58.8741 741.929 58.7914 742.922 58.6937C743.395 58.7105 743.795 58.7495 744.208 58.8259L746.038 59.3796Z" fill="#6E6D7F" stroke="black" stroke-width="0.1"/>
<path d="M742.344 58.9417C742.728 58.8935 743.148 58.8766 743.606 58.9644C743.647 58.988 743.663 59.0084 743.668 59.0203C743.669 59.025 743.669 59.0283 743.668 59.032C743.666 59.0366 743.662 59.0448 743.649 59.0557C743.623 59.0781 743.573 59.1038 743.489 59.128C743.406 59.1519 743.295 59.1732 743.15 59.1895C742.572 59.255 742.152 59.2545 741.812 59.1677C741.775 59.1459 741.745 59.1259 741.729 59.1076C741.723 59.1012 741.721 59.0973 741.721 59.0956C741.721 59.0949 741.722 59.0938 741.723 59.0923C741.729 59.0857 741.742 59.0752 741.769 59.0625C741.795 59.0501 741.832 59.0368 741.882 59.0232C741.983 58.996 742.131 58.9684 742.344 58.9417Z" fill="#515560" stroke="black" stroke-width="0.1"/>
<path d="M744.824 59.6029L744.824 59.6028L744.821 59.6033C744.24 59.7183 743.876 59.7237 743.621 59.6865C743.414 59.6565 743.277 59.5988 743.148 59.5442C743.13 59.5365 743.112 59.5289 743.094 59.5214C743.097 59.5116 743.102 59.5015 743.109 59.4912C743.123 59.469 743.15 59.4435 743.199 59.4183C743.296 59.3673 743.473 59.322 743.782 59.3056C744.404 59.2726 744.786 59.2814 745.205 59.4189C745.229 59.4266 745.255 59.4344 745.281 59.442C745.284 59.4427 745.286 59.4435 745.289 59.4443C745.318 59.4528 745.346 59.461 745.371 59.4695C745.384 59.4741 745.396 59.4785 745.406 59.4827C745.389 59.4898 745.366 59.4979 745.334 59.5069C745.237 59.5341 745.076 59.5657 744.824 59.6029Z" fill="#515560" stroke="black" stroke-width="0.1"/>
<path d="M749.583 58.5532C751.687 58.6441 754.063 59.3548 758.854 60.2143L754.881 59.7929C753.139 59.9439 752.28 60.0793 750.752 60.3218L748.999 60.9581" stroke="black" stroke-width="0.1"/>
<path d="M664.234 58.6276C661.002 58.0491 655.598 57.7598 651.363 58.2474L657.771 58.2143L664.234 58.6276Z" fill="#515560" stroke="black" stroke-width="0.1"/>
<path d="M650.138 58.5532L649.079 58.4954L641.78 60.9664H649.079C651.547 60.8509 656.845 60.6397 662.953 60.3879L665.125 60.2392L666.463 59.4045C666.741 58.4045 655.598 57.7598 651.363 58.2557L650.138 58.5532Z" fill="#3A000C" stroke="black" stroke-width="0.1"/>
<path d="M635.13 59.6214L635.136 59.6154L635.139 59.6077C635.174 59.5358 635.267 59.4555 635.431 59.3718C635.591 59.2893 635.81 59.2079 636.081 59.1291C636.621 58.9715 637.362 58.8257 638.242 58.6998C640.002 58.4481 642.312 58.2767 644.678 58.2478C647.001 58.2478 648.476 58.3596 649.297 58.5798C649.709 58.6904 649.944 58.8253 650.045 58.9753C650.14 59.1176 650.123 59.2881 649.984 59.5011C649.935 59.577 649.838 59.6589 649.69 59.7437C649.542 59.8279 649.349 59.9124 649.114 59.9953C648.643 60.1611 648.007 60.3188 647.239 60.4554C645.703 60.7285 643.645 60.9164 641.335 60.9164C638.885 60.8503 637.19 60.6459 636.179 60.389C635.672 60.2601 635.343 60.1197 635.177 59.9819C635.094 59.9132 635.057 59.8505 635.051 59.796C635.045 59.7431 635.067 59.6851 635.13 59.6214Z" fill="#515560" stroke="black" stroke-width="0.1"/>
<path d="M649.263 59.4066C649.154 59.5452 648.957 59.6986 648.646 59.8506C648.335 60.0023 647.912 60.1513 647.355 60.2824C646.241 60.5447 644.592 60.7346 642.227 60.7346C639.943 60.6561 638.513 60.5011 637.655 60.2967C637.225 60.1944 636.943 60.0807 636.77 59.9611C636.611 59.8516 636.547 59.7406 636.538 59.6303C636.811 59.4684 637.235 59.3142 637.79 59.1755C638.362 59.0327 639.071 58.907 639.894 58.8057C641.541 58.603 643.641 58.4976 646.014 58.5454C647.658 58.5784 648.569 58.6902 649.02 58.8523C649.247 58.934 649.342 59.0228 649.367 59.1052C649.393 59.1866 649.358 59.2852 649.263 59.4066Z" fill="#515560" stroke="black" stroke-width="0.1"/>
<path d="M646.244 60.1893L646.244 60.1893L646.239 60.19C645.605 60.2922 644.792 60.3657 644.01 60.3983C643.227 60.4309 642.492 60.422 641.991 60.3641C641.536 60.2848 641.362 60.1488 641.484 60.0081C641.606 59.8674 642.023 59.7251 642.721 59.636C643.432 59.5453 644.122 59.4676 644.819 59.4279C645.511 59.3884 646.205 59.3866 646.932 59.4463C647.228 59.4771 647.426 59.5266 647.531 59.5878C647.636 59.6492 647.646 59.7216 647.572 59.7961C647.425 59.9453 646.942 60.1002 646.244 60.1893Z" fill="#212528" stroke="black" stroke-width="0.1"/>
<path d="M645.067 59.3796C645.285 59.6119 645.072 59.7044 644.232 59.8177C642.869 59.955 642.121 59.9679 640.833 59.8177L638.103 59.297C637.815 59.1863 637.578 59.0739 637.824 59.0325C638.77 58.8741 639.19 58.7914 640.61 58.6937C641.287 58.7105 641.859 58.7495 642.449 58.8259L645.067 59.3796Z" fill="#6E6D7F" stroke="black" stroke-width="0.1"/>
<path d="M639.779 58.9419C640.332 58.8934 640.939 58.8763 641.6 58.9656C641.631 58.9775 641.654 58.9894 641.671 59.0006C641.69 59.0129 641.697 59.0221 641.699 59.0263C641.7 59.0279 641.7 59.0261 641.7 59.0261C641.698 59.0292 641.691 59.0382 641.671 59.0507C641.63 59.0755 641.553 59.1024 641.431 59.127C641.31 59.1514 641.148 59.1729 640.941 59.1893C640.109 59.2551 639.502 59.2549 639.008 59.1661C638.954 59.1436 638.907 59.1219 638.881 59.1015C638.878 59.0996 638.876 59.098 638.875 59.0965C638.886 59.0883 638.908 59.0773 638.946 59.0648C638.986 59.0516 639.041 59.0379 639.113 59.0241C639.259 58.9964 639.473 58.9687 639.779 58.9419Z" fill="#515560" stroke="black" stroke-width="0.1"/>
<path d="M643.335 59.6026L643.335 59.6026L643.333 59.6028C642.5 59.7182 641.975 59.724 641.604 59.6863C641.303 59.6557 641.104 59.5967 640.919 59.5421C640.891 59.534 640.864 59.5261 640.838 59.5183C640.854 59.4912 640.893 59.4561 640.989 59.421C641.135 59.3677 641.393 59.3221 641.838 59.3056C642.729 59.2726 643.28 59.2811 643.886 59.4201C643.92 59.4277 643.957 59.4354 643.994 59.443C643.998 59.4437 644.002 59.4445 644.006 59.4453C644.047 59.4537 644.088 59.4622 644.124 59.4709C644.141 59.4748 644.156 59.4788 644.17 59.4827C644.145 59.4898 644.112 59.4976 644.069 59.5059C643.929 59.5336 643.697 59.5654 643.335 59.6026Z" fill="#515560" stroke="black" stroke-width="0.1"/>
<path d="M650.138 58.5532C653.146 58.6441 656.545 59.3548 663.398 60.2143L657.715 59.7929C655.224 59.9439 653.996 60.0793 651.809 60.3218L649.302 60.9581" stroke="black" stroke-width="0.1"/>
<path d="M563.234 55.4738C560.002 54.1152 554.598 53.4359 550.363 54.581L556.771 54.5034L563.234 55.4738Z" fill="#515560" stroke="black" stroke-width="0.1"/>
<path d="M549.138 55.2992L548.079 55.1633L540.78 60.9664H548.079C550.547 60.6951 555.845 60.199 561.953 59.6078L564.125 59.2585L565.463 57.2982C565.741 54.9498 554.598 53.436 550.363 54.6005L549.138 55.2992Z" fill="#3A000C" stroke="black" stroke-width="0.1"/>
<path d="M534.14 57.7446L534.141 57.745L534.143 57.7351C534.223 57.342 534.554 56.9501 535.095 56.5801C535.634 56.2112 536.373 55.8697 537.251 55.5745C539.008 54.9844 541.315 54.5824 543.678 54.5145C546.001 54.5146 547.468 54.7773 548.283 55.2905C548.688 55.5457 548.931 55.8618 549.038 56.2387C549.146 56.617 549.12 57.0618 548.978 57.576C548.87 57.9649 548.569 58.3693 548.099 58.758C547.629 59.1462 546.994 59.5157 546.228 59.8358C544.696 60.4758 542.642 60.9162 540.336 60.9164C537.889 60.7612 536.199 60.2819 535.192 59.6813C534.689 59.381 534.359 59.0523 534.189 58.7218C534.02 58.3929 534.007 58.0603 534.14 57.7446Z" fill="#515560" stroke="black" stroke-width="0.1"/>
<path d="M548.255 57.36C547.803 58.7089 545.951 60.4889 541.228 60.4894C538.947 60.3052 537.521 59.9416 536.668 59.4642C536.241 59.2259 535.959 58.9602 535.784 58.6758C535.611 58.3963 535.539 58.0958 535.537 57.7797C536.088 56.9936 537.266 56.2967 538.902 55.8235C540.545 55.3484 542.643 55.1013 545.012 55.2133C545.832 55.252 546.469 55.3366 546.958 55.4593C547.446 55.582 547.783 55.742 548.005 55.9293C548.225 56.1155 548.334 56.3299 548.366 56.5673C548.397 56.8065 548.351 57.0723 548.255 57.36Z" fill="#515560" stroke="black" stroke-width="0.1"/>
<path d="M545.247 59.1426L545.247 59.1425L545.242 59.1442C544.608 59.3843 543.795 59.5569 543.012 59.6335C542.23 59.71 541.493 59.6893 540.99 59.5526C540.533 59.3657 540.359 59.0455 540.481 58.7149C540.603 58.3843 541.02 58.0502 541.718 57.841C542.429 57.6278 543.119 57.4455 543.816 57.3521C544.508 57.2593 545.203 57.255 545.932 57.3956C546.23 57.4684 546.428 57.5851 546.534 57.7292C546.639 57.8738 546.65 58.044 546.576 58.219C546.428 58.5694 545.945 58.9332 545.247 59.1426Z" fill="#212528" stroke="black" stroke-width="0.1"/>
<path d="M544.067 57.24C544.285 57.7854 544.072 58.0026 543.232 58.2686C541.869 58.5912 541.121 58.6216 539.833 58.2686L537.103 57.0459C536.815 56.7859 536.578 56.5219 536.824 56.4248C537.77 56.0528 538.19 55.8584 539.61 55.6291C540.287 55.6686 540.859 55.7602 541.449 55.9396L544.067 57.24Z" fill="#6E6D7F" stroke="black" stroke-width="0.1"/>
<path d="M538.784 56.1439C539.334 56.0309 539.934 55.9912 540.587 56.1974C540.647 56.2537 540.683 56.3117 540.695 56.3668C540.707 56.4228 540.697 56.4807 540.656 56.5392C540.57 56.6605 540.351 56.7837 539.935 56.8609C539.107 57.0147 538.508 57.0135 538.022 56.8094C537.969 56.7582 537.922 56.7068 537.894 56.6552C537.866 56.6036 537.861 56.5577 537.885 56.5114C537.912 56.4608 537.98 56.3999 538.124 56.3353C538.268 56.2713 538.48 56.2066 538.784 56.1439Z" fill="#515560" stroke="black" stroke-width="0.1"/>
<path d="M542.329 57.8318L542.328 57.8316L542.325 57.8329C541.494 58.103 540.975 58.1151 540.611 58.0283C540.315 57.9577 540.119 57.822 539.934 57.6938C539.899 57.6691 539.863 57.6446 539.828 57.621C539.833 57.5051 539.875 57.3762 540.005 57.2647C540.147 57.1428 540.4 57.037 540.84 56.9986C541.729 56.9212 542.274 56.9418 542.874 57.2645C542.908 57.2828 542.945 57.3009 542.983 57.3187C542.986 57.3205 542.99 57.3224 542.994 57.3242C543.035 57.344 543.076 57.3636 543.111 57.3836C543.147 57.4038 543.176 57.4231 543.195 57.4416C543.215 57.4606 543.22 57.4734 543.22 57.4805C543.221 57.486 543.219 57.4997 543.195 57.5228C543.17 57.5462 543.127 57.5743 543.058 57.6064C542.92 57.6703 542.69 57.7446 542.329 57.8318Z" fill="#515560" stroke="black" stroke-width="0.1"/>
<path d="M549.138 55.2991C552.146 55.5126 555.545 57.1818 562.398 59.2002L556.715 58.2104C554.224 58.5652 552.996 58.883 550.809 59.4525L548.302 60.947" stroke="black" stroke-width="0.1"/>
<path d="M464.234 51.5316C461.002 49.1979 455.598 48.0311 451.363 49.998L457.771 49.8647L464.234 51.5316Z" fill="#515560" stroke="black" stroke-width="0.1"/>
<path d="M450.138 51.2316L449.079 50.9982L441.78 60.9664H449.079C451.547 60.5004 456.845 59.6483 462.953 58.6327L465.125 58.0326L466.463 54.6655C466.741 50.6315 455.598 48.0311 451.363 50.0314L450.138 51.2316Z" fill="#3A000C" stroke="black" stroke-width="0.1"/>
<path d="M435.143 55.4108L435.143 55.4109L435.144 55.4047C435.308 54.0114 436.503 52.6806 438.26 51.6666C440.015 50.6541 442.319 49.9645 444.679 49.848C446.998 49.8481 448.46 50.2981 449.273 51.178C450.085 52.0566 450.263 53.3785 449.977 55.1575C449.757 56.524 448.75 57.9637 447.218 59.0629C445.688 60.161 443.637 60.9158 441.337 60.9164C438.895 60.6502 437.209 59.8287 436.203 58.7978C435.196 57.7669 434.869 56.5257 435.143 55.4108Z" fill="#515560" stroke="black" stroke-width="0.1"/>
<path d="M449.253 54.7892C449.024 55.9649 448.443 57.3132 447.332 58.3673C446.224 59.4199 444.584 60.1822 442.229 60.183C439.952 59.8668 438.53 59.2437 437.678 58.425C436.829 57.6099 436.539 56.5947 436.537 55.4753C437.645 52.7396 441.281 50.6644 446.011 51.0481C447.649 51.181 448.549 51.6286 448.996 52.2768C449.444 52.926 449.447 53.7918 449.253 54.7892Z" fill="#515560" stroke="black" stroke-width="0.1"/>
<path d="M446.252 57.8373L446.252 57.8371L446.248 57.8399C445.613 58.2525 444.8 58.5491 444.017 58.6807C443.234 58.8121 442.494 58.7771 441.988 58.5401C441.527 58.2169 441.352 57.6647 441.475 57.0964C441.597 56.5278 442.014 55.9537 442.713 55.594C443.424 55.2279 444.114 54.9146 444.811 54.7542C445.504 54.5947 446.201 54.5869 446.933 54.8295C447.234 54.9558 447.434 55.1582 447.54 55.4067C447.645 55.656 447.656 55.9489 447.582 56.2498C447.434 56.8522 446.951 57.4775 446.252 57.8373Z" fill="#212528" stroke="black" stroke-width="0.1"/>
<path d="M445.067 54.5654C445.285 55.5023 445.072 55.8754 444.232 56.3324C442.869 56.8865 442.121 56.9386 440.833 56.3324L438.103 54.232C437.815 53.7854 437.578 53.3319 437.824 53.1652C438.77 52.5261 439.19 52.1923 440.61 51.7983C441.287 51.8663 441.859 52.0235 442.449 52.3318L445.067 54.5654Z" fill="#6E6D7F" stroke="black" stroke-width="0.1"/>
<path d="M439.791 52.6456C440.337 52.4527 440.93 52.3855 441.578 52.7362C441.704 52.9393 441.739 53.176 441.65 53.3921C441.56 53.612 441.338 53.8207 440.929 53.9511C440.104 54.2145 439.513 54.2109 439.032 53.8641C438.922 53.6819 438.828 53.4866 438.889 53.2884C438.951 53.0875 439.181 52.8613 439.791 52.6456Z" fill="#515560" stroke="black" stroke-width="0.1"/>
<path d="M443.321 55.6193L443.321 55.619L443.316 55.6218C442.486 56.085 441.974 56.1027 441.618 55.9568C441.439 55.8832 441.294 55.7664 441.167 55.6353C441.086 55.5524 441.014 55.4671 440.944 55.3834C440.905 55.3371 440.867 55.2912 440.827 55.2466C440.83 55.0262 440.872 54.7791 441.014 54.5708C441.158 54.3583 441.409 54.1796 441.843 54.1147C442.288 54.0482 442.643 54.0243 442.962 54.0852C443.279 54.1457 443.563 54.2907 443.863 54.5687C443.897 54.6 443.935 54.6312 443.972 54.6618C443.976 54.665 443.98 54.6681 443.984 54.6712C444.025 54.7053 444.065 54.7388 444.101 54.7732C444.174 54.8436 444.218 54.9087 444.22 54.9753C444.222 55.0394 444.186 55.1239 444.048 55.2336C443.911 55.3428 443.682 55.4699 443.321 55.6193Z" fill="#515560" stroke="black" stroke-width="0.1"/>
<path d="M450.138 51.2316C453.146 51.5983 456.545 54.4654 463.398 57.9326L457.715 56.2323C455.224 56.8418 453.996 57.3877 451.809 58.366L449.302 60.9331" stroke="black" stroke-width="0.1"/>
<path d="M364.092 48.3779C360.655 45.2641 354.907 43.7072 350.403 46.3317L357.218 46.1537L364.092 48.3779Z" fill="#515560" stroke="black" stroke-width="0.1"/>
<path d="M349.1 47.9775L347.974 47.6662L340.211 60.9664H347.974C350.599 60.3446 356.233 59.2076 362.729 57.8526L365.04 57.052L366.462 52.5592C366.759 47.1769 354.907 43.7072 350.403 46.3762L349.1 47.9775Z" fill="#3A000C" stroke="black" stroke-width="0.1"/>
<path d="M333.149 53.5474L333.149 53.5474L333.15 53.5424C333.326 51.6714 334.603 49.8925 336.47 48.5406C338.336 47.1896 340.786 46.2701 343.294 46.1147C345.758 46.1149 347.312 46.714 348.179 47.8903C349.048 49.0695 349.237 50.843 348.932 53.22C348.461 56.8872 344.631 60.9144 339.74 60.9163C334.553 60.2068 332.563 56.5395 333.149 53.5474Z" fill="#515560" stroke="black" stroke-width="0.1"/>
<path d="M348.161 52.7295C347.917 54.3027 347.297 56.1058 346.114 57.5147C344.934 58.9211 343.19 59.9366 340.689 59.9378C338.269 59.5162 336.757 58.6856 335.85 57.5916C334.943 56.4989 334.633 55.136 334.632 53.6347C335.812 49.9706 339.685 47.2045 344.71 47.7159C346.449 47.8929 347.408 48.4885 347.886 49.3583C348.366 50.2325 348.369 51.3968 348.161 52.7295Z" fill="#515560" stroke="black" stroke-width="0.1"/>
<path d="M344.973 56.7965L344.973 56.7963L344.969 56.7998C344.294 57.3507 343.428 57.7469 342.594 57.9226C341.76 58.0983 340.969 58.052 340.427 57.7331C339.933 57.2994 339.748 56.5596 339.878 55.8004C340.009 55.0407 340.453 54.2736 341.197 53.793C341.953 53.3045 342.688 52.886 343.43 52.6717C344.168 52.4586 344.912 52.4478 345.694 52.7731C346.018 52.9431 346.231 53.2154 346.344 53.5482C346.457 53.882 346.468 54.2737 346.389 54.6756C346.232 55.4805 345.718 56.3157 344.973 56.7965Z" fill="#212528" stroke="black" stroke-width="0.1"/>
<path d="M343.707 52.4258C343.939 53.6758 343.712 54.1737 342.819 54.7833C341.369 55.5227 340.574 55.5923 339.204 54.7833L336.3 51.981C335.994 51.3849 335.741 50.7799 336.004 50.5575C337.01 49.7048 337.456 49.2594 338.967 48.7337C339.686 48.8244 340.294 49.0342 340.922 49.4455L343.707 52.4258Z" fill="#6E6D7F" stroke="black" stroke-width="0.1"/>
<path d="M339.01 49.636C339.323 49.6409 339.65 49.7347 339.995 49.9688C340.133 50.2453 340.172 50.5714 340.075 50.8701C339.976 51.1714 339.736 51.4501 339.304 51.6232C338.862 51.7998 338.485 51.886 338.154 51.8699C337.828 51.8539 337.545 51.7384 337.289 51.5057C337.172 51.2631 337.065 50.9919 337.134 50.7141C337.202 50.4357 337.452 50.1335 338.098 49.847C338.39 49.7174 338.694 49.6311 339.01 49.636Z" fill="#515560" stroke="black" stroke-width="0.1"/>
<path d="M341.847 53.8492L341.847 53.8488L341.842 53.8526C340.959 54.4711 340.417 54.4926 340.041 54.2995C339.851 54.2014 339.697 54.0452 339.56 53.8691C339.474 53.7583 339.397 53.6436 339.322 53.5314C339.279 53.4677 339.237 53.4048 339.195 53.3439C339.196 53.0444 339.241 52.7051 339.396 52.4193C339.552 52.1309 339.821 51.8936 340.28 51.8075C340.752 51.7188 341.129 51.6873 341.466 51.7681C341.802 51.8484 342.104 52.0414 342.425 52.4138C342.461 52.4554 342.501 52.4968 342.541 52.5377C342.545 52.5419 342.549 52.546 342.553 52.5502C342.597 52.5956 342.64 52.6406 342.678 52.6868C342.755 52.78 342.807 52.872 342.809 52.9718C342.812 53.07 342.767 53.1882 342.621 53.3341C342.474 53.4804 342.231 53.65 341.847 53.8492Z" fill="#515560" stroke="black" stroke-width="0.1"/>
<path d="M349.1 47.9775C352.3 48.4668 355.915 52.2923 363.203 56.9185L357.159 54.6499C354.509 55.463 353.203 56.1915 350.878 57.4967L348.211 60.9219" stroke="black" stroke-width="0.1"/>
<path d="M264.092 45.224C260.655 41.3302 254.907 39.3833 250.403 42.6652L257.218 42.4427L264.092 45.224Z" fill="#515560" stroke="black" stroke-width="0.1"/>
<path d="M249.1 44.7234L247.974 44.334L240.211 60.9657H247.974C250.599 60.1882 256.233 58.7664 262.729 57.072L265.04 56.0708L266.462 50.4527C266.759 43.7221 254.907 39.3834 250.403 42.7209L249.1 44.7234Z" fill="#4B0010" stroke="black" stroke-width="0.1"/>
<path d="M233.15 51.684L233.15 51.6841L233.15 51.6801C233.327 49.3316 234.608 47.104 236.474 45.4139C238.341 43.7244 240.789 42.5756 243.294 42.3814C245.754 42.3818 247.308 43.1287 248.176 44.6026C249.048 46.0828 249.237 48.3076 248.932 51.2818C248.696 53.5793 247.619 55.9892 245.988 57.8244C244.359 59.6583 242.181 60.9141 239.741 60.9156C234.563 60.0295 232.56 55.4448 233.15 51.684Z" fill="#515560" stroke="black" stroke-width="0.1"/>
<path d="M248.161 50.6691C247.916 52.6393 247.296 54.8975 246.111 56.6617C244.929 58.423 243.186 59.6902 240.69 59.692C238.274 59.1653 236.762 58.1279 235.853 56.7579C234.943 55.3869 234.632 53.6763 234.632 51.794C235.814 47.1988 239.691 43.745 244.708 44.3836C246.443 44.6044 247.403 45.3468 247.884 46.4401C248.367 47.5393 248.369 49.0015 248.161 50.6691Z" fill="#515560" stroke="black" stroke-width="0.1"/>
<path d="M244.977 55.7556L244.977 55.7554L244.973 55.7595C244.298 56.4486 243.432 56.9443 242.597 57.1642C241.763 57.384 240.969 57.3267 240.425 56.9256C239.928 56.381 239.743 55.4534 239.873 54.5033C240.004 53.5525 240.448 52.5926 241.193 51.9912C241.949 51.3803 242.684 50.8568 243.427 50.5887C244.166 50.3219 244.911 50.3082 245.695 50.7161C246.021 50.9301 246.236 51.2724 246.349 51.6897C246.462 52.108 246.473 52.5986 246.394 53.1016C246.236 54.1089 245.722 55.1539 244.977 55.7556Z" fill="#212528" stroke="black" stroke-width="0.1"/>
<path d="M243.707 50.2858C243.939 51.8489 243.712 52.4715 242.819 53.2339C241.369 54.1585 240.574 54.2454 239.204 53.2339L236.3 49.7296C235.994 48.9843 235.741 48.2277 236.004 47.9496C237.01 46.8832 237.456 46.3263 238.967 45.669C239.686 45.7823 240.294 46.0447 240.922 46.559L243.707 50.2858Z" fill="#6E6D7F" stroke="black" stroke-width="0.1"/>
<path d="M239.01 46.7847C239.32 46.7907 239.647 46.9072 239.992 47.2009C240.276 47.908 240.153 48.8684 239.3 49.2955C238.859 49.5163 238.483 49.6233 238.155 49.6032C237.832 49.5834 237.549 49.4401 237.292 49.1471C237.174 48.8434 237.064 48.497 237.134 48.1401C237.205 47.7833 237.459 47.4046 238.102 47.0477C238.394 46.8857 238.696 46.7787 239.01 46.7847Z" fill="#515560" stroke="black" stroke-width="0.1"/>
<path d="M241.843 52.0793L241.843 52.0789L241.837 52.0836C241.396 52.4705 241.04 52.67 240.749 52.7428C240.46 52.8151 240.234 52.7635 240.046 52.6424C239.855 52.5198 239.7 52.324 239.563 52.1027C239.477 51.9639 239.399 51.8195 239.324 51.6789C239.281 51.5976 239.238 51.5176 239.194 51.4406C239.196 51.0625 239.241 50.6312 239.398 50.2678C239.556 49.9021 239.826 49.6068 240.282 49.4999C240.754 49.3891 241.128 49.3501 241.463 49.4505C241.797 49.5503 242.099 49.7909 242.422 50.2584C242.457 50.3101 242.497 50.3618 242.537 50.4129C242.541 50.4181 242.545 50.4233 242.549 50.4286C242.593 50.4853 242.636 50.5418 242.675 50.6C242.752 50.7165 242.807 50.8357 242.809 50.9681C242.815 51.2309 242.613 51.579 241.843 52.0793Z" fill="#515560" stroke="black" stroke-width="0.1"/>
<path d="M254.966 43.2215C255.378 42.7194 255.545 42.3672 255.737 41.6084C257.436 41.8416 258.434 42.0863 260.359 42.8878C260.262 43.5101 260.351 44.586 260.596 46.9484C258.345 44.1421 257.099 42.9966 254.966 43.2215Z" fill="#624A4B" stroke="black" stroke-width="0.1"/>
<path d="M255.5 46.5032C256.242 44.9648 256.648 44.3143 257.337 43.9445C260.614 47.1693 261.963 50.1919 264.329 55.6813C262.037 51.0952 260.739 48.6019 257.988 46.7814L255.914 49.4513L255.5 46.5032Z" fill="#330008" stroke="black" stroke-width="0.1"/>
<path d="M256.626 43.5553C255.391 43.2936 254.739 43.3458 253.663 43.8334C253.95 44.6463 254.086 45.1006 254.018 45.8915C254.532 46.7321 254.735 47.2596 254.966 48.2834V46.3921C255.518 45.2231 255.845 44.579 256.626 43.5553Z" fill="#330008" stroke="black" stroke-width="0.1"/>
<path d="M249.1 44.7233C252.3 45.3352 255.915 50.1189 263.203 55.9039L257.159 53.067C254.509 54.0838 253.203 54.9947 250.878 56.627L248.211 60.9101" stroke="black" stroke-width="0.1"/>
<path d="M253.603 49.7851C254.586 51.257 255.338 51.9499 256.862 53.0669C255.274 53.2419 254.007 53.2564 251.529 53.2338L250.403 54.235C250.519 52.6771 250.643 51.8145 251.529 50.3969L253.603 49.7851Z" fill="#330008" stroke="black" stroke-width="0.1"/>
<path d="M251.242 47.5043C251.242 47.6757 251.254 47.8003 251.263 47.8952C251.263 47.9 251.264 47.9047 251.264 47.9093C251.273 47.9982 251.278 48.0533 251.272 48.0988C251.267 48.1414 251.25 48.1763 251.206 48.2216C251.162 48.2675 251.092 48.3211 250.98 48.3998C250.483 48.3912 249.92 47.974 249.92 47.3375C249.92 46.9976 249.92 46.8077 249.942 46.6675C249.961 46.5398 249.999 46.4538 250.075 46.3311C250.316 46.3402 250.603 46.4685 250.833 46.6762C251.072 46.8912 251.242 47.1846 251.242 47.5043Z" fill="#624A4B" stroke="black" stroke-width="0.1"/>
<path d="M252.792 59.6898L248.111 60.9692L250.837 56.5192C253.575 54.5672 254.778 54.0264 256.999 53.1262L254.037 56.9086L255.103 59.0223L252.792 59.6898Z" fill="#330008" stroke="black" stroke-width="0.1"/>
<path d="M164.092 43.647C160.655 39.3633 154.907 37.2214 150.403 40.832L157.218 40.5872L164.092 43.647Z" fill="#6C707F" stroke="black" stroke-width="0.1"/>
<path d="M149.1 43.0963L147.974 42.6679L140.211 60.9654H147.974C150.599 60.1099 156.233 58.5458 162.729 56.6817L165.04 55.5802L166.462 49.3994C166.759 41.9948 154.907 37.2215 150.403 40.8933L149.1 43.0963Z" fill="#760019" stroke="black" stroke-width="0.1"/>
<path d="M133.15 50.7526L133.15 50.7526L133.15 50.749C133.327 48.1623 134.609 45.7101 136.476 43.8506C138.343 41.9916 140.79 40.7283 143.295 40.5147C144.524 40.515 145.526 40.7206 146.33 41.128C147.133 41.5352 147.739 42.1453 148.175 42.9591C149.049 44.5898 149.237 47.04 148.931 50.3126C148.695 52.8423 147.618 55.495 145.987 57.5145C144.357 59.5329 142.179 60.9135 139.742 60.9152C134.566 59.9406 132.56 54.8965 133.15 50.7526Z" fill="#6C707F" stroke="black" stroke-width="0.1"/>
<path d="M148.161 49.6386C147.916 51.8071 147.295 54.2929 146.11 56.2349C144.927 58.1741 143.184 59.5669 140.691 59.5691C138.276 58.9899 136.764 57.849 135.854 56.3407C134.943 54.8306 134.632 52.9462 134.632 50.8739C135.815 45.8127 139.694 42.0154 144.708 42.7175C145.575 42.8389 146.248 43.1042 146.764 43.4883C147.28 43.8722 147.641 44.3768 147.883 44.9813C148.367 46.1929 148.368 47.8038 148.161 49.6386Z" fill="#6C707F" stroke="black" stroke-width="0.1"/>
<path d="M144.979 55.2356L144.979 55.2353L144.975 55.2397C144.299 55.9981 143.433 56.5435 142.598 56.7856C141.764 57.0274 140.969 56.9646 140.423 56.5222C139.926 55.9221 139.741 54.9003 139.871 53.8547C140.002 52.8083 140.446 51.7518 141.191 51.0899C141.948 50.4179 142.683 49.8417 143.426 49.5466C144.165 49.253 144.911 49.2378 145.696 49.6872C146.023 49.9232 146.238 50.3007 146.351 50.7604C146.465 51.2211 146.475 51.7612 146.396 52.3148C146.239 53.4233 145.724 54.5734 144.979 55.2356Z" fill="#212528" stroke="black" stroke-width="0.1"/>
<path d="M143.707 49.2158C143.939 50.9355 143.712 51.6204 142.819 52.4592C141.369 53.4764 140.574 53.572 139.204 52.4592L136.3 48.6039C135.994 47.7839 135.741 46.9516 136.004 46.6456C137.01 45.4724 137.456 44.8597 138.967 44.1366C139.686 44.2613 140.294 44.5499 140.922 45.1157L143.707 49.2158Z" fill="#9897A9" stroke="black" stroke-width="0.1"/>
<path d="M139.01 45.3591C139.319 45.3657 139.645 45.4933 139.991 45.8173C140.277 46.5993 140.153 47.6612 139.298 48.1317C138.857 48.3747 138.482 48.4919 138.155 48.4699C137.834 48.4482 137.551 48.291 137.293 47.9674C137.175 47.6332 137.063 47.2493 137.134 46.8534C137.205 46.4576 137.461 46.0402 138.104 45.648C138.396 45.4698 138.697 45.3524 139.01 45.3591Z" fill="#6C707F" stroke="black" stroke-width="0.1"/>
<path d="M141.841 51.1944L141.841 51.194L141.836 51.1991C141.394 51.6249 141.038 51.8441 140.748 51.9241C140.461 52.0032 140.235 51.9469 140.047 51.8139C139.857 51.6789 139.702 51.463 139.564 51.2191C139.478 51.0663 139.4 50.907 139.325 50.7521C139.281 50.6621 139.238 50.5736 139.194 50.4886C139.195 50.0715 139.24 49.5945 139.398 49.1924C139.557 48.7878 139.829 48.4633 140.283 48.3461C140.755 48.2242 141.128 48.1816 141.462 48.2916C141.795 48.4012 142.098 48.6656 142.421 49.181C142.456 49.2378 142.496 49.2944 142.536 49.3507C142.54 49.3565 142.544 49.3622 142.548 49.368C142.592 49.4304 142.635 49.4926 142.674 49.5569C142.751 49.6853 142.807 49.818 142.809 49.9662C142.815 50.2607 142.61 50.645 141.841 51.1944Z" fill="#6C707F" stroke="black" stroke-width="0.1"/>
<path d="M154.966 41.444C155.378 40.8916 155.545 40.5041 155.737 39.6693C157.436 39.9259 158.434 40.1952 160.359 41.0768C160.262 41.7616 160.351 42.9451 160.596 45.5441C158.345 42.4568 157.099 41.1965 154.966 41.444Z" fill="#8E5659" stroke="black" stroke-width="0.1"/>
<path d="M155.5 45.0544C156.242 43.3618 156.648 42.6463 157.337 42.2394C160.614 45.7872 161.963 49.1125 164.329 55.1517C162.037 50.1063 160.739 47.3633 157.988 45.3604L155.914 48.2978L155.5 45.0544Z" fill="#4F000C" stroke="black" stroke-width="0.1"/>
<path d="M156.626 41.8112C155.391 41.5234 154.739 41.5808 153.663 42.1172C153.95 43.0115 154.086 43.5113 154.018 44.3814C154.532 45.3062 154.735 45.8866 154.966 47.0128V44.9322C155.518 43.646 155.845 42.9374 156.626 41.8112Z" fill="#4F000C" stroke="black" stroke-width="0.1"/>
<path d="M149.1 43.0962C152.3 43.7694 155.915 49.0322 163.203 55.3965L157.159 52.2756C154.509 53.3942 153.203 54.3964 150.878 56.1921L148.211 60.9041" stroke="black" stroke-width="0.1"/>
<path d="M153.603 48.6649C154.586 50.2843 155.338 51.0465 156.862 52.2755C155.274 52.468 154.007 52.484 151.529 52.459L150.403 53.5606C150.519 51.8466 150.643 50.8976 151.529 49.3381L153.603 48.6649Z" fill="#4F000C" stroke="black" stroke-width="0.1"/>
<path d="M151.242 46.1558C151.242 46.3438 151.254 46.4805 151.263 46.5848C151.263 46.5904 151.264 46.5959 151.264 46.6013C151.273 46.6981 151.279 46.7598 151.272 46.811C151.266 46.8603 151.249 46.9 151.205 46.9501C151.16 47.0006 151.09 47.0596 150.979 47.1459C150.486 47.1357 149.92 46.6794 149.92 45.9722C149.92 45.5986 149.92 45.3888 149.942 45.2336C149.962 45.0914 150 44.9957 150.076 44.8601C150.316 44.8706 150.601 45.0109 150.831 45.2393C151.07 45.476 151.242 45.8004 151.242 46.1558Z" fill="#8E5659" stroke="black" stroke-width="0.1"/>
<path d="M152.792 59.5617L148.111 60.9692L150.837 56.0735C153.575 53.926 154.778 53.3311 156.999 52.3406L154.037 56.5019L155.103 58.8273L152.792 59.5617Z" fill="#4F000C" stroke="black" stroke-width="0.1"/>
<path d="M64.092 43.647C60.6551 39.3633 54.907 37.2214 50.4034 40.832L57.2181 40.5872L64.092 43.647Z" fill="#CAC9DC" stroke="black" stroke-width="0.1"/>
<path d="M49.0998 43.0963L47.9738 42.6679L40.2111 60.9654H47.9738C50.5989 60.1099 56.233 58.5458 62.7291 56.6817L65.0401 55.5802L66.4623 49.3994C66.7586 41.9948 54.907 37.2215 50.4034 40.8933L49.0998 43.0963Z" fill="#DA002E" stroke="black" stroke-width="0.1"/>
<path d="M33.1497 50.7526L33.1498 50.7526L33.15 50.749C33.3269 48.1623 34.6091 45.7101 36.4761 43.8506C38.3427 41.9916 40.7904 40.7283 43.2946 40.5147C44.5238 40.515 45.5263 40.7206 46.3295 41.128C47.1326 41.5352 47.7393 42.1453 48.1752 42.9591C49.0486 44.5898 49.2369 47.04 48.9315 50.3126C48.6954 52.8423 47.6178 55.495 45.9869 57.5145C44.3569 59.5329 42.1791 60.9135 39.7417 60.9152C34.5659 59.9406 32.5596 54.8965 33.1497 50.7526Z" fill="#979DB1" stroke="black" stroke-width="0.1"/>
<path d="M48.1612 49.6386C47.9162 51.8071 47.2953 54.2929 46.1101 56.2349C44.9266 58.1741 43.1838 59.5669 40.691 59.5691C38.2757 58.9899 36.7638 57.849 35.854 56.3407C34.9431 54.8306 34.6321 52.9462 34.6315 50.8739C35.8147 45.8127 39.6942 42.0154 44.7077 42.7175C45.5754 42.8389 46.2484 43.1042 46.7644 43.4883C47.2801 43.8722 47.6415 44.3768 47.883 44.9813C48.3669 46.1929 48.3685 47.8038 48.1612 49.6386Z" fill="#9495AC" stroke="black" stroke-width="0.1"/>
<path d="M44.979 55.2356L44.9788 55.2353L44.9749 55.2397C44.2993 55.9981 43.433 56.5435 42.598 56.7856C41.7637 57.0274 40.9691 56.9646 40.4232 56.5222C39.9259 55.9221 39.7408 54.9003 39.8712 53.8547C40.0016 52.8083 40.4464 51.7518 41.1912 51.0899C41.9475 50.4179 42.6827 49.8417 43.4256 49.5466C44.1649 49.253 44.9111 49.2378 45.6959 49.6872C46.0231 49.9232 46.2379 50.3007 46.3511 50.7604C46.4646 51.2211 46.4752 51.7612 46.3964 52.3148C46.2387 53.4233 45.7242 54.5734 44.979 55.2356Z" fill="#212528" stroke="black" stroke-width="0.1"/>
<path d="M43.7073 49.2158C43.9387 50.9355 43.7121 51.6204 42.8184 52.4592C41.3692 53.4764 40.5737 53.572 39.2037 52.4592L36.3001 48.6039C35.9935 47.7839 35.7413 46.9516 36.0038 46.6456C37.01 45.4724 37.4558 44.8597 38.9667 44.1366C39.6864 44.2613 40.2944 44.5499 40.9222 45.1157L43.7073 49.2158Z" fill="#CAC9DC" stroke="black" stroke-width="0.1"/>
<path d="M39.0101 45.3591C39.3187 45.3657 39.6452 45.4933 39.9905 45.8173C40.277 46.5993 40.1526 47.6612 39.2981 48.1317C38.8571 48.3747 38.482 48.4919 38.1553 48.4699C37.8336 48.4482 37.5511 48.291 37.2926 47.9674C37.1752 47.6332 37.0634 47.2493 37.1345 46.8534C37.2054 46.4576 37.4612 46.0402 38.1039 45.648C38.396 45.4698 38.6975 45.3524 39.0101 45.3591Z" fill="#9495AC" stroke="black" stroke-width="0.1"/>
<path d="M41.8413 51.1944L41.841 51.194L41.8357 51.1991C41.3939 51.6249 41.0381 51.8441 40.7479 51.9241C40.4608 52.0032 40.2355 51.9469 40.0475 51.8139C39.8567 51.6789 39.7018 51.463 39.564 51.2191C39.4776 51.0663 39.4002 50.907 39.325 50.7521C39.2812 50.6621 39.2382 50.5736 39.1945 50.4886C39.1954 50.0715 39.2404 49.5945 39.3985 49.1924C39.5575 48.7878 39.829 48.4633 40.2829 48.3461C40.7552 48.2242 41.1284 48.1816 41.4622 48.2916C41.7946 48.4012 42.0977 48.6656 42.4206 49.181C42.4562 49.2378 42.4961 49.2944 42.5357 49.3507C42.5398 49.3565 42.5438 49.3622 42.5479 49.368C42.5918 49.4304 42.635 49.4926 42.6736 49.5569C42.7507 49.6853 42.8067 49.818 42.8095 49.9662C42.8151 50.2607 42.6098 50.645 41.8413 51.1944Z" fill="#9495AC" stroke="black" stroke-width="0.1"/>
<path d="M54.9663 41.444C55.3784 40.8916 55.5455 40.5041 55.7367 39.6693C57.4364 39.9259 58.4342 40.1952 60.3588 41.0768C60.2621 41.7616 60.3507 42.9451 60.5958 45.5441C58.3446 42.4568 57.0993 41.1965 54.9663 41.444Z" fill="#FFC7CA" stroke="black" stroke-width="0.1"/>
<path d="M55.4996 45.0544C56.2416 43.3618 56.6479 42.6463 57.3366 42.2394C60.6143 45.7872 61.963 49.1125 64.3291 55.1517C62.0371 50.1063 60.7392 47.3633 57.9885 45.3604L55.9144 48.2978L55.4996 45.0544Z" fill="#990119" stroke="black" stroke-width="0.1"/>
<path d="M56.6256 41.8112C55.3908 41.5234 54.7385 41.5808 53.6627 42.1172C53.9498 43.0115 54.0863 43.5113 54.0183 44.3814C54.5321 45.3062 54.735 45.8866 54.9664 47.0128V44.9322C55.5181 43.646 55.8451 42.9374 56.6256 41.8112Z" fill="#990119" stroke="black" stroke-width="0.1"/>
<path d="M49.0998 43.0962C52.2997 43.7694 55.9145 49.0322 63.2032 55.3965L57.1589 52.2756C54.5092 53.3942 53.203 54.3964 50.8775 56.1921L48.2109 60.9041" stroke="black" stroke-width="0.1"/>
<path d="M53.6034 48.6649C54.5856 50.2843 55.3383 51.0465 56.8626 52.2755C55.2743 52.468 54.0074 52.484 51.5293 52.459L50.4034 53.5606C50.5189 51.8466 50.6436 50.8976 51.5293 49.3381L53.6034 48.6649Z" fill="#990119" stroke="black" stroke-width="0.1"/>
<path d="M51.2423 46.1558C51.2423 46.3438 51.2536 46.4805 51.2629 46.5848C51.2634 46.5904 51.2639 46.5959 51.2643 46.6013C51.273 46.6981 51.2786 46.7598 51.2723 46.811C51.2663 46.8603 51.2491 46.9 51.2048 46.9501C51.1602 47.0006 51.0901 47.0596 50.9791 47.1459C50.4863 47.1357 49.9201 46.6794 49.9201 45.9722C49.9201 45.5986 49.9202 45.3888 49.9419 45.2336C49.9617 45.0914 49.9995 44.9957 50.0765 44.8601C50.3156 44.8706 50.601 45.0109 50.8313 45.2393C51.0699 45.476 51.2423 45.8004 51.2423 46.1558Z" fill="#FFC7CA" stroke="black" stroke-width="0.1"/>
<path d="M52.7922 59.5617L48.1108 60.9692L50.8367 56.0735C53.5754 53.926 54.778 53.3311 56.9995 52.3406L54.0366 56.5019L55.1033 58.8273L52.7922 59.5617Z" fill="#990119" stroke="black" stroke-width="0.1"/>
</svg>
