<svg width="1000" height="100" viewBox="0 0 1000 100" fill="none" xmlns="http://www.w3.org/2000/svg">
<rect width="1000" height="100" fill="none"/>
<path d="M96.3298 40.9279C98.0798 42.1 97.8906 58.4604 96.8028 59.9744C95.9323 60.5904 95.475 60.7669 94.6744 61L46.3833 60.7558C43.0251 60.3651 41.1272 59.3785 37.9643 56.3116C32.9599 54.7305 28.3175 55.1439 18.383 55.0907L17.7208 55.4814L15.1667 55.2128V54.7C14.4648 55.1488 14.0713 55.0543 13.3694 54.7V47.1791C14.1512 47.1007 14.4021 46.8282 14.7883 46.886H15.4505L17.6025 46.9593L18.383 46.886C28.8442 46.3282 33.2034 45.8238 37.9643 44.5418C40.6441 41.7095 42.7413 40.586 46.3833 40L93.8703 40.2442C94.9047 40.2087 95.4368 40.3842 96.3298 40.9279Z" fill="#332C00" stroke="black" stroke-width="0.1"/>
<path d="M30.2195 55.1555C30.5114 50.9813 30.4832 48.8829 29.7212 46.0386C25.116 46.4392 22.534 46.5888 17.9281 46.7493L17.5959 46.4552L15.2943 46.5532L14.7485 46.8964H14.8434L15.0095 47.1169V47.4355L14.9621 47.7051V47.9747L14.8434 48.4894L14.6773 48.7344V49.9843L14.3926 50.2784H14.0841V50.597L14.5587 50.9647L14.6773 50.7196L14.7485 50.9647L14.8434 51.8224L14.9621 53.0478L14.8434 52.9988L15.0095 53.44L14.8434 53.8566H15.0095L15.1993 54.2977L15.1282 54.7389V55.2781C15.579 55.5044 16.3997 55.4865 17.6908 55.4986L18.3552 55.1065L30.2195 55.1555Z" fill="#070405" stroke="black" stroke-width="0.1"/>
<path d="M13.3694 53.8366V48.0456C8.96588 47.9462 6.48579 47.9716 2.05126 48.0944C1.94914 50.6021 2.00117 51.9101 2.19333 54.1543C6.59726 54.3044 9.07768 54.4668 13.3694 53.8366Z" fill="#BB8E61" stroke="black" stroke-width="0.1"/>
<path d="M52.2521 54.8651C51.952 59.5487 51.6797 60.4543 51.1161 60.7866L77.4581 60.9335C77.9995 54.7497 77.9681 50.3176 77.1031 40.1348H65.8373C59.8683 44.1987 56.9927 47.4143 52.3941 54.2045L52.2521 54.8651Z" fill="#B49F7F" stroke="black" stroke-width="0.1"/>
<path d="M58.5225 50.7477L52.4155 54.1565L56.0275 50.6006L58.5225 50.7477Z" fill="#606060" stroke="black" stroke-width="0.1"/>
<path d="M56.0726 51.1619C54.9509 51.9984 54.0869 52.7429 52.4155 54.2234C56.6343 47.4733 59.7646 44.5933 65.864 40.0669C65.5459 45.4444 66.4331 49.4018 62.7732 51.8232C59.4754 51.1058 57.4276 50.5696 56.0726 51.1619Z" fill="#F8F8F8" stroke="black" stroke-width="0.1"/>
<ellipse cx="12.2649" cy="49.4265" rx="0.129936" ry="0.503194" fill="#713C12"/>
<ellipse cx="2.45477" cy="51.2381" rx="0.129936" ry="0.503194" fill="#713C12"/>
<ellipse cx="3.42937" cy="48.9568" rx="0.129936" ry="0.503194" fill="#713C12"/>
<ellipse cx="4.72881" cy="49.9636" rx="0.129936" ry="0.503194" fill="#713C12"/>
<ellipse cx="8.30193" cy="53.2508" rx="0.129936" ry="0.503194" fill="#713C12"/>
<ellipse cx="13.2396" cy="52.2444" rx="0.129936" ry="0.503194" fill="#713C12"/>
<ellipse cx="4.4688" cy="53.7874" rx="0.129936" ry="0.503194" fill="#713C12"/>
<ellipse cx="9.21148" cy="48.9568" rx="0.129936" ry="0.503194" fill="#713C12"/>
<ellipse cx="5.50823" cy="52.2444" rx="0.129936" ry="0.503194" fill="#713C12"/>
<ellipse cx="7.00262" cy="50.6341" rx="0.129936" ry="0.503194" fill="#713C12"/>
<ellipse cx="10.3808" cy="52.2444" rx="0.129936" ry="0.503194" fill="#713C12"/>
<path d="M696.33 40.9279C698.08 42.1 697.891 58.4604 696.803 59.9744C695.932 60.5904 695.475 60.7669 694.674 61L646.383 60.7558C643.025 60.3651 641.127 59.3785 637.964 56.3116C632.96 54.7305 628.317 55.1439 618.383 55.0907L617.721 55.4814L615.167 55.2128V54.7C614.465 55.1488 614.071 55.0543 613.369 54.7V47.1791C614.151 47.1007 614.402 46.8282 614.788 46.886H615.45L617.603 46.9593L618.383 46.886C628.844 46.3282 633.203 45.8238 637.964 44.5418C640.644 41.7095 642.741 40.586 646.383 40L693.87 40.2442C694.905 40.2087 695.437 40.3842 696.33 40.9279Z" fill="#332C00" stroke="black" stroke-width="0.1"/>
<path d="M629 55L624 49L617.928 46.7492L617.596 46.4551L615.294 46.5531L614.748 46.8962H614.843L615.009 47.1168V47.4354L614.962 47.705V47.9746L614.843 48.4892L614.677 48.7343V49.9842L614.393 50.2783H614.084V50.5969L614.559 50.9645L614.677 50.7195L614.748 50.9645L614.843 51.8223L614.962 53.0477L614.843 52.9987L615.009 53.4398L614.843 53.8565H615.009L615.199 54.2976L615.128 54.7387V55.2779C615.579 55.5043 616.4 55.4864 617.691 55.4985L618.355 55.1064L629 55Z" fill="#070405" stroke="black" stroke-width="0.1"/>
<path d="M664 63.3269C662 62.8267 664 63.8269 661 61.327C667.5 60.8273 671 61.0491 674 61.0489C671 65.8267 669.5 65.5489 668 65.0489C664.702 64.3315 665.355 62.7346 664 63.3269Z" fill="#423D37" stroke="black" stroke-width="0.1"/>
<path d="M561.657 66.3172C560.535 67.1536 559 63.7221 556 61.2222C562.5 60.7224 570.5 61.2222 573.5 61.222C573.182 66.5995 569 65.722 567.5 65.222C564.202 64.5046 563.012 65.7248 561.657 66.3172Z" fill="#727070" stroke="black" stroke-width="0.1"/>
<path d="M596.33 40.9279C598.08 42.1 597.891 58.4604 596.803 59.9744C595.932 60.5904 595.475 60.7669 594.674 61L546.383 60.7558C543.025 60.3651 541.127 59.3785 537.964 56.3116C532.96 54.7305 528.317 55.1439 518.383 55.0907L517.721 55.4814L515.167 55.2128V54.7C514.465 55.1488 514.071 55.0543 513.369 54.7V47.1791C514.151 47.1007 514.402 46.8282 514.788 46.886H515.45L517.603 46.9593L518.383 46.886C528.844 46.3282 533.203 45.8238 537.964 44.5418C540.644 41.7095 542.741 40.586 546.383 40L593.87 40.2442C594.905 40.2087 595.437 40.3842 596.33 40.9279Z" fill="#332C00" stroke="black" stroke-width="0.1"/>
<path d="M518.355 55.1064L529 55L525.5 51L527.5 46.5L517.928 46.7492L517.596 46.4551L515.294 46.5531L514.748 46.8962H514.843L515.009 47.1168V47.4354L514.962 47.705V47.9746L514.843 48.4892L514.677 48.7343V49.9842L514.393 50.2783H514.084V50.5969L514.559 50.9645L514.677 50.7195L514.748 50.9645L514.843 51.8223L514.962 53.0477L514.843 52.9987L515.009 53.4398L514.843 53.8565H515.009L515.199 54.2976L515.128 54.7387V55.2779C515.579 55.5043 516.4 55.4864 517.691 55.4985L518.355 55.1064Z" fill="#070405" stroke="black" stroke-width="0.1"/>
<path d="M496.96 40.9279C498.71 42.1 498.521 58.4604 497.433 59.9744C496.563 60.5904 496.106 60.7669 495.305 61L447.014 60.7558C443.656 60.3651 441.758 59.3785 438.595 56.3116C433.59 54.7305 428.948 55.1439 419.014 55.0907L418.351 55.4814L415.797 55.2128V54.7C415.095 55.1488 414.702 55.0543 414 54.7V47.1791C414.782 47.1007 415.033 46.8282 415.419 46.886H416.081L418.233 46.9593L419.014 46.886C429.475 46.3282 433.834 45.8238 438.595 44.5418C441.275 41.7095 443.372 40.586 447.014 40L494.501 40.2442C495.535 40.2087 496.067 40.3842 496.96 40.9279Z" fill="#332C00" stroke="black" stroke-width="0.1"/>
<path d="M430.85 55.1555C431.142 50.9813 431.114 48.8829 430.352 46.0386C425.747 46.4392 423.165 46.5888 418.559 46.7493L418.226 46.4552L415.925 46.5532L415.379 46.8964H415.474L415.64 47.1169V47.4355L415.593 47.7051V47.9747L415.474 48.4894L415.308 48.7344V49.9843L415.023 50.2784H414.715V50.597L415.189 50.9647L415.308 50.7196L415.379 50.9647L415.474 51.8224L415.593 53.0478L415.474 52.9988L415.64 53.44L415.474 53.8566H415.64L415.83 54.2977L415.759 54.7389V55.2781C416.21 55.5044 417.03 55.4865 418.321 55.4986L418.986 55.1065L430.85 55.1555Z" fill="#070405" stroke="black" stroke-width="0.1"/>
<path d="M452 60.7863C452.564 60.4539 452.884 58 452.884 58L476.78 60.987L476.902 60.988L478.384 60V61L476.902 60.988L476.884 61L476.78 60.987L452 60.7863Z" fill="#645134"/>
<path d="M452 60.7863C452.564 60.4539 452.884 58 452.884 58L476.884 61L478.384 60V61L452 60.7863Z" stroke="black" stroke-width="0.1"/>
<path d="M458.5 64.7207C461 63.7207 461.5 62.0005 453 58.0002C459 55.0005 471.5 62.2206 478.5 59.7208C478.182 65.0983 461.5 65.2207 458.5 64.7207Z" fill="#727070" stroke="black" stroke-width="0.1"/>
<path d="M396.83 40.9279C398.58 42.1 398.391 58.4604 397.303 59.9744C396.432 60.5904 395.975 60.7669 395.174 61L346.883 60.7558C343.525 60.3651 341.627 59.3785 338.464 56.3116C333.46 54.7305 328.818 55.1439 318.883 55.0907L318.221 55.4814L315.667 55.2128V54.7C314.965 55.1488 314.571 55.0543 313.87 54.7V47.1791C314.651 47.1007 314.902 46.8282 315.288 46.886H315.951L318.103 46.9593L318.883 46.886C329.344 46.3282 333.703 45.8238 338.464 44.5418C341.144 41.7095 343.241 40.586 346.883 40L394.37 40.2442C395.405 40.2087 395.937 40.3842 396.83 40.9279Z" fill="#332C00" stroke="black" stroke-width="0.1"/>
<path d="M330.72 55.1555C331.011 50.9813 330.983 48.8829 330.221 46.0386C325.616 46.4392 323.034 46.5888 318.428 46.7493L318.096 46.4552L315.794 46.5532L315.249 46.8964H315.343L315.51 47.1169V47.4355L315.462 47.7051V47.9747L315.343 48.4894L315.177 48.7344V49.9843L314.893 50.2784H314.584V50.597L315.059 50.9647L315.177 50.7196L315.249 50.9647L315.343 51.8224L315.462 53.0478L315.343 52.9988L315.51 53.44L315.343 53.8566H315.51L315.699 54.2977L315.628 54.7389V55.2781C316.079 55.5044 316.9 55.4865 318.191 55.4986L318.855 55.1065L330.72 55.1555Z" fill="#070405" stroke="black" stroke-width="0.1"/>
<path d="M313.87 53.8363V48.0452C313 48.0001 314 47.9999 313 48L313.5 49L313 51L313.5 53L313 53.5C313 53.5 313 53.9997 313.87 53.8363Z" fill="#825D38" stroke="black" stroke-width="0.1"/>
<path d="M351.5 60.8755C352.064 60.5432 352.584 58.7724 352.884 54.0889L372.884 58.5889L378.383 55.0895C378.384 55.0853 378.384 55.0889 378.384 55.0889L378.383 55.0895C378.376 55.12 378.319 55.572 377.842 61.0223L351.5 60.8755Z" fill="#645134"/>
<path d="M351.5 60.8755C352.064 60.5432 352.584 58.7724 352.884 54.0889L372.884 58.5889L378.384 55.0889C378.384 55.0889 378.384 54.8386 377.842 61.0223L351.5 60.8755Z" stroke="black" stroke-width="0.1"/>
<path d="M360.884 67.0889C359.384 63.5888 364.969 62.3654 352.884 54.0892C364.469 50.3655 371.884 57.5893 378.384 55.0889C378.884 63.0888 363.884 66.0888 360.884 67.0889Z" fill="#B4B4B4"/>
<path d="M352.884 54.0892C354.555 52.6086 351.762 54.9256 352.884 54.0892ZM352.884 54.0892C364.969 62.3654 359.384 63.5888 360.884 67.0889C363.884 66.0888 378.884 63.0888 378.384 55.0889C371.884 57.5893 364.469 50.3655 352.884 54.0892Z" stroke="black" stroke-width="0.1"/>
<ellipse cx="313.74" cy="52.2444" rx="0.129936" ry="0.503194" fill="#713C12"/>
<path d="M296.33 40.9279C298.08 42.1 297.891 58.4604 296.803 59.9744C295.932 60.5904 295.475 60.7669 294.674 61L246.383 60.7558C243.025 60.3651 241.127 59.3785 237.964 56.3116C232.96 54.7305 228.317 55.1439 218.383 55.0907L217.721 55.4814L215.167 55.2128V54.7C214.465 55.1488 214.071 55.0543 213.369 54.7V47.1791C214.151 47.1007 214.402 46.8282 214.788 46.886H215.45L217.603 46.9593L218.383 46.886C228.844 46.3282 233.203 45.8238 237.964 44.5418C240.644 41.7095 242.741 40.586 246.383 40L293.87 40.2442C294.905 40.2087 295.437 40.3842 296.33 40.9279Z" fill="#332C00" stroke="black" stroke-width="0.1"/>
<path d="M230.22 55.1555C230.511 50.9813 230.483 48.8829 229.721 46.0386C225.116 46.4392 222.534 46.5888 217.928 46.7493L217.596 46.4552L215.294 46.5532L214.749 46.8964H214.843L215.01 47.1169V47.4355L214.962 47.7051V47.9747L214.843 48.4894L214.677 48.7344V49.9843L214.393 50.2784H214.084V50.597L214.559 50.9647L214.677 50.7196L214.749 50.9647L214.843 51.8224L214.962 53.0478L214.843 52.9988L215.01 53.44L214.843 53.8566H215.01L215.199 54.2977L215.128 54.7389V55.2781C215.579 55.5044 216.4 55.4865 217.691 55.4986L218.355 55.1065L230.22 55.1555Z" fill="#070405" stroke="black" stroke-width="0.1"/>
<path d="M213.369 53.8366V48.0455C208.966 47.9462 211.792 47.8176 207.358 47.9404C210 50.5 210 49.9997 208.5 52.5C212.904 52.6501 209.078 54.4668 213.369 53.8366Z" fill="#825D38" stroke="black" stroke-width="0.1"/>
<path d="M251.893 58C251.893 58 250.893 59 251.009 60.7866L277.351 60.9335C277.893 54.7497 278.258 53.6828 277.393 43.5C271.424 47.564 257.893 53 251.893 58Z" fill="#645134" stroke="black" stroke-width="0.1"/>
<path d="M251.893 58C251.968 57.9334 252.055 57.8678 252.152 57.8032C258.73 52.8567 271.374 47.4671 277.393 43C277.075 48.3775 274.053 58.0786 270.393 60.5C268.393 57 266.893 57 263.393 56C261.006 55.5225 254.214 56.4309 252.152 57.8032C252.065 57.8689 251.978 57.9345 251.893 58Z" fill="#B4B4B4"/>
<path d="M251.893 58C253.565 56.5195 260.893 55.5 263.393 56C266.893 57 268.393 57 270.393 60.5C274.053 58.0786 277.075 48.3775 277.393 43C271.294 47.5264 258.393 53 251.893 58Z" stroke="black" stroke-width="0.1"/>
<ellipse cx="212.265" cy="49.4265" rx="0.129936" ry="0.503194" fill="#713C12"/>
<ellipse cx="213.24" cy="52.2444" rx="0.129936" ry="0.503194" fill="#713C12"/>
<ellipse cx="209.211" cy="48.9568" rx="0.129936" ry="0.503194" fill="#713C12"/>
<ellipse cx="210.381" cy="52.2444" rx="0.129936" ry="0.503194" fill="#713C12"/>
<path d="M196.33 40.9279C198.08 42.1 197.891 58.4604 196.803 59.9744C195.932 60.5904 195.475 60.7669 194.674 61L146.383 60.7558C143.025 60.3651 141.127 59.3785 137.964 56.3116C132.96 54.7305 128.317 55.1439 118.383 55.0907L117.721 55.4814L115.167 55.2128V54.7C114.465 55.1488 114.071 55.0543 113.369 54.7V47.1791C114.151 47.1007 114.402 46.8282 114.788 46.886H115.45L117.603 46.9593L118.383 46.886C128.844 46.3282 133.203 45.8238 137.964 44.5418C140.644 41.7095 142.741 40.586 146.383 40L193.87 40.2442C194.905 40.2087 195.437 40.3842 196.33 40.9279Z" fill="#332C00" stroke="black" stroke-width="0.1"/>
<path d="M130.22 55.1555C130.511 50.9813 130.483 48.8829 129.721 46.0386C125.116 46.4392 122.534 46.5888 117.928 46.7493L117.596 46.4552L115.294 46.5532L114.749 46.8964H114.843L115.01 47.1169V47.4355L114.962 47.7051V47.9747L114.843 48.4894L114.677 48.7344V49.9843L114.393 50.2784H114.084V50.597L114.559 50.9647L114.677 50.7196L114.749 50.9647L114.843 51.8224L114.962 53.0478L114.843 52.9988L115.01 53.44L114.843 53.8566H115.01L115.199 54.2977L115.128 54.7389V55.2781C115.579 55.5044 116.4 55.4865 117.691 55.4986L118.355 55.1065L130.22 55.1555Z" fill="#070405" stroke="black" stroke-width="0.1"/>
<path d="M113.369 53.8363V48.0452C108.966 47.9459 110 48 105.5 48.9997C105 50.9997 102.808 51.2555 103 53.4997C107.404 53.6498 109.078 54.4664 113.369 53.8363Z" fill="#825D38" stroke="black" stroke-width="0.1"/>
<path d="M151.884 56C151.584 60.6836 151.564 60.4543 151 60.7866L177.342 60.9335C177.883 54.7497 177.852 50.3176 176.987 40.1348L173.384 40C167.415 44.064 156.483 49.2098 151.884 56Z" fill="#645134" stroke="black" stroke-width="0.1"/>
<path d="M161.384 52.5005C159.384 52.0005 153.555 54.52 151.884 56.0005C156.103 49.2503 167.285 44.5269 173.384 40.0005C173.066 45.378 171.044 56.0791 167.384 58.5005C165.384 56.0005 163.884 54.0005 161.384 52.5005Z" fill="#B4B4B4" stroke="black" stroke-width="0.1"/>
<ellipse cx="112.265" cy="49.4265" rx="0.129936" ry="0.503194" fill="#713C12"/>
<ellipse cx="108.302" cy="53.2508" rx="0.129936" ry="0.503194" fill="#713C12"/>
<ellipse cx="113.24" cy="52.2444" rx="0.129936" ry="0.503194" fill="#713C12"/>
<ellipse cx="109.211" cy="48.9568" rx="0.129936" ry="0.503194" fill="#713C12"/>
<ellipse cx="105.508" cy="52.2444" rx="0.129936" ry="0.503194" fill="#713C12"/>
<ellipse cx="107.003" cy="50.6341" rx="0.129936" ry="0.503194" fill="#713C12"/>
<ellipse cx="110.381" cy="52.2444" rx="0.129936" ry="0.503194" fill="#713C12"/>
<path d="M796.33 40.9279C798.08 42.1 797.891 58.4604 796.803 59.9744C795.932 60.5904 795.475 60.7669 794.674 61L746.383 60.7558C743.025 60.3651 741.127 59.3785 737.964 56.3116C732.96 54.7305 728.317 55.1439 718.383 55.0907L717.721 55.4814L715.167 55.2128V54.7C714.465 55.1488 714.071 55.0543 713.369 54.7V47.1791C714.151 47.1007 714.402 46.8282 714.788 46.886H715.45L717.603 46.9593L718.383 46.886C728.844 46.3282 733.203 45.8238 737.964 44.5418C740.644 41.7095 742.741 40.586 746.383 40L793.87 40.2442C794.905 40.2087 795.437 40.3842 796.33 40.9279Z" fill="#332C00" stroke="black" stroke-width="0.1"/>
<path d="M724 51.5L720.5 50.5L722 46.5L717.596 46.4551L715.294 46.5531L714.748 46.8962H714.843L715.009 47.1168V47.4354L714.962 47.705V47.9746L714.843 48.4892L714.677 48.7343V49.9842L714.393 50.2783H714.084V50.5969L714.559 50.9645L714.677 50.7195L714.748 50.9645L714.843 51.8223L714.962 53.0477L714.843 52.9987L715.009 53.4398L714.843 53.8565H715.009L715.199 54.2976L715.128 54.7387V55.2779C715.579 55.5043 716.4 55.4864 717.691 55.4985L718.355 55.1064L724 51.5Z" fill="#070405" stroke="black" stroke-width="0.1"/>
<path d="M896.33 40.9279C898.08 42.1 897.891 58.4604 896.803 59.9744C895.932 60.5904 895.475 60.7669 894.674 61L846.383 60.7558C843.025 60.3651 841.127 59.3785 837.964 56.3116C832.96 54.7305 828.317 55.1439 818.383 55.0907L817.721 55.4814L815.167 55.2128V54.7C814.465 55.1488 814.071 55.0543 813.369 54.7V47.1791C814.151 47.1007 814.402 46.8282 814.788 46.886H815.45L817.603 46.9593L818.383 46.886C828.844 46.3282 833.203 45.8238 837.964 44.5418C840.644 41.7095 842.741 40.586 846.383 40L893.87 40.2442C894.905 40.2087 895.437 40.3842 896.33 40.9279Z" fill="#332C00" stroke="black" stroke-width="0.1"/>
<path d="M817 48L819.5 49.5L818 50L820 52.5L818.5 54L817.691 55.4988C816.4 55.4867 815.579 55.5046 815.128 55.2782V54.739L815.199 54.2979L815.009 53.8567H814.843L815.009 53.4401L814.843 52.999L814.962 53.048L814.843 51.8226L814.748 50.9648L814.677 50.7197L814.559 50.9648L814.084 50.5972V50.2786H814.393L814.677 49.9845V48.7346L814.843 48.4895L814.962 47.9748V47.7052L815.009 47.4357V47.1171L814.848 46.9024L814.748 46.8965H814.843L814.848 46.9024L816.5 47H818.5L817 48Z" fill="#070405"/>
<path d="M817 48L819.5 49.5L818 50L820 52.5L818.5 54L817.691 55.4988C816.4 55.4867 815.579 55.5046 815.128 55.2782V54.739L815.199 54.2979L815.009 53.8567H814.843L815.009 53.4401L814.843 52.999L814.962 53.048L814.843 51.8226L814.748 50.9648L814.677 50.7197L814.559 50.9648L814.084 50.5972V50.2786H814.393L814.677 49.9845V48.7346L814.843 48.4895L814.962 47.9748V47.7052L815.009 47.4357V47.1171L814.843 46.8965H814.748L816.5 47H818.5L817 48Z" stroke="black" stroke-width="0.1"/>
<path d="M996.33 40.9279C998.08 42.1 997.891 58.4604 996.803 59.9744C995.932 60.5904 995.475 60.7669 994.674 61L946.383 60.7558C943.025 60.3651 941.127 59.3785 937.964 56.3116C932.96 54.7305 928.317 55.1439 918.383 55.0907L917.721 55.4814L915.167 55.2128V54.7C914.465 55.1488 914.071 55.0543 913.369 54.7V47.1791C914.151 47.1007 914.402 46.8282 914.788 46.886H915.45L917.603 46.9593L918.383 46.886C928.844 46.3282 933.203 45.8238 937.964 44.5418C940.644 41.7095 942.741 40.586 946.383 40L993.87 40.2442C994.905 40.2087 995.437 40.3842 996.33 40.9279Z" fill="#332C00" stroke="black" stroke-width="0.1"/>
</svg>
